<?xml version="1.0" encoding="UTF-8"?>
<svg id="Layer_1" xmlns="http://www.w3.org/2000/svg" version="1.1" viewBox="0 0 100 100">
  <!-- Generator: Adobe Illustrator 30.1.0, SVG Export Plug-In . SVG Version: 2.1.1 Build 136)  -->
  <defs>
    <style>
      .st0 {
        fill: #da0046;
      }
    </style>
  </defs>
  <path class="st0" d="M86.36,35.88c4.92.37,8.5,4.23,8.64,8.84.15,4.7-3.31,8.72-7.9,9.36-4.68.65-9.06-2.36-10.18-6.89s1.45-9.28,6.06-10.87c-3.11-11.63-11.95-20.76-23.71-24.09l-.11,4.53c-.02.94-.76,1.66-1.72,1.66h-14.87c-1.1,0-1.73-.85-1.75-1.87l-.09-4.31c-11.75,3.33-20.6,12.47-23.71,24.09,4.54,1.56,7.14,6.12,6.1,10.7s-5.36,7.65-10.04,7.09-8.13-4.5-8.09-9.18,3.67-8.68,8.64-9.03c2.77-10.98,10.19-19.96,20.51-24.88l-10.86-.06c-1.02,4.88-5.37,8-10.18,7.46S4.81,13.86,4.91,9.04,8.59.48,13.3.04s9.03,2.77,10,7.51h17.5s.03-5.7.03-5.7c0-.96.69-1.77,1.72-1.77h14.91c1.03,0,1.72.81,1.72,1.77l.03,5.7h17.5c.95-4.67,5.14-7.87,9.82-7.52s8.46,4.32,8.56,9.01c.11,4.82-3.52,8.86-8.18,9.39-4.89.56-9.21-2.68-10.21-7.48l-10.83.07c10.24,4.91,17.68,13.76,20.49,24.87ZM13.35,3.47c-3.39.48-5.45,3.61-4.96,6.68s3.45,5.32,6.58,4.88,5.48-3.42,4.99-6.66c-.46-3.03-3.27-5.37-6.6-4.9ZM84.93,3.48c-3.4.54-5.46,3.71-4.83,6.9s3.55,5.17,6.76,4.61,5.28-3.49,4.75-6.68c-.5-3.04-3.33-5.36-6.68-4.83ZM55.79,15l-.03-11.53-11.54.02.03,11.54,11.54-.02ZM12.93,39.4c-3.32.74-5.13,3.98-4.34,7.06.77,2.98,3.8,4.86,6.85,4.17s5.06-3.76,4.36-6.85-3.62-5.11-6.88-4.38ZM84.51,39.41c-3.3.77-5.05,4.04-4.27,7.04s3.86,4.84,6.82,4.18c3.17-.71,5.1-3.83,4.39-6.91s-3.69-5.07-6.94-4.31Z"/>
  <path class="st0" d="M68.51,100H31.58c-.93,0-1.74-.74-1.74-1.65v-13.52c0-.89.8-1.56,1.61-1.59l2.52-.12-10.35-13.23c-.37-.47-.25-1.3.03-1.86l20.52-40.27c.31-.61.93-1.02,1.55-1.02h8.57c.62,0,1.25.41,1.56,1.02l20.52,40.26c.33.65.37,1.43-.05,1.98l-10.26,13.12,2.52.12c.8.04,1.61.7,1.61,1.59v13.53c0,.77-.69,1.64-1.66,1.64ZM53.35,30.38c-.2-.39-1.32-.25-1.65-.18v20.9c3.48.99,5.46,4.21,4.88,7.59-.55,3.18-3.37,5.56-6.68,5.51-3.32-.05-6.15-2.57-6.54-5.88s1.68-6.29,4.93-7.25v-20.9c-.58-.03-1.06,0-1.6.12l-19.62,38.51,11.3,14.41,23.3-.02,11.25-14.42-19.57-38.39ZM49.57,54.29c-1.94.28-3.1,2.03-2.79,3.79s1.91,2.96,3.73,2.67c1.66-.26,2.99-1.83,2.72-3.69-.22-1.58-1.72-3.05-3.66-2.77ZM66.76,96.6l-.02-9.99h-33.51s0,9.99,0,9.99h33.52Z"/>
</svg>