<?xml version="1.0" encoding="UTF-8"?>
<svg id="Layer_1" xmlns="http://www.w3.org/2000/svg" version="1.1" viewBox="0 0 100 100">
  <!-- Generator: Adobe Illustrator 30.1.0, SVG Export Plug-In . SVG Version: 2.1.1 Build 136)  -->
  <defs>
    <style>
      .st0 {
        fill: #da0046;
      }
    </style>
  </defs>
  <path class="st0" d="M62.3,0c2.43.72,4.19,2.6,4.18,5.27v6.25s16.32,0,16.32,0c.53.03,1.04.19,1.42.57l12.29,12.31-.04,70.87c0,2.54-2.45,4.71-4.89,4.71h-52.49c-3.14.18-5.58-2.16-5.58-5.27v-21.82s-22.18,0-22.18,0c-.97,0-1.49-.9-1.39-1.66s.71-1.26,1.59-1.26h21.98s0-4.53,0-4.53H11.35c-.96,0-1.49-.87-1.4-1.65s.7-1.29,1.59-1.29h21.98s0-4.4,0-4.4l-21.19-.02c-1.22,0-2.38-1.22-2.38-2.38v-13.29c-.02-1.43,1.12-2.6,2.58-2.61h20.99s0-3.93,0-3.93l-21.18-.02c-1.39,0-2.4-1.35-2.4-2.6v-13.11c0-1.41,1.15-2.58,2.59-2.58h21.01c-.21-3.25,1.5-6.11,4.49-7.26l18.92-7.31-48.1-.03c-1.44,0-2.41.93-2.41,2.38v77.84c0,1.46.99,2.37,2.38,2.37h19.32c.91,0,1.44.76,1.44,1.48s-.56,1.46-1.45,1.46H8.61c-2.96-.01-5.12-2.39-5.12-5.31V5.51c0-2.8,1.58-4.73,4.13-5.51h54.68ZM63.54,11.52l.02-6.47c-.1-.44-.25-.84-.52-1.26l-19.94,7.68,20.44.05ZM93.58,94.57V26.48s-6.67-.02-6.67-.02c-2.94,0-5.31-2.19-5.32-5.18l-.02-6.82-43.22.02c-1.21,0-1.9,1.3-1.9,2.35v77.84c0,1.35.88,2.39,2.26,2.39h52.46c1.46,0,2.41-.9,2.41-2.49ZM86.77,23.53l4.64-.06-6.84-6.86-.05,4.7c-.01,1.19.98,2.24,2.26,2.22ZM33.53,32.89l-.02-12.43H12.84s.03,12.45.03,12.45l20.65-.02ZM33.53,55.12l-.02-12.43H12.85s0,12.44,0,12.44h20.67Z"/>
  <path class="st0" d="M85.63,54.06l.02-20.09h-29.18c-.99-.01-1.61-.64-1.62-1.46,0-.87.63-1.49,1.62-1.49h28.67c1.85,0,3.42,1.37,3.43,3.25v21.1c0,1.91-1.54,3.29-3.44,3.29h-40.18c-2,0-3.49-1.41-3.49-3.41v-20.87c0-1.96,1.55-3.38,3.45-3.37h4.52c.88.01,1.49.72,1.47,1.5s-.62,1.41-1.49,1.42l-5.02.07.03,20.14,10.97-13.19c1.66-2,4.48-2.2,6.32-.3l6.96,8.37,3.15-3.77c1.67-2.05,4.7-2.06,6.41-.03l7.4,8.84ZM63.14,55.73l3.62-4.41-7.22-8.69c-.46-.55-1.36-.44-1.79.08l-10.77,13,16.16.02ZM83.09,55.7l-7.03-8.52c-.26-.23-.7-.52-.97-.54s-.83.24-1.02.47l-7.11,8.6h16.12Z"/>
  <path class="st0" d="M86.91,68.86h-43.67c-.94,0-1.48-.67-1.51-1.4-.03-.78.51-1.53,1.47-1.53h43.68c.88,0,1.41.67,1.46,1.34s-.37,1.58-1.43,1.58Z"/>
  <path class="st0" d="M86.91,76.88h-43.67c-.94,0-1.49-.7-1.51-1.41-.02-.79.51-1.52,1.47-1.52h43.68c.88,0,1.4.64,1.46,1.33s-.37,1.59-1.43,1.59Z"/>
  <path class="st0" d="M75.4,84.89h-32.17c-.92,0-1.48-.7-1.5-1.41-.02-.79.52-1.52,1.47-1.52h31.98c.93,0,1.53.52,1.6,1.34.05.6-.35,1.58-1.37,1.58Z"/>
</svg>