<?xml version="1.0" encoding="UTF-8"?>
<svg id="Layer_1" xmlns="http://www.w3.org/2000/svg" version="1.1" viewBox="0 0 100 100">
  <!-- Generator: Adobe Illustrator 30.1.0, SVG Export Plug-In . SVG Version: 2.1.1 Build 136)  -->
  <defs>
    <style>
      .st0 {
        fill: #da0046;
      }
    </style>
  </defs>
  <path class="st0" d="M0,88.86V19.72c.44-.88,1.07-1.45,2.14-1.45h6.56s.02-6.77.02-6.77c.24-1.22,1.26-1.93,2.54-1.63l38.73,8.36,38.91-8.39c1.3-.22,2.29.62,2.38,1.86l.02,6.56,6.75.03c1.13,0,1.94.87,1.95,2.06v67.89c0,1.15-.9,1.95-2.01,1.95H1.83c-.95,0-1.36-.77-1.83-1.33ZM48.04,85.8l-.04-63.98L12.63,14.19v63.98s35.41,7.63,35.41,7.63ZM68.77,86.25l27.32.02V22.23s-4.8-.03-4.8-.03l-.03,19c0,1.13-1.19,1.8-2.06,1.74-.97-.07-1.69-.76-1.84-1.82V14.19s-35.47,7.63-35.47,7.63l.06,63.99,35.41-7.62v-19.74c.13-1.15,1.01-1.86,2-1.83s1.92.81,1.92,1.98v21.07c0,1.06-.64,1.78-1.63,2.03l-20.88,4.55ZM10.13,81.64c-.94-.36-1.42-1-1.42-2V22.21s-4.81.02-4.81.02v64.05s27.39-.03,27.39-.03l-21.16-4.61Z"/>
  <path class="st0" d="M59.43,73.56c-1.32.28-2.48-.62-2.48-1.9v-19.51c0-.92.57-1.75,1.49-1.94l21.81-4.71c.6-.13,1.27.04,1.7.35.39.29.75.97.75,1.62v19.52c0,.91-.67,1.7-1.55,1.89l-21.72,4.69ZM78.79,65.38v-15.56s-17.92,3.86-17.92,3.86v15.56s17.92-3.86,17.92-3.86Z"/>
  <path class="st0" d="M59.5,34.41c-1.27.27-2.23-.44-2.46-1.36-.29-1.13.36-2.19,1.52-2.44l21.64-4.68c1.17-.25,2.17.4,2.4,1.35.28,1.14-.34,2.21-1.54,2.47l-21.58,4.66Z"/>
  <path class="st0" d="M59.53,44.18c-1.21.26-2.14-.33-2.44-1.21-.36-1.03.17-2.3,1.34-2.55l21.81-4.72c1.19-.26,2.19.44,2.4,1.48s-.36,2.08-1.53,2.33l-21.58,4.66Z"/>
  <path class="st0" d="M88.67,47.92c1.1-.39,2.18.2,2.5,1.21s-.12,2.12-1.33,2.48c-.8.24-1.9-.12-2.32-1.15-.35-.86-.03-2.13,1.14-2.54Z"/>
  <path class="st0" d="M40.83,44.21l-21.89-4.73c-.94-.2-1.44-1.11-1.44-1.98v-9.59c0-.59.28-1.24.7-1.6.38-.32,1.11-.53,1.76-.39l21.67,4.68c1,.22,1.61,1.02,1.61,2.01v9.58c0,1.23-1.01,2.33-2.41,2.02ZM39.31,39.88l.02-5.78-17.91-3.85v5.77s17.89,3.85,17.89,3.85Z"/>
  <path class="st0" d="M41.68,50.18c1.22.26,1.72,1.41,1.48,2.42-.21.87-1.17,1.65-2.28,1.41l-21.79-4.7c-1.17-.25-1.74-1.31-1.53-2.34s1.21-1.73,2.4-1.47l21.73,4.69Z"/>
  <path class="st0" d="M41.5,59.92c1.25.27,1.85,1.2,1.69,2.28-.14.96-1.14,1.84-2.32,1.59l-21.83-4.71c-1.16-.25-1.7-1.35-1.48-2.35s1.21-1.71,2.38-1.46l21.57,4.65Z"/>
  <path class="st0" d="M41.51,69.7c1.25.27,1.84,1.21,1.69,2.27s-1.17,1.85-2.36,1.6l-21.8-4.71c-1.15-.25-1.7-1.35-1.48-2.35s1.21-1.71,2.37-1.46l21.58,4.65Z"/>
</svg>