<?xml version="1.0" encoding="UTF-8"?>
<svg id="Layer_1" xmlns="http://www.w3.org/2000/svg" version="1.1" viewBox="0 0 100 100">
  <!-- Generator: Adobe Illustrator 30.1.0, SVG Export Plug-In . SVG Version: 2.1.1 Build 136)  -->
  <defs>
    <style>
      .st0 {
        fill: #da0046;
      }
    </style>
  </defs>
  <path class="st0" d="M81.59,97.82c.25,1.19-.43,2.18-1.63,2.18H20.05c-.58,0-1.17-.36-1.38-.66-.28-.39-.33-1.03-.23-1.59l11.09-32.15c-6.15-2.74-11.44-6.62-16.19-11.57v36.21c1.96.84,3.32,2.55,3.32,4.75v3.36c0,.89-.75,1.65-1.66,1.65H1.67c-.92,0-1.65-.76-1.66-1.65L0,95.2c-.01-2.19,1.17-4.1,3.34-4.92v-43.86c-1.82-.77-3.05-2.29-3.28-4.08-.26-2,.64-3.73,2.25-4.94-3.2-3.44-2.98-8.54.19-11.68s8.43-3.2,11.67-.01,3.37,8.3.19,11.72c2.12,1.48,2.89,3.97,1.83,6.37,2.3,2.34,4.46,4.6,7.13,6.8v-22.85c-2.37-2.77-2.16-6.72.35-9.19s6.5-2.54,9.11-.19,3.05,6.33.62,9.29c9.19,8.72,23.81,8.83,33.19.03-2.34-2.85-2.05-6.81.52-9.22s6.55-2.41,9.11,0,2.86,6.47.44,9.29v22.85c2.65-2.15,4.76-4.38,7.14-6.75-1.05-2.4-.29-4.92,1.83-6.44-3.2-3.44-2.99-8.54.19-11.68,3.21-3.17,8.43-3.19,11.66-.01s3.37,8.3.2,11.71c1.66,1.19,2.51,2.95,2.25,4.91-.23,1.71-1.35,3.32-3.27,4.04v43.86c1.97.83,3.32,2.55,3.32,4.75v3.36c0,.89-.75,1.65-1.66,1.65h-13.33c-.94,0-1.64-.76-1.65-1.65l-.04-2.93c-.03-2.27,1.09-4.28,3.36-5.14v-36.22c-4.77,4.9-9.99,8.79-16.19,11.54l11.11,32.22ZM27.5,20.13c-1.96.53-2.88,2.5-2.33,4.21s2.3,2.66,4.02,2.21,2.84-2.28,2.37-4.06c-.44-1.67-2.17-2.86-4.05-2.36ZM70.83,20.13c-1.96.53-2.88,2.5-2.33,4.21s2.3,2.66,4.02,2.21,2.84-2.28,2.37-4.06c-.44-1.67-2.17-2.86-4.05-2.36ZM7.3,26.8c-2.88.62-4.45,3.44-3.8,6.07s3.25,4.24,5.89,3.68,4.41-3.23,3.83-5.93-3.09-4.43-5.92-3.82ZM90.63,26.8c-2.88.62-4.45,3.44-3.8,6.07s3.25,4.24,5.89,3.68,4.41-3.23,3.83-5.93-3.09-4.43-5.92-3.82ZM30.01,48.3v-18.46c-1.14.14-2,.16-3.33,0l-.02,18.49,3.34-.03ZM73.34,48.3v-18.46c-1.14.14-2,.16-3.33,0l-.02,18.49,3.34-.03ZM63.42,48.33c.79.14,1.23.53,1.48,1.1l2.39,6.91c2.91-1.33,5.45-2.78,7.98-4.65l-6.95-.03c-.93-.03-1.62-.7-1.65-1.66l-.02-17.98c-9.98,7.42-23.34,7.42-33.31,0l-.02,17.97c-.04.96-.72,1.63-1.65,1.66l-6.93.04c2.51,1.87,5.06,3.32,7.96,4.64l2.39-6.9c.25-.73.97-1.12,1.79-1.1h26.53ZM11.68,43.33c1.02,0,1.69-.88,1.64-1.76-.04-.78-.68-1.57-1.64-1.57h-6.68c-1.03,0-1.69.87-1.64,1.76.04.78.69,1.57,1.64,1.57h6.68ZM95.01,43.33c1.02,0,1.69-.88,1.64-1.76-.04-.78-.68-1.57-1.64-1.57h-6.68c-1.03,0-1.69.87-1.64,1.76.04.78.69,1.57,1.64,1.57h6.68ZM86.41,46.03l-4.01,3.91c-18.07,17.63-46.67,17.57-64.8,0l-4.06-3.94c-.25,1.33-.21,2.05-.24,3.25l3.62,3.64c18.23,18.28,47.77,18.36,66.04.11l3.65-3.65c.11-1.06.16-2.08-.21-3.31ZM10.01,89.95v-43.27s-3.33,0-3.33,0v43.31s3.33-.04,3.33-.04ZM93.34,89.95v-43.27s-3.33,0-3.33,0v43.31s3.33-.04,3.33-.04ZM64.18,57.56l-2.04-5.89h-24.3s-1.99,5.91-1.99,5.91c9.32,3.24,19.15,3.22,28.33-.02ZM77.66,96.66l-10.26-29.78c-11.34,4.16-23.43,4.15-34.77,0l-10.27,29.79h55.3ZM13.33,96.67v-1.68c0-.9-.73-1.65-1.65-1.65h-6.68c-.92,0-1.65.74-1.65,1.65v1.68s9.99,0,9.99,0ZM96.67,96.67v-1.68c0-.9-.73-1.65-1.65-1.65h-6.68c-.92,0-1.65.74-1.65,1.65v1.68s9.99,0,9.99,0Z"/>
  <path class="st0" d="M56.69,25.31c-.3.72-.81,1.25-1.39,1.34-.69.1-1.51-.25-1.8-.94l-2.77-6.59-4.77-2.6c-.51-.28-.92-.91-.95-1.41s.32-1.26.81-1.53l4.91-2.68,2.69-6.44c.26-.63.88-1.08,1.48-1.11s1.35.34,1.6.95l2.77,6.58,4.77,2.6c.5.27.92.91.95,1.41.03.63-.37,1.31-.95,1.62l-4.78,2.6-2.59,6.19ZM54.99,20.52c2.36-4.73.32-2.82,4.72-5.51-4.43-2.7-2.39-.88-4.72-5.53l-1.64,3.7-3.1,1.82,3.09,1.82,1.64,3.7Z"/>
  <rect class="st0" x="40.01" y="0" width="3.33" height="3.33"/>
  <rect class="st0" x="36.67" y="3.33" width="3.33" height="3.33"/>
  <rect class="st0" x="43.34" y="3.33" width="3.33" height="3.33"/>
  <rect class="st0" x="40.01" y="6.67" width="3.33" height="3.33"/>
  <rect class="st0" x="76.67" y="3.33" width="3.34" height="3.33" transform="translate(0 .09) rotate(-.07)"/>
  <rect class="st0" x="21.67" y="5" width="3.34" height="3.33" transform="translate(0 .03) rotate(-.07)"/>
  <rect class="st0" x="40.01" y="21.67" width="3.34" height="3.33" transform="translate(-.03 .05) rotate(-.07)"/>
</svg>