<?xml version="1.0" encoding="UTF-8"?>
<svg id="Layer_1" xmlns="http://www.w3.org/2000/svg" version="1.1" viewBox="0 0 100 100">
  <!-- Generator: Adobe Illustrator 30.1.0, SVG Export Plug-In . SVG Version: 2.1.1 Build 136)  -->
  <defs>
    <style>
      .st0 {
        fill: #da0046;
      }
    </style>
  </defs>
  <path class="st0" d="M31.25,0v12.5s4.15,0,4.15,0l.04,4.16h29.13s.04-4.16.04-4.16h4.15s0-12.5,0-12.5h4.1l.07,12.47,4.15.05.03,4.12,8.31.06v83.3s-70.83,0-70.83,0V16.68s8.29-.02,8.29-.02l.05-4.14,4.14-.04.07-12.48h4.1ZM31.25,20.84l-.02-4.17h-4.14s0,4.17,0,4.17h4.16ZM72.92,20.83l-.02-4.16h-4.14s0,4.17,0,4.17h4.16ZM64.6,25l-.04-4.16h-29.13s-.04,4.17-.04,4.17h-12.47s-.03-4.18-.03-4.18l-4.15.05v74.95s62.5.01,62.5.01V20.84s-4.14,0-4.14,0l-.03,4.15h-12.47Z"/>
  <path class="st0" d="M28.16,66.66l12.45-20.8,5.04,8.33,9.55-16.65,16.66,29.13H28.16ZM64.67,62.48l-9.47-16.55-9.47,16.58,18.94-.03ZM40.96,62.48l2.32-4.12-2.66-4.4-5.12,8.52h5.46Z"/>
  <path class="st0" d="M66.68,79.17h-33.25c-1.3,0-2.14-.98-2.14-2.1,0-1.06.85-2.05,2.14-2.05h33.15c1.22,0,2.04.88,2.13,1.89s-.63,2.26-2.03,2.26Z"/>
  <path class="st0" d="M58.1,83.34c1.33,0,2.19.83,2.28,1.93s-.73,2.23-2.01,2.23h-16.74c-1.21,0-2.01-1.08-2.01-2.04,0-1.19.9-2.11,2.19-2.11h16.3Z"/>
</svg>