<?xml version="1.0" encoding="UTF-8"?>
<svg id="Layer_1" xmlns="http://www.w3.org/2000/svg" version="1.1" viewBox="0 0 100 100">
  <!-- Generator: Adobe Illustrator 30.1.0, SVG Export Plug-In . SVG Version: 2.1.1 Build 136)  -->
  <defs>
    <style>
      .st0 {
        fill: #da0046;
      }
    </style>
  </defs>
  <path class="st0" d="M96.47,100H.02v-47.07l11.71-17.37v-11.67s39.82,0,39.82,0v11.65c.45.92.92,1.79,1.46,2.6,1.74-5.63,5.6-9.92,11-12.1V0s14.65,0,14.65,0v26.02c6.94,2.81,11.67,9.4,11.69,16.96l.03,13.06h3c2.46,0,4.58,1.8,4.59,4.35l.03,6.37-2.88.06c-.1.35-.08,1.14.14,1.4,2.78,1.65,4.68,4.48,4.68,7.83l.02,19.57c0,2.26-1.63,3.67-3.51,4.37ZM75.74,11.52V2.93s-8.79,0-8.79,0v8.59s8.79,0,8.79,0ZM72.51,66.81l-2.83-.02v-6.62c.25-2.57,2.25-4.13,4.75-4.12h13.02s-.01-12.69-.01-12.69c0-7.19-4.76-13.29-11.7-15.22v-13.67s-8.79-.01-8.79-.01l-.02,13.7c-6.71,1.86-11.31,7.56-11.66,14.42l5.68,10.6v43.9s6.95,0,6.95,0c-.08-.7-.18-1.29-.18-1.96v-18.72c0-3.46,1.75-6.51,4.75-8.17.13-.39.15-1.11.04-1.4ZM48.62,34.51v-7.68s-33.94,0-33.94,0v7.68s33.94,0,33.94,0ZM38.88,52.08l8.61-14.63-33.5-.02-9.75,14.65h34.64ZM58.03,97.06v-43.15s-8.01-14.95-8.01-14.95l-8.85,14.96v43.14s16.86-.01,16.86-.01ZM38.24,97.07v-42.05s-35.29,0-35.29,0v42.05s35.29,0,35.29,0ZM95.07,63.86v-3.45c-.01-.75-.7-1.43-1.5-1.43h-19.51c-.84,0-1.46.78-1.45,1.54l.03,3.35h22.43ZM96.95,75.45c-.41-2.88-2.28-4.59-4.77-5.37l-.06-3.28h-16.57s-.02,3.27-.02,3.27c-2.57.78-4.55,2.75-4.75,5.4h26.17ZM97.03,91.27v-12.88s-26.37,0-26.37,0v12.89s26.37,0,26.37,0ZM95.61,97.07c1.47,0,1.63-2.08,1.3-2.86h-26.17c-.05.52-.07.96-.06,1.53.02.66.7,1.33,1.42,1.33h23.5Z"/>
  <polygon class="st0" points="30.59 80.86 9.68 80.86 9.64 77.93 30.58 77.93 30.59 80.86"/>
  <polygon class="st0" points="29.01 73.44 9.64 73.44 9.64 70.51 29 70.51 29.01 73.44"/>
  <polygon class="st0" points="22.01 88.28 9.64 88.28 9.63 85.36 21.97 85.35 22.01 88.28"/>
  <path class="st0" d="M80.3,38.42c-1.37-2.19-3.1-3.56-5.41-4.43l.94-2.75c3.01,1.02,5.35,2.94,6.98,5.68l-2.5,1.5Z"/>
  <polygon class="st0" points="84.55 43.26 81.65 43.29 81.3 40.77 84.11 40 84.55 43.26"/>
  <polygon class="st0" points="17.16 43.28 13.65 48.49 11.23 46.87 15.53 40.38 22.94 40.36 22.97 43.3 17.16 43.28"/>
  <polygon class="st0" points="28.84 43.28 25.91 43.28 25.9 40.39 28.81 40.37 28.84 43.28"/>
  <polygon class="st0" points="80.43 86.28 77.51 86.3 77.5 83.38 80.4 83.37 80.43 86.28"/>
  <polygon class="st0" points="86.29 86.28 83.37 86.3 83.36 83.38 86.26 83.37 86.29 86.28"/>
  <polygon class="st0" points="92.15 86.28 89.23 86.3 89.22 83.38 92.12 83.37 92.15 86.28"/>
</svg>