<?xml version="1.0" encoding="UTF-8"?>
<svg id="Layer_1" xmlns="http://www.w3.org/2000/svg" version="1.1" viewBox="0 0 80 30">
  <!-- Generator: Adobe Illustrator 29.0.0, SVG Export Plug-In . SVG Version: 2.1.0 Build 186)  -->
  <defs>
    <style>
      .st0 {
        fill: #da0046;
      }
    </style>
  </defs>
  <path class="st0" d="M0,19.9c.3-1.2.7-2.4,1-3.6.6-2,1.2-4,1.7-5.9,0-.3.2-.4.5-.4,1.3,0,2.6,0,3.9,0,.3,0,.4,0,.5.3.1.5.2,1,.4,1.5.5,2.1,1.1,4.2,1.6,6.4.1.6.2,1.2.3,1.9-.9,0-1.7,0-2.6,0,0,0-.2-.2-.2-.3-.2-.5-.4-1-.5-1.6,0-.3-.2-.4-.5-.4-.8,0-1.5,0-2.3,0-.1,0-.3.1-.3.3-.2.6-.4,1.2-.6,1.7,0,.1-.3.3-.4.3-.8,0-1.7,0-2.5,0v-.2h0ZM4.3,14.9h1.6c-.3-.8-.5-1.6-.8-2.4,0,0,0,0,0,0-.2.8-.5,1.6-.7,2.4Z"/>
  <path class="st0" d="M65.2,9.9c.2,0,.3,0,.5,0,1.1,0,1.9.7,2.7,1.5-.6.6-1.2,1.1-1.8,1.6,0,0-.4,0-.4,0-1.3-1-3.1-.3-3.4,1.3,0,.4,0,.8,0,1.2.2,1.1,1.9,2,2.9,1.5.3-.1.5-.5.8-.7,0,0,0-.1,0-.2-.5,0-1,0-1.5-.1v-2.4h5c0,1.2,0,2.4-.6,3.5-.3.5-.6,1-.9,1.6,0,0,0,0-.1,0-.5.1-.7.7-1.3.6,0,0-.1,0-.2,0-.3.4-.9.3-1.3.4-.3,0-.6,0-1,0-.2,0-.4,0-.6,0-.7-.4-1.5-.7-2.2-1.2-.5-.4-1-1-1.3-1.6-1.8-2.9.3-6.7,3.5-7.2.1,0,.2,0,.3,0h.9,0Z"/>
  <path class="st0" d="M59.4,12.8h-6.8c-.5,0-.7.3-.6.9h5v2.7h-5v1h7.4v2.6h-10v-8.1c0,0-.1,0-.2-.1,0,0,0,.2-.1.3-.7,1-1.4,2.1-2.1,3.1-.1.2-.2.4-.2.7,0,1.2,0,2.5,0,3.7v.5h-2.5c0-1.1,0-2.1-.1-3.2,0-.7,0-1.3,0-2,0-.1,0-.3-.2-.4-.9-1.1-1.8-2.1-2.7-3.2-.3-.4-.6-.8-1-1.3.6,0,1.1,0,1.7,0,1.1-.2,1.8.2,2.3,1.2.3.5.6.9.9,1.3.2.3.4.3.6,0,.5-.7,1-1.4,1.5-2.1.1-.2.4-.3.6-.4.7,0,1.4,0,2.2,0,.3,0,.5,0,.8,0h8.5v2.8h0s0,0,0,0Z"/>
  <path class="st0" d="M30.6,13c-1,0-2,.2-2.8,0-1.1-.4-2.1-.3-3.2-.4-.4,0-.8,0-1.1.2-.1,0-.3.2-.4.4.1.1.3.3.4.3.7.3,1.5,0,2.3,0,.7,0,1.5,0,2.2,0,.9,0,1.5.7,2,1.4.2.3.3.7.4,1,.1.3.4.7,0,1,.3,1-.5,1.4-1,2-.5.6-1.2.9-2,.9-1.5,0-3.1,0-4.6,0-.2,0-.4-.1-.5-.2-.5-.2-1-.5-1.4-1-.4-.6-.5-1.2-.4-2,.7,0,1.5,0,2.2,0,0,0,.2,0,.2.1.1.4.4.4.8.4,1.1,0,2.3,0,3.4-.1.3,0,.6-.2.6-.5,0-.3-.3-.5-.6-.5-.9,0-1.7,0-2.6,0-.7,0-1.5-.1-2.2-.3-.9-.2-1.6-.9-1.7-1.8,0-.6-.1-1.2,0-1.7,0-.9.9-1.9,2.2-2.1,1.8-.3,3.6-.3,5.3,0,1.4.2,2.4,1.4,2.4,2.8h0Z"/>
  <path class="st0" d="M31.1,20c1-3.3,1.9-6.5,2.8-9.7,0-.2.2-.3.4-.3,1.1,0,2.3.1,3.4.1.3,0,.6,0,1-.1.1.3.2.6.3,1,.4,1.6.7,3.2,1.1,4.8.2.7.4,1.4.6,2,.2.6.3,1.2.5,1.8,0,.3,0,.4-.3.4-.7,0-1.4,0-2.1,0-.1,0-.3-.2-.4-.3-.2-.5-.3-1.1-.5-1.6,0-.1-.2-.3-.4-.3-.8,0-1.6,0-2.4-.1-.1,0-.3.2-.3.3-.2.6-.4,1.1-.6,1.7,0,.2-.2.3-.4.3h-2.5ZM37.1,14.9c-.3-.9-.6-1.7-.9-2.6-.3.9-.5,1.7-.7,2.6,0,0,1.6,0,1.6,0Z"/>
  <path class="st0" d="M80,20.1c-.8,0-1.6,0-2.5-.1,0-.4,0-.8,0-1.2,0-.7,0-1.3-.1-2,0-.1-.2-.3-.3-.3-1.4,0-2.8,0-4.2,0-.4,1.1-.1,2.3-.2,3.5h-2.5v-9.7h2.5v.8c0,.8,0,1.6,0,2.4,0,.2,0,.4.3.4,1.4,0,2.7,0,4.1,0,.3,0,.3-.1.3-.4,0-1,0-1.9,0-2.9,0-.1,0-.2,0-.3h2.5v9.8h0Z"/>
  <path class="st0" d="M10.3,20v-9.8h2.4c0,.2,0,.3,0,.5,0,2.1,0,4.3,0,6.4,0,.4,0,.5.5.5,2.2,0,4.3,0,6.5,0,.3,0,.5,0,.5.4,0,.5,0,1,0,1.6,0,.3-.2.3-.4.3h-9.5Z"/>
</svg>