<?xml version="1.0" encoding="UTF-8"?>
<svg id="Layer_1" xmlns="http://www.w3.org/2000/svg" version="1.1" viewBox="0 0 80 30">
  <!-- Generator: Adobe Illustrator 29.5.0, SVG Export Plug-In . SVG Version: 2.1.0 Build 137)  -->
  <defs>
    <style>
      .st0 {
        fill: #da0046;
      }
    </style>
  </defs>
  <path class="st0" d="M73.63,9.83c.32-.34,1.01-.51,2.08-.51s1.76.15,2.08.44c.32.29.48.93.48,1.9v.43s-5.12,0-5.12,0c0-1.16.16-1.91.48-2.25M79.63,14.65h-1.35v.28c0,.62-.16,1.02-.48,1.21-.32.19-1.01.28-2.07.28-1.12,0-1.83-.2-2.14-.59-.3-.39-.46-1.3-.46-2.72h6.5v-.71c0-1.72-.26-2.85-.77-3.38-.52-.53-1.61-.8-3.27-.8-1.52,0-2.54.31-3.07.93-.53.62-.79,1.82-.79,3.63,0,1.94.26,3.22.78,3.83.52.61,1.61.91,3.27.91,1.43,0,2.43-.19,3-.56.57-.37.85-1.03.85-1.97v-.33Z"/>
  <path class="st0" d="M48.41,15.71c-.34.28-1.07.43-2.18.43h-1.31s-3.09,0-3.09,0v-4.77h3.75c1.54,0,2.48.13,2.82.39.35.26.52.97.52,2.12,0,.92-.17,1.53-.52,1.82M41.83,5.71h4.22c1.04,0,1.71.13,2.01.38.31.25.46.82.46,1.69,0,1-.18,1.64-.52,1.94-.35.29-1.13.43-2.35.43h-3.83v-4.44ZM48.26,10.63v-.03c1.1-.38,1.65-1.28,1.65-2.71s-.24-2.32-.73-2.76c-.49-.43-1.52-.65-3.1-.65h-5.7v12.89h6.32c1.33,0,2.27-.28,2.81-.83.54-.55.81-1.52.81-2.88,0-1.69-.68-2.7-2.05-3.03"/>
  <path class="st0" d="M66.3,8.22c-1.6,0-2.6.46-3,1.39l-.04-.03.04-1.23h-1.28v9.03h1.32v-5.43c0-1.76.93-2.64,2.78-2.64.84,0,1.42.13,1.71.4.3.27.44.79.44,1.56v6.1h1.32v-5.87c0-1.28-.23-2.15-.68-2.61-.46-.45-1.33-.68-2.62-.68"/>
  <path class="st0" d="M58.16,15.84c-.28.38-1.01.57-2.19.57s-1.9-.19-2.17-.57c-.28-.38-.42-1.37-.42-2.98s.14-2.6.42-2.98c.28-.38,1.01-.57,2.17-.57s1.91.19,2.19.57c.28.38.42,1.38.42,2.98s-.14,2.6-.42,2.98M55.97,8.22c-1.66,0-2.74.29-3.24.87-.5.58-.75,1.84-.75,3.78s.25,3.2.75,3.78c.5.58,1.58.87,3.24.87s2.75-.29,3.25-.87c.5-.58.75-1.84.75-3.78s-.25-3.2-.75-3.78c-.5-.58-1.58-.87-3.25-.87"/>
  <path class="st0" d="M33.83,4.49c-1.58,0-2.61.22-3.1.65-.49.43-.73,1.36-.73,2.76s.55,2.33,1.65,2.71v.03c-1.37.33-2.05,1.34-2.05,3.03,0,1.37.27,2.33.81,2.88.54.55,1.47.83,2.81.83h6.32V4.49h-5.7ZM38.08,16.15h-4.4c-1.11,0-1.83-.15-2.17-.44-.34-.29-.52-.89-.52-1.82,0-1.15.17-1.86.52-2.12.35-.26,1.29-.39,2.82-.39h3.75v4.77ZM38.08,10.15h-3.82c-1.21,0-2-.15-2.35-.43-.35-.29-.53-.94-.53-1.94,0-.87.15-1.43.46-1.69.3-.26.98-.38,2.02-.38h4.22v4.44Z"/>
  <path class="st0" d="M24.45,11.88c-1.59,0-2.54.31-2.85.93h-.03v-1.1c0-1.03.14-1.7.42-2.01.28-.3.9-.46,1.86-.46,1.62,0,2.43.45,2.43,1.37,0,.04,0,.13,0,.26h1.31c0-1.05-.23-1.76-.71-2.12-.48-.36-1.41-.54-2.79-.54-1.5,0-2.52.22-3.05.66-.53.44-.79,1.29-.79,2.54v5.96h1.32l-.1-.97h.03c.51.74,1.53,1.11,3.07,1.11,2.28,0,3.42-.91,3.42-2.75,0-1.09-.25-1.84-.77-2.26-.51-.42-1.43-.62-2.77-.62M26.14,16.06c-.3.24-.92.36-1.84.36-1.86,0-2.79-.57-2.79-1.7,0-.71.18-1.19.54-1.43.36-.25,1.06-.37,2.11-.37s1.67.11,1.98.32c.3.21.46.67.46,1.38s-.15,1.22-.45,1.45"/>
  <path class="st0" d="M14.24,8.22c-1.47,0-2.47.21-3,.65-.54.43-.81,1.24-.81,2.43h1.32v-.24c0-.7.17-1.17.52-1.4.35-.23,1.04-.35,2.07-.35s1.63.22,1.92.66c.28.44.43,1.43.43,2.96s-.16,2.45-.49,2.86c-.32.41-1.08.62-2.27.62-1.01,0-1.65-.13-1.92-.4-.27-.26-.41-.9-.41-1.89h-1.32v.49c0,1.94,1.26,2.9,3.79,2.9,1.62,0,2.7-.31,3.22-.91.52-.61.78-1.87.78-3.78,0-1.79-.27-3-.8-3.64-.53-.64-1.54-.96-3.03-.96"/>
  <polygon class="st0" points="7.11 4.49 7.11 11.97 6.5 11.97 3.31 8.35 1.65 8.35 5.51 12.49 .95 17.38 2.73 17.38 6.57 13 7.11 13 7.11 17.38 8.43 17.38 8.43 4.49 7.11 4.49"/>
  <path class="st0" d="M1.39,20.53l-1.39,3.8h.46l.29-.81h1.92l.29.81h.45l-1.42-3.8h-.6ZM1.7,20.88l.84,2.32H.87l.83-2.32Z"/>
  <path class="st0" d="M5.62,22h0c-.09-.24-.38-.37-.87-.37-.39,0-.66.1-.81.29-.15.19-.22.54-.22,1.04,0,.54.07.91.22,1.11.15.2.43.3.84.3.45,0,.73-.13.85-.39h.01s-.02.35-.02.35h.39v-3.8h-.39v1.47ZM5.47,23.84c-.1.14-.31.21-.63.21-.29,0-.49-.07-.58-.21-.09-.14-.14-.43-.14-.88,0-.4.05-.67.14-.81.09-.13.29-.2.57-.2.31,0,.51.06.62.2.11.13.16.39.16.77,0,.47-.05.77-.15.91"/>
  <polygon class="st0" points="7.78 23.12 7.63 23.57 7.57 23.8 7.5 24.03 7.49 24.03 7.41 23.8 7.35 23.57 7.2 23.11 6.73 21.67 6.33 21.67 7.21 24.33 7.77 24.33 8.66 21.67 8.23 21.67 7.78 23.12"/>
  <path class="st0" d="M10.83,23.52v.08c0,.18-.05.3-.14.36-.1.05-.3.08-.61.08-.33,0-.54-.05-.63-.17-.09-.11-.13-.38-.13-.8h1.91v-.21c0-.51-.08-.84-.23-1-.15-.16-.47-.24-.96-.24-.45,0-.75.09-.9.27-.15.18-.23.54-.23,1.07,0,.57.08.95.23,1.13.15.18.48.27.96.27.42,0,.72-.05.88-.16.17-.11.25-.31.25-.58v-.1h-.4ZM9.46,22.1c.09-.1.3-.15.61-.15s.52.04.61.13c.1.09.14.27.14.56v.13s-1.51,0-1.51,0c0-.34.05-.56.14-.67"/>
  <path class="st0" d="M13.01,21.61c-.36,0-.61.13-.76.38h-.01s.04-.32.04-.32h-.39v2.66h.39v-1.59c0-.54.22-.81.65-.81.3,0,.45.14.45.41,0,.02,0,.07,0,.14v.07s.38,0,.38,0v-.18c0-.5-.24-.76-.73-.76"/>
  <path class="st0" d="M15.27,23.39v.15s0,.13,0,.13c0,.25-.12.38-.38.38s-.38-.14-.38-.42v-1.63h1.02v-.32h-1.02v-.64h-.39v.64h-.37v.32h.37v1.72c0,.44.26.65.77.65s.75-.26.75-.79v-.2h-.36Z"/>
  <rect class="st0" x="15.97" y="21.67" width=".39" height="2.66"/>
  <rect class="st0" x="15.97" y="20.53" width=".39" height=".44"/>
  <path class="st0" d="M18.46,22.83l-.4-.02h-.31c-.26-.03-.39-.17-.39-.44,0-.18.04-.29.12-.34.08-.05.26-.07.55-.07.31,0,.5.02.58.07.07.04.11.16.11.34h.39v-.1c0-.42-.35-.64-1.06-.64-.44,0-.73.05-.88.15-.15.1-.22.3-.22.6,0,.32.09.52.28.62.19.1.57.15,1.16.15.26,0,.38.14.38.42,0,.2-.05.32-.15.39-.1.06-.31.09-.63.09-.26,0-.44-.03-.52-.09-.09-.06-.14-.17-.14-.35v-.12h-.4v.14c0,.28.08.48.24.58.17.11.47.16.9.16s.72-.05.88-.17c.16-.11.24-.32.24-.61,0-.48-.24-.73-.72-.76"/>
  <rect class="st0" x="19.74" y="20.53" width=".39" height=".44"/>
  <rect class="st0" x="19.74" y="21.67" width=".39" height="2.66"/>
  <path class="st0" d="M22.08,21.63c-.47,0-.77.14-.88.41h-.01s.01-.37.01-.37h-.38v2.66h.39v-1.6c0-.52.27-.78.82-.78.25,0,.42.04.5.12.09.08.13.23.13.46v1.8h.39v-1.73c0-.38-.07-.63-.2-.77-.13-.13-.39-.2-.77-.2"/>
  <path class="st0" d="M25.61,22.03h0c-.14-.27-.42-.4-.86-.4-.41,0-.69.1-.84.29-.15.2-.23.56-.23,1.09s.07.87.22,1.06c.15.19.42.29.81.29.48,0,.77-.12.87-.37h.01v.54c0,.26-.05.44-.16.52-.1.09-.3.14-.6.14s-.47-.04-.56-.1c-.08-.07-.12-.22-.12-.44h-.38c0,.33.07.56.22.68.15.12.42.18.81.18.45,0,.75-.07.92-.22.17-.14.25-.41.25-.79v-2.84h-.39l.02.36ZM25.43,23.83c-.1.15-.3.22-.61.22s-.5-.06-.6-.19c-.09-.13-.14-.42-.14-.86s.05-.72.14-.85c.09-.13.29-.19.6-.19s.51.06.61.19c.1.12.15.39.15.79,0,.45-.05.75-.15.9"/>
  <path class="st0" d="M31.1,22.94v-.19s0-.1,0-.1h-.42v.51l-1.43-1.19-.09-.08c-.16-.13-.24-.29-.24-.51,0-.19.05-.31.14-.37.09-.06.28-.09.56-.09.31,0,.51.03.58.1.08.07.11.24.11.53v.14h.42v-.24c0-.34-.07-.58-.23-.71-.16-.13-.45-.19-.87-.19s-.73.06-.89.19c-.16.13-.24.37-.24.73,0,.25.12.47.35.66-.05.01-.09.02-.12.02-.26.05-.44.15-.53.28-.09.13-.13.37-.13.7,0,.51.1.84.29.99.2.15.63.22,1.29.22s1.12-.17,1.28-.5l.56.47.23-.3-.66-.55c.03-.16.04-.34.04-.54M29.57,24.01c-.51,0-.82-.04-.93-.13-.11-.09-.17-.32-.17-.71,0-.3.03-.49.1-.57.07-.08.25-.16.54-.22l1.48,1.22c-.08.27-.42.41-1.02.41"/>
  <path class="st0" d="M35.93,22.99l-.16.39s-.04.1-.08.2l-.08.2h0l-.08-.2-.08-.2-.16-.4-1.01-2.46h-.74v3.8h.43v-3.35s0-.1,0-.1h0s.02.07.04.09l.03.09.08.18,1.3,3.1h.43l1.29-3.14.07-.18s.02-.04.03-.09l.03-.09h.01v.23s0,.23,0,.23v3.04h.43v-3.8h-.75l-1.01,2.46Z"/>
  <path class="st0" d="M39.44,21.63c-.41,0-.68.05-.82.16-.14.11-.21.31-.21.62h.39s0-.06,0-.08c0-.27.24-.4.72-.4.28,0,.47.04.55.14.08.09.13.29.13.59v.32h0c-.09-.18-.37-.27-.84-.27-.39,0-.67.06-.81.18-.15.12-.22.34-.22.67,0,.54.34.81,1.01.81.45,0,.76-.11.91-.33h0s-.03.29-.03.29h.39v-1.76c0-.36-.08-.62-.23-.74-.16-.13-.46-.2-.9-.2M39.38,24.04c-.27,0-.45-.03-.54-.1-.09-.07-.13-.21-.13-.43s.04-.34.14-.41c.09-.06.28-.1.58-.1s.52.04.62.11c.11.07.16.21.16.42,0,.33-.27.5-.82.5"/>
  <path class="st0" d="M42.46,21.61c-.36,0-.61.13-.76.38h0s.04-.32.04-.32h-.39v2.66h.39v-1.59c0-.54.22-.81.65-.81.3,0,.45.14.45.41,0,.02,0,.07,0,.14v.07s.38,0,.38,0v-.18c0-.5-.24-.76-.73-.76"/>
  <polygon class="st0" points="45.56 21.67 45.07 21.67 44.13 22.74 43.95 22.74 43.95 20.53 43.56 20.53 43.56 24.33 43.95 24.33 43.95 23.04 44.11 23.04 45.24 24.33 45.77 24.33 44.42 22.89 45.56 21.67"/>
  <path class="st0" d="M47.87,23.52v.08c0,.18-.05.3-.14.36-.09.05-.3.08-.61.08-.33,0-.54-.05-.63-.17-.09-.11-.14-.38-.14-.8h1.91v-.21c0-.51-.08-.84-.23-1-.15-.16-.47-.24-.96-.24-.45,0-.75.09-.9.27-.16.18-.23.54-.23,1.07,0,.57.07.95.23,1.13.15.18.48.27.96.27.42,0,.72-.05.88-.16.17-.11.25-.31.25-.58v-.1h-.4ZM46.5,22.1c.09-.1.3-.15.61-.15s.52.04.61.13c.09.09.14.27.14.56v.13s-1.51,0-1.51,0c0-.34.04-.56.14-.67"/>
  <path class="st0" d="M50.03,23.39v.15s0,.13,0,.13c0,.25-.13.38-.38.38s-.38-.14-.38-.42v-1.63h1.02v-.32h-1.02v-.64h-.39v.64h-.37v.32h.37v1.72c0,.44.26.65.77.65s.75-.26.75-.79v-.2h-.36Z"/>
  <rect class="st0" x="50.73" y="20.53" width=".39" height=".44"/>
  <rect class="st0" x="50.73" y="21.67" width=".39" height="2.66"/>
  <path class="st0" d="M53.07,21.63c-.47,0-.77.14-.89.41h-.01s.01-.37.01-.37h-.38v2.66h.39v-1.6c0-.52.27-.78.82-.78.25,0,.42.04.5.12.09.08.13.23.13.46v1.8h.39v-1.73c0-.38-.06-.63-.2-.77-.13-.13-.39-.2-.77-.2"/>
  <path class="st0" d="M56.6,22.03h0c-.13-.27-.42-.4-.86-.4-.41,0-.69.1-.84.29-.15.2-.23.56-.23,1.09s.07.87.22,1.06c.15.19.42.29.81.29.48,0,.77-.12.87-.37h0v.54c0,.26-.05.44-.15.52-.1.09-.3.14-.6.14s-.47-.04-.56-.1c-.08-.07-.13-.22-.13-.44h-.38c0,.33.07.56.22.68.14.12.42.18.81.18.44,0,.75-.07.92-.22.17-.14.25-.41.25-.79v-2.84h-.39l.02.36ZM56.43,23.83c-.1.15-.31.22-.62.22s-.5-.06-.59-.19c-.09-.13-.14-.42-.14-.86s.04-.72.14-.85c.09-.13.29-.19.59-.19s.52.06.62.19c.1.12.15.39.15.79,0,.45-.05.75-.15.9"/>
  <path class="st0" d="M60.4,22.2c-.5-.02-.81-.07-.91-.14-.1-.07-.15-.25-.15-.56,0-.27.07-.45.2-.53.13-.08.42-.12.87-.12.38,0,.62.04.72.12.1.08.15.28.15.58h.43c0-.44-.09-.73-.26-.87-.17-.14-.54-.2-1.11-.2s-.93.07-1.12.22c-.19.15-.28.43-.28.86,0,.62.32.96.97,1l.42.02.44.02c.25.02.41.06.48.14.08.08.11.23.11.47,0,.36-.06.58-.17.66-.11.08-.41.12-.91.12-.43,0-.69-.04-.8-.12-.1-.08-.16-.29-.16-.63v-.09h-.43v.17c0,.42.09.7.27.84.18.14.55.21,1.09.21.63,0,1.04-.07,1.22-.21.18-.14.27-.44.27-.91,0-.43-.08-.71-.24-.84-.16-.13-.54-.2-1.13-.22"/>
  <path class="st0" d="M63.37,21.63c-.49,0-.81.09-.95.26-.15.17-.22.54-.22,1.11s.07.94.22,1.11c.14.17.46.26.95.26s.81-.09.96-.26c.15-.17.22-.54.22-1.11s-.07-.94-.22-1.11c-.14-.17-.46-.26-.96-.26M64.01,23.88c-.08.11-.3.17-.64.17s-.56-.05-.64-.17c-.08-.11-.12-.41-.12-.88s.04-.77.12-.88c.08-.11.3-.17.64-.17s.56.06.64.17c.08.11.12.4.12.88s-.04.77-.12.88"/>
  <rect class="st0" x="65.15" y="20.53" width=".39" height="3.8"/>
  <path class="st0" d="M68,23.19c0,.33-.05.55-.17.67-.11.12-.32.18-.63.18-.23,0-.39-.04-.47-.12-.08-.08-.12-.24-.12-.48v-1.77h-.39v1.77c0,.62.31.93.93.93.44,0,.73-.13.87-.39h0s-.03.36-.03.36h.39v-2.66h-.39v1.52Z"/>
  <path class="st0" d="M70.26,23.39v.15s0,.13,0,.13c0,.25-.13.38-.38.38s-.38-.14-.38-.42v-1.63h1.02v-.32h-1.02v-.64h-.39v.64h-.37v.32h.37v1.72c0,.44.26.65.77.65s.75-.26.75-.79v-.2h-.37Z"/>
  <rect class="st0" x="70.97" y="20.53" width=".39" height=".44"/>
  <rect class="st0" x="70.97" y="21.67" width=".39" height="2.66"/>
  <path class="st0" d="M73.14,21.63c-.49,0-.81.09-.95.26-.15.17-.22.54-.22,1.11s.07.94.22,1.11c.15.17.47.26.95.26s.81-.09.96-.26c.15-.17.22-.54.22-1.11s-.07-.94-.22-1.11c-.15-.17-.47-.26-.96-.26M73.78,23.88c-.08.11-.3.17-.64.17s-.56-.05-.64-.17c-.08-.11-.13-.41-.13-.88s.04-.77.13-.88c.08-.11.3-.17.64-.17s.56.06.64.17c.08.11.13.4.13.88s-.04.77-.13.88"/>
  <path class="st0" d="M76.18,21.63c-.47,0-.77.14-.88.41h-.01s.01-.37.01-.37h-.38v2.66h.39v-1.6c0-.52.27-.78.82-.78.25,0,.41.04.5.12.09.08.13.23.13.46v1.8h.39v-1.73c0-.38-.07-.63-.2-.77-.14-.13-.39-.2-.77-.2"/>
  <path class="st0" d="M79.28,22.83l-.4-.02h-.31c-.26-.03-.39-.17-.39-.44,0-.18.04-.29.12-.34.08-.05.26-.07.55-.07.31,0,.5.02.58.07.08.04.11.16.11.34h.39v-.1c0-.42-.35-.64-1.06-.64-.44,0-.73.05-.88.15-.15.1-.22.3-.22.6,0,.32.09.52.28.62.19.1.57.15,1.17.15.25,0,.38.14.38.42,0,.2-.05.32-.15.39-.1.06-.31.09-.64.09-.26,0-.44-.03-.52-.09-.09-.06-.13-.17-.13-.35v-.12h-.41v.14c0,.28.08.48.24.58.16.11.46.16.9.16s.72-.05.88-.17c.16-.11.24-.32.24-.61,0-.48-.24-.73-.72-.76"/>
</svg>