<?xml version="1.0" encoding="UTF-8"?>
<svg id="Layer_1" xmlns="http://www.w3.org/2000/svg" version="1.1" viewBox="0 0 80 30">
  <!-- Generator: Adobe Illustrator 29.0.0, SVG Export Plug-In . SVG Version: 2.1.0 Build 186)  -->
  <defs>
    <style>
      .st0 {
        fill: #fff;
      }
    </style>
  </defs>
  <path class="st0" d="M20.99,26.37l-.14.35c-.13-.1-.34-.14-.62-.14-.27,0-.48.11-.64.34-.16.23-.24.52-.24.88s.08.62.25.83c.16.21.38.32.64.32.28,0,.5-.1.66-.3l.23.31c-.24.24-.55.36-.93.36s-.71-.14-.93-.43-.34-.66-.34-1.12.12-.82.36-1.12c.24-.3.56-.45.94-.45.33,0,.59.05.77.16"/>
  <path class="st0" d="M22.89,28.17c0,.55.2.83.59.83.18,0,.33-.07.43-.22.1-.15.16-.35.16-.61,0-.55-.2-.82-.59-.82-.18,0-.32.07-.43.22-.11.15-.16.35-.16.6M22.47,28.17c0-.34.09-.61.28-.82.18-.21.43-.31.73-.31.32,0,.56.1.74.3.18.2.26.48.26.84s-.09.64-.27.84c-.18.21-.42.31-.73.31s-.56-.1-.74-.31c-.18-.21-.27-.49-.27-.84"/>
  <path class="st0" d="M28.51,29.28v-1.4c0-.35-.15-.52-.45-.52-.09,0-.18.03-.27.09-.08.06-.14.12-.17.2v1.63h-.39v-1.57c0-.11-.04-.19-.12-.26-.08-.06-.19-.09-.33-.09-.08,0-.16.03-.25.09-.09.06-.15.13-.19.2v1.63h-.39v-2.2h.26l.13.26c.15-.2.34-.3.57-.3.32,0,.54.1.67.29.04-.08.13-.15.25-.21.12-.06.24-.08.37-.08.23,0,.41.07.53.2.13.13.19.33.19.57v1.47h-.39Z"/>
  <path class="st0" d="M33.08,29.28v-1.4c0-.35-.15-.52-.45-.52-.1,0-.18.03-.27.09-.08.06-.14.12-.17.2v1.63h-.39v-1.57c0-.11-.04-.19-.12-.26-.08-.06-.19-.09-.33-.09-.08,0-.16.03-.25.09-.09.06-.15.13-.19.2v1.63h-.39v-2.2h.26l.13.26c.15-.2.34-.3.57-.3.32,0,.54.1.67.29.04-.08.13-.15.25-.21.12-.06.24-.08.37-.08.23,0,.41.07.53.2.13.13.19.33.19.57v1.47h-.39Z"/>
  <path class="st0" d="M35.46,27.07v1.41c0,.34.15.51.44.51.13,0,.25-.04.36-.11.11-.07.18-.16.21-.26v-1.55h.39v2.2h-.39v-.3c-.04.09-.13.17-.27.24-.13.07-.26.11-.39.11-.24,0-.43-.07-.56-.21-.13-.14-.19-.34-.19-.59v-1.45h.39Z"/>
  <path class="st0" d="M39.83,29.28v-1.28c0-.24-.04-.4-.11-.49-.07-.09-.19-.14-.36-.14-.09,0-.18.03-.28.08-.1.05-.17.12-.23.2v1.64h-.39v-2.2h.27l.13.28c.13-.22.34-.33.64-.33.49,0,.73.29.73.88v1.36h-.39Z"/>
  <path class="st0" d="M42.24,26.24c.07,0,.13.02.17.07.05.05.07.1.07.17s-.02.13-.07.17c-.05.05-.11.07-.17.07s-.12-.02-.17-.07c-.05-.05-.07-.1-.07-.17s.02-.12.07-.17c.05-.05.1-.07.17-.07M42.02,29.28v-1.88h-.3v-.33h.7v2.2h-.39Z"/>
  <path class="st0" d="M45.77,27.25l-.19.28s-.11-.08-.21-.11c-.1-.04-.2-.05-.3-.05-.21,0-.38.07-.51.22-.13.15-.19.35-.19.61s.06.45.19.59c.13.14.31.2.53.2.18,0,.36-.07.54-.2l.15.33c-.21.14-.47.2-.78.2s-.55-.1-.75-.3c-.2-.2-.29-.47-.29-.82s.1-.63.31-.85c.2-.21.49-.32.84-.32.11,0,.24.02.37.07.13.05.23.1.3.15"/>
  <path class="st0" d="M48.47,28.19c-.12-.03-.21-.04-.26-.04-.2,0-.36.05-.49.15-.13.1-.19.22-.19.36,0,.23.14.34.41.34.2,0,.38-.09.53-.28v-.53ZM48.5,29.02c-.16.2-.4.29-.72.29-.17,0-.32-.06-.45-.19-.13-.13-.19-.28-.19-.47,0-.22.1-.41.3-.57.2-.15.45-.23.75-.23.08,0,.18.02.28.05,0-.36-.16-.53-.48-.53-.25,0-.44.07-.57.2l-.17-.33c.07-.06.18-.11.31-.16.13-.04.26-.06.38-.06.32,0,.56.07.7.22.15.14.22.38.22.69v.79c0,.19.06.32.17.39v.2c-.16,0-.28-.02-.36-.07-.08-.05-.14-.12-.17-.22"/>
  <path class="st0" d="M50.67,27.38h-.26v-.31h.26v-.46l.39-.15v.61h.61v.31h-.61v1.1c0,.18.03.32.1.39.06.08.16.12.3.12.1,0,.2-.03.31-.08l.06.34c-.16.04-.34.06-.54.06-.18,0-.32-.06-.44-.19-.12-.13-.18-.29-.18-.49v-1.25Z"/>
  <path class="st0" d="M53.67,26.24c.07,0,.13.02.17.07.05.05.07.1.07.17s-.02.13-.07.17c-.05.05-.11.07-.17.07s-.12-.02-.17-.07c-.05-.05-.07-.1-.07-.17s.02-.12.07-.17c.05-.05.1-.07.17-.07M53.46,29.28v-1.88h-.3v-.33h.7v2.2h-.39Z"/>
  <path class="st0" d="M55.8,28.17c0,.55.2.83.59.83.18,0,.33-.07.43-.22.1-.15.16-.35.16-.61,0-.55-.2-.82-.59-.82-.18,0-.32.07-.43.22-.11.15-.16.35-.16.6M55.39,28.17c0-.34.09-.61.28-.82.18-.21.43-.31.73-.31.32,0,.56.1.74.3.18.2.26.48.26.84s-.09.64-.27.84c-.18.21-.42.31-.73.31s-.56-.1-.74-.31c-.18-.21-.26-.49-.26-.84"/>
  <path class="st0" d="M60.23,29.28v-1.28c0-.24-.04-.4-.11-.49-.07-.09-.19-.14-.35-.14-.09,0-.18.03-.28.08-.1.05-.17.12-.23.2v1.64h-.39v-2.2h.27l.12.28c.13-.22.34-.33.64-.33.49,0,.73.29.73.88v1.36h-.39Z"/>
  <path class="st0" d="M62.09,29.15l.14-.37c.22.14.4.21.53.21.24,0,.36-.1.36-.3,0-.15-.12-.27-.35-.37-.18-.08-.3-.14-.37-.19-.06-.04-.12-.09-.16-.15-.05-.05-.08-.11-.1-.17-.02-.06-.03-.13-.03-.2,0-.18.07-.32.2-.42.13-.1.31-.15.52-.15.16,0,.36.05.61.15l-.11.36c-.16-.12-.31-.18-.47-.18-.09,0-.17.02-.24.07-.06.04-.1.1-.1.17,0,.14.08.25.24.32l.28.13c.17.08.3.17.38.27.08.1.12.23.12.38,0,.2-.07.35-.21.46-.14.11-.33.17-.58.17-.23,0-.45-.06-.66-.17"/>
  <path class="st0" d="M74.14,16.05c.93,0,1.78.72,2.13,1.81h-4.26c.35-1.08,1.2-1.81,2.13-1.81M79.06,18.07c-.41-2.4-2.52-4.2-4.9-4.19-2.78,0-5.05,2.29-5.04,5.09,0,2.79,2.28,5.06,5.07,5.05.89,0,1.77-.25,2.55-.72h.01c.06-.04.11-.08.17-.12.07-.05.14-.09.21-.14l.05-.04c.45-.33.85-.74,1.17-1.2l.12-.17-.09-.09s-.06-.06-.1-.1l-.34-.3c-.46-.38-.9-.57-1.29-.56-.31,0-.51.08-.61.15l-.02.02-.15.14c-.47.45-1.07.7-1.69.7-1.09,0-1.85-.61-2.15-1.73h6.99s.06-.16.06-.16c0-.02.21-.58,0-1.62"/>
  <path class="st0" d="M44.8,16.11c.93,0,1.78.72,2.13,1.81h-4.26c.35-1.09,1.19-1.81,2.13-1.81M49.72,18.13c-.41-2.4-2.52-4.2-4.9-4.19-2.78.01-5.04,2.29-5.04,5.09,0,2.79,2.28,5.05,5.07,5.05.89,0,1.77-.25,2.55-.72h.01c.06-.04.12-.08.17-.12.07-.05.14-.09.2-.14l.05-.03c.45-.33.85-.74,1.17-1.2l.12-.17-.09-.09s-.06-.06-.1-.1l-.34-.3c-.46-.38-.9-.56-1.29-.56-.31,0-.51.08-.61.15l-.02.02-.14.14c-.47.45-1.07.7-1.69.7-1.09,0-1.85-.61-2.15-1.73h6.99s.06-.16.06-.16c0-.02.21-.58,0-1.62"/>
  <path class="st0" d="M56.34,13.89c-1.18,0-2.15.47-2.88,1.39-.32-1.1-1.17-1.27-1.68-1.27-.45,0-1.14.19-1.14.45l.02,9.56h2.93s-.01-6.57-.01-6.57c.37-.68,1.05-1.07,1.85-1.07.97,0,1.52.65,1.53,1.79v3.66c.02,1.93,1.13,2.22,1.79,2.22.46,0,1.15-.18,1.15-.45v-5.83c-.02-2.44-1.34-3.89-3.56-3.88"/>
  <path class="st0" d="M27.61,10.87c-.67,0-1.79.29-1.79,2.25l.02,11h2.93s-.03-12.8-.03-12.8c0-.27-.69-.45-1.14-.45"/>
  <path class="st0" d="M5.39,10.91c-.67,0-1.79.29-1.78,2.25l.02,11h2.93s-.03-12.8-.03-12.8c0-.27-.69-.45-1.14-.45"/>
  <path class="st0" d="M22.82,10.29c-1.75,0-3.79,1.02-3.78,3.87v.38s-.45,0-.45,0h-.01s-.04,0-.1,0c-.56,0-1.17.33-1.16,1.23v1.12s1.73,0,1.73,0l.02,7.25h2.8s-.02-7.25-.02-7.25h2.68s0-1.15,0-1.15v-.06c-.02-1.01-.93-1.13-1.12-1.14h-1.57s0-.37,0-.37c0-.89.41-1.4,1.14-1.4.22,0,.44.04.68.13h.08s.08.03.15.03c.28,0,.84-.15,1.37-1.12l.18-.37v-.02s.04-.07.05-.11l.05-.12-.17-.11c-.79-.51-1.69-.79-2.55-.78"/>
  <path class="st0" d="M13.28,13.97c-1.18,0-2.15.47-2.88,1.39-.32-1.1-1.18-1.27-1.68-1.27-.45,0-1.14.2-1.14.45l.02,9.56h2.93s-.01-6.57-.01-6.57c.37-.68,1.05-1.07,1.85-1.07.97,0,1.52.65,1.53,1.79v3.66c.02,1.94,1.13,2.22,1.79,2.22.46,0,1.15-.18,1.15-.45v-5.83c-.02-2.44-1.34-3.89-3.56-3.88"/>
  <rect class="st0" x="3.78" y="28.09" width="13.05" height=".21"/>
  <rect class="st0" x="65.88" y="28.03" width="13.05" height=".21"/>
  <path class="st0" d="M36.12,13.97v6.56c-.36.68-1.04,1.07-1.84,1.07-.97,0-1.52-.65-1.53-1.79v-3.66c-.02-1.93-1.13-2.22-1.79-2.22-.46,0-1.15.18-1.15.45v5.83c.02,2.44,1.34,3.89,3.56,3.88,1.18,0,2.15-.47,2.88-1.39.32,1.1,1.18,1.27,1.68,1.27.45,0,1.14-.19,1.14-.45l-.02-9.56h-2.93Z"/>
  <path class="st0" d="M69.19,22.3s-.05-.08-.08-.12l-.3-.39c-1.02-1.23-1.77-.94-1.9-.87h-.04s-.04.03-.04.03c-.08.05-.15.1-.25.15h-.02c-.06.04-.12.07-.17.09-.1.04-.19.07-.27.09l-.05.02c-.16.04-.32.06-.49.06-1.21,0-2.21-1.07-2.22-2.38,0-.64.22-1.25.64-1.7.41-.45.97-.7,1.56-.71.13,0,.26.01.39.04h0s.14.04.14.04c.08.02.17.04.27.08.06.03.12.05.17.08,0,0,.02,0,.03.01.09.05.17.09.25.14l.09.03c.13.06.88.35,1.9-.9l.29-.39s.05-.08.08-.12l.07-.1-.08-.09s-.2-.21-.29-.29c-.91-.79-2.08-1.22-3.29-1.22h-.02c-2.78.02-5.03,2.31-5.02,5.1.02,2.79,2.29,5.05,5.06,5.04h.02c.08,0,.16,0,.24,0h.08s.1-.01.15-.02c.02,0,.04,0,.06,0h.06s.07-.02.11-.02c.02,0,.05,0,.07-.01h.07s.05-.02.08-.03c.02,0,.05-.01.07-.02l.07-.02s.05-.01.08-.02c.03,0,.05-.01.08-.02l.07-.02s.05-.01.07-.02c.02,0,.05-.01.07-.02l.07-.02s.05-.02.08-.02c.02,0,.05-.02.07-.03l.06-.02s.05-.02.07-.03c.02,0,.05-.02.07-.03l.06-.03s.05-.02.08-.03c.02,0,.05-.02.07-.03l.06-.03s.05-.02.07-.03c.02-.01.05-.02.07-.03l.06-.03s.05-.02.07-.04c.02-.01.04-.02.06-.04l.06-.03s.05-.03.07-.04c.02-.01.04-.03.06-.04l.06-.04s.05-.03.07-.04c.02-.01.04-.03.06-.04l.05-.04s.05-.03.07-.05l.12-.09s.04-.03.06-.04c.02-.01.03-.03.05-.04l.12-.1.37-.37-.07-.1Z"/>
  <path class="st0" d="M5.25,3.09c-.07,0-.15,0-.22.01-.52.06-.99.31-1.32.72-.33.41-.48.92-.42,1.44.12,1.07,1.08,1.85,2.18,1.73.52-.06.99-.31,1.32-.72.33-.41.48-.92.42-1.44-.11-.99-.95-1.74-1.95-1.74"/>
  <path class="st0" d="M4.3,7.42c.39.15.82.21,1.24.16.68-.08,1.3-.41,1.73-.95.43-.53.62-1.2.55-1.88-.11-.94-.72-1.74-1.61-2.1-.39-.16-.82-.21-1.24-.17-.68.08-1.3.41-1.73.94-.43.54-.62,1.2-.55,1.88.1.94.72,1.74,1.6,2.1M6.7,1.41c1.35.54,2.29,1.76,2.45,3.2.12,1.04-.18,2.06-.84,2.87-.65.82-1.59,1.33-2.63,1.44-.64.07-1.29-.02-1.89-.25-1.35-.54-2.29-1.76-2.45-3.2-.12-1.04.18-2.06.84-2.87.66-.81,1.59-1.33,2.64-1.44.64-.07,1.29.02,1.89.25"/>
  <path class="st0" d="M10.54,4.54c0-1.45-.81-2.76-2.1-3.44-.45-.24-.95-.38-1.46-.43.18.07.36.15.54.24,1.5.78,2.43,2.32,2.44,4,0,.97-.3,1.89-.85,2.67.1-.08.2-.17.29-.27.74-.74,1.14-1.73,1.14-2.77"/>
  <path class="st0" d="M.01,5.92c.11,1.44,1.01,2.7,2.34,3.28.47.2.97.31,1.48.33-.19-.06-.37-.12-.55-.2-1.55-.68-2.59-2.14-2.72-3.82-.08-.97.16-1.91.66-2.72-.1.09-.19.19-.28.29C.26,3.87-.07,4.88.01,5.92"/>
  <path class="st0" d="M78.65,13.27h.16c.1,0,.17,0,.19-.01.02,0,.05-.02.06-.04.02-.02.02-.05.02-.08,0-.03-.01-.06-.03-.09-.02-.02-.05-.04-.08-.04-.02,0-.07,0-.16,0h-.17v.27ZM78.43,13.88v-1.06h.45c.11,0,.2,0,.25.03.05.02.09.05.13.1.03.05.05.1.05.17,0,.08-.02.15-.07.2-.05.05-.12.08-.21.1.05.03.08.06.12.09.03.03.07.09.12.17l.13.21h-.26l-.16-.23c-.05-.08-.09-.14-.11-.16-.02-.02-.04-.04-.06-.04-.02,0-.06-.01-.11-.01h-.04v.44h-.22Z"/>
  <path class="st0" d="M78.86,12.38c-.53,0-.96.43-.96.96s.43.96.96.96.96-.43.96-.96-.43-.96-.96-.96M78.86,14.47c-.63,0-1.14-.51-1.14-1.14s.51-1.14,1.14-1.14,1.14.51,1.14,1.14-.51,1.14-1.14,1.14"/>
</svg>