<?xml version="1.0" encoding="UTF-8"?>
<svg id="Layer_1" xmlns="http://www.w3.org/2000/svg" version="1.1" viewBox="0 0 80 30">
  <!-- Generator: Adobe Illustrator 29.0.0, SVG Export Plug-In . SVG Version: 2.1.0 Build 186)  -->
  <defs>
    <style>
      .st0 {
        fill: #da0046;
      }
    </style>
  </defs>
  <path class="st0" d="M17.28,29.44c0,.37-.22.56-.67.56-.42,0-.63-.18-.63-.56v-6.45l-4.93,6.55c-.24.31-.54.45-.9.45-.2,0-.38-.04-.52-.11-.15-.08-.28-.19-.4-.34l-5.02-6.53v6.42c0,.37-.21.56-.63.56s-.66-.18-.66-.56v-7.65c0-.51.24-.76.73-.76.35,0,.64.16.87.47l5.64,7.19,5.54-7.27c.09-.12.21-.22.35-.29.14-.07.3-.1.46-.1.51,0,.77.26.77.79v7.62ZM30.22,21.59c0-.37-.22-.56-.65-.56s-.66.19-.66.56v5.83c0,.98-.94,1.47-2.83,1.47h-2.4c-1.73,0-2.59-.49-2.59-1.47v-5.83c0-.37-.23-.56-.68-.56-.43,0-.65.19-.65.56v5.92c0,1.62,1.37,2.43,4.12,2.43h1.99c2.9,0,4.35-.81,4.35-2.43v-5.92ZM41.74,26.09c.34,0,.51-.19.51-.56,0-.34-.17-.52-.51-.52h-7.73v-1.72c0-.77.75-1.15,2.26-1.15h5.45c.35,0,.52-.18.52-.54,0-.34-.17-.51-.52-.51h-5.58c-2.31,0-3.46.74-3.46,2.22v6.13c0,.37.22.56.68.56.43,0,.65-.18.65-.56v-3.35h7.73ZM44.9,23.29c0-.76.91-1.14,2.73-1.14h5.07c.31,0,.46-.17.46-.5,0-.36-.15-.55-.46-.55h-5.58c-1.19,0-2.08.18-2.67.55-.59.37-.89.91-.89,1.64v4.53c0,1.42,1.14,2.12,3.43,2.12h5.68c.32,0,.48-.17.48-.52s-.16-.53-.48-.53h-5.63c-1.43,0-2.15-.38-2.15-1.13v-1.66h7.78c.3,0,.46-.18.46-.53s-.15-.54-.46-.54h-7.78v-1.73ZM56.37,23.29c0-.76.91-1.14,2.73-1.14h5.07c.3,0,.46-.17.46-.5,0-.36-.15-.55-.46-.55h-5.58c-1.19,0-2.08.18-2.67.55-.59.37-.88.91-.88,1.64v4.53c0,1.42,1.14,2.12,3.43,2.12h5.68c.32,0,.48-.17.48-.52s-.16-.53-.48-.53h-5.63c-1.43,0-2.15-.38-2.15-1.13v-1.66h7.78c.3,0,.45-.18.45-.53s-.15-.54-.45-.54h-7.78v-1.73ZM75.78,27.63c0,.84-.72,1.25-2.16,1.25h-5.78v-6.74h5.82c1.41,0,2.12.38,2.12,1.14v4.35ZM77.08,23.29c0-1.46-1.13-2.19-3.4-2.19h-6.74c-.29,0-.43.14-.43.43v7.97c0,.3.14.44.43.44h6.72c2.28,0,3.43-.77,3.43-2.31v-4.34ZM52.53,3.84l-2.52,2.51-2.27,2.27v4.25l4.79-2.98V3.84ZM47.37,8.46h0s2.37-2.36,2.37-2.36l.64-.63,1.93-4.76-9.98,7.05-6.14,4.34,3.73,3.79,7.45-7.42ZM32.57,8.45l3.33,3.34,3.73-3.84-7.07-4.36v4.85ZM32.21,8.61V3.38l-.42-.25-4.13-2.5,4.55,11.51v-3.53ZM32.02,12.65L27.47,1.15v8.73l4.54,2.78ZM32.21.37h-4.26l4.26,2.58h0V.37ZM32.57.63v2.54h0s6.19,3.82,6.19,3.82l-6.19-6.36ZM40.22,7.89h0s-2.8,2.87-2.8,2.87L52.13.37h-4.6l-7.32,7.52ZM51.04,4.8l1.49-1.48V1.13l-1.49,3.67ZM52.81.15c.05.04.08.1.08.17v9.77l-5.52,3.43v-4.55l-7.45,7.43-4.14-4.21-3.2-3.21v4.01c0,.08-.05.16-.12.19-.04.03-.09.05-.14.05-.04,0-.08-.01-.12-.03l-5.09-3.11V.31s.01-.08.03-.11c0-.02,0-.04,0-.05.02-.08.1-.14.19-.14h4.96c.06,0,.12.02.17.06.04,0,.09.03.12.06l7.34,7.53s0,0,0,0l7.45-7.66h5.18c.08,0,.15.04.19.1,0,0,0,0,.01,0,.02.01.03.03.04.04"/>
</svg>