<?xml version="1.0" encoding="UTF-8"?>
<svg id="Layer_1" xmlns="http://www.w3.org/2000/svg" version="1.1" viewBox="0 0 80 30">
  <!-- Generator: Adobe Illustrator 29.5.0, SVG Export Plug-In . SVG Version: 2.1.0 Build 137)  -->
  <defs>
    <style>
      .st0 {
        fill: #fff;
      }
    </style>
  </defs>
  <path class="st0" d="M10.83,30c-.17,0-.34-.04-.5-.12-.54-.27-.76-.92-.48-1.45,3.4-6.56,2.85-10.77,2.36-14.49-.14-1.05-.27-2.04-.3-3.03-.02-.59.46-1.09,1.07-1.11.61-.02,1.11.45,1.13,1.04.03.88.15,1.82.28,2.82.5,3.83,1.12,8.59-2.58,15.73-.19.37-.58.59-.98.59"/>
  <path class="st0" d="M20.09,30c-.58,0-1.06-.44-1.1-1.01-.08-1.35.03-2.79.15-4.31.14-1.75.28-3.55.11-5.19-.06-.59.37-1.12.98-1.18.6-.06,1.14.36,1.21.96.05.45.08.9.09,1.36,1.47-1.71,3.64-2.74,6.62-3.25.6-.1,1.17.29,1.27.87.1.59-.3,1.14-.89,1.25-4.45.76-7.08,2.56-7.34,9.48-.02.57-.5,1.03-1.08,1.04h-.02Z"/>
  <path class="st0" d="M27.76,25.07c1.37.11,2.45-.55,3.04-1.26.46-.54.51-.97.48-1.08-.05-.03-.37-.18-1.29.02-1.47.32-1.98,1.38-2.15,1.99-.03.11-.06.22-.08.33M29.59,30c-1.05,0-1.99-.36-2.72-1.05-1.2-1.14-1.66-3.02-1.15-4.8.52-1.81,1.9-3.09,3.79-3.5.97-.21,2.72-.38,3.59.86.61.88.51,2.1-.29,3.26-.87,1.27-2.54,2.39-4.58,2.46.05.06.1.12.16.17.51.48,1.24.58,2.16.29.58-.18,1.2.13,1.38.7.18.57-.14,1.17-.71,1.35-.57.18-1.12.27-1.64.27"/>
  <path class="st0" d="M36.24,25.07c1.36.11,2.45-.55,3.04-1.26.46-.54.51-.97.48-1.08-.05-.03-.37-.18-1.29.02-1.47.32-1.98,1.38-2.15,1.99-.03.11-.06.22-.08.33M38.06,30c-1.05,0-1.98-.36-2.72-1.05-1.21-1.14-1.66-3.02-1.15-4.8.52-1.81,1.9-3.09,3.79-3.5.96-.21,2.72-.38,3.59.86.61.88.51,2.1-.29,3.26-.87,1.27-2.54,2.39-4.57,2.46.05.06.1.12.16.17.51.48,1.24.58,2.16.29.58-.18,1.2.13,1.38.7.18.57-.13,1.17-.71,1.35-.57.18-1.12.27-1.64.27"/>
  <path class="st0" d="M1.1,18.35c-.29,0-.57-.11-.79-.33-.42-.43-.42-1.11.02-1.52,3.46-3.3,10.77-2.92,16.64-2.61,1.88.1,3.65.19,4.98.14,1.39-.06,6.25-.36,10.49-1.95,3.82-1.43,5.85-3.39,6.03-5.83.08-.99-.28-1.74-1.11-2.38-2.9-2.22-10.51-1.96-13.53-.98-2.99.97-4.68,2.23-4.65,3.46.02.62.23,1.08.65,1.4.62.47,1.65.61,2.69.38.59-.13,1.18.23,1.32.81.14.58-.24,1.16-.83,1.29-1.69.38-3.39.09-4.53-.78-.95-.72-1.47-1.77-1.5-3.04-.08-2.92,3.3-4.63,6.16-5.56,3.3-1.07,11.78-1.57,15.58,1.33,1.4,1.07,2.08,2.54,1.95,4.24-.25,3.29-2.83,5.94-7.44,7.67-4.43,1.67-9.3,2.02-11.19,2.09-1.43.06-3.26-.04-5.19-.14-5.15-.27-12.22-.64-14.99,2.01-.21.2-.49.31-.77.31"/>
  <path class="st0" d="M11.5,6.62l-1.54-1.5c-.28-.27-.28-.72,0-.99l1.41-1.38c.28-.27.73-.27,1.01,0l1.54,1.5c.28.27.28.72,0,.99l-1.41,1.38c-.28.27-.73.27-1.01,0"/>
  <path class="st0" d="M7.99,6.62l-1.54-1.5c-.28-.27-.28-.72,0-.99l1.41-1.38c.28-.27.73-.27,1.01,0l1.54,1.5c.28.27.28.72,0,.99l-1.41,1.38c-.28.27-.73.27-1.01,0"/>
</svg>