<?xml version="1.0" encoding="UTF-8"?>
<svg id="Layer_1" xmlns="http://www.w3.org/2000/svg" version="1.1" viewBox="0 0 80 30">
  <!-- Generator: Adobe Illustrator 29.5.0, SVG Export Plug-In . SVG Version: 2.1.0 Build 137)  -->
  <defs>
    <style>
      .st0 {
        fill: #da0046;
      }
    </style>
  </defs>
  <path class="st0" d="M21.13,23.83c-.11.05-.35.13-.66.13-.69,0-1.15-.47-1.15-1.18s.49-1.23,1.24-1.23c.25,0,.47.06.58.12l-.09.32c-.1-.05-.26-.11-.49-.11-.53,0-.81.39-.81.88,0,.53.34.86.8.86.24,0,.39-.06.51-.11l.07.31Z"/>
  <path class="st0" d="M24.67,23.65c.4,0,.7-.38.7-.9,0-.39-.2-.88-.69-.88s-.7.46-.7.89c0,.5.29.88.69.88h0ZM24.66,23.97c-.62,0-1.1-.46-1.1-1.18,0-.77.51-1.22,1.14-1.22s1.11.48,1.11,1.18c0,.86-.59,1.23-1.14,1.23h0Z"/>
  <path class="st0" d="M28.46,22.24c0-.24,0-.43-.02-.62h.37l.02.37h.01c.13-.22.34-.42.73-.42.31,0,.55.19.65.46h0c.07-.13.17-.23.26-.3.14-.1.28-.16.5-.16.31,0,.76.2.76,1v1.36h-.41v-1.3c0-.45-.17-.71-.5-.71-.24,0-.42.18-.5.38-.02.06-.03.14-.03.21v1.43h-.41v-1.38c0-.37-.16-.63-.48-.63-.26,0-.45.21-.52.42-.02.06-.03.13-.03.2v1.39h-.41v-1.68Z"/>
  <path class="st0" d="M34.56,22.24c0-.24,0-.43-.02-.62h.37l.02.37h.01c.13-.22.34-.42.73-.42.31,0,.55.19.65.46h0c.07-.13.17-.23.26-.3.14-.1.29-.16.5-.16.31,0,.76.2.76,1v1.36h-.41v-1.3c0-.45-.17-.71-.5-.71-.24,0-.42.18-.5.38-.02.06-.03.14-.03.21v1.43h-.41v-1.38c0-.37-.16-.63-.48-.63-.26,0-.45.21-.52.42-.02.06-.03.13-.03.2v1.39h-.41v-1.68Z"/>
  <path class="st0" d="M42.58,23.29c0,.24,0,.45.02.63h-.37l-.02-.38h0c-.1.19-.35.43-.76.43-.36,0-.79-.2-.79-1.01v-1.35h.42v1.27c0,.44.14.74.51.74.28,0,.48-.2.55-.39.02-.06.04-.13.04-.21v-1.41h.42v1.67Z"/>
  <path class="st0" d="M45.4,22.24c0-.24,0-.43-.02-.62h.37l.02.38h0c.11-.21.38-.43.76-.43.32,0,.81.19.81.98v1.37h-.42v-1.33c0-.37-.14-.68-.53-.68-.27,0-.49.19-.56.43-.02.05-.03.13-.03.19v1.39h-.42v-1.68Z"/>
  <path class="st0" d="M50.18,21.61h.42v2.3h-.42v-2.3ZM50.38,21.19c-.16,0-.26-.12-.26-.27s.11-.27.27-.27.27.12.27.27-.1.27-.27.27h0Z"/>
  <path class="st0" d="M55.06,23.83c-.11.05-.35.13-.66.13-.69,0-1.15-.47-1.15-1.18s.49-1.23,1.24-1.23c.25,0,.47.06.58.12l-.09.32c-.1-.05-.26-.11-.49-.11-.53,0-.81.39-.81.88,0,.53.34.86.8.86.24,0,.39-.06.51-.11l.07.31Z"/>
  <path class="st0" d="M58.9,22.74c-.46,0-.98.07-.98.52,0,.28.18.4.39.4.3,0,.5-.19.57-.39.01-.04.02-.09.02-.13v-.4ZM59.3,23.36c0,.2,0,.39.03.55h-.38l-.04-.29h-.01c-.12.18-.38.34-.7.34-.47,0-.7-.33-.7-.66,0-.56.49-.86,1.38-.86v-.05c0-.19-.05-.54-.52-.53-.22,0-.44.06-.6.17l-.09-.28c.19-.12.47-.2.76-.2.71,0,.88.48.88.94v.86Z"/>
  <path class="st0" d="M62.59,21.06v.55h.6v.32h-.6v1.24c0,.29.08.45.31.45.11,0,.18,0,.24-.03l.02.32c-.08.03-.21.06-.37.06-.19,0-.35-.07-.45-.18-.11-.13-.16-.33-.16-.6v-1.26h-.36v-.32h.36v-.42l.41-.13Z"/>
  <path class="st0" d="M65.8,21.61h.42v2.3h-.42v-2.3ZM66,21.19c-.16,0-.26-.12-.26-.27s.11-.27.27-.27.27.12.27.27-.11.27-.27.27h0Z"/>
  <path class="st0" d="M69.99,23.65c.4,0,.7-.38.7-.9,0-.39-.19-.88-.69-.88s-.7.46-.7.89c0,.5.29.88.69.88h0ZM69.98,23.97c-.62,0-1.1-.46-1.1-1.18,0-.77.51-1.22,1.14-1.22s1.11.48,1.11,1.18c0,.86-.59,1.23-1.14,1.23h0Z"/>
  <path class="st0" d="M73.79,22.24c0-.24,0-.43-.02-.62h.37l.02.38h0c.11-.21.38-.43.76-.43.32,0,.81.19.81.98v1.37h-.42v-1.33c0-.37-.14-.68-.53-.68-.27,0-.49.19-.56.43-.02.05-.03.13-.03.19v1.39h-.42v-1.68Z"/>
  <path class="st0" d="M78.5,23.49c.13.08.35.16.56.16.3,0,.44-.15.44-.34s-.12-.31-.42-.42c-.42-.15-.61-.38-.61-.65,0-.37.3-.68.79-.68.23,0,.44.06.56.14l-.1.3c-.09-.05-.26-.13-.47-.13-.25,0-.38.14-.38.31,0,.19.13.28.43.39.39.15.6.35.6.69,0,.41-.32.69-.86.69-.25,0-.49-.07-.65-.16l.1-.31Z"/>
  <path class="st0" d="M21.44,10.64c-.66.03-1.18.18-1.53.45-.37.29-.57.81-.57,1.52l-.02,2.74c0,.84.12,1.53.36,2.04.24.52.56.93.94,1.22.39.29.83.5,1.3.61.98.23,1.93.23,2.91,0,.48-.11.92-.32,1.3-.61.38-.29.7-.7.95-1.22.25-.52.37-1.21.37-2.04l-.02-3.01c0-.4,0-.72,0-.96,0-.25.02-.45.03-.59,0-.06.01-.11.01-.16-.66.03-1.18.18-1.54.46-.38.29-.57.81-.57,1.52l-.02,2.74c0,.56-.06,1.02-.16,1.36-.11.36-.27.64-.46.84-.19.2-.42.34-.66.42-.46.14-.95.14-1.4,0-.24-.07-.46-.21-.66-.42-.19-.2-.35-.48-.46-.84-.11-.34-.16-.8-.16-1.36l-.02-3.01c0-.4,0-.71,0-.96,0-.25.02-.45.03-.59,0-.06,0-.11.01-.16"/>
  <path class="st0" d="M32.22,11.73c.24,0,.47.04.71.1.25.07.48.22.68.42.2.21.36.49.48.84.11.35.17.81.17,1.37l-.02,2.74c0,.7.19,1.21.57,1.51.36.28.88.44,1.54.46,0-.05,0-.1-.01-.16-.01-.15-.03-.34-.04-.59-.01-.25-.02-.56-.02-.96v-3.01c0-.56.06-1.02.17-1.37.12-.35.27-.64.47-.84.2-.21.42-.35.66-.43.46-.14.94-.14,1.41,0,.25.07.48.22.68.42.2.21.36.49.48.84.12.35.17.81.17,1.37l-.02,2.74c0,.7.19,1.21.57,1.52.35.28.87.44,1.53.46,0-.05,0-.1-.01-.16-.01-.14-.02-.34-.03-.59,0-.24,0-.56,0-.96v-3.01c0-.84-.12-1.53-.36-2.06-.24-.52-.56-.93-.94-1.23-.39-.29-.82-.5-1.3-.6-1.04-.22-2.05-.21-3.03.03-.5.12-.95.36-1.35.7l-.11.1-.12-.1c-.39-.34-.84-.58-1.35-.7-.98-.24-2-.25-3.02-.03-.47.1-.9.31-1.28.6-.38.29-.69.71-.93,1.23-.24.53-.36,1.22-.36,2.06l-.02,2.74c0,.7.19,1.21.57,1.51.36.28.88.44,1.54.46,0-.05,0-.1-.01-.16-.01-.14-.02-.34-.03-.59,0-.24,0-.56,0-.96v-3.01c0-.56.06-1.02.16-1.36.11-.35.26-.64.46-.84.2-.21.42-.35.66-.43.23-.07.47-.1.7-.1"/>
  <path class="st0" d="M47.22,18.06c-.19,0-.4-.04-.65-.13-.25-.09-.49-.25-.72-.48-.22-.23-.41-.56-.56-.98-.15-.41-.22-.95-.22-1.59s.08-1.17.22-1.59c.15-.42.34-.74.56-.98.23-.23.47-.39.72-.48.24-.08.46-.13.65-.13s.41.04.65.13c.25.09.49.25.72.48.23.23.41.56.56.98.15.41.22.95.22,1.59s-.07,1.17-.22,1.59c-.15.42-.34.74-.56.98-.23.23-.47.39-.72.48-.24.08-.46.13-.65.13M45.16,6.03c-.66.03-1.18.18-1.53.45-.38.29-.56.81-.56,1.52v6.9c0,.62.11,1.21.33,1.75.22.54.52,1.02.89,1.41.37.4.82.72,1.32.95.5.23,1.05.35,1.63.35.63,0,1.21-.12,1.73-.35.51-.23.96-.56,1.31-.95.36-.41.64-.89.84-1.43.2-.54.3-1.13.3-1.74s-.11-1.23-.33-1.76c-.22-.53-.52-1.01-.91-1.42-.37-.4-.81-.72-1.32-.95-.5-.23-1.05-.35-1.63-.35-.71,0-1.34.14-1.88.43l-.25.14v-.81c0-.27,0-.57,0-.9,0-.32.01-.63.01-.92v-.61c0-.4,0-.71,0-.96,0-.25.02-.45.03-.59,0-.06,0-.11.01-.16"/>
  <path class="st0" d="M55.97,10.64c-.48,0-.97.05-1.45.16-.47.1-.9.31-1.28.6-.38.29-.69.71-.93,1.23-.24.53-.36,1.22-.36,2.06v2.53c0,.72.19,1.23.57,1.52.36.28.87.43,1.52.46,0-.05,0-.1-.01-.16-.01-.14-.02-.34-.03-.58,0-.23-.01-.54-.01-.95v-2.82c0-.56.06-1.02.17-1.36.12-.35.27-.62.46-.81.19-.19.4-.33.64-.41.22-.07.46-.13.69-.15.29-.03.5-.12.61-.27.13-.16.2-.32.22-.48.03-.18.03-.36,0-.56h-.81Z"/>
  <path class="st0" d="M60.05,14.49h0c-.24,0-.48-.02-.72-.05-.4-.06-.69-.12-.91-.19l-.14-.04.02-.15c.07-.46.19-.85.35-1.15.17-.3.35-.54.56-.71.2-.17.42-.29.64-.35.2-.06.38-.1.54-.11.06,0,.12,0,.17,0,.49,0,.89.12,1.17.36.32.27.47.6.44.98-.03.48-.22.83-.56,1.05-.31.2-.68.31-1.09.36-.16.02-.32.02-.48.02M60.4,10.42c-.63,0-1.21.12-1.73.35-.51.23-.96.56-1.31.95-.36.41-.64.89-.83,1.43-.19.54-.29,1.13-.29,1.76s.11,1.21.33,1.75c.22.54.52,1.02.89,1.41.38.41.83.73,1.33.96.5.23,1.04.34,1.61.34.66,0,1.28-.13,1.84-.38.54-.24,1.02-.58,1.42-1.01-.12-.17-.24-.3-.36-.37-.24-.15-.54-.14-.85-.03-.18.07-.36.13-.56.2-.2.07-.43.13-.68.18-.26.05-.53.08-.81.08-.17,0-.37-.03-.58-.09-.22-.06-.44-.19-.65-.38-.21-.18-.4-.43-.56-.74-.17-.31-.28-.71-.33-1.2l-.03-.24.23.05c.12.02.36.07.72.13.35.06.76.08,1.23.08.3,0,.66-.03,1.07-.1.4-.07.79-.19,1.15-.37.35-.18.66-.42.92-.73.24-.3.37-.69.37-1.18s-.12-.95-.34-1.31c-.23-.36-.53-.66-.88-.89-.36-.23-.75-.4-1.16-.5-.42-.11-.81-.16-1.15-.16"/>
  <path class="st0" d="M64.62,6.03c0,.05.01.11.02.18.01.15.02.34.03.58,0,.24.02.55.03.94v9.47c0,.3.05.6.14.88.09.27.23.51.41.71.18.2.41.36.69.47.27.11.59.15.97.11.37-.02.64-.13.8-.3.18-.19.29-.39.35-.6.05-.16.07-.33.08-.52-.03.02-.07.03-.1.04-.13.05-.26.07-.38.07-.06,0-.12,0-.17-.01-.2-.03-.37-.13-.51-.3-.15-.17-.22-.43-.22-.78v-8.96c0-.7-.19-1.21-.57-1.51-.36-.28-.88-.44-1.54-.46"/>
  <path class="st0" d="M68.61,6.03c0,.05.01.11.02.18.01.15.02.34.03.58,0,.24.02.55.03.94v9.47c0,.3.05.6.14.88.09.27.23.51.41.71.18.2.41.36.69.47.27.11.6.15.97.11.37-.02.64-.13.8-.3.18-.19.29-.39.35-.6.04-.16.07-.33.08-.52-.03.02-.07.03-.1.04-.13.05-.26.07-.38.07-.06,0-.11,0-.17-.01-.2-.03-.37-.13-.51-.3-.15-.17-.22-.43-.22-.78v-8.96c0-.7-.19-1.21-.58-1.51-.36-.28-.88-.44-1.54-.46"/>
  <path class="st0" d="M75.82,18.08c-.37,0-.65-.05-.88-.15-.23-.1-.4-.23-.52-.38-.13-.14-.22-.31-.27-.48-.04-.16-.06-.32-.06-.46,0-.09,0-.16.02-.21.02-.13.04-.24.09-.35.05-.11.11-.22.18-.31.18-.24.46-.43.82-.54.15-.05.32-.09.5-.11.38-.04.81-.04,1.22.01.22.03.41.05.58.08h.02c.09.03.16.05.22.06.06.01.12.03.17.04.02,0,.05,0,.07.02h.14v.18c0,.23-.03.48-.08.75-.06.28-.16.55-.31.81-.07.13-.15.26-.25.38-.1.13-.23.23-.37.32-.28.2-.63.32-1.02.34-.06.01-.15.02-.26.02M76.01,13.92c-.46,0-.91.05-1.34.16-.42.1-.8.26-1.14.47-.35.23-.61.5-.78.81-.2.32-.29.71-.29,1.18v.12c.01.5.13.94.36,1.28.16.29.36.51.58.69.23.18.49.32.77.43.28.13.56.21.84.25.29.04.57.07.83.07h.25c.07,0,.14,0,.21-.02.57-.06,1.08-.22,1.53-.47.45-.25.84-.57,1.16-.97.66-.81.99-1.88.99-3.17v-.16c-.02-1.26-.4-2.28-1.1-3.05-.34-.35-.76-.64-1.22-.84-.47-.2-.99-.31-1.56-.31h-.17s-.08,0-.13.02h-.02c-.6.04-1.15.18-1.66.42-.48.23-.91.54-1.28.92.09.16.21.28.33.36.26.12.59.11.92.03.17-.04.35-.1.53-.16.19-.07.38-.12.56-.17.19-.05.38-.08.57-.09h.23c.21,0,.39.02.55.05.16.04.32.09.46.16.38.2.66.53.84.96.14.33.23.7.27,1.12l.03.26-.25-.08c-.59-.19-1.22-.28-1.87-.28"/>
  <path class="st0" d="M13.15,16.62c-1.88-.78-4.18-1.03-4.18-1.03,0,0,1.29,1.37,2.09,3.28.85,2,1.21,4.55,1.21,4.55,0,0,.62-1.73,1.79-2.9,1.11-1.1,2.79-1.65,2.79-1.65,0,0-1.65-1.39-3.71-2.24"/>
  <path class="st0" d="M16.99,11.91s-2.15.17-4.2,1.01c-1.88.77-3.68,2.21-3.68,2.21,0,0,1.88.07,3.79.86,2.01.83,4.07,2.39,4.07,2.39,0,0-.79-1.66-.78-3.32,0-1.57.8-3.14.8-3.14"/>
  <path class="st0" d="M12.18,6.91s-1.39,1.65-2.23,3.69c-.78,1.88-1.02,4.17-1.02,4.17,0,0,1.37-1.28,3.28-2.08,2-.84,4.55-1.21,4.55-1.21,0,0-1.74-.62-2.91-1.79-1.11-1.11-1.67-2.79-1.67-2.79"/>
  <path class="st0" d="M5.23,6.6s.18,2.14,1.03,4.19c.78,1.88,2.23,3.68,2.23,3.68,0,0,.06-1.87.84-3.78.82-2,2.36-4.05,2.36-4.05,0,0-1.66.78-3.32.76-1.57-.01-3.15-.81-3.15-.81"/>
  <path class="st0" d="M.19,11.33s1.64,1.39,3.7,2.25c1.88.79,4.18,1.05,4.18,1.05,0,0-1.28-1.37-2.08-3.28-.84-2-1.19-4.55-1.19-4.55,0,0-.62,1.73-1.81,2.89-1.12,1.1-2.8,1.65-2.8,1.65"/>
  <path class="st0" d="M0,18.29s2.14-.17,4.2-1.01c1.88-.77,3.69-2.21,3.69-2.21,0,0-1.87-.07-3.79-.86C2.09,13.37.04,11.82.04,11.82c0,0,.78,1.67.77,3.32,0,1.57-.81,3.14-.81,3.14"/>
  <path class="st0" d="M4.84,23.41s1.38-1.65,2.23-3.7c.78-1.88,1.02-4.18,1.02-4.18,0,0-1.37,1.28-3.27,2.08-2,.84-4.54,1.2-4.54,1.2,0,0,1.73.62,2.9,1.8,1.11,1.12,1.66,2.8,1.66,2.8"/>
  <path class="st0" d="M11.84,23.56s-.21-2.14-1.09-4.19c-.8-1.87-2.27-3.66-2.27-3.66,0,0-.04,1.87-.8,3.8-.8,2.02-2.31,4.08-2.31,4.08,0,0,1.65-.8,3.31-.81,1.57,0,3.16.77,3.16.77"/>
</svg>