<?xml version="1.0" encoding="UTF-8"?>
<svg id="Layer_1" data-name="Layer 1" xmlns="http://www.w3.org/2000/svg" xmlns:xlink="http://www.w3.org/1999/xlink" viewBox="0 0 90 45">
  <defs>
    <style>
      .cls-1 {
        fill: #fff;
      }

      .cls-2 {
        clip-path: url(#clippath-1);
      }
    </style>
    <clipPath id="clippath-1">
      <polygon class="cls-1" points="82.4 17.81 82.4 17.81 90 17.81 90 17.77 82.4 17.81"/>
    </clipPath>
  </defs>
  <g>
    <path class="cls-1" d="M60.08,23.82c-.18-.44-.43-.81-.73-1.11-.3-.3-.64-.54-1.02-.73-.38-.19-.77-.34-1.15-.46-.39-.11-.76-.2-1.13-.27-.36-.06-.68-.13-.94-.19-.36-.09-.73-.18-1.11-.27-.38-.09-.73-.2-1.05-.32-.32-.13-.58-.29-.78-.48-.2-.19-.31-.43-.31-.71s.09-.52.26-.72c.17-.2.39-.36.65-.49.26-.13.54-.22.83-.28.29-.06.55-.09.78-.09.67,0,1.32.12,1.93.36.61.24,1.25.59,1.91,1.05l1.49-2.1c-.43-.31-.84-.57-1.21-.79-.38-.22-.76-.41-1.15-.55-.39-.15-.82-.26-1.28-.33-.46-.08-.98-.11-1.57-.11s-1.19.06-1.82.19c-.63.13-1.2.35-1.72.66-.52.31-.94.74-1.27,1.28-.33.54-.5,1.22-.5,2.03,0,.56.09,1.05.28,1.46.18.41.43.77.73,1.07.31.3.65.55,1.03.74.38.2.77.36,1.16.48.39.12.78.22,1.15.29.37.07.69.13.97.18.42.08.82.16,1.21.25.39.09.73.2,1.01.32.29.13.52.29.69.49.17.2.26.44.26.72,0,.22-.06.44-.17.66-.11.22-.29.42-.52.59-.23.17-.51.31-.84.42-.33.11-.71.16-1.15.16-.81,0-1.59-.17-2.34-.52-.06-.03-.11-.05-.17-.08l-1.33,2.28c.14.07.29.13.43.19.46.18.96.33,1.52.44.55.11,1.19.16,1.92.16.79,0,1.51-.09,2.16-.27.65-.18,1.21-.44,1.68-.79.47-.35.83-.79,1.09-1.33.25-.53.38-1.16.38-1.89,0-.62-.09-1.15-.28-1.59"/>
    <line class="cls-1" x1="82.4" y1="17.81" x2="82.4" y2="17.81"/>
    <polygon class="cls-1" points="69.62 23.52 62.76 15.47 62.59 15.47 62.59 29.42 65.27 29.42 65.27 22.36 69.62 27.61 73.99 22.36 76.66 19.2 76.66 15.47 76.49 15.47 69.62 23.52"/>
    <g>
      <polygon class="cls-1" points="82.4 17.81 82.4 17.81 90 17.81 90 17.77 82.4 17.81"/>
      <g class="cls-2">
        <rect class="cls-1" x="82.4" y="17.77" width="7.6" height=".04"/>
      </g>
    </g>
    <g>
      <polygon class="cls-1" points="82.4 21.28 79.73 21.29 79.73 29.42 82.4 29.42 82.4 23.73 82.4 21.28"/>
      <polygon class="cls-1" points="82.39 15.45 79.73 15.45 79.73 17.83 82.4 17.81 90 17.77 90 15.45 82.39 15.45"/>
      <path class="cls-1" d="M76.58,28.07c0,.72-.59,1.31-1.31,1.31s-1.31-.59-1.31-1.31.59-1.31,1.31-1.31,1.31.59,1.31,1.31"/>
      <path class="cls-1" d="M85.66,22.61c0,.72-.59,1.31-1.31,1.31s-1.31-.59-1.31-1.31.59-1.31,1.31-1.31,1.31.59,1.31,1.31"/>
      <path class="cls-1" d="M51.48,26.92c0,.72-.59,1.31-1.31,1.31s-1.31-.59-1.31-1.31.59-1.31,1.31-1.31,1.31.59,1.31,1.31"/>
    </g>
  </g>
  <g>
    <path class="cls-1" d="M2.47,22.89s.05-.09.05-.17v-.97s.01-.04.04-.04h.5s.04.01.04.04v1.17c0,.18-.04.31-.11.39-.07.08-.2.13-.38.13H.48c-.17,0-.3-.04-.37-.13-.07-.08-.11-.21-.11-.39v-.91s.01-.04.04-.04h.5s.04.01.04.04v.71c0,.08.02.14.05.17.03.03.08.05.15.05h1.53c.07,0,.12-.02.15-.05M1.02,21.53s-.04-.01-.04-.04v-.4s.01-.04.04-.04h.41s.04.01.04.04v.4s-.01.04-.04.04h-.41ZM1.65,21.53s-.04-.01-.04-.04v-.4s.01-.04.04-.04h.41s.04.01.04.04v.4s-.01.04-.04.04h-.41Z"/>
    <path class="cls-1" d="M3.59,20.64h.49s.04.02.04.04v2.71s-.02.04-.04.04h-.49s-.04-.02-.04-.04v-2.71s.02-.04.04-.04Z"/>
    <path class="cls-1" d="M4.82,21.75s.01-.04.04-.04h.5s.04.01.04.04v.97c0,.07.03.12.09.16.05.04.13.06.22.06h.09c.05,0,.1.02.12.06.03.04.04.1.04.19,0,.17-.05.25-.16.25-.09,0-.17,0-.23-.03-.07-.02-.12-.06-.17-.11v.07c0,.31-.06.54-.18.69-.12.15-.33.22-.61.22h-.19s-.04-.01-.04-.04v-.41s.01-.04.04-.04h.09c.07,0,.13-.01.17-.03.04-.02.07-.06.09-.1.02-.05.03-.1.04-.17,0-.07,0-.14,0-.23v-1.5Z"/>
    <path class="cls-1" d="M7.08,23.46c-.15,0-.28-.02-.4-.06-.12-.04-.22-.1-.31-.19-.03.05-.07.09-.12.12-.05.03-.1.05-.15.07-.05.02-.11.02-.16.03-.05,0-.1,0-.14,0-.05,0-.1-.02-.12-.05-.03-.04-.04-.1-.04-.19s.01-.16.04-.2c.02-.04.07-.06.13-.06h.12c.06,0,.12-.03.17-.08.05-.05.08-.15.08-.29v-.08c0-.27.08-.48.23-.63.16-.15.38-.22.67-.22s.5.08.66.23c.16.15.25.39.25.7,0,.02,0,.04,0,.06,0,.02,0,.04,0,.05,0,.09.03.16.08.2.05.04.11.06.18.06h.12c.05,0,.1.02.12.06.03.04.04.1.04.19,0,.17-.05.25-.16.25-.05,0-.1,0-.15,0-.05,0-.1-.01-.15-.03-.05-.02-.1-.04-.14-.07-.04-.03-.08-.07-.12-.13-.08.1-.19.17-.31.21-.12.04-.26.06-.41.06M7.08,22.13c-.22,0-.34.14-.34.41,0,.16.03.26.08.33.06.06.14.09.25.09s.2-.03.25-.09c.05-.06.08-.17.08-.33,0-.28-.11-.41-.34-.41"/>
    <path class="cls-1" d="M8.35,23.43c-.05,0-.1-.02-.12-.05-.03-.03-.04-.09-.04-.18,0-.17.05-.26.16-.26h.25c.07,0,.12-.02.15-.05.03-.03.05-.09.05-.17v-.97s.01-.04.04-.04h.49s.04.01.04.04v1.17c0,.18-.04.31-.11.39-.07.08-.2.13-.37.13h-.55ZM8.54,21.29s-.04-.01-.04-.04v-.4s.01-.04.04-.04h.41s.04.01.04.04v.4s-.01.04-.04.04h-.41ZM9.17,21.29s-.04-.01-.04-.04v-.4s.01-.04.04-.04h.41s.04.01.04.04v.4s-.01.04-.04.04h-.41Z"/>
    <path class="cls-1" d="M10.23,24.27s-.04-.01-.04-.04v-.41s.01-.04.04-.04h.47c.06,0,.11,0,.15-.01.05,0,.08-.03.11-.05.03-.02.05-.06.07-.1.02-.05.02-.1.02-.17h-.39c-.27,0-.47-.06-.62-.19-.14-.13-.22-.35-.22-.66,0-.18.03-.32.08-.44.05-.12.12-.22.2-.29.08-.07.18-.13.29-.16.11-.03.22-.05.34-.05s.24.02.35.05c.11.03.21.08.29.15.08.07.15.16.2.28.05.12.07.27.07.44v.38h.28c.11,0,.16.08.16.25,0,.1-.01.17-.04.2-.03.03-.07.05-.12.05h-.28v.08c0,.26-.07.45-.2.57-.13.13-.33.19-.61.19h-.6ZM10.44,21.05s-.03-.06-.04-.09c-.01-.03-.02-.07-.02-.11,0-.05,0-.1.03-.15.02-.05.05-.09.08-.13.04-.04.08-.07.14-.09.06-.02.13-.03.21-.03.09,0,.17.02.24.05.07.03.12.07.15.12.01.01,0,.03,0,.04l-.13.14s-.02,0-.04,0c-.03-.03-.06-.05-.09-.07-.03-.02-.07-.02-.11-.02-.05,0-.1.02-.13.05-.03.03-.05.07-.05.12s.01.09.04.12c.02.03.05.05.08.07h.43s.02,0,.02.03v.19s0,.03-.02.03h-.93s-.02,0-.02-.03v-.19s0-.03.02-.03h.14ZM10.74,22.13c-.11,0-.19.04-.25.11-.06.08-.09.18-.09.31,0,.15.03.25.1.3.06.05.15.08.25.08h.32v-.4c0-.27-.11-.41-.32-.41"/>
    <path class="cls-1" d="M13.19,23.46c-.15,0-.28-.02-.4-.06-.12-.04-.22-.1-.31-.19-.03.05-.07.09-.12.12-.05.03-.1.05-.15.07-.05.02-.11.02-.16.03-.05,0-.1,0-.14,0-.05,0-.1-.02-.12-.05-.03-.04-.04-.1-.04-.19s.01-.16.04-.2c.02-.04.07-.06.13-.06h.12c.06,0,.12-.03.17-.08.05-.05.08-.15.08-.29v-.08c0-.27.08-.48.23-.63.16-.15.38-.22.67-.22s.5.08.66.23c.16.15.25.39.25.7,0,.02,0,.04,0,.06,0,.02,0,.04,0,.05,0,.09.03.16.08.2.05.04.11.06.18.06h.12c.05,0,.1.02.12.06.03.04.04.1.04.19,0,.17-.05.25-.16.25-.05,0-.1,0-.15,0-.05,0-.1-.01-.15-.03-.05-.02-.1-.04-.14-.07-.04-.03-.08-.07-.12-.13-.08.1-.19.17-.31.21-.12.04-.26.06-.41.06M13.19,22.13c-.22,0-.34.14-.34.41,0,.16.03.26.08.33.06.06.14.09.25.09s.2-.03.25-.09c.05-.06.08-.17.08-.33,0-.28-.11-.41-.34-.41"/>
    <path class="cls-1" d="M14.46,23.43c-.05,0-.1,0-.12-.03-.03-.02-.04-.06-.04-.11,0-.03,0-.07.01-.11,0-.04.02-.08.03-.11.01-.04.03-.07.05-.09.02-.02.05-.04.08-.04h.14c.07,0,.12-.02.15-.05.03-.03.05-.09.05-.17v-2.03s.01-.04.04-.04h.5s.04.01.04.04v2.23c0,.18-.04.31-.11.39-.07.08-.2.13-.37.13h-.44Z"/>
    <path class="cls-1" d="M15.92,20.64h.49s.04.02.04.04v2.71s-.02.04-.04.04h-.49s-.04-.02-.04-.04v-2.71s.02-.04.04-.04Z"/>
    <path class="cls-1" d="M17.27,24.27s-.04-.01-.04-.04v-.41s.01-.04.04-.04h.47c.05,0,.1,0,.15-.01.04,0,.08-.02.11-.05.03-.02.06-.06.07-.1.02-.04.03-.11.03-.18h-.17c-.16,0-.31,0-.44-.03-.13-.02-.24-.06-.33-.12-.09-.06-.16-.15-.21-.26-.05-.11-.07-.26-.07-.44,0-.18.03-.32.08-.44.05-.12.12-.22.2-.29.08-.07.18-.13.29-.16.11-.03.22-.05.34-.05s.24.02.35.05c.11.03.21.08.29.15.08.07.15.16.2.28.05.12.07.27.07.44v.96c0,.26-.07.45-.2.57-.13.13-.33.19-.61.19h-.6ZM17.78,22.13c-.11,0-.2.04-.25.11-.06.08-.09.18-.09.31,0,.15.03.25.1.3.06.05.15.08.25.08h.32v-.4c0-.27-.11-.41-.32-.41"/>
    <path class="cls-1" d="M20.23,22.52s.03-.02.06-.01l.44.14s.02.01.02.02c0,0,0,.02,0,.03-.04.08-.07.16-.11.26-.03.1-.05.2-.05.32,0,.1.01.18.04.24.03.07.06.12.11.16.05.04.1.07.15.09.06.02.11.03.17.03.14,0,.25-.04.33-.12.08-.08.12-.2.12-.37v-1.61s.01-.04.04-.04h.5s.04.01.04.04v.13c.13-.06.26-.11.41-.14.15-.04.3-.06.46-.06.33,0,.59.08.76.24.17.16.26.41.26.75,0,.17-.02.3-.05.41-.03.11-.08.19-.15.25-.07.06-.16.1-.27.12-.11.02-.25.03-.4.03h-.71c-.06,0-.11,0-.17,0-.05,0-.11,0-.16-.01,0,.16-.04.29-.1.41s-.13.21-.22.28c-.09.07-.2.12-.32.16-.12.03-.25.05-.39.05s-.28-.02-.4-.06c-.13-.04-.24-.09-.33-.17-.1-.08-.17-.18-.23-.3-.06-.12-.08-.27-.08-.44,0-.14.02-.28.06-.42.04-.14.1-.27.17-.39M22.86,22.13c-.14,0-.28.02-.41.06-.13.04-.25.08-.36.13v.62h.81c.1,0,.18,0,.25,0,.06,0,.11-.02.15-.04.04-.02.06-.06.07-.1s.02-.11.02-.19c0-.07,0-.14-.02-.2-.02-.06-.04-.11-.08-.15-.04-.04-.09-.07-.16-.09-.07-.02-.15-.03-.26-.03M22.63,21.29s-.04-.01-.04-.04v-.4s.01-.04.04-.04h.51s.04.01.04.04v.4s-.01.04-.04.04h-.51Z"/>
    <path class="cls-1" d="M24.23,24.27s-.04-.01-.04-.04v-.41s.01-.04.04-.04h.09c.11,0,.19-.03.24-.09.05-.06.07-.14.07-.26v-1.68s.01-.04.04-.04h.5s.04.01.04.04v1.7c0,.28-.07.49-.2.62-.13.13-.33.2-.6.2h-.19Z"/>
    <path class="cls-1" d="M25.7,20.68s.01-.04.04-.04h.49s.04.01.04.04v2.03c0,.08.02.14.05.17.03.03.08.05.15.05h.11c.05,0,.1.02.12.06.03.04.04.11.04.2,0,.1-.01.16-.04.19-.03.03-.07.05-.12.05h-.41c-.17,0-.29-.04-.37-.13-.07-.08-.11-.21-.11-.39v-2.23Z"/>
    <path class="cls-1" d="M27.76,21.63c.17,0,.31.02.43.05.12.03.22.08.3.13.08.06.14.12.17.2.04.08.06.16.06.25,0,.07-.01.14-.04.21-.02.07-.05.13-.09.18-.04.06-.08.11-.13.15-.05.05-.1.08-.14.12.03,0,.06,0,.09,0h.53c.05,0,.09.02.12.06.02.04.04.1.04.19,0,.1-.01.17-.04.2-.03.03-.07.05-.11.05h-.65c-.1,0-.19,0-.28-.03-.09-.02-.17-.05-.25-.1-.09.05-.19.08-.29.1-.1.02-.19.03-.27.03h-.62c-.05,0-.09-.02-.12-.05-.02-.03-.04-.09-.04-.19,0-.08.01-.14.03-.19s.06-.07.13-.07h.43s.1,0,.15,0c.05,0,.1-.01.15-.02-.04-.12-.1-.22-.18-.31-.08-.09-.18-.17-.28-.24-.02-.02-.04-.04-.05-.06,0-.02-.01-.06-.01-.1v-.27s.03-.07.09-.1c.06-.03.13-.07.22-.09.09-.03.19-.05.31-.07.11-.02.23-.03.34-.03M27.8,22.84c.09-.05.17-.12.23-.2.06-.08.09-.16.09-.25s-.03-.15-.1-.19c-.06-.04-.15-.06-.27-.06-.09,0-.17,0-.25.03-.07.02-.12.03-.14.05.11.08.2.17.28.28.07.11.13.23.16.35"/>
    <path class="cls-1" d="M30.22,23.46c-.15,0-.28-.02-.4-.06-.12-.04-.22-.1-.31-.19-.03.05-.07.09-.12.12-.05.03-.1.05-.15.07-.05.02-.11.02-.16.03-.05,0-.1,0-.14,0-.05,0-.1-.02-.12-.05-.03-.04-.04-.1-.04-.19s.01-.16.04-.2c.02-.04.07-.06.13-.06h.12c.06,0,.12-.03.17-.08.05-.05.08-.15.08-.29v-.08c0-.27.08-.48.23-.63.16-.15.38-.22.67-.22s.5.08.66.23c.16.15.25.39.25.7,0,.02,0,.04,0,.06,0,.02,0,.04,0,.05,0,.09.03.16.08.2.05.04.11.06.18.06h.12c.05,0,.1.02.12.06.03.04.04.1.04.19,0,.17-.05.25-.16.25-.05,0-.1,0-.15,0-.05,0-.1-.01-.15-.03-.05-.02-.1-.04-.14-.07-.04-.03-.08-.07-.12-.13-.08.1-.19.17-.31.21-.12.04-.26.06-.41.06M30.22,22.13c-.22,0-.34.14-.34.41,0,.16.03.26.08.33.06.06.14.09.25.09s.2-.03.25-.09c.05-.06.08-.17.08-.33,0-.28-.11-.41-.34-.41"/>
    <path class="cls-1" d="M31.49,23.43c-.05,0-.1,0-.12-.03-.03-.02-.04-.06-.04-.11,0-.03,0-.07.01-.11,0-.04.02-.08.03-.11.01-.04.03-.07.05-.09.02-.02.05-.04.08-.04h.14c.07,0,.12-.02.15-.05.03-.03.05-.09.05-.17v-2.03s.01-.04.04-.04h.5s.04.01.04.04v2.23c0,.18-.04.31-.11.39-.07.08-.2.13-.37.13h-.44Z"/>
    <path class="cls-1" d="M32.95,20.64h.49s.04.02.04.04v2.71s-.02.04-.04.04h-.49s-.04-.02-.04-.04v-2.71s.02-.04.04-.04Z"/>
    <path class="cls-1" d="M36.09,21.63v-.18s.01-.04.04-.04h.5s.04.01.04.04v1.26c0,.08.02.14.05.17.03.03.08.05.15.05h.13c.11,0,.16.08.16.25,0,.1-.01.16-.04.19-.03.03-.07.05-.13.05h-.43c-.13,0-.24-.02-.31-.06-.08-.04-.13-.12-.15-.24-.06.05-.13.09-.21.11-.08.02-.16.04-.25.04-.11,0-.21-.02-.31-.05-.1-.03-.18-.08-.26-.14-.07-.06-.13-.14-.17-.25-.04-.1-.06-.22-.06-.37,0-.16.02-.3.07-.41.05-.11.11-.19.19-.26.08-.06.17-.11.27-.14.1-.03.2-.04.31-.04h.41ZM35.25,21.13s-.04-.01-.04-.04v-.4s.01-.04.04-.04h.41s.04.01.04.04v.4s-.01.04-.04.04h-.41ZM35.75,22.78c.1,0,.19-.03.25-.09.06-.06.09-.15.09-.28v-.28h-.33c-.1,0-.19.02-.25.07-.06.05-.09.14-.09.27,0,.11.03.19.09.24.06.05.14.07.24.07M35.89,21.13s-.04-.01-.04-.04v-.4s.01-.04.04-.04h.41s.04.01.04.04v.4s-.01.04-.04.04h-.41Z"/>
    <path class="cls-1" d="M37.35,22.93c-.04-.05-.08-.12-.11-.2-.03-.08-.04-.17-.04-.27,0-.11.02-.21.05-.31.04-.1.09-.19.16-.26.07-.08.17-.14.28-.18.11-.05.25-.07.41-.07.2,0,.36.03.5.09.13.06.23.14.3.22.02.02.01.04,0,.06l-.26.31s-.04.02-.06,0c-.12-.12-.26-.18-.41-.18-.11,0-.2.03-.27.1-.07.07-.1.16-.1.29,0,.06,0,.12.03.17.02.05.04.09.07.12.03.03.06.06.08.08.03.02.05.04.07.05h.89s.04.01.04.04v.41s-.01.04-.04.04h-1.93c-.05,0-.1-.02-.12-.06-.03-.04-.04-.1-.04-.19,0-.09.01-.16.04-.2.03-.04.07-.06.13-.06h.33Z"/>
    <path class="cls-1" d="M39.4,20.68s.01-.04.04-.04h.49s.04.01.04.04v2.03c0,.08.02.14.05.17.03.03.08.05.15.05h.11c.05,0,.1.02.12.06.03.04.04.11.04.2,0,.1-.01.16-.04.19-.03.03-.07.05-.12.05h-.41c-.17,0-.29-.04-.37-.13-.07-.08-.11-.21-.11-.39v-2.23Z"/>
    <path class="cls-1" d="M41.17,23.23c-.05.08-.11.14-.19.17-.08.03-.2.04-.34.04h-.33c-.05,0-.1,0-.12-.03-.03-.02-.04-.06-.04-.12,0-.04,0-.07,0-.11,0-.04.02-.08.03-.11.01-.04.03-.06.05-.09.02-.02.05-.04.08-.04h.14c.08,0,.14-.02.16-.07.02-.05.03-.13.03-.26v-.86s.02-.03.06-.04c.04,0,.07,0,.1,0h.38s.04.01.04.04v.97c0,.07.03.12.09.16.05.04.13.06.22.06h.09c.05,0,.1.02.12.06.03.04.04.1.04.19,0,.17-.05.25-.16.25s-.19-.01-.27-.04c-.08-.02-.14-.08-.19-.17M40.68,21.29s-.04-.01-.04-.04v-.4s.01-.04.04-.04h.51s.04.01.04.04v.4s-.01.04-.04.04h-.51Z"/>
    <path class="cls-1" d="M41.95,21.71s.01-.04.04-.04h.49s.04.01.04.04v.12c.13-.05.26-.1.41-.14.15-.04.3-.06.46-.06.33,0,.59.08.76.24.17.16.26.41.26.75v.05s0,.03,0,.04c0,.07.04.12.09.16.05.04.13.06.23.06h.09c.05,0,.1.02.12.06.03.04.04.1.04.19,0,.17-.05.25-.16.25-.12,0-.22-.02-.31-.05-.09-.03-.15-.1-.2-.21-.06.1-.15.17-.26.21-.11.03-.26.05-.45.05h-.79s-.08,0-.13,0c-.05,0-.09,0-.13-.01-.04,0-.08-.01-.11-.02-.03-.01-.06-.03-.07-.05-.05.04-.1.06-.16.07-.06,0-.14.01-.23.01h-.37c-.05,0-.1-.02-.12-.05-.03-.03-.04-.1-.04-.19,0-.1.01-.17.04-.2.02-.03.07-.05.13-.05h.16s.07,0,.1-.03c.02-.02.04-.04.05-.07,0-.03.02-.07.02-.11,0-.04,0-.09,0-.14v-.87ZM43.29,22.13c-.14,0-.27.02-.41.06-.13.04-.25.08-.36.13v.46s0,.06,0,.08c0,.03,0,.05,0,.08h.81c.1,0,.18,0,.25,0,.06,0,.11-.02.15-.04.04-.02.06-.06.07-.1.01-.05.02-.11.02-.19,0-.07,0-.14-.02-.2-.02-.06-.04-.11-.08-.15-.04-.04-.09-.07-.16-.09-.07-.02-.15-.03-.26-.03"/>
    <path class="cls-1" d="M44.82,23.43c-.05,0-.1,0-.12-.03-.03-.02-.04-.06-.04-.11,0-.03,0-.07.01-.11,0-.04.02-.08.03-.11.01-.04.03-.07.05-.09.02-.02.05-.04.08-.04h.14c.07,0,.12-.02.15-.05.03-.03.05-.09.05-.17v-2.03s.01-.04.04-.04h.5s.04.01.04.04v2.23c0,.18-.04.31-.11.39-.07.08-.2.13-.37.13h-.44Z"/>
    <path class="cls-1" d="M15.69,18.34c0-.14.02-.27.06-.41.04-.14.09-.27.16-.39.01-.02.03-.02.06-.01l.44.14s.02.01.02.02c0,0,0,.02,0,.03-.04.08-.07.16-.11.26-.03.1-.05.2-.05.32,0,.1.02.18.06.24.04.06.08.11.14.15.06.04.12.06.2.07.07.01.14.02.22.02h.72c.15,0,.25-.02.31-.06.06-.04.08-.08.08-.14,0-.04-.02-.08-.07-.12-.04-.04-.1-.08-.17-.12-.07-.04-.14-.09-.22-.14-.08-.05-.15-.11-.22-.18-.07-.07-.12-.14-.17-.23-.04-.08-.07-.18-.07-.29,0-.11.02-.22.07-.31.05-.09.11-.17.18-.24.08-.07.17-.12.28-.15.11-.04.22-.05.34-.05.18,0,.34.03.46.08.13.06.23.13.31.23,0,.01.01.02,0,.03,0,0,0,.02-.02.03l-.27.29s-.04.01-.06,0c-.05-.05-.11-.09-.17-.12-.06-.03-.13-.04-.21-.04-.08,0-.16.02-.22.07-.06.04-.1.11-.1.2,0,.06.02.12.07.17.05.05.1.11.17.16.07.05.14.1.22.15.08.05.15.11.22.17.07.06.13.13.17.21.05.08.07.16.07.26,0,.19-.07.35-.21.47-.14.12-.36.18-.65.18h-.96c-.39,0-.67-.08-.85-.25-.18-.17-.27-.4-.27-.7M16.68,20.04s-.04-.01-.04-.04v-.4s.01-.04.04-.04h.41s.04.01.04.04v.4s-.01.04-.04.04h-.41ZM17.31,20.04s-.04-.01-.04-.04v-.4s.01-.04.04-.04h.41s.04.01.04.04v.4s-.01.04-.04.04h-.41Z"/>
    <path class="cls-1" d="M20.7,18.05c0,.13-.01.25-.04.34-.03.09-.06.16-.11.22-.05.05-.11.09-.19.11-.08.02-.17.03-.27.03h-.99s-.04-.01-.04-.04v-.41s.01-.04.04-.04h.71c.07,0,.12,0,.16-.01.04,0,.07-.03.09-.05.02-.02.03-.05.04-.09,0-.04.01-.08.01-.13v-.22c0-.11-.03-.18-.09-.23-.06-.05-.15-.07-.28-.07h-.47s-.04-.01-.04-.04v-.41s.01-.04.04-.04h.71c.23,0,.41.06.54.18.13.12.19.31.19.56v.36Z"/>
    <path class="cls-1" d="M21.48,19.59s-.04-.01-.04-.04v-.41s.01-.04.04-.04h.47c.06,0,.11,0,.15-.01.05,0,.08-.03.11-.05.03-.02.05-.06.07-.1.02-.05.02-.1.02-.17h-.39c-.27,0-.47-.06-.62-.19-.14-.13-.22-.35-.22-.66,0-.18.03-.32.08-.44.05-.12.12-.22.2-.29.08-.07.18-.13.29-.16.11-.03.22-.05.34-.05s.24.02.35.05.21.08.29.15c.08.07.15.16.2.28.05.12.07.27.07.44v.38h.28c.11,0,.16.08.16.25,0,.1-.01.17-.04.2-.03.03-.07.05-.12.05h-.28v.08c0,.26-.07.45-.2.57-.13.13-.33.19-.61.19h-.6ZM21.99,17.45c-.11,0-.19.04-.25.11-.06.08-.09.18-.09.31,0,.15.03.25.1.3.06.05.15.08.25.08h.32v-.4c0-.27-.11-.41-.32-.41"/>
    <path class="cls-1" d="M24.34,16.95c.17,0,.31.02.43.05.12.03.22.08.3.13.08.06.14.12.17.2.04.08.06.16.06.25,0,.07-.01.14-.04.21-.02.07-.05.13-.09.18-.04.06-.08.11-.13.15-.05.05-.09.08-.14.12.03,0,.06,0,.09,0h.53c.05,0,.09.02.12.06.02.04.04.1.04.19,0,.1-.01.17-.04.2s-.07.05-.11.05h-.65c-.1,0-.19,0-.28-.03-.09-.02-.17-.05-.25-.1-.09.05-.19.08-.29.1-.1.02-.19.03-.27.03h-.62c-.05,0-.09-.02-.12-.05-.02-.03-.04-.09-.04-.19,0-.08.01-.14.03-.19.02-.05.06-.07.13-.07h.43s.1,0,.15,0c.05,0,.1-.01.15-.02-.04-.12-.1-.22-.18-.31-.08-.09-.18-.17-.28-.24-.02-.02-.04-.04-.05-.06,0-.02-.01-.06-.01-.1v-.27s.03-.07.09-.1c.06-.03.13-.07.22-.09.09-.03.19-.05.31-.07.11-.02.23-.03.34-.03M24.38,18.15c.09-.05.17-.12.23-.2.06-.08.09-.16.09-.25s-.03-.15-.1-.19c-.06-.04-.15-.06-.27-.06-.09,0-.17,0-.25.03-.07.02-.12.03-.14.05.11.08.2.17.28.28.07.11.13.23.16.35"/>
    <path class="cls-1" d="M28,18.75c-.11,0-.19-.02-.26-.06-.07-.04-.12-.09-.15-.16-.04.08-.1.14-.17.17-.08.03-.18.05-.32.05h-.16c-.11,0-.19-.02-.26-.06-.07-.04-.12-.09-.16-.16-.04.09-.1.15-.17.17-.08.03-.18.04-.32.04h-.49c-.05,0-.1-.02-.12-.05-.03-.03-.04-.09-.04-.18,0-.1.01-.16.04-.21.03-.04.07-.06.12-.06h.27c.08,0,.13-.02.15-.06.02-.04.03-.11.03-.22v-.61s.01-.04.04-.04h.5s.04.01.04.04v.67c0,.09.03.15.08.18.05.03.11.04.18.04.05,0,.09,0,.13-.02.03-.01.05-.03.07-.05.01-.02.02-.05.03-.09,0-.04,0-.08,0-.14v-.6s.01-.04.04-.04h.5s.04.01.04.04v.67c0,.09.03.15.08.18.06.03.12.04.19.04.05,0,.09,0,.12-.02.03-.01.05-.03.06-.05.01-.02.02-.05.02-.09s0-.08,0-.14v-.89s.01-.04.04-.04h.5s.04.01.04.04v.97c0,.07.03.12.09.16.05.04.13.06.22.06h.09c.05,0,.1.02.12.06.03.04.04.1.04.19,0,.17-.05.25-.16.25-.1,0-.19-.01-.27-.04-.08-.02-.14-.08-.19-.17-.04.08-.09.13-.17.16-.07.03-.16.04-.25.04h-.23Z"/>
    <path class="cls-1" d="M29.11,18.75c-.05,0-.1,0-.12-.03-.03-.02-.04-.06-.04-.11,0-.03,0-.07.01-.11,0-.04.02-.08.03-.11.01-.04.03-.07.05-.09.02-.02.05-.04.08-.04h.14c.07,0,.12-.02.15-.05.03-.03.05-.09.05-.17v-2.03s.01-.04.04-.04h.5s.04.01.04.04v2.23c0,.18-.04.31-.11.39-.07.08-.2.13-.37.13h-.44Z"/>
    <path class="cls-1" d="M30.56,15.96h.49s.04.02.04.04v2.71s-.02.04-.04.04h-.49s-.04-.02-.04-.04v-2.71s.02-.04.04-.04Z"/>
    <path class="cls-1" d="M34.33,19.09c.08,0,.15,0,.21-.01.05,0,.1-.02.13-.04.03-.02.05-.04.06-.06.01-.02.02-.05.02-.07,0-.04-.01-.08-.04-.11-.03-.03-.07-.06-.13-.09-.06-.03-.14-.07-.24-.1-.1-.04-.22-.08-.35-.13-.02,0-.03-.02-.02-.05l.13-.41s.02-.04.05-.03c.09.03.17.07.25.1.08.03.15.06.23.09.07.03.15.05.22.06.07.02.15.02.23.02h.48c.11,0,.16.08.16.24,0,.09-.01.16-.04.19-.03.04-.07.06-.13.06h-.27s.03.05.05.1c.02.04.02.09.02.15,0,.17-.07.31-.21.43-.14.11-.36.17-.65.17h-.91c-.19,0-.36-.02-.5-.07-.14-.04-.26-.11-.35-.19-.09-.08-.16-.18-.2-.29-.04-.11-.07-.24-.07-.39,0-.15.03-.3.08-.45.05-.15.11-.27.18-.38.01-.02.03-.03.06-.01l.42.21s.03.03.01.05c-.05.08-.09.16-.12.25-.03.09-.05.18-.05.27,0,.1.02.17.06.24.04.06.08.11.14.15.06.04.12.06.2.07.07.01.14.02.22.02h.69Z"/>
    <path class="cls-1" d="M36.69,16.95c.14,0,.26.02.38.05.11.03.21.08.29.14.08.06.14.13.18.22.04.09.06.19.06.3,0,.13-.03.24-.09.35-.06.1-.14.19-.23.25.02,0,.04,0,.07,0h.49c.05,0,.1.02.12.05.03.03.04.1.04.19s-.01.16-.04.19c-.03.04-.07.06-.12.06h-.61c-.1,0-.19,0-.28-.01-.09,0-.17-.04-.25-.09-.09.05-.19.08-.29.09-.1,0-.19.01-.27.01h-.59c-.06,0-.1-.02-.12-.06-.03-.04-.04-.1-.04-.2,0-.09.01-.15.04-.19.03-.04.07-.06.12-.06h.56c-.09-.06-.17-.15-.23-.25-.06-.1-.09-.22-.09-.35,0-.11.02-.22.06-.3.04-.09.1-.16.18-.22.08-.06.17-.1.29-.14.11-.03.24-.05.38-.05M36.18,16.61s-.04-.01-.04-.04v-.4s.01-.04.04-.04h.41s.04.01.04.04v.4s-.01.04-.04.04h-.41ZM36.69,17.36c-.09,0-.17.03-.23.08-.07.05-.1.14-.1.26s.03.23.1.3c.07.08.14.13.24.18.09-.04.17-.1.24-.18.07-.08.1-.18.1-.3s-.03-.21-.1-.26c-.07-.05-.15-.08-.23-.08M36.81,16.61s-.04-.01-.04-.04v-.4s.01-.04.04-.04h.41s.04.01.04.04v.4s-.01.04-.04.04h-.41Z"/>
    <path class="cls-1" d="M38.3,17.06s.01-.04.04-.04h.49s.04.01.04.04v.97c0,.07.04.12.09.16.05.04.13.06.22.06h.09c.05,0,.1.02.12.06.03.04.04.1.04.19,0,.17-.05.25-.16.25s-.19-.01-.27-.04c-.08-.02-.14-.08-.19-.17-.04.09-.11.14-.19.17-.09.02-.2.04-.35.04h-.42c-.05,0-.1-.02-.12-.05-.03-.03-.04-.1-.04-.19s.01-.16.04-.2c.03-.04.07-.06.13-.06h.25c.09,0,.14-.03.16-.08.02-.05.03-.14.03-.26v-.85ZM38.06,16.61s-.04-.01-.04-.04v-.4s.01-.04.04-.04h.41s.04.01.04.04v.4s-.01.04-.04.04h-.41ZM38.69,16.61s-.04-.01-.04-.04v-.4s.01-.04.04-.04h.41s.04.01.04.04v.4s-.01.04-.04.04h-.41Z"/>
    <path class="cls-1" d="M39.28,18.75c-.05,0-.09-.02-.12-.05-.02-.03-.03-.09-.03-.18,0-.1.01-.16.03-.21.02-.04.06-.06.12-.06h.53c.05,0,.1.02.12.06.03.04.04.1.04.19,0,.1-.01.17-.04.2-.03.03-.07.05-.13.05h-.53Z"/>
    <path class="cls-1" d="M40.15,16s.01-.04.04-.04h.5s.04.01.04.04v2.03c0,.07.03.13.09.16.05.04.13.06.23.06h.09c.05,0,.1.02.12.06.03.04.04.1.04.19,0,.17-.06.25-.16.25s-.19-.01-.27-.04c-.08-.02-.14-.08-.19-.17-.04.08-.1.13-.18.16s-.18.04-.32.04h-.37c-.05,0-.1,0-.12-.03-.03-.02-.04-.06-.04-.11,0-.03,0-.07.01-.11,0-.04.02-.08.03-.11.01-.04.03-.07.05-.09.02-.02.05-.04.08-.04h.14s.08,0,.11-.02c.03-.02.05-.04.06-.07.01-.03.02-.07.02-.12,0-.05,0-.1,0-.16v-1.88Z"/>
    <path class="cls-1" d="M42.41,18.78c-.15,0-.28-.02-.4-.06-.12-.04-.22-.1-.31-.19-.03.05-.07.09-.12.12-.05.03-.1.05-.15.07-.05.02-.11.02-.16.03-.05,0-.1,0-.14,0-.05,0-.1-.02-.12-.05-.03-.04-.04-.1-.04-.19s.01-.16.04-.2c.02-.04.07-.06.13-.06h.12c.06,0,.12-.03.17-.08.05-.05.08-.15.08-.29v-.08c0-.27.08-.48.23-.63.16-.15.38-.22.67-.22s.5.08.66.23c.16.15.25.39.25.7,0,.02,0,.04,0,.06,0,.02,0,.04,0,.05,0,.09.03.16.08.2.05.04.11.06.18.06h.12c.05,0,.1.02.12.06.03.04.04.1.04.19,0,.17-.05.25-.16.25-.05,0-.1,0-.15,0-.05,0-.1-.01-.15-.03-.05-.02-.1-.04-.14-.07-.04-.03-.08-.07-.12-.13-.08.1-.19.17-.31.21-.12.04-.26.06-.41.06M42.41,17.45c-.22,0-.34.14-.34.41,0,.16.03.26.08.33.06.06.14.09.25.09s.2-.03.25-.09c.05-.06.08-.17.08-.33,0-.28-.11-.41-.34-.41"/>
    <path class="cls-1" d="M43.68,18.75c-.05,0-.1,0-.12-.03-.03-.02-.04-.06-.04-.11,0-.03,0-.07.01-.11,0-.04.02-.08.03-.11.01-.04.03-.07.05-.09.02-.02.05-.04.08-.04h.14c.07,0,.12-.02.15-.05.03-.03.05-.09.05-.17v-2.03s.01-.04.04-.04h.5s.04.01.04.04v2.23c0,.18-.04.31-.11.39-.07.08-.2.13-.37.13h-.44Z"/>
    <path class="cls-1" d="M45.14,15.96h.49s.04.02.04.04v2.71s-.02.04-.04.04h-.49s-.04-.02-.04-.04v-2.71s.02-.04.04-.04Z"/>
  </g>
  <g>
    <path class="cls-1" d="M.87,27.71H.1v-.51h2.09v.51h-.77v2.01h-.55v-2.01Z"/>
    <path class="cls-1" d="M2.62,27.2h.55v1h1.02v-1h.55v2.52h-.55v-1.01h-1.02v1.01h-.55v-2.52Z"/>
    <path class="cls-1" d="M5.35,27.2h1.9v.49h-1.35v.51h1.19v.49h-1.19v.53h1.37v.49h-1.92v-2.52Z"/>
    <path class="cls-1" d="M8.67,29.35l.33-.39c.23.19.46.31.75.31.23,0,.36-.09.36-.24h0c0-.15-.09-.22-.51-.33-.51-.13-.84-.27-.84-.77h0c0-.46.37-.77.88-.77.37,0,.68.12.94.32l-.29.42c-.22-.15-.44-.25-.66-.25s-.32.1-.32.22h0c0,.17.11.23.54.34.51.13.8.32.8.76h0c0,.51-.38.79-.93.79-.38,0-.77-.13-1.07-.4Z"/>
    <path class="cls-1" d="M11.96,27.18h.51l1.08,2.54h-.58l-.23-.57h-1.07l-.23.57h-.57l1.08-2.54ZM12.54,28.66l-.33-.82-.33.82h.67Z"/>
    <path class="cls-1" d="M13.81,28.64v-1.44h.55v1.43c0,.41.21.62.54.62s.54-.21.54-.61v-1.44h.55v1.42c0,.76-.43,1.14-1.11,1.14s-1.09-.38-1.09-1.12Z"/>
    <path class="cls-1" d="M16.57,27.2h.98c.79,0,1.34.54,1.34,1.25h0c0,.72-.55,1.27-1.34,1.27h-.98v-2.52ZM17.56,29.22c.45,0,.76-.31.76-.75h0c0-.45-.31-.77-.76-.77h-.43v1.52h.43Z"/>
    <path class="cls-1" d="M19.42,27.2h.55v2.52h-.55v-2.52Z"/>
    <path class="cls-1" d="M21.68,27.2h.6l.66,1.07.66-1.07h.6v2.52h-.55v-1.65l-.71,1.08h-.01l-.7-1.07v1.63h-.54v-2.52Z"/>
    <path class="cls-1" d="M24.83,27.2h.55v2.52h-.55v-2.52Z"/>
    <path class="cls-1" d="M25.9,28.47h0c0-.72.54-1.31,1.31-1.31.48,0,.76.16.99.39l-.35.41c-.19-.18-.39-.28-.64-.28-.42,0-.73.35-.73.78h0c0,.44.3.8.73.8.29,0,.46-.12.66-.3l.35.36c-.26.28-.55.45-1.03.45-.74,0-1.29-.57-1.29-1.3Z"/>
    <path class="cls-1" d="M28.67,27.2h1.9v.49h-1.35v.51h1.19v.49h-1.19v.53h1.37v.49h-1.92v-2.52Z"/>
    <path class="cls-1" d="M32.17,27.2h1.92v.5h-1.36v.54h1.2v.5h-1.2v.98h-.55v-2.52Z"/>
    <path class="cls-1" d="M34.42,28.47h0c0-.72.57-1.31,1.34-1.31s1.34.58,1.34,1.3h0c0,.72-.57,1.31-1.34,1.31s-1.34-.58-1.34-1.3ZM36.52,28.47h0c0-.44-.32-.8-.76-.8s-.76.35-.76.78h0c0,.44.32.8.76.8s.76-.35.76-.78Z"/>
    <path class="cls-1" d="M37.59,27.2h1.15c.32,0,.57.09.73.26.14.14.22.34.22.58h0c0,.41-.22.67-.54.79l.62.9h-.65l-.54-.81h-.44v.81h-.55v-2.52ZM38.71,28.42c.27,0,.42-.14.42-.36h0c0-.24-.17-.37-.44-.37h-.55v.72h.56Z"/>
    <path class="cls-1" d="M40.15,28.64v-1.44h.55v1.43c0,.41.21.62.54.62s.54-.21.54-.61v-1.44h.55v1.42c0,.76-.43,1.14-1.11,1.14s-1.09-.38-1.09-1.12Z"/>
    <path class="cls-1" d="M42.92,27.2h.6l.66,1.07.66-1.07h.6v2.52h-.55v-1.65l-.71,1.08h-.01l-.7-1.07v1.63h-.54v-2.52Z"/>
  </g>
  <rect class="cls-1" y="25.36" width="45.74" height=".51"/>
</svg>