<?xml version="1.0" encoding="UTF-8"?>
<svg id="Layer_1" data-name="Layer 1" xmlns="http://www.w3.org/2000/svg" viewBox="0 0 90 45">
  <defs>
    <style>
      .cls-1 {
        fill: #fff;
      }
    </style>
  </defs>
  <g>
    <path class="cls-1" d="M21.11,13.7h2.22l3.22,6.36,3.18-6.36h2.18v9.31h-2.28v-6.07l-3.05,6.07h-.88l-3.15-6.14v6.14h-1.45v-9.31ZM34.3,13.7h2.28v9.31h-2.28v-9.31ZM38.96,13.7h3.38c.87,0,1.67.1,2.4.3.73.2,1.35.5,1.88.89.52.39.93.87,1.22,1.44.29.57.44,1.21.44,1.94,0,.65-.12,1.27-.37,1.84s-.61,1.08-1.08,1.5c-.47.43-1.06.76-1.75,1.01-.7.25-1.49.37-2.38.37h-3.75v-9.31ZM41.25,22.06h1.21c.45,0,.87-.08,1.27-.25.4-.17.74-.41,1.04-.73.3-.32.53-.72.7-1.18.17-.47.26-1,.26-1.61,0-.52-.08-1.01-.24-1.45-.16-.45-.39-.83-.68-1.16-.29-.33-.64-.58-1.04-.77-.4-.18-.84-.28-1.31-.28h-1.21v7.42Z"/>
    <path class="cls-1" d="M50.17,13.7h4c.54,0,1.03.06,1.48.17.45.12.83.28,1.15.49.32.21.57.46.75.75.18.29.27.62.27.97,0,.22-.02.43-.07.61-.05.18-.13.36-.24.52-.11.16-.26.32-.44.48-.18.15-.4.31-.67.46.27.09.53.2.76.35.23.15.43.32.6.51.17.19.3.41.39.64.09.23.14.48.14.75,0,.37-.08.71-.25,1.02-.17.31-.41.59-.71.83-.31.24-.68.42-1.11.56-.43.13-.91.2-1.44.2h-4.59v-9.31ZM52.46,17.74h1.5c.24,0,.46-.04.65-.11.19-.07.35-.18.48-.32.13-.14.23-.3.3-.48.07-.18.1-.39.1-.61,0-.24-.04-.47-.13-.67-.09-.2-.22-.37-.4-.52-.18-.14-.4-.26-.68-.34-.27-.08-.6-.12-.98-.12h-.85v3.17ZM52.46,22.06h1.26c.37,0,.69-.04.96-.12.27-.08.49-.19.67-.33.18-.14.31-.31.39-.5.08-.19.13-.4.13-.64,0-.26-.04-.5-.12-.73-.08-.22-.2-.42-.38-.58-.17-.16-.4-.29-.69-.38-.29-.09-.64-.14-1.05-.14h-1.18v3.42ZM64.57,13.7l4.36,9.31h-2.34l-1.17-2.49h-3.61l-1.22,2.49h-1.55l4.54-9.31h.99ZM62.24,19.67h2.8l-1.38-2.95-1.42,2.95ZM70.07,13.7h1.47l5.31,5.92v-5.92h1.43v9.45h-.98l-5.77-6.54v6.4h-1.45v-9.31ZM80.56,13.7h2.3v3.5l4.13-3.5h1.77l-4.66,3.94,5.9,5.37h-2.76l-4.38-3.99v3.99h-2.3v-9.31Z"/>
  </g>
  <path class="cls-1" d="M0,13.7v16.47h17.89V13.7H0ZM2.48,17.63l4.67,4.33-4.67,4.26v-8.58ZM4.53,27.69l4.44-4.05,4.37,4.05H4.53ZM15.41,26.24l-10.86-10.06h10.86v10.06Z"/>
  <g>
    <polygon class="cls-1" points="55.62 29.17 55.64 26.19 54.42 25.91 54.42 28.62 50.99 28.62 51.56 29.57 55.05 29.57 55.62 29.17"/>
    <polygon class="cls-1" points="83.93 28.68 81.88 28.68 82.45 29.63 83.93 29.63 83.93 28.68"/>
    <polygon class="cls-1" points="51.47 28.36 51.49 26.19 50.27 25.91 50.27 28.62 28.67 28.62 29.24 29.57 50.9 29.57 51.47 28.36"/>
  </g>
  <path class="cls-1" d="M89.88,27.67c-.1-.34-.22-.61-.36-.82s-.31-.41-.49-.58l-.36-.34c-.37-.34-.79-.48-1.26-.42-.11.02-.23.06-.35.11-.17.07-.3.17-.4.3-.1.13-.17.27-.22.43-.05.16-.08.32-.1.48-.05.37-.08.84-.21,1.19-.11.31-.23.66-.9.66-.07,0,.81,0-2.35,0v.95h2.42c.23,0,1.48.05,1.76-1.03.23.27.43.5.6.69.17.18.33.32.48.42.15.1.3.16.45.18.15.02.31,0,.5-.04.16-.04.31-.12.45-.23.14-.11.25-.26.32-.44.08-.18.12-.4.13-.65,0-.25-.03-.54-.12-.86ZM88.86,28.29c-.05.11-.11.19-.18.27-.08.07-.16.12-.25.15-.07.03-.14.05-.21.04-.15,0-.29-.05-.45-.16-.15-.11-.32-.25-.5-.42.03-.14.04-.28.05-.43,0-.15.03-.29.07-.43.03-.14.09-.26.16-.37.07-.11.19-.2.36-.26.05-.02.09-.03.13-.04.04,0,.08-.01.13-.02.15,0,.28.03.38.1.1.07.18.2.25.38.04.09.07.19.08.29.05.19.06.36.06.51,0,.15-.04.28-.08.38Z"/>
  <path class="cls-1" d="M62.69,28.62c-.2,0-.35-.04-.42-.13-.08-.08-.12-.23-.12-.42v-.75c0-.2-.03-.91-.11-1.06-.07-.15-.17-.27-.28-.37-.12-.09-.26-.17-.41-.22-.16-.05-.33-.07-.51-.07-.26,0-.5.03-.73.11-.23.07-.43.15-.61.22-.03.02-.07.04-.11.06-.03.21-.06.41-.09.62.13-.06.26-.11.4-.15.18-.05.36-.08.55-.08.21,0,.39.04.55.14.16.09.25.25.28.46,0,.04,0,.08,0,.12h0v1.42c0,.19.1.47.1.47.06.19.18.33.32.41.15.08.34.12.57.12h.36l.29-.74-.02-.17Z"/>
  <path class="cls-1" d="M61.78,28.61v.95h-3.75l.32-1.15.38.2h3.05Z"/>
  <path class="cls-1" d="M29.03,27.58c-.14-.2-.33-.37-.57-.5l-.61-.31c-.21-.11-.45-.2-.73-.25-.02,0-.05-.01-.07-.02-.28-.06-.56-.08-.84-.1-.38-.04-2.49-.07-2.94-.06l-.09.75c.45,0,3.01,0,3.01,0,.27,0,.53.02.78.04.25.02.47.08.68.17.09.08.15.17.2.27.05.1.07.22.07.36,0,.26-.1.47-.31.62-.19.13-.35.13-.68.13.02.08,0,.24-.07.29-.04.03-.08.07-.11.1-.05.06-.08.14-.11.21.02.01.04.02.06.03l.13.08c.28.15.58.23.89.23.21,0,.4-.03.59-.09.19-.06.35-.15.49-.26.14-.11.25-.25.33-.41.08-.16.12-.34.12-.55,0-.29-.07-.54-.2-.75Z"/>
  <polygon class="cls-1" points="22.03 29.62 27.69 29.62 27.02 28.67 21.11 28.67 22.03 29.62"/>
  <rect class="cls-1" x="81.09" y="30.13" width=".97" height=".97" transform="translate(2.24 66.65) rotate(-45)"/>
  <rect class="cls-1" x="79.59" y="30.13" width=".97" height=".97" transform="translate(1.8 65.59) rotate(-45)"/>
  <path class="cls-1" d="M27.24,24.2l.76.96-4.29,1.83c-.61.25-1.33,0-1.6-.56h0l5.13-2.22Z"/>
  <rect class="cls-1" x="50.51" y="24.59" width=".97" height=".97" transform="translate(-2.8 43.4) rotate(-45)"/>
  <rect class="cls-1" x="54.54" y="29.9" width=".97" height=".97" transform="translate(-5.37 47.81) rotate(-45)"/>
  <polygon class="cls-1" points="82.36 28.36 82.38 26.18 81.16 25.91 81.16 28.62 59.56 28.62 60.13 29.57 81.79 29.57 82.36 28.36"/>
  <polygon class="cls-1" points="24.17 27.08 22.11 27.08 22.11 26.43 23.33 26.43 24.17 27.08"/>
</svg>