<?xml version="1.0" encoding="UTF-8"?>
<svg id="Layer_1" data-name="Layer 1" xmlns="http://www.w3.org/2000/svg" viewBox="0 0 90 45">
  <defs>
    <style>
      .cls-1 {
        fill: #fff;
      }
    </style>
  </defs>
  <g>
    <polygon class="cls-1" points="27.92 40.48 24.54 40.48 24.54 37.5 23.04 37.5 23.04 44.89 24.54 44.89 24.54 41.89 27.92 41.89 27.92 44.89 29.42 44.89 29.42 37.5 27.92 37.5 27.92 40.48"/>
    <path class="cls-1" d="M36.37,41.73c0,1.2-.6,1.84-1.68,1.84s-1.69-.66-1.69-1.89v-4.18h-1.5v4.23c0,2.08,1.16,3.27,3.17,3.27s3.2-1.21,3.2-3.33v-4.17h-1.5v4.23Z"/>
    <polygon class="cls-1" points="53.71 42.58 52.03 37.5 50.81 37.5 49.13 42.58 47.5 37.5 45.9 37.5 48.48 44.89 49.72 44.89 51.4 40.03 53.08 44.89 54.33 44.89 56.9 37.5 55.35 37.5 53.71 42.58"/>
    <polygon class="cls-1" points="59.59 41.71 62.32 41.71 62.32 40.36 59.59 40.36 59.59 38.85 63.55 38.85 63.55 37.5 58.11 37.5 58.11 44.88 63.69 44.88 63.69 43.54 59.59 43.54 59.59 41.71"/>
    <rect class="cls-1" x="65.48" y="37.5" width="1.48" height="7.38"/>
    <path class="cls-1" d="M44.22,43.35l.66,1.54h1.57l-3.23-7.35-.03-.04h-1.31l-3.26,7.39h1.53l.63-1.43.05-.11h3.38ZM42.53,39.37l1.07,2.47h0l.07.17h-2.27l.07-.17h0l1.06-2.47Z"/>
  </g>
  <path class="cls-1" d="M26.12,13.18c-.27-3.67,3.58-7.33,3.58-7.33,0,0,7.09,8.58,12.27,19.9h0c.04.1-.04.16-.04.16-.06.07-.15.04-.18.03-1.89-.94-10.04-5.08-13.4-8.36,0,0-2.09-1.64-2.23-4.42M26.94,29.07c1.47,2.62,3.95,4.66,6.53,4.03,1.78-.44,5.81-3.26,7.14-4.21h0c.1-.1.07-.17.07-.17-.03-.12-.17-.12-.17-.12h0s-13.56.47-13.56.47ZM23.7,22.99c1.47,3.11,4.28,4.05,4.28,4.05,1.3.53,2.59.57,2.59.57.2.04,8.06,0,10.17,0,.09,0,.14-.09.14-.09.07-.11-.05-.2-.05-.2h0c-5.95-4.02-17.5-10.19-17.5-10.19-1.05,3.25.37,5.86.37,5.86M39.6.41c-3.59.93-4.44,4.18-4.44,4.18-.65,2.05.02,4.3.02,4.3,1.2,5.32,7.09,14.05,8.36,15.89.09.09.16.06.16.06.14-.04.13-.17.13-.17h0c1.95-19.5-2.05-24.67-2.05-24.67-.59.05-2.18.41-2.18.41M46.16,24.69h0c.01.12.1.15.1.15.13.05.2-.08.2-.08h0c1.3-1.88,7.16-10.57,8.35-15.86,0,0,.65-2.56.02-4.3,0,0-.89-3.31-4.48-4.18,0,0-1.03-.26-2.13-.42,0,0-4.02,5.17-2.06,24.69M49.48,28.61s-.12.02-.15.1c0,0-.03.12.05.18h0c1.3.93,5.23,3.68,7.13,4.22,0,0,3.5,1.19,6.55-4.04l-13.57-.47h0ZM49.18,27.3h0s-.11.07-.07.2c0,0,.06.1.14.1h0c2.13,0,10.21.01,10.41-.02,0,0,1.04-.04,2.33-.54,0,0,2.87-.91,4.36-4.18,0,0,1.33-2.66.3-5.77,0,0-11.52,6.18-17.48,10.2M48.05,25.71h0s-.06.13.04.22c0,0,.09.07.18.01h0c1.94-.96,10.02-5.08,13.37-8.34,0,0,2.12-1.7,2.23-4.44.24-3.8-3.58-7.31-3.58-7.31,0,0-7.07,8.56-12.25,19.85"/>
</svg>