<?xml version="1.0" encoding="UTF-8"?>
<svg id="Layer_1" data-name="Layer 1" xmlns="http://www.w3.org/2000/svg" viewBox="0 0 90 45">
  <defs>
    <style>
      .cls-1 {
        fill: #fff;
      }
    </style>
  </defs>
  <path class="cls-1" d="M11.94,40.52h-6.29c-1.43,0-2.47-.94-2.47-2.14s1.04-2.15,2.47-2.15h6.29v4.3ZM15.11,40.53v-9.58c0-3.34-1.71-4.64-4.61-4.64H2.34v3.03h7.67c1.66,0,1.93.55,1.93,2.05v1.81h-5.65c-2.04.06-6.33.21-6.29,5.34.03,3.07,2.29,5.01,5.31,5.01h11.85s-2.06-.41-2.06-3.02M43.38,33.92l6.64-7.61h-3.98l-5.79,6.9h-1.18v-6.9h-5.22s2.03.5,2.03,3.05v14.19h3.19v-7.32h2.11l5.03,7.32h4.06l-6.9-9.63ZM27.99,40.53h-6.28v-4.31h6.28c1.43,0,2.48.93,2.48,2.17s-1.05,2.14-2.48,2.14M21.71,29.33h5.64c1.4,0,2.14.91,2.14,1.92s-.74,1.95-2.14,1.95h-5.64v-3.87ZM30.6,34.46c1.29-.58,2.09-1.94,2.09-3.53,0-3.08-2.32-4.62-4.97-4.62h-11.31s2.12.57,2.12,3.02v11.2c0,1.67.76,3.03,3.18,3.03h6.64c3.03,0,5.31-1.92,5.31-5,0-2.2-1.27-3.52-3.06-4.1"/>
  <path class="cls-1" d="M64.46,30l8.93-8.93-2.65-2.65-8.37,8.36c-1.94,1.94-3,2.99-3,4.9v8.6c0,2.2,1.08,3.27,3.3,3.27h8.57c.7,0,1.33-.17,1.92-.49l-3.26-3.27h-6.77v-7.49c0-.99.69-1.63,1.33-2.3M89.98,24.77v-8.6c0-2.2-1.08-3.27-3.31-3.27h-8.57c-.7,0-1.33.17-1.91.48l3.26,3.27h6.77v7.49c0,.99-.69,1.63-1.33,2.3l-8.94,8.93,2.65,2.65,8.37-8.36c1.94-1.94,3-2.99,3-4.9"/>
  <path class="cls-1" d="M81.83,26.93l2.65-2.65-8.36-8.36c-1.94-1.94-2.99-3-4.9-3h-8.6c-2.2,0-3.27,1.08-3.27,3.3v8.57c0,.7.17,1.33.49,1.92l3.27-3.26v-6.77h7.49c1,0,1.63.69,2.3,1.33l8.93,8.94ZM90,40.22v-8.57c0-.7-.17-1.32-.48-1.92l-3.27,3.26v6.77h-7.49c-.99,0-1.63-.69-2.3-1.33l-8.93-8.94-2.65,2.65,8.36,8.36c1.94,1.94,2.99,3,4.9,3h8.6c2.2,0,3.27-1.08,3.27-3.3"/>
  <path class="cls-1" d="M48.48,2.93v13.71c.7-.34,1.55-1.34,1.6-2.19V1.44l-1.6,1.48ZM31.52,17s2-1.39,2.37,1.69c0,0-2.33.29-2.37-1.69M39.76,17.05s1.02-1.9,1.01-2.51c-.05-2.47-2.36-3.85-4.7-3.9-1.76-.04-2.96.32-3.91.99-.94.93-2.65,3.36-2.65,3.36,0,0,2.7-1.73,5.28-1.86.57-.03,2.34-.11,3.31,1.12.39.49.76,1.22.6,2.01-.29,1.39-2.81,2.36-4.06,2.39.19-.26.65-.89.63-1.97-.01-.81-.63-2.01-1.69-2.04-1.88-.04-3.49,3.59-3.72,4.63h0c.1.46.46.88,1.06,1.26-1.75.7-3.6,1.21-6.56,1.11-2.8-.1-4.36-.78-6.13-2.31-2.22-1.92-3.22-6.08-3.29-9.57V1.57l-1.7,1.61v6.5c-1.59,1-3.29,2.19-3.86,2.62-.98.75-2.09,1.86-2.2,3.03-.19,1.96,1.39,1.98,2.17,3.27.64,1.05-2.13,3.17-4.22,3.13-5.81-.11-2.34-7.27-2.34-7.27,0,0-1.51,1.24-2.44,3.85-.76,2.14-.21,3.97.92,4.87,1.54,1.24,4.05,1.2,6.33.06,2.55-1.26,4.24-3.22,4.25-4.63.01-1.66-1.03-2.26-2.06-3.15-.41-.35-.55-.66-.13-1.24.46-.64,2.82-1.99,3.59-2.4.2,6.6,4.25,13.02,12.14,12.11,3.67-.42,6.18-1.72,7.31-2.6,3,0,5.83-1.72,7.04-4.27M47.12,4.21l-1.68,1.57.02,11.65c0,1.56-.47,3.19-2.36,4.01-1.76.76-4.41.49-5.59-.27.06.42,1.69,3.66,6,2.39,3.77-1.11,3.62-5.24,3.62-6.51,0-.04,0-12.85,0-12.85M37.49,21.17s0,0,.01,0c0,0,0-.01,0-.01h0ZM13.36,22.45l-1.39-1.39-1.57,1.57,1.57,1.57,1.39-1.39,1.39,1.39,1.57-1.57-1.57-1.57-1.39,1.39ZM42.41,20.13c.7-.35,1.55-1.35,1.6-2.19V7.13l-1.6,1.49v11.51ZM41.49,6.87l-.61.57v1.34l3.13-2.94v-1.34l-1.37,1.28c-.14.13-.33.2-.54.2-.45,0-.82-.37-.82-.82s.37-.82.82-.82c.21,0,.4.08.55.21l.75-.66c-.33-.34-.79-.55-1.3-.55-1,0-1.82.81-1.82,1.82,0,.78.5,1.45,1.2,1.71"/>
</svg>