<?xml version="1.0" encoding="UTF-8"?>
<svg id="Layer_1" data-name="Layer 1" xmlns="http://www.w3.org/2000/svg" viewBox="0 0 90 45">
  <defs>
    <style>
      .cls-1, .cls-2 {
        fill: #fff;
      }

      .cls-2 {
        fill-rule: evenodd;
      }
    </style>
  </defs>
  <polygon class="cls-1" points="56.8 30.61 56 30.61 56.46 28.85 57.36 28.85 56.8 30.61"/>
  <g>
    <path class="cls-1" d="M0,28.96h1.65c.92,0,1.68.29,1.68,1.35s-.71,1.36-1.64,1.36h-.71v1.73h-.98v-4.43ZM.98,30.84h.65c.34,0,.69-.12.69-.53,0-.46-.46-.52-.84-.52h-.5v1.05Z"/>
    <path class="cls-1" d="M4.15,28.96h1.71c.91,0,1.67.31,1.67,1.35,0,.62-.33,1.1-.96,1.21l1.13,1.87h-1.17l-.93-1.77h-.48v1.77h-.98v-4.43ZM5.12,30.8h.58c.36,0,.82-.01.82-.49,0-.44-.4-.51-.76-.51h-.64v1.01Z"/>
    <path class="cls-1" d="M10.69,28.74c1.38,0,2.39.91,2.39,2.33s-1.01,2.33-2.39,2.33-2.39-.91-2.39-2.33,1.01-2.33,2.39-2.33M10.69,32.49c.83,0,1.38-.6,1.38-1.43s-.54-1.43-1.38-1.43-1.38.6-1.38,1.43.54,1.43,1.38,1.43"/>
    <polygon class="cls-1" points="14.7 29.83 13.43 29.83 13.43 28.96 16.94 28.96 16.94 29.83 15.67 29.83 15.67 33.39 14.7 33.39 14.7 29.83"/>
    <polygon class="cls-1" points="17.78 28.96 20.79 28.96 20.79 29.86 18.76 29.86 18.76 30.69 20.68 30.69 20.68 31.59 18.76 31.59 18.76 32.49 20.9 32.49 20.9 33.39 17.78 33.39 17.78 28.96"/>
    <path class="cls-1" d="M24.91,30c-.19-.23-.48-.36-.84-.36-.74,0-1.28.6-1.28,1.43s.54,1.43,1.25,1.43c.39,0,.71-.17.91-.48l.81.61c-.37.53-.99.77-1.6.77-1.38,0-2.39-.91-2.39-2.33s1.01-2.33,2.39-2.33c.49,0,1.12.17,1.5.65l-.75.61Z"/>
    <polygon class="cls-1" points="27.45 29.83 26.18 29.83 26.18 28.96 29.69 28.96 29.69 29.83 28.42 29.83 28.42 33.39 27.45 33.39 27.45 29.83"/>
    <path class="cls-1" d="M32.72,29.93c-.16-.2-.47-.29-.71-.29-.28,0-.66.13-.66.46,0,.81,2.04.29,2.04,1.84,0,.99-.79,1.46-1.71,1.46-.57,0-1.07-.17-1.49-.56l.69-.76c.2.26.53.42.85.42s.68-.15.68-.46c0-.81-2.08-.38-2.08-1.85,0-.94.82-1.44,1.69-1.44.5,0,.98.13,1.36.46l-.67.73Z"/>
    <polygon class="cls-1" points="36.14 28.96 37.21 28.96 37.91 31.8 37.93 31.8 38.85 28.96 39.76 28.96 40.68 31.88 40.69 31.88 41.44 28.96 42.42 28.96 41.13 33.39 40.26 33.39 39.28 30.33 39.27 30.33 38.3 33.39 37.46 33.39 36.14 28.96"/>
    <polygon class="cls-1" points="43.08 28.96 44.06 28.96 44.06 30.61 45.95 30.61 45.95 28.96 46.93 28.96 46.93 33.39 45.95 33.39 45.95 31.48 44.06 31.48 44.06 33.39 43.08 33.39 43.08 28.96"/>
    <path class="cls-1" d="M49.49,28.96h.81l1.93,4.43h-1.1l-.38-.94h-1.72l-.37.94h-1.08l1.91-4.43ZM49.87,30.25l-.54,1.38h1.08l-.54-1.38Z"/>
    <polygon class="cls-1" points="53.24 29.83 51.97 29.83 51.97 28.96 55.48 28.96 55.48 29.83 54.21 29.83 54.21 33.39 53.24 33.39 53.24 29.83"/>
    <path class="cls-1" d="M60.24,29.93c-.16-.2-.47-.29-.71-.29-.28,0-.66.13-.66.46,0,.81,2.04.29,2.04,1.84,0,.99-.79,1.46-1.71,1.46-.57,0-1.07-.17-1.49-.56l.69-.76c.2.26.53.42.85.42s.68-.15.68-.46c0-.81-2.08-.38-2.08-1.85,0-.94.82-1.44,1.69-1.44.5,0,.98.13,1.36.46l-.67.73Z"/>
    <path class="cls-1" d="M68.07,32.97c-.58.3-1.21.43-1.86.43-1.38,0-2.39-.91-2.39-2.33s1.01-2.33,2.39-2.33c.7,0,1.32.16,1.76.57l-.69.75c-.26-.28-.58-.42-1.08-.42-.83,0-1.38.6-1.38,1.43s.54,1.43,1.38,1.43c.43,0,.74-.12.92-.22v-.72h-.79v-.9h1.73v2.31Z"/>
    <path class="cls-1" d="M71.12,28.74c1.38,0,2.39.91,2.39,2.33s-1.01,2.33-2.39,2.33-2.39-.91-2.39-2.33,1.01-2.33,2.39-2.33M71.12,32.49c.83,0,1.38-.6,1.38-1.43s-.54-1.43-1.38-1.43-1.38.6-1.38,1.43.54,1.43,1.38,1.43"/>
    <path class="cls-1" d="M76.46,28.74c1.38,0,2.39.91,2.39,2.33s-1.01,2.33-2.39,2.33-2.39-.91-2.39-2.33,1.01-2.33,2.39-2.33M76.46,32.49c.83,0,1.38-.6,1.38-1.43s-.54-1.43-1.38-1.43-1.38.6-1.38,1.43.54,1.43,1.38,1.43"/>
    <path class="cls-1" d="M79.49,28.96h1.46c1.43,0,2.62.61,2.62,2.23,0,1.43-1.17,2.2-2.49,2.2h-1.6v-4.43ZM80.46,32.49h.51c.91,0,1.59-.34,1.59-1.35,0-.87-.69-1.28-1.52-1.28h-.58v2.63Z"/>
  </g>
  <polygon class="cls-1" points="75.74 24.39 77.95 24.39 77.95 21.73 78.8 20.87 81 24.39 83.67 24.39 80.38 19.46 83.32 16.41 80.72 16.41 77.95 19.37 77.95 13.33 75.73 13.33 75.74 24.39"/>
  <path class="cls-2" d="M61,24.39v-3.82h1.25c2.68.05,4.8-.71,4.8-3.66,0-2.4-1.87-3.68-4.55-3.58h-3.84v11.07h2.35M62.6,15.23c1.33-.06,2.15.47,2.17,1.7.02,1.23-.91,1.75-2.11,1.71h-1.65v-3.41h1.6Z"/>
  <path class="cls-2" d="M69.4,18.91s-.14-1.22,1.58-1.2c.71.02,1.36.37,1.32.99-.04.46-.42.58-1.2.7-1.26.16-2.15.36-2.75.65-.77.39-1.44,1.18-1.37,2.18.1,1.53,1.68,2.42,3.22,2.36,1.79-.08,2.14-1.16,2.14-1.16.01.18.02.18.06.43.04.36.12.52.12.52h2.26c-.12-.11-.18-.15-.25-.29-.08-.18-.1-.35-.1-.53v-4.58c0-2.25-1.8-2.81-3.57-2.84-3.33-.05-3.33,2.33-3.41,2.71l1.94.06M70.7,22.99c-.67.06-1.54-.12-1.57-.98-.03-.82,1.14-1.06,1.73-1.18.47-.1.91-.22,1.25-.35.18-.08.24-.15.24-.15v1.1c-.05.83-.6,1.45-1.64,1.55"/>
  <polygon class="cls-1" points="26.31 24.39 26.31 15.29 29.68 15.29 29.68 13.31 20.63 13.31 20.63 15.29 23.96 15.29 23.96 24.39 26.31 24.39"/>
  <path class="cls-2" d="M27.99,20.64c.14,2.96,2.65,4.07,4.14,4.03,3.23-.1,3.86-2.65,3.86-2.65l-2.26-.13s-.36,1.02-1.61,1.01c-1.9,0-1.95-1.89-1.95-1.89h5.91s.22-4.76-4.16-4.83c-2.48-.03-4.05,2.05-3.93,4.46M33.75,19.45h-3.52s.15-1.53,1.73-1.53c1.56-.01,1.79,1.53,1.79,1.53"/>
  <path class="cls-1" d="M42.29,24.39h2.2v-3.63c0-1.01.2-1.93,1.1-2.38.47-.24.85-.26,1.37-.19v-1.89c-.08-.05-.33-.07-.58-.08-.71-.04-1.39.37-1.79,1.1-.04.06-.06.11-.13.27l-.08-1.14h-2.1v7.94Z"/>
  <path class="cls-1" d="M36.23,17.95h1.1v4.07c0,.66.06,1.49.69,1.96.64.46,1.5.41,2.31.4h.68v-1.63s-.51,0-.51,0c-.36,0-.57-.02-.75-.16-.27-.21-.25-.57-.25-.76v-3.88h1.46v-1.51h-1.46v-2.52h-2.17s0,2.5,0,2.5h-1.1v1.52Z"/>
  <path class="cls-2" d="M49.39,18.9s-.14-1.23,1.58-1.2c.71.02,1.36.36,1.32,1-.03.45-.41.58-1.19.69-1.27.16-2.16.36-2.77.66-.78.38-1.43,1.19-1.38,2.18.1,1.53,1.68,2.42,3.23,2.36,1.8-.08,2.13-1.16,2.13-1.16.03.18.03.18.06.43.05.36.13.52.13.52h2.27c-.13-.11-.18-.15-.25-.29-.08-.19-.1-.35-.1-.53v-4.58c0-2.25-1.8-2.82-3.58-2.85-3.33-.05-3.33,2.33-3.4,2.72l1.94.05M50.69,22.98c-.67.07-1.54-.12-1.58-.97-.03-.82,1.14-1.06,1.73-1.18.48-.1.93-.22,1.25-.36.19-.07.23-.14.23-.14v1.11c-.04.83-.59,1.44-1.63,1.55"/>
  <polygon class="cls-1" points="13.25 20.88 15.82 17.68 13.18 17.68 11.92 19.26 13.25 20.88"/>
  <path class="cls-1" d="M8.47,19.28c.51,0,.95.23,1.27.6.11.14.15.18.24.29.3.39.41.53.59.76-.18.22-.28.37-.59.76-.09.11-.13.15-.24.29-.32.38-.76.6-1.27.6-.91,0-1.64-.74-1.64-1.65,0-.91.73-1.65,1.64-1.65"/>
  <path class="cls-1" d="M7.2,24.35c-.32-.08-.62-.25-.72-.32-1.04-.65-1.72-1.78-1.72-3.12,0-2.05,1.66-3.71,3.71-3.71,1.01,0,2.02.39,2.82,1.33l.05.05.03-.03-4.01-6.94L0,24.39h7.2v-.03Z"/>
  <path class="cls-1" d="M9.81,24.35v.03h4.94v-.04s-.07-.01-.15-.02c-.33-.04-.59-.13-.78-.21-.75-.31-1.37-.91-1.9-1.54,0,0-.4.52-.75.9-.52.57-1.09.81-1.36.88"/>
  <path class="cls-1" d="M87.25,11.61c1.51,0,2.75,1.23,2.75,2.75s-1.23,2.75-2.75,2.75-2.75-1.23-2.75-2.75,1.23-2.75,2.75-2.75ZM87.25,16.62c1.25,0,2.26-1.01,2.26-2.26s-1.01-2.26-2.26-2.26-2.26,1.01-2.26,2.26,1.01,2.26,2.26,2.26ZM86.2,12.77h1.21c.75,0,1.11.34,1.11.95,0,.55-.33.81-.75.87l.82,1.33h-.61l-.78-1.29h-.42v1.29h-.58v-3.14ZM86.77,14.13h.42c.36,0,.75-.02.75-.44s-.39-.44-.75-.44h-.42v.88Z"/>
</svg>