<?xml version="1.0" encoding="UTF-8"?>
<svg id="Layer_1" data-name="Layer 1" xmlns="http://www.w3.org/2000/svg" viewBox="0 0 90 45">
  <defs>
    <style>
      .cls-1 {
        fill: #fff;
      }
    </style>
  </defs>
  <path class="cls-1" d="M29.97,42.47c0,.29.01.57,0,.86-.02.27-.08.54-.31.72-.06.05-.13.1-.21.13-.32.11-.65.12-.98.04-.43-.1-.67-.4-.68-.88-.02-.59,0-1.19-.01-1.79,0-.09.04-.12.12-.11.11,0,.22,0,.32,0,.12,0,.16.05.15.16,0,.52,0,1.04,0,1.56,0,.11.01.24.06.34.13.26.34.27.64.22.19-.03.3-.2.3-.44,0-.54,0-1.08,0-1.62,0-.2.01-.22.21-.22q.39,0,.39.39v.64h0Z"/>
  <path class="cls-1" d="M36.93,43.31c-.18,0-.37,0-.55,0-.09,0-.12.04-.1.12.04.17.13.3.31.34.17.04.32,0,.44-.14.03-.04.1-.07.15-.08.06-.01.13,0,.2,0,.24,0,.27.06.14.26-.07.11-.16.21-.27.28-.38.26-1.01.19-1.3-.16-.24-.29-.28-.65-.22-1.01.05-.33.19-.6.51-.74.52-.23,1.28-.06,1.37.75.04.39.04.39-.34.39h-.34ZM36.66,42.96h0c.1,0,.19,0,.29,0,.1,0,.12-.05.1-.14-.05-.18-.21-.3-.41-.28-.17.01-.34.16-.35.32,0,.03.05.09.08.09.1.01.2,0,.3,0"/>
  <path class="cls-1" d="M46.76,43.18c-.02-.67.44-1.09,1-1.09.67,0,1.04.42,1.06,1.03.02.7-.38,1.11-1.02,1.13-.62.02-1.06-.43-1.04-1.07M48.27,43.16c-.01-.09-.02-.18-.04-.27-.05-.19-.22-.32-.41-.34-.22-.01-.39.08-.45.29-.04.17-.05.36-.03.54.02.28.29.45.56.38.24-.06.36-.27.36-.6"/>
  <path class="cls-1" d="M39.73,44.16c-.24-.07-.38-.25-.44-.48-.03-.1,0-.16.11-.15.08,0,.16,0,.24,0,.11,0,.18.01.23.14.08.2.52.24.66.07.07-.09.02-.2-.12-.24-.16-.05-.32-.08-.49-.13-.07-.02-.14-.05-.22-.07-.5-.14-.42-.79-.13-1.01.42-.32,1.21-.18,1.41.19.03.06.05.12.07.18.02.09-.02.14-.11.13-.08,0-.15,0-.23,0-.1,0-.16,0-.22-.12-.08-.15-.44-.19-.56-.07-.07.07-.06.17.06.22.18.06.36.1.54.16.12.04.25.08.36.15.26.16.3.6.1.83-.27.4-1.13.25-1.28.21"/>
  <path class="cls-1" d="M44.61,43.49c.05-.15.1-.3.14-.45.07-.25.14-.51.21-.76.02-.1.07-.14.17-.13.14,0,.27,0,.44,0-.05.17-.09.31-.14.44-.2.58-.4,1.15-.6,1.73-.05.15-.12.3-.19.45-.12.23-.34.23-.56.24-.07,0-.2-.02-.2-.05-.02-.11-.01-.23,0-.34,0-.02.07-.04.12-.04.24-.02.36-.19.28-.41-.18-.52-.38-1.04-.56-1.56-.04-.1-.07-.21-.1-.32-.03-.09,0-.12.09-.12.12,0,.24-.01.35,0,.05,0,.12.06.13.1.12.38.24.77.35,1.15,0,.03.02.06.04.09.01,0,.02,0,.04,0"/>
  <path class="cls-1" d="M30.99,42.3c.17-.07.33-.16.5-.2.42-.09.77.21.78.64,0,.44,0,.88,0,1.31,0,.1-.03.14-.14.15-.4.02-.4.03-.4-.37,0-.29,0-.57,0-.86,0-.28-.08-.4-.29-.41-.25,0-.42.16-.42.42,0,.34,0,.68,0,1.02,0,.15-.05.2-.19.19-.43,0-.36.03-.36-.35,0-.52,0-1.04,0-1.56,0-.09.03-.15.13-.14.06,0,.12,0,.18,0,.13-.01.24,0,.23.15"/>
  <path class="cls-1" d="M55.23,42.32s.02.02.03.03c.1.2.1.42.1.64,0,.22,0,.45,0,.67,0,.16.03.32.05.52-.13,0-.29.01-.45,0-.05,0-.08-.1-.11-.14-.19.07-.15.2-.73.2-.41,0-.62-.45-.46-.85.11-.28.35-.35.61-.38.16-.02.31-.05.46-.09.13-.04.16-.2.05-.28-.06-.04-.29-.07-.33-.07-.12,0-.2.06-.26.17-.02.04-.08.08-.13.09-.08.01-.17,0-.26,0-.11,0-.13-.04-.12-.14.04-.23.16-.41.39-.49.41-.15.8-.12,1.17.13M54.81,43.23c-.17.04-.34.07-.49.12-.16.05-.22.19-.18.33.04.14.14.19.31.17.3-.05.44-.26.36-.62"/>
  <path class="cls-1" d="M52.05,43.06c0-.33,0-.65,0-.98,0-.1-.03-.15-.14-.14-.18,0-.37,0-.55,0-.09,0-.13-.04-.13-.13v-.03c0-.42-.06-.35.34-.35.57,0,1.13,0,1.7,0,.15,0,.18.05.18.18-.01.36.06.33-.32.33-.1,0-.19,0-.29,0q-.21,0-.21.21c0,.61,0,1.22,0,1.83,0,.21,0,.21-.2.21q-.36,0-.36-.36c0-.26,0-.52,0-.78h0Z"/>
  <path class="cls-1" d="M34.62,43.52c.12-.42.25-.84.36-1.26.03-.1.07-.13.17-.13.14,0,.28,0,.44,0-.09.26-.17.49-.25.71-.14.41-.29.81-.43,1.22-.03.09-.08.13-.17.13-.42,0-.42,0-.56-.39-.18-.49-.36-.97-.53-1.46-.07-.2-.07-.21.14-.21.39,0,.39,0,.5.37.08.27.15.55.23.82.02.07.04.13.06.2h.04Z"/>
  <path class="cls-1" d="M49.78,42.55c0,.49,0,.95,0,1.42,0,.24,0,.24-.23.24-.35,0-.31.01-.31-.31,0-.4,0-.79,0-1.19,0-.11-.03-.16-.14-.15-.16.02-.15-.11-.14-.2,0-.1-.02-.22.15-.2.11.01.14-.04.14-.15-.01-.55.39-.64.78-.6.15.02.1.22.11.34.03.08-.04.14-.14.12-.05,0-.12,0-.14.03-.04.05-.05.12-.05.17,0,.02.07.06.11.06.21.02.29.13.22.33-.01.03-.07.06-.11.07-.07.01-.14,0-.23,0"/>
  <path class="cls-1" d="M43.15,42.56c0,.38,0,.74,0,1.11,0,.04.09.11.14.11.14,0,.17.07.16.19,0,.04,0,.07,0,.11,0,.1-.03.14-.13.14-.1,0-.2,0-.31,0-.29-.01-.43-.16-.44-.46,0-.35,0-.7,0-1.05,0-.11-.03-.18-.15-.15-.09.02-.11-.04-.12-.11-.02-.22,0-.23.19-.29.03,0,.06-.05.08-.08.01-.02,0-.06,0-.09,0-.37.11-.45.49-.36.03,0,.07.07.08.11,0,.1,0,.19,0,.29,0,.1.03.14.14.15.06,0,.17.04.17.07.02.1,0,.2-.02.3,0,.01-.06.02-.1.02-.06,0-.12,0-.19.01"/>
  <path class="cls-1" d="M32.77,43.16c0-.29,0-.58,0-.87,0-.11.03-.15.15-.15.44.01.41-.07.41.4s0,.97,0,1.45c0,.14-.04.2-.19.2-.37,0-.37,0-.37-.37v-.66Z"/>
  <path class="cls-1" d="M42.05,43.16c0,.29,0,.59,0,.88,0,.09-.02.14-.13.14-.11,0-.21.01-.32,0-.04,0-.1-.08-.1-.12,0-.59,0-1.19,0-1.78,0-.1.04-.14.14-.15.4,0,.4-.01.4.38,0,.21,0,.43,0,.64h0Z"/>
  <path class="cls-1" d="M33.03,41.94c-.28,0-.26.04-.26-.26,0-.05,0-.09,0-.14,0-.1.03-.15.13-.14.03,0,.06,0,.09,0,.38,0,.33-.05.34.34,0,.15-.04.21-.19.19-.04,0-.07,0-.11,0"/>
  <path class="cls-1" d="M41.77,41.94s-.05,0-.08,0c-.14.02-.2-.03-.19-.18.01-.41-.05-.34.36-.35.19,0,.19,0,.19.19,0,.02,0,.03,0,.05q.01.3-.28.3"/>
  <path class="cls-1" d="M61.54,42.91s.66-.73.67-.75c-.03-.02-.07-.05-.1-.05-.16,0-.32,0-.47,0-.04,0-.6.57-.72.67,0-.02,0-1.38,0-1.38,0,0-.3,0-.41,0-.13,0-.18.05-.18.18,0,.25,0,2.17,0,2.51,0,.08.03.12.12.12.13,0,.34,0,.47,0,0,0,0-.64.02-.67.06-.05.13-.1.18-.14.07.08.37.6.46.77.01.02.05.03.08.03.16,0,.32,0,.49,0,.03,0,.08-.04.08-.07.02-.09-.57-1.04-.68-1.23"/>
  <path class="cls-1" d="M59.93,42.49q0-.38-.38-.38-.22,0-.19.22s-.06,1.2-.15,1.37c-.16.07-.33.11-.5,0-.02-.07-.07-1.02-.07-1.41q-.01-.06,0,0s.03-.17-.09-.18c-.13,0-.25,0-.38,0-.04,0-.11.06-.12.09-.01.18,0,.36,0,.54,0,.09,0,.18,0,.27.01.23.02.46.04.69h0s0,0,0,0c0,.05.01.1.02.16.01.09.25.32.27.33.18.07.36.1.55.06.04-.01.31-.05.31-.2h0s.09.02.09.04c.02.15.12.12.22.12.06,0,.11,0,.17,0,.2,0,.2,0,.2-.21v-1.51Z"/>
  <path class="cls-1" d="M38.47,42.47c.05-.06.08-.09.1-.12.1-.11.2-.22.37-.22.03,0,.06-.01.08,0,.15.1.05.5-.03.5-.06,0-.13,0-.2.02-.21.06-.31.19-.32.43,0,.31,0,.61,0,.92,0,.12-.03.18-.16.17-.39-.02-.33.06-.33-.33,0-.49,0-.99,0-1.48,0-.13.04-.18.16-.16.03,0,.06,0,.09,0,.14-.02.22.22.24.29"/>
  <path class="cls-1" d="M56.42,42.28h0s-.04-.06-.06-.08c0-.2,0-.4,0-.6,0-.05-.04-.09-.05-.13h0c-.14-.12-.51-.05-.52-.05,0,.13.02,2.26.03,2.29,0,.14-.01.33-.02.49h.41c.02-.06.04-.25.07-.2.09.13.43.29.49.28,1,.02.97-.7.99-.9.01-.13.11-1.44-1.34-1.09M56.99,43.83c-.27.07-.54-.1-.56-.38-.01-.18-.01-.37.03-.54.05-.21.23-.3.45-.29.19.01.36.15.41.34.02.09.03.18.04.27,0,.33-.13.54-.36.6"/>
  <path class="cls-1" d="M45.27,38.79s-.08.04-.11.08c-.31.28-1.03.29-1.39.03-.25-.19-.41-.45-.49-.74-.13-.41-.12-.84.03-1.25.2-.59.65-.84,1.26-.84.47,0,.95,0,1.42,0,.13,0,.15.07.15.17,0,.56,0,1.12,0,1.68v.05c0,.48.18.66.66.67.5,0,1,.01,1.5,0,.21,0,.41-.06.61-.11.18-.05.19-.13.04-.24-.28-.22-.58-.42-.93-.5-.12-.03-.15-.08-.14-.19,0-.07,0-.13,0-.2,0-.39,0-.39.34-.55,1.09-.5,2.14-.43,3.14.26.11.08.12.14.06.25-.24.4-.54.73-.9,1.02-.04.04-.07.09-.11.13.05.03.1.07.16.09.07.02.15.03.22.03.6,0,1.2,0,1.8.01.12,0,.17-.03.18-.17.06-.97.8-1.37,1.62-1.26.27.03.52.12.74.3.4.34.51.79.45,1.3-.05.46-.28.81-.68,1.04-.11.06-.23.11-.36.12-.54.08-1.06.05-1.46-.4-.05-.05-.15-.08-.23-.08-.7,0-1.41-.01-2.11,0-.39,0-.73-.09-1.03-.35-.03-.03-.12-.04-.15-.02-.32.22-.69.34-1.07.35-.75.02-1.51.01-2.26,0-.42,0-.69-.25-.89-.6-.01-.02-.02-.04-.04-.07,0,0,0,0-.03-.01M45.23,36.85c0-.09-.03-.13-.12-.13-.15,0-.3,0-.45,0-.22,0-.36.13-.46.31-.18.33-.19.68-.03,1.01.08.18.23.32.46.32.25,0,.43-.1.5-.36.07-.24.09-1.01.1-1.14M54.73,38.6c-.02-.11-.02-.23-.06-.34-.08-.26-.25-.37-.53-.37-.23,0-.4.13-.48.37-.08.24-.07.48.02.71.13.33.58.43.84.19.16-.15.2-.34.21-.56M48.97,37.37c.25.21.47.4.71.59.03.02.11.02.14,0,.17-.13.33-.27.49-.41.08-.07.05-.13-.03-.16-.1-.04-.2-.08-.3-.11-.35-.1-.69-.04-1.01.1"/>
  <path class="cls-1" d="M35.59,39.47c-.2,0-.37,0-.55,0-.29,0-.56-.09-.79-.27-.45-.35-.59-.82-.52-1.36.07-.55.38-.95.92-1.11.91-.27,1.71.25,1.82,1.14.02.2.02.41.02.61,0,.11.03.15.15.15.33,0,.65,0,.98,0,.29,0,.43-.12.45-.41.02-.45.02-.91.02-1.36,0-.15.04-.21.2-.2.18.01.37,0,.55,0,.09,0,.13.02.13.12-.02.56-.03,1.13-.06,1.69,0,.13.02.16.14.16.39,0,.77,0,1.16,0,.31,0,.47-.13.48-.45.02-.44.02-.88.01-1.33,0-.18,0-.19.18-.19.18,0,.36,0,.53,0,.11,0,.16.03.16.15,0,.52,0,1.04,0,1.56-.01.48-.23.85-.7,1.03-.15.06-.32.07-.48.07-1.25,0-2.5,0-3.74,0-.11,0-.18,0-.21.14-.12.57-.56.81-1.08.87-.39.04-.39.04-.39-.36,0-.1-.03-.23.02-.3.04-.06.17-.04.27-.06.15-.03.28-.1.34-.29M35.6,38.24c0-.11.01-.22,0-.32-.05-.39-.46-.6-.77-.4-.2.13-.29.42-.21.7.08.28.25.42.53.42q.46,0,.46-.4"/>
  <path class="cls-1" d="M59.62,39.48c-.8,0-1.59,0-2.38,0-.41,0-.77-.12-.95-.53-.06-.15-.09-.31-.09-.47,0-.95,0-1.89,0-2.84,0-.12.04-.15.15-.14.18,0,.36.01.53,0,.14,0,.19.03.19.18,0,.76,0,1.53,0,2.29,0,.06,0,.11,0,.17.03.3.14.42.44.48.08.02.17.03.26.03,1.11,0,2.22,0,3.33,0,.22,0,.24-.03.19-.25-.15-.7-.94-1.16-1.6-.89-.2.08-.38.18-.56.29-.09.05-.13.05-.19-.03-.08-.13-.17-.25-.27-.37-.07-.09-.06-.16.03-.23.5-.43,1.07-.61,1.72-.53.44.05.82.2,1.15.51.26.24.41.54.52.86.16.45.17.92.16,1.39,0,.11-.08.09-.15.09-.74,0-1.49,0-2.23,0h-.23Z"/>
  <path class="cls-1" d="M33.06,37.13c0,.45,0,.91,0,1.36,0,.6-.37.98-.97.98-.83,0-1.66,0-2.49,0-.43,0-.84-.09-1.2-.33-.42-.28-.58-.7-.62-1.17-.03-.38,0-.76-.01-1.15,0-.11.04-.16.15-.15.18,0,.37,0,.55,0,.12,0,.16.04.16.16,0,.32,0,.64,0,.96,0,.47.26.78.73.81.75.03,1.51.04,2.26.03.43,0,.58-.2.59-.65,0-.77,0-1.54,0-2.31,0-.14.04-.2.19-.19.17.01.34,0,.5,0,.12,0,.17.04.17.17,0,.49,0,.99,0,1.48"/>
  <path class="cls-1" d="M29.89,36.8c0-.08,0-.16,0-.24,0-.51.44-.82.93-.66.06.02.14.05.17.09.07.09.11.19.17.29-.11.06-.22.12-.33.17-.02,0-.07-.05-.11-.06-.06-.03-.15-.09-.19-.06-.06.04-.12.12-.13.2-.02.2.04.26.25.27.14,0,.29,0,.43,0,.04,0,.11.02.11.05.02.14.02.27.02.41,0,.02-.06.04-.1.04-.47,0-.94,0-1.41,0-.04,0-.08-.07-.11-.11-.01-.01,0-.04,0-.06,0-.31-.06-.31.31-.32"/>
  <path class="cls-1" d="M44.27,35.52c-.46,0-.4.07-.4-.41,0-.37-.05-.33.33-.33.11,0,.22,0,.34,0,.09,0,.13.03.12.13,0,.16,0,.32,0,.48,0,.1-.05.13-.14.13-.08,0-.16,0-.24,0"/>
  <path class="cls-1" d="M45.42,34.78q.39,0,.38.39t-.36.35c-.42,0-.42,0-.42-.43,0-.34-.06-.31.31-.31h.09Z"/>
  <path class="cls-1" d="M41.13,36.22q-.39,0-.39-.39t.36-.35c.11,0,.22-.01.32,0,.04,0,.1.07.1.1.01.16,0,.32,0,.49,0,.1-.04.15-.15.15-.08,0-.16,0-.24,0"/>
  <path class="cls-1" d="M39.96,35.48c.46,0,.4-.06.4.39,0,.39.05.35-.35.35q-.42,0-.42-.42t.32-.32h.06Z"/>
  <path class="cls-1" d="M38.48,40.5q-.36,0-.38-.36t.38-.38c.4,0,.4,0,.4.4,0,.4.06.34-.35.35h-.05Z"/>
  <path class="cls-1" d="M60.2,40.5c-.46,0-.4.07-.4-.41,0-.37-.05-.33.33-.33.11,0,.22,0,.34,0,.09,0,.13.03.12.13,0,.16,0,.32,0,.48,0,.1-.05.13-.14.13-.08,0-.16,0-.24,0"/>
  <path class="cls-1" d="M41.56,29.93c-.04-.08-.08-.15-.1-.22,0-.04.01-.12.05-.14.31-.16.63-.25.97-.11.43.18.59.64.35,1.04-.16.26-.39.48-.59.71-.05.06-.11.1-.17.16,0,.01.01.03.02.04.06,0,.12.01.17.01.2,0,.41,0,.61,0,.09,0,.13.03.13.13,0,.04,0,.07,0,.11.02.13-.03.18-.17.17-.41-.01-.82,0-1.24,0-.11,0-.15-.04-.15-.15,0-.17.07-.28.18-.4.24-.26.48-.52.71-.79.05-.06.08-.14.09-.22.05-.32-.2-.52-.55-.43-.1.03-.2.07-.32.11"/>
  <path class="cls-1" d="M47.75,30.32c.25-.03.46,0,.66.12.26.18.39.54.29.86-.1.34-.37.54-.7.56-.69.03-.93-.48-.84-1.07.09-.56.42-.98.87-1.32.12-.09.17.02.23.09.06.08.09.13-.02.21-.19.13-.36.29-.48.55M47.56,30.99c0,.27.2.5.42.5.18,0,.36-.19.35-.37,0-.23-.22-.42-.48-.42-.21,0-.29.08-.29.29"/>
  <path class="cls-1" d="M46.71,29.9c-.11-.29-.32-.48-.64-.5-.32.02-.53.21-.64.5-.19.5-.19,1.01.02,1.5.12.29.33.43.62.45.29-.02.5-.16.62-.45.21-.5.21-1,.02-1.5M46.42,31.18c-.07.2-.19.3-.35.32-.16-.01-.28-.12-.35-.32-.12-.35-.12-.71-.01-1.06.06-.2.18-.34.36-.35.18.02.3.15.36.35.11.35.11.71-.01,1.06"/>
  <path class="cls-1" d="M44.75,29.9c-.11-.29-.32-.48-.64-.5-.32.02-.53.21-.64.5-.19.5-.19,1.01.02,1.5.12.29.33.43.62.45.29-.02.5-.16.62-.45.21-.5.21-1,.02-1.5M44.46,31.18c-.07.2-.19.3-.35.32-.16-.01-.28-.12-.35-.32-.12-.35-.12-.71-.01-1.06.06-.2.18-.34.36-.35.18.02.3.15.36.35.11.35.11.71-.01,1.06"/>
  <path class="cls-1" d="M31.08,6.48c.08.08,5.52,5.01,6.45,5.85.49.44.98.89,1.47,1.33.04.03.08.08.08.12,0,.25,0,.5,0,.78-.08-.02-.12-.03-.17-.05-1.07-.44-9.92-4.09-10.14-4.19,0,.02,6.67,3.62,7.74,4.19.8.42,1.6.85,2.4,1.27.15.08.22.23.15.38-.01.03-.09.06-.13.06-.27-.03-10.99-1.59-11.01-1.59-.11,0-.14-.06-.15-.15,0-.04.01-14.41.03-14.49.21.08,10.17,4.5,10.85,4.77.33.13.44.29.43.65-.03,1.12-.01,3.58-.05,3.7-.12-.14-4.58-5.55-4.6-5.54.05.07,4.58,6.83,4.61,6.87.01.22.04,1.67.04,1.96-.06,0-.11-.02-.15-.02"/>
  <path class="cls-1" d="M27.95,19.12c-.12,0-.16.05-.15.16,0,.16-.01,12.14-.01,12.21.02.04.03.08.05.12.94-.32,5.27-1.81,6.13-2.1.03-.03,4.84-5.65,5.01-5.84.09-.1.13-.21.13-.34-.01-.3.01-.99,0-1.03-.04.02-9.36,5.5-9.42,5.54-.01-.02,8.41-6.06,9.22-6.64.2-.14.27-.46.15-.7-.17.05-10.79,3.05-10.9,3.03,0-.02,10.57-4.15,10.82-4.25.06-.02.14-.22.14-.26-.02-.08-.07-.1-.15-.1-.24,0-10.94.21-11,.21"/>
  <path class="cls-1" d="M27.81,14.86v4.11c.3-.03,10.62-1.2,11.1-1.26.08-.01.18.01.18-.13,0-.14-.09-.15-.18-.17-.7-.16-10.42-2.41-10.97-2.54-.04,0-.08,0-.12,0"/>
  <path class="cls-1" d="M34.71,29.1h0s.06.08.09.12c.02,0,4-1.42,4.1-1.45.13-.03.18-.09.18-.23,0-.83,0-2.57-.01-2.61-.09.05-4.27,4.08-4.35,4.16"/>
  <path class="cls-1" d="M51.08,12.4s-.09.01-.15.02c0-.29.02-1.75.04-1.96.03-.04,4.55-6.8,4.6-6.87-.02-.02-4.48,5.39-4.6,5.54-.04-.12-.03-2.58-.06-3.7,0-.36.09-.52.43-.65C52.02,4.5,61.99.08,62.19,0c.02.08.03,14.46.03,14.49,0,.09-.04.15-.15.15-.03,0-10.75,1.55-11.02,1.59-.04,0-.12-.02-.13-.06-.07-.16,0-.3.15-.38.8-.42,1.6-.85,2.4-1.27,1.07-.57,7.75-4.17,7.74-4.19-.21.09-9.07,3.75-10.13,4.19-.04.02-.09.03-.17.05,0-.28,0-.53,0-.78,0-.04.05-.09.08-.12.49-.44.98-.89,1.47-1.33.94-.84,6.37-5.77,6.45-5.85"/>
  <path class="cls-1" d="M62.06,19.12c.12,0,.16.05.15.16,0,.16.01,12.14.01,12.21-.02.04-.03.08-.05.12-.94-.32-5.27-1.81-6.13-2.1-.03-.03-4.84-5.65-5.01-5.84-.09-.1-.13-.21-.13-.34.01-.3-.01-.99,0-1.03.04.02,9.36,5.5,9.42,5.54.01-.02-8.41-6.06-9.22-6.64-.2-.14-.27-.46-.15-.7.17.05,10.79,3.05,10.9,3.03,0-.02-10.57-4.15-10.82-4.25-.06-.02-.14-.22-.14-.26.02-.08.07-.1.15-.1.24,0,10.94.21,11,.21"/>
  <path class="cls-1" d="M62.2,14.86v4.11c-.3-.03-10.62-1.2-11.1-1.26-.08-.01-.18.01-.18-.13,0-.14.09-.15.18-.17.7-.16,10.42-2.41,10.97-2.54.04,0,.08,0,.13,0"/>
  <path class="cls-1" d="M55.3,29.1h0s-.06.08-.09.12c-.02,0-4-1.42-4.1-1.45-.13-.03-.18-.09-.18-.23,0-.83,0-2.57.01-2.61.09.05,4.27,4.08,4.35,4.16"/>
  <path class="cls-1" d="M49.72,11.37c0-.13,0-.24-.12-.33-.02-.02-3.74-3.45-4.38-4.04-.09-.09-.15-.12-.22-.09-.07-.02-.13,0-.22.09-.64.58-4.36,4.02-4.38,4.04-.12.08-.12.2-.12.33,0,5.23,0,15.82,0,15.91.22-.07,1.61-.52,1.68-.57.05-.03.09-.11.09-.17.01-.19,0-9.86,0-14.5,0-.18,2.58-2.43,2.94-2.7.37.28,2.94,2.52,2.94,2.7,0,4.65-.01,14.31,0,14.5,0,.06.04.14.09.17.07.04,1.46.49,1.68.57,0-.09,0-10.69,0-15.91"/>
  <path class="cls-1" d="M47.59,3.31c.04-.19.08-.38.12-.58.04-.22.09-.44.13-.66.02-.08.06-.12.15-.11.12,0,.24,0,.4,0-.05.21-.08.39-.13.58-.12.52-.25,1.04-.38,1.55-.02.08-.05.13-.14.12-.09,0-.19-.01-.27,0-.18.03-.23-.07-.26-.21-.15-.63-.3-1.25-.46-1.88-.03-.12,0-.16.12-.16.33,0,.33,0,.41.31.07.3.14.59.21.89.01.05.03.1.05.15h.05Z"/>
  <path class="cls-1" d="M43,3.02c-.16-.1-.27-.23-.28-.43-.01-.32.24-.59.59-.61.22-.01.45,0,.67,0,.09,0,.13.04.12.13,0,.01,0,.02,0,.03q0,.25-.24.25c-.12,0-.23,0-.35,0-.17,0-.25.07-.25.22,0,.16.08.26.25.25.14,0,.21.02.21.18s-.05.21-.2.2c-.2,0-.31.09-.31.26,0,.19.12.31.32.31.18,0,.36,0,.54,0,.08,0,.12.02.12.11,0,.1,0,.19,0,.31-.37-.03-.73.05-1.08-.07-.35-.12-.54-.6-.36-.91.05-.09.16-.15.26-.23"/>
  <path class="cls-1" d="M44.7,3.68c.04-.35.06-.7.12-1.04.08-.42.39-.65.81-.67.14,0,.29,0,.43,0,.11,0,.14.04.14.14,0,.38.03.34-.32.33-.43-.01-.6.2-.63.44-.01.1-.02.2-.02.3,0,.31,0,.61,0,.92,0,.09-.02.12-.1.12h-.02q-.39.01-.39-.37v-.17s-.02,0-.03,0"/>
  <path class="cls-1" d="M42.16,4.21h-.5c0-.61,0-1.2,0-1.8,0-.03,0-.08.02-.1.14-.12.29-.22.44-.34.01.01.03.02.04.03v2.2Z"/>
</svg>