<?xml version="1.0" encoding="UTF-8"?>
<svg id="Layer_1" data-name="Layer 1" xmlns="http://www.w3.org/2000/svg" viewBox="0 0 90 45">
  <defs>
    <style>
      .cls-1 {
        fill: #fff;
      }
    </style>
  </defs>
  <path class="cls-1" d="M55.5,6.3l-1.06-.61h-.02s0,3.27,0,3.27c0,.37-.15.5-.52.5h-1.05c-.4-.03-.52-1.37-1.52-1.37s-1.29,1.33-2.29,1.36c-.44,0-.8-.03-1.12-.13.71-.81.51-1.86.51-1.86l-.93.54s.1.49-.3.9c-.56-.46-.85-1.04-.85-1.04,0,0-.23.14-.7.46.24.41.49.74.74.99-.29.08-.66.12-1.1.12h-2.08c-.15,0-.27-.03-.36-.08s-.18-.13-.25-.24c-.07-.11-.14-.26-.21-.44l-.76-1.92-.8.44.26.54c-.14.02-.27.06-.39.12-.18.09-.34.22-.47.38-.13.16-.23.35-.3.55-.07.21-.11.42-.11.65h-.5s-.02,0-.02,0h-2.28c.06-.12.09-.25.09-.39,0-.12-.03-.24-.08-.36-.05-.11-.12-.22-.19-.32s-.15-.18-.22-.25h-.05c-.09.02-.2.03-.34.04-.14,0-.28.01-.43.01h-.14c-.14,0-1.58,0-1.73-.01-.15-.01-.28-.04-.4-.07h-.05l-.23.72c.09.04.19.07.3.09.11.02.22.03.32.04.11,0,.2,0,.27,0h1.47c.08,0,.16,0,.24-.01.08,0,.17-.02.27-.04.01,0,.03,0,.04,0,.01.02.02.04.04.06.03.06.05.12.05.2,0,.09-.04.16-.11.21-.07.05-.22.07-.43.07h-3.02l-.28.72v.05h3.47s.06,0,.09,0h0s4.07.01,4.07.01c.07.11.14.22.23.31.14.14.28.24.46.31.17.07.34.11.52.11.22,0,.42-.04.6-.13s.34-.21.47-.39c.1-.13.18-.28.23-.45.03.02.05.05.08.07.09.06.18.11.27.13.09.02.26.03.32.03h1.64s.44,0,.44,0c.79,0,1.39-.13,1.84-.33.77.42,1.45.32,1.82.32h.12s.03,0,.04-.01c.15-.02.27-.05.42-.13.2-.1.37-.2.51-.29.39.65,1.25,1.13,2.41.44h1.09s0,0,0,0h.43c.44,0,.76-.12.98-.36.22-.24.33-.59.33-1.06h0v-1.94l.22-.49-.02-.05ZM40.71,9.37s0-.06,0-.09c0-.12.02-.25.05-.39.03-.14.08-.26.14-.38.04-.07.09-.13.14-.17.07.02.13.05.19.09.1.07.15.17.15.32,0,.09-.03.17-.08.25-.05.08-.13.16-.23.22-.1.06-.21.11-.36.15ZM41.8,10.1s-.01.04-.02.06c-.06.01-.12.03-.18.03-.16,0-.31-.04-.44-.13-.05-.04-.1-.07-.15-.12.1-.01.2-.04.28-.06.15-.05.28-.13.39-.21.06-.05.11-.1.16-.16,0,.06.01.12.01.19,0,.1-.02.23-.06.4ZM50.56,9.32c.26-.28.37-.48.7-.48.44,0,.63.41.83.81-.26.19-1.17.31-1.53-.33Z"/>
  <path class="cls-1" d="M56.76,17.13h-21.82c-1.47,0-1.68-.46-1.68-.86,0-.29.12-.66.53-.66.49,0,.77.5,1.24.62.15.04.39.05.59.05.09,0,.17,0,.23,0h6.61c.05,0,.1,0,.15,0h3.6c.37,0,.66-.09.88-.26.21.17.51.26.88.26h.9s0,0,.01,0c.27,0,.42-.03.65-.14.2-.1.37-.2.51-.29.39.65,1.25,1.13,2.41.44h1.53c.44,0,.76-.12.98-.36.22-.24.33-.59.33-1.06h0v-1.94l.23-.52-1.12-.64v3.27c0,.37-.15.5-.51.5h-1.03c-.41,0-.52-1.37-1.54-1.37s-1.29,1.36-2.32,1.36h-.97c-.36,0-.51-.13-.51-.5v-2.09l.23-.52-1.12-.64v3.1c0,.06,0,.11.01.16,0,.37-.16.5-.52.5h-2.53c.06-.12.09-.25.09-.38,0-.12-.03-.23-.08-.35-.05-.12-.12-.22-.19-.32s-.15-.18-.22-.25h-.05c-.09.02-.2.03-.34.04-.14,0-.28.01-.43.01h-2.55c.15-.2.31-.44.44-.72.47-.98.56-1.61.56-1.61l-.76.09s-.17.85-.56,1.48c-.23.38-.54.73-.84,1.02l.11.14.31.36h2.39s.74,0,.74,0c.08,0,.16,0,.24-.01.08,0,.17-.02.27-.04,0,.01.02.03.03.05.03.06.05.12.05.2,0,.09-.04.16-.11.21s-.22.08-.43.08h-.06s-.01,0-.02,0h-6.62c-.11,0-.43-.02-.64-.2-.3-.25-.63-.51-1.19-.51-.59,0-1.38.52-1.38,1.48,0,1.08.78,1.64,2.71,1.64h22.14l-.47-.78ZM51.26,14.92c.44,0,.63.41.83.81-.26.19-1.17.31-1.53-.33.26-.28.37-.48.7-.48Z"/>
  <path class="cls-1" d="M57.19,20.22l.23-.51h0s-1.1-.65-1.1-.65h-.01v3.26c0,.37-.14.5-.5.5-.18,0-.31-.03-.39-.11-.08-.08-.12-.2-.12-.39,0-.05,0-.1,0-.15h0v-1.94l.23-.51h0s-1.09-.64-1.09-.64h-.02s0,3.25,0,3.25c0,.37-.15.5-.52.5h-.08s0,0,0,0h-.61c.08-.09.16-.17.21-.26.11-.18.17-.39.17-.63,0-.21-.06-.41-.17-.58-.11-.17-.27-.31-.47-.41-.2-.1-.43-.15-.7-.15-.18,0-.35.03-.51.09-.16.06-.3.14-.42.24-.12.1-.22.22-.29.36-.07.14-.1.28-.1.44,0,.23.06.43.19.63.07.11.15.2.24.29h-1.17c-.74-.06-.71-1.38-.7-1.53h0s-.85.52-.85.52c0,0,0,.06,0,.15,0,.09.02.22.06.36,0,.37-.16.5-.52.5h-.08s0,0,0,0h-5.75c0-.27-.04-.52-.13-.74-.09-.23-.2-.44-.34-.6s-.3-.3-.47-.39c-.17-.09-.35-.14-.53-.14s-.35.04-.52.11c-.16.08-.31.18-.43.32-.13.14-.23.29-.3.47s-.11.36-.11.56c0,.25.06.47.19.65s.3.31.52.4c.22.09.47.14.75.14h.43c-.02.14-.05.26-.09.35-.02.04-.04.09-.06.13-.05.02-.1.04-.15.05-.11.03-.25.04-.4.04-.11,0-.25-.01-.41-.04-.16-.03-.31-.08-.46-.15h-.06l-.27.7c.19.08.36.14.53.19s.36.06.58.06c.36,0,.66-.08.91-.24.25-.16.45-.39.58-.7.06-.12.1-.26.13-.41h5.92s0,0,0,0h.06c.4,0,.7-.1.92-.3.18.18.42.3.75.3h1.49c.24,0,.46-.03.66-.08.07-.02.14-.04.21-.07.04.02.09.04.14.06.16.06.35.09.58.09h.89s.09,0,.09,0c.37,0,.66-.09.88-.26.21.17.5.26.86.26h.17c.86,0,1.29-.5,1.3-1.42,0,0,0,0,0-.02v-1.94ZM41.04,22.85c-.16,0-.28-.03-.38-.08-.1-.05-.17-.12-.22-.2-.05-.08-.07-.17-.07-.25,0-.18.06-.35.18-.5.07-.09.17-.17.27-.23.06.04.14.09.19.14.11.1.19.22.26.34.07.13.12.26.15.41.02.12.04.24.04.37h-.42ZM52.67,22.38c-.05.11-.11.22-.2.31-.03.04-.07.07-.11.1-.04-.03-.09-.07-.13-.11-.08-.08-.16-.18-.25-.3-.09-.12-.16-.26-.23-.41-.02-.04-.06-.17-.06-.17,0-.01.04-.04.05-.05.08-.09.17-.15.26-.19.09-.04.18-.06.26-.06.1,0,.19.03.26.08s.13.12.16.2c.04.08.06.17.06.26,0,.11-.02.23-.07.34Z"/>
  <polygon class="cls-1" points="57.14 34.86 57.14 35.16 56.52 35.16 56.52 35.53 57.26 35.53 57.26 35.84 56.13 35.84 56.13 34.2 57.22 34.2 57.22 34.5 56.52 34.5 56.52 34.86 57.14 34.86"/>
  <polygon class="cls-1" points="54.62 34.5 54.62 34.2 55.93 34.2 55.93 34.5 55.47 34.5 55.47 35.84 55.07 35.84 55.07 34.5 54.62 34.5"/>
  <polygon class="cls-1" points="53.9 25.91 53.31 26.5 52.73 25.92 52.16 26.5 51.57 25.91 52.16 25.32 52.73 25.89 53.31 25.32 53.9 25.91"/>
  <polygon class="cls-1" points="50.81 25.91 50.22 26.5 49.64 25.92 49.06 26.5 48.47 25.91 49.06 25.32 49.64 25.89 50.22 25.32 50.81 25.91"/>
  <rect class="cls-1" x="46.29" y="20.27" width=".83" height=".83" transform="translate(-.95 39.09) rotate(-45)"/>
  <rect class="cls-1" x="51.84" y="19.3" width=".83" height=".83" transform="translate(1.36 42.73) rotate(-45)"/>
  <polygon class="cls-1" points="37.42 20.8 36.83 21.39 36.24 20.8 36.83 20.21 37.42 20.8"/>
  <polygon class="cls-1" points="35.04 18.89 34.45 19.49 33.87 18.91 33.3 19.49 32.71 18.9 33.3 18.3 33.87 18.88 34.45 18.3 35.04 18.89"/>
  <path class="cls-1" d="M32.23,24.1l-.03-.05.43-.72h5.25c.07,0,.14-.02.2-.06.32-.22.13-1.7.13-1.7l.91-.53s.11,1.77-.17,2.33c-.22.45-.51.72-1.24.72h-5.48Z"/>
  <polygon class="cls-1" points="34.88 25.64 34.29 26.23 33.71 25.66 33.14 26.23 32.55 25.64 33.14 25.05 33.71 25.62 34.29 25.05 34.88 25.64"/>
  <path class="cls-1" d="M33.11,37.84c-.51,0-.84.36-.84.88s.32.83.84.83.84-.36.84-.89-.32-.83-.84-.83ZM33.11,39.24c-.27,0-.43-.21-.43-.55s.16-.54.43-.54.43.21.43.54-.16.55-.43.55Z"/>
  <polygon class="cls-1" points="32.27 34.5 32.27 34.2 33.58 34.2 33.58 34.5 33.12 34.5 33.12 35.84 32.73 35.84 32.73 34.5 32.27 34.5"/>
  <polygon class="cls-1" points="33.78 35.84 33.78 34.2 34.18 34.2 34.18 34.85 34.79 34.85 34.79 34.2 35.19 34.2 35.19 35.84 34.79 35.84 34.79 35.17 34.18 35.17 34.18 35.84 33.78 35.84"/>
  <polygon class="cls-1" points="34.4 30.76 34.99 30.17 35.56 30.75 36.14 30.17 36.73 30.76 36.14 31.35 35.56 30.78 34.99 31.35 34.4 30.76"/>
  <polygon class="cls-1" points="35.23 38.19 34.56 38.19 34.56 38.59 35.14 38.59 35.14 38.9 34.56 38.9 34.56 39.52 34.17 39.52 34.17 37.88 35.23 37.88 35.23 38.19 35.23 38.19"/>
  <polygon class="cls-1" points="35.54 35.84 35.54 34.2 36.64 34.2 36.64 34.5 35.94 34.5 35.94 34.86 36.55 34.86 36.55 35.16 35.94 35.16 35.94 35.53 36.67 35.53 36.67 35.84 35.54 35.84 35.54 35.84"/>
  <polygon class="cls-1" points="37.12 38.19 36.67 38.19 36.67 39.52 36.28 39.52 36.28 38.19 35.82 38.19 35.82 37.88 37.12 37.88 37.12 38.19"/>
  <path class="cls-1" d="M37.13,27.02l-.91.53s.19,1.17-.13,1.39c-.06.04-.13.06-.2.06h-.64c-.37,0-.52-.13-.52-.5v-1.94l-.87.16v.16c-1.08.24-1.6.87-1.6,1.54s.73,1.07,1.54,1.07l.25-.26c.21.36.58.55,1.12.55h.6s0,0,0,0c.68-.02.95-.29,1.17-.72.28-.56.17-2.02.17-2.03ZM33.13,28.27c0-.22.19-.52.73-.62v.69c0,.12,0,.23.02.33-.58-.04-.75-.21-.75-.4Z"/>
  <path class="cls-1" d="M38.23,38.88c.19-.09.31-.26.31-.49,0-.33-.24-.51-.68-.51h-.58v1.64h.4v-.57h.16l.35.57h.46l-.4-.64ZM37.84,38.66h-.18v-.47h.19c.18,0,.27.08.28.23,0,.15-.11.24-.29.24Z"/>
  <path class="cls-1" d="M38.49,35.19c.19-.09.31-.26.31-.49,0-.33-.24-.51-.68-.51h-.58v1.64h.4v-.57h.16l.35.57h.46l-.41-.64ZM38.11,34.98h-.18v-.47h.19c.18,0,.28.08.28.23s-.11.24-.29.24Z"/>
  <path class="cls-1" d="M39.74,37.88h-.5l-.54,1.64h.37l.11-.35h.58l.11.35h.41l-.54-1.64ZM39.27,38.89l.21-.65.2.65h-.41Z"/>
  <path class="cls-1" d="M39.84,34.16c-.51,0-.85.36-.85.88s.32.83.84.83c.51,0,.85-.36.85-.89s-.32-.83-.84-.83ZM39.83,35.56c-.27,0-.43-.21-.43-.55s.16-.54.43-.54.44.21.44.54-.16.55-.44.55Z"/>
  <path class="cls-1" d="M41.09,37.88h-.65v1.64h.64c.51,0,.85-.35.85-.85s-.31-.79-.84-.79ZM41.08,39.22h-.25v-1.02h.26c.27,0,.43.19.43.51,0,.31-.18.52-.45.52Z"/>
  <polygon class="cls-1" points="40.7 34.2 41.14 34.2 41.47 34.92 41.8 34.2 42.18 34.2 41.64 35.3 41.64 35.84 41.24 35.84 41.24 35.3 40.7 34.2"/>
  <rect class="cls-1" x="42.15" y="37.88" width=".4" height="1.64"/>
  <path class="cls-1" d="M43.12,34.2h-.5l-.55,1.64h.37l.11-.35h.58l.11.35h.42l-.55-1.64ZM42.64,35.21l.21-.65.2.65h-.41Z"/>
  <polygon class="cls-1" points="43.14 30.76 43.73 30.17 44.3 30.75 44.87 30.17 45.47 30.76 44.87 31.35 44.3 30.78 43.73 31.35 43.14 30.76"/>
  <polygon class="cls-1" points="43.99 38.19 43.54 38.19 43.54 39.52 43.14 39.52 43.14 38.19 42.69 38.19 42.69 37.88 43.99 37.88 43.99 38.19"/>
  <rect class="cls-1" x="44.14" y="37.88" width=".4" height="1.64"/>
  <polygon class="cls-1" points="43.86 35.84 43.86 34.2 44.26 34.2 44.26 35.53 44.89 35.53 44.89 35.84 43.86 35.84"/>
  <path class="cls-1" d="M45.59,37.84c-.51,0-.84.36-.84.88s.32.83.84.83.84-.36.84-.89-.32-.83-.84-.83ZM45.59,39.24c-.27,0-.43-.21-.43-.55s.16-.54.43-.54.43.21.43.54-.16.55-.43.55Z"/>
  <rect class="cls-1" x="45.71" y="34.2" width=".4" height="1.64"/>
  <path class="cls-1" d="M46.45,35.84v-1.64h.48l.51.81c.04.07.09.16.14.25-.01-.11-.02-.22-.02-.33v-.73h.36v1.64h-.42l-.57-.91c-.04-.07-.09-.16-.14-.26.01.11.02.22.02.33v.83h-.36Z"/>
  <path class="cls-1" d="M48.1,39.52h-.42l-.57-.91c-.04-.07-.09-.16-.14-.26.01.11.02.22.02.33v.83h-.36v-1.64h.48l.51.81c.04.07.09.16.14.25-.01-.11-.02-.22-.02-.33v-.73h.36v1.64Z"/>
  <path class="cls-1" d="M48.18,35.74l.08-.34c.11.09.28.16.48.16.18,0,.26-.06.26-.16,0-.09-.06-.14-.2-.19l-.16-.06c-.27-.09-.43-.23-.43-.5,0-.31.25-.49.64-.49.16,0,.3.02.4.06v.34c-.11-.06-.26-.09-.4-.09-.18,0-.27.05-.27.14,0,.07.04.13.26.21l.14.05c.26.09.4.23.4.51,0,.31-.25.51-.64.51-.23,0-.39-.03-.55-.13Z"/>
  <path class="cls-1" d="M49.29,37.88h-.5l-.54,1.64h.37l.11-.35h.58l.11.35h.41l-.54-1.64ZM48.82,38.89l.21-.65.2.65h-.41Z"/>
  <polygon class="cls-1" points="49.45 34.5 49.45 34.2 50.76 34.2 50.76 34.5 50.31 34.5 50.31 35.84 49.91 35.84 49.91 34.5 49.45 34.5"/>
  <polygon class="cls-1" points="51.01 39.52 49.98 39.52 49.98 37.88 50.38 37.88 50.38 39.22 51.01 39.22 51.01 39.52"/>
  <rect class="cls-1" x="50.96" y="34.2" width=".4" height="1.64"/>
  <path class="cls-1" d="M54.42,25.19v3.27c0,.34-.13.48-.43.5,0,0,0,0-.01,0-.78-.06-.7-1.75-.7-1.75l-.85.53s0,.38.07.73h0c0,.37-.15.5-.51.5,0,0-.01,0-.02,0h-1.24c.08-.09.16-.17.21-.26.11-.18.17-.39.17-.63,0-.21-.06-.41-.17-.58-.11-.17-.27-.31-.47-.41-.2-.1-.43-.15-.7-.15-.18,0-.35.03-.51.09-.16.06-.3.14-.42.24-.12.1-.22.22-.29.36-.07.14-.1.28-.1.44,0,.23.06.43.19.63.07.11.15.2.24.29h-1.57c-.36,0-.51-.13-.51-.5v-2.09l.23-.52-1.12-.64v3.1c0,.06,0,.11.01.16,0,.37-.16.5-.52.5h-.05c-.85,0-.76-1.77-.76-1.77l-.85.53s0,.1.01.24c0,.14.03.32.06.5.05.35-.16.5-.53.5h-1.36c.06-.12.09-.26.09-.39,0-.12-.03-.24-.08-.36-.05-.11-.12-.22-.19-.32-.07-.1-.15-.18-.22-.25h-.05c-.09.02-.2.03-.34.04-.14,0-.28.01-.43.01h-.14c-.14,0-1.58,0-1.73-.01-.15-.01-.28-.04-.4-.07h-.05l-.23.72c.09.04.19.07.3.09.11.02.22.03.32.04.11,0,.2,0,.27,0h1.47c.08,0,.16,0,.24-.01.08,0,.17-.02.27-.04.01,0,.03,0,.04,0,.01.02.02.04.04.06.03.06.05.12.05.2,0,.09-.04.16-.11.21-.07.05-.22.07-.43.07h-3.02l-.28.72v.05h5.35s0,0,.01,0h.71c.4,0,.7-.1.92-.3.18.18.43.3.75.3h.44c.37,0,.66-.09.88-.26.21.17.51.26.88.26h1.68c.24,0,.46-.03.66-.08.07-.02.14-.04.21-.07.04.02.09.04.14.06.16.06.35.09.58.09h.88s.46,0,.46,0c0,0,.02,0,.03,0h.15c.4,0,.7-.1.92-.3.19.18.43.3.76.3h.26s0,0,.01,0c.43,0,.76-.12.98-.36.22-.24.33-.59.33-1.06h0v-1.94l.23-.52-1.12-.64ZM50.16,28.5c-.05.11-.11.22-.2.31-.03.04-.07.07-.11.1-.04-.03-.09-.07-.13-.11-.08-.08-.16-.18-.25-.3-.09-.12-.16-.26-.23-.41-.02-.04-.06-.17-.06-.17,0-.01.04-.04.05-.05.08-.09.17-.15.26-.19.09-.04.18-.06.26-.06.1,0,.19.03.26.08.07.05.13.12.16.2.04.08.06.17.06.26,0,.11-.02.23-.07.34Z"/>
  <polygon class="cls-1" points="51.56 34.2 52.86 34.2 52.86 34.5 52.41 34.5 52.41 35.84 52.01 35.84 52.01 34.5 51.55 34.5 51.55 34.2 51.56 34.2"/>
  <path class="cls-1" d="M52.62,37.88h-.5l-.54,1.64h.37l.11-.35h.58l.11.35h.41l-.54-1.64ZM52.14,38.89l.21-.65.2.65h-.41Z"/>
  <path class="cls-1" d="M53.05,35.23v-1.03h.39v1.02c0,.22.11.34.31.34s.31-.11.31-.34v-1.02h.37v1.01c0,.43-.25.66-.7.66s-.69-.21-.69-.64Z"/>
  <path class="cls-1" d="M54.26,38.88c.19-.09.31-.26.31-.49,0-.33-.24-.51-.68-.51h-.58v1.64h.4v-.57h.16l.35.57h.46l-.4-.64ZM53.88,38.66h-.18v-.47h.19c.18,0,.28.08.28.23s-.11.24-.29.24Z"/>
  <polygon class="cls-1" points="55.98 38.19 55.53 38.19 55.53 39.52 55.13 39.52 55.13 38.19 54.68 38.19 54.68 37.88 55.98 37.88 55.98 38.19"/>
  <path class="cls-1" d="M56.62,39.56c-.23,0-.39-.04-.54-.13l.08-.34c.11.09.28.16.48.16.18,0,.26-.06.26-.16,0-.09-.06-.14-.2-.19l-.16-.06c-.27-.09-.43-.23-.43-.5,0-.31.24-.49.64-.49.16,0,.3.02.4.06v.34c-.11-.06-.26-.09-.4-.09-.18,0-.27.05-.27.14,0,.07.04.13.26.21l.14.05c.26.09.4.23.4.51,0,.31-.25.51-.64.51Z"/>
  <path class="cls-1" d="M57.26,26.38c0,.27,0,1.21,0,1.66,0,.66-.04,1.4-.26,1.64-.21.23-.54.22-.73.19l-.05-.09c.2-.23.15-1.06.15-2.76v-1.81h.03s1.07.6,1.07.6v.04s-.21.53-.21.53Z"/>
  <path class="cls-1" d="M57.26,12.98c0,.27,0,1.21,0,1.66,0,.66-.04,1.4-.26,1.64-.21.23-.54.22-.73.19l-.05-.09c.2-.23.15-1.06.15-2.76v-1.81h.03s1.07.6,1.07.6v.04s-.21.53-.21.53Z"/>
  <path class="cls-1" d="M57.26,6.87c0,.27,0,1.21,0,1.66,0,.66-.04,1.4-.26,1.64-.21.23-.54.22-.73.19l-.05-.09c.2-.23.15-1.06.15-2.76v-1.81h.03s1.07.6,1.07.6v.04s-.21.53-.21.53Z"/>
  <path class="cls-1" d="M60.9,45c-.13,0-.25-.05-.35-.15l-1.43-1.43-1.43,1.43c-.19.19-.51.19-.7,0l-1.43-1.43-1.43,1.43c-.19.19-.51.19-.7,0l-1.43-1.43-1.43,1.43c-.19.19-.51.19-.7,0l-1.43-1.43-1.43,1.43c-.19.19-.51.19-.7,0l-1.43-1.43-1.43,1.43c-.19.19-.51.19-.7,0l-1.43-1.43-1.43,1.43c-.19.19-.51.19-.7,0l-1.43-1.43-1.43,1.43c-.19.19-.51.19-.7,0l-1.43-1.43-1.43,1.43c-.19.19-.51.19-.7,0l-1.31-1.31-1.31,1.31c-.19.19-.51.19-.7,0l-1.82-1.81c-.19-.19-.19-.51,0-.7l1.56-1.56-1.56-1.56c-.19-.19-.19-.51,0-.7l1.53-1.53-1.53-1.53c-.19-.19-.19-.51,0-.7l1.53-1.53-1.53-1.53c-.19-.19-.19-.51,0-.7l1.53-1.53-1.53-1.53c-.19-.19-.19-.51,0-.7l1.53-1.53-1.53-1.53c-.19-.19-.19-.51,0-.7l1.53-1.53-1.53-1.53c-.19-.19-.19-.51,0-.7l1.53-1.53-1.53-1.53c-.19-.19-.19-.51,0-.7l1.4-1.4-1.4-1.4c-.19-.19-.19-.51,0-.7l1.4-1.4-1.4-1.4c-.19-.19-.19-.51,0-.7l1.4-1.4-1.4-1.4c-.19-.19-.19-.51,0-.7l1.4-1.4-1.4-1.4c-.19-.19-.19-.51,0-.7l1.82-1.82c.09-.09.22-.15.35-.15s.26.05.35.15l1.29,1.31,1.31-1.31c.09-.09.22-.15.35-.15s.26.05.35.15l1.43,1.43,1.43-1.43c.09-.09.22-.15.35-.15s.26.05.35.15l1.43,1.43,1.43-1.43c.19-.19.51-.19.7,0l1.43,1.43,1.43-1.43c.09-.09.22-.15.35-.15s.26.05.35.15l1.43,1.43,1.43-1.43c.09-.09.22-.15.35-.15s.26.05.35.15l1.42,1.43,1.43-1.43c.09-.09.22-.15.35-.15s.26.05.35.15l1.42,1.43,1.43-1.43c.09-.09.22-.15.35-.15s.26.05.35.15l1.43,1.43,1.43-1.43c.09-.09.22-.15.35-.15s.26.05.35.15l1.43,1.43,1.43-1.43c.09-.09.22-.15.35-.15s.26.05.35.15l1.81,1.81c.19.19.19.51,0,.7l-1.4,1.4,1.4,1.4c.19.19.19.51,0,.7l-1.37,1.4,1.4,1.4c.19.19.19.51,0,.7l-1.4,1.4,1.4,1.4c.19.19.19.51,0,.7l-1.4,1.4,1.4,1.4c.19.19.19.51,0,.7l-1.53,1.53,1.53,1.53c.19.19.19.51,0,.7l-1.53,1.53,1.53,1.53c.19.19.19.51,0,.7l-1.53,1.53,1.53,1.53c.19.19.19.51,0,.7l-1.53,1.53,1.53,1.53c.19.19.19.51,0,.7l-1.53,1.53,1.53,1.53c.19.19.19.51,0,.7l-1.53,1.53,1.53,1.53c.19.19.19.51,0,.7l-1.56,1.56,1.56,1.56c.09.09.15.22.15.35s-.05.26-.15.35l-1.81,1.81c-.1.1-.22.15-.35.15ZM59.11,42.92c.13,0,.25.05.35.15l1.43,1.43,1.81-1.81-1.56-1.56c-.19-.19-.19-.51,0-.7l1.56-1.56-1.53-1.53c-.19-.19-.19-.51,0-.7l1.53-1.53-1.53-1.53c-.19-.19-.19-.51,0-.7l1.53-1.53-1.53-1.53c-.19-.19-.19-.51,0-.7l1.53-1.53-1.53-1.53c-.19-.19-.19-.51,0-.7l1.53-1.53-1.53-1.53c-.19-.19-.19-.51,0-.7l1.53-1.53-1.53-1.53c-.19-.19-.19-.51,0-.7l1.53-1.53-1.4-1.4c-.19-.19-.19-.51,0-.7l1.4-1.4-1.4-1.4c-.19-.19-.19-.51,0-.7l1.4-1.4-1.4-1.4c-.19-.19-.19-.51,0-.7l1.37-1.4-1.4-1.4c-.09-.09-.15-.22-.15-.35s.05-.26.15-.35l1.4-1.4-1.81-1.81-1.43,1.43c-.09.09-.22.15-.35.15s-.26-.05-.35-.15l-1.43-1.43-1.43,1.43c-.09.09-.22.15-.35.15s-.26-.05-.35-.15l-1.43-1.43-1.43,1.43c-.09.09-.22.15-.35.15s-.26-.05-.35-.15l-1.42-1.43-1.43,1.43c-.09.09-.22.15-.35.15s-.26-.05-.35-.15l-1.42-1.43-1.43,1.43c-.09.09-.22.15-.35.15s-.26-.05-.35-.15l-1.43-1.43-1.43,1.43c-.09.09-.22.15-.35.15s-.26-.05-.35-.15l-1.43-1.43-1.43,1.43c-.09.09-.22.15-.35.15s-.26-.05-.35-.15l-1.43-1.43-1.43,1.43c-.09.09-.22.15-.35.15s-.26-.05-.35-.15l-1.43-1.43-1.31,1.31c-.09.09-.22.15-.35.15s-.26-.05-.35-.15l-1.29-1.31-1.81,1.81,1.4,1.4c.19.19.19.51,0,.7l-1.4,1.4,1.4,1.4c.19.19.19.51,0,.7l-1.4,1.4,1.4,1.4c.19.19.19.51,0,.7l-1.4,1.4,1.4,1.4c.19.19.19.51,0,.7l-1.4,1.4,1.53,1.53c.09.09.15.22.15.35s-.05.26-.15.35l-1.53,1.53,1.53,1.53c.09.09.15.22.15.35s-.05.26-.15.35l-1.53,1.53,1.53,1.53c.09.09.15.22.15.35s-.05.26-.15.35l-1.53,1.53,1.53,1.53c.09.09.15.22.15.35s-.05.26-.15.35l-1.53,1.53,1.53,1.53c.09.09.15.22.15.35s-.05.26-.15.35l-1.53,1.53,1.53,1.53c.09.09.15.22.15.35s-.05.26-.15.35l-1.53,1.53,1.56,1.56c.19.19.19.51,0,.7l-1.56,1.56,1.81,1.81,1.31-1.31c.09-.09.22-.15.35-.15s.26.05.35.15l1.31,1.31,1.43-1.43c.09-.09.22-.15.35-.15s.26.05.35.15l1.43,1.43,1.43-1.43c.19-.19.51-.19.7,0l1.43,1.43,1.43-1.43c.19-.19.51-.19.7,0l1.43,1.43,1.43-1.43c.19-.19.51-.19.7,0l1.43,1.43,1.43-1.43c.19-.19.51-.19.7,0l1.43,1.43,1.43-1.43c.09-.09.22-.15.35-.15s.26.05.35.15l1.43,1.43,1.43-1.43c.09-.09.22-.15.35-.15s.26.05.35.15l1.43,1.43,1.43-1.43c.1-.1.22-.15.35-.15Z"/>
</svg>