<?xml version="1.0" encoding="UTF-8"?>
<svg id="Layer_1" data-name="Layer 1" xmlns="http://www.w3.org/2000/svg" viewBox="0 0 90 45">
  <defs>
    <style>
      .cls-1 {
        fill: #fff;
      }
    </style>
  </defs>
  <g>
    <path class="cls-1" d="M9.96,28.32v-15.69h2.87v13.51h6.37l.18,2.18h-9.41Z"/>
    <path class="cls-1" d="M31.24,28.32l-1.41-4.18h-5.26l-1.52,4.18h-2.8l5.78-15.69h2.75l5.59,15.69h-3.13ZM25.18,22.23h4.02l-1.72-5.27c-.08-.23-.14-.45-.17-.66-.03-.21-.04-.39-.04-.54,0,.15-.02.33-.07.55-.04.22-.1.44-.18.66l-1.84,5.27Z"/>
    <path class="cls-1" d="M49.32,28.32l-.07-11.07c-.03.2-.07.38-.12.56-.05.18-.12.37-.21.58l-4.23,9.62h-1.91l-4.05-9.28c-.05-.11-.09-.21-.13-.31-.04-.1-.07-.19-.1-.28-.03-.1-.05-.19-.07-.28-.02-.09-.03-.19-.04-.29l-.15,10.75h-2.48l.27-15.69h2.78l5.12,11.62,5.27-11.62h2.75l.18,15.69h-2.79Z"/>
    <path class="cls-1" d="M64.4,28.32l-1.41-4.18h-5.26l-1.52,4.18h-2.8l5.78-15.69h2.75l5.59,15.69h-3.13ZM58.35,22.23h4.02l-1.73-5.27c-.08-.23-.14-.45-.16-.66-.03-.21-.04-.39-.04-.54,0,.15-.02.33-.07.55-.04.22-.1.44-.18.66l-1.84,5.27Z"/>
    <path class="cls-1" d="M76.97,28.32l-2.98-5.93h-2.22v5.93h-2.84v-15.69h4.89c.93,0,1.73.09,2.4.27.67.18,1.22.45,1.66.81.44.36.76.82.97,1.36s.31,1.19.31,1.92c0,.38-.05.75-.14,1.12-.1.37-.24.74-.45,1.12-.21.38-.47.77-.8,1.17-.32.4-.72.82-1.18,1.26l3.61,6.66h-3.23ZM76.35,17.14c0-.39-.06-.73-.17-1.03-.11-.29-.28-.53-.52-.72-.23-.19-.53-.34-.89-.43-.36-.09-.79-.14-1.29-.14h-1.73v5.5h3.14c.27-.31.49-.6.68-.88.19-.27.34-.54.45-.79.12-.25.2-.51.25-.75.05-.25.08-.5.08-.76Z"/>
  </g>
  <path class="cls-1" d="M87.93,16.7c-.5-3.28-2.47-6.15-5.87-8.55-2.87-2.02-6.77-3.72-11.6-5.04-.26-.07-.55-.15-.85-.23C59.28.21,48.16,0,45,0c-.06,0-.12,0-.18,0h-.14c-1.3,0-2.64.04-4,.09-3.63.15-9.18.56-15.08,1.65-2.38.44-4.63.96-6.69,1.55-1.87.53-3.62,1.13-5.19,1.78-2.25.92-4.2,1.97-5.81,3.1-3.83,2.71-5.84,6.01-5.97,9.81,0,0,0,0,0,.01v.83c.03.69.11,1.38.26,2.07.88,4.1,3.96,8.26,8.91,12.03,2.97,2.26,6.53,4.34,10.57,6.19,3.36,1.54,7.03,2.88,10.61,3.88,2.78.78,5.46,1.34,7.95,1.68l.12.02c.08.01.16.02.23.03h.02c1.57.2,3.04.3,4.37.3,3.77,0,8.38-.76,13.31-2.19l.11-.03c2.83-.83,5.65-1.84,8.4-3.02,1.3-.56,2.59-1.16,3.83-1.79,3.06-1.55,5.8-3.23,8.13-4.99.27-.2.54-.41.81-.63.78-.62,1.98-1.7,2.66-2.34,2.51-2.46,4.23-5.01,5.12-7.61.46-1.34.69-2.69.69-4.02,0-.58-.04-1.14-.13-1.69ZM86.65,22.16c-.78,2.28-2.26,4.56-4.4,6.77-.47.49-2.6,2.4-3.14,2.83-.26.21-.52.41-.79.61-2.3,1.74-5.02,3.4-8.02,4.92-1.22.62-2.49,1.21-3.79,1.77-1.41.61-2.84,1.17-4.27,1.68-7.64,2.76-13.5,3.5-17.24,3.5-1.3,0-2.75-.1-4.28-.29h-.01c-.12-.02-.24-.03-.35-.05-2.48-.33-5.14-.9-7.85-1.65-3.52-.98-7.11-2.29-10.5-3.84-3.99-1.82-7.5-3.87-10.42-6.1-.79-.6-1.54-1.21-2.23-1.83h-.04v-.04c-3.5-3.14-5.66-6.43-6.36-9.71-.17-.78-.25-1.56-.25-2.33,0-.13,0-.25,0-.38.12-3.55,2.02-6.65,5.65-9.22,1.56-1.11,3.46-2.12,5.66-3.02,1.55-.64,3.26-1.22,5.11-1.75,2.18-.62,4.42-1.12,6.62-1.53h0c5.97-1.1,11.62-1.5,14.97-1.63,1.36-.06,2.69-.08,3.97-.09.11,0,.21,0,.32,0,3.14,0,14.18.21,24.43,2.86.28.07.57.15.84.22,4.74,1.3,8.56,2.95,11.35,4.92,3.22,2.27,5.09,4.98,5.56,8.04.08.51.12,1.04.12,1.57,0,1.25-.22,2.51-.65,3.77Z"/>
</svg>