<?xml version="1.0" encoding="UTF-8"?>
<svg id="Layer_1" data-name="Layer 1" xmlns="http://www.w3.org/2000/svg" viewBox="0 0 90 45">
  <defs>
    <style>
      .cls-1 {
        fill: #fff;
      }
    </style>
  </defs>
  <polygon class="cls-1" points="59.85 33.98 59.44 33.57 59 34 59.44 34.44 59.85 34.03 60.27 34.44 60.71 34 60.27 33.57 59.85 33.98"/>
  <polygon class="cls-1" points="49.6 29.62 50 30.03 50.45 29.6 50 29.16 49.6 29.57 49.18 29.16 48.74 29.6 49.18 30.03 49.6 29.62"/>
  <path class="cls-1" d="M57.27,30.21h1.06l.02-.27h-.37c-.19,0-.24-.09-.24-.2,0-.14.07-.19.25-.19.07,0,.16.01.25.02v-.26c-.12-.01-.25-.03-.35-.03-.34,0-.53.13-.53.4,0,.1.02.19.09.27h-.18v.26Z"/>
  <path class="cls-1" d="M59.86,30.54v1.64c0,.11-.09.2-.2.2h-1.07c-.25,0-.36-.16-.36-.4v-1.44h-.76v1.64c0,.11-.09.2-.2.2h-5.9c-.18,0-.29-.12-.29-.31v-1.91h-.76v.28c-.15-.01-.28-.03-.43-.03-.79,0-1.41.42-1.41,1.16v.41c.01.64.42,1.08,1.09,1.08.32,0,.63-.09.92-.26.14.15.33.22.56.22h6.27c.37,0,.64-.21.75-.43.07.21.28.43.55.43h1.1c.37,0,.64-.21.75-.43.07.21.28.43.55.43h3.45c.44,0,.76-.16.96-.43.07.21.28.43.55.43h.53c.5,0,.9-.41.9-.9v-2.97h-.76v3.04c0,.11-.09.2-.2.2h-.42c-.25,0-.36-.15-.36-.4.02-.11.03-.25.03-.37,0-.91-.63-1.43-1.37-1.44-.53,0-.94.28-1.3.64h-.09c-.6,0-1.11.3-1.11.94,0,.25.08.47.28.63h-1.12c-.25,0-.36-.15-.36-.4v-1.44h-.76ZM50.32,32.27c-.18.08-.35.13-.52.13-.33,0-.55-.21-.55-.48v-.33c-.01-.38.28-.56.67-.56.12,0,.25.01.39.03v1.2ZM64.25,30.8h0c.36,0,.7.28.7.83,0,.43-.2.75-.61.75h-.27c.02-.12.02-.25.02-.37,0-.44-.15-.78-.42-.99.18-.12.36-.22.57-.22M62.97,31.38h0c.35,0,.46.3.46.64,0,.12-.01.24-.05.36h-.36c-.31,0-.52-.2-.52-.52,0-.28.17-.48.46-.48"/>
  <rect class="cls-1" x="68.15" y="29.15" width=".76" height="3.87"/>
  <polygon class="cls-1" points="40.68 40.36 41.12 39.92 40.68 39.48 40.27 39.9 39.85 39.48 39.41 39.92 39.85 40.36 40.27 39.95 40.68 40.36"/>
  <path class="cls-1" d="M42.27,37.73c0,.76.45,1.2,1.18,1.2h.56c-.03.51-.43.66-.94.66-.15,0-.28-.01-.43-.02v.63c.18.02.34.03.51.02.96-.01,1.63-.48,1.63-1.44v-.99c0-.81-.47-1.36-1.27-1.36s-1.24.53-1.24,1.29M43.52,37.05c.35,0,.5.3.5.65v.6h-.52c-.34,0-.46-.28-.46-.61,0-.35.15-.64.48-.64"/>
  <rect class="cls-1" x="38.2" y="35.22" width=".63" height=".63" transform="translate(-13.85 37.65) rotate(-45)"/>
  <rect class="cls-1" x="35.46" y="39.61" width=".63" height=".63" transform="translate(-17.75 36.99) rotate(-45)"/>
  <path class="cls-1" d="M21.08,39.54c0,.8.67,1.09,1.47,1.09.29,0,.56-.02.86-.07v-.61c-.26.03-.51.06-.78.06-.43,0-.8-.09-.8-.51,0-.36.28-.54.65-.54h13.11c.37,0,.64-.21.75-.43.07.21.28.43.55.43h1.1c.37,0,.64-.21.75-.43.07.21.28.43.55.43l.65-.02h.18c.5,0,.9-.41.9-.9v-1.57h-.76v1.63c0,.11-.09.2-.2.2h-.81c-.25,0-.36-.15-.36-.4v-1.44h-.76v1.64c0,.11-.09.2-.2.2h-1.08c-.25,0-.36-.16-.36-.4v-1.44h-.76v1.64c0,.11-.09.2-.2.2h-11.9c.22-.19.34-.46.34-.8,0-.72-.55-1.08-1.28-1.08-.43,0-.81.12-1.19.33l-.22.61.69,1.12c-.54.1-.88.48-.88,1.06M22.59,37.05c.35,0,.63.2.63.57,0,.34-.21.55-.52.67h-.09l-.64-1.05c.18-.12.38-.2.62-.2"/>
  <rect class="cls-1" x="63.13" y="39.61" width=".63" height=".63" transform="translate(-9.64 56.56) rotate(-45)"/>
  <rect class="cls-1" x="59.95" y="39.6" width=".63" height=".63" transform="translate(-10.58 54.3) rotate(-45)"/>
  <path class="cls-1" d="M68.15,35.06v3.04c0,.11-.09.2-.2.2h-.53c-.25,0-.36-.16-.36-.41v-2.83h-.77v3.04c0,.11-.09.2-.2.2h-.75c-.25,0-.36-.16-.36-.41v-.56c0-.84-.61-1.28-1.44-1.28-.38,0-1.07.07-1.44.12v.61c.34-.06.98-.1,1.32-.1.46,0,.8.2.8.66v.74c0,.11-.09.2-.2.2h-2.65c-.25,0-.36-.16-.36-.4v-1.44h-.76v1.65c0,.11-.09.2-.2.2h-1.07c-.25,0-.36-.15-.36-.41v-1.44h-.76v1.64c0,.11-.09.2-.2.2h-7.95c-.25,0-.36-.16-.36-.41v-2.83h-.76v3.7c0,.45-.3.72-.75.72-.5,0-.75-.36-.75-.92,0-.19.05-.51.08-.75h-.77c-.03.27-.09.62-.09.89,0,.9.65,1.39,1.54,1.39.81,0,1.44-.42,1.48-1.18v-.39c.07.21.28.42.55.42h7.83c.37,0,.64-.21.75-.43.07.21.28.43.55.43h1.1c.37,0,.64-.21.75-.43.07.21.28.43.55.43h2.68c.37,0,.64-.21.75-.43.07.21.28.43.55.43h.78c.37,0,.64-.21.75-.43.07.21.28.43.55.43h.56c.5,0,.9-.4.9-.9v-2.97h-.76Z"/>
  <polygon class="cls-1" points="58.23 39.48 57.82 39.9 57.4 39.48 56.96 39.92 57.4 40.36 57.82 39.95 58.23 40.36 58.67 39.92 58.23 39.48"/>
  <polygon class="cls-1" points="22.28 29.62 22.69 30.03 23.13 29.6 22.69 29.16 22.28 29.57 21.87 29.16 21.43 29.6 21.87 30.03 22.28 29.62"/>
  <rect class="cls-1" x="46" y="29.15" width=".76" height="3.87"/>
  <path class="cls-1" d="M44.52,32.18c0,.11-.09.2-.2.2h-.72c-.25,0-.36-.15-.36-.4.01-.07.02-.14.02-.19,0-.74-.53-1.24-1.28-1.24s-1.28.49-1.28,1.24c0,.3.08.52.12.6h-.67c-.25,0-.36-.15-.36-.4v-2.83h-.77v3.04c0,.11-.09.2-.2.2h-.71c-.25,0-.36-.15-.36-.4v-.09c0-.67-.55-1.24-1.23-1.24h-3.06l1.56-1.02-.35-.51-2.3,1.61.21.56h3.87c.28,0,.52.22.52.52v.37c0,.11-.09.2-.2.2h-5.16c-.25,0-.36-.16-.36-.4v-1.44h-.76v1.64c0,.11-.09.2-.2.2h-6.25c-.18,0-.29-.12-.29-.31v-1.91h-.76v.28c-.15-.01-.29-.03-.43-.03-.79,0-1.41.42-1.41,1.16v.41c0,.65.4,1.09,1.09,1.09.31,0,.63-.09.92-.26.13.15.33.22.56.22h6.61c.37,0,.64-.21.75-.43.07.21.28.43.55.43h5.2c.37,0,.64-.21.75-.43.07.21.28.43.55.43h.73c.37,0,.64-.21.75-.43.07.21.28.43.55.43h1.94c.35,0,.63-.18.83-.43.07.21.28.43.55.43h.87c.5,0,.9-.4.9-.9v-2.97h-.76v3.02ZM23,32.27c-.18.08-.35.14-.52.14-.33,0-.55-.21-.55-.48v-.33c0-.38.29-.56.69-.56.12,0,.25.01.39.03v1.2ZM41.98,32.38h-.44s-.08-.24-.08-.52c0-.39.15-.67.52-.67h.01c.36,0,.51.27.51.67,0,.28-.22.52-.52.52"/>
  <polygon class="cls-1" points="30.9 34.44 31.34 34 30.9 33.57 30.48 33.98 30.07 33.57 29.63 34 30.07 34.44 30.48 34.03 30.9 34.44"/>
  <path class="cls-1" d="M22.26,43.6c.28-.07.46-.27.46-.57,0-.4-.33-.6-.74-.6h-.82v1.99h.41v-.75h.19c.11,0,.19.06.26.15l.39.6h.47l-.35-.53c-.07-.11-.16-.2-.27-.28M21.95,43.36h0s-.38-.01-.38-.01v-.61h.38c.2,0,.36.1.37.3.01.21-.17.31-.37.31"/>
  <path class="cls-1" d="M23.69,42.94c-.45.01-.76.29-.76.74s.31.74.76.74.76-.29.76-.74-.31-.74-.76-.74M23.69,44.1c-.24,0-.36-.17-.36-.4s.12-.42.36-.42.36.18.36.41c0,.24-.12.42-.36.42"/>
  <polygon class="cls-1" points="25.37 43.94 24.99 42.99 24.99 43 24.55 43 25.2 44.4 24.97 45 25.33 45 26.09 42.99 25.71 42.99 25.37 43.94"/>
  <path class="cls-1" d="M27.26,43.2c-.1-.16-.26-.25-.48-.25-.42,0-.61.33-.61.74s.19.74.61.74c.23,0,.38-.1.48-.25v.21h.38v-1.42h-.38v.21ZM26.92,44.09c-.24,0-.34-.19-.34-.42s.1-.41.33-.41.33.18.33.42-.08.4-.31.4"/>
  <rect class="cls-1" x="27.97" y="42.38" width=".38" height="2.02"/>
  <path class="cls-1" d="M30.26,44.1c-.43,0-.69-.28-.69-.7s.25-.7.66-.7c.17,0,.33.05.48.11l.03-.02v-.3c-.2-.08-.41-.11-.62-.12-.6,0-.98.4-.98,1.01,0,.64.43,1.05,1.07,1.05.19,0,.37-.03.55-.11v-.32l-.03-.02c-.16.08-.31.12-.48.12"/>
  <path class="cls-1" d="M31.7,42.94c-.45.01-.76.29-.76.74s.31.74.76.74.76-.29.76-.74-.31-.74-.76-.74M31.7,44.1c-.24,0-.36-.17-.36-.4s.12-.42.36-.42.36.18.36.41c0,.24-.14.42-.36.42"/>
  <path class="cls-1" d="M34.49,42.95c-.25,0-.41.12-.5.31-.07-.19-.22-.31-.46-.31-.21,0-.37.11-.46.27v-.22h-.36v1.42h.38v-.64c.01-.26.06-.48.29-.48.21,0,.27.18.27.38v.74h.38v-.64c0-.26.06-.48.29-.48.21,0,.27.18.27.38v.74h.38v-.84c0-.35-.16-.63-.5-.62"/>
  <path class="cls-1" d="M37.06,42.95c-.25,0-.41.12-.5.31-.07-.19-.22-.31-.46-.31-.21,0-.37.11-.46.27v-.22h-.36v1.42h.38v-.64c0-.26.06-.48.29-.48.21,0,.27.18.27.38v.74h.38v-.64c.01-.26.06-.48.29-.48.21,0,.27.18.27.38v.74h.38v-.84c0-.35-.16-.63-.5-.62"/>
  <path class="cls-1" d="M39.22,43.52c-.16-.03-.34-.05-.34-.15,0-.08.12-.1.27-.1s.3.03.47.07h.02v-.33c-.17-.03-.33-.07-.51-.07-.36,0-.66.12-.66.43,0,.27.24.36.52.43.16.03.34.06.34.16,0,.09-.15.12-.29.12-.18,0-.34-.02-.51-.08h-.02v.33c.18.07.36.09.55.09.37,0,.69-.14.69-.45,0-.28-.25-.39-.53-.45"/>
  <path class="cls-1" d="M40.66,43.52c-.16-.03-.34-.05-.34-.15,0-.08.12-.1.27-.1s.3.03.47.07h.02v-.33c-.17-.03-.33-.07-.51-.07-.36,0-.66.12-.66.43,0,.27.24.36.52.43.16.03.34.06.34.16,0,.09-.15.12-.29.12-.18,0-.34-.02-.51-.08h-.02v.33c.18.07.36.09.55.09.37,0,.69-.14.69-.45,0-.28-.25-.39-.53-.45"/>
  <path class="cls-1" d="M42.82,42.94c-.45.01-.76.29-.76.74s.31.74.76.74.76-.29.76-.74-.31-.74-.76-.74M42.82,44.1c-.24,0-.36-.17-.36-.4s.12-.42.36-.42.36.18.36.41c0,.24-.12.42-.36.42"/>
  <path class="cls-1" d="M44.65,42.94c-.21,0-.37.11-.46.27v-.22h-.37v1.42h.38v-.55c0-.29.03-.57.3-.57.21,0,.27.17.27.38v.74h.38v-.84c0-.35-.15-.62-.51-.62"/>
  <path class="cls-1" d="M46.06,42.79v.21h-.2v.34h.21v1.07h.38v-1.07h.44v-.34h-.44v-.12c0-.14.09-.22.24-.22.09,0,.18.02.27.06h.01v-.3c-.11-.07-.24-.09-.37-.09-.3,0-.54.17-.54.47"/>
  <path class="cls-1" d="M47.74,42.94c-.45.01-.76.29-.76.74s.31.74.76.74.76-.29.76-.74-.31-.74-.76-.74M47.74,44.1c-.24,0-.36-.17-.36-.4s.12-.42.36-.42.36.18.36.41c0,.24-.12.42-.36.42"/>
  <path class="cls-1" d="M49.1,43.22v-.24h0s-.36-.01-.36-.01v1.42h.38v-.75c0-.25.18-.37.42-.37.03,0,.07,0,.11.01v-.34c-.24-.01-.43.08-.55.28"/>
  <path class="cls-1" d="M50.89,43.76c0,.2-.12.34-.34.34-.09,0-.17-.02-.26-.05l-.03.02v.29c.14.03.26.06.39.06.38,0,.64-.23.64-.61v-1.41h-.4v1.35Z"/>
  <path class="cls-1" d="M52.54,43.66c0,.24-.09.45-.33.45-.21,0-.29-.17-.29-.37v-.74h-.38v.83c0,.37.2.61.56.61.22,0,.38-.09.47-.25v.21h.35s0-1.41,0-1.41h-.38v.66Z"/>
  <path class="cls-1" d="M54.12,42.94c-.21,0-.36.08-.46.21v-.79h-.38v2.02h.36v-.21c.09.16.25.25.47.25.41,0,.61-.33.61-.74s-.19-.74-.6-.74M53.98,44.1c-.22,0-.33-.19-.33-.42s.1-.42.33-.42.33.19.33.42-.1.42-.33.42"/>
  <path class="cls-1" d="M55.96,43.2c-.1-.16-.26-.25-.48-.25-.42,0-.61.33-.61.74s.19.74.61.74c.22,0,.38-.1.48-.25v.21h.38v-1.42h-.38v.21ZM55.95,43.68c0,.22-.1.42-.31.41-.24,0-.34-.19-.34-.42s.11-.4.33-.4.33.18.33.42"/>
  <rect class="cls-1" x="56.67" y="42.99" width=".38" height="1.42"/>
  <polygon class="cls-1" points="56.63 42.54 56.87 42.78 57.11 42.54 56.87 42.3 56.63 42.54"/>
  <rect class="cls-1" x="57.38" y="42.38" width=".38" height="2.02"/>
  <path class="cls-1" d="M60.26,43.44h-.35c0,.16-.04.29-.12.4l-.34-.31c.19-.1.38-.21.38-.48s-.21-.46-.55-.46-.56.22-.56.48c0,.17.08.3.19.43-.18.09-.33.22-.33.46,0,.28.24.5.61.5.19,0,.38-.07.56-.18l.15.14h.47l-.36-.35c.15-.17.25-.38.25-.62M59.27,42.88c.11,0,.21.08.21.19,0,.12-.12.2-.27.27-.1-.1-.17-.18-.16-.27,0-.09.07-.19.21-.19M59.5,44.04c-.09.06-.19.08-.3.07-.16,0-.27-.1-.27-.21,0-.1.07-.17.17-.23l.41.37Z"/>
  <polygon class="cls-1" points="62.3 42.41 61.89 43.21 61.44 42.41 60.95 42.41 61.65 43.56 61.65 44.41 62.07 44.41 62.07 43.56 62.71 42.41 62.3 42.41"/>
  <path class="cls-1" d="M63.53,43.2c-.1-.16-.26-.25-.48-.25-.42,0-.61.33-.61.74s.19.74.61.74c.22,0,.38-.1.48-.25v.21h.38v-1.42h-.38v.21ZM63.51,43.68c.01.22-.09.42-.31.41-.24,0-.34-.19-.34-.42s.11-.4.33-.4.33.18.33.42"/>
  <path class="cls-1" d="M65.06,42.94c-.21,0-.37.11-.46.27v-.22h-.37v1.42h.38v-.55c0-.29.04-.57.3-.57.21,0,.27.17.27.38v.74h.38v-.84c0-.35-.15-.62-.51-.62"/>
  <path class="cls-1" d="M66.71,42.94c-.21,0-.36.08-.46.21v-.79h-.38v2.02h.36v-.21c.09.16.25.25.47.25.41,0,.61-.33.61-.74s-.19-.74-.6-.74M66.58,44.1c-.22,0-.33-.19-.33-.42s.1-.42.33-.42.33.19.33.42-.1.42-.33.42"/>
  <path class="cls-1" d="M68.51,43.66c0,.24-.09.45-.33.45-.21,0-.29-.17-.29-.37v-.74h-.38v.83c0,.37.2.61.56.61.22,0,.38-.09.47-.25v.21h.35s0-1.41,0-1.41h-.38v.66Z"/>
  <rect class="cls-1" x="41.42" y="42.99" width=".38" height="1.42"/>
  <rect class="cls-1" x="41.45" y="42.37" width=".35" height=".34" transform="translate(-17.89 41.89) rotate(-45)"/>
  <rect class="cls-1" x="37.85" y="42.99" width=".38" height="1.42"/>
  <rect class="cls-1" x="37.86" y="42.37" width=".35" height=".34" transform="translate(-18.94 39.35) rotate(-45)"/>
  <path class="cls-1" d="M48.3,8.21l.06.02,1.05.36,3.13,1.08s.03.01.05.03l4.42,5.5.44.55,1.11,1.38.43.54-1.26.42-9.43,3.14v-13.04M48.05,7.86v13.73c3.79-1.26,7.57-2.52,11.35-3.79-.02-.03-.04-.05-.05-.07-.57-.71-1.14-1.42-1.71-2.13-1.62-2.02-3.24-4.03-4.86-6.05-.05-.06-.1-.09-.16-.11-1.39-.48-2.78-.96-4.18-1.45-.13-.04-.26-.09-.39-.13h0Z"/>
  <path class="cls-1" d="M40.82,5.61s.05.02.08.03l1.14.39c1.8.62,3.6,1.25,5.4,1.87v13.38s-.51-.13-.51-.13l-.4-.11-.33-.09c-.96-.25-1.93-.5-2.86-.73-.84-1.18-1.68-2.37-2.5-3.51v-8.58s0-2.52,0-2.52M40.57,5.26v.08c0,3.79,0,7.58,0,11.37,0,.03.01.08.03.1.84,1.19,1.68,2.37,2.52,3.55.02.03.07.06.11.07,1.08.28,2.15.57,3.23.85.4.11.81.21,1.23.32v-.08c0-4.57,0-9.14,0-13.72,0-.06-.02-.08-.07-.1-2.21-.77-4.43-1.53-6.64-2.3-.13-.05-.27-.09-.41-.14h0Z"/>
  <path class="cls-1" d="M43.42,10.46c-.05.06-.09.1-.12.14-.26.31-.47.65-.58,1.04,0,.03,0,.07,0,.09.11.15.24.28.41.39.07-.56.35-.99.73-1.39v2.72c-.33-.21-.66-.38-1.01-.51-.35-.13-.72-.22-1.11-.25.12.18.23.35.34.51.02.03.06.06.1.07.36.08.7.21,1.02.38.15.08.3.17.46.26-.42.22-.85.34-1.3.39.13.14.24.26.36.39.04.04.08.05.14.04.56-.12,1.08-.35,1.55-.69.51-.37,1.06-.64,1.67-.79.03,0,.07-.03.09-.06.11-.15.21-.31.31-.46.01-.01.02-.03.03-.05-.77.07-1.46.34-2.11.76v-2.72c.38.4.66.83.73,1.39.15-.1.28-.23.39-.36.04-.04.04-.08.02-.13-.11-.33-.28-.63-.49-.91-.06-.08-.13-.16-.2-.25.38.11.7.3,1.02.53,0-.2,0-.38,0-.56,0-.03-.03-.08-.06-.1-.26-.16-.54-.29-.84-.37-.03,0-.06-.02-.11-.03.22-.13.42-.24.64-.37-.13-.11-.24-.21-.36-.31-.04-.03-.07-.03-.12,0-.18.12-.37.23-.56.34-.02.01-.04.02-.07.04,0-.21,0-.41,0-.61,0-.04,0-.08-.06-.07-.13,0-.26,0-.39,0-.05,0-.06.02-.06.07,0,.14,0,.28,0,.42v.2s-.06-.04-.08-.05c-.18-.11-.36-.23-.55-.34-.02-.01-.06-.02-.08-.01-.14.09-.27.2-.37.34.21.12.41.24.62.36-.05.01-.07.02-.1.03-.3.09-.58.21-.84.37-.03.02-.06.04-.07.07-.03.19-.04.38,0,.59.31-.23.63-.41,1.01-.53"/>
  <path class="cls-1" d="M45.88,14.31s-.03-.01-.04-.01c-.36-.04-.71-.13-1.04-.28-.02,0-.04,0-.05,0-.15.1-.3.21-.45.31.36.2.74.33,1.13.41.02,0,.06,0,.07-.02.13-.13.25-.27.38-.41"/>
  <path class="cls-1" d="M44.45.25c.35,0,.63.13.85.4.54.68,1.09,1.35,1.63,2.03l.18.22-.17.04-.39.1-2.3.57-2.54.63-6.21,1.54-.7.17c-.46.11-.92.23-1.36.34-1.25-1.77-2.5-3.53-3.75-5.3-.1-.14-.12-.31-.06-.46.06-.15.18-.25.33-.27.04,0,.09,0,.13,0h14.37M44.45,0h-14.37c-.05,0-.11,0-.16,0-.48.08-.77.66-.44,1.12,1.27,1.79,2.54,3.58,3.81,5.37.02.03.04.05.07.05.01,0,.02,0,.04,0,.72-.18,1.44-.36,2.15-.53,2.07-.51,4.14-1.03,6.21-1.54,1.61-.4,3.23-.8,4.84-1.2.31-.08.62-.15.94-.23-.01-.02-.02-.03-.03-.04-.67-.84-1.35-1.68-2.02-2.52C45.23.16,44.88,0,44.45,0h0Z"/>
  <path class="cls-1" d="M33.69,8.13l1,1.41,1.38,1.94,1.72,2.43,2.16,3.03c0,.8,0,1.59,0,2.39l-.18-.05-4.16-1.09-1.5-.39c-.25-.07-.41-.28-.41-.54v-9.13M33.44,7.35v9.91c0,.37.24.69.6.78,1.89.49,3.78.99,5.67,1.48.16.04.32.08.49.13,0-.03,0-.05,0-.07,0-.88,0-1.76,0-2.64,0-.04-.02-.08-.04-.11-1.3-1.83-2.59-3.66-3.89-5.49-.92-1.3-1.85-2.6-2.77-3.91-.02-.02-.03-.04-.06-.08h0Z"/>
  <path class="cls-1" d="M39.95,5.56v9.91l-5.24-7.39-.74-1.04,1.93-.48,4.04-1M40.2,5.24c-2.22.55-4.42,1.1-6.64,1.65,2.21,3.12,4.42,6.24,6.62,9.35,0,0,0,0,.01,0V5.24h0Z"/>
  <path class="cls-1" d="M54.1,10.21l.07.02.94.33c1.69.59,3.38,1.17,5.07,1.76.24.09.37.2.43.38.02.06.03.12.03.17,0,1.29,0,2.58,0,3.86,0,.24-.1.4-.32.49-.14.06-.28.11-.43.15h-.03s-3.13-3.88-3.13-3.88l-2.64-3.28M53.38,9.7s0,0,0,.01c2.13,2.65,4.27,5.31,6.4,7.96.22-.07.44-.13.65-.23.3-.14.46-.39.46-.72,0-1.29,0-2.58,0-3.87,0-.08-.02-.17-.04-.25-.1-.29-.31-.44-.59-.54-2.01-.69-4.01-1.39-6.01-2.08-.29-.1-.57-.2-.86-.3h0Z"/>
  <path class="cls-1" d="M47.42,3.7v3.29l-3.11-1.08-2.42-.84,1.8-.44,3.73-.92M47.67,3.38c-2.21.55-4.42,1.1-6.62,1.64v.02c2.21.76,4.41,1.53,6.62,2.3v-3.96h0Z"/>
  <path class="cls-1" d="M40.82,20.44l.33.08c.54.14,1.09.28,1.64.43.35.5.7.99,1.05,1.49l.16.23-.41.14-.18.06-2,.67c-.05.02-.1.03-.15.03-.25,0-.45-.2-.45-.45,0-.7,0-1.39,0-2.09v-.57M40.57,20.12s0,.05,0,.06c0,.98,0,1.95,0,2.92,0,.41.32.7.7.7.08,0,.16-.01.23-.04.72-.24,1.45-.48,2.17-.72.24-.08.48-.16.72-.24-.01-.02-.02-.03-.02-.04-.47-.66-.94-1.32-1.41-1.99-.02-.03-.06-.05-.1-.06-.55-.15-1.11-.29-1.66-.44-.21-.05-.41-.11-.63-.16h0Z"/>
  <path class="cls-1" d="M48.3,4.37l.42.52,2.83,3.52-3.25-1.13v-2.63s0-.29,0-.29M48.07,3.69s-.01,0-.02,0v.08c0,1.2,0,2.41,0,3.61,0,.07.02.09.08.11,1.18.41,2.36.82,3.54,1.23.2.07.4.14.62.22-1.42-1.76-2.82-3.51-4.22-5.25h0Z"/>
  <path class="cls-1" d="M44.08,21.3l1.26.33,1.02.27-.06.02-1.44.48-.7-.99-.08-.11M43.48,20.88c.43.61.86,1.21,1.28,1.8.82-.27,1.63-.54,2.44-.81,0,0,0-.01,0-.02-1.23-.32-2.46-.64-3.71-.97h0Z"/>
  <path class="cls-1" d="M40.82,18.18l.44.62.76,1.07-.67-.17-.53-.14c0-.45,0-.91,0-1.37M40.57,17.4c0,.78,0,1.54,0,2.3,0,.06.03.06.07.07.51.13,1.02.27,1.53.4.14.04.28.07.44.12-.69-.97-1.36-1.92-2.04-2.88h0Z"/>
</svg>