<?xml version="1.0" encoding="UTF-8"?>
<svg id="Layer_1" data-name="Layer 1" xmlns="http://www.w3.org/2000/svg" viewBox="0 0 90 45">
  <defs>
    <style>
      .cls-1 {
        fill: #fff;
      }
    </style>
  </defs>
  <g>
    <g>
      <path class="cls-1" d="M2.32,21.54c-.97,0-2.32-.72-2.32-2.85s.9-3.02,2.32-3.02h2.38v4.83h1.47v1.04h-3.85ZM3.63,16.63h-1.27c-1,0-1.24,1.28-1.24,2.06s.34,1.81,1.24,1.81h1.27v-3.87ZM1.93,14.54v-1.17h1.07v1.17h-1.07ZM3.61,14.54v-1.17h1.07v1.17h-1.07Z"/>
      <path class="cls-1" d="M5.58,23.8v-1.17h1.08v1.17h-1.08ZM9.79,21.54c-.85-.01-1.52-.29-1.93-.8-.4.53-1.04.8-1.87.8h-.19v-1.04h.19c.8,0,1.28-.46,1.28-1.23v-3.6h1.08v3.64c0,.77.55,1.19,1.44,1.19h.19v1.04h-.19ZM7.29,23.8v-1.17h1.07v1.17h-1.07Z"/>
      <path class="cls-1" d="M13.59,21.54c-.85-.01-1.52-.29-1.93-.8-.4.53-1.04.8-1.87.8h-.19v-1.04h.19c.8,0,1.28-.46,1.28-1.23v-5.89h1.08v5.92c0,.77.55,1.19,1.44,1.19h.19v1.04h-.19Z"/>
      <path class="cls-1" d="M13.54,21.54v-1.04h3.99c0-3.92-3.23-3.74-3.23-3.74v-.98c2.97,0,4.29,2.16,4.29,4.72v1.04h-5.06ZM15.36,14.55v-1.18h1.08v1.18h-1.08Z"/>
      <path class="cls-1" d="M19.81,21.54v-8.17h1.08v8.17h-1.08Z"/>
      <path class="cls-1" d="M22.1,21.54v-1.04h2.66v-2.2c0-1.38-.23-1.77-.98-1.77l.18-.98c.77,0,1.36.35,1.67.95.18.33.2.55.2,1.23v2.76h1.62v1.04h-5.35Z"/>
      <path class="cls-1" d="M27.07,21.54v-1.04c1,0,1.52-.55,1.52-1.49v-5.63h1.08v5.68c0,1.54-1.02,2.48-2.6,2.48Z"/>
      <path class="cls-1" d="M30.88,21.54v-8.17h1.08v8.17h-1.08Z"/>
      <path class="cls-1" d="M37.75,21.54c-1.52,0-2.41-.9-2.41-2.9s.93-2.97,2.41-2.97,2.41,1.05,2.41,3.01-.88,2.86-2.41,2.86ZM36.4,14.55v-1.17h1.05v1.17h-1.05ZM37.75,16.59c-.87,0-1.29.59-1.29,2.05s.43,1.86,1.29,1.86,1.32-.46,1.32-1.83c0-1.48-.43-2.07-1.32-2.07ZM38.09,14.55v-1.17h1.05v1.17h-1.05Z"/>
      <path class="cls-1" d="M40.68,23.8v-.95c.41-.03.87-.34,1.05-.82.21-.49.18-1.12.18-1.46v-4.91h1.08v5.58c0,1.34-.84,2.6-2.31,2.55Z"/>
      <path class="cls-1" d="M44.2,21.54v-8.17h1.08v8.17h-1.08Z"/>
      <path class="cls-1" d="M45.79,23.8v-.95c.41-.03.87-.34,1.05-.82.21-.49.18-1.12.18-1.46v-4.91h1.08v5.58c0,1.34-.84,2.6-2.31,2.55ZM47.01,14.55v-1.17h1.07v1.17h-1.07Z"/>
      <path class="cls-1" d="M51.74,24.17h-.04v-.97c.95,0,1.24-1.09,1.22-1.86-.23.55-.7.82-1.39.82-1.42,0-2.22-1.14-2.22-3.26s.85-3.24,2.26-3.24h2.42v5.96c0,1.59-.98,2.55-2.25,2.55ZM52.93,16.63h-1.24c-1.08,0-1.27,1.44-1.27,2.23,0,.85.14,2.32,1.27,2.32s1.24-1.41,1.24-2.25v-2.31Z"/>
    </g>
    <g>
      <path class="cls-1" d="M1.08,32.5c-.45,0-1.08-.33-1.08-1.33s.42-1.41,1.08-1.41h1.11v2.25h.68v.49h-1.79ZM1.69,30.21h-.59c-.47,0-.58.6-.58.96s.16.84.58.84h.59v-1.8ZM.9,29.24v-.54h.5v.54h-.5ZM1.68,29.24v-.54h.5v.54h-.5Z"/>
      <path class="cls-1" d="M2.53,33.55v-.54h.5v.54h-.5ZM2.73,32.5v-.49c.47,0,.68-.26.68-.7v-1.56h.5v1.58c0,.72-.44,1.16-1.18,1.16ZM3.32,33.55v-.54h.5v.54h-.5Z"/>
      <path class="cls-1" d="M4.48,32.5v-.49h1.24v-1.02c0-.64-.11-.82-.46-.82l.08-.46c.36,0,.63.16.78.44.08.15.09.26.09.57v1.77h-1.74Z"/>
      <path class="cls-1" d="M8.96,32.5h0c-.05.66-.5,1.05-1.05,1.05h-.02v-.44c.32-.01.55-.34.55-.61h-.58c-.45,0-1.08-.33-1.08-1.33s.42-1.41,1.08-1.41h1.11v2.25h.68v.49h-.7ZM8.47,30.21h-.59c-.47,0-.58.6-.58.96s.16.84.58.84h.59v-1.8Z"/>
      <path class="cls-1" d="M11.98,32.5c-.19,0-.39-.04-.57-.1-.19.06-.39.1-.57.1h-1.35v-.49h1.36l-.93-.85c0-.78.55-1.43,1.5-1.43s1.5.65,1.5,1.43l-.93.85h1.35v.49h-1.35ZM11.42,30.18h-.01c-.57-.01-.95.42-.95.88.24.23.95.88.95.88l.95-.88c0-.45-.37-.87-.94-.88Z"/>
      <path class="cls-1" d="M13.18,32.5v-.49h.96v-2.22h.49v2.22h.88v-2.25h.5v2.25h.95v-2.25h.5v2.25h.68v.49h-4.96Z"/>
      <path class="cls-1" d="M17.98,32.5v-.49c.47,0,.71-.26.71-.7v-2.63h.5v2.65c0,.72-.47,1.16-1.21,1.16Z"/>
      <path class="cls-1" d="M19.76,32.5v-3.81h.5v3.81h-.5Z"/>
      <path class="cls-1" d="M22.91,32.5c-.45,0-1.08-.33-1.08-1.33s.42-1.41,1.08-1.41h1.11v2.25h.68v.49h-1.79ZM23.52,30.21h-.59c-.47,0-.58.6-.58.96s.16.84.58.84h.59v-1.8ZM22.73,29.24v-.54h.5v.54h-.5ZM23.52,29.24v-.54h.5v.54h-.5Z"/>
      <path class="cls-1" d="M24.43,33.55v-.54h.5v.54h-.5ZM26.39,32.5c-.4,0-.71-.13-.9-.37-.19.25-.49.37-.87.37h-.09v-.49h.09c.37,0,.6-.22.6-.57v-1.68h.5v1.7c0,.36.26.56.67.56h.09v.49h-.09ZM25.23,33.55v-.54h.5v.54h-.5Z"/>
      <path class="cls-1" d="M26.33,32.5v-.49c.47,0,.68-.26.68-.7v-1.56h.5v1.58c0,.72-.44,1.16-1.18,1.16ZM26.98,33.55v-.54h.5v.54h-.5Z"/>
      <path class="cls-1" d="M29.5,32.5c-.26,0-.49-.06-.66-.18v.04c0,.63-.39,1.21-1.08,1.19v-.44c.19-.01.4-.16.49-.38.1-.23.08-.52.08-.68v-2.29h.5v1.72c0,.34.26.53.66.53h.06v.49h-.06Z"/>
      <path class="cls-1" d="M31.91,32.5c-.19,0-.39-.04-.57-.1-.19.06-.39.1-.57.1h-1.35v-.49h1.36l-.93-.85c0-.78.55-1.43,1.5-1.43s1.5.65,1.5,1.43l-.93.85h1.35v.49h-1.35ZM31.35,30.18h-.01c-.57-.01-.95.42-.95.88.24.23.95.88.95.88l.95-.88c0-.45-.37-.87-.94-.88Z"/>
      <path class="cls-1" d="M33.08,32.5v-.49c.47,0,.71-.26.71-.7v-2.63h.5v2.65c0,.72-.47,1.16-1.21,1.16Z"/>
      <path class="cls-1" d="M34.85,32.5v-3.81h.5v3.81h-.5Z"/>
      <path class="cls-1" d="M38.01,32.5c-.45,0-1.08-.33-1.08-1.33s.42-1.41,1.08-1.41h1.11v2.25h.68v.49h-1.79ZM38.62,30.21h-.59c-.47,0-.58.6-.58.96s.16.84.58.84h.59v-1.8ZM37.83,29.24v-.54h.5v.54h-.5ZM38.61,29.24v-.54h.5v.54h-.5Z"/>
      <path class="cls-1" d="M39.63,32.5v-.49h2.45v-.87c0-.43-.23-.64-.7-.64h-1.53v-.86c0-.57.43-.95,1.09-.95h1.03v.49h-1.03c-.37,0-.61.2-.61.47v.35h1.05c.72,0,1.16.4,1.15,1.11v.89h.51v.49h-3.41Z"/>
      <path class="cls-1" d="M44.73,32.5c-.4,0-.71-.13-.9-.37-.19.25-.49.37-.87.37h-.09v-.49h.09c.37,0,.6-.22.6-.57v-2.74h.5v2.76c0,.36.26.56.67.56h.09v.49h-.09Z"/>
      <path class="cls-1" d="M48.26,32.5c-.31,0-.57-.09-.75-.24-.17.5-.53.77-1.04.77s-.86-.26-1.03-.74c-.18.13-.41.2-.7.2h-.09v-.49h.09c.34,0,.56-.15.57-.5.04-.88.47-1.42,1.16-1.42s1.1.51,1.13,1.37c0,.36.26.56.67.56h.09v.49h-.09ZM46.46,30.53c-.42,0-.61.34-.61,1.02s.2.99.61.99.62-.34.62-.98c0-.69-.2-1.03-.62-1.03Z"/>
      <path class="cls-1" d="M51.79,32.5c-.31,0-.57-.09-.75-.24-.17.5-.53.77-1.04.77s-.86-.26-1.03-.74c-.18.13-.41.2-.7.2h-.09v-.49h.09c.34,0,.56-.15.57-.5.04-.88.47-1.42,1.16-1.42s1.1.51,1.13,1.37c0,.36.26.56.67.56h.09v.49h-.09ZM49.99,30.53c-.42,0-.61.34-.61,1.02s.2.99.61.99.62-.34.62-.98c0-.69-.2-1.03-.62-1.03Z"/>
      <path class="cls-1" d="M51.71,32.5v-.49c.47,0,.71-.26.71-.7v-2.63h.5v2.65c0,.72-.47,1.16-1.21,1.16Z"/>
      <path class="cls-1" d="M53.48,32.5v-3.81h.5v3.81h-.5Z"/>
    </g>
  </g>
  <g id="Layer_2" data-name="Layer 2">
    <g>
      <path class="cls-1" d="M70.03,32.97c-3.21.17-3.57.62-3.57.62,1.9.29,3.98-.48,3.98-.48l-.41-.14Z"/>
      <path class="cls-1" d="M68.4,32.17c-1.88-.14-2.99.05-2.99.05,0,0-.68.1-.03.24,2.2.28,3.38-.1,3.38-.1l-.36-.19Z"/>
      <path class="cls-1" d="M67.03,31.26c-.72-.29-2.67-.35-2.96-.35s-.41.09-.02.24c1.9.57,3.33.36,3.33.36l-.36-.26Z"/>
      <path class="cls-1" d="M65.67,30.05c-1.87-.59-2.59-.56-2.79-.56-.21,0-.27.02,0,.16,2.06.79,3.08.68,3.08.68l-.29-.27Z"/>
      <path class="cls-1" d="M64.78,29.02c-.3-.29-2.17-.78-2.49-.82-.33-.05-.46,0-.08.21.97.55,2.77.82,2.77.82l-.19-.2Z"/>
      <path class="cls-1" d="M64.01,27.97c-.17-.16-2.1-1.09-2.31-1.16-.2-.07-.46-.1-.09.21,1.55,1.12,2.4,1.16,2.54,1.16l-.15-.21Z"/>
      <path class="cls-1" d="M63.37,26.79c-.09-.17-1.71-1.2-1.98-1.3-.27-.1-.41-.16-.09.23.8.73,2.22,1.42,2.22,1.42l-.15-.35Z"/>
      <path class="cls-1" d="M62.91,25.68c-.07-.19-1.57-1.24-1.76-1.37-.19-.13-.49-.26-.13.16.72.72,1.97,1.4,1.97,1.4l-.07-.19Z"/>
      <path class="cls-1" d="M62.54,24.49c-.18-.27-1.18-1.2-1.54-1.48-.36-.28-.4-.17-.18.12.81,1.02,1.81,1.62,1.81,1.62l-.09-.25Z"/>
      <path class="cls-1" d="M62.27,23.1c-.08-.15-1.01-1.36-1.32-1.63-.31-.27-.26-.06-.08.23.2.44,1.48,1.73,1.48,1.73l-.08-.33Z"/>
      <path class="cls-1" d="M62.18,21.64c-.14-.31-.76-1.28-.96-1.58-.2-.3-.39-.41-.23,0,.48,1.11,1.21,1.88,1.21,1.88v-.3Z"/>
      <path class="cls-1" d="M62.28,20.3c-.04-.15-.62-1.7-.75-1.91-.14-.21-.25-.27-.16.1.22,1.08.86,2.08.86,2.08l.05-.27Z"/>
      <path class="cls-1" d="M62.56,18.76c-.02-.15-.41-1.5-.48-1.69-.07-.19-.24-.41-.23-.06.17,1.4.63,2.05.63,2.05l.08-.29Z"/>
      <path class="cls-1" d="M62.92,17.48c-.03-.87-.17-1.58-.18-1.74-.01-.16-.13-.36-.16-.05-.09,1.14.25,2.12.25,2.12l.09-.33Z"/>
      <path class="cls-1" d="M63.49,16.03s-.04-1.15-.07-1.42c-.02-.27-.15-.36-.16-.07-.07.94.07,1.81.07,1.81l.15-.32Z"/>
      <path class="cls-1" d="M64.15,14.95c.12-.53.11-1.53.11-1.57s-.02-.16-.07-.03c-.24.65-.19,1.84-.19,1.84l.15-.24Z"/>
      <path class="cls-1" d="M64.95,13.92c.07-.21.24-1.34.24-1.52s-.1-.02-.1-.02c-.31.59-.33,1.79-.33,1.79l.19-.25Z"/>
      <path class="cls-1" d="M65.75,13.02c.07-.12.44-1.24.45-1.44.02-.2-.11-.04-.11-.04-.32.49-.55,1.68-.55,1.68l.21-.2Z"/>
      <path class="cls-1" d="M66.8,12.22c.11-.2.43-1.2.46-1.36.03-.15-.1-.04-.1-.04-.43.82-.53,1.55-.53,1.55l.17-.15Z"/>
      <path class="cls-1" d="M68,11.24c.16-.17.51-.95.53-1.07.02-.13-.07-.03-.07-.03-.31.43-.64,1.21-.64,1.21l.18-.11Z"/>
      <path class="cls-1" d="M68.37,11.11c.85-.18,1.57-.68,1.67-.73.1-.06.1-.12-.07-.08-1.23.37-1.64.8-1.64.8h.04Z"/>
      <path class="cls-1" d="M67.16,11.9c.58.14,1.41.08,1.62.08.21,0,.29-.09.04-.14-.43-.08-1.52-.07-1.52-.07l-.14.13Z"/>
      <path class="cls-1" d="M66.14,12.81c.65,0,1.4-.11,1.64-.14.24-.03.33-.16.1-.16-.55,0-1.56.13-1.56.13l-.18.17Z"/>
      <path class="cls-1" d="M65.15,13.84c.27-.01,1.24-.16,1.71-.3.48-.13.2-.19-.05-.18-.25,0-1.51.29-1.51.29l-.15.19Z"/>
      <path class="cls-1" d="M64.34,14.95s.95-.12,1.64-.4c.69-.28-.05-.18-.05-.18-.77.13-1.47.39-1.47.39l-.12.19Z"/>
      <path class="cls-1" d="M63.66,16.18c.12-.04,1.25-.37,1.78-.67.54-.3.29-.31-.1-.21-.79.24-1.54.63-1.54.63l-.14.25Z"/>
      <path class="cls-1" d="M63.14,17.27c.65-.17,1.76-.76,1.88-.83s.43-.31-.11-.17c-.54.13-1.63.68-1.63.68l-.15.32Z"/>
      <path class="cls-1" d="M62.68,18.47c.54-.15,1.62-.76,1.94-.98.32-.22.21-.32-.14-.19-.71.29-1.71.93-1.71.93l-.09.25Z"/>
      <path class="cls-1" d="M62.5,19.9c.39-.08,1.56-1.03,1.85-1.33.29-.29.06-.28-.14-.16-1.17.72-1.66,1.3-1.66,1.3l-.04.18Z"/>
      <path class="cls-1" d="M62.48,21.17c.23-.12,1.22-.86,1.64-1.35.42-.5.2-.4-.13-.18-.56.36-1.49,1.33-1.49,1.33l-.02.21Z"/>
      <path class="cls-1" d="M62.54,22.47c.38-.22,1.38-1.34,1.58-1.62.2-.28.12-.33-.15-.11-.8.61-1.45,1.59-1.45,1.59l.02.15Z"/>
      <path class="cls-1" d="M62.78,24.07c.36-.26,1.23-1.63,1.44-2.1.22-.47.05-.42-.23-.12-.66.78-1.28,2.02-1.28,2.02l.06.2Z"/>
      <path class="cls-1" d="M63.24,25.35c.23-.27,1.1-1.79,1.26-2.24.16-.44.17-.62-.24-.15-.41.47-1.11,2.12-1.11,2.12l.1.27Z"/>
      <path class="cls-1" d="M63.61,26.59c.44-.42,1.11-2.33,1.15-2.47.04-.14.25-.74-.21-.12-.46.62-1.01,2.41-1.01,2.41l.07.18Z"/>
      <path class="cls-1" d="M64.34,27.6c.35-.3.76-2.09.82-2.55.06-.45.03-.64-.26-.09-.29.56-.68,2.46-.68,2.46l.12.17Z"/>
      <path class="cls-1" d="M65.19,28.72c.22-.4.45-2.33.44-2.84,0-.51-.07-.75-.3-.05-.23.71-.35,2.62-.35,2.62l.21.26Z"/>
      <path class="cls-1" d="M66.1,29.64c.14-.46.21-2.35.21-2.74,0-.4-.15-1.03-.32-.08-.17.94-.12,2.6-.12,2.6l.23.23Z"/>
      <path class="cls-1" d="M67.13,30.62c.16-.26.01-2.15-.13-2.83-.14-.67-.26-.77-.33,0-.07.77.24,2.66.24,2.66l.22.17Z"/>
      <path class="cls-1" d="M68.45,31.46c.02-.75-.34-2.36-.55-2.94-.2-.58-.42-.83-.34.09.08.92.68,2.75.68,2.75l.2.09Z"/>
      <path class="cls-1" d="M69.75,32.14c-.01-.56-.52-2.29-.83-2.88s-.48-.78-.32.1c.15.88.95,2.72.95,2.72l.2.06Z"/>
      <path class="cls-1" d="M71.11,32.61c0-.29-.59-2.16-.92-2.75-.33-.59-.45-.6-.31.1.14.71.92,2.58.92,2.58l.31.07Z"/>
      <path class="cls-1" d="M69.77,32.99s-.74-.63-1.33-.57c-.09.01-.28-.23-.28-.23,0,0-.6-.71-1.11-.66-.09,0-.26-.32-.26-.32,0,0-.62-.79-1.16-.89l-.27-.35s-.03-.45-.77-.83c-.09-.04-.17-.31-.17-.31,0,0-.19-.49-.6-.71l-.03-.27s-.04-.49-.6-.91c-.08-.06,0-.3,0-.3,0,0-.04-.61-.63-1.03-.06-.04.12-.13.12-.13,0,0,.05-.66-.29-.92l.02-.22s.11-.54-.25-1.14c-.05-.08,0-.26,0-.26,0,0,.16-.71-.16-1.26-.05-.09.09-.21.09-.21,0,0,.21-.56-.01-1.21-.04-.11.11-.21.11-.21,0,0,.41-.39.11-1.36-.03-.11.2-.11.2-.11,0,0,.42-.28.25-1.1-.03-.12.1-.32.1-.32,0,0,.48.12.46-1.19l.17-.09s.36-.09.54-.95c.02-.11.14-.01.14-.01,0,0,.61-.48.63-.9l.19-.2s.39-.12.59-.66l.21-.19s.69-.42.91-.82l.21-.15s.68-.33.94-.68l.17-.11s.26-.07.79-.4l-.25.23s-.77.37-1.01.73l-.19.13s-.57.25-.89.73l-.15.16s-.52.31-.78.81l-.1.2s-.62.41-.65.86l-.02.2s-.63.22-.73.98l-.14.27s-.28.28-.3.7l-.15.35s-.27.26-.24.85l-.13.31s-.35.66-.2,1.1v.28s-.32.6-.12,1.02c0,0,.06.12.09.19-.19.46-.1.95-.07,1.1,0,0,.05.14.07.22-.21.14-.11.82.07,1.36,0,0,.25.02.24.06-.15.62.08.96.14,1.1l.21.22s-.13.66.24.89c.07.04.2.23.2.23,0,0-.08.66.4.88l.22.27s-.07.54.46.86l.3.21s-.09.57.56.81l.31.05s-.06.75.69.94l.33.11s-.03.43,1.02.9l.2.03s.08.39,1.04.6l.22-.18s.23.74,1,.61l.17.22s1.7.59,3.33.52c.04,0,.32,0,.41,0,1.24-.04,2.5.39,2.5.39,0,0,0,0,0,0,1.57.57,3.02,1.65,3.02,1.65l-1.59.66c-2.13-2.13-4.13-1.94-4.33-1.93,0,0-.2,0-.47,0-.75-.04-1.99-.25-2.44-.36,0,0-.77-.18-.85-.23l-.64-.12Z"/>
      <g>
        <path class="cls-1" d="M78.48,32.97c3.21.17,3.57.62,3.57.62-1.9.29-3.98-.48-3.98-.48l.41-.14Z"/>
        <path class="cls-1" d="M80.11,32.17c1.88-.14,2.99.05,2.99.05,0,0,.68.1.03.24-2.2.28-3.38-.1-3.38-.1l.36-.19Z"/>
        <path class="cls-1" d="M81.48,31.26c.72-.29,2.67-.35,2.96-.35s.41.09.02.24c-1.9.57-3.33.36-3.33.36l.36-.26Z"/>
        <path class="cls-1" d="M82.84,30.05c1.87-.59,2.59-.56,2.79-.56.21,0,.27.02,0,.16-2.06.79-3.08.68-3.08.68l.29-.27Z"/>
        <path class="cls-1" d="M83.73,29.02c.3-.29,2.17-.78,2.49-.82.33-.05.46,0,.08.21-.97.55-2.77.82-2.77.82l.19-.2Z"/>
        <path class="cls-1" d="M84.5,27.97c.17-.16,2.1-1.09,2.31-1.16.2-.07.46-.1.09.21-1.55,1.12-2.4,1.16-2.54,1.16l.15-.21Z"/>
        <path class="cls-1" d="M85.14,26.79c.09-.17,1.71-1.2,1.98-1.3.27-.1.41-.16.09.23-.8.73-2.22,1.42-2.22,1.42l.15-.35Z"/>
        <path class="cls-1" d="M85.61,25.68c.07-.19,1.57-1.24,1.76-1.37.19-.13.49-.26.13.16-.72.72-1.97,1.4-1.97,1.4l.07-.19Z"/>
        <path class="cls-1" d="M85.98,24.49c.18-.27,1.18-1.2,1.54-1.48.36-.28.4-.17.18.12-.81,1.02-1.81,1.62-1.81,1.62l.09-.25Z"/>
        <path class="cls-1" d="M86.24,23.1c.08-.15,1.01-1.36,1.32-1.63.31-.27.26-.06.08.23-.2.44-1.48,1.73-1.48,1.73l.08-.33Z"/>
        <path class="cls-1" d="M86.34,21.64c.14-.31.76-1.28.96-1.58.2-.3.39-.41.23,0-.48,1.11-1.21,1.88-1.21,1.88v-.3Z"/>
        <path class="cls-1" d="M86.23,20.3c.04-.15.62-1.7.75-1.91.14-.21.25-.27.16.1-.22,1.08-.86,2.08-.86,2.08l-.05-.27Z"/>
        <path class="cls-1" d="M85.95,18.76c.02-.15.41-1.5.48-1.69.07-.19.24-.41.23-.06-.17,1.4-.63,2.05-.63,2.05l-.08-.29Z"/>
        <path class="cls-1" d="M85.59,17.48c.03-.87.17-1.58.18-1.74.01-.16.13-.36.16-.05.09,1.14-.25,2.12-.25,2.12l-.09-.33Z"/>
        <path class="cls-1" d="M85.02,16.03s.04-1.15.07-1.42c.02-.27.15-.36.16-.07.07.94-.07,1.81-.07,1.81l-.15-.32Z"/>
        <path class="cls-1" d="M84.36,14.95c-.12-.53-.11-1.53-.11-1.57s.02-.16.07-.03c.24.65.19,1.84.19,1.84l-.15-.24Z"/>
        <path class="cls-1" d="M83.56,13.92c-.07-.21-.24-1.34-.24-1.52s.1-.02.1-.02c.31.59.33,1.79.33,1.79l-.19-.25Z"/>
        <path class="cls-1" d="M82.76,13.02c-.07-.12-.44-1.24-.45-1.44-.02-.2.11-.04.11-.04.32.49.55,1.68.55,1.68l-.21-.2Z"/>
        <path class="cls-1" d="M81.71,12.22c-.11-.2-.43-1.2-.46-1.36-.03-.15.1-.04.1-.04.43.82.53,1.55.53,1.55l-.17-.15Z"/>
        <path class="cls-1" d="M80.52,11.24c-.16-.17-.51-.95-.53-1.07-.02-.13.07-.03.07-.03.31.43.64,1.21.64,1.21l-.18-.11Z"/>
        <path class="cls-1" d="M80.14,11.11c-.85-.18-1.57-.68-1.67-.73-.1-.06-.1-.12.07-.08,1.23.37,1.64.8,1.64.8h-.04Z"/>
        <path class="cls-1" d="M81.36,11.9c-.58.14-1.41.08-1.62.08-.21,0-.29-.09-.04-.14.43-.08,1.52-.07,1.52-.07l.14.13Z"/>
        <path class="cls-1" d="M82.38,12.81c-.65,0-1.4-.11-1.64-.14-.24-.03-.33-.16-.1-.16.55,0,1.56.13,1.56.13l.18.17Z"/>
        <path class="cls-1" d="M83.36,13.84c-.27-.01-1.24-.16-1.71-.3-.48-.13-.2-.19.05-.18.25,0,1.51.29,1.51.29l.15.19Z"/>
        <path class="cls-1" d="M84.17,14.95s-.95-.12-1.64-.4c-.69-.28.05-.18.05-.18.77.13,1.47.39,1.47.39l.12.19Z"/>
        <path class="cls-1" d="M84.85,16.18c-.12-.04-1.25-.37-1.78-.67-.54-.3-.29-.31.1-.21.79.24,1.54.63,1.54.63l.14.25Z"/>
        <path class="cls-1" d="M85.38,17.27c-.65-.17-1.76-.76-1.88-.83s-.43-.31.11-.17c.54.13,1.63.68,1.63.68l.15.32Z"/>
        <path class="cls-1" d="M85.84,18.47c-.54-.15-1.62-.76-1.94-.98-.32-.22-.21-.32.14-.19.71.29,1.71.93,1.71.93l.09.25Z"/>
        <path class="cls-1" d="M86.01,19.9c-.39-.08-1.56-1.03-1.85-1.33-.29-.29-.06-.28.14-.16,1.17.72,1.66,1.3,1.66,1.3l.04.18Z"/>
        <path class="cls-1" d="M86.04,21.17c-.23-.12-1.22-.86-1.64-1.35-.42-.5-.2-.4.13-.18.56.36,1.49,1.33,1.49,1.33l.02.21Z"/>
        <path class="cls-1" d="M85.98,22.47c-.38-.22-1.38-1.34-1.58-1.62-.2-.28-.12-.33.15-.11.8.61,1.45,1.59,1.45,1.59l-.02.15Z"/>
        <path class="cls-1" d="M85.73,24.07c-.36-.26-1.23-1.63-1.44-2.1-.22-.47-.05-.42.23-.12.66.78,1.28,2.02,1.28,2.02l-.06.2Z"/>
        <path class="cls-1" d="M85.28,25.35c-.23-.27-1.1-1.79-1.26-2.24-.16-.44-.17-.62.24-.15.41.47,1.11,2.12,1.11,2.12l-.1.27Z"/>
        <path class="cls-1" d="M84.9,26.59c-.44-.42-1.11-2.33-1.15-2.47-.04-.14-.25-.74.21-.12.46.62,1.01,2.41,1.01,2.41l-.07.18Z"/>
        <path class="cls-1" d="M84.17,27.6c-.35-.3-.76-2.09-.82-2.55-.06-.45-.03-.64.26-.09.29.56.68,2.46.68,2.46l-.12.17Z"/>
        <path class="cls-1" d="M83.33,28.72c-.22-.4-.45-2.33-.44-2.84,0-.51.07-.75.3-.05.23.71.35,2.62.35,2.62l-.21.26Z"/>
        <path class="cls-1" d="M82.41,29.64c-.14-.46-.21-2.35-.21-2.74,0-.4.15-1.03.32-.08.17.94.12,2.6.12,2.6l-.23.23Z"/>
        <path class="cls-1" d="M81.38,30.62c-.16-.26-.01-2.15.13-2.83.14-.67.26-.77.33,0,.07.77-.24,2.66-.24,2.66l-.22.17Z"/>
        <path class="cls-1" d="M80.06,31.46c-.02-.75.34-2.36.55-2.94.2-.58.42-.83.34.09-.08.92-.68,2.75-.68,2.75l-.2.09Z"/>
        <path class="cls-1" d="M78.76,32.14c.01-.56.52-2.29.83-2.88.3-.59.48-.78.32.1-.15.88-.95,2.72-.95,2.72l-.2.06Z"/>
        <path class="cls-1" d="M77.41,32.61c0-.29.59-2.16.92-2.75.33-.59.45-.6.31.1-.14.71-.92,2.58-.92,2.58l-.31.07Z"/>
        <path class="cls-1" d="M78.74,32.99s.74-.63,1.33-.57c.09.01.28-.23.28-.23,0,0,.6-.71,1.11-.66.09,0,.26-.32.26-.32,0,0,.62-.79,1.16-.89l.27-.35s.03-.45.77-.83c.09-.04.17-.31.17-.31,0,0,.19-.49.6-.71l.03-.27s.04-.49.6-.91c.08-.06,0-.3,0-.3,0,0,.04-.61.63-1.03.06-.04-.12-.13-.12-.13,0,0-.05-.66.29-.92l-.02-.22s-.11-.54.25-1.14c.05-.08,0-.26,0-.26,0,0-.16-.71.16-1.26.05-.09-.09-.21-.09-.21,0,0-.21-.56.01-1.21.04-.11-.11-.21-.11-.21,0,0-.41-.39-.11-1.36.03-.11-.2-.11-.2-.11,0,0-.42-.28-.25-1.1.03-.12-.1-.32-.1-.32,0,0-.48.12-.46-1.19l-.17-.09s-.36-.09-.54-.95c-.02-.11-.14-.01-.14-.01,0,0-.61-.48-.63-.9l-.19-.2s-.39-.12-.59-.66l-.21-.19s-.69-.42-.91-.82l-.21-.15s-.68-.33-.94-.68l-.17-.11s-.26-.07-.79-.4l.25.23s.77.37,1.01.73l.19.13s.57.25.89.73l.15.16s.52.31.78.81l.1.2s.62.41.65.86l.02.2s.63.22.73.98l.14.27s.28.28.3.7l.15.35s.27.26.24.85l.13.31s.35.66.2,1.1v.28s.32.6.12,1.02c0,0-.06.12-.09.19.19.46.1.95.07,1.1,0,0-.05.14-.07.22.21.14.11.82-.07,1.36,0,0-.25.02-.24.06.15.62-.08.96-.14,1.1l-.21.22s.13.66-.24.89c-.07.04-.2.23-.2.23,0,0,.08.66-.4.88l-.22.27s.07.54-.46.86l-.3.21s.09.57-.56.81l-.31.05s.06.75-.69.94l-.33.11s.03.43-1.02.9l-.2.03s-.08.39-1.04.6l-.22-.18s-.23.74-1,.61l-.17.22s-1.7.59-3.33.52c-.04,0-.32,0-.41,0-1.24-.04-2.5.39-2.5.39,0,0,0,0,0,0-1.57.57-3.02,1.65-3.02,1.65l1.59.66c2.13-2.13,4.13-1.94,4.33-1.93,0,0,.2,0,.47,0,.75-.04,1.99-.25,2.44-.36,0,0,.77-.18.85-.23l.64-.12Z"/>
      </g>
      <g>
        <path class="cls-1" d="M68.68,26.15s-.03,0-.05-.02c-.03-.03-.05-.06-.07-.1-.02-.05-.01-.08.02-.1.07-.01.11,0,.14.01.04.04.03.11-.04.21Z"/>
        <path class="cls-1" d="M81.21,24.38c-.06-.03-.11-.03-.12,0-.03.06-.05.1-.04.13.03-.02.08-.05.14-.09.03-.02.04-.03.04-.04,0,0,0,0-.02-.01ZM81.21,24.38c-.06-.03-.11-.03-.12,0-.03.06-.05.1-.04.13.03-.02.08-.05.14-.09.03-.02.04-.03.04-.04,0,0,0,0-.02-.01ZM81.21,24.38c-.06-.03-.11-.03-.12,0-.03.06-.05.1-.04.13.03-.02.08-.05.14-.09.03-.02.04-.03.04-.04,0,0,0,0-.02-.01ZM81.21,24.38c-.06-.03-.11-.03-.12,0-.03.06-.05.1-.04.13.03-.02.08-.05.14-.09.03-.02.04-.03.04-.04,0,0,0,0-.02-.01ZM81.21,24.38c-.06-.03-.11-.03-.12,0-.03.06-.05.1-.04.13.03-.02.08-.05.14-.09.03-.02.04-.03.04-.04,0,0,0,0-.02-.01ZM81.21,24.38c-.06-.03-.11-.03-.12,0-.03.06-.05.1-.04.13.03-.02.08-.05.14-.09.03-.02.04-.03.04-.04,0,0,0,0-.02-.01ZM81.21,24.38c-.06-.03-.11-.03-.12,0-.03.06-.05.1-.04.13.03-.02.08-.05.14-.09.03-.02.04-.03.04-.04,0,0,0,0-.02-.01ZM81.21,24.38c-.06-.03-.11-.03-.12,0-.03.06-.05.1-.04.13.03-.02.08-.05.14-.09.03-.02.04-.03.04-.04,0,0,0,0-.02-.01ZM81.21,24.38c-.06-.03-.11-.03-.12,0-.03.06-.05.1-.04.13.03-.02.08-.05.14-.09.03-.02.04-.03.04-.04,0,0,0,0-.02-.01ZM81.21,24.38c-.06-.03-.11-.03-.12,0-.03.06-.05.1-.04.13.03-.02.08-.05.14-.09.03-.02.04-.03.04-.04,0,0,0,0-.02-.01ZM81.21,24.38c-.06-.03-.11-.03-.12,0-.03.06-.05.1-.04.13.03-.02.08-.05.14-.09.03-.02.04-.03.04-.04,0,0,0,0-.02-.01ZM81.21,24.38c-.06-.03-.11-.03-.12,0-.03.06-.05.1-.04.13.03-.02.08-.05.14-.09.03-.02.04-.03.04-.04,0,0,0,0-.02-.01ZM81.21,24.38c-.06-.03-.11-.03-.12,0-.03.06-.05.1-.04.13.03-.02.08-.05.14-.09.03-.02.04-.03.04-.04,0,0,0,0-.02-.01ZM81.21,24.38c-.06-.03-.11-.03-.12,0-.03.06-.05.1-.04.13.03-.02.08-.05.14-.09.03-.02.04-.03.04-.04,0,0,0,0-.02-.01ZM81.21,24.38c-.06-.03-.11-.03-.12,0-.03.06-.05.1-.04.13.03-.02.08-.05.14-.09.03-.02.04-.03.04-.04,0,0,0,0-.02-.01ZM81.21,24.38c-.06-.03-.11-.03-.12,0-.03.06-.05.1-.04.13.03-.02.08-.05.14-.09.03-.02.04-.03.04-.04,0,0,0,0-.02-.01ZM81.21,24.38c-.06-.03-.11-.03-.12,0-.03.06-.05.1-.04.13.03-.02.08-.05.14-.09.03-.02.04-.03.04-.04,0,0,0,0-.02-.01ZM81.21,24.38c-.06-.03-.11-.03-.12,0-.03.06-.05.1-.04.13.03-.02.08-.05.14-.09.03-.02.04-.03.04-.04,0,0,0,0-.02-.01ZM81.21,24.38c-.06-.03-.11-.03-.12,0-.03.06-.05.1-.04.13.03-.02.08-.05.14-.09.03-.02.04-.03.04-.04,0,0,0,0-.02-.01ZM81.21,24.38c-.06-.03-.11-.03-.12,0-.03.06-.05.1-.04.13.03-.02.08-.05.14-.09.03-.02.04-.03.04-.04,0,0,0,0-.02-.01ZM80.56,22.27c-.76,2.76-3.3,4.8-6.3,4.8s-5.54-2.04-6.3-4.8h-2.66c.82,4.2,4.52,7.39,8.96,7.39s8.15-3.18,8.96-7.39h-2.66ZM81.37,23c.11.02.22.04.32.06.17.04.3.13.38.27-.35-.04-.53-.07-.88-.12-.02,0-.06-.05-.13-.12-.07-.07-.11-.12-.13-.14,0-.01.15,0,.44.05ZM72.48,27.29s.03.05.07.09c.04.04.07.07.08.07,0,0,.03-.01.08-.04.05-.03.07-.05.08-.05.07.07.1.1.17.17-.02.02-.05.05-.09.09-.05.05-.09.07-.1.07-.01,0-.07-.06-.18-.17-.04.03-.09.06-.14.09-.02-.01-.05-.04-.09-.08-.04-.04-.07-.08-.08-.1.05-.04.12-.08.2-.13ZM67.45,23.04c0-.07.02-.11.03-.13.07.03.15.07.25.12-.01.02-.02.06-.03.12-.01.06-.01.1,0,.12,0,0,.03.03.09.05.06.02.09.04.1.05-.01.11-.02.16-.03.27-.03,0-.08-.02-.14-.04-.08-.03-.12-.04-.12-.05,0-.01,0-.11.03-.27-.05-.03-.11-.05-.17-.08,0-.03,0-.08,0-.14ZM67.08,25.18c-.07-.01-.11-.03-.12-.03,0,0-.01-.09-.02-.25-.05-.02-.11-.04-.17-.05,0-.03-.01-.07-.02-.13,0-.06,0-.11,0-.12.08.02.13.04.16.05.03.01.05.01.08.02,0,.02,0,.06,0,.12,0,.06,0,.1.01.11,0,0,.03.02.08.03.06.02.09.03.1.03,0,.1,0,.15.02.25-.03,0-.07-.01-.13-.02ZM67.06,24.5s-.02-.04-.04-.06c-.01-.02-.02-.03-.03-.06-.04-.07-.04-.13,0-.2.02-.04.06-.09.11-.14.04-.04.06-.07.06-.08-.04-.08-.13-.14-.27-.19-.15-.04-.23-.06-.38-.1-.13-.04-.21-.09-.23-.16-.07-.17.12-.32.56-.43.03,0,.04-.01.07-.02.02,0,.05.01.09.02-.06.02-.15.06-.25.13-.12.08-.18.15-.16.2.03.09.12.16.25.2.08.03.2.06.36.11.13.04.21.09.24.16.02.05.02.09,0,.12-.03.03-.07.05-.1.08s-.06.06-.08.09c-.02.04-.02.08,0,.12.01.02.02.03.03.05.01.02.02.04.03.06.11.19.17.29.29.47.09-.11.15-.2.17-.29.07,0,.18.01.3,0-.07.16-.13.26-.18.31-.03.03-.07.05-.1.07-.05.03-.18.08-.37.15-.16-.23-.23-.35-.37-.59ZM67.83,25.18c.13.17.19.26.33.42.03-.02.05-.06.06-.12.01-.05.01-.1,0-.14,0-.08-.02-.13-.03-.16.02,0,.06-.01.13-.04.07-.02.11-.03.18-.06.01.03.02.08.02.15,0,.06,0,.11-.02.15-.01.05-.03.1-.07.15-.03.06-.07.11-.11.13,0,0-.02.01-.03.03-.01.01-.03.02-.04.03-.15.12-.25.15-.3.09-.17-.2-.25-.3-.4-.51.07-.04.16-.08.26-.13ZM71.31,27.79s-.04.07-.07.11c-.04.05-.05.07-.09.12-.04.05-.08.06-.13.02-.07-.03-.11-.04-.17-.08-.04-.02-.06-.03-.1-.04-.03-.01-.05-.02-.08-.04,0-.02,0-.04,0-.08-.03.02-.05.03-.08.04-.12-.06-.18-.09-.29-.15,0-.04-.01-.06-.02-.06,0,0-.02,0-.04,0-.02,0-.03,0-.04,0-.12-.07-.18-.1-.31-.18,0-.04,0-.06-.02-.06-.04.01-.07.01-.1,0,0,0,0,0-.01-.01h0c-.18-.11-.27-.18-.44-.3,0-.04.01-.09.02-.15-.03.01-.05.02-.08.03-.03,0-.06.02-.08.02-.22-.17-.32-.26-.53-.45-.03-.03-.05-.05-.08-.08-.26.11-.45.1-.56-.01-.05-.05-.12-.14-.19-.25-.08-.13-.12-.22-.13-.26.03.03.07.08.13.14.1.1.24.18.43.23.07.02.14.03.2.03-.18-.17-.21-.31-.11-.39.04-.03.11-.06.21-.09.09-.03.16-.04.22-.05.09-.01.15,0,.19.04.05.05.04.12-.01.24-.04.08-.08.15-.14.22.02.02.03.02.04.04.01.01.02.02.04.03.18.16.27.24.46.39,0-.04,0-.08-.01-.12-.01-.04-.07-.1-.07-.1,0,0-.02-.01-.08-.05.02-.02.1-.05.26-.1.02-.01.07,0,.13.03.06.02.1.05.13.06.05.04.09.1.11.17.03.08.02.15-.02.2-.02.02-.05.04-.1.06-.05.02-.08.03-.09.04.03.02.05.03.08.06.09.06.13.09.22.15.03.02.04.02.06.04.02.02.06,0,.09-.05.08-.04.12-.06.14-.07.07-.03.11-.05.13-.04-.03.05-.11.13-.25.23.1.06.15.09.25.14.02.01.05,0,.07-.04,0,0,0-.01,0-.02,0,0,0-.01,0-.01.13-.07.22-.11.27-.11,0,.01-.02.04-.04.07-.02.03-.03.05-.04.07-.02.03-.06.08-.11.13.06.03.09.05.15.08.01,0,.02,0,.04-.04,0,0,0-.01.01-.02,0-.01,0-.02.01-.02.13-.08.2-.12.23-.1-.03.07-.05.11-.08.18,0,.02-.01.04,0,.07,0,.03.01.05.03.05.03.01.04.02.07.03.06.03.09.04.15.06,0,0,.01,0,.02-.03.03-.06.06-.14.09-.26.02-.09.05-.18.08-.27-.01-.02-.02-.06-.03-.09.17-.14.26-.2.28-.19-.02.04-.03.06-.03.08,0,.02,0,.05.02.08.07.13.12.2.14.21-.1.06-.16.09-.26.15-.02.04-.06.15-.11.32ZM71.86,27.6c-.03.1-.06.2-.09.29-.06.16-.15.28-.29.35.08-.32.12-.47.21-.79,0-.01.05-.06.13-.12.07-.06.12-.11.14-.12,0,0-.02.13-.1.39ZM74.09,29.01s-.07.07-.08.07c0,0-.07-.04-.2-.12-.04.03-.07.06-.11.1-.03-.01-.06-.03-.11-.06-.05-.03-.08-.06-.09-.07.05-.05.09-.09.11-.1.02-.02.03-.03.05-.05.01.01.04.04.09.07.05.03.08.05.09.05,0,0,.03-.02.06-.05.04-.04.06-.06.07-.06.08.05.12.08.2.13-.02.02-.04.05-.08.09ZM74.18,28.69s-.04,0-.07,0c-.05,0-.1-.02-.12-.05-.02-.02-.04-.07-.06-.12-.04.07-.06.1-.11.16-.13,0-.2-.01-.33-.02-.02,0-.04,0-.06,0-.14-.01-.21-.02-.35-.04-.07,0-.12-.05-.15-.11-.02-.04-.04-.09-.05-.17-.01-.06-.02-.09-.03-.09-.08-.01-.16.02-.26.1-.1.1-.15.14-.25.24-.09.08-.16.11-.22.1-.15-.04-.16-.26-.03-.66,0-.02.01-.04.02-.06.02-.01.03-.03.06-.06-.02.06-.03.15-.03.27,0,.14.02.22.06.23.08.02.16,0,.26-.09.06-.05.14-.12.25-.22.09-.08.16-.11.23-.1.04,0,.07.03.08.07,0,.04,0,.08,0,.12,0,.04.01.08.03.11.02.04.05.06.08.07.13.02.2.03.33.04.02,0,.04,0,.06,0,.15.01.23.02.39.03,0-.02.02-.09.03-.22,0,0,.03-.04.08-.1.05-.06.08-.1.09-.1,0,0,0,.01,0,.02h0s0,.03,0,.03c0,.07,0,.15-.03.25,0,.03,0,.06.03.09.03.02.06.04.09.04h.09c.17,0,.26,0,.44-.01-.03-.12-.09-.22-.17-.28.01-.03.05-.11.12-.26.03.02.06.06.1.12.04.06.06.1.08.14.02.05.03.09.04.14,0,.06,0,.16-.02.28-.01.06-.02.1-.03.12-.22.01-.33.02-.56.02h-.11ZM74.63,29.05c-.06.05-.1.07-.11.07-.01,0-.05-.02-.11-.07-.06-.04-.09-.07-.09-.08,0-.01.03-.04.09-.1.06-.05.09-.08.11-.08,0,0,.04.03.11.08.07.05.1.08.1.09,0,.01-.03.04-.09.09ZM76.86,28.29c-.07.02-.11.03-.18.05h0c-.13.04-.2.06-.33.09-.03-.03-.07-.06-.11-.11,0,.03-.01.05-.02.08,0,.03-.02.05-.03.07-.18.04-.26.06-.44.09-.01,0-.02,0-.03,0-.06,0-.11,0-.13-.01-.02.1-.06.19-.12.28-.08.11-.16.17-.24.18-.05,0-.16-.01-.32-.07-.16-.05-.25-.1-.26-.14,0,0,.04.01.1.03.06.02.12.03.17.03.04,0,.09-.02.16-.05.05-.02.12-.07.19-.14.02-.02.06-.05.11-.11.04-.04.05-.07.05-.1,0-.03-.07-.1-.18-.19.03-.07.06-.14.1-.24.09.11.15.16.16.18.07.06.14.08.22.07.06-.01.08-.01.14-.03.09-.02.14-.03.24-.05-.03-.03-.06-.05-.1-.06-.04-.01-.12-.01-.12-.01,0,0-.02,0-.08.03,0-.02.02-.11.06-.25,0-.02.04-.05.1-.08.05-.03.09-.05.12-.05.06-.02.13-.01.21.02.08.03.13.08.15.14,0,.02,0,.06,0,.1-.01.05-.02.08-.02.09.03,0,.05-.01.08-.02.04-.01.06-.02.1-.03.06-.02.09-.03.15-.05,0,0,0-.01,0-.03-.02-.06-.06-.14-.12-.25-.05-.08-.09-.16-.14-.24-.03-.01-.06-.02-.09-.04.02-.21.04-.31.06-.32.01.04.03.06.04.08.01.02.04.03.07.04.15.05.23.07.25.06-.03.11-.05.17-.08.28.01.04.06.14.15.31.01.03.02.07.03.13,0,.06.01.09.02.14,0,.06-.02.09-.07.1ZM77.34,28.14c-.17-.28-.26-.42-.42-.71,0-.01,0-.07,0-.17,0-.09.01-.15.02-.18.01,0,.08.12.22.35.05.09.1.18.14.27.07.15.09.3.05.44ZM77.41,27.07c-.06,0-.11-.01-.13-.02.01-.06.03-.13.05-.22.02,0,.06.02.12.02s.1,0,.11,0c0,0,.02-.03.03-.08.01-.05.02-.08.02-.09.1,0,.15,0,.26.01,0,.03,0,.07-.01.12,0,.07-.02.11-.02.11-.01,0-.1,0-.26,0-.01.05-.03.1-.04.16-.03,0-.07,0-.13,0ZM81.81,23.87s0,0-.01.04c-.01.03-.02.06-.04.09-.06.11-.08.17-.14.28,0,.02-.01.02-.02.04,0,.01,0,.03.03.06.03.03.04.06.03.08-.21.15-.32.22-.54.35,0,.01.01.03.03.05.02.03.04.05.04.07,0,.03,0,.07-.02.1,0,0,0,.01-.01.02-.02.03-.04.05-.06.09-.05.07-.08.11-.13.18-.02.03-.05.03-.08.02-.05-.03-.07-.04-.12-.07,0,0,.04.06.1.19-.02.03-.03.04-.06.07-.11.14-.17.21-.28.35,0,0,0,0,0,0-.02.02-.04.04-.05.05-.04.03-.08.03-.12.02-.02,0-.03-.01-.05-.02.05.08.07.13.06.13-.19.21-.36.37-.52.52-.16.15-.31.27-.48.4-.17.13-.35.26-.58.41t0,0s-.02.01-.03.02c-.06.04-.12.04-.19.02-.04-.01-.1-.04-.16-.09-.05-.04-.08-.05-.09-.05-.07.04-.11.12-.13.25,0,.13,0,.2-.02.34,0,.11-.04.18-.09.21-.14.07-.31-.09-.5-.47-.01-.02-.02-.03-.03-.06,0-.02,0-.05,0-.08.03.05.08.13.17.22.1.1.17.15.21.13.07-.03.12-.11.13-.23,0-.07.02-.18.03-.32,0-.12.04-.19.1-.22.04-.02.08-.02.11,0,.03.03.06.06.09.08s.07.05.1.06c.04.02.08.01.11,0,.04-.02.06-.04.1-.06.29-.19.5-.35.71-.52.21-.17.41-.35.66-.61-.01-.01-.05,0-.12.01-.07.02-.11.04-.12.06-.07.08-.19.2-.35.35-.1.09-.19.17-.26.23-.27.21-.45.31-.53.33-.04,0-.06,0-.08-.03-.04-.06-.05-.15-.03-.28.02-.15.08-.31.16-.49.04-.08.08-.15.12-.22.03-.05.05-.08.08-.13.02.11.03.16.05.28-.03.03-.06.08-.1.16-.03.06-.06.11-.1.17-.02.04-.05.09-.07.14-.03.07-.05.12-.04.15.02,0,.22-.11.57-.41.09-.08.14-.12.23-.21.06-.06.16-.15.28-.28.04-.04.08-.07.14-.1.07-.03.12-.05.17-.04.02,0,.05.01.09.02.04.01.07.02.09.02.02,0,.05,0,.07-.04.11-.13.16-.19.27-.33.05-.06.07-.09.11-.15-.26-.12-.39-.18-.65-.31-.04-.08-.07-.13-.08-.14-.03-.06-.05-.11-.06-.14,0-.01.1.02.26.11.12.06.23.12.35.17.13.07.21.1.22.11.05.03.08.02.11-.03,0,0,0,0,0,0,.02-.03.03-.05.06-.08.03-.05.05-.08.08-.13,0-.01,0-.04-.03-.09-.02-.03-.04-.06-.06-.09-.02-.05-.03-.12-.03-.21,0-.09.01-.16.04-.21.02-.04.05-.06.09-.05.04,0,.07.02.11.03.04,0,.09,0,.15-.02.07-.02.12-.04.13-.06.04-.08.06-.12.1-.2,0,0,0-.01-.02-.02-.1-.04-.32-.08-.59-.12-.06.04-.1.05-.11.04-.02,0-.05-.05-.11-.13-.05-.07-.08-.13-.08-.16,0,0,.01,0,.02,0,.08.03.21-.03.39-.21.06.11.09.17.14.28.07.02.13.04.18.05.09.02.15.03.18.03.02,0,.07-.04.14-.11.06-.07.12-.1.16-.08.12.03.21.11.29.21-.04.03-.13.06-.21.11-.03.02-.07.09-.07.09ZM81.09,24.38c-.03.06-.05.1-.04.13.03-.02.08-.05.14-.09.03-.02.04-.03.04-.04,0,0,0,0-.02-.01-.06-.03-.11-.03-.12,0ZM81.21,24.38c-.06-.03-.11-.03-.12,0-.03.06-.05.1-.04.13.03-.02.08-.05.14-.09.03-.02.04-.03.04-.04,0,0,0,0-.02-.01ZM81.21,24.38c-.06-.03-.11-.03-.12,0-.03.06-.05.1-.04.13.03-.02.08-.05.14-.09.03-.02.04-.03.04-.04,0,0,0,0-.02-.01ZM81.21,24.38c-.06-.03-.11-.03-.12,0-.03.06-.05.1-.04.13.03-.02.08-.05.14-.09.03-.02.04-.03.04-.04,0,0,0,0-.02-.01ZM81.21,24.38c-.06-.03-.11-.03-.12,0-.03.06-.05.1-.04.13.03-.02.08-.05.14-.09.03-.02.04-.03.04-.04,0,0,0,0-.02-.01ZM81.21,24.38c-.06-.03-.11-.03-.12,0-.03.06-.05.1-.04.13.03-.02.08-.05.14-.09.03-.02.04-.03.04-.04,0,0,0,0-.02-.01ZM81.21,24.38c-.06-.03-.11-.03-.12,0-.03.06-.05.1-.04.13.03-.02.08-.05.14-.09.03-.02.04-.03.04-.04,0,0,0,0-.02-.01ZM81.21,24.38c-.06-.03-.11-.03-.12,0-.03.06-.05.1-.04.13.03-.02.08-.05.14-.09.03-.02.04-.03.04-.04,0,0,0,0-.02-.01ZM81.21,24.38c-.06-.03-.11-.03-.12,0-.03.06-.05.1-.04.13.03-.02.08-.05.14-.09.03-.02.04-.03.04-.04,0,0,0,0-.02-.01ZM81.21,24.38c-.06-.03-.11-.03-.12,0-.03.06-.05.1-.04.13.03-.02.08-.05.14-.09.03-.02.04-.03.04-.04,0,0,0,0-.02-.01ZM81.21,24.38c-.06-.03-.11-.03-.12,0-.03.06-.05.1-.04.13.03-.02.08-.05.14-.09.03-.02.04-.03.04-.04,0,0,0,0-.02-.01ZM81.21,24.38c-.06-.03-.11-.03-.12,0-.03.06-.05.1-.04.13.03-.02.08-.05.14-.09.03-.02.04-.03.04-.04,0,0,0,0-.02-.01ZM81.21,24.38c-.06-.03-.11-.03-.12,0-.03.06-.05.1-.04.13.03-.02.08-.05.14-.09.03-.02.04-.03.04-.04,0,0,0,0-.02-.01ZM81.21,24.38c-.06-.03-.11-.03-.12,0-.03.06-.05.1-.04.13.03-.02.08-.05.14-.09.03-.02.04-.03.04-.04,0,0,0,0-.02-.01ZM81.21,24.38c-.06-.03-.11-.03-.12,0-.03.06-.05.1-.04.13.03-.02.08-.05.14-.09.03-.02.04-.03.04-.04,0,0,0,0-.02-.01ZM81.21,24.38c-.06-.03-.11-.03-.12,0-.03.06-.05.1-.04.13.03-.02.08-.05.14-.09.03-.02.04-.03.04-.04,0,0,0,0-.02-.01ZM81.21,24.38c-.06-.03-.11-.03-.12,0-.03.06-.05.1-.04.13.03-.02.08-.05.14-.09.03-.02.04-.03.04-.04,0,0,0,0-.02-.01ZM81.21,24.38c-.06-.03-.11-.03-.12,0-.03.06-.05.1-.04.13.03-.02.08-.05.14-.09.03-.02.04-.03.04-.04,0,0,0,0-.02-.01ZM81.21,24.38c-.06-.03-.11-.03-.12,0-.03.06-.05.1-.04.13.03-.02.08-.05.14-.09.03-.02.04-.03.04-.04,0,0,0,0-.02-.01Z"/>
      </g>
      <g>
        <path class="cls-1" d="M78.1,23.1s.07,0,.09.02c0,.04,0,.07-.02.08-.03.03-.07.06-.13.07-.02-.02-.03-.04-.03-.07,0-.03,0-.05.01-.07.02-.02.04-.03.09-.03Z"/>
        <path class="cls-1" d="M76.45,24.62c-.09-.03-.14-.04-.16-.04,0,.02,0,.05,0,.11,0,.06,0,.09,0,.09.04.07.09.08.17.04.08-.04.13-.08.15-.12-.02-.02-.07-.05-.16-.08ZM76.45,24.62c-.09-.03-.14-.04-.16-.04,0,.02,0,.05,0,.11,0,.06,0,.09,0,.09.04.07.09.08.17.04.08-.04.13-.08.15-.12-.02-.02-.07-.05-.16-.08ZM76.45,24.62c-.09-.03-.14-.04-.16-.04,0,.02,0,.05,0,.11,0,.06,0,.09,0,.09.04.07.09.08.17.04.08-.04.13-.08.15-.12-.02-.02-.07-.05-.16-.08ZM76.45,24.62c-.09-.03-.14-.04-.16-.04,0,.02,0,.05,0,.11,0,.06,0,.09,0,.09.04.07.09.08.17.04.08-.04.13-.08.15-.12-.02-.02-.07-.05-.16-.08ZM76.45,24.62c-.09-.03-.14-.04-.16-.04,0,.02,0,.05,0,.11,0,.06,0,.09,0,.09.04.07.09.08.17.04.08-.04.13-.08.15-.12-.02-.02-.07-.05-.16-.08ZM76.45,24.62c-.09-.03-.14-.04-.16-.04,0,.02,0,.05,0,.11,0,.06,0,.09,0,.09.04.07.09.08.17.04.08-.04.13-.08.15-.12-.02-.02-.07-.05-.16-.08ZM76.45,24.62c-.09-.03-.14-.04-.16-.04,0,.02,0,.05,0,.11,0,.06,0,.09,0,.09.04.07.09.08.17.04.08-.04.13-.08.15-.12-.02-.02-.07-.05-.16-.08ZM76.45,24.62c-.09-.03-.14-.04-.16-.04,0,.02,0,.05,0,.11,0,.06,0,.09,0,.09.04.07.09.08.17.04.08-.04.13-.08.15-.12-.02-.02-.07-.05-.16-.08ZM76.45,24.62c-.09-.03-.14-.04-.16-.04,0,.02,0,.05,0,.11,0,.06,0,.09,0,.09.04.07.09.08.17.04.08-.04.13-.08.15-.12-.02-.02-.07-.05-.16-.08ZM76.45,24.62c-.09-.03-.14-.04-.16-.04,0,.02,0,.05,0,.11,0,.06,0,.09,0,.09.04.07.09.08.17.04.08-.04.13-.08.15-.12-.02-.02-.07-.05-.16-.08ZM76.45,24.62c-.09-.03-.14-.04-.16-.04,0,.02,0,.05,0,.11,0,.06,0,.09,0,.09.04.07.09.08.17.04.08-.04.13-.08.15-.12-.02-.02-.07-.05-.16-.08ZM76.45,24.62c-.09-.03-.14-.04-.16-.04,0,.02,0,.05,0,.11,0,.06,0,.09,0,.09.04.07.09.08.17.04.08-.04.13-.08.15-.12-.02-.02-.07-.05-.16-.08ZM77.18,22.27c-.59,1-1.68,1.67-2.92,1.67s-2.33-.67-2.92-1.67h-2.81c.74,2.46,3.03,4.26,5.73,4.26s4.99-1.8,5.73-4.26h-2.81ZM76.91,23.22s.05,0,.13,0,.13,0,.13,0c.01,0,.02.04.02.11,0,.07,0,.11-.01.12,0,0-.05.01-.12.01-.08,0-.11,0-.12,0,0,0-.02-.05-.02-.12,0-.07-.01-.11,0-.11ZM77.1,23.75c.09.07.17.14.25.22.13.12.21.26.22.42-.28-.22-.42-.33-.69-.56-.01-.01-.03-.07-.07-.17-.03-.09-.05-.15-.06-.18,0,0,.12.09.35.27ZM72.82,24.35c.07-.05.11-.08.12-.08,0,0,.02.04.07.1.04.07.07.1.08.1-.02.02-.05.06-.1.1-.07.07-.12.1-.13.09-.11-.14-.16-.22-.15-.23,0-.01.04-.04.11-.09ZM70.42,22.59c.07,0,.15.02.26.03,0,.02-.01.06-.01.12s0,.09.01.1c0,0,.04.01.09.01.06,0,.1,0,.11,0,0,.1,0,.14.02.24-.03,0-.07,0-.13.01-.07,0-.11,0-.12,0,0,0-.03-.09-.04-.24-.05,0-.11-.01-.17-.02,0-.03-.02-.07-.03-.13,0-.06,0-.1,0-.12ZM70.95,25.08c-.07.02-.1.02-.11.02,0,0-.03-.08-.08-.23-.05,0-.1.01-.16.02-.01-.03-.03-.07-.04-.12-.02-.06-.02-.1-.02-.12.08-.01.12-.02.15-.02.03,0,.04,0,.07,0,0,.02,0,.06.02.12.01.06.03.09.04.1,0,0,.03,0,.08,0,.05,0,.08-.01.09-.01.03.09.05.14.08.23-.02,0-.06.02-.11.04ZM73.11,25.48c-.16-.05-.29-.09-.38-.11-.05-.01-.12,0-.24.02-.11.02-.19.03-.24.01-.16-.06-.24-.09-.38-.16t0,0c-.05-.02-.1-.05-.16-.08-.03-.01-.03-.04-.02-.07.02-.05.04-.08.06-.13,0,0-.06.05-.17.13-.03-.02-.05-.03-.08-.05-.1-.06-.17-.11-.26-.18-.03-.02-.05-.04-.09-.07-.04-.03-.06-.07-.07-.12,0-.04,0-.08.03-.14-.07.03-.1.05-.17.08-.1-.09-.16-.14-.25-.24-.09-.09-.15-.15-.23-.25-.02-.02-.03-.04-.06-.07-.04-.05-.06-.11-.06-.19,0-.04.02-.1.05-.17.02-.05.03-.08.02-.09-.05-.06-.14-.1-.25-.1-.13,0-.19,0-.33,0-.12,0-.21-.03-.24-.09-.11-.15.05-.33.35-.53.02-.01.03-.02.05-.03.02,0,.04,0,.07,0-.04.03-.1.09-.16.17-.07.1-.1.18-.07.22.05.07.14.11.25.12.07,0,.17,0,.3,0,.11,0,.18.02.23.07.03.03.04.08.03.11-.01.03-.04.07-.05.1-.02.03-.03.07-.03.1,0,.04,0,.08.03.11.01.01.02.02.03.03,0,.01.02.02.03.03,0,0,.01.01.02.02.06.07.11.12.18.18.01.01.02.02.03.03.01.01.02.02.03.03h0c.09.08.15.14.26.23.02,0,.06-.07.14-.17,0,0,.04-.02.12-.04.08-.03.12-.04.12-.04,0,0,0,0-.01.02,0,0,0,0,0,.01,0,0,0,.01,0,.02-.04.06-.09.13-.16.21-.02.03-.03.06-.02.09,0,.04.02.06.05.08,0,0,0,0,0,0,.02.02.04.03.06.04t0,0c.06.04.11.07.17.11.01,0,.03.02.04.02.01,0,.02.01.04.02.03.02.07.04.11.06.11-.28.16-.41.28-.69.08-.06.12-.1.13-.1.06-.05.1-.08.13-.1.01,0-.03.1-.1.28-.05.13-.11.25-.16.38-.06.14-.09.23-.1.24-.02.05-.02.08.02.1,0,0,.02,0,.02.01.02,0,.03.02.06.03h0c.11.05.19.08.32.13.09.03.16.04.21.02,0-.02-.04-.06-.1-.12-.06-.06-.09-.1-.11-.1-.04-.02-.08-.02-.1-.02-.03,0-.06.01-.1.02.06-.06.13-.11.2-.16.09-.06.16-.08.21-.06.07.02.13.07.19.14.04.05.1.12.19.21.04.04.11.09.19.14.06.04.11.06.14.06-.04.05-.11.13-.2.23ZM73.6,25.24c-.02.18-.08.33-.19.45,0-.35,0-.53.03-.89,0-.02.03-.07.09-.16.05-.09.08-.14.1-.17,0,0,0,.15,0,.44,0,.11-.01.22-.02.33ZM75.4,25.51c-.1.03-.15.04-.23.06-.12.03-.2.04-.31.06-.11.02-.19.03-.29.04-.05,0-.1.01-.17.01-.02,0-.04-.02-.06-.07-.01-.03-.03-.06-.04-.1,0,0-.02.03-.04.09-.02.06-.05.08-.07.08-.2,0-.3,0-.5,0-.02,0-.03,0-.04-.02-.01-.01-.01-.03-.01-.05.02-.12.04-.23.07-.32.01-.04.02-.07.03-.09.02-.04.04-.06.05-.07,0,.02,0,.04,0,.08,0,.03,0,.06,0,.08,0,.07.01.1.05.1.18,0,.27,0,.45,0,0-.03-.01-.09-.03-.18-.03-.12-.04-.18-.07-.29,0,0,.02-.05.05-.15.03-.09.05-.14.05-.16.03.09.07.25.13.49.03.1.04.15.04.16.03.08.05.11.08.11.09,0,.16-.02.25-.03.02,0,.03,0,.05,0s.03,0,.05,0h0c.07-.01.13-.02.2-.04h0s.03,0,.05-.01c.01,0,.03,0,.04,0h0s.09-.02.16-.04c0,0,0-.01,0-.03-.02-.07-.05-.16-.11-.28-.04-.09-.08-.18-.12-.27-.02-.01-.05-.03-.08-.06.03-.22.04-.33.06-.33.01.04.02.07.03.08.01.02.03.04.06.05.13.07.21.09.23.09-.03.12-.04.18-.07.29.01.04.06.16.14.34.01.03.02.08.02.14,0,.06,0,.09.01.15,0,.06-.02.1-.08.1ZM75.94,25.36c-.17-.31-.26-.46-.42-.77,0-.02,0-.08,0-.18,0-.1,0-.16,0-.19,0,0,.08.13.22.38.05.1.1.2.14.29.07.16.1.32.05.48ZM76.06,24.11s0,.06-.03.14c-.02,0-.06,0-.11,0-.05,0-.09-.02-.11-.03.01-.08.02-.15.03-.21.02,0,.05.02.1.03s.08,0,.09,0c0,0,.01-.03.02-.07,0-.05,0-.07.01-.08.09,0,.13.01.22.01,0,.03,0,.06,0,.11,0,.06,0,.1-.01.1,0,0-.04,0-.1,0-.06,0-.1,0-.12-.01ZM76.58,25.06c-.07.04-.13.06-.16.07-.07.01-.12,0-.15-.06-.03-.06-.05-.13-.05-.23,0-.02,0-.09,0-.23,0-.06,0-.11,0-.16,0-.06,0-.09.01-.14,0,0,.05,0,.13.02.07.02.12.03.15.04.07.02.13.06.18.13.01.02.03.04.04.06.01.05.02.1.03.14,0,.06,0,.11,0,.14,0,.02-.03.06-.07.12-.04.05-.08.09-.1.1ZM77.38,24.88c-.02.09-.04.14-.07.16-.13.09-.32.16-.57.18-.03,0-.07,0-.1,0,.07-.02.14-.05.19-.08.07-.04.15-.11.23-.19.09-.1.13-.27.1-.49-.05-.02-.1-.03-.17-.03-.08,0-.11-.01-.19-.02-.02-.08-.05-.16-.09-.26.03,0,.11.01.24.05.13.04.21.06.23.09.17.19.24.39.2.61ZM78.21,24.17c0,.09-.03.14-.05.17-.12.12-.31.22-.55.29-.04,0-.07.01-.11.02.1-.06.17-.11.21-.15.07-.06.13-.13.17-.22.07-.12.07-.29,0-.48-.06,0-.18,0-.38.01-.04-.07-.08-.15-.13-.24.04-.01.12-.02.26,0s.22.02.26.04c.22.16.33.35.31.56ZM78.5,23.96c-.13.11-.22.17-.27.18.14-.16.23-.31.26-.44.03-.1.03-.21.02-.32-.02-.14-.07-.23-.14-.26-.01,0-.03-.01-.04-.02.05.07.08.12.08.15.01.05,0,.1-.05.16-.05.06-.11.08-.18.07-.04,0-.1-.04-.18-.09-.06-.04-.11-.11-.17-.22-.06-.12-.07-.2-.04-.24.03-.05.12-.06.26-.04.12.01.21.04.28.07.14.07.26.17.36.31.12.18.13.33.04.45-.05.06-.13.15-.25.24ZM76.29,24.59s0,.05,0,.11c0,.06,0,.09,0,.09.04.07.09.08.17.04.08-.04.13-.08.15-.12-.02-.02-.07-.05-.16-.08-.09-.03-.14-.04-.16-.04ZM76.45,24.62c-.09-.03-.14-.04-.16-.04,0,.02,0,.05,0,.11,0,.06,0,.09,0,.09.04.07.09.08.17.04.08-.04.13-.08.15-.12-.02-.02-.07-.05-.16-.08ZM76.45,24.62c-.09-.03-.14-.04-.16-.04,0,.02,0,.05,0,.11,0,.06,0,.09,0,.09.04.07.09.08.17.04.08-.04.13-.08.15-.12-.02-.02-.07-.05-.16-.08ZM76.45,24.62c-.09-.03-.14-.04-.16-.04,0,.02,0,.05,0,.11,0,.06,0,.09,0,.09.04.07.09.08.17.04.08-.04.13-.08.15-.12-.02-.02-.07-.05-.16-.08ZM76.45,24.62c-.09-.03-.14-.04-.16-.04,0,.02,0,.05,0,.11,0,.06,0,.09,0,.09.04.07.09.08.17.04.08-.04.13-.08.15-.12-.02-.02-.07-.05-.16-.08ZM76.45,24.62c-.09-.03-.14-.04-.16-.04,0,.02,0,.05,0,.11,0,.06,0,.09,0,.09.04.07.09.08.17.04.08-.04.13-.08.15-.12-.02-.02-.07-.05-.16-.08ZM76.45,24.62c-.09-.03-.14-.04-.16-.04,0,.02,0,.05,0,.11,0,.06,0,.09,0,.09.04.07.09.08.17.04.08-.04.13-.08.15-.12-.02-.02-.07-.05-.16-.08ZM76.45,24.62c-.09-.03-.14-.04-.16-.04,0,.02,0,.05,0,.11,0,.06,0,.09,0,.09.04.07.09.08.17.04.08-.04.13-.08.15-.12-.02-.02-.07-.05-.16-.08ZM76.45,24.62c-.09-.03-.14-.04-.16-.04,0,.02,0,.05,0,.11,0,.06,0,.09,0,.09.04.07.09.08.17.04.08-.04.13-.08.15-.12-.02-.02-.07-.05-.16-.08ZM76.45,24.62c-.09-.03-.14-.04-.16-.04,0,.02,0,.05,0,.11,0,.06,0,.09,0,.09.04.07.09.08.17.04.08-.04.13-.08.15-.12-.02-.02-.07-.05-.16-.08ZM76.45,24.62c-.09-.03-.14-.04-.16-.04,0,.02,0,.05,0,.11,0,.06,0,.09,0,.09.04.07.09.08.17.04.08-.04.13-.08.15-.12-.02-.02-.07-.05-.16-.08ZM76.45,24.62c-.09-.03-.14-.04-.16-.04,0,.02,0,.05,0,.11,0,.06,0,.09,0,.09.04.07.09.08.17.04.08-.04.13-.08.15-.12-.02-.02-.07-.05-.16-.08ZM76.45,24.62c-.09-.03-.14-.04-.16-.04,0,.02,0,.05,0,.11,0,.06,0,.09,0,.09.04.07.09.08.17.04.08-.04.13-.08.15-.12-.02-.02-.07-.05-.16-.08Z"/>
      </g>
      <g>
        <path class="cls-1" d="M73.93,13.68c0,.08-.07.13-.06.21.01.11.06.16.03.29-.03.1-.08.19-.09.3,0,.08.02.17.02.25.01.15-.02.3-.04.45-.02.15,0,.26.02.4.03.14,0,.29-.02.43-.02.14-.04.29-.08.43h-.82c-.13,0-.17.06-.17.13,0,.24.48.63.48.63l.11-.24.28.15.09-.18.38.31s.1-.03.13-.1c.03-.07,0-.19,0-.19l.48.24s.13,0,.19-.09c.04-.07.02-.24.02-.24l.38.1s.24-.21.32-.36c.03-.06,0-.16-.05-.16-.18,0-1.08,0-1.08,0,0,0-.04-.25-.03-.51.01-.25-.2-1.92-.19-2.52l-.05-.91-.48.03s.23.94.23,1.15Z"/>
        <path class="cls-1" d="M76.02,11.03c.09.01.19.12.3.16.21.08.39.08.39.08,0,0,.02-.16-.14-.29-.12-.1-.38-.17-.53-.22-.45-.16-1-.13-1-.13,0,0,.08-.14.3-.18.16-.03.16.04.34.03.11,0,.24-.11.37-.13.08-.01.38.12.5.07.09-.04.07-.14-.35-.31-.27-.11-.65-.15-.65-.15,0,0,.51-.21.51-.35,0-.1-.45-.19-.78-.07-.14.05-.31.1-.43.2-.17.14-.28.31-.33.38l-.02.03s0-.01.02-.03l.22-.36.19-.18-.02-.29s.12.11.24.12c.07,0,.16-.04.16-.04,0,0,.04-.02.13-.07.06-.03.15-.12.15-.12,0,0-.21-.29-.41-.3-.22-.02-.51.22-.51.22,0,0,.07-.23-.04-.36-.1-.11-.37-.12-.37-.12,0,0-.13-.01-.24.1-.11.12-.11.37-.11.37,0,0-.1-.25-.3-.35-.05-.03-.21-.05-.27-.06-.57-.09-.64.16-.64.24,0,.11.26.15.48.5.17.28.26.58.27.61-.03-.04-.45-.63-.76-.82-.39-.24-.87-.2-.81-.11.07.11.21.29.66.61.07.05.2,0,.27.07.09.08.02.2.11.29.1.11.29.13.38.21.1.09.14.19.14.21-.02-.02-.68-.53-1.25-.75-.33-.13-.68-.12-.78-.06-.09.06.11.35.42.32.13-.01.02.16.18.22.29.1.62.16.75.23.43.25.22.2.22.2,0,0-.37-.13-.82-.14-.26,0-.61.08-.75.11-.56.13-.52.49-.42.57.06.05.24-.18.49-.22.08-.01.1.09.19.08.07,0,.18-.14.24-.15.08-.02.09.08.09.08,0,0-.48.29-.6.56-.23.51.12.56.19.52.04-.02,0-.16.07-.26.14-.18.32-.2.31-.18.16-.27.61-.51.66-.54-.05.04-.4.3-.57.56-.07.1-.15.2-.18.29-.08.21-.15.42.03.38.04,0,.09-.19.29-.35.16-.12.27-.23.28-.24-.02.03-.18.28-.21.49-.1.6.09.51.22.3.07-.11.14-.26.17-.29.14-.11.23-.12.23-.12,0,0-.12.3-.12.51,0,.41.12.44.18.33.06-.12.07-.42.08-.45.03-.07.12-.12.15-.18.03-.05.03-.22.06-.27.09-.17.17-.19.17-.19,0,0-.16.5-.16.87,0,.27.17.52.17.52l.42-.15s.18.28.13.19l.21-.31h0s.05,0,.09.05c.03.04.04.12.08.15.06.05.16.04.16.04,0,0,.07-.16.05-.38-.04-.31-.11-.67-.11-.67l.39.17s-.02.25.06.39c.07.13.29.2.29.2,0,0,.08-.21,0-.38-.16-.4-.6-1.03-.62-1.07.01,0,.2.16.33.3.08.08.13.2.13.2h.3s.02.24.11.34c.11.12.28.1.28.1,0,0,.17-.08.05-.26-.1-.14-.39-.47-.55-.63-.22-.23-.33-.3-.34-.31.02,0,.25.04.41.14.12.07.18.22.18.22l.48.02.47.28s.12-.05.02-.2c-.15-.23-.58-.53-.58-.53,0,0,0-.12.13-.1Z"/>
      </g>
      <path class="cls-1" d="M77.16,19.86c-.22-.04-.42.29-.72.31-.37.02-.67-.28-.67-.28l.02-.07s.02,0,.03,0c.11,0,.2-.09.2-.2s-.09-.2-.2-.2-.2.09-.2.2c0,.02,0,.05.01.07l-.12.05s-.32-.33-.82-.78l-.17-.15-.26-.23c-.06-.05-.11-.1-.17-.15-.74-.62-1.67-1.32-2.54-1.73-1.45-.69-2.75-.13-2.75-.13,0,0,1.28-.09,2.86.79.68.38,1.41.95,2.03,1.46.05.04.1.09.15.13l.28.25.15.13c.51.46.85.8.85.8v.08s-.04,0-.06,0c-.11,0-.2.09-.2.2s.09.2.2.2.2-.09.2-.2c0-.02,0-.04-.01-.06l.04-.03s1.07.73,1.63.48c.69-.31.63-.87.26-.93ZM75.02,19.77c-.03.05-.17-.14-.37-.32-.13-.11-.28-.25-.42-.38l-.41-.4c-.06-.07-.09-.11-.07-.12.01,0,.05.02.12.08.1.09.26.24.42.39.09.08.17.16.25.23.33.31.52.45.48.52ZM76.64,20.54s-.07,0-.11,0c0,0-.01,0-.02,0,0,0,0,0,0,0,0,0,0,0,0,0,0,0,0,0,0,0,0,0,0,0-.01,0-.01,0-.03,0-.04,0-.02,0-.03,0-.05-.01-.03,0-.06-.02-.09-.02,0,0-.01,0-.02,0,0,0-.01,0-.02,0-.01,0-.03-.01-.04-.02-.01,0-.03-.01-.04-.02-.02,0-.03-.01-.04-.02-.01,0-.02-.01-.04-.02-.05-.02-.08-.04-.1-.05,0,0,0,0-.01,0,0,0,0,0,.01,0,0,0,0,0,.01,0,0,0,.02,0,.03,0,0,0,.02,0,.03,0,.01,0,.03,0,.05,0,.01,0,.02,0,.04,0,.03,0,.05,0,.08,0,0,0,.02,0,.03,0,.11,0,.25,0,.35-.04.29-.1.34-.36.46-.24.11.11-.13.4-.45.43Z"/>
      <g>
        <path class="cls-1" d="M73.83,18.68l-.15.15-.1.09c-.48.48-.78.82-.78.82l-.12-.04s.01-.05.01-.07c0-.11-.1-.19-.21-.19-.11,0-.19.1-.19.21,0,.11.1.19.21.19,0,0,.02,0,.03,0l.02.07s-.28.32-.66.32c-.3,0-.52-.32-.74-.27-.36.08-.39.65.31.92.57.22,1.6-.56,1.6-.56l.04.03s-.01.04,0,.07c0,.11.1.19.21.19.11,0,.19-.1.19-.21,0-.11-.1-.19-.21-.19-.02,0-.04,0-.05.01v-.08s.31-.36.8-.84l.08-.07.13-.13-.41-.4ZM71.69,20.48c-.32-.03-.65-.22-.54-.35.15-.18.3.14.57.19.35.07.57-.02.56.01-.01.03-.24.18-.59.15Z"/>
        <path class="cls-1" d="M79.35,16.24s-1.28-.03-2.81.94c-.68.43-1.42,1.06-2.02,1.63-.03.02-.05.05-.08.07l-.14.14c-.16-.15-.32-.3-.42-.39l.11-.11s.06-.06.09-.09c.72-.67,1.64-1.45,2.52-1.92,1.42-.76,2.74-.27,2.74-.27Z"/>
      </g>
      <path class="cls-1" d="M89.99,22.01s0-.02,0-.03c-.02-.66-.08-1.32-.19-1.98-.19-1.22-.52-2.41-1-3.55-1.23-2.93-3.18-5.28-5.81-7.06-1.47-1-3.08-1.71-4.8-2.15-.8-.21-1.62-.35-2.44-.42-.4-.04-.8-.06-1.2-.07h-.6c-.33.01-.66.03-.99.05-.74.06-1.47.17-2.2.34-1.15.26-2.26.65-3.32,1.16-1.32.63-2.52,1.44-3.62,2.41-1.32,1.17-2.41,2.52-3.28,4.05-1.26,2.22-1.93,4.61-2.02,7.16-.05,1.28.06,2.54.32,3.79.36,1.73.99,3.35,1.9,4.86,1.18,1.95,2.71,3.58,4.58,4.88,1.47,1.02,3.07,1.76,4.8,2.23.96.26,1.93.43,2.91.5.85.06,1.71.06,2.56-.01.84-.07,1.67-.2,2.48-.41,1.55-.38,3.01-.99,4.37-1.83,1.56-.95,2.91-2.14,4.06-3.56,1.38-1.71,2.37-3.62,2.95-5.75.23-.86.39-1.73.47-2.61.03-.35.05-.7.07-1.05,0-.33,0-.65,0-.98ZM74.21,37.47c-8.28-.02-15.04-6.83-14.92-15.2.12-8.17,6.83-14.82,15.09-14.74,8.2.04,14.87,6.75,14.85,14.98-.02,8.3-6.79,14.98-15.02,14.96Z"/>
    </g>
  </g>
</svg>