<?xml version="1.0" encoding="UTF-8"?>
<svg id="Layer_1" data-name="Layer 1" xmlns="http://www.w3.org/2000/svg" viewBox="0 0 90 45">
  <defs>
    <style>
      .cls-1 {
        fill: #fff;
      }
    </style>
  </defs>
  <path class="cls-1" d="M7.34,16.12H0v-6.71h22.74v6.71h-7.34v19.48H7.34v-19.48Z"/>
  <path class="cls-1" d="M24,9.4h22.08v6.71h-14.01v3.26h14.01v6.24h-14.01v3.26h14.01v6.71h-22.08V9.4Z"/>
  <path class="cls-1" d="M47.43,9.4h13.24c8.73,0,11.81,6.46,11.81,13.06,0,8.04-4.26,13.13-13.39,13.13h-11.67V9.4ZM55.5,28.88h3.16c5.03,0,5.76-4.07,5.76-6.53,0-1.65-.52-6.23-6.35-6.23h-2.57v12.77Z"/>
  <path class="cls-1" d="M84.09,25.57l-2.46-4.08-2.4,4.08h-5.91l5.61-8.25-5.4-7.9h5.91l2.19,3.9,2.25-3.9h5.91l-5.4,7.9,5.61,8.25h-5.91Z"/>
</svg>