<?xml version="1.0" encoding="UTF-8"?>
<svg id="Layer_1" data-name="Layer 1" xmlns="http://www.w3.org/2000/svg" viewBox="0 0 90 45">
  <defs>
    <style>
      .cls-1 {
        fill: #fff;
      }
    </style>
  </defs>
  <path class="cls-1" d="M44.96,27.27c3.63,0,7.06-1.41,9.64-4,2.57-2.58,4-6,4-9.64s-1.41-7.06-4-9.64c-1.29-1.29-2.79-2.28-4.42-2.96-1.63-.68-3.4-1.03-5.21-1.03-7.51,0-13.63,6.12-13.63,13.63,0,3.63,1.41,7.06,4,9.64,2.58,2.57,6,4,9.64,4ZM44.96.18c3.59,0,6.96,1.4,9.51,3.95,2.55,2.55,3.95,5.92,3.95,9.51s-1.4,6.96-3.95,9.51c-1.27,1.27-2.75,2.26-4.36,2.93-1.61.67-3.35,1.02-5.14,1.02-3.59,0-6.96-1.4-9.51-3.95-2.55-2.54-3.95-5.92-3.95-9.51C31.5,6.21,37.54.18,44.96.18Z"/>
  <path class="cls-1" d="M40.58,20.71c.06-.23-.19-.29-.19-.29-.5-.07-.98.11-.98.11l.98.7c.06-.02.13-.29.19-.51Z"/>
  <path class="cls-1" d="M44.96,26.61h-.01c7.16.01,12.98-5.81,12.98-12.96,0-3.58-1.45-6.82-3.8-9.18-2.35-2.35-5.59-3.8-9.16-3.8-7.15,0-12.97,5.82-12.97,12.97,0,3.46,1.34,6.72,3.8,9.17,2.44,2.44,5.7,3.8,9.17,3.8ZM41.23,23.2l1.52-4.64s.02-.02.02,0,.29.85.79,1.17v.05s-.27.02-.36.35c-.11.33-.64,1.95-.64,2s.09.06.15.07c.06.01.86.26,1.97.28s2.11-.18,2.11-.18c0,0-.02-.43-.44-.61l-.02-.07s.67-.41.81-1.16c0,0,.06,0,.06.06,0,.07.92,2.85.92,2.85,0,0-3.13,1.27-6.89-.18ZM44.59,24.71c0,.3-.25.55-.55.55s-.55-.25-.55-.55.25-.55.55-.55.55.25.55.55ZM41.22,18.64c0,.3-.25.55-.55.55s-.55-.25-.55-.55.25-.55.55-.55.55.25.55.55ZM50.23,22.46c.19.72-.23,1.51-.97,1.55-.75.06-.7-.14-.7-.14.65-.15.71-.43.76-.56.05-.14.01-.49.01-.49l-.75-1.16s-.02-.04-.13-.08c-.11-.04-.25-.04-.25-.04v-.09c.33-.35.44-1.31.44-1.31,0,0,.71,1.09.74,1.12.01.04.07,0,.07,0,.63-.36,1.46-1.1,1.46-1.1l-1.04-.95-.37-.04c.3-.71.16-1.46.16-1.46h.01c.26.18,2.9,2.75,2.9,2.75h-.01c-.64.86-2.35,1.94-2.35,1.94.01.01.01.04.01.05ZM44.95,17.21c-4.51,0-8.18-3.67-8.18-8.18,0-2.18.85-4.24,2.39-5.78.77-.77,1.67-1.37,2.65-1.78.98-.41,2.04-.62,3.13-.62,2.18,0,4.24.85,5.78,2.39,1.54,1.54,2.39,3.6,2.39,5.78,0,4.51-3.67,8.18-8.18,8.18ZM46.44,24.68c0,.3-.25.55-.55.55s-.55-.25-.55-.55.25-.55.55-.55.55.25.55.55ZM50.01,17.41s-.04-.06,0-.05h-.01s.7.18,1.44-.23c0,0,0,.33.07.42.06.06,2.72,2.58,2.72,2.58l-.54.71-3.68-3.43ZM37.17,18.56s.3-.15,1.43-.33c0,0,.12-.02.15-.04,0,0,.12-.09.19,0,.06.09-.11.25-.14.28s.19.04-.85.28c-1.04.25-1.17.85-1.17.93-.01.08-.14.76.67.84,0,0,.93-.13.53-1.09-.01,0-.01-.02-.01-.02,0,0-.08-.12.08-.08.16.02.63.12,1.13-.22,0,0,.01.58-.12.9,0,0,.71-.43,1.82-.36h.02c1.11.07.76.85.74.92-.02.07-.78,2.39-.78,2.39,0,0-1.58-.57-2.69-1.71,0,0-1.52.9-2-.86,0,0-.3-1.14,1-1.85Z"/>
  <polygon class="cls-1" points="50.51 8.12 50.5 8.12 50.5 8.15 50.52 8.15 50.52 8.12 50.51 8.12"/>
  <polygon class="cls-1" points="38.21 8.12 38.2 8.12 38.18 8.17 38.21 8.17 38.21 8.12"/>
  <path class="cls-1" d="M38.25,8.21v.04s.07,0,.07-.01h.04v-.07h.05v-.02h.05v.05s.07,0,.07-.01h.02v-.07h.05v-.11h.01v-.06h-.09v.11h-.01l-.04.04v.04h-.01l-.04-.04h-.02v-.08h-.08v.11h-.04s-.02.04-.02.04v.05h-.04v-.02h-.01v.05h.05Z"/>
  <polygon class="cls-1" points="42.17 6.61 42.18 6.57 42.14 6.59 42.17 6.61"/>
  <path class="cls-1" d="M44.76,12.66s-.37.46-.51.5c0,0-.21-.48-.43-.25,0,0-.13.09,0,.22,0,0,.12.13.21.05l.06.07s-.08.12-.22.15c0,0-.28-.15-.29.19,0,0,.16.36.7-.11,0,0,.25.29.42.25,0,0,.34-.11.06-.34,0,0-.09-.08-.23.08l-.12-.09s.5-.47.54-.49.53.49.53.49l-.07.09s-.2-.21-.34.05c0,0,.05.41.4.14l.18-.16s.4.41.63.23c0,0,0,0,.02-.02,0,0,0,0,0,0,.04-.04.11-.13.06-.21,0,0,0,0,0,0,0-.01-.01-.02-.02-.03,0,0-.09-.13-.23-.04,0,0-.09.02-.26-.15l.08-.08s.16.14.26-.09c0,0,.07-.21-.26-.21,0,0-.11.05-.21.29l-.5-.49s.52-.55,1.7-1.03c0,0,0,0,0,0,.16-.07.34-.13.52-.19-.05,0-.22,0-.48.04,0,0,0,0,0,0h0c-.43.09-1.11.32-1.97.96,0,0-1.31-1.05-2.42-1.12,0,0,1.95.91,2.22,1.3Z"/>
  <path class="cls-1" d="M47.45,11.47s-.02,0-.03,0c.01,0,.02,0,.02,0h.01Z"/>
  <path class="cls-1" d="M44.11,9.81c.08-.28.41-.48.41-.48-.3.37-.13.78-.13.78.08-.49.33-.53.33-.53-.25.35.07.68.07.68-.05-.25.11-.43.11-.43h.01v1.58s-.07.21-.07.3c0,0-.07.14-.04.23,0,0-.06.2-.11.22l.54-.02s-.06-.07-.09-.16c0,0,.02-.06,0-.15,0,0,0-.05-.04-.09,0,0-.01-.07,0-.15,0,0-.04-.05-.05-.18l.02-1.6c.13.05.2.44.2.44.18-.18.11-.72.11-.72.14.07.26.56.26.56.16-.28-.12-.74-.12-.74.16.02.46.47.46.47-.05-.51-.5-.68-.5-.68.16-.06.47.16.47.16-.08-.37-.6-.36-.6-.36.04-.08.21-.21.21-.21-.2-.05-.4.11-.4.11-.05-.04-.14-.22-.14-.22-.08.08-.07.21-.07.21-.15-.16-.48-.12-.48-.12.12,0,.3.23.3.23-.5-.11-.63.28-.63.28.14-.11.39-.11.39-.11-.44.2-.42.69-.42.69Z"/>
  <path class="cls-1" d="M44.95,1.1c-4.36,0-7.9,3.54-7.9,7.9s3.54,7.9,7.9,7.9,7.9-3.54,7.9-7.9-3.54-7.9-7.9-7.9ZM37.53,11.03l.38-1.75s.32-.15.82-.15c.55,0,.78.14.82.16l.07.3-.83.44-.31,3.11c-.42-.65-.74-1.36-.95-2.11h0ZM38.62,9.09s-.04,0-.06,0c-.02,0-.04,0-.05,0-.01,0-.03,0-.04,0-.05,0-.1.01-.14.02.09-.01.19-.03.3-.03ZM38.7,9.09s-.02,0-.02,0c-.01,0-.03,0-.04,0,.02,0,.04,0,.07,0ZM38.83,9h-.16v-.14h.16v.14ZM38.3,9.13s-.04,0-.06.01c-.03,0-.05.01-.07.02.04,0,.08-.02.13-.03ZM38.16,9.16s-.04,0-.05.01c.02,0,.03,0,.05-.01ZM43.23,3.47v.12h.15v-.02h.12v-.18l.05-.05h.11v-.32h.06v.27h.12l.02.02v.13h.16v-.06h.12v-.13l.06-.06h.11v-.3h.07v.26h.13l.02.02v.18h.26v-.13l.06-.06h.11v-.32h.07v.3h.11l.04.04v.18h.28v-.14l.14-.06v-.28h.08v.3h.11l.04.04v.16h.06v.04h.19v-.13l.04-.04h.13v-.27h.07v.32h.12l.04.04v.19h.12v.04h.18v-.11h.13v-.28h.08l.72,3.28c-.25-.11-1.12-.43-2.34-.48v-.57h-.69v.57c-1.23.05-2.1.39-2.35.5l.7-3.29v.02h.11v.27h.15ZM44.7,5.97v-.48h.54v.48h-.54ZM42.46,6.8s.25-.15.65-.27c.4-.12,1.01-.22,1.86-.22,1.55,0,2.41.4,2.52.46l.37,1.52-5.78.06.38-1.54ZM51.16,9s-.06,0-.09,0c-.02,0-.05,0-.07,0v-.13h.16v.13ZM50.26,9.28s.01,0,.02-.01c0,0,0,0,.01,0,0,0,0,0,.02,0,0,0,.01,0,.02,0,.02,0,.05-.02.08-.03,0,0,.02,0,.03,0,.02,0,.04-.01.05-.02.04,0,.07-.02.12-.03.01,0,.03,0,.04,0,.02,0,.05,0,.07-.01.02,0,.04,0,.06,0,.02,0,.03,0,.05,0,.02,0,.04,0,.05,0,.02,0,.05,0,.07,0,.03,0,.06,0,.1,0h.01s.07,0,.1,0c.04,0,.09,0,.12,0,0,0,0,0,0,0,.04,0,.07,0,.1.01,0,0,.01,0,.02,0,.18.03.31.06.39.09.06.02.09.04.09.04l.42,1.92c-.02.06-.03.11-.05.17,0,.01,0,.02-.01.04,0,0,0,0,0,0-.01.03-.02.06-.03.09-.01.04-.03.07-.04.11-.01.03-.02.06-.03.09,0,0,0,.01,0,.02-.03.08-.07.17-.1.26,0,0,0,.02-.01.02-.04.08-.07.17-.11.26-.02.05-.04.1-.07.15,0,0,0,0,0,0-.12.24-.25.47-.39.69l-.34-3.06-.92-.5.06-.26ZM42.06,8.42l5.82-.06h0s0,0,0,0h0s1.65,6.78,1.65,6.78c-1.17.88-2.6,1.43-4.15,1.51t0,0s0,0,0,0c-.14,0-.29.01-.43.01-.24,0-.48-.01-.72-.03,0,0-.01,0-.02,0-.03,0-.06,0-.08,0-.43-.05-.83-.13-1.2-.23-.92-.25-1.78-.67-2.53-1.22l1.66-6.77ZM50.18,9.61l.87.47.35,3.1c-.09.13-.18.26-.27.39t0,0l-.05.07c-.42.56-.92,1.05-1.48,1.48l-1.64-6.71,2.2,1.19M39.67,9.66h0s2.28-1.22,2.28-1.22l-1.65,6.69c-.56-.43-1.06-.93-1.49-1.49l-.02-.03c-.05-.06-.09-.12-.14-.19,0,0,0,0,0,0-.07-.13-.11-.21-.13-.24l.32-3.08.8-.42M52.33,11.13l-.41-1.88.05-.03h.02l-.25-1.14h-.08v.09h-.05v.02h-.04v-.05l-.04-.04h-.02v-.11h-.08v.08h-.02l-.04.04h-.01v-.04l-.04-.04h-.01v-.11h-.09v.11l-.05.02v.04h-.02v-.04l-.04-.04h-.01v-.11h-.09v.11h-.01l-.04.04v.02h-.02v-.04l-.02-.02h-.02v-.08h-.09v.09h-.01l-.04.04v.02h-.02l-.02-.02h-.02v-.08h-.08v.11h-.01l-.04.04v.04h-.02v-.02h-.02v.06h.05v.04h.09v-.07h.05v-.02h.05v.05h.07v-.02h.04v-.06h.05s.05-.01.05-.01v.06h.09v-.06h.09v.06h.11v-.05l.05-.02v-.09h.01v.11h.04v.06s.02,0,.02.01h.08v-.06h.06v.02h.05v.07s.04,0,.04.01h.07v-.04h.05v-.09h.01l.22,1.04c-.09-.03-.36-.12-.74-.14v-.18h-.25v.18c-.38.02-.64.11-.74.14l.21-1.04h.05s.02.02.02.02v-.05h-.09l-.23,1.14s-.01,0-.01,0l.08.05s0,0,0,0l-.06.25-2.24-1.22-.38-1.57v-.02h0l.2-.13h0s0,0,0,0h0s.01,0,.01,0h-.01s0-.01,0-.01v-.04s-.01-.01-.01-.01l-.75-3.41h-.22v.28h-.13v.11h-.01v-.04h-.12v-.14l-.08-.08h-.07v-.32h-.22v.26h-.08l-.08.08v.08h-.04v-.04h-.06v-.12l-.08-.08h-.06v-.3h-.25v.3l-.14.06v.11h-.12v-.13l-.08-.08h-.06v-.3h-.23v.32h-.06l-.11.11v.08h-.09v-.13l-.07-.07h-.08v-.26h-.23v.3h-.06l-.11.11v.08h-.12v-.02l-.07-.07h-.07v-.27h-.22v.32h-.06l-.09.09v.14h-.11v-.09h-.15v-.27h-.23l-.73,3.46s0,0,0,0h0s0,.02,0,.02h.02s.21.16.21.16c0,0,0,0,0,0-.02.01-.03.02-.03.02l-.39,1.59h0l-2.32,1.23h0s-.08-.31-.08-.31h0s-.04-.03-.11-.06c0,0,0,0,0,0,0,0-.01,0-.02,0,0,0-.01,0-.02,0,.1.03.15.06.15.06l.07-.05h.03s-.23-1.16-.23-1.16h-.09v.09h-.05v.02h-.02v-.04l-.04-.04h-.01v-.11h-.08v.08h-.02l-.02.04h-.02v-.02l-.04-.04h-.01v-.09h-.09v.08h-.02l-.02.02v.04h-.02v-.02l-.04-.04h-.01v-.11h-.09v.11h-.01l-.04.04v.04h-.02v-.04l-.05-.02v.05l.05.02v.05h.11v-.07h.05s.04,0,.04.01h.01v.05h.09v-.07h.05s.04.01.04.02h.01v.05h.04v.02h.07v-.05h.05v.02s.04,0,.04.01h.01v.06h.09v-.04h.05v-.09h.01l.21,1.04c-.1-.03-.36-.12-.74-.14v-.18h-.25v.2c-.27.02-.5.07-.64.12h0s0-.03,0-.03l.2-.94h0s-.01-.01-.01-.01v-.09h-.08s-.22,1.03-.24,1.12c0,0-.01,0-.01,0h.01l.07.05s.04-.02.13-.05c-.09.03-.13.05-.13.05-.02,0-.02.01-.02.01l-.37,1.71c-.17-.63-.26-1.29-.26-1.97,0-4.24,3.45-7.69,7.69-7.69s7.69,3.45,7.69,7.69c0,.74-.1,1.45-.3,2.13ZM38.1,9.17s-.03,0-.05.01c.01,0,.03,0,.05-.01Z"/>
  <path class="cls-1" d="M16.85,33.4c.16,0,.29-.06.4-.18.11-.12.16-.26.16-.42s-.06-.3-.16-.42c-.12-.11-.25-.16-.4-.16s-.28.05-.39.16c-.11.12-.16.26-.16.42s.06.3.16.42c.11.12.22.18.39.18Z"/>
  <path class="cls-1" d="M13.35,39.17c1.17,0,1.81-.57,1.94-1.73h.99c.76,0,1.33-.18,1.72-.55.34-.33.51-.84.51-1.38s-.13-.96-.39-1.25c-.27-.3-.81-.46-1.17-.46s-.69.11-.99.3c-.32.21-.55.5-.69.88h-.01c.06-.28.08-.61.08-.97v-.12h-1.11v2.99c0,.9-.25,1.36-.81,1.36s-.84-.46-.84-1.36c0-.46.06-.92.2-1.4l-1.16.22c-.11.44-.16.88-.16,1.3h.01c0,1.44.7,2.16,1.87,2.16ZM15.85,35.26c.27-.34.46-.51.88-.51s.63.21.63.83-.33.93-.99.93h0s-1.04-.01-1.04-.01c.09-.49.27-.9.53-1.24Z"/>
  <path class="cls-1" d="M25.45,38.57c0-.16-.05-.29-.15-.41-.11-.11-.23-.16-.37-.16s-.27.05-.37.16c-.11.12-.15.25-.15.41s.05.29.15.41c.11.11.22.16.37.16s.27-.05.37-.16c.11-.11.15-.25.15-.41Z"/>
  <path class="cls-1" d="M25.79,38.17c-.11.12-.15.25-.15.41s.05.3.15.41c.11.11.25.16.39.16s.27-.05.37-.16c.11-.11.15-.25.15-.41s-.05-.29-.15-.41c-.11-.11-.22-.16-.37-.16s-.28.05-.39.16Z"/>
  <polygon class="cls-1" points="26.7 33.9 25.59 33.9 25.59 36.51 24.39 36.51 24.32 36.51 22.7 36.51 22.63 36.51 21.06 36.51 20.95 36.51 20.39 36.51 20.39 32.14 19.27 32.14 19.27 37.44 20.95 37.44 21.06 37.44 22.63 37.44 22.7 37.44 24.32 37.44 24.39 37.44 26.7 37.44 26.7 33.9"/>
  <polygon class="cls-1" points="27.13 39.3 27.13 39.29 27.13 39.29 27.13 39.3"/>
  <path class="cls-1" d="M30.79,36.51h-.69s-.64-.01-.64-.01v-2.61h-1.12v3.62c0,.34-.06.57-.16.71-.11.13-.3.19-.48.19s-.34-.02-.48-.06l-.08.93c.16.03-.71.05.5.05s1.82-.62,1.82-1.87v-.04h.53s1.93.01,1.93.01v-5.3h-1.12v4.37Z"/>
  <rect class="cls-1" x="33.01" y="32.14" width="1.12" height="5.32"/>
  <path class="cls-1" d="M37.12,32.42c-.11.12-.15.25-.15.41s.05.29.15.41c.11.12.23.18.37.18s.27-.06.37-.18c.11-.11.15-.26.15-.41s-.05-.29-.15-.41c-.11-.11-.23-.16-.37-.16s-.27.05-.37.16Z"/>
  <path class="cls-1" d="M38.38,32.42c-.11.11-.15.25-.15.41s.05.29.15.41.25.18.39.18.27-.06.37-.18c.11-.11.15-.26.15-.41s-.05-.29-.15-.41c-.11-.11-.22-.16-.37-.16s-.28.05-.39.16Z"/>
  <path class="cls-1" d="M43.12,32.42c-.11.12-.15.25-.15.41s.05.29.15.41c.11.12.22.18.37.18s.27-.06.37-.18c.11-.11.15-.26.15-.41s-.05-.29-.15-.41c-.11-.11-.23-.16-.37-.16s-.27.05-.37.16Z"/>
  <path class="cls-1" d="M44.38,32.42c-.11.11-.15.25-.15.41s.05.29.15.41c.09.12.23.18.37.18s.27-.06.37-.18c.11-.11.15-.26.15-.41s-.05-.29-.15-.41c-.11-.11-.23-.16-.37-.16s-.27.05-.37.16Z"/>
  <path class="cls-1" d="M52.79,32.38c-.11.12-.16.26-.16.42s.06.3.16.42.23.18.39.18.29-.06.4-.18c.11-.12.16-.26.16-.42s-.06-.3-.16-.42c-.11-.11-.25-.16-.4-.16s-.28.05-.39.16Z"/>
  <path class="cls-1" d="M56.52,33.8c-.6,0-1.06.19-1.41.56-.32.33-.47.82-.47,1.26s.11.76.32.95c-.09-.04-.22-.06-.39-.06h-.83v-2.61h-1.12v2.61h-1.51c.15-.28.22-.47.22-1s-.13-.96-.39-1.25c-.27-.3-.79-.46-1.16-.46s-.69.11-.99.3c-.33.22-.56.5-.7.88h-.01c.06-.28.09-.6.09-.97v-1.88h-1.12v4.38h-.79s-.2.01-.2.01c-.15,0-.32.01-.49.04.21-.21.32-.43.32-1s-.15-1-.44-1.31c-.29-.29-.7-.44-1.25-.44s-.98.18-1.33.53-.53.81-.53,1.37c0,.36.08.64.23.85-.12-.02-.25-.04-.39-.04h-2.42v-2.45c-.43-.18-.89-.26-1.53-.26s-1.13.2-1.47.58c-.3.35-.46.18-.46,1.33s.63,1.73,1.9,1.73h3.77s4.39.01,4.39.01h0s5.28-.01,5.28-.01h2.61-.01s3.91,0,3.91,0v-1.89c0-.54-.13-.96-.39-1.26-.28-.33-.67-.49-1.26-.49ZM38.66,34.85v1.66h-.34c-.61,0-.91-.3-.91-.91,0-.26.07-.46.19-.62.13-.16.3-.25.53-.25s.41.04.55.12h-.01ZM44.59,36.29h0c-.12.14-.05.22-.48.22s-.64-.3-.64-.92c0-.28.07-.5.21-.65.12-.13.02-.2.46-.2s.64.29.64.89c0,.28-.07.5-.19.67ZM49.25,36.51h0s-1.09-.01-1.09-.01c.08-.48.26-.9.53-1.24s.44-.51.86-.51.63.22.63.83-.32.92-.93.93ZM57.09,36.52h-.43c-.61,0-.91-.3-.91-.91,0-.26.07-.46.19-.62.13-.16.11-.25.53-.25s.63.32.63.95v.83Z"/>
  <path class="cls-1" d="M61.41,33.41c.14,0,.27-.06.37-.18.11-.11.15-.26.15-.41s-.05-.29-.15-.41c-.11-.11-.23-.16-.37-.16s-.27.05-.37.16c-.11.12-.15.25-.15.41s.05.29.15.41.23.18.37.18Z"/>
  <path class="cls-1" d="M62.66,33.41c.14,0,.27-.06.37-.18.11-.11.15-.26.15-.41s-.05-.29-.15-.41c-.11-.11-.23-.16-.37-.16s-.27.05-.37.16c-.11.11-.15.25-.15.41s.05.29.15.41c.09.12.23.18.37.18Z"/>
  <path class="cls-1" d="M64.32,37.44h3.63v-3.54h-1.12v2.61h-3.15v-2.45c-.43-.18-.89-.26-1.53-.26s-1.13.2-1.47.58c-.3.35-.46.18-.46,1.33s.63,1.73,1.9,1.73h2.2ZM62.56,34.85v1.66h-.34c-.61,0-.91-.3-.91-.91,0-.26.07-.46.19-.62.13-.16.3-.25.53-.25s.41.04.55.12h-.01Z"/>
  <path class="cls-1" d="M67.38,33.4c.15,0,.29-.06.4-.18.11-.12.16-.26.16-.42s-.06-.3-.16-.42c-.11-.11-.25-.16-.4-.16s-.28.05-.39.16-.16.26-.16.42.06.3.16.42c.11.12.23.18.39.18Z"/>
  <path class="cls-1" d="M70.74,37.44h1.58-.01s3.91,0,3.91,0v-1.89c0-.54-.13-.96-.39-1.26-.28-.33-.67-.49-1.26-.49s-1.06.19-1.41.56c-.32.33-.47.82-.47,1.26s.11.76.32.95c-.09-.04-.22-.06-.39-.06h-2.55v-4.37h-1.11v5.3h1.78ZM73.99,34.99c.13-.16.11-.25.53-.25s.63.32.63.95v.83h-.43c-.61,0-.91-.3-.91-.91,0-.26.07-.46.19-.62Z"/>
  <rect class="cls-1" x="77.06" y="32.36" width="1.12" height="5.08"/>
  <path class="cls-1" d="M76.63,31.37s0,0,.01,0h0s-.01,0-.01,0Z"/>
  <path class="cls-1" d="M78.1,31.36c-.32,0-.47-.08-.47-.23s.11-.22.33-.22c.08,0,.16.01.25.01l.12.02.11-.58-.15-.02c-.11-.02.08-.02-.29-.02s-.65.08-.85.26c-.18.15-.26.33-.26.54,0,.14.05.25.13.3-.1-.02-.22-.03-.36-.03v.6h1.89v-.61h-.43Z"/>
  <path class="cls-1" d="M13.16,43.53c.2-.06.36-.16.48-.33.13-.16.19.07.19-.57s-.39-.96-1.14-.96c-.42,0-.74.01-.95.02v3.24h.7v-1.27h.05l.7,1.27h.84l-.63-1.04c-.05-.08-.13-.21-.23-.36ZM12.96,43c-.08.08-.2.12-.35.12h-.18v-.83h.2v-.02c.3,0,.46.14.46.41,0,.14-.04.25-.13.33Z"/>
  <rect class="cls-1" x="14.6" y="41.69" width=".7" height="3.24"/>
  <path class="cls-1" d="M17.72,41.69l-.33.76c-.12.27-.2.46-.23.58-.06-.15-.12-.33-.2-.51l-.35-.83h-.77l.95,2.11v1.12h.7v-1.13h.01s.96-2.1.96-2.1h-.74Z"/>
  <path class="cls-1" d="M19.34,41.69l-1,3.24h.7l.18-.6h1.06l.19.6h.76l-1.05-3.24h-.83ZM19.4,43.74l.25-.79c.02-.09.06-.25.11-.46.04.18.07.33.12.46h.01l.25.79h-.72Z"/>
  <path class="cls-1" d="M22.79,41.68c-.37,0-.72.01-1.04.04v3.22c.37.02.39.02.9.02s.91-.15,1.2-.44h0c.3-.29.46-.21.46-1.26s-.5-1.58-1.52-1.58ZM23.31,44.08c-.15.16-.35.25-.61.25-.09,0-.18-.01-.26-.02v-1.99c.06,0-.01,0,.29,0s.51.08.64.27h0c.12.16.18.41.18.74s-.08.58-.25.76Z"/>
  <polygon class="cls-1" points="26.77 42.93 25.66 42.93 25.66 41.69 24.96 41.69 24.96 44.93 25.66 44.93 25.66 43.59 26.77 43.59 26.77 44.93 27.47 44.93 27.47 41.69 26.77 41.69 26.77 42.93"/>
  <path class="cls-1" d="M30.86,43.53c.2-.06.36-.16.48-.33.13-.16.19.07.19-.57s-.39-.96-1.14-.96c-.42,0-.74.01-.95.02v3.24h.7v-1.27h.05l.7,1.27h.84l-.63-1.04c-.05-.08-.13-.21-.23-.36ZM30.66,43c-.08.08-.2.12-.35.12h-.18v-.83h.2v-.02c.3,0,.46.14.46.41,0,.14-.04.25-.13.33Z"/>
  <polygon class="cls-1" points="32.28 44.93 34 44.93 34 44.29 32.98 44.29 32.98 43.57 33.94 43.57 33.94 42.97 32.98 42.97 32.98 42.32 34 42.32 34 41.69 32.28 41.69 32.28 44.93"/>
  <path class="cls-1" d="M36.54,44.24c-.08.04,0,.05-.29.05s-.5-.08-.65-.26c-.14-.16-.21-.41-.21-.71s.07-.55.22-.72c.16-.2.44-.29.71-.29s.53.06.77.15l.14-.68c-.27-.08-.33-.13-.88-.13s-.97.16-1.27.49c-.29.32-.44.82-.44,1.3s.13.86.39,1.13c.27.28.77.42,1.16.42s.74-.07,1.06-.21v-1.6h-.7v1.06Z"/>
  <rect class="cls-1" x="38.03" y="41.69" width=".7" height="3.24"/>
  <path class="cls-1" d="M40.87,41.62c-.42,0-.78.15-1.06.47-.29.33-.44.76-.44,1.27s.12.91.35,1.19c.23.29.63.44,1.05.44s.78-.15,1.06-.47c.29-.33.44-.76.44-1.27s-.12-.91-.35-1.19c-.23-.29-.63-.44-1.05-.44ZM41.33,44.05c-.13.18-.05.26-.51.26s-.7-.34-.7-1.02c0-.3.06-.55.2-.72.13-.18.3-.26.51-.26.47,0,.7.34.7,1.02,0,.3-.06.55-.2.72Z"/>
  <path class="cls-1" d="M44.83,42.51c0,.6.01,1.05.04,1.38-.07-.22-.16-.44-.26-.64l-.76-1.54h-.92v3.24h.67v-.86c0-.53-.01-.98-.04-1.36.05.18.13.39.23.62l.78,1.59h.01s.92.01.92.01v-3.24h-.68v.81Z"/>
  <path class="cls-1" d="M49.77,41.69l-.43,1.44c-.07.2-.12.43-.18.7-.06-.29-.11-.53-.16-.7l-.42-1.44h-.81l-.49,3.24h.71l.15-1.3c.02-.23.06-.53.08-.88.04.28.11.6.2.93l.37,1.24h.65l.39-1.34c.06-.25.12-.51.18-.83.02.32.06.58.09.81l.2,1.37h.02s.72,0,.72,0l-.49-3.24h-.79Z"/>
  <path class="cls-1" d="M53.46,43.69c0,.25-.05.41-.13.51-.08.11-.22.15-.42.15s-.35-.06-.43-.16-.12-.25-.12-.46v-2.06h-.7v2.1c0,.81.35,1.2,1.2,1.2s1.29-.44,1.29-1.33h0v-1.97h-.69v2.01Z"/>
  <path class="cls-1" d="M56.89,42.51c0,.6.01,1.05.04,1.38-.07-.22-.16-.44-.26-.64l-.76-1.54h-.92v3.24h.67v-.86c0-.53-.01-.98-.04-1.36.05.18.13.39.23.62l.78,1.59h.01s.92.01.92.01v-3.24h-.68v.81Z"/>
  <rect class="cls-1" x="58.36" y="41.69" width=".7" height="3.24"/>
  <path class="cls-1" d="M61.77,44.16c-.15.08.01.12-.51.12s-.79-.34-.79-.99c0-.29.07-.53.2-.7.13-.18.36-.26.56-.26s.37.04.55.11l.09-.68c-.18-.06-.13-.09-.62-.09s-.88.16-1.14.49c-.27.32-.4.84-.4,1.27s.09.78.29,1.05c.25.34.62.5,1.13.5.28,0,.53-.05.76-.14h-.02s-.09-.68-.09-.68Z"/>
  <rect class="cls-1" x="62.6" y="41.69" width=".7" height="3.24"/>
  <path class="cls-1" d="M65.03,41.68c-.32,0-.62.01-.91.02v3.24h.7v-1.04h.16c.39,0,.7-.12.92-.35h0c.21-.21.32-.14.32-.83s-.4-1.04-1.19-1.04ZM65.01,43.28c-.07,0-.14-.01-.2-.02v-.97h.18c.34,0,.5.15.5.49s-.16.5-.48.5Z"/>
  <path class="cls-1" d="M67.26,41.69l-1,3.24h.7l.18-.6h1.06l.19.6h.76l-1.05-3.24h-.83ZM67.31,43.74l.25-.79c.02-.09.06-.25.11-.46.04.18.07.33.12.46h.01l.25.79h-.72Z"/>
  <polygon class="cls-1" points="70.36 41.69 69.66 41.69 69.66 44.93 71.28 44.93 71.28 44.28 70.36 44.28 70.36 41.69"/>
  <rect class="cls-1" x="71.86" y="41.69" width=".7" height="3.24"/>
  <polygon class="cls-1" points="73.17 42.34 73.9 42.34 73.9 44.93 74.6 44.93 74.6 42.34 75.32 42.34 75.32 41.69 73.17 41.69 73.17 42.34"/>
  <path class="cls-1" d="M77.3,42.45c-.12.27-.2.46-.23.58-.06-.15-.12-.33-.2-.51l-.35-.83h-.76l.95,2.11v1.12h.7v-1.13l.96-2.1h-.74l-.33.76Z"/>
</svg>