<?xml version="1.0" encoding="UTF-8"?>
<svg id="Layer_1" data-name="Layer 1" xmlns="http://www.w3.org/2000/svg" viewBox="0 0 90 45">
  <defs>
    <style>
      .cls-1 {
        fill: #fff;
      }
    </style>
  </defs>
  <g>
    <path class="cls-1" d="M5.32,35.1c-.6.48-1.39.7-2.3.7-1.23,0-2.33-.64-3.02-1.28l.99-1.45c.62.64,1.57,1.07,2.22,1.07s1.13-.31,1.13-.88-.63-.8-1-.94c-.37-.14-1.01-.36-1.29-.48-.21-.1-.64-.26-1.01-.62-.37-.35-.67-.84-.67-1.64s.39-1.45.89-1.86c.48-.41,1.26-.68,2.24-.68s2.12.47,2.7,1.05l-.85,1.39c-.49-.49-1.26-.86-1.9-.86s-1.11.25-1.11.76.48.71.86.86c.37.15,1,.37,1.27.48.23.09.8.31,1.18.69.36.36.67.88.67,1.64,0,.81-.38,1.55-1,2.03Z"/>
    <path class="cls-1" d="M12.55,31.87c-.57.47-1.34.64-2.22.64h-1.05v3.14h-2v-8.5h3.04c.88,0,1.65.17,2.22.64.57.47.89,1.12.89,2.03s-.32,1.57-.89,2.05ZM11.01,28.92c-.25-.17-.53-.23-.96-.23h-.78v2.28h.78c.43,0,.71-.06.96-.23.23-.17.41-.48.41-.91s-.17-.73-.41-.9Z"/>
    <path class="cls-1" d="M18.35,35.8c-2.53,0-4.51-1.64-4.51-4.39s1.98-4.4,4.51-4.4,4.51,1.65,4.51,4.4-1.98,4.39-4.51,4.39ZM18.35,28.71c-1.42,0-2.49,1.02-2.49,2.65s1.07,2.66,2.49,2.66,2.49-1.04,2.49-2.66-1.07-2.65-2.49-2.65Z"/>
    <path class="cls-1" d="M30.58,35.65h-2.32l-1.79-3.25h-.63v3.25h-2v-8.5h3.06c.95,0,1.69.2,2.24.6.57.42.94,1.1.94,1.95,0,1.61-1.04,2.24-1.66,2.44l2.16,3.51ZM27.64,28.91c-.25-.18-.57-.22-1.02-.22h-.79v2.18h.79c.46,0,.78-.05,1.02-.23.26-.18.43-.42.43-.86s-.17-.68-.43-.86Z"/>
    <path class="cls-1" d="M36.8,28.73h-2.19v6.93h-2v-6.93h-2.19v-1.58h6.38v1.58Z"/>
    <path class="cls-1" d="M44.83,35.1c-.6.48-1.39.7-2.3.7-1.23,0-2.33-.64-3.02-1.28l.99-1.45c.62.64,1.57,1.07,2.22,1.07s1.13-.31,1.13-.88-.63-.8-1-.94c-.37-.14-1.01-.36-1.29-.48-.21-.1-.64-.26-1.01-.62-.37-.35-.67-.84-.67-1.64s.39-1.45.89-1.86c.48-.41,1.26-.68,2.24-.68s2.12.47,2.7,1.05l-.85,1.39c-.49-.49-1.26-.86-1.9-.86s-1.11.25-1.11.76.48.71.86.86c.37.15,1,.37,1.27.48.23.09.8.31,1.18.69.36.36.67.88.67,1.64,0,.81-.38,1.55-1,2.03Z"/>
    <path class="cls-1" d="M50.76,35.8c-2.53,0-4.51-1.64-4.51-4.39s1.98-4.4,4.51-4.4,4.51,1.65,4.51,4.4-1.98,4.39-4.51,4.39ZM50.76,28.71c-1.42,0-2.49,1.02-2.49,2.65s1.07,2.66,2.49,2.66,2.49-1.04,2.49-2.66-1.07-2.65-2.49-2.65Z"/>
    <path class="cls-1" d="M63.33,34.64c-.43.44-1.33,1.16-3.07,1.16-2.5,0-4.46-1.65-4.46-4.39s1.98-4.39,4.46-4.39c1.75,0,2.7.73,2.92.96l-.62,1.65c-.16-.21-1.07-.89-2.19-.89-1.44,0-2.55.96-2.55,2.63s1.16,2.61,2.55,2.61c1.06,0,1.82-.42,2.29-.9l.67,1.55Z"/>
    <path class="cls-1" d="M74.79,35.65h-5.62v-8.5h5.51v1.59h-3.53v1.74h3.33v1.59h-3.33v1.97h3.64v1.61Z"/>
    <path class="cls-1" d="M81.91,28.73h-2.19v6.93h-2v-6.93h-2.19v-1.58h6.38v1.58Z"/>
    <path class="cls-1" d="M90,27.15l-2.96,5.07v3.44h-2v-3.44l-2.96-5.07h2.22l1.74,3.39,1.74-3.39h2.22Z"/>
  </g>
  <path class="cls-1" d="M64.09,27.15v2h1.4v6.51h2.51v-8.5h-3.91ZM66.75,28.15v7.13h-.88v-6.51l.88-.62h-2.28v-.62h3.16l-.88.62Z"/>
  <g>
    <path class="cls-1" d="M19.17,12.83h-1.67v4.15h-1.98c-.2,0-.37-.07-.51-.21-.14-.14-.21-.31-.21-.51v-3.43h-1.67v3.43c0,.2-.07.37-.21.51-.14.14-.31.21-.51.21h-1.66v-1.03c0-.53-.13-1.02-.39-1.46-.26-.44-.61-.8-1.06-1.06-.44-.26-.93-.39-1.46-.39h-2.43v4.59c0,.34-.12.63-.37.87-.24.24-.54.37-.87.37h-1.04c-.34,0-.63-.12-.87-.37-.24-.24-.37-.54-.37-.87v-3.24H.23v3.24c0,.53.13,1.02.39,1.46.26.44.61.8,1.06,1.06.44.26.93.39,1.46.39h1.04c.53,0,1.02-.13,1.46-.39.44-.26.8-.61,1.06-1.06.26-.44.39-.93.39-1.46v-2.92h.76c.34,0,.63.12.87.37.24.24.37.54.37.87v2.7h3.33c.59,0,1.11-.19,1.55-.58.44.38.73.58,1.32.58h3.89v-5.81Z"/>
    <path class="cls-1" d="M62.6,16.97h-5.06c-.34,0-.63-.12-.87-.37-.24-.25-.37-.54-.37-.88v-2.38h-1.67v2.38c0,.53.13,1.02.39,1.47.26.45.61.81,1.06,1.06.44.26.93.39,1.46.39h6.73v-5.81h-1.67v4.15Z"/>
    <path class="cls-1" d="M66.69,18.33c0,.34-.12.63-.37.87-.24.24-.54.37-.87.37h-.83v1.67h.83c.53,0,1.02-.13,1.46-.39.44-.26.8-.61,1.06-1.06.26-.44.39-.93.39-1.46v-5.5h-1.67v5.5Z"/>
    <path class="cls-1" d="M88.1,12.55v4.55h-.96c-.2,0-.37-.07-.51-.21-.14-.14-.21-.31-.21-.51v-3.04h-1.67v2.91c0,.2-.07.37-.21.51-.14.14-.31.21-.51.21h-.96v-3.63h-1.67v3.63h-2.19v-4.15h-1.67v4.15h-2.21v-1.76c0-.53-.13-1.02-.39-1.46-.26-.44-.61-.8-1.06-1.06-.44-.26-.93-.39-1.46-.39s-1.02.13-1.46.39c-.44.26-.8.61-1.06,1.06-.26.44-.39.93-.39,1.46v.52c0,.53.13,1.02.39,1.46.26.44.61.8,1.06,1.06.44.26.93.39,1.46.39h1.2c-.07.26-.2.47-.41.64-.23.18-.49.28-.79.28h-2.39v1.67h2.39c.5,0,.97-.12,1.39-.35.42-.23.77-.55,1.04-.95.26-.38.41-.82.46-1.29h8.71c.54,0,1.04-.17,1.47-.51.22.2.47.35.73.46.29.12.85.18,1.15.18h2.38v-6.22h-1.67ZM71.2,15.22c0-.34.12-.63.37-.87.24-.24.54-.37.87-.37s.63.12.87.37c.24.24.37.54.37.87v1.76h-1.24c-.34,0-.63-.12-.87-.37-.24-.24-.37-.54-.37-.87v-.52Z"/>
    <path class="cls-1" d="M49.63,17.1h-.96c-.2,0-.37-.07-.51-.21-.14-.14-.21-.31-.21-.51v-3.04h-1.67v2.91c0,.2-.07.37-.21.51s-.31.21-.51.21h-.96v-3.63h-1.67v3.63h-2.2v-1.76c0-.53-.13-1.02-.39-1.46-.26-.44-.61-.8-1.06-1.06-.44-.26-.93-.39-1.46-.39s-1.02.13-1.46.39c-.44.26-.8.61-1.06,1.06-.26.44-.39.93-.39,1.46v.52c0,.53.13,1.02.39,1.46.26.44.61.8,1.06,1.06.44.26.93.39,1.46.39h1.2c-.07.26-.2.47-.41.64-.23.18-.49.28-.79.28h-2.39v1.67h2.39c.5,0,.97-.12,1.39-.35.42-.23.77-.55,1.04-.95.26-.38.41-.82.46-1.29h4.84c.54,0,1.04-.17,1.47-.51.22.2.47.35.73.46.28.12.59.18.9.18h2.62v-6.22h-1.67v4.55ZM36.6,15.22c0-.34.12-.63.37-.87.24-.24.54-.37.87-.37s.63.12.87.37c.24.24.37.54.37.87v1.76h-1.24c-.34,0-.63-.12-.87-.37-.24-.24-.37-.54-.37-.87v-.52Z"/>
    <path class="cls-1" d="M78.39,19.44c-.53,0-.96.43-.96.96s.43.96.96.96.96-.43.96-.96-.43-.96-.96-.96Z"/>
    <path class="cls-1" d="M60.97,12.55c.53,0,.96-.43.96-.96s-.43-.96-.96-.96-.96.43-.96.96.43.96.96.96Z"/>
    <path class="cls-1" d="M58.75,12.55c.53,0,.96-.43.96-.96s-.43-.96-.96-.96-.96.43-.96.96.43.96.96.96Z"/>
    <path class="cls-1" d="M15.06,12.03c.53,0,.96-.43.96-.96s-.43-.96-.96-.96-.96.43-.96.96.43.96.96.96Z"/>
    <circle class="cls-1" cx="12.85" cy="11.07" r=".96"/>
    <path class="cls-1" d="M18.27,19.43c-.53,0-.96.43-.96.96s.43.96.96.96.96-.43.96-.96-.43-.96-.96-.96Z"/>
    <path class="cls-1" d="M16.05,19.43c-.53,0-.96.43-.96.96s.43.96.96.96.96-.43.96-.96-.43-.96-.96-.96Z"/>
  </g>
  <path class="cls-1" d="M32.11,12.55v4.55h-.96c-.2,0-.37-.07-.51-.21-.14-.14-.21-.31-.21-.51v-3.04h-1.67v2.91c0,.2-.07.37-.21.51-.14.14-.31.21-.51.21h-.96v-3.63h-1.67v3.63h-2.09v-7.77h-3.91v2h1.4v7.44h7.22c.54,0,1.03-.17,1.47-.51.22.2.47.35.73.46.28.12.59.18.9.18h2.62v-6.22h-1.67ZM22.07,10.2v6.77h-.88v-6.15l.88-.62h-2.28v-.62h3.16l-.88.62Z"/>
  <circle class="cls-1" cx="4.88" cy="22.27" r=".96"/>
  <circle class="cls-1" cx="2.67" cy="22.27" r=".96"/>
</svg>