<?xml version="1.0" encoding="UTF-8"?>
<svg id="Layer_1" data-name="Layer 1" xmlns="http://www.w3.org/2000/svg" viewBox="0 0 90 45">
  <defs>
    <style>
      .cls-1 {
        fill: #fff;
      }
    </style>
  </defs>
  <g id="Brandmark">
    <g>
      <g>
        <g>
          <path class="cls-1" d="M23.32,28.5s-.04-.01-.05-.03l-.56-1.16h-.73s-.02,0-.02.02v1.14s-.01.04-.04.04h-.15s-.04-.01-.04-.04v-2.6s.01-.04.04-.04h.9c.25,0,.46.07.6.2.15.13.22.31.22.54,0,.19-.05.34-.14.46-.1.12-.23.2-.4.25l.58,1.19s0,.02,0,.03c0,0-.01.01-.03.01h-.18ZM22.67,27.09c.19,0,.34-.04.44-.14.1-.09.15-.22.15-.39s-.05-.3-.15-.39-.25-.14-.44-.14h-.68s-.02,0-.02.02v1.01s0,.02.02.02h.68Z"/>
          <path class="cls-1" d="M25,28.54c-.22,0-.4-.05-.55-.15-.15-.1-.25-.25-.32-.45-.01-.03-.03-.07-.03-.12s-.02-.1-.02-.15c0-.06-.01-.13-.02-.21,0-.08,0-.18,0-.3s0-.21,0-.3c0-.08,0-.15.02-.21,0-.06.02-.11.02-.15,0-.04.02-.08.03-.12.07-.2.17-.35.32-.45.15-.1.33-.15.55-.15s.4.05.55.15.25.25.32.45c0,.04.02.08.03.12,0,.04.02.09.03.15,0,.06.01.13.02.21,0,.08,0,.18,0,.29s0,.22,0,.3c0,.08,0,.15-.02.21,0,.06-.02.11-.03.15,0,.04-.02.08-.03.12-.07.2-.17.35-.32.45-.15.1-.33.16-.55.16ZM25.72,27.16c0-.11,0-.2,0-.28,0-.08,0-.15-.01-.2,0-.05-.01-.1-.02-.14,0-.04-.02-.07-.03-.1-.1-.3-.31-.45-.65-.45s-.55.15-.65.45c0,.03-.02.06-.03.1s-.02.08-.02.14c0,.05,0,.12-.01.2,0,.08,0,.17,0,.28s0,.2,0,.28c0,.08,0,.15.01.2,0,.05.01.1.02.14,0,.04.02.07.03.1.1.3.32.45.65.45s.55-.15.65-.45c0-.03.02-.06.03-.1s.02-.08.02-.14,0-.12.01-.2,0-.17,0-.28Z"/>
          <path class="cls-1" d="M27.12,28.5s-.04-.01-.04-.04v-1.06l-.8-1.54s0-.02,0-.03c0,0,.02-.01.03-.01h.15s.04.01.06.04l.68,1.28h.01l.66-1.28s.03-.04.06-.04h.15s.03,0,.03.01c0,0,0,.02,0,.03l-.8,1.54v1.06s-.01.04-.04.04h-.15Z"/>
          <path class="cls-1" d="M29.05,25.86s.02-.04.05-.04h.14s.04.01.05.04l.93,2.6s0,.04-.03.04h-.15s-.05-.01-.05-.04l-.24-.66h-1.17l-.24.66s-.03.04-.05.04h-.15s-.03-.01-.03-.04l.94-2.6ZM29.67,27.58l-.5-1.4h-.01l-.5,1.4h1.02Z"/>
          <path class="cls-1" d="M30.77,25.86s.01-.04.04-.04h.15s.04.01.04.04v2.41s0,.02.02.02h1.32s.04.01.04.04v.13s-.01.04-.04.04h-1.54s-.04-.01-.04-.04v-2.6Z"/>
          <path class="cls-1" d="M33.91,27.94s-.02-.07-.03-.11c0-.04-.02-.09-.02-.15s0-.13-.01-.22,0-.18,0-.3,0-.22,0-.3c0-.08,0-.16.01-.22,0-.06.01-.11.02-.15s.02-.08.03-.11c.07-.2.17-.35.31-.45.14-.1.32-.15.53-.15.18,0,.35.04.49.12.14.08.25.21.32.37,0,.02,0,.04-.01.05l-.13.06s-.04,0-.05-.02c-.06-.11-.14-.21-.24-.28s-.23-.1-.38-.1c-.17,0-.3.04-.4.11-.1.08-.18.19-.23.33,0,.03-.02.06-.02.1s-.02.08-.02.14,0,.12-.01.2c0,.08,0,.17,0,.29s0,.21,0,.29,0,.15.01.2.01.1.02.14c0,.04.02.07.02.1.05.15.13.26.23.33.1.08.23.11.4.11.15,0,.28-.03.38-.1.1-.07.18-.16.24-.28.01-.02.03-.03.05-.02l.13.06s.02.03.01.05c-.08.17-.18.29-.32.37-.14.08-.3.12-.49.12-.21,0-.39-.05-.53-.15-.14-.09-.24-.23-.31-.44Z"/>
          <path class="cls-1" d="M37.01,28.54c-.22,0-.4-.05-.55-.15-.15-.1-.25-.25-.32-.45-.01-.03-.03-.07-.03-.12s-.02-.1-.02-.15c0-.06-.01-.13-.02-.21,0-.08,0-.18,0-.3s0-.21,0-.3c0-.08,0-.15.02-.21,0-.06.02-.11.02-.15,0-.04.02-.08.03-.12.07-.2.17-.35.32-.45.15-.1.33-.15.55-.15s.4.05.55.15.25.25.32.45c0,.04.02.08.03.12,0,.04.02.09.03.15s.01.13.02.21c0,.08,0,.18,0,.3s0,.22,0,.3c0,.08,0,.15-.02.21,0,.06-.02.11-.03.15s-.02.08-.03.12c-.07.2-.17.35-.32.45-.15.1-.33.15-.55.15ZM37.72,27.16c0-.11,0-.2,0-.28,0-.08,0-.15-.01-.2,0-.05-.01-.1-.02-.14,0-.04-.02-.07-.03-.1-.1-.3-.31-.45-.65-.45s-.55.15-.65.45c0,.03-.02.06-.03.1s-.02.08-.02.14c0,.05,0,.12-.01.2,0,.08,0,.17,0,.28s0,.2,0,.28,0,.15.01.2c0,.05.01.1.02.14,0,.04.02.07.03.1.1.3.32.45.65.45s.55-.15.65-.45c0-.03.02-.06.03-.1s.02-.08.02-.14,0-.12.01-.2c0-.08,0-.17,0-.28Z"/>
          <path class="cls-1" d="M38.6,25.86s.01-.04.04-.04h.15s.05.01.06.04l.87,1.92h.02l.85-1.92s.03-.04.06-.04h.16s.04.01.04.04v2.6s-.01.04-.04.04h-.15s-.04-.01-.04-.04v-2.1h-.01l-.77,1.7s-.02.03-.03.03c0,0-.03,0-.04,0h-.08s-.05-.02-.07-.04l-.77-1.7h-.01v2.1s-.01.04-.04.04h-.15s-.04-.01-.04-.04v-2.6h0Z"/>
          <path class="cls-1" d="M41.57,25.86s.01-.04.04-.04h.15s.05.01.06.04l.87,1.92h.02l.85-1.92s.03-.04.06-.04h.16s.04.01.04.04v2.6s-.01.04-.04.04h-.15s-.04-.01-.04-.04v-2.1h-.01l-.77,1.7s-.02.03-.03.03c0,0-.03,0-.04,0h-.08s-.05-.02-.07-.04l-.77-1.7h-.01v2.1s-.01.04-.04.04h-.15s-.04-.01-.04-.04v-2.6h0Z"/>
          <path class="cls-1" d="M44.54,25.86s.01-.04.04-.04h.15s.04.01.04.04v2.6s-.01.04-.04.04h-.15s-.04-.01-.04-.04v-2.6Z"/>
          <path class="cls-1" d="M46.28,28.54c-.09,0-.17,0-.26-.03s-.17-.04-.25-.07c-.08-.03-.15-.06-.21-.1s-.12-.08-.17-.12c-.02-.02-.02-.04,0-.05l.1-.12s.04-.02.05,0c.09.07.2.13.33.19.13.06.28.09.43.09.22,0,.38-.05.51-.15s.18-.23.18-.4c0-.07,0-.13-.03-.18s-.06-.11-.1-.15c-.05-.04-.11-.08-.2-.11s-.19-.05-.31-.07l-.12-.02c-.26-.03-.46-.11-.58-.23-.13-.12-.19-.28-.19-.48,0-.23.08-.42.23-.55.15-.13.36-.2.62-.2.15,0,.29.02.43.06.13.04.25.1.34.17.02.01.03.03,0,.05l-.08.12s-.03.02-.05,0c-.11-.07-.21-.11-.32-.15-.1-.03-.22-.05-.33-.05-.19,0-.34.05-.45.14-.1.1-.16.22-.16.38,0,.14.05.25.14.34.1.09.26.15.49.17l.12.02c.27.04.47.12.6.24.12.12.19.28.19.48,0,.11-.02.22-.06.31s-.1.18-.18.25-.18.12-.3.16-.25.06-.4.06Z"/>
          <path class="cls-1" d="M48.64,28.54c-.09,0-.17,0-.26-.03s-.17-.04-.25-.07c-.08-.03-.15-.06-.21-.1s-.12-.08-.17-.12c-.02-.02-.02-.04,0-.05l.1-.12s.04-.02.05,0c.09.07.2.13.33.19.13.06.28.09.43.09.22,0,.38-.05.51-.15s.18-.23.18-.4c0-.07,0-.13-.03-.18s-.06-.11-.1-.15c-.05-.04-.11-.08-.2-.11s-.19-.05-.31-.07l-.12-.02c-.26-.03-.46-.11-.58-.23-.13-.12-.19-.28-.19-.48,0-.23.08-.42.23-.55.15-.13.36-.2.62-.2.15,0,.29.02.43.06.13.04.25.1.34.17.02.01.03.03,0,.05l-.08.12s-.03.02-.05,0c-.11-.07-.21-.11-.32-.15-.1-.03-.22-.05-.33-.05-.19,0-.34.05-.45.14-.1.1-.16.22-.16.38,0,.14.05.25.14.34.1.09.26.15.49.17l.12.02c.27.04.47.12.6.24.12.12.19.28.19.48,0,.11-.02.22-.06.31s-.1.18-.18.25-.18.12-.3.16-.25.06-.4.06Z"/>
          <path class="cls-1" d="M50.2,25.86s.01-.04.04-.04h.15s.04.01.04.04v2.6s-.01.04-.04.04h-.15s-.04-.01-.04-.04v-2.6Z"/>
          <path class="cls-1" d="M52.02,28.54c-.22,0-.4-.05-.55-.15-.15-.1-.25-.25-.32-.45-.01-.03-.03-.07-.03-.12s-.02-.1-.02-.15c0-.06-.01-.13-.02-.21,0-.08,0-.18,0-.3s0-.21,0-.3c0-.08,0-.15.02-.21,0-.06.02-.11.02-.15,0-.04.02-.08.03-.12.07-.2.17-.35.32-.45.15-.1.33-.15.55-.15s.4.05.55.15.25.25.32.45c0,.04.02.08.03.12,0,.04.02.09.03.15s.01.13.02.21c0,.08,0,.18,0,.3s0,.22,0,.3c0,.08,0,.15-.02.21,0,.06-.02.11-.03.15,0,.04-.02.08-.03.12-.07.2-.17.35-.32.45-.15.1-.33.15-.55.15ZM52.74,27.16c0-.11,0-.2,0-.28,0-.08,0-.15-.01-.2,0-.05-.01-.1-.02-.14,0-.04-.02-.07-.03-.1-.1-.3-.31-.45-.65-.45s-.55.15-.65.45c0,.03-.02.06-.03.1s-.02.08-.02.14c0,.05,0,.12-.01.2,0,.08,0,.17,0,.28s0,.2,0,.28c0,.08,0,.15.01.2,0,.05.01.1.02.14,0,.04.02.07.03.1.1.3.32.45.65.45s.55-.15.65-.45c0-.03.02-.06.03-.1s.02-.08.02-.14,0-.12.01-.2c0-.08,0-.17,0-.28Z"/>
          <path class="cls-1" d="M53.61,25.86s.01-.04.04-.04h.15s.05.01.07.04l1.33,2.2h.01v-2.2s.01-.04.04-.04h.15s.04.01.04.04v2.6s-.01.04-.04.04h-.15s-.05-.01-.07-.04l-1.32-2.21h-.02v2.21s-.01.04-.04.04h-.15s-.04-.01-.04-.04v-2.6h0Z"/>
          <path class="cls-1" d="M57.28,25.86s.01-.04.04-.04h1.54s.04.01.04.04v.13s-.01.04-.04.04h-1.32s-.02,0-.02.02v.98s0,.02.02.02h1.14s.04.01.04.04v.13s-.01.04-.04.04h-1.14s-.02,0-.02.02v1.16s-.01.04-.04.04h-.15s-.04-.01-.04-.04v-2.59h0Z"/>
          <path class="cls-1" d="M60.27,28.54c-.22,0-.4-.05-.55-.15-.15-.1-.25-.25-.32-.45-.01-.03-.03-.07-.03-.12s-.02-.1-.02-.15c0-.06-.01-.13-.02-.21,0-.08,0-.18,0-.3s0-.21,0-.3c0-.08,0-.15.02-.21,0-.06.02-.11.02-.15,0-.04.02-.08.03-.12.07-.2.17-.35.32-.45.15-.1.33-.15.55-.15s.4.05.55.15.25.25.32.45c0,.04.02.08.03.12,0,.04.02.09.03.15s.01.13.02.21c0,.08,0,.18,0,.3s0,.22,0,.3c0,.08,0,.15-.02.21,0,.06-.02.11-.03.15,0,.04-.02.08-.03.12-.07.2-.17.35-.32.45-.15.1-.33.15-.55.15ZM60.99,27.16c0-.11,0-.2,0-.28,0-.08,0-.15-.01-.2,0-.05-.01-.1-.02-.14,0-.04-.02-.07-.03-.1-.1-.3-.31-.45-.65-.45s-.55.15-.65.45c0,.03-.02.06-.03.1s-.02.08-.02.14c0,.05,0,.12-.01.2,0,.08,0,.17,0,.28s0,.2,0,.28c0,.08,0,.15.01.2,0,.05.01.1.02.14,0,.04.02.07.03.1.1.3.32.45.65.45s.55-.15.65-.45c0-.03.02-.06.03-.1s.02-.08.02-.14,0-.12.01-.2c0-.08,0-.17,0-.28Z"/>
          <path class="cls-1" d="M63.45,28.5s-.04-.01-.05-.03l-.56-1.16h-.73s-.02,0-.02.02v1.14s-.01.04-.04.04h-.15s-.04-.01-.04-.04v-2.6s.01-.04.04-.04h.9c.25,0,.46.07.6.2.15.13.22.31.22.54,0,.19-.05.34-.14.46s-.23.2-.4.25l.58,1.19s0,.02,0,.03c0,0-.01.01-.03.01h-.18ZM62.8,27.09c.19,0,.34-.04.44-.14.1-.09.15-.22.15-.39s-.05-.3-.15-.39-.25-.14-.44-.14h-.68s-.02,0-.02.02v1.01s0,.02.02.02h.68Z"/>
          <path class="cls-1" d="M10.52,30.26s.01-.04.04-.04h.15s.05.01.06.04l.87,1.92h.02l.85-1.92s.03-.04.06-.04h.16s.04.01.04.04v2.6s-.01.04-.04.04h-.15s-.04-.01-.04-.04v-2.1h-.01l-.77,1.7s-.02.03-.03.03c0,0-.03,0-.04,0h-.08s-.05-.02-.07-.04l-.77-1.7h-.01v2.1s-.01.04-.04.04h-.15s-.04-.01-.04-.04v-2.6h0Z"/>
          <path class="cls-1" d="M14.24,30.26s.02-.04.05-.04h.14s.04.01.05.04l.93,2.6s0,.04-.03.04h-.15s-.05-.01-.05-.04l-.24-.66h-1.17l-.24.66s-.03.04-.05.04h-.15s-.03-.01-.03-.04l.94-2.6ZM14.87,31.99l-.5-1.4h-.01l-.5,1.4h1.02Z"/>
          <path class="cls-1" d="M15.95,30.26s.01-.04.04-.04h.15s.04.01.04.04v1.55l1.28-1.55s.04-.03.07-.03h.18s.02,0,.03.01,0,.02,0,.03l-.85,1.01.91,1.58s0,.02,0,.03c0,0-.01.01-.03.01h-.18s-.04-.01-.06-.03l-.81-1.41-.55.65v.75s-.01.04-.04.04h-.15s-.04-.01-.04-.04v-2.6h0Z"/>
          <path class="cls-1" d="M18.36,30.26s.01-.04.04-.04h.15s.04.01.04.04v1.55l1.28-1.55s.04-.03.07-.03h.18s.02,0,.03.01,0,.02,0,.03l-.85,1.01.91,1.58s0,.02,0,.03c0,0-.01.01-.03.01h-.18s-.04-.01-.06-.03l-.81-1.41-.55.65v.75s-.01.04-.04.04h-.15s-.04-.01-.04-.04v-2.6h0Z"/>
          <path class="cls-1" d="M21.58,30.26s.02-.04.05-.04h.14s.04.01.05.04l.93,2.6s0,.04-.03.04h-.15s-.05-.01-.05-.04l-.24-.66h-1.17l-.24.66s-.03.04-.05.04h-.15s-.03-.01-.03-.04l.94-2.6ZM22.2,31.99l-.5-1.4h-.01l-.5,1.4h1.02Z"/>
          <path class="cls-1" d="M23.29,30.26s.01-.04.04-.04h.15s.04.01.04.04v1.15s0,.02.02.02h1.32s.02,0,.02-.02v-1.15s.01-.04.04-.04h.15s.04.01.04.04v2.6s-.01.04-.04.04h-.15s-.04-.01-.04-.04v-1.19s0-.02-.02-.02h-1.32s-.02,0-.02.02v1.19s-.01.04-.04.04h-.15s-.04-.01-.04-.04v-2.6h0Z"/>
          <path class="cls-1" d="M26.92,32.34s-.02-.07-.03-.11c0-.04-.02-.09-.02-.15s0-.13-.01-.22,0-.18,0-.3,0-.22,0-.3c0-.08,0-.16.01-.22,0-.06.01-.11.02-.15,0-.04.02-.08.03-.11.07-.2.17-.35.31-.45.14-.1.32-.15.53-.15.18,0,.35.04.49.12s.25.21.32.37c0,.02,0,.04-.01.05l-.13.06s-.04,0-.05-.02c-.06-.11-.14-.21-.24-.28-.1-.07-.23-.1-.38-.1-.17,0-.3.04-.4.11-.1.08-.18.19-.23.33,0,.03-.02.06-.02.1s-.02.08-.02.14c0,.05,0,.12-.01.2s0,.17,0,.29,0,.21,0,.29,0,.15.01.2c0,.05.01.1.02.14,0,.04.02.07.02.1.05.15.13.26.23.33.1.08.23.11.4.11.15,0,.28-.03.38-.1.1-.07.18-.16.24-.28.01-.02.03-.03.05-.02l.13.06s.02.03.01.05c-.08.17-.18.29-.32.37-.14.08-.3.12-.49.12-.21,0-.39-.05-.53-.15-.14-.09-.24-.23-.31-.44Z"/>
          <path class="cls-1" d="M29.16,30.26s.01-.04.04-.04h.15s.04.01.04.04v2.6s-.01.04-.04.04h-.15s-.04-.01-.04-.04v-2.6Z"/>
          <path class="cls-1" d="M30.8,32.9s-.04-.01-.04-.04v-2.41s0-.02-.02-.02h-.77s-.04-.01-.04-.04v-.13s.01-.04.04-.04h1.82s.04.01.04.04v.13s-.01.04-.04.04h-.77s-.02,0-.02.02v2.41s-.01.04-.04.04h-.15Z"/>
          <path class="cls-1" d="M33.06,32.9s-.04-.01-.04-.04v-1.06l-.8-1.54s0-.02,0-.03c0,0,.02-.01.03-.01h.15s.04.01.06.04l.68,1.28h.01l.66-1.28s.03-.04.06-.04h.15s.03,0,.03.01,0,.02,0,.03l-.8,1.54v1.06s-.01.04-.04.04h-.15Z"/>
          <path class="cls-1" d="M36.31,30.26s.02-.04.05-.04h.14s.04.01.05.04l.93,2.6s0,.04-.03.04h-.15s-.05-.01-.05-.04l-.24-.66h-1.17l-.24.66s-.03.04-.05.04h-.15s-.03-.01-.03-.04l.94-2.6ZM36.94,31.99l-.5-1.4h-.01l-.5,1.4h1.02Z"/>
          <path class="cls-1" d="M38.03,30.26s.01-.04.04-.04h.15s.05.01.07.04l1.33,2.2h.01v-2.2s.01-.04.04-.04h.15s.04.01.04.04v2.6s-.01.04-.04.04h-.15s-.05-.01-.07-.04l-1.32-2.21h-.02v2.21s-.01.04-.04.04h-.15s-.04-.01-.04-.04v-2.6h0Z"/>
          <path class="cls-1" d="M40.59,30.26s.01-.04.04-.04h.84c.45,0,.74.18.86.54.01.04.03.08.03.12s.02.09.02.15.01.13.01.22c0,.09,0,.19,0,.31s0,.23,0,.31c0,.08,0,.15-.01.21,0,.06-.02.11-.02.15,0,.04-.02.08-.03.12-.12.36-.4.54-.86.54h-.84s-.04-.01-.04-.04v-2.61ZM40.82,32.67s0,.02.02.02h.6c.17,0,.31-.03.43-.1.11-.06.19-.17.24-.31,0-.03.02-.07.03-.1,0-.04.02-.08.02-.14,0-.05,0-.12.01-.2s0-.17,0-.29,0-.21,0-.29,0-.14-.01-.2c0-.05-.01-.1-.02-.14s-.02-.07-.03-.1c-.05-.14-.13-.24-.24-.31-.11-.06-.25-.1-.43-.1h-.6s-.02,0-.02.02v2.21Z"/>
          <path class="cls-1" d="M44.14,30.26s.01-.04.04-.04h.15s.04.01.04.04v1.15s0,.02.02.02h1.32s.02,0,.02-.02v-1.15s.01-.04.04-.04h.15s.04.01.04.04v2.6s-.01.04-.04.04h-.15s-.04-.01-.04-.04v-1.19s0-.02-.02-.02h-1.32s-.02,0-.02.02v1.19s-.01.04-.04.04h-.15s-.04-.01-.04-.04v-2.6Z"/>
          <path class="cls-1" d="M47.55,32.94c-.22,0-.4-.05-.55-.15-.15-.1-.25-.25-.32-.45-.01-.03-.03-.07-.03-.12s-.02-.1-.02-.15c0-.06-.01-.13-.02-.21,0-.08,0-.18,0-.3s0-.21,0-.3c0-.08,0-.15.02-.21,0-.06.02-.11.02-.15,0-.04.02-.08.03-.12.07-.2.17-.35.32-.45s.33-.15.55-.15.4.05.55.15.25.25.32.45c0,.04.02.08.03.12,0,.04.02.09.03.15s.01.13.02.21c0,.08,0,.18,0,.3s0,.22,0,.3c0,.08,0,.15-.02.21,0,.06-.02.11-.03.15,0,.04-.02.08-.03.12-.07.2-.17.35-.32.45-.15.1-.33.15-.55.15ZM48.27,31.56c0-.11,0-.2,0-.28,0-.08,0-.15-.01-.2,0-.05-.01-.1-.02-.14,0-.04-.02-.07-.03-.1-.1-.3-.31-.45-.65-.45s-.55.15-.65.45c0,.03-.02.06-.03.1s-.02.08-.02.14,0,.12-.01.2,0,.17,0,.28,0,.2,0,.28,0,.15.01.2c0,.05.01.1.02.14,0,.04.02.07.03.1.1.3.32.45.65.45s.55-.15.65-.45c0-.03.02-.06.03-.1s.02-.08.02-.14,0-.12.01-.2c0-.08,0-.17,0-.28Z"/>
          <path class="cls-1" d="M49.14,30.26s.01-.04.04-.04h.15s.04.01.04.04v2.41s0,.02.02.02h1.32s.04.01.04.04v.13s-.01.04-.04.04h-1.54s-.04-.01-.04-.04v-2.6h0Z"/>
          <path class="cls-1" d="M51.6,32.9s-.04-.01-.04-.04v-1.06l-.8-1.54s0-.02,0-.03c0,0,.02-.01.03-.01h.15s.04.01.06.04l.68,1.28h.01l.66-1.28s.03-.04.06-.04h.15s.03,0,.03.01,0,.02,0,.03l-.8,1.54v1.06s-.01.04-.04.04h-.15Z"/>
          <path class="cls-1" d="M54.93,32.94c-.09,0-.17,0-.26-.03s-.17-.04-.25-.07c-.08-.03-.15-.06-.21-.1s-.12-.08-.17-.12c-.02-.02-.02-.04,0-.05l.1-.12s.04-.02.05,0c.09.07.2.13.33.19.13.06.28.09.43.09.22,0,.38-.05.51-.15s.18-.23.18-.4c0-.07,0-.13-.03-.18s-.06-.11-.1-.15c-.05-.04-.11-.08-.2-.11s-.19-.05-.31-.07l-.12-.02c-.26-.03-.46-.11-.58-.23-.13-.12-.19-.28-.19-.48,0-.23.08-.42.23-.55s.36-.2.62-.2c.15,0,.29.02.43.06.13.04.25.1.34.17.02.01.03.03,0,.05l-.08.12s-.03.02-.05,0c-.11-.07-.21-.11-.32-.15-.1-.03-.22-.05-.33-.05-.19,0-.34.05-.45.14-.1.1-.16.22-.16.38,0,.14.05.25.14.34.1.09.26.15.49.17l.12.02c.27.04.47.12.6.24.12.12.19.28.19.48,0,.11-.02.22-.06.31s-.1.18-.18.25-.18.12-.3.16-.25.06-.41.06Z"/>
          <path class="cls-1" d="M56.49,30.26s.01-.04.04-.04h.15s.04.01.04.04v2.6s-.01.04-.04.04h-.15s-.04-.01-.04-.04v-2.6Z"/>
          <path class="cls-1" d="M58.12,32.9s-.04-.01-.04-.04v-2.41s0-.02-.02-.02h-.77s-.04-.01-.04-.04v-.13s.01-.04.04-.04h1.82s.04.01.04.04v.13s-.01.04-.04.04h-.77s-.02,0-.02.02v2.41s-.01.04-.04.04h-.15Z"/>
          <path class="cls-1" d="M59.67,30.26s.01-.04.04-.04h1.54s.04.01.04.04v.13s-.01.04-.04.04h-1.32s-.02,0-.02.02v.96s0,.02.02.02h1.14s.04.01.04.04v.13s-.01.04-.04.04h-1.14s-.02,0-.02.02v.99s0,.02.02.02h1.32s.04.01.04.04v.13s-.01.04-.04.04h-1.54s-.04-.01-.04-.04v-2.59Z"/>
          <path class="cls-1" d="M62.71,32.94c-.09,0-.17,0-.26-.03s-.17-.04-.25-.07c-.08-.03-.15-.06-.21-.1s-.12-.08-.17-.12c-.02-.02-.02-.04,0-.05l.1-.12s.04-.02.05,0c.09.07.2.13.33.19.13.06.28.09.43.09.22,0,.38-.05.51-.15s.18-.23.18-.4c0-.07,0-.13-.03-.18s-.06-.11-.1-.15c-.05-.04-.11-.08-.2-.11s-.19-.05-.31-.07l-.12-.02c-.26-.03-.46-.11-.58-.23-.13-.12-.19-.28-.19-.48,0-.23.08-.42.23-.55s.36-.2.62-.2c.15,0,.29.02.43.06.13.04.25.1.34.17.02.01.03.03,0,.05l-.08.12s-.03.02-.05,0c-.11-.07-.21-.11-.32-.15-.1-.03-.22-.05-.33-.05-.19,0-.34.05-.45.14-.1.1-.16.22-.16.38,0,.14.05.25.14.34.1.09.26.15.49.17l.12.02c.27.04.47.12.6.24.12.12.19.28.19.48,0,.11-.02.22-.06.31s-.1.18-.18.25-.18.12-.3.16c-.11.04-.25.06-.41.06Z"/>
        </g>
        <g>
          <path class="cls-1" d="M1.84,12.41c-.2,0-.36.17-.36.36s.16.36.36.36.36-.17.36-.36c0-.2-.17-.36-.36-.36ZM.95,12.41c-.2,0-.36.17-.36.36s.15.36.36.36.36-.16.36-.36-.16-.36-.36-.36Z"/>
          <path class="cls-1" d="M8.63,13.42c-.96,0-1.43.64-1.43,1.34,0,.39.1.63.3.79-.03,0-.14-.04-.3-.04h-.67c-.05-1.06-.52-1.61-1.22-1.92l1.34-.81v-.72l-2.18,1.37v.53c.88.2,1.32.7,1.35,1.55h-3.2v-1.9s-.5-.19-1.16-.19C.45,13.42,0,14.08,0,14.81c0,.78.4,1.28,1.47,1.28h8.4v-1.39c0-.77-.38-1.27-1.24-1.27ZM1.91,15.51h-.35c-.58,0-.83-.27-.83-.77,0-.43.24-.74.65-.74.31,0,.52.1.52.1v1.42ZM9.17,15.51h-.42c-.57,0-.83-.25-.83-.77,0-.43.24-.74.65-.74.37,0,.59.23.59.78v.73Z"/>
          <path class="cls-1" d="M13.54,12.41c-.2,0-.36.17-.36.36s.15.36.36.36.36-.17.36-.36c0-.2-.17-.36-.36-.36ZM12.66,12.41c-.2,0-.36.17-.36.36s.15.36.36.36.36-.16.36-.36c0-.2-.16-.36-.36-.36Z"/>
          <path class="cls-1" d="M17.12,12.4c-.2,0-.38.17-.38.38s.17.38.38.38.38-.17.38-.38c0-.21-.18-.38-.38-.38Z"/>
          <path class="cls-1" d="M19.41,16.49c-.2,0-.36.16-.36.36s.15.36.36.36.36-.17.36-.36-.17-.36-.36-.36ZM18.52,16.49c-.2,0-.36.16-.36.36s.16.36.36.36.36-.17.36-.36-.17-.36-.36-.36Z"/>
          <path class="cls-1" d="M18.62,13.5v2.02h-1.13v-2.02h-.73v2.02h-2.44v-1.9s-.5-.19-1.16-.19c-1.01,0-1.45.66-1.45,1.38,0,.78.4,1.28,1.47,1.28h6.17v-2.59h-.73ZM13.62,15.51h-.35c-.58,0-.83-.27-.83-.77,0-.43.24-.74.65-.74.31,0,.52.1.52.1v1.42Z"/>
          <path class="cls-1" d="M26.87,12.2v3.31h-1.01v-.82c0-.77-.38-1.27-1.24-1.27-.96,0-1.43.64-1.43,1.34,0,.57-.21.75-.55.75h-.26c-.07-1.23-.7-1.85-1.84-2.15l-.17.61c.87.22,1.27.73,1.3,1.54h-1.63v.57h2.68c.46,0,.68-.17.78-.43.19.25.44.43,1.23.43h2.86v-3.88h-.73ZM25.16,15.51h-.42c-.57,0-.83-.25-.83-.77,0-.43.24-.74.65-.74.37,0,.59.23.59.78v.73Z"/>
          <path class="cls-1" d="M31.35,12.41c-.2,0-.36.17-.36.36s.15.36.36.36.36-.17.36-.36c0-.2-.17-.36-.36-.36ZM30.47,12.41c-.2,0-.36.17-.36.36s.15.36.36.36.36-.16.36-.36-.16-.36-.36-.36Z"/>
          <path class="cls-1" d="M34.36,16.49c-.2,0-.36.16-.36.36s.15.36.36.36.36-.17.36-.36-.17-.36-.36-.36ZM35.24,16.49c-.2,0-.36.16-.36.36s.15.36.36.36.36-.17.36-.36-.17-.36-.36-.36Z"/>
          <path class="cls-1" d="M44.29,12.2v3.31h-1.01v-.82c0-.77-.38-1.27-1.24-1.27-.95,0-1.43.64-1.43,1.34,0,.57-.22.75-.55.75h-.52v-3.31h-.73v3.31h-.9c-.05-1.06-.52-1.61-1.22-1.92l1.34-.81v-.72l-2.18,1.37v.53c.88.2,1.32.7,1.35,1.55h-2.04v-2.02h-.73v2.02h-2.3v-1.9s-.5-.19-1.16-.19c-1.01,0-1.45.66-1.45,1.38,0,.78.4,1.28,1.47,1.28h9.14c.46,0,.68-.17.78-.43.19.25.44.43,1.23.43h2.86v-3.89h-.72ZM31.43,15.51h-.35c-.58,0-.83-.27-.83-.77,0-.43.24-.74.65-.74.31,0,.52.1.52.1v1.42ZM42.57,15.51h-.42c-.57,0-.83-.25-.83-.77,0-.43.24-.74.65-.74.37,0,.59.23.59.78v.73h0Z"/>
          <path class="cls-1" d="M45.89,12.2h.73v3.88h-.73v-3.88Z"/>
          <path class="cls-1" d="M50.38,12.41c-.2,0-.36.17-.36.36s.15.36.36.36.36-.17.36-.36c0-.2-.17-.36-.36-.36ZM49.5,12.41c-.2,0-.36.17-.36.36s.15.36.36.36.36-.16.36-.36-.16-.36-.36-.36Z"/>
          <path class="cls-1" d="M54.12,12.84c-.31,0-.4-.08-.4-.2,0-.1.08-.19.27-.19.14,0,.27.03.3.03l.07-.38s-.17-.03-.32-.03c-.58,0-.81.3-.81.57,0,.1.05.2.14.24-.08-.02-.21-.03-.33-.03v.4h1.42v-.4h-.34Z"/>
          <path class="cls-1" d="M56.12,16.49c-.2,0-.36.16-.36.36s.15.36.36.36.36-.17.36-.36c0-.2-.17-.36-.36-.36ZM55.24,16.49c-.2,0-.36.16-.36.36s.15.36.36.36.36-.17.36-.36c0-.2-.17-.36-.36-.36Z"/>
          <path class="cls-1" d="M61.33,12.2v3.31h-.88v-.02c0-1.61-.78-2.26-2.16-2.26-.44,0-.94.09-1.34.22l.07.57c.35-.12.8-.22,1.18-.22,1.09,0,1.56.5,1.56,1.65v.07h-.55v-.13c0-.62-.28-1.16-1.01-1.16-.67,0-1.06.39-1.06.93,0,.23.11.36.13.39-.02,0-.12-.03-.25-.03h-.97v-2.02h-.73v2.02h-1.14v-2.02h-.73v2.02h-2.3v-1.9s-.5-.19-1.16-.19c-1.01,0-1.45.66-1.45,1.38,0,.78.4,1.28,1.47,1.28h12.04v-3.89h-.72ZM50.46,15.51h-.35c-.58,0-.83-.27-.83-.77,0-.43.24-.74.65-.74.31,0,.52.1.52.1v1.42h0ZM58.61,15.54h-.36c-.28,0-.52-.12-.52-.43,0-.23.16-.37.41-.37.32,0,.48.23.48.65v.16h0Z"/>
          <path class="cls-1" d="M62.94,12.2h.73v3.88h-.73v-3.88Z"/>
          <path class="cls-1" d="M1.83,18.45c-.2,0-.36.17-.36.36s.16.36.36.36.36-.17.36-.36-.17-.36-.36-.36ZM.95,18.45c-.2,0-.36.17-.36.36s.15.36.36.36.36-.16.36-.36-.16-.36-.36-.36Z"/>
          <path class="cls-1" d="M7.43,19.32l-.71.1c.1.42.16.93.16,1.48,0,.17,0,.44-.03.66h-.15c-.51,0-.65-.09-.65-.52v-1.38h-.7v1.24c0,.53-.16.7-.45.7-.32,0-.38-.22-.38-.71v-1.02h-.73v1c0,.54-.14.68-.5.68h-.69v-1.9s-.5-.19-1.16-.19c-1.01,0-1.45.66-1.45,1.38,0,.78.4,1.28,1.47,1.28h1.82c.4,0,.62-.13.73-.38.09.26.38.43.74.43.43,0,.72-.19.83-.43.16.3.45.38,1.03.38h.91c.05-.39.08-.88.08-1.28,0-.55-.08-1.08-.18-1.52ZM1.9,21.56h-.35c-.58,0-.83-.27-.83-.77,0-.43.24-.74.65-.74.31,0,.52.1.52.1v1.42Z"/>
          <path class="cls-1" d="M12.15,18.45c-.2,0-.36.17-.36.36s.15.36.36.36.36-.16.36-.36c0-.2-.16-.36-.36-.36ZM13.03,18.45c-.2,0-.36.17-.36.36s.15.36.36.36.36-.17.36-.36c0-.2-.17-.36-.36-.36Z"/>
          <path class="cls-1" d="M18.44,18.25v3.31h-1.01v-.82c0-.77-.38-1.27-1.24-1.27-.96,0-1.43.64-1.43,1.34,0,.57-.21.75-.55.75h-.19c-.19,0-.43.03-.43.03.21-.17.32-.51.32-.83,0-.88-.5-1.28-1.28-1.28-.84,0-1.4.58-1.4,1.37,0,.31.09.57.26.74,0,0-.17-.03-.34-.03h-.56c-.07-1.23-.7-1.85-1.84-2.15l-.17.61c.87.22,1.27.73,1.3,1.54h-1.63v.57h6.04c.46,0,.68-.17.78-.43.19.25.44.43,1.23.43h2.86v-3.88h-.73ZM12.57,21.56c-.4,0-.61-.26-.61-.78s.3-.74.62-.74c.41,0,.6.26.6.75,0,.51-.27.77-.62.77ZM16.72,21.56h-.42c-.57,0-.83-.25-.83-.77,0-.43.24-.74.65-.74.37,0,.59.23.59.78v.73Z"/>
          <path class="cls-1" d="M20.05,18.25h.73v3.88h-.73v-3.88Z"/>
          <path class="cls-1" d="M27.54,21.56v.57h-3.33v.02c0,.7-.24,1.38-1.36,1.38-.17,0-.33-.02-.46-.05l.05-.58c.13.04.27.07.45.07.37,0,.59-.18.59-.77v-2.65h.73v2.02h1.34c-.24-.15-.43-.45-.43-.82,0-.68.47-1.27,1.44-1.27.37,0,.68.1.68.1l-.13.58s-.25-.12-.57-.12c-.41,0-.7.28-.7.7,0,.47.38.82,1.25.82h.43Z"/>
          <path class="cls-1" d="M31.47,18.48c-.2,0-.36.17-.36.36s.16.36.36.36.36-.17.36-.36-.17-.36-.36-.36ZM31.93,17.76c-.2,0-.36.17-.36.36s.16.36.36.36.36-.17.36-.36c0-.2-.16-.36-.36-.36ZM32.38,18.48c-.19,0-.36.17-.36.36s.17.36.36.36.36-.17.36-.36-.16-.36-.36-.36Z"/>
          <path class="cls-1" d="M38.59,18.25v3.31h-1.01v-.82c0-.77-.38-1.27-1.24-1.27-.96,0-1.43.64-1.43,1.34,0,.57-.21.75-.55.75h-.5c.02-.24.02-.49.02-.71,0-.55-.07-1.08-.18-1.53l-.71.1c.1.42.16.93.16,1.48,0,.17,0,.44-.03.66h-.15c-.5,0-.65-.09-.65-.52v-1.38h-.7v1.24c0,.53-.16.7-.45.7-.32,0-.38-.22-.38-.71v-1.02h-.73v1c0,.54-.14.68-.5.68h-.68v-3.31h-.73v3.88h1.4c.4,0,.62-.13.73-.38.09.26.38.43.74.43.43,0,.72-.19.83-.43.16.3.45.38,1.03.38h1.54c.46,0,.68-.17.78-.43.19.25.44.43,1.23.43h2.86v-3.88h-.73ZM36.87,21.56h-.42c-.57,0-.83-.25-.83-.77,0-.43.24-.74.65-.74.37,0,.59.23.59.78v.73h0Z"/>
          <path class="cls-1" d="M40.19,18.25h.73v3.88h-.73v-3.88Z"/>
          <path class="cls-1" d="M41.7,23.45l.04-.59s.43.09.86.09c.57,0,.95-.22.95-.73v-.08h-.43c-1.07,0-1.47-.5-1.47-1.28,0-.72.45-1.38,1.45-1.38.65,0,1.16.19,1.16.19v2.48c0,.76-.5,1.38-1.72,1.38-.41,0-.84-.08-.84-.08ZM43.55,20.14s-.21-.1-.52-.1c-.41,0-.65.31-.65.74,0,.5.25.77.83.77h.35v-1.42h0Z"/>
          <path class="cls-1" d="M48.01,18.45c-.2,0-.36.17-.36.36s.16.36.36.36.36-.17.36-.36c0-.2-.17-.36-.36-.36ZM47.13,18.45c-.2,0-.36.17-.36.36s.15.36.36.36.36-.16.36-.36c0-.2-.16-.36-.36-.36Z"/>
          <path class="cls-1" d="M51.13,19.47c-.96,0-1.43.64-1.43,1.34,0,.39.1.63.3.78-.03,0-.14-.03-.3-.03h-.91v-1.9s-.5-.19-1.16-.19c-1.01,0-1.45.66-1.45,1.38,0,.78.4,1.28,1.47,1.28h4.73v-1.39c0-.77-.39-1.27-1.25-1.27ZM48.08,21.56h-.35c-.58,0-.83-.27-.83-.77,0-.43.24-.74.65-.74.31,0,.52.1.52.1v1.42h0ZM51.67,21.56h-.42c-.57,0-.83-.25-.83-.77,0-.43.24-.74.65-.74.37,0,.59.23.59.78v.73h0Z"/>
          <path class="cls-1" d="M61.33,18.25v3.31h-1.01v-.82c0-.77-.38-1.27-1.24-1.27-.96,0-1.43.64-1.43,1.34,0,.57-.21.75-.55.75h-.29c-.05-1.06-.52-1.61-1.22-1.92l1.35-.81v-.72l-2.18,1.37v.53c.88.2,1.32.7,1.35,1.56h-1.9v-2.02h-.73v2.65c0,.59-.22.77-.6.77-.17,0-.31-.03-.45-.07l-.05.58c.13.03.29.05.46.05,1.12,0,1.36-.67,1.36-1.38v-.02h2.97c.46,0,.68-.17.78-.43.19.25.44.43,1.23.43h2.86v-3.88h-.72ZM59.61,21.56h-.42c-.57,0-.83-.25-.83-.77,0-.43.24-.74.66-.74.37,0,.59.23.59.78v.73h0Z"/>
          <path class="cls-1" d="M62.94,18.25h.73v3.88h-.73v-3.88Z"/>
        </g>
      </g>
      <g>
        <g>
          <rect class="cls-1" x="84.51" y="29.62" width="1.1" height="1.1"/>
          <rect class="cls-1" x="84.51" y="31.81" width="1.1" height="1.1"/>
          <path class="cls-1" d="M75.73,27.42v4.39h-1.1v-2.19h-5.49v3.29h14.27v-3.29h-5.49v2.19h-1.1v-3.29h8.78v-1.1h-9.87ZM73.54,31.81h-3.29v-1.1h3.29v1.1ZM79.02,30.71h3.29v1.1h-3.29v-1.1Z"/>
          <rect class="cls-1" x="86.7" y="16.45" width="1.1" height="1.1"/>
          <rect class="cls-1" x="88.9" y="16.45" width="1.1" height="1.1"/>
          <path class="cls-1" d="M86.71,18.64v5.49h2.19v1.1h-3.29v-8.78h-1.1v9.88h4.39v1.1h-2.19v5.49h3.29v-14.27h-3.29ZM88.9,31.81h-1.1v-3.29h1.1v3.29ZM88.9,23.03h-1.1v-3.29h1.1v3.29Z"/>
          <rect class="cls-1" x="73.54" y="14.25" width="1.1" height="1.1"/>
          <rect class="cls-1" x="73.54" y="12.06" width="1.1" height="1.1"/>
          <path class="cls-1" d="M75.73,12.06v3.29h5.49v-2.19h1.1v3.29h-8.78v1.1h9.87v-4.39h1.1v2.19h5.49v-3.29h-14.26ZM80.12,14.25h-3.29v-1.1h3.29v1.1ZM88.9,14.25h-3.29v-1.1h3.29v1.1Z"/>
          <rect class="cls-1" x="71.34" y="27.42" width="1.1" height="1.1"/>
          <rect class="cls-1" x="69.15" y="27.42" width="1.1" height="1.1"/>
          <path class="cls-1" d="M70.25,18.64v-1.1h2.19v-5.49h-3.29v14.27h3.29v-5.49h-2.19v-1.1h3.29v8.78h1.1v-9.88h-4.39ZM70.25,13.16h1.1v3.29h-1.1v-3.29ZM71.34,21.93v3.29h-1.1v-3.29h1.1Z"/>
        </g>
        <g>
          <path class="cls-1" d="M80.98,21.19c.11.23.17.48.2.72-.27-.34-.59-.64-.93-.87.03.04.06.08.08.12.28.46.23,1.07.07,1.56-.1-.46-.28-.91-.51-1.3-.05-.09-.11-.17-.17-.26l.08,2.07c0,.07-.09.21-.23.21s-.23-.13-.23-.21l.08-2.07c-.06.08-.12.17-.17.26-.23.39-.41.84-.51,1.3-.16-.49-.21-1.1.07-1.56.03-.04.05-.08.08-.12-.34.23-.67.53-.93.87.05-.48.25-1.02.67-1.29.14-.09.3-.15.45-.18v-.02c-.09,0-.18.01-.27.03-.4.06-.78.17-1.14.35.27-.41.69-.71,1.09-.77.06,0,.13-.01.2,0-.24-.12-.5-.22-.77-.29.36-.1.76-.08,1.1.07.1-.42.28-.67.28-.67,0,0,.18.25.28.67.34-.15.73-.17,1.1-.07-.27.07-.53.17-.77.29.07,0,.13,0,.2,0,.2.03.41.11.59.25.19.13.36.31.5.51-.37-.17-.75-.29-1.14-.35-.09-.01-.18-.02-.27-.03v.02c.16.03.31.09.45.18.22.14.37.34.48.57Z"/>
          <path class="cls-1" d="M83.41,22.62c-.42-.05-.87.04-1.26.28l-2.23,1.36.9.55.12-.2s0,0,0,0c-.1-.06-.13-.19-.07-.29.06-.1.19-.13.29-.07.1.06.13.19.07.29l-.23.38.12.07.27.16c.09.06.2.06.29.02,0,.05,0,.1-.02.14,0,.02-.01.03-.03.05-.09.15-.29.2-.43.1l-.38-.23-.12.2s0,0,0,0c.1.06.13.19.07.29-.06.1-.19.13-.29.07s-.13-.19-.07-.29l.23-.38-1.05-.64-1.05.64.23.38c.06.1.03.23-.07.29s-.23.03-.29-.07c-.06-.1-.03-.23.07-.29,0,0,0,0,0,0l-.12-.2-.38.23c-.15.09-.34.04-.43-.1,0-.02-.02-.03-.03-.05-.02-.04-.03-.1-.02-.14.09.04.2.03.29-.02l.27-.16.12-.07-.23-.38c-.06-.1-.03-.23.07-.29.1-.06.23-.03.29.07.06.1.03.23-.07.29,0,0,0,0,0,0l.12.2.9-.55-2.23-1.36c-.39-.24-.84-.33-1.26-.28.42-.29.99-.32,1.45-.03l2.39,1.46,2.39-1.46c.45-.28,1.02-.25,1.44.04Z"/>
        </g>
      </g>
    </g>
  </g>
</svg>