<?xml version="1.0" encoding="UTF-8"?>
<svg id="Layer_1" data-name="Layer 1" xmlns="http://www.w3.org/2000/svg" viewBox="0 0 90 45">
  <defs>
    <style>
      .cls-1 {
        fill: #fff;
      }
    </style>
  </defs>
  <polygon class="cls-1" points="6.94 28.4 6.4 27.84 5.85 28.4 6.4 28.95 6.94 28.4"/>
  <polygon class="cls-1" points="7.68 28.95 8.22 28.4 7.68 27.84 7.13 28.4 7.68 28.95"/>
  <path class="cls-1" d="M9.99,30.17c-.05-.18-.1-.37-.16-.54-.06-.18-.13-.34-.21-.48l-.63.35c.08.15.15.3.21.46.06.17.12.33.17.49.05.16.09.31.11.46.03.15.04.28.04.39,0,.08-.06.15-.19.22-.13.07-.3.13-.51.18-.21.05-.46.09-.75.12-.29.03-.6.04-.93.04-.42,0-.78-.02-1.07-.06-.3-.04-.54-.1-.72-.19-.19-.08-.32-.2-.41-.33-.08-.14-.13-.3-.13-.5,0-.15.02-.32.07-.51.05-.19.12-.38.22-.59l-.47-.23c-.15.26-.27.54-.36.82-.09.28-.13.54-.13.78,0,.28.06.52.18.72.12.2.3.37.54.5.25.13.56.23.93.29.38.06.83.09,1.35.09,1.02,0,1.78-.12,2.26-.35.49-.23.73-.59.73-1.07,0-.16-.01-.33-.04-.52-.03-.19-.06-.37-.11-.56"/>
  <polygon class="cls-1" points="7.58 27.26 7.04 26.71 6.49 27.26 7.04 27.82 7.58 27.26"/>
  <polygon class="cls-1" points="11.79 32.61 11.84 26.95 11.14 27.07 11.19 32.61 11.79 32.61"/>
  <polygon class="cls-1" points="38.52 28.89 37.98 28.34 37.43 28.89 37.98 29.44 38.52 28.89"/>
  <polygon class="cls-1" points="37.24 28.89 36.7 28.34 36.15 28.89 36.7 29.44 37.24 28.89"/>
  <path class="cls-1" d="M38.51,32.61c.21,0,.41-.02.61-.07.2-.04.37-.12.53-.22.15-.1.28-.24.38-.4.1-.17.14-.37.14-.62l.04-4.35-.69.12.03,4.3c0,.08-.03.15-.09.21-.06.06-.14.1-.24.14-.1.03-.21.06-.33.07-.12.01-.25.02-.37.02-.7,0-1.05-.18-1.05-.54,0-.05.01-.17.04-.38.02-.21.05-.43.08-.68l-.6-.07c-.01.08-.02.16-.04.26-.01.1-.03.2-.04.3-.02.1-.03.2-.05.29-.02.1-.03.18-.04.24-.05.2-.16.35-.35.44-.18.09-.47.13-.85.13H15.96c-.14,0-.26,0-.36-.03-.1-.02-.18-.05-.25-.1-.07-.05-.13-.11-.18-.18-.05-.08-.1-.17-.15-.29-.04-.09-.1-.25-.17-.46-.07-.22-.15-.43-.22-.65l-.66.31c.11.33.21.61.29.83.08.22.17.41.25.56-.06.35-.29.69-.68,1.01-.39.32-.91.6-1.55.85l.4.69c.62-.22,1.12-.51,1.52-.86.4-.35.66-.73.79-1.15.25.17.58.25.97.25h19.65c.37,0,.69-.05.95-.15.27-.1.46-.25.58-.43.23.39.68.59,1.37.59"/>
  <polygon class="cls-1" points="41.96 32.61 42 26.95 41.31 27.07 41.35 32.61 41.96 32.61"/>
  <polygon class="cls-1" points="46.01 27.01 45.47 26.46 44.93 27.01 45.47 27.56 46.01 27.01"/>
  <polygon class="cls-1" points="47.3 27.01 46.75 26.46 46.21 27.01 46.75 27.56 47.3 27.01"/>
  <path class="cls-1" d="M76.52,29.21l.12.32c.44-.14.89-.23,1.35-.26l.06-.42c-.08,0-.17.01-.25.03-.09.01-.18.03-.28.04-.15-.02-.27-.06-.36-.11-.09-.06-.14-.13-.14-.22,0-.08.03-.15.1-.2.07-.05.15-.08.26-.08s.19.03.28.08l.18-.26c-.13-.15-.29-.22-.49-.22-.19,0-.35.07-.48.2-.13.13-.2.29-.2.48,0,.21.1.37.29.48-.06.02-.13.05-.2.07-.07.02-.15.05-.23.08"/>
  <polygon class="cls-1" points="79.89 33.86 79.35 33.31 78.8 33.86 79.35 34.42 79.89 33.86"/>
  <path class="cls-1" d="M81.35,32.61c.25,0,.51-.03.81-.08.29-.06.57-.13.83-.22.21.09.42.17.65.22.23.05.44.08.64.08.5,0,.88-.12,1.16-.36.27-.24.41-.57.41-1,0-.34-.06-.67-.17-.99-.11-.32-.28-.61-.49-.89-.21-.27-.47-.52-.77-.73-.3-.22-.64-.39-1.01-.53l-.3.68c.32.11.62.26.88.43.27.18.49.38.68.61.19.23.33.47.43.73.1.26.15.53.15.81,0,.13-.09.24-.28.33s-.43.12-.72.12c-.07,0-.14,0-.2,0-.06,0-.13,0-.19-.01.29-.27.43-.61.43-1.02,0-.19-.03-.38-.1-.55-.06-.17-.15-.32-.27-.45-.11-.13-.25-.23-.4-.3-.15-.07-.32-.11-.49-.11s-.34.04-.49.11c-.15.07-.29.18-.4.3-.11.13-.2.28-.27.45-.06.17-.1.35-.1.55,0,.39.14.72.41.99-.13.01-.26.02-.4.03-.14,0-.29,0-.44,0-.7,0-1.05-.18-1.05-.54,0-.05.01-.17.04-.38.02-.21.05-.43.08-.68l-.6-.07c-.01.08-.02.16-.03.26-.01.1-.03.2-.04.3-.02.1-.04.2-.05.29s-.03.18-.04.24c-.05.2-.16.35-.35.44-.18.09-.47.13-.85.13-.7,0-1.04-.18-1.04-.54,0-.05.01-.17.03-.38.02-.21.05-.43.08-.68l-.6-.07c-.01.08-.02.16-.04.26-.01.1-.03.2-.04.3-.02.1-.03.2-.05.29-.02.1-.03.18-.04.24-.05.2-.16.35-.35.44-.18.09-.47.13-.85.13h-27.38c-.29,0-.49-.05-.62-.16-.13-.11-.19-.29-.18-.54l.04-2.97-.69.12v.54c-.71.15-1.26.38-1.65.69-.39.32-.59.7-.59,1.15,0,.19.04.36.11.51.08.15.18.27.31.37.13.1.28.18.45.23.17.05.36.08.56.08.33,0,.62-.07.87-.21.1.66.57.99,1.41.99h27.38c.37,0,.69-.05.95-.15.27-.1.46-.25.57-.44.23.39.68.59,1.37.59.37,0,.69-.05.95-.15.27-.1.46-.25.58-.44.23.39.68.59,1.37.59h0ZM82.53,30.28c.13-.13.3-.2.5-.2s.37.07.5.21c.13.14.2.31.2.51,0,.37-.24.64-.71.81-.22-.09-.39-.21-.51-.35-.12-.14-.18-.29-.18-.46,0-.21.07-.38.2-.51M46.01,31.06c-.12,0-.24-.01-.36-.03-.11-.02-.22-.05-.3-.1-.09-.04-.16-.1-.21-.17s-.08-.16-.08-.26c0-.13.05-.25.14-.36.09-.11.21-.21.37-.29.16-.08.33-.15.53-.21.2-.06.41-.1.62-.12l.02,1.41c-.21.08-.46.12-.74.12"/>
  <polygon class="cls-1" points="81.17 33.86 80.63 33.31 80.09 33.86 80.63 34.42 81.17 33.86"/>
  <polygon class="cls-1" points="8.48 39.73 5.27 39.73 5.27 37.29 4.43 37.29 4.43 43.14 5.27 43.14 5.27 40.49 8.48 40.49 8.48 43.14 9.32 43.14 9.32 37.29 8.48 37.29 8.48 39.73"/>
  <path class="cls-1" d="M14.24,40.44c-.08-.29-.19-.54-.36-.76-.16-.22-.37-.4-.62-.54-.25-.13-.55-.2-.9-.2-.3,0-.57.05-.82.17-.25.11-.46.26-.65.45-.18.19-.32.42-.42.68-.1.26-.15.54-.15.84,0,.33.05.62.15.9.1.27.25.5.43.69.19.19.41.34.68.45.26.1.55.16.87.16.26,0,.49-.03.69-.08.2-.05.38-.12.53-.2.15-.08.27-.15.36-.24.09-.08.16-.15.21-.2l-.45-.47c-.1.11-.26.23-.48.34-.22.12-.51.18-.85.18-.18,0-.34-.03-.5-.1-.16-.06-.3-.15-.42-.26-.12-.11-.22-.24-.29-.39-.07-.15-.11-.32-.12-.5h3.22c0-.31-.04-.61-.11-.89M11.13,40.74c0-.15.04-.29.1-.43.06-.14.14-.26.25-.36.11-.1.23-.19.38-.25.15-.06.32-.1.5-.1.36,0,.64.11.84.33.2.22.31.49.33.81h-2.4Z"/>
  <path class="cls-1" d="M17.34,39c-.19,0-.35.02-.5.07s-.27.11-.38.18c-.11.07-.2.15-.28.23-.08.09-.14.16-.18.23l-.03-.66h-.75c0,.12,0,.2,0,.25v3.83h.79v-2.15c0-.17.03-.33.09-.48.06-.15.14-.28.25-.4.11-.11.23-.2.37-.27.14-.06.3-.1.47-.1s.3.02.4.06l.18-.74c-.06-.02-.13-.04-.21-.05-.07-.01-.15-.02-.24-.02"/>
  <rect class="cls-1" x="18.41" y="37.44" width=".89" height=".89"/>
  <rect class="cls-1" x="18.46" y="39.06" width=".79" height="4.08"/>
  <path class="cls-1" d="M22.48,42.52c-.1.05-.23.07-.38.07-.19,0-.33-.06-.43-.18-.1-.12-.15-.35-.15-.67v-2.01h1.19v-.66h-1.19v-1.33h-.79v1.33h-.74v.66h.74v2.09c0,.5.1.86.3,1.1.2.23.52.35.95.35.25,0,.46-.04.64-.11.18-.07.35-.19.52-.36l-.36-.48c-.1.09-.2.16-.3.21"/>
  <path class="cls-1" d="M27.04,42.78v-2.38c0-.47-.15-.83-.45-1.08-.3-.26-.71-.38-1.24-.38-.22,0-.42.02-.59.05-.17.03-.32.07-.46.12-.14.05-.25.1-.35.16-.1.06-.18.12-.25.18l.37.54c.12-.09.27-.17.46-.26.18-.08.43-.13.74-.13s.57.07.75.2c.18.13.28.35.28.65v.15s-.08-.01-.15-.02c-.07,0-.15-.01-.25-.02-.09,0-.19-.01-.3-.02-.1,0-.2,0-.3,0-.58,0-1.02.13-1.33.4-.31.26-.46.61-.46,1.05,0,.23.04.43.13.59.09.16.2.29.33.4.14.1.29.18.46.22.17.04.33.07.5.07.26,0,.52-.05.77-.15.25-.1.45-.25.6-.46l.02.49h.74c0-.08,0-.15,0-.21v-.15ZM26.29,41.67c0,.12-.03.24-.1.36-.06.12-.15.22-.25.31-.1.09-.23.16-.36.21-.14.05-.28.08-.43.08-.27,0-.48-.06-.63-.17-.15-.11-.23-.28-.23-.5,0-.09.01-.18.04-.28.03-.1.08-.18.16-.26.08-.08.19-.14.33-.2.14-.05.32-.08.54-.08.09,0,.19,0,.29,0,.1,0,.19.01.28.02.09,0,.16.01.23.02.07,0,.11.02.14.02v.46Z"/>
  <path class="cls-1" d="M30.22,38.96c-.35,0-.66.05-.94.16-.28.11-.52.26-.72.46-.2.2-.36.43-.47.69-.11.27-.17.56-.17.87,0,.29.04.56.12.81.08.25.2.46.36.64.16.18.35.32.58.42s.5.15.8.15c.18,0,.34-.02.48-.07.14-.04.26-.09.36-.15.1-.05.19-.11.25-.18.07-.06.12-.11.16-.14v.5c0,.35-.1.63-.29.85-.19.22-.49.32-.88.32-.28,0-.52-.03-.72-.1-.2-.07-.36-.15-.5-.24l-.37.58c.15.12.35.22.6.31.25.09.58.14.99.14.62,0,1.1-.16,1.44-.49.34-.32.51-.78.51-1.37v-3.9c-.18-.07-.41-.13-.69-.19-.29-.06-.6-.09-.93-.09M31.06,41.47c0,.13-.02.25-.07.37-.05.12-.12.23-.21.33-.09.1-.21.17-.36.23-.15.06-.32.09-.51.09-.21,0-.39-.03-.53-.1-.15-.07-.27-.17-.36-.29-.1-.12-.17-.27-.21-.43-.04-.16-.07-.34-.07-.53,0-.22.04-.41.11-.6.07-.18.18-.34.31-.47.13-.13.29-.23.47-.31.18-.07.38-.11.61-.11.25,0,.44.02.57.05.13.03.21.06.27.08v1.69Z"/>
  <path class="cls-1" d="M36.64,40.44c-.08-.29-.19-.54-.36-.76-.16-.22-.37-.4-.62-.54-.25-.13-.55-.2-.9-.2-.3,0-.57.05-.82.17-.25.11-.46.26-.65.45-.18.19-.32.42-.42.68-.1.26-.15.54-.15.84,0,.33.05.62.15.9.1.27.25.5.43.69.19.19.41.34.68.45.26.1.55.16.87.16.26,0,.49-.03.69-.08.2-.05.38-.12.53-.2.15-.08.27-.15.36-.24.09-.08.16-.15.21-.2l-.45-.47c-.1.11-.26.23-.48.34-.22.12-.51.18-.85.18-.18,0-.34-.03-.5-.1-.16-.06-.3-.15-.42-.26-.12-.11-.22-.24-.29-.39-.07-.15-.11-.32-.12-.5h3.22c0-.31-.04-.61-.11-.89M33.53,40.74c0-.15.04-.29.1-.43.06-.14.14-.26.25-.36.1-.1.23-.19.38-.25.15-.06.32-.1.5-.1.36,0,.64.11.84.33.2.22.31.49.33.81h-2.4Z"/>
  <path class="cls-1" d="M40.54,38.58c.18-.21.39-.38.65-.5.25-.12.54-.18.86-.18.23,0,.43.03.61.09.18.06.33.13.46.22.13.09.25.18.35.29.1.11.18.21.25.31l.6-.51c-.08-.12-.19-.25-.32-.39-.13-.13-.29-.26-.47-.37-.18-.11-.4-.21-.65-.28-.25-.08-.52-.11-.83-.11-.44,0-.84.08-1.2.24s-.67.38-.93.66c-.26.28-.46.61-.6.98-.14.38-.21.78-.21,1.2s.07.84.21,1.21c.14.37.34.69.6.97.26.27.57.49.92.64.36.15.75.23,1.19.23.3,0,.58-.04.83-.12.25-.08.47-.18.67-.3.19-.12.36-.25.49-.38.13-.13.23-.25.3-.36l-.59-.49c-.06.07-.13.15-.22.24-.08.1-.19.19-.32.29-.13.09-.29.17-.48.24-.19.07-.42.1-.68.1-.31,0-.59-.06-.84-.18-.25-.12-.46-.28-.64-.48-.18-.21-.31-.45-.41-.72-.1-.28-.15-.57-.15-.89s.05-.61.14-.9c.09-.28.23-.53.41-.74"/>
  <path class="cls-1" d="M48.5,39.57c-.19-.2-.42-.36-.69-.47-.26-.11-.55-.17-.86-.17s-.61.06-.87.17c-.26.11-.49.27-.68.47-.19.2-.34.43-.45.69-.11.26-.16.54-.16.84s.05.58.16.84c.11.26.26.49.45.69.19.2.42.36.68.47.26.11.55.17.87.17s.6-.06.86-.17c.26-.11.49-.27.69-.47.19-.2.34-.43.45-.69.11-.26.16-.54.16-.84s-.05-.58-.16-.84c-.11-.26-.26-.49-.45-.69M48.22,41.64c-.06.18-.15.34-.27.47-.12.14-.26.25-.43.33-.17.08-.36.13-.57.13s-.4-.04-.57-.13c-.17-.09-.31-.2-.43-.34s-.21-.3-.27-.47c-.06-.18-.09-.36-.09-.54s.03-.37.09-.55c.06-.18.15-.34.27-.47.12-.14.26-.25.43-.33.17-.08.36-.13.57-.13s.4.04.57.13c.17.08.31.2.43.34.12.14.21.3.27.48.06.18.09.36.09.54s-.03.37-.09.55"/>
  <path class="cls-1" d="M54.86,38.96c-.35,0-.64.07-.88.22-.24.15-.44.32-.6.51-.12-.24-.28-.42-.49-.55-.21-.13-.47-.19-.79-.19-.19,0-.35.02-.49.07-.14.05-.27.1-.37.18-.1.07-.2.15-.27.23-.08.08-.14.16-.18.23l-.03-.61h-.75c0,.12,0,.2,0,.26v3.82h.79v-1.9c0-.19.02-.39.06-.58.04-.19.1-.36.19-.51.09-.15.21-.27.36-.36.15-.09.33-.14.54-.14.28,0,.5.09.65.27.15.18.22.46.22.84v2.39h.79v-2.27c0-.16.03-.32.08-.47.05-.15.13-.28.24-.39.1-.11.22-.2.36-.27.14-.07.29-.1.45-.1.29,0,.51.09.65.27.15.18.22.46.22.84v2.39h.79v-2.45c0-.53-.13-.95-.38-1.26-.25-.31-.64-.47-1.17-.47"/>
  <path class="cls-1" d="M62.32,38.96c-.35,0-.64.07-.88.22-.24.15-.44.32-.6.51-.12-.24-.28-.42-.49-.55-.21-.13-.47-.19-.79-.19-.19,0-.35.02-.49.07-.14.05-.27.1-.37.18-.1.07-.2.15-.27.23-.08.08-.14.16-.18.23l-.03-.61h-.75c0,.12,0,.2,0,.26v3.82h.79v-1.9c0-.19.02-.39.06-.58.04-.19.1-.36.19-.51.09-.15.21-.27.36-.36.15-.09.33-.14.54-.14.28,0,.5.09.65.27.15.18.22.46.22.84v2.39h.79v-2.27c0-.16.03-.32.08-.47.05-.15.13-.28.24-.39.1-.11.22-.2.36-.27.14-.07.29-.1.45-.1.29,0,.5.09.65.27.15.18.22.46.22.84v2.39h.79v-2.45c0-.53-.13-.95-.38-1.26-.25-.31-.64-.47-1.17-.47"/>
  <rect class="cls-1" x="64.91" y="37.44" width=".89" height=".89"/>
  <rect class="cls-1" x="64.96" y="39.06" width=".79" height="4.08"/>
  <path class="cls-1" d="M69.69,41.15c-.13-.1-.27-.18-.44-.24-.17-.06-.35-.11-.54-.16-.33-.08-.59-.16-.79-.24-.2-.08-.3-.22-.3-.39,0-.19.08-.32.23-.4.15-.08.35-.12.61-.12s.46.04.64.11c.18.08.34.17.46.28l.43-.54c-.19-.16-.41-.29-.65-.38-.25-.09-.55-.14-.89-.14-.21,0-.4.03-.59.08-.19.05-.36.13-.51.23-.15.1-.27.23-.36.38-.09.15-.14.32-.14.52s.04.36.11.5c.08.14.18.25.3.35.12.1.26.17.42.23.15.06.31.1.47.14.22.05.41.1.56.14.15.04.27.09.36.14.09.05.15.11.19.18.04.07.06.15.06.24,0,.18-.09.31-.26.4-.18.08-.4.13-.66.13s-.51-.04-.71-.13c-.21-.09-.38-.21-.53-.35l-.48.53c.39.41.97.62,1.74.62.22,0,.44-.03.64-.08.2-.05.39-.13.54-.24.16-.1.28-.23.38-.39.09-.15.14-.33.14-.54s-.04-.37-.11-.51c-.07-.14-.17-.26-.3-.36"/>
  <path class="cls-1" d="M73.83,41.15c-.13-.1-.27-.18-.44-.24-.17-.06-.35-.11-.54-.16-.33-.08-.59-.16-.79-.24-.2-.08-.3-.22-.3-.39,0-.19.08-.32.23-.4.15-.08.35-.12.6-.12s.46.04.65.11c.18.08.34.17.46.28l.43-.54c-.19-.16-.41-.29-.65-.38-.25-.09-.55-.14-.89-.14-.21,0-.4.03-.59.08-.19.05-.36.13-.51.23-.15.1-.27.23-.36.38-.09.15-.14.32-.14.52s.04.36.11.5c.08.14.18.25.3.35.12.1.26.17.42.23.15.06.31.1.47.14.22.05.41.1.56.14.15.04.27.09.36.14.09.05.15.11.19.18.04.07.06.15.06.24,0,.18-.09.31-.26.4-.18.08-.4.13-.66.13s-.51-.04-.71-.13c-.21-.09-.38-.21-.53-.35l-.48.53c.39.41.97.62,1.74.62.22,0,.44-.03.64-.08.2-.05.39-.13.54-.24.16-.1.28-.23.38-.39.09-.15.14-.33.14-.54s-.04-.37-.11-.51c-.07-.14-.17-.26-.3-.36"/>
  <rect class="cls-1" x="75.14" y="37.44" width=".89" height=".89"/>
  <rect class="cls-1" x="75.2" y="39.06" width=".79" height="4.08"/>
  <path class="cls-1" d="M80.62,39.57c-.19-.2-.42-.36-.68-.47-.26-.11-.55-.17-.86-.17s-.61.06-.87.17c-.26.11-.49.27-.68.47-.19.2-.34.43-.45.69-.11.26-.16.54-.16.84s.05.58.16.84c.11.26.26.49.45.69.19.2.42.36.68.47.26.11.55.17.87.17s.6-.06.86-.17c.26-.11.49-.27.68-.47.19-.2.34-.43.45-.69.11-.26.16-.54.16-.84s-.05-.58-.16-.84c-.11-.26-.26-.49-.45-.69M80.34,41.64c-.06.18-.15.34-.27.47-.12.14-.26.25-.43.33-.17.08-.36.13-.57.13s-.4-.04-.57-.13c-.17-.09-.31-.2-.43-.34-.12-.14-.21-.3-.27-.47-.06-.18-.09-.36-.09-.54s.03-.37.09-.55c.06-.18.15-.34.27-.47.12-.14.26-.25.43-.33.17-.08.36-.13.57-.13s.4.04.57.13c.17.08.31.2.43.34.12.14.21.3.27.48.06.18.09.36.09.54s-.03.37-.09.55"/>
  <path class="cls-1" d="M84.27,38.96c-.19,0-.36.02-.5.07-.15.05-.28.1-.39.18-.11.07-.2.15-.28.23-.08.08-.14.16-.19.23l-.03-.61h-.75c0,.12,0,.2,0,.26v3.82h.79v-1.9c0-.2.02-.39.06-.58.04-.19.11-.36.2-.51.09-.15.21-.27.36-.36.15-.09.34-.14.57-.14.3,0,.53.09.69.27s.25.46.25.84v2.39h.79v-2.45c0-.53-.13-.95-.39-1.26-.26-.31-.65-.47-1.18-.47"/>
  <path class="cls-1" d="M74.71,19.49c-.05.07,0-1.7,0-1.72,0,0,0,0,0,0h-1.73s0,0,0,0c0-.02.07-1.67,0-1.72h0c-.05-.02-1.7,0-1.73,0h0c-.07-.02,0,1.69,0,1.72h0s-1.71,0-1.73,0c0,0,0,0,0,0,0,.02-.09,1.74,0,1.72t0,0c.05.08-1.63,0-1.65,0h0v-1.72s0,0,0,0c-.02,0-1.62.08-1.73,0,0,0,0,0,0,0,.02-.04-.13-1.75,0-1.72,0,0-.01,0-.01,0-.22.04-1.7,0-1.72,0,0,0,0,0,0,0,0,.03,0,1.7-.01,1.72,0,0,0,0,0,0-.13.05-1.74-.06-1.72,0-.28-.05.25,1.56.01,1.71,0,0,0,0,0,0-.01-.04-1.44.03-1.67.01h0c-.13-.07-.15-1.8,0-1.72-.02-.04-1.71,0-1.73,0,0,0,0,0,0,0,0-.02-.18-1.62,0-1.72t0,0c-.05-.1-1.87.01-1.73,0-.25,0-.25,1.63-.01,1.72.19-.04-1.71,0-1.73,0,0,0,0,0,0,0v1.72s0,0,0,0c-.02,0-1.73.07-1.65,0,.09-.03,0-1.7,0-1.72h-1.73s0,0,0,0v-1.72s-.01,0-.01,0h-1.72s-.28,1.66-.02,1.72c0,0,0,0,0,0-.12.09-1.71,0-1.73,0h0s-.11,1.73,0,1.72c.18.01-1.36-.08-1.63,0,0,0,0,0,0,0,.01-.08-.02-1.7-.02-1.72h-1.71s0,0,0,0v-1.72s0,0,0,0c-.02,0-1.63-.06-1.73,0,0,0,0,0,0,0,.18.1,0,1.69-.02,1.72-.12.04-1.66,0-1.73,0,0,0,0,0,0,0,.06.05.12,1.79,0,1.72-.09-.05-1.42-.02-1.61,0,0,0,0,0,0,0,.22-.11-.03-1.7-.03-1.72h-1.72s0,0,0,0v-1.72h0s-1.73,0-1.73,0h-.01s-.05,1.68,0,1.72h0c-.24.06-1.72,0-1.72,0h-.01v1.72h0s-1.47-.07-1.65,0h0c-.12-.04.13-1.64-.01-1.72t0,0c-.29.04-1.69-.1-1.72,0-.27.11.08-1.7-.01-1.72h0s-1.45-.04-1.73,0c-.19-.05-.16,1.61,0,1.72t0,0c-.09.03-1.42-.02-1.72,0,0,0,0,0,0,0,.13.06-.09,1.67-.02,1.72.24.08-1.56,0-1.65,0-.11-.07.28-1.72-.01-1.72.04-.09-1.45.06-1.72,0-.22.06-.09-1.67,0-1.72.18-.07-1.66-.08-1.73,0,0,0,0,0,0,0,.04.04.06,1.73-.02,1.72.19.09-1.62.04-1.72,0,0,0,0,0,0,0,.12.1.12,1.68-.02,1.72h0s-1.55.08-1.65,0c0,0,0,0,0,0,.29,0-.18-1.63-.02-1.72,0,0,0,0,0,0-.34,0-1.92.09-1.72,0,.12-.04.08-1.69,0-1.72h0c-.08-.01-1.73-.09-1.73,0-.14-.03-.06,1.61,0,1.72t0,0c-.31.09-1.48,0-1.72,0h0c.04.08,0,1.7,0,1.72h-1.04s-.13,1.84,0,1.95h0c.85.07,1.27-.05,2.26-.01.85-.06,5.93-.07,6.86,0,.77-.06,2.11.08,2.89,0,.68.04,4.9-.02,5.42,0,.42-.05,7.83-.09,8.31,0,.44.07,3.4.05,3.94,0,.52-.08,16.04,0,16.62,0,.73,0,3.2.03,3.97,0,.48,0,1.2-.03,1.45,0,.71.1,5.28-.13,5.81-.04,1.06.14,1.4.1,2.5.04.7-.08,1.61-.1,2.23.01.21,0-.25-1.93,0-1.95,0,0,0,0,0,0-.1-.04-.98-.01-1.14,0"/>
  <path class="cls-1" d="M21.59,8.99c0-.09-.02-1.71,0-1.72-.02-.07-1.63-.1-1.65,0,.01.1,0,1.59,0,1.72.01-.09-1.73.06-1.73,0-.03-.04-.02,1.79,0,1.72.01.04-.02,1.59,0,1.72,0,.12,1.73-.14,1.73,0-.02.01.02,1.81,0,1.72,0-.01,1.67.03,1.65,0,0,.11.01-1.79,0-1.72-.01.03,1.75.13,1.73,0,.02-.08.02-1.85,0-1.72,0,0,.02-1.64,0-1.72,0,.13-1.75.01-1.73,0"/>
  <path class="cls-1" d="M28.44,8.99s0-1.84,0-1.72c0-.13-1.66-.03-1.65,0,0-.04.02,1.66,0,1.72.02.13-1.76-.09-1.73,0,0,.03,0,1.66,0,1.72,0,.12,0,1.65,0,1.72-.02-.04,1.72.1,1.73,0,0,0-.01,1.69,0,1.72,0,.13,1.65.01,1.65,0-.01.06,0-1.66,0-1.72.02.05,1.73-.02,1.73,0,.02,0-.02-1.78,0-1.72,0-.11,0-1.8,0-1.72-.02.02-1.73-.08-1.73,0"/>
  <path class="cls-1" d="M35.28,8.99c0,.08.02-1.78,0-1.72-.01.03-1.65,0-1.65,0,.02.12,0,1.7,0,1.72.01-.1-1.72.1-1.73,0-.03.06.01,1.66,0,1.72-.01-.12,0,1.81,0,1.72-.02-.03,1.74.05,1.73,0,0-.07.01,1.59,0,1.72.01.02,1.66-.03,1.65,0-.01-.05.02-1.63,0-1.72.01.06,1.72.11,1.73,0,.02.09,0-1.65,0-1.72-.03-.11,0-1.63,0-1.72,0,.03-1.74.12-1.73,0"/>
  <path class="cls-1" d="M42.12,8.99c-.01-.07,0-1.84,0-1.72.02.1-1.64.02-1.65,0,0-.06-.02,1.69,0,1.72-.02.08-1.74-.07-1.73,0,.02-.13.02,1.83,0,1.72,0-.02,0,1.74,0,1.72-.01.07,1.74-.11,1.73,0,.02.03.02,1.69,0,1.72-.02-.11,1.65.05,1.65,0,.02.04.01-1.72,0-1.72-.02.09,1.71,0,1.73,0-.01-.02.02-1.75,0-1.72,0,.07,0-1.61,0-1.72.02-.09-1.73.09-1.73,0"/>
  <path class="cls-1" d="M48.97,8.99c0-.07,0-1.79,0-1.72-.02-.05-1.66-.13-1.65,0-.02.02-.01,1.61,0,1.72-.01,0-1.73.03-1.73,0,0-.02,0,1.73,0,1.72-.02.1.02,1.62,0,1.72-.01.08,1.75,0,1.73,0,.02-.11,0,1.84,0,1.72.02-.07,1.65-.05,1.65,0,0-.09.02-1.67,0-1.72.02.13,1.75-.08,1.73,0-.02,0-.02-1.77,0-1.72-.02.01-.01-1.73,0-1.72-.02.11-1.73.03-1.73,0"/>
  <path class="cls-1" d="M55.81,8.99c0-.09.02-1.63,0-1.72,0-.13-1.63.1-1.65,0,0-.1-.02,1.6,0,1.72,0-.07-1.73.06-1.73,0,.02.09.02,1.75,0,1.72,0,.05,0,1.74,0,1.72-.02.12,1.75.03,1.73,0-.02.09-.01,1.75,0,1.72,0-.11,1.66-.07,1.65,0,0-.02,0-1.6,0-1.72-.01.13,1.72.14,1.73,0,0,.05-.02-1.69,0-1.72-.02-.05-.02-1.77,0-1.72-.01-.02-1.74.09-1.73,0"/>
  <path class="cls-1" d="M62.65,8.99c.02-.13,0-1.68,0-1.72.02-.05-1.64-.07-1.65,0,0,.08,0,1.84,0,1.72.02,0-1.75,0-1.73,0,.02.1.02,1.63,0,1.72,0,.1-.02,1.62,0,1.72,0,.03,1.75.05,1.73,0,.02.1-.02,1.81,0,1.72-.02-.13,1.65,0,1.65,0,.02-.06-.01-1.65,0-1.72,0,0,1.75.08,1.73,0,0,.02.02-1.63,0-1.72,0-.03.01-1.75,0-1.72-.02.13-1.73,0-1.73,0"/>
  <path class="cls-1" d="M69.5,8.99c-.02.08.02-1.63,0-1.72,0,.13-1.68-.07-1.65,0-.02,0,.02,1.65,0,1.72,0-.08-1.76.09-1.73,0-.01-.02.02,1.81,0,1.72,0-.09,0,1.69,0,1.72,0,.13,1.74-.07,1.73,0,0,.02.02,1.75,0,1.72,0,.01,1.63.03,1.65,0-.02.03.02-1.7,0-1.72-.02.12,1.72.11,1.73,0-.02-.03,0-1.59,0-1.72-.01.02.02-1.84,0-1.72-.02-.08-1.75-.03-1.73,0"/>
  <path class="cls-1" d="M74.71,1.99c-.05-.07,0,1.66,0,1.72,0,0,0,0,0,0h-1.73s0,0,0,0c0,.05.07,1.66,0,1.72h0c-.05.02-1.71,0-1.73,0h0c-.07.02,0-1.68,0-1.72h0s-1.71,0-1.73,0c0,0,0,0,0,0,0-.03-.09-1.73,0-1.72,0,0,0,0,0,0,.03-.08-1.6,0-1.65,0,0,0,0,0,0,0v1.72s0,0,0,0c-.05,0-1.61-.08-1.73,0,.02.05-.12,1.62-.02,1.72,0,0,0,0,0,0-.17,0-1.69,0-1.72,0,0,0,0,0,0,0,0-.02,0-1.7-.01-1.72,0,0,0,0,0,0-.13-.05-1.74.06-1.72,0-.29.05.28-1.67-.01-1.72.24.05-1.4-.02-1.65,0h0c-.12.07-.14,1.62-.02,1.72,0,0,0,0,0,0h-1.71s0,0,0,0c0,.04-.18,1.62,0,1.72,0,0,0,0,0,0-.06.09-1.87-.02-1.73,0-.25,0-.25-1.58-.02-1.72,0,0,0,0,0,0-.14.01-1.67,0-1.72,0,0,0,0,0,0,0v-1.72s0,0,0,0c-.05,0-1.73-.07-1.65,0,.09.03,0,1.67,0,1.72,0,0,0,0,0,0h-1.73s0,0,0,0v1.72s-.01,0-.02,0h-1.72s0,0,0,0c0-.05-.27-1.65-.02-1.72,0,0,0,0,0,0-.13-.08-1.71,0-1.73,0h0s-.1-1.62,0-1.72c0,0,0,0,0,0-.13,0-1.36.08-1.62,0,0,0,0,0,0,0,.01.08-.02,1.67-.02,1.72,0,0,0,0,0,0h-1.71s0,0,0,0v1.72s0,0,0,0c-.05,0-1.62.06-1.73,0,0,0,0,0,0,0,.18-.11,0-1.68-.02-1.72h0c-.12-.04-1.65,0-1.73,0,0,0,0,0,0,0,.04-.07.12-1.79,0-1.72-.09.05-1.39.03-1.6,0,0,0,0,0,0,0,.21.13-.03,1.67-.04,1.71,0,0,0,0,0,0h-1.72s0,0,0,0v1.72s0,0,0,0h-1.74s-.05-1.66,0-1.72c0,0,0,0,0,0-.24-.06-1.72,0-1.72,0h-.01v-1.72s0,0,0,0c-.05,0-1.47.07-1.65,0h0c-.12.05.13,1.63,0,1.72,0,0,0,0,0,0-.3-.04-1.69.1-1.72,0-.27-.11.08,1.7-.01,1.72,0,0-1.45.04-1.73,0-.19.05-.16-1.6,0-1.72,0,0,0,0,0,0-.1-.03-1.41.02-1.71,0,0,0,0,0,0,0,.13-.08-.09-1.67-.02-1.72.24-.08-1.55,0-1.65,0h0c-.11.07.28,1.72-.01,1.72.04.09-1.45-.06-1.72,0-.22-.06-.09,1.67,0,1.72.18.08-1.68.08-1.73,0h0s.06-1.73-.01-1.72c.18-.09-1.55-.04-1.71,0,0,0,0,0,0,0,.11-.17.11-1.67-.02-1.71h0s-1.52-.07-1.65,0c0,0,0,0,0,0,.28.01-.18,1.62-.02,1.72,0,0,0,0,0,0-.33,0-1.93-.09-1.72,0,.12.04.08,1.69,0,1.72h0c-.08.01-1.73.09-1.73,0-.14.03-.06-1.6,0-1.72,0,0,0,0,0,0-.31-.09-1.48.03-1.72,0,0,0,0,0,0,0,.04-.05,0-1.67,0-1.72,0,0,0,0,0,0h-1.04s0,0,0,0c0-.05-.12-1.84,0-1.95,0,0,0,0,0,0,.85-.07,1.27.05,2.26.01.85.06,5.93.07,6.86,0,.77.06,2.11-.08,2.89,0,.68-.04,4.9.02,5.42,0,.42.05,7.83.09,8.31,0,.44-.07,3.4-.05,3.94,0,.52.08,16.04,0,16.62,0,.73,0,3.2-.03,3.97,0,.48,0,1.2.03,1.45,0,.71-.1,5.28.13,5.81.04,1.06-.14,1.4-.1,2.5-.04.7.08,1.61.1,2.23-.01.21,0-.24,1.9,0,1.95,0,0,0,0,0,0-.12.04-.98.01-1.14,0"/>
  <polygon class="cls-1" points="6.94 28.4 6.4 27.84 5.85 28.4 6.4 28.95 6.94 28.4"/>
  <polygon class="cls-1" points="7.68 28.95 8.22 28.4 7.68 27.84 7.13 28.4 7.68 28.95"/>
  <path class="cls-1" d="M9.99,30.17c-.05-.18-.1-.37-.16-.54-.06-.18-.13-.34-.21-.48l-.63.35c.08.15.15.3.21.46.06.17.12.33.17.49.05.16.09.31.11.46.03.15.04.28.04.39,0,.08-.06.15-.19.22-.13.07-.3.13-.51.18-.21.05-.46.09-.75.12-.29.03-.6.04-.93.04-.42,0-.78-.02-1.07-.06-.3-.04-.54-.1-.72-.19-.19-.08-.32-.2-.41-.33-.08-.14-.13-.3-.13-.5,0-.15.02-.32.07-.51.05-.19.12-.38.22-.59l-.47-.23c-.15.26-.27.54-.36.82-.09.28-.13.54-.13.78,0,.28.06.52.18.72.12.2.3.37.54.5.25.13.56.23.93.29.38.06.83.09,1.35.09,1.02,0,1.78-.12,2.26-.35.49-.23.73-.59.73-1.07,0-.16-.01-.33-.04-.52-.03-.19-.06-.37-.11-.56"/>
  <polygon class="cls-1" points="7.58 27.26 7.04 26.71 6.49 27.26 7.04 27.82 7.58 27.26"/>
  <polygon class="cls-1" points="11.79 32.61 11.84 26.95 11.14 27.07 11.19 32.61 11.79 32.61"/>
  <polygon class="cls-1" points="38.52 28.89 37.98 28.34 37.43 28.89 37.98 29.44 38.52 28.89"/>
  <polygon class="cls-1" points="37.24 28.89 36.7 28.34 36.15 28.89 36.7 29.44 37.24 28.89"/>
  <path class="cls-1" d="M38.51,32.61c.21,0,.41-.02.61-.07.2-.04.37-.12.53-.22.15-.1.28-.24.38-.4.1-.17.14-.37.14-.62l.04-4.35-.69.12.03,4.3c0,.08-.03.15-.09.21-.06.06-.14.1-.24.14-.1.03-.21.06-.33.07-.12.01-.25.02-.37.02-.7,0-1.05-.18-1.05-.54,0-.05.01-.17.04-.38.02-.21.05-.43.08-.68l-.6-.07c-.01.08-.02.16-.04.26-.01.1-.03.2-.04.3-.02.1-.03.2-.05.29-.02.1-.03.18-.04.24-.05.2-.16.35-.35.44-.18.09-.47.13-.85.13H15.96c-.14,0-.26,0-.36-.03-.1-.02-.18-.05-.25-.1-.07-.05-.13-.11-.18-.18-.05-.08-.1-.17-.15-.29-.04-.09-.1-.25-.17-.46-.07-.22-.15-.43-.22-.65l-.66.31c.11.33.21.61.29.83.08.22.17.41.25.56-.06.35-.29.69-.68,1.01-.39.32-.91.6-1.55.85l.4.69c.62-.22,1.12-.51,1.52-.86.4-.35.66-.73.79-1.15.25.17.58.25.97.25h19.65c.37,0,.69-.05.95-.15.27-.1.46-.25.58-.43.23.39.68.59,1.37.59"/>
  <polygon class="cls-1" points="41.96 32.61 42 26.95 41.31 27.07 41.35 32.61 41.96 32.61"/>
  <polygon class="cls-1" points="46.01 27.01 45.47 26.46 44.93 27.01 45.47 27.56 46.01 27.01"/>
  <polygon class="cls-1" points="47.3 27.01 46.75 26.46 46.21 27.01 46.75 27.56 47.3 27.01"/>
  <path class="cls-1" d="M76.52,29.21l.12.32c.44-.14.89-.23,1.35-.26l.06-.42c-.08,0-.17.01-.25.03-.09.01-.18.03-.28.04-.15-.02-.27-.06-.36-.11-.09-.06-.14-.13-.14-.22,0-.08.03-.15.1-.2.07-.05.15-.08.26-.08s.19.03.28.08l.18-.26c-.13-.15-.29-.22-.49-.22-.19,0-.35.07-.48.2-.13.13-.2.29-.2.48,0,.21.1.37.29.48-.06.02-.13.05-.2.07-.07.02-.15.05-.23.08"/>
  <polygon class="cls-1" points="79.89 33.86 79.35 33.31 78.8 33.86 79.35 34.42 79.89 33.86"/>
  <path class="cls-1" d="M81.35,32.61c.25,0,.51-.03.81-.08.29-.06.57-.13.83-.22.21.09.42.17.65.22.23.05.44.08.64.08.5,0,.88-.12,1.16-.36.27-.24.41-.57.41-1,0-.34-.06-.67-.17-.99-.11-.32-.28-.61-.49-.89-.21-.27-.47-.52-.77-.73-.3-.22-.64-.39-1.01-.53l-.3.68c.32.11.62.26.88.43.27.18.49.38.68.61.19.23.33.47.43.73.1.26.15.53.15.81,0,.13-.09.24-.28.33s-.43.12-.72.12c-.07,0-.14,0-.2,0-.06,0-.13,0-.19-.01.29-.27.43-.61.43-1.02,0-.19-.03-.38-.1-.55-.06-.17-.15-.32-.27-.45-.11-.13-.25-.23-.4-.3-.15-.07-.32-.11-.49-.11s-.34.04-.49.11c-.15.07-.29.18-.4.3-.11.13-.2.28-.27.45-.06.17-.1.35-.1.55,0,.39.14.72.41.99-.13.01-.26.02-.4.03-.14,0-.29,0-.44,0-.7,0-1.05-.18-1.05-.54,0-.05.01-.17.04-.38.02-.21.05-.43.08-.68l-.6-.07c-.01.08-.02.16-.03.26-.01.1-.03.2-.04.3-.02.1-.04.2-.05.29s-.03.18-.04.24c-.05.2-.16.35-.35.44-.18.09-.47.13-.85.13-.7,0-1.04-.18-1.04-.54,0-.05.01-.17.03-.38.02-.21.05-.43.08-.68l-.6-.07c-.01.08-.02.16-.04.26-.01.1-.03.2-.04.3-.02.1-.03.2-.05.29-.02.1-.03.18-.04.24-.05.2-.16.35-.35.44-.18.09-.47.13-.85.13h-27.38c-.29,0-.49-.05-.62-.16-.13-.11-.19-.29-.18-.54l.04-2.97-.69.12v.54c-.71.15-1.26.38-1.65.69-.39.32-.59.7-.59,1.15,0,.19.04.36.11.51.08.15.18.27.31.37.13.1.28.18.45.23.17.05.36.08.56.08.33,0,.62-.07.87-.21.1.66.57.99,1.41.99h27.38c.37,0,.69-.05.95-.15.27-.1.46-.25.57-.44.23.39.68.59,1.37.59.37,0,.69-.05.95-.15.27-.1.46-.25.58-.44.23.39.68.59,1.37.59h0ZM82.53,30.28c.13-.13.3-.2.5-.2s.37.07.5.21c.13.14.2.31.2.51,0,.37-.24.64-.71.81-.22-.09-.39-.21-.51-.35-.12-.14-.18-.29-.18-.46,0-.21.07-.38.2-.51M46.01,31.06c-.12,0-.24-.01-.36-.03-.11-.02-.22-.05-.3-.1-.09-.04-.16-.1-.21-.17s-.08-.16-.08-.26c0-.13.05-.25.14-.36.09-.11.21-.21.37-.29.16-.08.33-.15.53-.21.2-.06.41-.1.62-.12l.02,1.41c-.21.08-.46.12-.74.12"/>
  <polygon class="cls-1" points="81.17 33.86 80.63 33.31 80.09 33.86 80.63 34.42 81.17 33.86"/>
  <polygon class="cls-1" points="8.48 39.73 5.27 39.73 5.27 37.29 4.43 37.29 4.43 43.14 5.27 43.14 5.27 40.49 8.48 40.49 8.48 43.14 9.32 43.14 9.32 37.29 8.48 37.29 8.48 39.73"/>
  <path class="cls-1" d="M14.24,40.44c-.08-.29-.19-.54-.36-.76-.16-.22-.37-.4-.62-.54-.25-.13-.55-.2-.9-.2-.3,0-.57.05-.82.17-.25.11-.46.26-.65.45-.18.19-.32.42-.42.68-.1.26-.15.54-.15.84,0,.33.05.62.15.9.1.27.25.5.43.69.19.19.41.34.68.45.26.1.55.16.87.16.26,0,.49-.03.69-.08.2-.05.38-.12.53-.2.15-.08.27-.15.36-.24.09-.08.16-.15.21-.2l-.45-.47c-.1.11-.26.23-.48.34-.22.12-.51.18-.85.18-.18,0-.34-.03-.5-.1-.16-.06-.3-.15-.42-.26-.12-.11-.22-.24-.29-.39-.07-.15-.11-.32-.12-.5h3.22c0-.31-.04-.61-.11-.89M11.13,40.74c0-.15.04-.29.1-.43.06-.14.14-.26.25-.36.11-.1.23-.19.38-.25.15-.06.32-.1.5-.1.36,0,.64.11.84.33.2.22.31.49.33.81h-2.4Z"/>
  <path class="cls-1" d="M17.34,39c-.19,0-.35.02-.5.07s-.27.11-.38.18c-.11.07-.2.15-.28.23-.08.09-.14.16-.18.23l-.03-.66h-.75c0,.12,0,.2,0,.25v3.83h.79v-2.15c0-.17.03-.33.09-.48.06-.15.14-.28.25-.4.11-.11.23-.2.37-.27.14-.06.3-.1.47-.1s.3.02.4.06l.18-.74c-.06-.02-.13-.04-.21-.05-.07-.01-.15-.02-.24-.02"/>
  <rect class="cls-1" x="18.41" y="37.44" width=".89" height=".89"/>
  <rect class="cls-1" x="18.46" y="39.06" width=".79" height="4.08"/>
  <path class="cls-1" d="M22.48,42.52c-.1.05-.23.07-.38.07-.19,0-.33-.06-.43-.18-.1-.12-.15-.35-.15-.67v-2.01h1.19v-.66h-1.19v-1.33h-.79v1.33h-.74v.66h.74v2.09c0,.5.1.86.3,1.1.2.23.52.35.95.35.25,0,.46-.04.64-.11.18-.07.35-.19.52-.36l-.36-.48c-.1.09-.2.16-.3.21"/>
  <path class="cls-1" d="M27.04,42.78v-2.38c0-.47-.15-.83-.45-1.08-.3-.26-.71-.38-1.24-.38-.22,0-.42.02-.59.05-.17.03-.32.07-.46.12-.14.05-.25.1-.35.16-.1.06-.18.12-.25.18l.37.54c.12-.09.27-.17.46-.26.18-.08.43-.13.74-.13s.57.07.75.2c.18.13.28.35.28.65v.15s-.08-.01-.15-.02c-.07,0-.15-.01-.25-.02-.09,0-.19-.01-.3-.02-.1,0-.2,0-.3,0-.58,0-1.02.13-1.33.4-.31.26-.46.61-.46,1.05,0,.23.04.43.13.59.09.16.2.29.33.4.14.1.29.18.46.22.17.04.33.07.5.07.26,0,.52-.05.77-.15.25-.1.45-.25.6-.46l.02.49h.74c0-.08,0-.15,0-.21v-.15ZM26.29,41.67c0,.12-.03.24-.1.36-.06.12-.15.22-.25.31-.1.09-.23.16-.36.21-.14.05-.28.08-.43.08-.27,0-.48-.06-.63-.17-.15-.11-.23-.28-.23-.5,0-.09.01-.18.04-.28.03-.1.08-.18.16-.26.08-.08.19-.14.33-.2.14-.05.32-.08.54-.08.09,0,.19,0,.29,0,.1,0,.19.01.28.02.09,0,.16.01.23.02.07,0,.11.02.14.02v.46Z"/>
  <path class="cls-1" d="M30.22,38.96c-.35,0-.66.05-.94.16-.28.11-.52.26-.72.46-.2.2-.36.43-.47.69-.11.27-.17.56-.17.87,0,.29.04.56.12.81.08.25.2.46.36.64.16.18.35.32.58.42s.5.15.8.15c.18,0,.34-.02.48-.07.14-.04.26-.09.36-.15.1-.05.19-.11.25-.18.07-.06.12-.11.16-.14v.5c0,.35-.1.63-.29.85-.19.22-.49.32-.88.32-.28,0-.52-.03-.72-.1-.2-.07-.36-.15-.5-.24l-.37.58c.15.12.35.22.6.31.25.09.58.14.99.14.62,0,1.1-.16,1.44-.49.34-.32.51-.78.51-1.37v-3.9c-.18-.07-.41-.13-.69-.19-.29-.06-.6-.09-.93-.09M31.06,41.47c0,.13-.02.25-.07.37-.05.12-.12.23-.21.33-.09.1-.21.17-.36.23-.15.06-.32.09-.51.09-.21,0-.39-.03-.53-.1-.15-.07-.27-.17-.36-.29-.1-.12-.17-.27-.21-.43-.04-.16-.07-.34-.07-.53,0-.22.04-.41.11-.6.07-.18.18-.34.31-.47.13-.13.29-.23.47-.31.18-.07.38-.11.61-.11.25,0,.44.02.57.05.13.03.21.06.27.08v1.69Z"/>
  <path class="cls-1" d="M36.64,40.44c-.08-.29-.19-.54-.36-.76-.16-.22-.37-.4-.62-.54-.25-.13-.55-.2-.9-.2-.3,0-.57.05-.82.17-.25.11-.46.26-.65.45-.18.19-.32.42-.42.68-.1.26-.15.54-.15.84,0,.33.05.62.15.9.1.27.25.5.43.69.19.19.41.34.68.45.26.1.55.16.87.16.26,0,.49-.03.69-.08.2-.05.38-.12.53-.2.15-.08.27-.15.36-.24.09-.08.16-.15.21-.2l-.45-.47c-.1.11-.26.23-.48.34-.22.12-.51.18-.85.18-.18,0-.34-.03-.5-.1-.16-.06-.3-.15-.42-.26-.12-.11-.22-.24-.29-.39-.07-.15-.11-.32-.12-.5h3.22c0-.31-.04-.61-.11-.89M33.53,40.74c0-.15.04-.29.1-.43.06-.14.14-.26.25-.36.1-.1.23-.19.38-.25.15-.06.32-.1.5-.1.36,0,.64.11.84.33.2.22.31.49.33.81h-2.4Z"/>
  <path class="cls-1" d="M40.54,38.58c.18-.21.39-.38.65-.5.25-.12.54-.18.86-.18.23,0,.43.03.61.09.18.06.33.13.46.22.13.09.25.18.35.29.1.11.18.21.25.31l.6-.51c-.08-.12-.19-.25-.32-.39-.13-.13-.29-.26-.47-.37-.18-.11-.4-.21-.65-.28-.25-.08-.52-.11-.83-.11-.44,0-.84.08-1.2.24s-.67.38-.93.66c-.26.28-.46.61-.6.98-.14.38-.21.78-.21,1.2s.07.84.21,1.21c.14.37.34.69.6.97.26.27.57.49.92.64.36.15.75.23,1.19.23.3,0,.58-.04.83-.12.25-.08.47-.18.67-.3.19-.12.36-.25.49-.38.13-.13.23-.25.3-.36l-.59-.49c-.06.07-.13.15-.22.24-.08.1-.19.19-.32.29-.13.09-.29.17-.48.24-.19.07-.42.1-.68.1-.31,0-.59-.06-.84-.18-.25-.12-.46-.28-.64-.48-.18-.21-.31-.45-.41-.72-.1-.28-.15-.57-.15-.89s.05-.61.14-.9c.09-.28.23-.53.41-.74"/>
  <path class="cls-1" d="M48.5,39.57c-.19-.2-.42-.36-.69-.47-.26-.11-.55-.17-.86-.17s-.61.06-.87.17c-.26.11-.49.27-.68.47-.19.2-.34.43-.45.69-.11.26-.16.54-.16.84s.05.58.16.84c.11.26.26.49.45.69.19.2.42.36.68.47.26.11.55.17.87.17s.6-.06.86-.17c.26-.11.49-.27.69-.47.19-.2.34-.43.45-.69.11-.26.16-.54.16-.84s-.05-.58-.16-.84c-.11-.26-.26-.49-.45-.69M48.22,41.64c-.06.18-.15.34-.27.47-.12.14-.26.25-.43.33-.17.08-.36.13-.57.13s-.4-.04-.57-.13c-.17-.09-.31-.2-.43-.34s-.21-.3-.27-.47c-.06-.18-.09-.36-.09-.54s.03-.37.09-.55c.06-.18.15-.34.27-.47.12-.14.26-.25.43-.33.17-.08.36-.13.57-.13s.4.04.57.13c.17.08.31.2.43.34.12.14.21.3.27.48.06.18.09.36.09.54s-.03.37-.09.55"/>
  <path class="cls-1" d="M54.86,38.96c-.35,0-.64.07-.88.22-.24.15-.44.32-.6.51-.12-.24-.28-.42-.49-.55-.21-.13-.47-.19-.79-.19-.19,0-.35.02-.49.07-.14.05-.27.1-.37.18-.1.07-.2.15-.27.23-.08.08-.14.16-.18.23l-.03-.61h-.75c0,.12,0,.2,0,.26v3.82h.79v-1.9c0-.19.02-.39.06-.58.04-.19.1-.36.19-.51.09-.15.21-.27.36-.36.15-.09.33-.14.54-.14.28,0,.5.09.65.27.15.18.22.46.22.84v2.39h.79v-2.27c0-.16.03-.32.08-.47.05-.15.13-.28.24-.39.1-.11.22-.2.36-.27.14-.07.29-.1.45-.1.29,0,.51.09.65.27.15.18.22.46.22.84v2.39h.79v-2.45c0-.53-.13-.95-.38-1.26-.25-.31-.64-.47-1.17-.47"/>
  <path class="cls-1" d="M62.32,38.96c-.35,0-.64.07-.88.22-.24.15-.44.32-.6.51-.12-.24-.28-.42-.49-.55-.21-.13-.47-.19-.79-.19-.19,0-.35.02-.49.07-.14.05-.27.1-.37.18-.1.07-.2.15-.27.23-.08.08-.14.16-.18.23l-.03-.61h-.75c0,.12,0,.2,0,.26v3.82h.79v-1.9c0-.19.02-.39.06-.58.04-.19.1-.36.19-.51.09-.15.21-.27.36-.36.15-.09.33-.14.54-.14.28,0,.5.09.65.27.15.18.22.46.22.84v2.39h.79v-2.27c0-.16.03-.32.08-.47.05-.15.13-.28.24-.39.1-.11.22-.2.36-.27.14-.07.29-.1.45-.1.29,0,.5.09.65.27.15.18.22.46.22.84v2.39h.79v-2.45c0-.53-.13-.95-.38-1.26-.25-.31-.64-.47-1.17-.47"/>
  <rect class="cls-1" x="64.91" y="37.44" width=".89" height=".89"/>
  <rect class="cls-1" x="64.96" y="39.06" width=".79" height="4.08"/>
  <path class="cls-1" d="M69.69,41.15c-.13-.1-.27-.18-.44-.24-.17-.06-.35-.11-.54-.16-.33-.08-.59-.16-.79-.24-.2-.08-.3-.22-.3-.39,0-.19.08-.32.23-.4.15-.08.35-.12.61-.12s.46.04.64.11c.18.08.34.17.46.28l.43-.54c-.19-.16-.41-.29-.65-.38-.25-.09-.55-.14-.89-.14-.21,0-.4.03-.59.08-.19.05-.36.13-.51.23-.15.1-.27.23-.36.38-.09.15-.14.32-.14.52s.04.36.11.5c.08.14.18.25.3.35.12.1.26.17.42.23.15.06.31.1.47.14.22.05.41.1.56.14.15.04.27.09.36.14.09.05.15.11.19.18.04.07.06.15.06.24,0,.18-.09.31-.26.4-.18.08-.4.13-.66.13s-.51-.04-.71-.13c-.21-.09-.38-.21-.53-.35l-.48.53c.39.41.97.62,1.74.62.22,0,.44-.03.64-.08.2-.05.39-.13.54-.24.16-.1.28-.23.38-.39.09-.15.14-.33.14-.54s-.04-.37-.11-.51c-.07-.14-.17-.26-.3-.36"/>
  <path class="cls-1" d="M73.83,41.15c-.13-.1-.27-.18-.44-.24-.17-.06-.35-.11-.54-.16-.33-.08-.59-.16-.79-.24-.2-.08-.3-.22-.3-.39,0-.19.08-.32.23-.4.15-.08.35-.12.6-.12s.46.04.65.11c.18.08.34.17.46.28l.43-.54c-.19-.16-.41-.29-.65-.38-.25-.09-.55-.14-.89-.14-.21,0-.4.03-.59.08-.19.05-.36.13-.51.23-.15.1-.27.23-.36.38-.09.15-.14.32-.14.52s.04.36.11.5c.08.14.18.25.3.35.12.1.26.17.42.23.15.06.31.1.47.14.22.05.41.1.56.14.15.04.27.09.36.14.09.05.15.11.19.18.04.07.06.15.06.24,0,.18-.09.31-.26.4-.18.08-.4.13-.66.13s-.51-.04-.71-.13c-.21-.09-.38-.21-.53-.35l-.48.53c.39.41.97.62,1.74.62.22,0,.44-.03.64-.08.2-.05.39-.13.54-.24.16-.1.28-.23.38-.39.09-.15.14-.33.14-.54s-.04-.37-.11-.51c-.07-.14-.17-.26-.3-.36"/>
  <rect class="cls-1" x="75.14" y="37.44" width=".89" height=".89"/>
  <rect class="cls-1" x="75.2" y="39.06" width=".79" height="4.08"/>
  <path class="cls-1" d="M80.62,39.57c-.19-.2-.42-.36-.68-.47-.26-.11-.55-.17-.86-.17s-.61.06-.87.17c-.26.11-.49.27-.68.47-.19.2-.34.43-.45.69-.11.26-.16.54-.16.84s.05.58.16.84c.11.26.26.49.45.69.19.2.42.36.68.47.26.11.55.17.87.17s.6-.06.86-.17c.26-.11.49-.27.68-.47.19-.2.34-.43.45-.69.11-.26.16-.54.16-.84s-.05-.58-.16-.84c-.11-.26-.26-.49-.45-.69M80.34,41.64c-.06.18-.15.34-.27.47-.12.14-.26.25-.43.33-.17.08-.36.13-.57.13s-.4-.04-.57-.13c-.17-.09-.31-.2-.43-.34-.12-.14-.21-.3-.27-.47-.06-.18-.09-.36-.09-.54s.03-.37.09-.55c.06-.18.15-.34.27-.47.12-.14.26-.25.43-.33.17-.08.36-.13.57-.13s.4.04.57.13c.17.08.31.2.43.34.12.14.21.3.27.48.06.18.09.36.09.54s-.03.37-.09.55"/>
  <path class="cls-1" d="M84.27,38.96c-.19,0-.36.02-.5.07-.15.05-.28.1-.39.18-.11.07-.2.15-.28.23-.08.08-.14.16-.19.23l-.03-.61h-.75c0,.12,0,.2,0,.26v3.82h.79v-1.9c0-.2.02-.39.06-.58.04-.19.11-.36.2-.51.09-.15.21-.27.36-.36.15-.09.34-.14.57-.14.3,0,.53.09.69.27s.25.46.25.84v2.39h.79v-2.45c0-.53-.13-.95-.39-1.26-.26-.31-.65-.47-1.18-.47"/>
  <path class="cls-1" d="M74.98,19.49c-.05.07,0-1.7,0-1.72,0,0,0,0,0,0h-1.73s0,0,0,0c0-.02.07-1.67,0-1.72h0c-.05-.02-1.7,0-1.73,0h0c-.07-.02,0,1.69,0,1.72h0s-1.71,0-1.73,0c0,0,0,0,0,0,0,.02-.09,1.74,0,1.72t0,0c.05.08-1.63,0-1.65,0h0v-1.72s0,0,0,0c-.02,0-1.62.08-1.73,0,0,0,0,0,0,0,.02-.04-.13-1.75,0-1.72,0,0-.01,0-.01,0-.22.04-1.7,0-1.72,0,0,0,0,0,0,0,0,.03,0,1.7-.01,1.72,0,0,0,0,0,0-.13.05-1.74-.06-1.72,0-.28-.05.25,1.56.01,1.71,0,0,0,0,0,0-.01-.04-1.44.03-1.67.01h0c-.13-.07-.15-1.8,0-1.72-.02-.04-1.71,0-1.73,0,0,0,0,0,0,0,0-.02-.18-1.62,0-1.72t0,0c-.05-.1-1.87.01-1.73,0-.25,0-.25,1.63-.01,1.72.19-.04-1.71,0-1.73,0,0,0,0,0,0,0v1.72s0,0,0,0c-.02,0-1.73.07-1.65,0,.09-.03,0-1.7,0-1.72h-1.73s0,0,0,0v-1.72s-.01,0-.01,0h-1.72s-.28,1.66-.02,1.72c0,0,0,0,0,0-.12.09-1.71,0-1.73,0h0s-.11,1.73,0,1.72c.18.01-1.36-.08-1.63,0,0,0,0,0,0,0,.01-.08-.02-1.7-.02-1.72h-1.71s0,0,0,0v-1.72s0,0,0,0c-.02,0-1.63-.06-1.73,0,0,0,0,0,0,0,.18.1,0,1.69-.02,1.72-.12.04-1.66,0-1.73,0,0,0,0,0,0,0,.06.05.12,1.79,0,1.72-.09-.05-1.42-.02-1.61,0,0,0,0,0,0,0,.22-.11-.03-1.7-.03-1.72h-1.72s0,0,0,0v-1.72h0s-1.73,0-1.73,0h-.01s-.05,1.68,0,1.72h0c-.24.06-1.72,0-1.72,0h-.01v1.72h0s-1.47-.07-1.65,0h0c-.12-.04.13-1.64-.01-1.72t0,0c-.29.04-1.69-.1-1.72,0-.27.11.08-1.7-.01-1.72h0s-1.45-.04-1.73,0c-.19-.05-.16,1.61,0,1.72t0,0c-.09.03-1.42-.02-1.72,0,0,0,0,0,0,0,.13.06-.09,1.67-.02,1.72.24.08-1.56,0-1.65,0-.11-.07.28-1.72-.01-1.72.04-.09-1.45.06-1.72,0-.22.06-.09-1.67,0-1.72.18-.07-1.66-.08-1.73,0,0,0,0,0,0,0,.04.04.06,1.73-.02,1.72.19.09-1.62.04-1.72,0,0,0,0,0,0,0,.12.1.12,1.68-.02,1.72h0s-1.55.08-1.65,0c0,0,0,0,0,0,.29,0-.18-1.63-.02-1.72,0,0,0,0,0,0-.34,0-1.92.09-1.72,0,.12-.04.08-1.69,0-1.72h0c-.08-.01-1.73-.09-1.73,0-.14-.03-.06,1.61,0,1.72t0,0c-.31.09-1.48,0-1.72,0h0c.04.08,0,1.7,0,1.72h-1.04s-.13,1.84,0,1.95h0c.85.07,1.27-.05,2.26-.01.85-.06,5.93-.07,6.86,0,.77-.06,2.11.08,2.89,0,.68.04,4.9-.02,5.42,0,.42-.05,7.83-.09,8.31,0,.44.07,3.4.05,3.94,0,.52-.08,16.04,0,16.62,0,.73,0,3.2.03,3.97,0,.48,0,1.2-.03,1.45,0,.71.1,5.28-.13,5.81-.04,1.06.14,1.4.1,2.5.04.7-.08,1.61-.1,2.23.01.21,0-.25-1.93,0-1.95,0,0,0,0,0,0-.1-.04-.98-.01-1.14,0"/>
  <path class="cls-1" d="M21.87,8.99c0-.09-.02-1.71,0-1.72-.02-.07-1.63-.1-1.65,0,.01.1,0,1.59,0,1.72.01-.09-1.73.06-1.73,0-.03-.04-.02,1.79,0,1.72.01.04-.02,1.59,0,1.72,0,.12,1.73-.14,1.73,0-.02.01.02,1.81,0,1.72,0-.01,1.67.03,1.65,0,0,.11.01-1.79,0-1.72-.01.03,1.75.13,1.73,0,.02-.08.02-1.85,0-1.72,0,0,.02-1.64,0-1.72,0,.13-1.75.01-1.73,0"/>
  <path class="cls-1" d="M28.71,8.99s0-1.84,0-1.72c0-.13-1.66-.03-1.65,0,0-.04.02,1.66,0,1.72.02.13-1.76-.09-1.73,0,0,.03,0,1.66,0,1.72,0,.12,0,1.65,0,1.72-.02-.04,1.72.1,1.73,0,0,0-.01,1.69,0,1.72,0,.13,1.65.01,1.65,0-.01.06,0-1.66,0-1.72.02.05,1.73-.02,1.73,0,.02,0-.02-1.78,0-1.72,0-.11,0-1.8,0-1.72-.02.02-1.73-.08-1.73,0"/>
  <path class="cls-1" d="M35.56,8.99c0,.08.02-1.78,0-1.72-.01.03-1.65,0-1.65,0,.02.12,0,1.7,0,1.72.01-.1-1.72.1-1.73,0-.03.06.01,1.66,0,1.72-.01-.12,0,1.81,0,1.72-.02-.03,1.74.05,1.73,0,0-.07.01,1.59,0,1.72.01.02,1.66-.03,1.65,0-.01-.05.02-1.63,0-1.72.01.06,1.72.11,1.73,0,.02.09,0-1.65,0-1.72-.03-.11,0-1.63,0-1.72,0,.03-1.74.12-1.73,0"/>
  <path class="cls-1" d="M42.4,8.99c-.01-.07,0-1.84,0-1.72.02.1-1.64.02-1.65,0,0-.06-.02,1.69,0,1.72-.02.08-1.74-.07-1.73,0,.02-.13.02,1.83,0,1.72,0-.02,0,1.74,0,1.72-.01.07,1.74-.11,1.73,0,.02.03.02,1.69,0,1.72-.02-.11,1.65.05,1.65,0,.02.04.01-1.72,0-1.72-.02.09,1.71,0,1.73,0-.01-.02.02-1.75,0-1.72,0,.07,0-1.61,0-1.72.02-.09-1.73.09-1.73,0"/>
  <path class="cls-1" d="M49.24,8.99c0-.07,0-1.79,0-1.72-.02-.05-1.66-.13-1.65,0-.02.02-.01,1.61,0,1.72-.01,0-1.73.03-1.73,0,0-.02,0,1.73,0,1.72-.02.1.02,1.62,0,1.72-.01.08,1.75,0,1.73,0,.02-.11,0,1.84,0,1.72.02-.07,1.65-.05,1.65,0,0-.09.02-1.67,0-1.72.02.13,1.75-.08,1.73,0-.02,0-.02-1.77,0-1.72-.02.01-.01-1.73,0-1.72-.02.11-1.73.03-1.73,0"/>
  <path class="cls-1" d="M56.09,8.99c0-.09.02-1.63,0-1.72,0-.13-1.63.1-1.65,0,0-.1-.02,1.6,0,1.72,0-.07-1.73.06-1.73,0,.02.09.02,1.75,0,1.72,0,.05,0,1.74,0,1.72-.02.12,1.75.03,1.73,0-.02.09-.01,1.75,0,1.72,0-.11,1.66-.07,1.65,0,0-.02,0-1.6,0-1.72-.01.13,1.72.14,1.73,0,0,.05-.02-1.69,0-1.72-.02-.05-.02-1.77,0-1.72-.01-.02-1.74.09-1.73,0"/>
  <path class="cls-1" d="M62.93,8.99c.02-.13,0-1.68,0-1.72.02-.05-1.64-.07-1.65,0,0,.08,0,1.84,0,1.72.02,0-1.75,0-1.73,0,.02.1.02,1.63,0,1.72,0,.1-.02,1.62,0,1.72,0,.03,1.75.05,1.73,0,.02.1-.02,1.81,0,1.72-.02-.13,1.65,0,1.65,0,.02-.06-.01-1.65,0-1.72,0,0,1.75.08,1.73,0,0,.02.02-1.63,0-1.72,0-.03.01-1.75,0-1.72-.02.13-1.73,0-1.73,0"/>
  <path class="cls-1" d="M69.77,8.99c-.02.08.02-1.63,0-1.72,0,.13-1.68-.07-1.65,0-.02,0,.02,1.65,0,1.72,0-.08-1.76.09-1.73,0-.01-.02.02,1.81,0,1.72,0-.09,0,1.69,0,1.72,0,.13,1.74-.07,1.73,0,0,.02.02,1.75,0,1.72,0,.01,1.63.03,1.65,0-.02.03.02-1.7,0-1.72-.02.12,1.72.11,1.73,0-.02-.03,0-1.59,0-1.72-.01.02.02-1.84,0-1.72-.02-.08-1.75-.03-1.73,0"/>
  <path class="cls-1" d="M74.98,1.99c-.05-.07,0,1.66,0,1.72,0,0,0,0,0,0h-1.73s0,0,0,0c0,.05.07,1.66,0,1.72h0c-.05.02-1.71,0-1.73,0h0c-.07.02,0-1.68,0-1.72h0s-1.71,0-1.73,0c0,0,0,0,0,0,0-.03-.09-1.73,0-1.72,0,0,0,0,0,0,.03-.08-1.6,0-1.65,0,0,0,0,0,0,0v1.72s0,0,0,0c-.05,0-1.61-.08-1.73,0,.02.05-.12,1.62-.02,1.72,0,0,0,0,0,0-.17,0-1.69,0-1.72,0,0,0,0,0,0,0,0-.02,0-1.7-.01-1.72,0,0,0,0,0,0-.13-.05-1.74.06-1.72,0-.29.05.28-1.67-.01-1.72.24.05-1.4-.02-1.65,0h0c-.12.07-.14,1.62-.02,1.72,0,0,0,0,0,0h-1.71s0,0,0,0c0,.04-.18,1.62,0,1.72,0,0,0,0,0,0-.06.09-1.87-.02-1.73,0-.25,0-.25-1.58-.02-1.72,0,0,0,0,0,0-.14.01-1.67,0-1.72,0,0,0,0,0,0,0v-1.72s0,0,0,0c-.05,0-1.73-.07-1.65,0,.09.03,0,1.67,0,1.72,0,0,0,0,0,0h-1.73s0,0,0,0v1.72s-.01,0-.02,0h-1.72s0,0,0,0c0-.05-.27-1.65-.02-1.72,0,0,0,0,0,0-.13-.08-1.71,0-1.73,0h0s-.1-1.62,0-1.72c0,0,0,0,0,0-.13,0-1.36.08-1.62,0,0,0,0,0,0,0,.01.08-.02,1.67-.02,1.72,0,0,0,0,0,0h-1.71s0,0,0,0v1.72s0,0,0,0c-.05,0-1.62.06-1.73,0,0,0,0,0,0,0,.18-.11,0-1.68-.02-1.72h0c-.12-.04-1.65,0-1.73,0,0,0,0,0,0,0,.04-.07.12-1.79,0-1.72-.09.05-1.39.03-1.6,0,0,0,0,0,0,0,.21.13-.03,1.67-.04,1.71,0,0,0,0,0,0h-1.72s0,0,0,0v1.72s0,0,0,0h-1.74s-.05-1.66,0-1.72c0,0,0,0,0,0-.24-.06-1.72,0-1.72,0h-.01v-1.72s0,0,0,0c-.05,0-1.47.07-1.65,0h0c-.12.05.13,1.63,0,1.72,0,0,0,0,0,0-.3-.04-1.69.1-1.72,0-.27-.11.08,1.7-.01,1.72,0,0-1.45.04-1.73,0-.19.05-.16-1.6,0-1.72,0,0,0,0,0,0-.1-.03-1.41.02-1.71,0,0,0,0,0,0,0,.13-.08-.09-1.67-.02-1.72.24-.08-1.55,0-1.65,0h0c-.11.07.28,1.72-.01,1.72.04.09-1.45-.06-1.72,0-.22-.06-.09,1.67,0,1.72.18.08-1.68.08-1.73,0h0s.06-1.73-.01-1.72c.18-.09-1.55-.04-1.71,0,0,0,0,0,0,0,.11-.17.11-1.67-.02-1.71h0s-1.52-.07-1.65,0c0,0,0,0,0,0,.28.01-.18,1.62-.02,1.72,0,0,0,0,0,0-.33,0-1.93-.09-1.72,0,.12.04.08,1.69,0,1.72h0c-.08.01-1.73.09-1.73,0-.14.03-.06-1.6,0-1.72,0,0,0,0,0,0-.31-.09-1.48.03-1.72,0,0,0,0,0,0,0,.04-.05,0-1.67,0-1.72,0,0,0,0,0,0h-1.04s0,0,0,0c0-.05-.12-1.84,0-1.95,0,0,0,0,0,0,.85-.07,1.27.05,2.26.01.85.06,5.93.07,6.86,0,.77.06,2.11-.08,2.89,0,.68-.04,4.9.02,5.42,0,.42.05,7.83.09,8.31,0,.44-.07,3.4-.05,3.94,0,.52.08,16.04,0,16.62,0,.73,0,3.2-.03,3.97,0,.48,0,1.2.03,1.45,0,.71-.1,5.28.13,5.81.04,1.06-.14,1.4-.1,2.5-.04.7.08,1.61.1,2.23-.01.21,0-.24,1.9,0,1.95,0,0,0,0,0,0-.12.04-.98.01-1.14,0"/>
</svg>