<?xml version="1.0" encoding="UTF-8"?>
<svg id="Layer_1" data-name="Layer 1" xmlns="http://www.w3.org/2000/svg" viewBox="0 0 90 45">
  <defs>
    <style>
      .cls-1 {
        fill: #fff;
      }
    </style>
  </defs>
  <rect class="cls-1" x="23.51" y="22.94" width=".74" height=".79" transform="translate(-9.5 23.72) rotate(-45)"/>
  <rect class="cls-1" x="22.16" y="22.95" width=".74" height=".79" transform="translate(-9.91 22.77) rotate(-45)"/>
  <rect class="cls-1" x="29.89" y="22.96" width=".74" height=".79" transform="translate(-7.65 28.24) rotate(-45)"/>
  <rect class="cls-1" x="28.44" y="22.97" width=".74" height=".79" transform="translate(-8.08 27.21) rotate(-45)"/>
  <path class="cls-1" d="M34.32,23.82v-.24c0-.12.07-.21.17-.26.05-.02.07-.02.12-.02h.21v-.36h-.21c-.19,0-.33.05-.45.17-.12.12-.19.26-.19.45v.6h.95v-.33h-.59Z"/>
  <g>
    <g>
      <path class="cls-1" d="M1.52,41.71h-.93l-.19.55h-.4l.88-2.45h.31l.88,2.45h-.38l-.17-.55ZM1.41,41.37l-.36-1.07h0l-.36,1.07h.71Z"/>
      <path class="cls-1" d="M3.07,41.95c.1,0,.19-.02.24-.05s.1-.1.1-.17-.02-.1-.05-.14c-.05-.02-.1-.05-.17-.05l-.31-.02c-.14-.02-.26-.07-.36-.14s-.14-.19-.14-.36c0-.19.07-.31.19-.4.12-.1.29-.14.45-.14.07,0,.14,0,.21.02.07,0,.12.02.19.05.12.05.21.1.29.17l-.21.26c-.07-.05-.14-.1-.21-.12s-.17-.05-.26-.05c-.12,0-.19.02-.24.05-.05.02-.07.1-.07.14s.02.07.05.1.1.05.17.07l.29.02c.19.02.31.07.4.17.07.1.12.21.12.36,0,.17-.07.31-.21.38-.14.1-.31.14-.52.14-.29,0-.55-.1-.76-.31l.24-.24c.19.19.36.26.6.26Z"/>
      <path class="cls-1" d="M4.53,41.52c0,.14.05.24.12.31s.17.12.29.12c.14,0,.26-.05.38-.17l.26.21c-.17.19-.38.29-.62.29-.1,0-.19-.02-.26-.05-.05-.02-.1-.02-.12-.05-.05-.02-.1-.05-.12-.07-.07-.07-.14-.17-.19-.26-.05-.12-.07-.26-.07-.43s.02-.31.07-.43c.05-.12.1-.21.17-.29.07-.07.14-.12.24-.14.1-.02.17-.05.26-.05.19,0,.36.07.5.19.14.14.21.31.21.55v.29l-1.12-.02h0ZM5.26,41.23c0-.14-.05-.24-.12-.31-.07-.07-.14-.1-.26-.1s-.19.02-.26.1c-.07.07-.1.17-.12.31h.76Z"/>
      <path class="cls-1" d="M6.38,41.52c0,.14.05.24.12.31s.17.12.29.12c.14,0,.26-.05.38-.17l.26.21c-.17.19-.38.29-.62.29-.1,0-.19-.02-.26-.05-.05-.02-.1-.02-.12-.05-.05-.02-.1-.05-.12-.07-.07-.07-.14-.17-.19-.26-.05-.12-.07-.26-.07-.43s.02-.31.07-.43c.05-.12.1-.21.17-.29.07-.07.14-.12.24-.14.1-.02.17-.05.26-.05.19,0,.36.07.5.19.14.14.21.31.21.55v.29l-1.12-.02h0ZM7.12,41.23c0-.14-.05-.24-.12-.31-.07-.07-.14-.1-.26-.1-.1,0-.19.02-.26.1-.07.07-.1.17-.12.31h.76Z"/>
      <path class="cls-1" d="M8,40.52h.36v.19h0c.12-.14.26-.21.45-.21.14,0,.26.05.36.14l-.26.31c-.07-.05-.14-.1-.24-.1s-.17.02-.24.1c-.07.05-.12.14-.12.29v1.05h-.36l.05-1.76h0Z"/>
      <path class="cls-1" d="M10.48,39.8h.86c.33,0,.57.14.74.4.05.1.1.19.12.29,0,.1.02.29.02.52,0,.26,0,.45-.02.55,0,.05-.02.1-.05.14s-.05.07-.07.12c-.07.12-.17.21-.31.29-.12.07-.29.12-.48.12h-.83s.02-2.43.02-2.43ZM10.84,41.92h.45c.21,0,.36-.07.45-.21.05-.05.07-.12.07-.19s.02-.24.02-.45,0-.36-.02-.45c-.02-.1-.05-.17-.1-.21-.1-.14-.24-.21-.43-.21h-.45v1.74h0Z"/>
      <path class="cls-1" d="M13.03,41.52c0,.14.05.24.12.31.07.07.17.12.29.12.14,0,.26-.05.38-.17l.26.21c-.17.19-.38.29-.62.29-.1,0-.19-.02-.26-.05-.05-.02-.1-.02-.12-.05-.05-.02-.1-.05-.12-.07-.07-.07-.14-.17-.19-.26-.05-.12-.07-.26-.07-.43s.02-.31.07-.43c.05-.12.1-.21.17-.29s.14-.12.24-.14c.1-.02.17-.05.26-.05.19,0,.36.07.5.19.14.14.21.31.21.55v.29l-1.12-.02h0ZM13.77,41.23c0-.14-.05-.24-.12-.31s-.14-.1-.26-.1c-.1,0-.19.02-.26.1-.07.07-.1.17-.12.31h.76Z"/>
      <path class="cls-1" d="M14.34,40.52h.38l.4,1.21h0l.4-1.21h.38l-.64,1.74h-.29l-.64-1.74Z"/>
      <path class="cls-1" d="M16.5,41.52c0,.14.05.24.12.31s.17.12.29.12c.14,0,.26-.05.38-.17l.26.21c-.17.19-.38.29-.62.29-.1,0-.19-.02-.26-.05-.05-.02-.1-.02-.12-.05-.05-.02-.1-.05-.12-.07-.07-.07-.14-.17-.19-.26-.05-.12-.07-.26-.07-.43s.02-.31.07-.43c.05-.12.1-.21.17-.29.07-.07.14-.12.24-.14.1-.02.17-.05.26-.05.19,0,.36.07.5.19.14.14.21.31.21.55v.29l-1.12-.02h0ZM17.24,41.23c0-.14-.05-.24-.12-.31s-.14-.1-.26-.1-.19.02-.26.1c-.07.07-.1.17-.12.31h.76Z"/>
      <path class="cls-1" d="M18.1,39.8h.36v2c0,.07.05.12.14.12h.12v.33h-.17c-.12,0-.24-.02-.31-.1-.1-.07-.14-.17-.14-.33v-2.02h0Z"/>
      <path class="cls-1" d="M19.05,41.4c0-.19.02-.33.05-.43s.07-.17.14-.24c.05-.05.12-.12.19-.17.1-.05.19-.07.33-.07s.26.02.33.07c.1.05.14.1.19.17.07.07.12.14.14.24.02.1.05.24.05.43s-.02.33-.05.43c-.02.1-.07.19-.14.26l-.07.07s-.07.05-.12.07c-.1.05-.19.07-.33.07s-.24-.02-.33-.07c-.1-.05-.14-.1-.19-.14-.07-.07-.12-.17-.14-.26-.02-.12-.05-.26-.05-.43ZM20.15,41.4c0-.12,0-.21-.02-.26,0-.05-.02-.1-.07-.14-.02-.05-.07-.07-.12-.1s-.1-.02-.17-.02c-.05,0-.12,0-.17.02-.05.02-.1.05-.12.1l-.07.14s-.02.14-.02.26,0,.21.02.26c.02.05.02.12.07.14.02.02.07.07.12.1s.1.05.17.05.12,0,.17-.05c.05-.02.1-.05.12-.1l.07-.14c.02-.07.02-.14.02-.26Z"/>
      <path class="cls-1" d="M21.01,40.52h.36v.19c.12-.12.26-.19.45-.21.21,0,.38.07.48.24.05.05.07.12.1.21s.02.24.02.45,0,.36-.02.45c-.02.1-.05.17-.1.21-.05.07-.12.12-.19.17-.07.05-.17.07-.29.07-.1,0-.17-.02-.24-.05-.07-.02-.14-.1-.21-.14v.91h-.36v-2.5ZM21.7,41.92c.07,0,.14-.02.19-.05s.07-.07.1-.12.05-.12.05-.17v-.41c0-.07-.02-.12-.05-.17s-.05-.1-.1-.12-.12-.05-.19-.05-.14.02-.19.05c-.05.02-.1.07-.1.12-.02.05-.02.12-.05.17v.38c0,.07.02.12.05.17s.05.1.1.12c.05.07.12.07.19.07Z"/>
      <path class="cls-1" d="M22.96,40.52h.36v.19h0c.12-.14.26-.21.45-.21.12,0,.21.02.29.07s.14.1.19.17c.14-.17.33-.24.55-.24.14,0,.29.05.4.14s.19.26.19.45v1.17h-.36v-1.05c0-.12-.02-.21-.1-.29-.07-.07-.14-.1-.24-.1s-.19.02-.24.1c-.07.07-.1.17-.1.29v1.05h-.36v-1.05c0-.12-.02-.21-.1-.29-.07-.07-.14-.1-.24-.1s-.19.02-.24.1c-.07.07-.1.17-.1.29v1.05h-.36s-.03-1.74-.03-1.74Z"/>
      <path class="cls-1" d="M26.29,41.52c0,.14.05.24.12.31s.17.12.29.12c.14,0,.26-.05.38-.17l.26.21c-.17.19-.38.29-.62.29-.1,0-.19-.02-.26-.05-.05-.02-.1-.02-.12-.05-.05-.02-.1-.05-.12-.07-.07-.07-.14-.17-.19-.26-.05-.12-.07-.26-.07-.43s.02-.31.07-.43c.05-.12.1-.21.17-.29.07-.07.14-.12.24-.14.1-.02.17-.05.26-.05.19,0,.36.07.5.19.14.14.21.31.21.55v.29l-1.12-.02h0ZM27.01,41.23c0-.14-.05-.24-.12-.31s-.14-.1-.26-.1c-.1,0-.19.02-.26.1-.07.07-.1.17-.12.31h.76Z"/>
      <path class="cls-1" d="M27.89,40.52h.36v.19h0c.12-.14.26-.21.45-.21.14,0,.29.05.4.14s.19.26.19.45v1.17h-.36v-1.05c0-.12-.02-.21-.1-.29-.07-.07-.14-.1-.24-.1s-.19.02-.24.1c-.07.07-.1.17-.1.29v1.05h-.36l-.03-1.74h0Z"/>
      <path class="cls-1" d="M29.89,39.99h.36v.52h.26v.26h-.26v1.02c0,.1.05.14.12.12h.14v.33h-.19c-.12,0-.21-.05-.31-.12-.07-.07-.12-.17-.12-.31v-1.05h-.17v-.26h.17v-.52h0Z"/>
      <path class="cls-1" d="M33.22,41.71h-.93l-.19.55h-.4l.88-2.45h.31l.88,2.45h-.38l-.17-.55ZM33.13,41.37l-.36-1.07h0l-.36,1.07h.71Z"/>
      <path class="cls-1" d="M34.13,40.52h.36v1.05c0,.12.02.21.1.29.07.07.14.1.24.1s.19-.02.24-.1c.07-.07.1-.17.1-.29v-1.05h.36v1.74h-.36v-.19h0c-.12.14-.26.21-.45.21-.14,0-.29-.05-.38-.17-.12-.1-.19-.26-.19-.45v-1.14h0Z"/>
      <path class="cls-1" d="M36.13,39.99h.36v.52h.26v.26h-.26v1.02c0,.1.05.14.12.12h.14v.33h-.19c-.12,0-.21-.05-.31-.12-.07-.07-.12-.17-.12-.31v-1.05h-.17v-.26h.17v-.52h0Z"/>
      <path class="cls-1" d="M37.2,39.8h.36v.88h0c.12-.14.26-.21.45-.21.14,0,.29.05.4.14s.19.26.19.45v1.17h-.36v-1.05c0-.12-.02-.21-.1-.29-.07-.07-.14-.1-.24-.1s-.19.02-.24.1c-.07.07-.1.17-.1.29v1.05h-.36v-2.43h-.03Z"/>
      <path class="cls-1" d="M39.11,41.4c0-.19.02-.33.05-.43.02-.1.07-.17.14-.24.05-.05.12-.12.19-.17.1-.05.19-.07.33-.07s.24.02.33.07c.1.05.14.1.19.17.07.07.12.14.14.24.02.1.05.24.05.43s-.02.33-.05.43c-.02.1-.07.19-.14.26l-.07.07s-.07.05-.12.07c-.1.05-.19.07-.33.07s-.24-.02-.33-.07c-.1-.05-.17-.1-.19-.14-.07-.07-.12-.17-.14-.26-.02-.12-.05-.26-.05-.43ZM40.2,41.4c0-.12,0-.21-.02-.26,0-.05-.02-.1-.07-.14-.02-.05-.07-.07-.12-.1s-.1-.02-.17-.02c-.05,0-.12,0-.17.02-.05.02-.1.05-.12.1l-.07.14s-.02.14-.02.26,0,.21.02.26.02.12.07.14c.02.02.07.07.12.1s.1.05.17.05.12,0,.17-.05c.05-.02.1-.05.12-.1l.07-.14c.02-.07.02-.14.02-.26Z"/>
      <path class="cls-1" d="M41.06,40.52h.36v.19h0c.12-.14.26-.21.45-.21.14,0,.26.05.36.14l-.26.31c-.07-.05-.14-.1-.24-.1s-.17.02-.24.1c-.07.05-.12.14-.12.29v1.05h-.36l.05-1.76h0Z"/>
      <path class="cls-1" d="M42.56,39.8h.36v.36h-.36v-.36ZM42.56,40.52h.36v1.74h-.36v-1.74Z"/>
      <path class="cls-1" d="M43.54,39.99h.36v.52h.26v.26h-.26v1.02c0,.1.05.14.12.12h.14v.33h-.19c-.12,0-.21-.05-.31-.12-.07-.07-.12-.17-.12-.31v-1.05h-.17v-.26h.17v-.52h0Z"/>
      <path class="cls-1" d="M44.37,40.52h.38l.4,1.21h0l.4-1.21h.38l-.76,2.12c-.05.14-.12.21-.19.26-.1.05-.19.07-.29.07h-.12v-.33h.1s.1,0,.12-.05c.05-.02.07-.07.07-.12l.1-.29-.6-1.67Z"/>
    </g>
    <rect class="cls-1" x="4.78" y="37.75" width=".74" height=".79" transform="translate(-25.46 14.82) rotate(-45)"/>
    <rect class="cls-1" x="3.43" y="37.76" width=".76" height=".79" transform="translate(-25.86 13.87) rotate(-45)"/>
  </g>
  <polygon class="cls-1" points="90 4.94 90 2.91 55.66 2.91 55.66 3.13 55.66 4.94 55.66 11.53 55.66 13.37 55.66 13.56 90 13.56 90 11.53 57.68 11.53 57.68 4.94 90 4.94"/>
  <path class="cls-1" d="M55.66,30.01v2.02h8.17l5.36,5.36,1.26-1.26,2.33-2.33,3.6,3.6,1.26-1.26,4.1-4.1h8.22v-2.02h-34.3ZM66.35,32.01h5.64l-.02.02-2.79,2.81-2.83-2.83ZM76.4,34.85l-2.83-2.81h5.67l-2.83,2.81Z"/>
  <rect class="cls-1" x="55.66" y="40.09" width="34.34" height="2.02"/>
  <path class="cls-1" d="M87.62,24.18l-7.69-7.72-3.6,3.6-3.62-3.6-3.6,3.6-3.6-3.6-7.74,7.72h-2.12v2.02h34.34v-2.02h-2.38ZM60.35,24.18l5.17-5.17,2.33,2.33-2.86,2.83h-4.64ZM69.11,22.61l1.57,1.57h-3.14l1.57-1.57ZM70.38,21.34l2.32-2.32,2.32,2.32-2.32,2.32-2.32-2.32ZM74.76,24.18l1.57-1.57,1.57,1.57h-3.14ZM80.45,24.18l-2.86-2.86,2.34-2.31,5.17,5.17h-4.64Z"/>
  <g>
    <rect class="cls-1" x="5.7" y="29.48" width=".74" height=".79" transform="translate(-19.34 13.03) rotate(-44.98)"/>
    <rect class="cls-1" x="7.05" y="29.47" width=".74" height=".79" transform="translate(-18.94 13.99) rotate(-45)"/>
    <rect class="cls-1" x="38.51" y="29.46" width=".74" height=".79" transform="translate(-9.72 36.22) rotate(-44.98)"/>
    <rect class="cls-1" x="37.15" y="29.46" width=".76" height=".79" transform="translate(-10.12 35.28) rotate(-45)"/>
    <path class="cls-1" d="M18.96,35.87h-4.38v-1.91h4.38v-.88h-5.26v2.79h-1.31v-2.79h-.88v2.79h-1.43v-2.79h-.88v2.79h-1.43v-2.79h-.88v2.79h-1.91v-2.79h-.91v2.76h-1.5v-2.74h-.88v3.69c0,.43-.33.76-.76.76h-.24v.88h.17c.95,0,1.71-.76,1.71-1.71h16.41v-.86h-.02Z"/>
    <rect class="cls-1" x="22.22" y="31.26" width=".74" height=".79" transform="translate(-15.77 25.24) rotate(-45)"/>
    <rect class="cls-1" x="23.67" y="31.26" width=".74" height=".79" transform="translate(-15.34 26.28) rotate(-45.02)"/>
    <rect class="cls-1" x="28.73" y="31.24" width=".74" height=".79" transform="translate(-13.85 29.85) rotate(-45.02)"/>
    <rect class="cls-1" x="27.29" y="31.23" width=".74" height=".79" transform="translate(-14.26 28.82) rotate(-45)"/>
    <rect class="cls-1" x="39.51" y="31.25" width=".74" height=".79" transform="translate(-10.7 37.46) rotate(-45)"/>
    <path class="cls-1" d="M36.06,33.16c.19,0,.36.02.55.1.36.19.6.43.71.74.1.19.12.36.12.52v1.36h1.98v-2.72h.91v2.72h1.93v-1.36c0-.19.02-.36.1-.52.07-.17.19-.33.31-.48.12-.12.26-.21.4-.26.19-.1.38-.14.57-.14h2.17v3.64h-24.58v-2.24c0-.19.02-.36.1-.52.07-.17.19-.33.31-.45.12-.12.26-.21.43-.26.19-.1.36-.12.52-.12h2.17v2.76h2v-1.36c0-.19.02-.38.1-.52.17-.33.43-.57.76-.74.14-.05.33-.07.55-.07h1.98v2.72h1.81v-4.62h.88v1.88l3.24-.05h0ZM43.66,34.04c-.17,0-.31.07-.43.19l-.02.02v.02c-.02.07-.05.14-.05.26v1.36h1.76v-1.83l-1.26-.02h0ZM32.94,35.87h3.62v-1.36c0-.14-.05-.26-.14-.33s-.19-.14-.33-.14h-3.14v1.83h0ZM29.2,34.04h-1.07c-.1,0-.17.02-.24.05-.17.07-.26.24-.26.43v1.36h1.57v-1.83ZM22.58,34.04c-.07,0-.17.02-.21.05-.17.07-.26.21-.26.43v1.36h1.76v-1.83h-1.29Z"/>
    <path class="cls-1" d="M45.85,25.78c0-1.19-.95-2.14-2.14-2.14h-1.02v.93h.93c.74,0,1.33.6,1.33,1.33v1.71h-1.19v-2.38h-2.17c-.81,0-1.48.67-1.48,1.48v.91h-1.38v-2.72h-.91v2.72h-2.93v-2.72h-.93v2.72h-3v-2.76h-2.17c-.17,0-.36.05-.52.12-.17.05-.31.14-.43.26-.12.14-.24.31-.31.45-.05.17-.1.33-.1.52v2.24h18.41v-.02h0v-2.64h0ZM30.08,27.59h-1.76v-1.38c0-.19.1-.36.26-.43.07-.02.14-.05.21-.05h1.29v1.86ZM40.99,27.59v-.81c0-.36.29-.64.64-.64h1.19v1.45h-1.83Z"/>
    <path class="cls-1" d="M2.57,28.47h5.22v-3.6h-.91v2.72H2.57v-2.74h-.88v3.69c0,.43-.33.76-.76.76h-.24v.88h.17c.93,0,1.71-.76,1.71-1.71h0Z"/>
    <path class="cls-1" d="M23.36,24.85v2.72h-2.62v-1.36c0-.17-.05-.36-.12-.52-.12-.31-.36-.55-.71-.74-.19-.05-.38-.1-.55-.1h-3.36v-1.88h-.88v4.62h-2.36v-2.76h-2.21c-.17,0-.33.05-.52.14-.14.05-.29.14-.4.26-.12.14-.24.31-.31.48-.05.14-.1.33-.12.52v2.24h2.69v.07c0,.43-.33.76-.76.76h-.24v.88h.17c.95,0,1.71-.76,1.71-1.71h11.55v-3.6h-.95v-.02h0ZM11.84,27.59h-1.76v-1.38c0-.24.12-.36.21-.4h.05c.07-.02.17-.05.21-.05h1.31v1.83h-.03ZM19.82,27.59h-3.72v-1.83h3.24c.14,0,.26.05.33.14.1.1.14.21.14.33v1.36Z"/>
  </g>
  <g>
    <path class="cls-1" d="M25.36,4.72s-.05.05-.07.1c-.02-.05-.07-.07-.1-.12-.1.02-.19.07-.29-.02-.02.05-.02.1.02.12.02.05.07.07.12.1.21.14.43.29.64.43.36.26.52.64.55,1.07.02.36-.05.71-.17,1.05v.02c-.07-.05-.07-.1-.07-.17,0-.02.02-.05.02-.07.02-.05.02-.1-.02-.12-.02,0-.02-.05-.02-.07v-.17h-.07c-.02-.17-.05-.33-.07-.5-.02.02-.05.02-.1.05,0-.07-.02-.14-.02-.19s-.02-.07-.07-.05c-.02,0-.05,0-.05-.05-.02-.07-.02-.14-.05-.24-.02.05-.05.07-.07.12-.02-.1-.05-.17-.1-.26-.02.05-.05.07-.1.12-.02-.07-.05-.14-.1-.21,0-.02-.02-.05-.05-.05-.07,0-.1-.05-.1-.1t-.07-.05s-.1-.02-.12-.07l-.07-.07h-.02s-.02.07,0,.1c.02.05.05.12.1.17.1.12.17.24.26.33.38.48.43,1,.19,1.55-.07.19-.19.36-.31.52l-.07.07h-.02v-.07s.02-.1-.07-.1c0-.05.02-.07.02-.1,0-.05,0-.07-.02-.12v-.1c.02-.07.05-.14.07-.21h-.1c.02-.12.05-.21.07-.36-.05.02-.07.02-.1.02,0-.07,0-.14.02-.24-.02.02-.05.05-.1.07v-.33h-.02s-.05.07-.07.12h-.02c0-.07-.02-.14-.02-.21-.02.02-.05.02-.07.05,0-.07-.02-.12-.02-.19-.02,0-.05.02-.07.02-.05-.1-.1-.19-.21-.19.02.12.02.24.05.36.07.55.07,1.1-.1,1.62-.1.29-.21.52-.4.76-.02.02-.05.05-.07.1,0,0-.02,0-.02-.02v-.05c0-.21.02-.43,0-.64-.02-.17,0-.33.07-.5v-.02c-.07,0-.1.07-.14.1,0-.1,0-.19-.02-.29v-.14s-.02-.1-.05-.14c-.02-.07-.05-.14-.07-.24-.02-.05-.02-.12-.02-.19-.07.02-.12.1-.12.14-.07.21-.1.45-.1.69.02.64.05,1.29.07,1.91.02.45.02.91.02,1.36,0,.31,0,.6.02.91,0,.14.05.29.12.43.07.17.1.33.02.5-.1.21-.05.4.05.57.07.14.17.26.26.4l.07.14c.05.1,0,.19-.12.21s-.26.05-.38.05h-1.1c-.12,0-.24-.02-.33-.05-.14-.02-.19-.12-.12-.26.05-.1.12-.19.17-.29.1-.14.19-.31.21-.48.02-.14.02-.29-.05-.43-.05-.1-.05-.21,0-.31.12-.19.14-.43.14-.64.02-.64.02-1.26.05-1.91.02-.5.05-1,.05-1.5v-1.14c0-.12-.07-.24-.17-.33,0,.02-.02.05-.02.07h-.07v.1c0,.07-.02.17-.02.24,0,.05-.02.07-.1.07,0,.05.02.1.02.12,0,.05.02.1-.02.14-.02.02-.02.1-.02.14-.02-.05-.07-.1-.1-.14h-.02v.07c.02.1.05.19.07.29.02.05.02.1-.02.12-.02.02-.02.05,0,.07.02.24.05.45.05.69v.07c-.07,0-.1-.05-.12-.07-.12-.14-.21-.31-.29-.5-.21-.52-.26-1.05-.19-1.6.02-.17.05-.36.07-.52v-.07s-.02-.05-.02-.05c-.02,0-.05.02-.05.05-.02.02-.02.05-.02.07s0,.05-.02.05-.07.02-.1.02h-.1v.24h-.02s-.02-.07-.05-.12h-.02c-.05.1,0,.21,0,.33-.1-.02-.05-.14-.14-.17,0,.1,0,.19-.02.29h-.02l-.07-.14c-.07.12,0,.24.02.36-.02,0-.07-.02-.1-.02-.02.12.05.21.05.33q-.1.05-.05.14c.05.1.07.19,0,.29v.07c-.1.02-.05.1-.05.14v.05l-.02-.02c-.12-.24-.24-.45-.36-.69-.19-.45-.12-.88.14-1.29.07-.12.17-.21.24-.33.05-.07.1-.17.07-.29t-.02-.05s-.05.07-.07.1c-.02,0-.05-.02-.07-.05,0,.05-.02.07-.02.1,0,.05-.02.05-.07.05-.02,0-.05.02-.05.05-.02.07-.05.12-.07.19-.02-.05-.02-.07-.05-.1h-.02c-.02.07-.07.17-.1.26l-.07-.07s-.05.1-.05.14c0,.02-.02.05-.07.02-.02-.02-.05,0-.05.05-.02.1-.02.17-.05.26l-.07-.07h-.02s-.02.1-.02.12c0,.1-.02.19-.07.26-.02.02-.02.07-.07.05,0,0-.02.02-.02.05,0,.14-.02.29-.02.45,0,.05,0,.1-.05.14,0-.02-.02-.05-.02-.05-.1-.29-.14-.6-.17-.91,0-.4.14-.76.45-1.05.33-.31.69-.52,1.12-.64.07-.02.12-.05.19-.07v-.02s-.05-.02-.1-.02h-.19s-.07.02-.1.02c-.07.02-.12.05-.19,0-.02-.02-.17,0-.21.05-.02.02-.02.05-.05.07-.02-.02-.02-.07-.02-.1-.07,0-.1.05-.12.1-.02.02-.05.05-.1.05-.02,0-.07.02-.12.05,0,0-.02-.02-.05-.02-.02.07-.07.12-.1.19q-.1-.02-.14.07c-.02.07-.07.14-.14.19-.05.05-.07.1-.14.12,0,0-.02.02-.02.05-.02.05-.02.12-.05.17,0,.05-.02.07-.07.1-.02,0-.02.05-.02.07,0,.05,0,.07-.07.1,0-.05-.02-.07-.02-.12.05-.69.38-1.19,1.02-1.5.26-.12.55-.17.83-.21.14-.02.26-.05.4-.07.05,0,.1-.05.12-.07,0-.02-.02-.02-.02-.02-.19-.02-.38-.07-.57-.02h-.05c-.07-.05-.14,0-.19.02h-.02c-.02-.07-.07-.05-.12-.02-.12.05-.21.1-.33.12-.17.02-.29.17-.43.24-.02,0-.02.02-.07.02.02-.02.02-.05.05-.07.24-.33.55-.62.93-.81.21-.1.45-.14.71-.12.19.02.38.05.57.05h.12v-.02l-.05-.05c-.1-.05-.19-.1-.29-.14-.1-.05-.17-.07-.26-.1-.05-.02-.12-.05-.17-.07h-.02c-.12.02-.24.05-.36.1-.05.02-.1.02-.19.05.05-.05.07-.1.1-.12.14-.12.31-.17.48-.21.33-.07.62,0,.91.17.1.07.21.12.33.17h.05v-.17c0-.12.02-.21.02-.33,0-.05.02-.07.07-.07s.05-.02.05-.07c0-.12.02-.21.02-.33t.02-.05s.05.1.05.14c0,.07,0,.14.02.21,0,.02.02.07.05.1,0,.02.02.05.02.07v.12s0,.07.02.1c.05.07.07.14.05.21v.07s.1-.02.14-.05c.12-.07.24-.14.38-.21.31-.17.64-.17.95-.02.07.02.12.07.19.1.07.02.12.07.14.17h-.1c-.12-.05-.24-.07-.38-.05-.05,0-.1.02-.14.05-.02,0-.05.02-.07.02-.14-.05-.26.05-.38.12.05.02.1.05.14.05.14,0,.29,0,.45-.02.36-.02.64.07.91.31.14.14.29.26.43.4.07.07.12.14.17.21l-.02.02s-.05-.02-.07-.05c-.1-.05-.21-.1-.31-.14-.1-.05-.17-.07-.26-.12-.02,0-.02-.02-.05-.02-.1-.05-.14-.05-.21.05-.05-.02-.1-.05-.14-.1-.02.07-.07.05-.12.02s-.07-.02-.12,0c-.02.02-.05.02-.07.02-.07,0-.14,0-.19.05,0,0-.02.02-.05,0-.07-.02-.1.02-.14.1.05,0,.07.02.12.02.26.02.52.05.79.1.6.1,1.07.4,1.36.98.12.24.17.6.12.83-.02-.05-.05-.07-.07-.12-.1-.14-.17-.31-.26-.45-.02-.05-.05-.1-.12-.1-.02,0-.02-.02-.02-.05-.02-.14-.14-.21-.24-.29l-.02-.02c-.07,0-.1-.05-.14-.1,0-.02-.02-.02-.05-.05-.02.02-.02.05-.05.07.07.07.02.02-.03-.03Z"/>
    <path class="cls-1" d="M24.82,17.63c.05-.12.07-.24.12-.33.05-.14.1-.29.17-.4.12-.24.33-.19.48-.07.1.1.14.21.14.36,0,.1-.05.14-.14.17-.21.05-.31.19-.36.38-.05.19-.02.36.12.5s.29.29.45.38c.1.05.12.05.19-.05.02-.02.02-.05.05-.1.19-.36.6-.4.83-.05.19.29.19.71-.02,1-.17.21-.38.24-.62.24-.21-.02-.43-.12-.6-.24-.26-.17-.52-.33-.79-.52q-.1-.05-.17.02c-.14.14-.26.29-.43.4-.21.17-.52.17-.71-.02-.17-.19-.19-.5.07-.69.05-.05.1-.02.14,0,.07.05.14.1.24.14.12.07.24.05.31-.07.05-.07.07-.14.02-.21-.07-.12-.14-.21-.24-.33-.38-.43-.79-.86-1.17-1.29q-.12-.12-.24,0c-.33.36-.64.69-.98,1.05-.12.12-.24.26-.33.4-.05.05-.07.1-.1.14-.05.07-.02.17.02.24.07.07.14.1.24.07.07-.02.14-.07.21-.12.17-.1.26-.07.33.1.07.17.07.31,0,.48-.1.21-.29.29-.55.21-.19-.05-.36-.17-.48-.33-.05-.07-.12-.14-.17-.21-.02-.05-.07-.05-.1-.02-.19.12-.38.24-.57.38-.17.12-.33.24-.55.31-.14.05-.31.07-.48.07-.29-.02-.48-.19-.57-.48-.12-.33-.05-.62.21-.86.19-.19.48-.17.64.05.05.07.1.14.17.24.05.07.07.07.14.05.21-.12.4-.29.57-.5.05-.07.07-.17.05-.24-.02-.1-.07-.21-.1-.31-.02-.12-.1-.19-.21-.21-.21-.05-.26-.19-.17-.4.07-.17.24-.24.4-.19.1.02.14.1.19.17.07.19.12.36.19.55.02.05.02.07.05.12.02.02.05.05.07,0l.07-.07c.4-.45.81-.91,1.17-1.41q.07-.1,0-.19c-.17-.21-.36-.38-.55-.57-.33-.33-.69-.62-1.1-.88-.21-.14-.45-.24-.69-.36-.43-.21-.88-.4-1.36-.57-.48-.17-.98-.31-1.5-.38-.36-.05-.69-.1-1.05-.12-.21-.02-.4-.05-.62-.07-.02,0-.05,0-.07-.02.02,0,.05-.02.07-.02.14-.02.29-.02.43-.02.33-.02.69-.05,1.02-.07.74-.02,1.45.02,2.17.19.5.12,1,.29,1.48.52.38.19.76.38,1.1.62.36.26.69.52,1,.83.1.1.19.17.26.26.05.05.07.05.12,0,.14-.12.26-.24.4-.36.71-.69,1.55-1.21,2.48-1.57.5-.19,1-.33,1.52-.4.48-.07.98-.1,1.45-.07.36,0,.74.02,1.1.05.26.02.52.05.79.07.02,0,.05,0,.05.02v.02c-.07,0-.14.02-.19.02-.48.05-.95.1-1.43.14-.62.07-1.24.21-1.83.4-.5.17-.98.38-1.45.62-.64.33-1.21.76-1.74,1.26l-.45.45c-.07.07-.07.1,0,.17.38.5.79.98,1.21,1.43.02.02.07.07.12.12ZM25.1,18.32c-.1.1-.1.19-.02.29.19.19.38.38.64.5.19.1.38.14.6.14.14,0,.29-.05.36-.21s.02-.36-.12-.48c-.07-.07-.19-.05-.24.02-.02.02-.05.07-.05.12-.02.07-.05.14-.05.24-.02.12-.05.14-.17.12-.02,0-.05-.02-.1-.02-.24-.07-.4-.24-.57-.4-.09-.12-.19-.21-.29-.31ZM20.55,18.35s-.1.07-.14.1c-.17.14-.33.29-.5.45-.1.1-.21.14-.36.14-.1,0-.12-.02-.14-.12,0-.1-.02-.17-.05-.26-.02-.1-.07-.12-.17-.14-.1,0-.19.02-.21.12-.07.12-.07.26-.02.4.02.1.1.17.19.19.05.02.12.02.19.02.29-.02.55-.1.76-.26.14-.12.29-.24.43-.36.1-.1.12-.19.03-.29ZM24.03,19.18s.14-.05.21-.1c.17-.12.29-.26.38-.43.17-.38.33-.76.5-1.14.05-.12.12-.24.26-.29.07-.02.12-.1.1-.17-.02-.07-.05-.12-.12-.14s-.12.02-.14.07c-.05.07-.07.14-.12.21-.12.29-.21.57-.31.86-.1.26-.21.5-.4.71-.1.12-.19.14-.33.07-.07-.02-.12-.05-.19-.07-.12-.02-.19.05-.17.17.03.17.14.24.33.24ZM21.91,18.94c0-.1-.07-.14-.17-.12-.07.02-.17.05-.24.07-.1.02-.19,0-.26-.07-.05-.07-.12-.14-.14-.21-.19-.4-.36-.83-.52-1.24-.05-.12-.12-.26-.19-.38-.02-.05-.07-.07-.12-.05-.05,0-.1.05-.12.1-.02.1,0,.17.1.19.12.05.19.14.26.26.12.31.26.6.38.91.1.21.19.4.36.57.12.12.24.19.4.19.14.02.26-.07.26-.21ZM23.67,16.92s-.02,0,0,0c0,.05.02.07.05.12.24.33.48.67.71,1,.02.02.05.05.1.07,0,0,.05,0,.05-.02.07-.12.12-.19-.02-.31-.14-.14-.29-.31-.43-.45-.12-.12-.24-.24-.33-.36-.07-.03-.1-.05-.12-.05ZM21.91,16.94s0-.02,0,0c-.05,0-.1.02-.14.07-.24.26-.48.52-.74.79-.02.02-.05.07-.05.1-.02.07.02.14.1.19.07.02.07-.02.1-.07.26-.31.48-.64.69-1,.02-.02.05-.05.05-.07Z"/>
  </g>
</svg>