<?xml version="1.0" encoding="UTF-8"?>
<svg id="Layer_1" data-name="Layer 1" xmlns="http://www.w3.org/2000/svg" viewBox="0 0 90 45">
  <defs>
    <style>
      .cls-1 {
        fill: #fff;
      }
    </style>
  </defs>
  <g>
    <rect class="cls-1" x="80.51" y="42.46" width="9.49" height=".2"/>
    <rect class="cls-1" y="42.46" width="9.49" height=".2"/>
    <g>
      <path class="cls-1" d="M15.93,44.51c-.02.08-.04.16-.05.24-.32.15-.72.23-1.2.23-.34,0-.64-.05-.91-.14-.27-.09-.49-.22-.68-.39-.19-.17-.33-.37-.42-.6-.1-.23-.15-.48-.15-.75,0-.39.06-.73.19-1s.3-.5.51-.67c.21-.17.46-.3.74-.38.28-.08.58-.12.89-.12.1,0,.21,0,.32.02.11.02.22.04.33.06.11.02.21.05.3.09.1.03.18.07.24.11-.04.09-.07.19-.09.29-.02.1-.04.19-.04.29h-.08c-.15-.18-.3-.31-.46-.39-.16-.08-.34-.12-.55-.12-.16,0-.31.03-.47.1-.16.07-.3.17-.43.31-.13.14-.23.32-.31.54s-.12.48-.12.78.04.54.12.75.19.37.32.5c.13.13.28.23.45.29.17.06.33.09.5.09.09,0,.19-.01.29-.03.1-.02.19-.05.29-.08.09-.04.18-.08.27-.13s.16-.11.22-.18l.08.04c-.03.08-.06.16-.08.24Z"/>
      <path class="cls-1" d="M18.2,42.97c0-.28.05-.54.16-.79.11-.25.26-.46.45-.65s.43-.33.71-.44c.28-.11.59-.16.93-.16.31,0,.6.04.87.12.27.08.5.21.7.37.2.17.36.38.47.63.12.26.17.55.17.89,0,.28-.06.55-.17.79-.11.25-.27.46-.46.64-.2.18-.43.33-.71.43-.27.1-.57.15-.9.15-.31,0-.6-.04-.87-.11-.27-.07-.51-.19-.71-.36s-.36-.37-.48-.63c-.12-.26-.18-.56-.18-.92ZM21.71,42.85c0-.25-.03-.47-.09-.66-.06-.19-.15-.36-.26-.5-.11-.14-.25-.24-.4-.31s-.33-.11-.52-.11c-.2,0-.38.05-.54.14-.16.09-.29.22-.4.38-.11.16-.19.34-.25.56s-.08.44-.08.68c0,.3.03.56.1.77s.16.38.27.5.24.22.39.27c.15.06.3.08.47.08.18,0,.34-.04.5-.11.16-.07.3-.18.42-.33.12-.15.21-.33.29-.56.07-.23.11-.49.11-.81Z"/>
      <path class="cls-1" d="M25.21,42.15c0-.26,0-.48-.01-.66,0-.18-.01-.33-.02-.47.11.02.2.03.26.03s.15,0,.26-.03c.43.46.85.91,1.26,1.35s.84.89,1.28,1.35v-1.04c0-.18,0-.37,0-.55,0-.18,0-.34,0-.5,0-.15,0-.28-.01-.39s-.01-.18-.02-.22c.11.02.2.03.26.03s.15,0,.26-.03c-.02.34-.03.65-.05.93-.01.28-.02.54-.03.78,0,.25-.01.49-.01.73,0,.24,0,.5,0,.77v.68c-.08,0-.16-.01-.24-.01-.09,0-.16,0-.23.01-.81-.91-1.66-1.82-2.56-2.74,0,.11,0,.22,0,.33s0,.22,0,.33v.66c0,.23,0,.42,0,.58s0,.29,0,.4c0,.11,0,.2.01.27,0,.07,0,.13.01.17-.05,0-.09-.01-.14-.01h-.13c-.09,0-.18,0-.27.01,0-.03.02-.14.03-.32s.02-.41.04-.68.03-.56.04-.87c0-.31.01-.61.01-.9Z"/>
      <path class="cls-1" d="M32.49,41.3c-.18,0-.33.05-.44.15-.11.1-.17.22-.17.36s.04.25.13.34c.09.09.2.17.33.24.13.07.28.14.43.21s.29.15.43.24c.13.1.24.21.33.35s.13.31.13.53c0,.19-.04.36-.11.52s-.18.29-.32.4c-.14.11-.3.2-.49.26-.19.06-.4.09-.64.09-.21,0-.4-.02-.57-.07-.17-.04-.29-.1-.38-.16.04-.13.07-.25.1-.36.03-.11.05-.23.07-.36h.11c.02.08.04.16.09.24s.1.14.16.2.15.1.24.13.2.05.32.05c.23,0,.41-.06.52-.17.11-.11.17-.25.17-.41,0-.14-.04-.26-.13-.35-.09-.09-.19-.17-.32-.24s-.27-.14-.42-.2-.29-.15-.42-.24-.24-.21-.32-.35-.13-.31-.13-.53c0-.2.04-.37.11-.52.07-.15.17-.28.29-.38.12-.1.26-.18.42-.23.16-.05.33-.08.5-.08.21,0,.4.02.55.07s.29.12.41.2c-.03.09-.07.17-.09.25s-.06.18-.1.31h-.09c-.12-.32-.36-.49-.71-.49Z"/>
      <path class="cls-1" d="M36.85,41.64c0-.09,0-.16-.01-.2-.06,0-.13,0-.22,0s-.18,0-.28.01c-.1,0-.2.01-.3.02s-.2.02-.28.03c0-.04.01-.08.02-.12s0-.08,0-.12,0-.08,0-.12-.01-.08-.02-.12c.13,0,.25,0,.36.01.11,0,.22,0,.33,0,.11,0,.23,0,.36,0,.13,0,.29,0,.47,0s.34,0,.47,0c.13,0,.25,0,.36,0,.11,0,.22,0,.32,0s.22,0,.34-.01c0,.04-.01.08-.02.12s0,.08,0,.12,0,.08,0,.12.01.08.02.12c-.08-.01-.17-.02-.26-.03s-.19-.02-.29-.02c-.1,0-.19-.01-.27-.01s-.16,0-.22,0c0,.02,0,.05,0,.08,0,.03,0,.07,0,.12v1.72c0,.31,0,.59.01.84,0,.24.02.48.04.72-.07,0-.14-.01-.22-.01h-.53c-.08,0-.15,0-.22.01.02-.23.03-.47.04-.72,0-.24.01-.52.01-.84v-1.42c0-.11,0-.21,0-.3Z"/>
      <path class="cls-1" d="M42.05,43.13v.23c0,.31,0,.59.01.84,0,.24.02.48.04.72-.07,0-.14-.01-.22-.01h-.53c-.08,0-.15,0-.22.01.02-.23.03-.47.03-.72,0-.24.01-.52.01-.84v-.77c0-.31,0-.59-.01-.84,0-.24-.02-.49-.03-.73.07,0,.14.01.22.02.08,0,.17,0,.26,0,.11,0,.23,0,.36-.01.13,0,.3-.01.5-.01.15,0,.28,0,.38.01.11,0,.2.02.27.03.08.01.14.03.2.06.06.03.11.05.16.09.12.08.21.19.28.31s.1.27.1.44c0,.28-.08.5-.23.67s-.38.3-.67.37c.19.32.39.64.6.96.21.32.43.64.64.95-.09,0-.18-.01-.26-.01h-.53c-.09,0-.18,0-.27.01l-1.05-1.79h-.05ZM42.98,42.08c0-.17-.02-.3-.05-.4s-.09-.17-.16-.22c-.07-.05-.17-.08-.28-.1-.12-.02-.25-.02-.41-.02-.01.51-.02,1.03-.02,1.54.02,0,.05,0,.07,0,.02,0,.04,0,.06,0,.26,0,.46-.07.59-.2.14-.13.21-.34.21-.61Z"/>
      <path class="cls-1" d="M48.31,44.99c-.25,0-.48-.03-.7-.08-.22-.05-.41-.14-.57-.26-.16-.12-.29-.27-.38-.46s-.14-.41-.14-.68c0-.15,0-.29,0-.41s0-.23,0-.33,0-.2,0-.29,0-.19,0-.29c0-.31,0-.55,0-.74,0-.19,0-.33-.02-.42.08,0,.16.01.24.02.08,0,.16,0,.24,0s.16,0,.24,0c.08,0,.16-.01.24-.02-.04.37-.06.71-.07,1.02,0,.32-.01.64-.01.96,0,.34.03.62.08.83.05.21.13.37.23.49s.22.19.37.23c.14.04.31.06.5.06.23,0,.42-.06.55-.17s.23-.26.3-.45.11-.41.13-.65c.02-.24.02-.5.02-.76s0-.52-.01-.78-.02-.52-.04-.78c.05,0,.11.01.16.02.05,0,.1,0,.14,0,.05,0,.1,0,.15,0,.05,0,.1-.01.15-.02,0,.08-.02.19-.02.33,0,.14-.02.3-.02.48,0,.18-.01.39-.02.61s0,.45,0,.7c0,.66-.15,1.13-.44,1.41-.29.29-.72.43-1.29.43Z"/>
      <path class="cls-1" d="M55.93,44.51c-.02.08-.04.16-.05.24-.32.15-.72.23-1.2.23-.34,0-.64-.05-.91-.14-.27-.09-.49-.22-.68-.39-.19-.17-.33-.37-.42-.6-.1-.23-.15-.48-.15-.75,0-.39.06-.73.19-1s.3-.5.51-.67c.21-.17.46-.3.74-.38.28-.08.58-.12.89-.12.1,0,.21,0,.32.02.11.02.22.04.33.06.11.02.21.05.3.09.1.03.18.07.24.11-.04.09-.07.19-.09.29-.02.1-.04.19-.04.29h-.08c-.15-.18-.3-.31-.46-.39-.16-.08-.34-.12-.55-.12-.16,0-.31.03-.47.1-.16.07-.3.17-.43.31-.13.14-.23.32-.31.54s-.12.48-.12.78.04.54.12.75.19.37.32.5c.13.13.28.23.45.29.17.06.33.09.5.09.09,0,.19-.01.29-.03.1-.02.19-.05.29-.08.09-.04.18-.08.27-.13s.16-.11.22-.18l.08.04c-.03.08-.06.16-.08.24Z"/>
      <path class="cls-1" d="M59.2,41.64c0-.09,0-.16-.01-.2-.06,0-.13,0-.22,0s-.18,0-.28.01c-.1,0-.2.01-.3.02s-.2.02-.28.03c0-.04.01-.08.02-.12s0-.08,0-.12,0-.08,0-.12-.01-.08-.02-.12c.13,0,.25,0,.36.01.11,0,.22,0,.33,0,.11,0,.23,0,.36,0,.13,0,.29,0,.47,0s.34,0,.47,0c.13,0,.25,0,.36,0,.11,0,.22,0,.32,0s.22,0,.34-.01c0,.04-.01.08-.02.12s0,.08,0,.12,0,.08,0,.12.01.08.02.12c-.08-.01-.17-.02-.26-.03s-.19-.02-.29-.02c-.1,0-.19-.01-.27-.01s-.16,0-.22,0c0,.02,0,.05,0,.08,0,.03,0,.07,0,.12v1.72c0,.31,0,.59.01.84,0,.24.02.48.04.72-.07,0-.14-.01-.22-.01h-.53c-.08,0-.15,0-.22.01.02-.23.03-.47.04-.72,0-.24.01-.52.01-.84v-1.42c0-.11,0-.21,0-.3Z"/>
      <path class="cls-1" d="M63.54,41.75c0-.24-.02-.49-.03-.73.07,0,.14.01.22.02.08,0,.17,0,.26,0s.19,0,.26,0c.08,0,.15-.01.22-.02-.02.25-.03.49-.04.73s-.01.52-.01.84v.77c0,.31,0,.59.01.84,0,.24.02.48.04.72-.07,0-.14-.01-.22-.01h-.53c-.08,0-.15,0-.22.01.02-.23.03-.47.03-.72,0-.24.01-.52.01-.84v-.77c0-.31,0-.59-.01-.84Z"/>
      <path class="cls-1" d="M66.92,42.97c0-.28.05-.54.16-.79.11-.25.26-.46.45-.65s.43-.33.71-.44c.28-.11.59-.16.93-.16.31,0,.6.04.87.12.27.08.5.21.7.37.2.17.36.38.47.63.12.26.17.55.17.89,0,.28-.06.55-.17.79-.11.25-.27.46-.46.64-.2.18-.43.33-.71.43-.27.1-.57.15-.9.15-.31,0-.6-.04-.87-.11-.27-.07-.51-.19-.71-.36s-.36-.37-.48-.63c-.12-.26-.18-.56-.18-.92ZM70.43,42.85c0-.25-.03-.47-.09-.66-.06-.19-.15-.36-.26-.5-.11-.14-.25-.24-.4-.31s-.33-.11-.52-.11c-.2,0-.38.05-.54.14-.16.09-.29.22-.4.38-.11.16-.19.34-.25.56s-.08.44-.08.68c0,.3.03.56.1.77s.16.38.27.5.24.22.39.27c.15.06.3.08.47.08.18,0,.34-.04.5-.11.16-.07.3-.18.42-.33.12-.15.21-.33.29-.56.07-.23.11-.49.11-.81Z"/>
      <path class="cls-1" d="M73.93,42.15c0-.26,0-.48-.01-.66,0-.18-.01-.33-.02-.47.11.02.2.03.26.03s.15,0,.26-.03c.43.46.85.91,1.26,1.35s.84.89,1.28,1.35v-1.04c0-.18,0-.37,0-.55,0-.18,0-.34,0-.5,0-.15,0-.28-.01-.39s-.01-.18-.02-.22c.11.02.2.03.26.03s.15,0,.26-.03c-.02.34-.03.65-.05.93-.01.28-.02.54-.03.78,0,.25-.01.49-.01.73,0,.24,0,.5,0,.77v.68c-.08,0-.16-.01-.24-.01-.09,0-.16,0-.23.01-.81-.91-1.66-1.82-2.56-2.74,0,.11,0,.22,0,.33s0,.22,0,.33v.66c0,.23,0,.42,0,.58s0,.29,0,.4c0,.11,0,.2.01.27,0,.07,0,.13.01.17-.05,0-.09-.01-.14-.01h-.13c-.09,0-.18,0-.27.01,0-.03.02-.14.03-.32s.02-.41.04-.68.03-.56.04-.87c0-.31.01-.61.01-.9Z"/>
    </g>
    <path class="cls-1" d="M0,29.95h2.37v2.91h1.89v-2.91h2.39v7.53h-2.39v-3.15h-1.89v3.15H0v-7.53Z"/>
    <path class="cls-1" d="M10.5,29.95h2.37l2.7,7.53h-2.6l-.36-1.5h-1.96l-.37,1.5h-2.45l2.67-7.53ZM11.64,32.46l-.66,2.17h1.3l-.64-2.17Z"/>
    <path class="cls-1" d="M16.47,35.22c.79.54,1.53.81,2.23.81.36,0,.66-.08.92-.25.25-.17.38-.37.38-.62,0-.19-.09-.37-.27-.52-.19-.15-.53-.32-1.04-.51-.72-.26-1.27-.55-1.64-.87-.38-.32-.57-.73-.57-1.22,0-.63.3-1.15.9-1.58s1.39-.64,2.37-.64c.68,0,1.38.13,2.11.4v1.8c-.65-.46-1.27-.69-1.86-.69-.29,0-.55.06-.76.19-.22.13-.32.29-.32.47s.09.33.26.46c.17.13.49.27.95.42.77.25,1.35.54,1.75.86.4.33.59.77.59,1.32,0,.7-.34,1.29-1.02,1.79-.68.49-1.52.74-2.5.74-.76,0-1.59-.17-2.47-.51v-1.86Z"/>
    <path class="cls-1" d="M23.74,35.22c.79.54,1.53.81,2.23.81.36,0,.66-.08.92-.25.25-.17.38-.37.38-.62,0-.19-.09-.37-.27-.52-.19-.15-.53-.32-1.04-.51-.72-.26-1.27-.55-1.64-.87-.38-.32-.57-.73-.57-1.22,0-.63.3-1.15.9-1.58s1.39-.64,2.37-.64c.68,0,1.38.13,2.11.4v1.8c-.65-.46-1.27-.69-1.86-.69-.29,0-.55.06-.76.19-.22.13-.32.29-.32.47s.09.33.26.46c.17.13.49.27.95.42.77.25,1.35.54,1.75.86.4.33.59.77.59,1.32,0,.7-.34,1.29-1.02,1.79-.68.49-1.52.74-2.5.74-.76,0-1.59-.17-2.47-.51v-1.86Z"/>
    <path class="cls-1" d="M33.25,29.95h2.37l2.7,7.53h-2.6l-.36-1.5h-1.96l-.37,1.5h-2.45l2.67-7.53ZM34.39,32.46l-.66,2.17h1.3l-.64-2.17Z"/>
    <path class="cls-1" d="M39.43,29.95h2.43l1.17,2.39c.35.71.61,1.32.8,1.84h.12l-.06-1.27v-2.95h2.29v7.53h-2.42l-1.17-2.39c-.35-.71-.61-1.32-.8-1.85h-.13l.06,1.27v2.96h-2.29v-7.53Z"/>
    <path class="cls-1" d="M54.2,29.95h2.37l2.7,7.53h-2.6l-.36-1.5h-1.96l-.37,1.5h-2.45l2.67-7.53ZM55.33,32.46l-.66,2.17h1.3l-.64-2.17Z"/>
    <path class="cls-1" d="M60.42,29.95h2.39v5.99h3.29v1.54h-5.68v-7.53Z"/>
    <path class="cls-1" d="M67.06,29.95h2.39v5.99h3.29v1.54h-5.68v-7.53Z"/>
    <path class="cls-1" d="M75.68,29.95h2.37l2.7,7.53h-2.6l-.36-1.5h-1.96l-.37,1.5h-2.45l2.67-7.53ZM76.82,32.46l-.66,2.17h1.3l-.64-2.17Z"/>
    <path class="cls-1" d="M85.94,36.19l-1.71-3.7v4.99h-2.33v-7.53h2.61l1.43,2.88,1.43-2.88h2.62v7.53h-2.33v-4.99l-1.72,3.7Z"/>
  </g>
  <g>
    <polygon class="cls-1" points="40.41 7.23 40.41 23.25 42.4 22.31 42.4 5.79 40.41 7.23"/>
    <polygon class="cls-1" points="38.73 3.67 40.41 7.23 40.41 23.25 38.73 22.31 38.73 3.67"/>
    <polygon class="cls-1" points="38.73 3.67 40.34 7.26 40.42 23.23 40.43 7.26 42.4 5.79 40.39 7.16 38.73 3.67"/>
    <path class="cls-1" d="M42.4,5.79s-1.98,4.66-1.98,17.46l1.98-.95V5.79Z"/>
    <polygon class="cls-1" points="42.4 5.79 40.4 7.25 40.42 23.23 40.43 7.26 42.4 5.79"/>
    <polygon class="cls-1" points="44.85 3.57 44.85 20.69 46.83 19.74 46.83 2.05 44.85 3.57"/>
    <polygon class="cls-1" points="43.17 .01 44.85 3.57 44.85 20.69 43.17 19.74 43.17 .01"/>
    <polygon class="cls-1" points="43.17 .02 44.78 3.61 44.85 20.67 44.86 3.6 46.83 2.05 44.82 3.5 43.17 .02"/>
    <path class="cls-1" d="M46.83,2.05s-1.98,5.83-1.98,18.64l1.98-.95V2.05Z"/>
    <polygon class="cls-1" points="46.83 2.05 44.83 3.59 44.85 20.67 44.86 3.6 46.83 2.05"/>
    <polygon class="cls-1" points="40.38 7.19 42.4 5.8 38.73 3.67 40.38 7.19"/>
    <polygon class="cls-1" points="44.82 3.51 46.83 2.05 43.17 .01 44.82 3.51"/>
    <g>
      <polygon class="cls-1" points="49.59 8.37 49.59 25.49 47.61 24.55 47.6 6.89 49.59 8.37"/>
      <polygon class="cls-1" points="51.27 4.85 49.59 8.37 49.59 25.49 51.27 24.55 51.27 4.85"/>
      <polygon class="cls-1" points="51.27 4.85 49.66 8.4 49.58 25.47 49.57 8.4 47.6 6.89 49.61 8.3 51.27 4.85"/>
      <path class="cls-1" d="M47.6,6.89s1.99,5.8,1.99,18.6l-1.98-.95V6.89Z"/>
      <polygon class="cls-1" points="47.6 6.89 49.6 8.39 49.58 25.47 49.57 8.4 47.6 6.89"/>
      <polygon class="cls-1" points="47.61 6.89 49.62 8.33 51.27 4.85 47.61 6.89"/>
    </g>
  </g>
</svg>