<?xml version="1.0" encoding="UTF-8"?>
<svg id="Layer_1" data-name="Layer 1" xmlns="http://www.w3.org/2000/svg" viewBox="0 0 90 45">
  <defs>
    <style>
      .cls-1 {
        fill: #fff;
      }
    </style>
  </defs>
  <path class="cls-1" d="M6.26,38.52c-.03-.08-.08-.15-.13-.22-.06-.06-.12-.12-.19-.16-.07-.05-.14-.08-.22-.12-.07-.03-.15-.07-.22-.1l-.22-.08c-.06-.02-.12-.05-.18-.09-.05-.03-.09-.07-.12-.11-.03-.04-.05-.09-.05-.15,0-.07.01-.13.04-.19.02-.05.06-.1.1-.13.05-.04.1-.07.16-.08.06-.02.13-.03.19-.03.11,0,.22.01.32.04.11.02.21.06.31.1l.06-.52c-.12-.04-.25-.07-.37-.08-.13-.02-.25-.03-.38-.03-.13,0-.26.02-.39.05-.13.03-.25.09-.36.16-.06.04-.11.09-.16.15-.09.11-.15.24-.17.39-.01.07-.02.14-.02.22,0,.08,0,.16.03.24.02.07.05.13.08.19.04.06.08.11.14.16.09.08.2.16.31.22.04.02.08.04.12.05l.24.1c.08.03.16.07.23.11.03.02.06.04.09.06.03.02.05.05.07.07.02.03.03.06.04.09,0,.03.01.07.01.1,0,.06-.01.13-.05.18-.04.05-.08.09-.14.12-.06.03-.12.06-.18.07-.06.01-.13.02-.19.02-.12,0-.25-.02-.36-.05-.12-.03-.23-.08-.34-.14l-.06.57c.13.03.27.06.4.09.13.02.27.04.4.04.15,0,.3-.01.45-.05.14-.03.26-.08.38-.16.11-.08.19-.18.26-.29.07-.14.1-.29.1-.44,0-.06,0-.12-.01-.17,0-.06-.02-.13-.04-.19"/>
  <path class="cls-1" d="M7.77,36.63l-1.22,3.13h.65l.27-.72h1.27l.27.72h.69l-1.23-3.13h-.71ZM7.66,38.54l.45-1.29.47,1.29h-.92Z"/>
  <path class="cls-1" d="M12.02,38.44c0,.11,0,.22-.03.33-.01.1-.05.19-.1.28-.05.08-.12.15-.2.2-.21.1-.44.1-.65,0-.08-.05-.15-.12-.2-.2-.05-.09-.08-.18-.1-.28-.02-.11-.03-.21-.03-.32v-1.81h-.62v2c0,.18.02.37.09.54.05.14.14.27.25.37.12.1.25.18.4.22.17.05.35.07.54.07.18,0,.36-.02.54-.07.15-.04.29-.12.4-.22.11-.1.2-.23.25-.37.06-.17.09-.36.09-.54v-2h-.63v1.8Z"/>
  <path class="cls-1" d="M15.9,37.49c-.04-.11-.1-.21-.17-.3-.07-.09-.16-.18-.26-.25-.09-.06-.18-.11-.28-.15-.1-.04-.2-.08-.3-.1-.1-.03-.21-.05-.32-.06-.1-.01-.21-.02-.31-.02h-.9v3.13h.86c.25,0,.49-.02.73-.08.21-.05.4-.14.57-.27.16-.13.29-.3.37-.48.09-.23.14-.48.13-.73,0-.12,0-.24-.03-.35-.02-.12-.05-.23-.09-.34M15.28,38.61c-.05.13-.12.24-.22.34-.09.09-.2.17-.32.22-.13.06-.28.08-.42.08h-.35v-2.12h.35c.15,0,.29.02.42.08.12.05.23.12.33.22.1.1.17.21.22.34.05.13.08.28.07.42,0,.14-.03.28-.08.42"/>
  <rect class="cls-1" x="16.53" y="36.63" width=".63" height="3.13"/>
  <polygon class="cls-1" points="19.7 38.38 20.82 38.38 20.82 37.89 19.7 37.89 19.7 37.12 20.92 37.12 20.92 36.63 19.08 36.63 19.08 39.75 20.93 39.75 20.93 39.26 19.7 39.26 19.7 38.38"/>
  <polygon class="cls-1" points="22.2 36.63 21.57 36.63 21.57 39.75 23.41 39.75 23.41 39.26 22.2 39.26 22.2 36.63"/>
  <polygon class="cls-1" points="24.44 38.38 25.55 38.38 25.55 37.89 24.44 37.89 24.44 37.12 25.66 37.12 25.66 36.63 23.81 36.63 23.81 39.75 25.66 39.75 25.66 39.26 24.44 39.26 24.44 38.38"/>
  <path class="cls-1" d="M28.39,39.24l-.18.04-.18.02h-.17c-.15,0-.31-.03-.45-.08-.13-.05-.24-.13-.33-.23-.1-.1-.17-.22-.22-.35-.05-.14-.07-.29-.07-.43s.02-.29.07-.44c.05-.13.12-.25.21-.36.09-.1.2-.18.33-.24.14-.06.28-.09.43-.09h.19c.06,0,.11.01.16.03.05.01.11.03.16.05.06.02.11.05.17.08l.04-.53c-.11-.04-.23-.07-.35-.09-.12-.02-.24-.04-.36-.04-.2,0-.39.02-.59.06-.17.04-.34.11-.49.21-.15.1-.27.22-.37.37-.11.17-.18.35-.22.55-.02.08-.03.16-.04.24,0,.08-.01.16-.01.25,0,.11,0,.22.02.34.01.11.04.21.08.31.04.1.09.2.15.28.07.09.14.17.23.24.09.07.18.13.28.19.09.05.2.09.3.12.1.03.21.05.32.07.11.01.22.02.34.02.12,0,.24,0,.36-.02.12-.02.24-.04.35-.07l-.03-.52s-.1.04-.15.05"/>
  <polygon class="cls-1" points="28.71 37.12 29.61 37.12 29.61 39.75 30.23 39.75 30.23 37.12 31.13 37.12 31.13 36.63 28.71 36.63 28.71 37.12"/>
  <path class="cls-1" d="M33.26,38.42s-.04-.07-.07-.1c-.03-.03-.06-.05-.09-.07-.04-.02-.08-.03-.12-.04.09-.01.18-.04.26-.08.08-.04.16-.09.22-.15.06-.06.1-.14.13-.22.03-.09.05-.18.05-.27,0-.12-.02-.24-.05-.35-.03-.09-.08-.17-.14-.24-.06-.06-.14-.11-.22-.15-.09-.04-.18-.07-.27-.08-.1-.02-.2-.03-.3-.03h-1.18v3.13h.63v-1.3h.2c.06,0,.11,0,.17.01.04.01.08.03.12.05.03.03.06.06.08.1.02.05.05.1.07.15l.38.97h.69l-.5-1.22s-.03-.08-.05-.12M32.96,37.65s-.02.08-.04.11c-.03.05-.07.08-.12.11-.05.03-.1.05-.16.06-.06.01-.11.02-.17.03h-.37v-.82h.44c.07,0,.15.02.22.05.06.03.12.07.16.12.04.07.06.15.06.23,0,.04,0,.08-.01.12"/>
  <path class="cls-1" d="M36.79,37.02c-.14-.14-.3-.25-.48-.33-.21-.08-.43-.12-.65-.12-.22,0-.44.03-.65.11-.18.07-.35.18-.48.33-.13.15-.23.32-.29.51-.13.43-.13.89,0,1.32.06.19.16.37.29.52.13.15.3.26.48.33.21.08.43.12.65.12.22,0,.45-.04.65-.12.18-.07.35-.19.48-.33.13-.15.23-.32.29-.52.14-.42.14-.88,0-1.31-.06-.19-.16-.36-.29-.51M36.48,38.59c-.03.13-.08.25-.15.37-.07.11-.16.2-.27.26-.12.07-.27.1-.41.1-.14,0-.28-.03-.4-.1-.11-.06-.2-.15-.27-.25-.07-.11-.12-.23-.15-.36-.03-.14-.05-.27-.05-.41s.02-.27.05-.41c.03-.13.08-.25.15-.36.07-.11.17-.19.27-.26.12-.07.26-.1.4-.1.14,0,.28.03.4.1.11.06.2.15.27.25.07.11.12.23.15.36.03.14.05.27.05.41s-.01.28-.05.41"/>
  <polygon class="cls-1" points="39.69 38.97 39.68 38.97 38.49 36.63 37.72 36.63 37.72 39.75 38.32 39.75 38.32 37.42 38.33 37.42 39.53 39.75 40.29 39.75 40.29 36.63 39.69 36.63 39.69 38.97"/>
  <rect class="cls-1" x="40.93" y="36.63" width=".63" height="3.13"/>
  <path class="cls-1" d="M44.33,39.24l-.18.04-.18.02h-.17c-.15,0-.3-.03-.45-.08-.13-.05-.24-.13-.33-.23-.1-.1-.17-.22-.22-.35-.05-.14-.07-.29-.07-.43s.02-.3.07-.44c.05-.13.12-.25.21-.36.09-.1.2-.18.33-.24.14-.06.28-.09.43-.09h.19c.06,0,.11.01.17.03.05.01.11.03.16.05.06.02.11.05.17.08l.04-.53c-.11-.04-.23-.07-.35-.09-.12-.02-.24-.04-.36-.04-.2,0-.39.02-.58.06-.17.04-.34.11-.49.21-.15.1-.27.22-.37.37-.11.17-.18.35-.22.55-.02.08-.03.16-.04.24,0,.08-.01.16-.01.25,0,.11,0,.22.02.34.02.11.04.21.08.31.04.1.09.2.15.28.07.09.14.17.23.24.09.07.18.13.28.19.1.05.2.09.3.12.1.03.21.05.32.07.11.01.22.02.33.02.12,0,.24,0,.36-.02.12-.02.24-.04.35-.07l-.03-.52s-.1.04-.15.05"/>
  <path class="cls-1" d="M48.12,38.44c0,.11,0,.22-.03.33-.01.1-.05.19-.1.28-.05.08-.12.15-.2.2-.2.1-.45.1-.65,0-.08-.05-.15-.12-.2-.2-.05-.09-.08-.18-.1-.28-.02-.11-.03-.21-.03-.32v-1.81h-.63v2c0,.18.02.37.09.54.06.14.15.26.26.35.12.1.25.18.4.22.35.09.72.09,1.07,0,.15-.04.29-.12.4-.22.11-.1.2-.23.25-.37.06-.18.09-.36.09-.54v-2h-.63v1.82Z"/>
  <polygon class="cls-1" points="51.99 36.63 51.39 36.63 51.39 38.97 51.38 38.97 50.19 36.63 49.42 36.63 49.42 39.75 50.02 39.75 50.02 37.42 50.03 37.42 51.23 39.75 51.99 39.75 51.99 36.63"/>
  <rect class="cls-1" x="52.63" y="36.63" width=".63" height="3.13"/>
  <polygon class="cls-1" points="55.46 39.75 56.51 36.63 55.89 36.63 55.1 39.08 55.09 39.08 54.28 36.63 53.61 36.63 54.69 39.75 55.46 39.75"/>
  <polygon class="cls-1" points="58.77 37.12 58.77 36.63 56.92 36.63 56.92 39.75 58.77 39.75 58.77 39.26 57.55 39.26 57.55 38.38 58.66 38.38 58.66 37.89 57.55 37.89 57.55 37.12 58.77 37.12"/>
  <path class="cls-1" d="M61.14,38.42s-.04-.07-.07-.1c-.03-.03-.06-.05-.09-.07-.04-.02-.08-.03-.12-.04.09-.01.18-.04.27-.08.08-.04.15-.09.21-.15.06-.06.1-.14.13-.22.03-.09.05-.18.05-.27,0-.12-.02-.24-.05-.35-.06-.17-.19-.32-.36-.38-.09-.04-.18-.07-.27-.08-.1-.02-.2-.03-.3-.03h-1.18v3.13h.63v-1.3h.2c.06,0,.11,0,.17.01.04,0,.08.03.12.05.03.03.06.06.08.1.03.05.05.1.07.15l.38.97h.7l-.5-1.22s-.03-.08-.04-.12M60.84,37.65s-.02.08-.04.11c-.03.05-.07.08-.12.11-.05.03-.1.05-.16.06-.06.01-.12.02-.18.03h-.37v-.82h.44c.07,0,.15.02.22.05.06.03.12.07.16.12.04.07.06.15.06.23,0,.04,0,.08-.01.12"/>
  <path class="cls-1" d="M64.07,38.87c0-.06,0-.12-.01-.17,0-.06-.02-.12-.04-.17-.03-.08-.08-.15-.13-.22-.06-.06-.12-.12-.19-.16-.07-.05-.14-.08-.22-.12-.08-.04-.15-.07-.22-.1l-.22-.08c-.06-.02-.12-.05-.18-.09-.05-.03-.09-.07-.12-.11-.03-.04-.05-.09-.05-.15,0-.07.01-.13.04-.19.02-.05.06-.1.1-.13.05-.04.1-.07.15-.08.06-.02.13-.03.2-.03.11,0,.22.01.32.03.11.02.21.06.31.1l.06-.52c-.12-.04-.25-.07-.37-.08-.13-.02-.25-.02-.38-.02-.13,0-.26.01-.39.05-.13.03-.25.09-.36.16-.06.04-.12.09-.16.15-.04.06-.08.12-.11.18-.03.07-.05.14-.06.2-.01.07-.02.14-.02.22,0,.08,0,.16.03.24.02.07.05.13.08.19.04.06.09.11.14.16.06.05.13.1.19.14.04.03.08.05.12.07.04.02.08.04.13.05l.24.1c.08.03.16.07.23.11.03.02.06.04.08.06.03.02.05.05.07.07.02.03.03.06.04.09,0,.03.01.07.01.1,0,.06-.02.13-.05.18-.03.05-.08.09-.13.12-.06.03-.12.06-.18.07-.06.02-.12.02-.19.02-.12,0-.25-.02-.37-.05-.12-.03-.24-.08-.34-.14l-.06.57c.13.03.27.06.4.09.13.02.27.04.4.04.15,0,.29-.02.43-.05.13-.03.26-.08.37-.16.11-.08.2-.18.26-.29.07-.13.11-.29.11-.44"/>
  <rect class="cls-1" x="64.59" y="36.63" width=".63" height="3.13"/>
  <polygon class="cls-1" points="67.08 39.75 67.08 37.12 67.98 37.12 67.98 36.63 65.56 36.63 65.56 37.12 66.45 37.12 66.45 39.75 67.08 39.75"/>
  <polygon class="cls-1" points="69.21 39.75 69.83 39.75 69.83 38.52 70.95 36.63 70.29 36.63 69.54 37.94 68.8 36.63 68.06 36.63 69.21 38.52 69.21 39.75"/>
  <path class="cls-1" d="M4.94,30.36c.14.14.37.14.5,0,.03-.03.06-.07.08-.11.02-.04.03-.09.03-.14s0-.1-.03-.14c-.08-.18-.29-.26-.47-.18-.08.04-.15.1-.18.18-.02.04-.03.09-.03.14s0,.1.03.14c.02.04.04.08.07.11"/>
  <path class="cls-1" d="M5.77,30.36s.07.06.11.08c.04.02.09.03.14.03s.1,0,.14-.03c.04-.02.08-.04.11-.08.03-.03.06-.07.08-.11.02-.04.03-.09.03-.14s0-.1-.03-.14c-.02-.04-.05-.08-.08-.11-.03-.03-.07-.06-.11-.08-.04-.02-.09-.03-.14-.03s-.1,0-.14.03c-.04.02-.08.04-.11.08-.03.03-.06.07-.08.11-.02.04-.03.09-.03.14s.01.1.03.14c.02.04.04.08.08.11"/>
  <path class="cls-1" d="M4.66,33.35c.12.03.25.05.38.05.12,0,.24-.01.36-.04.12-.03.24-.08.35-.14.02.05.06.1.1.14.05.05.1.08.16.12.07.04.15.06.23.08.11.02.22.03.33.03h.87c.12,0,.24-.02.35-.06.09-.04.17-.1.24-.17.11.07.22.13.35.17.13.04.27.06.4.06h1.52v-2.27h-.72v1.67h-.72c-.11,0-.22,0-.33-.03-.1-.02-.2-.05-.29-.08,0-.03,0-.06.01-.1.01-.03,0-.06,0-.1v-1.37h-.73v1.27c0,.07,0,.13-.02.19,0,.05-.03.09-.06.12-.03.03-.07.05-.11.06-.05.01-.1.02-.16.02h-.49s-.09,0-.14-.02c-.03,0-.06-.03-.08-.06-.02-.03-.04-.07-.04-.11,0-.06,0-.11,0-.17v-1.81h-.72v.31c-.11.03-.22.06-.35.1-.13.04-.26.08-.39.13-.13.05-.25.12-.37.19-.12.07-.22.15-.32.24-.09.09-.16.19-.22.31-.06.12-.09.25-.08.38,0,.14.03.29.1.41.06.11.15.21.25.28.1.08.21.13.33.17M4.73,32.18c.06-.08.13-.15.22-.2.11-.07.22-.12.33-.16.14-.05.29-.09.43-.12v.94c-.08.05-.17.09-.26.12-.1.03-.2.05-.31.04-.06,0-.12,0-.17-.02-.05-.01-.11-.03-.15-.06-.05-.03-.08-.07-.11-.12-.03-.06-.05-.12-.04-.18,0-.09.02-.17.07-.24"/>
  <path class="cls-1" d="M8.41,34.06s-.09-.03-.14-.03-.1,0-.14.03c-.08.04-.15.1-.19.19-.02.04-.03.09-.03.14,0,.1.04.19.1.25.03.03.07.06.11.08.04.02.09.03.14.03s.1-.01.14-.03c.04-.02.08-.04.11-.08.07-.07.1-.16.1-.25,0-.05,0-.1-.03-.14-.02-.04-.04-.08-.08-.11-.03-.03-.07-.06-.11-.08"/>
  <path class="cls-1" d="M7.57,34.06s-.09-.03-.14-.03-.1,0-.14.03c-.04.02-.08.04-.11.08-.03.03-.06.07-.08.11-.02.04-.03.09-.03.14s0,.1.03.14c.02.04.04.08.08.11.03.03.07.06.11.08.04.02.09.03.14.03s.1,0,.14-.03c.04-.02.08-.04.11-.08.07-.07.1-.16.1-.25,0-.05,0-.1-.03-.14-.04-.08-.1-.15-.19-.19"/>
  <path class="cls-1" d="M9.68,30.51s.07.06.11.08c.04.02.09.03.14.03s.1,0,.14-.03c.04-.02.08-.05.11-.08.03-.03.06-.07.08-.11.02-.04.03-.09.03-.14s-.01-.1-.03-.14c-.04-.08-.1-.15-.19-.19-.04-.02-.09-.03-.14-.03s-.1,0-.14.03c-.04.02-.08.04-.11.08-.03.03-.06.07-.08.11-.02.04-.03.09-.03.14s0,.1.03.14c.02.04.04.08.08.11"/>
  <path class="cls-1" d="M13.63,33.02v-.47c0-.16-.02-.32-.05-.48-.03-.12-.08-.24-.14-.35-.05-.09-.12-.18-.2-.25-.14-.12-.32-.2-.51-.23-.08-.02-.17-.02-.26-.02-.18,0-.35.03-.51.1-.15.06-.3.15-.42.26-.12.11-.21.25-.28.4-.07.16-.1.33-.1.51,0,.13.02.26.07.39.05.14.12.26.22.36.11.12.25.21.4.27.19.07.39.11.59.1.05,0,.12,0,.2-.01.07,0,.15-.02.22-.03-.04.09-.1.17-.18.23-.09.08-.18.14-.29.19-.12.06-.25.11-.38.15-.15.04-.3.07-.45.09h-.07l.07.59c.28-.03.56-.08.83-.15.24-.06.46-.17.65-.31.19-.14.34-.32.44-.52.11-.25.16-.52.16-.79M12.91,32.94s-.05.02-.08.02c-.03,0-.06.02-.09.02h-.11s-.07.02-.1.01c-.1,0-.21-.01-.3-.04-.08-.03-.15-.07-.22-.12-.06-.05-.1-.12-.13-.19-.03-.08-.04-.16-.04-.25,0-.08.01-.17.04-.25.03-.07.07-.14.12-.19.05-.05.11-.09.17-.12.06-.03.13-.05.2-.05.07,0,.13.01.19.04.07.03.13.08.17.14.06.09.1.18.12.28.03.15.05.31.05.47v.24Z"/>
  <path class="cls-1" d="M16.27,30.51s.07.06.11.08c.04.02.09.03.14.03s.1,0,.14-.03c.04-.02.08-.05.11-.08.03-.03.05-.07.07-.12.02-.04.03-.09.03-.14s0-.1-.03-.14c-.04-.08-.1-.15-.19-.19-.04-.02-.09-.03-.14-.03s-.1,0-.14.03c-.04.02-.08.04-.11.08-.03.03-.06.07-.08.11-.02.04-.03.09-.03.14s0,.1.03.14c.02.05.05.08.08.12"/>
  <path class="cls-1" d="M17.11,30.51s.07.06.11.08c.04.02.09.03.14.03s.1,0,.14-.03c.04-.02.08-.05.11-.08.03-.03.06-.07.08-.11.02-.04.03-.09.03-.14s0-.1-.03-.14c-.02-.04-.04-.08-.08-.11-.03-.03-.07-.06-.11-.08-.04-.02-.09-.03-.14-.03-.1,0-.19.04-.25.1-.03.03-.06.07-.08.11-.02.04-.03.09-.03.14s0,.1.03.14c.02.04.04.08.08.11"/>
  <path class="cls-1" d="M19.78,33.28c.11.09.24.17.37.22.16.06.32.08.49.08h1.45v-4h-.72v3.39h-.66c-.13,0-.25-.01-.37-.03-.11-.02-.22-.06-.32-.11.01-.07.02-.13.02-.2,0-.12-.02-.23-.05-.34-.04-.11-.09-.22-.16-.31-.08-.11-.17-.21-.27-.3-.11-.1-.24-.2-.38-.32l.85-1.47-.53-.34-1.2,2.03c.17.1.32.2.45.29.12.08.23.16.34.26.08.07.16.16.22.25.05.07.07.15.07.24,0,.05,0,.1-.02.15-.02.05-.05.08-.09.11-.05.03-.11.06-.17.07-.09.02-.18.03-.27.02h-.87c-.11,0-.22,0-.33-.02-.1-.02-.2-.05-.29-.08v-.1s0-.07,0-.1v-1.37h-.72v1.27c0,.07,0,.13-.02.19,0,.05-.03.09-.06.12-.03.03-.06.05-.11.07-.05.01-.1.02-.16.02h-.85v-1.67h-.72v1.91c0,.12,0,.23-.03.34-.02.09-.05.18-.11.25-.06.08-.14.14-.23.18-.13.06-.26.1-.39.12l.12.63c.19-.03.37-.07.54-.13.14-.05.28-.12.4-.22.11-.09.2-.2.27-.33.07-.15.12-.3.15-.46h1.14c.12,0,.24-.02.35-.06.09-.04.17-.1.24-.17.11.07.22.13.35.16.13.04.27.06.4.06h1.01c.19,0,.37-.02.55-.08.14-.05.26-.12.37-.23"/>
  <polygon class="cls-1" points="26.23 29.58 25.51 29.58 25.51 32.98 24.77 32.98 24.77 30.53 24.05 30.53 24.05 32.98 22.8 32.98 22.8 33.59 26.23 33.59 26.23 29.58"/>
  <path class="cls-1" d="M23.9,35.07h1.04v-.33h-.16c-.09,0-.18-.02-.26-.07-.05-.04-.08-.1-.08-.16,0-.05.02-.1.05-.13.04-.03.09-.04.15-.04h.12l.12.02.05-.34c-.06-.01-.11-.02-.17-.02h-.14c-.09,0-.17.01-.25.04-.07.02-.13.06-.18.1-.04.04-.08.09-.1.14-.05.11-.05.23,0,.33.02.05.05.1.08.14h-.27v.34Z"/>
  <rect class="cls-1" x="27.02" y="29.59" width=".72" height="4"/>
  <path class="cls-1" d="M31.71,33.48c.07.04.15.06.23.08.11.02.22.03.33.03h1.74v-2.29h-.72v1.67h-.89s-.09,0-.14-.01c-.03,0-.06-.03-.08-.06-.02-.03-.03-.07-.04-.1,0-.06-.01-.11-.01-.17v-1.81h-.71v.31c-.11.03-.22.06-.35.1-.14.04-.26.08-.39.13-.13.05-.25.12-.37.19-.12.07-.22.15-.32.24-.09.09-.16.19-.22.31-.06.12-.08.25-.08.39,0,.14.03.28.1.41.06.11.15.2.25.28.11.07.22.13.35.16.12.03.25.05.38.05.12,0,.24-.01.36-.04.12-.03.24-.08.35-.14.05.11.14.2.26.26h-.02ZM31.42,32.66c-.08.05-.17.09-.26.12-.1.03-.2.05-.31.04-.06,0-.12,0-.17-.02-.06-.01-.11-.03-.15-.07-.05-.03-.08-.07-.11-.12-.03-.06-.05-.12-.04-.18,0-.09.02-.17.07-.24.06-.08.13-.15.22-.2.1-.07.22-.12.33-.16.14-.05.29-.09.44-.12v.94Z"/>
  <path class="cls-1" d="M30.63,30.36s.07.06.11.08c.04.02.09.03.14.03s.1,0,.14-.03c.04-.02.08-.04.11-.08.03-.03.06-.07.08-.11.02-.04.03-.09.03-.14s0-.1-.03-.14c-.04-.08-.1-.15-.19-.19-.04-.02-.09-.03-.14-.03s-.1,0-.14.03c-.04.02-.08.04-.11.08-.03.03-.06.07-.08.11-.02.04-.03.09-.03.14s.01.1.03.14c.02.04.04.08.08.11"/>
  <path class="cls-1" d="M31.47,30.36s.07.06.11.08c.04.02.09.03.14.03s.1-.01.14-.03c.08-.04.15-.1.19-.19.02-.04.03-.09.03-.14s0-.1-.03-.14c-.02-.04-.04-.08-.08-.11-.03-.03-.07-.06-.11-.08-.04-.02-.09-.03-.14-.03s-.1,0-.14.03c-.08.04-.15.1-.19.19-.02.04-.03.09-.03.14s0,.1.03.14c.02.04.04.08.08.11"/>
  <path class="cls-1" d="M33.26,34.06s-.09-.03-.14-.03-.1,0-.14.03c-.04.02-.08.04-.11.08-.03.03-.06.07-.08.11-.02.04-.03.09-.03.14s0,.1.03.14c.02.04.05.08.08.11.03.03.07.06.11.08.04.02.09.03.14.03s.1-.01.14-.03c.04-.02.08-.04.11-.08.07-.07.1-.16.1-.25,0-.05,0-.1-.03-.14-.02-.04-.04-.08-.08-.11-.03-.03-.07-.06-.11-.08"/>
  <path class="cls-1" d="M34.28,34.52s.03-.09.03-.14,0-.1-.03-.14c-.04-.08-.1-.15-.19-.19-.04-.02-.09-.03-.14-.03-.14,0-.27.08-.33.22-.02.04-.03.09-.03.14,0,.1.04.18.1.25.07.07.16.1.25.1.05,0,.1,0,.14-.03.04-.02.08-.04.11-.08.03-.03.06-.07.08-.11"/>
  <path class="cls-1" d="M36.12,33.51c.14-.04.28-.12.39-.22.1-.09.17-.2.22-.32.04-.12.06-.25.06-.39-.01-.29-.11-.57-.28-.81-.23-.33-.51-.62-.83-.87l-.52.51c.11.09.22.19.33.3.11.1.21.2.3.32.08.1.16.2.22.32.05.09.08.19.08.29,0,.05,0,.09-.02.14-.01.04-.04.08-.08.11-.05.04-.1.06-.16.07-.09.02-.18.03-.27.02h-1.07v.61h1.06c.19,0,.38-.03.57-.08"/>
  <path class="cls-1" d="M50.51,29.58h-.72v3.39h-.67c-.11,0-.22,0-.33-.03-.1-.02-.2-.05-.29-.08,0-.03,0-.06.01-.1.01-.03,0-.07,0-.1v-1.37h-.72v1.27c0,.07,0,.13-.02.19,0,.05-.03.09-.06.12-.03.03-.06.05-.11.07-.05.02-.1.02-.16.02-.1,0-.19-.01-.29-.04-.1-.03-.2-.07-.3-.13v-1.2h-.71v.97c0,.07,0,.13-.02.19,0,.05-.03.09-.06.12-.03.03-.07.05-.11.07-.05.01-.11.02-.16.02-.1,0-.2-.01-.29-.04-.11-.03-.21-.08-.3-.13v-.94h-.72v.72c0,.06,0,.13-.02.19,0,.05-.03.09-.06.12-.03.03-.07.05-.11.07-.05.01-.11.02-.16.02h-1.05c-.07,0-.15-.01-.22-.02l-.19-.03-.15-.04c.11-.11.22-.24.31-.37.07-.1.13-.21.19-.32.04-.08.07-.17.09-.26.01-.06.02-.13.03-.2,0-.1-.03-.2-.09-.27-.06-.08-.14-.14-.23-.19-.1-.05-.21-.08-.32-.1-.11-.02-.23-.04-.35-.04-.13,0-.27.01-.4.03-.11.02-.22.04-.34.06-.1.03-.2.06-.29.1-.09.04-.16.07-.22.1-.03.02-.06.05-.08.09-.03.05-.05.09-.07.14-.02.05-.04.1-.06.16-.01.05-.03.09-.04.14.01.01.04.05.07.08.03.04.07.1.12.17.05.07.07.09.11.15l.14.17c.05.06.1.12.16.18.05.06.11.11.16.16-.09.03-.18.05-.28.07-.13.02-.27.03-.41.03h-.88v-.43c0-.16-.02-.32-.05-.48-.03-.12-.08-.24-.14-.35-.05-.09-.12-.18-.2-.25-.07-.06-.16-.11-.24-.15-.08-.04-.17-.06-.26-.08-.08-.01-.17-.02-.26-.02-.19,0-.37.03-.54.1-.15.07-.29.16-.41.28-.12.12-.2.25-.26.4-.06.15-.09.32-.09.48,0,.13.03.26.07.39.05.13.13.26.23.36.12.12.26.21.42.26.2.07.42.11.63.1h.34c-.05.08-.12.16-.19.22-.09.07-.19.14-.3.19-.12.06-.25.11-.39.14-.15.04-.31.06-.47.07l.07.6c.23-.02.46-.07.68-.13.2-.06.4-.14.59-.25.17-.1.32-.22.46-.36.13-.14.23-.3.29-.48h.89c.12,0,.24,0,.36-.03.11-.02.22-.04.33-.07.1-.03.2-.06.29-.1.09-.03.17-.07.25-.11.06.03.13.06.22.09.09.04.19.07.28.1.11.03.23.06.35.08.13.02.27.03.4.03h1.23c.13,0,.27-.02.39-.08.1-.05.19-.13.25-.22.12.09.25.16.39.21.16.06.33.08.5.08h.12c.13,0,.27-.02.39-.08.1-.05.19-.12.25-.2.12.09.25.15.39.2.16.05.33.08.5.08h.12c.12,0,.24-.02.35-.06.09-.04.18-.1.24-.17.11.07.22.13.35.17.13.04.26.06.4.06h1.47l-.02-3.99ZM39.12,32.98h-.4c-.18.02-.37-.04-.51-.15-.11-.11-.17-.26-.16-.42,0-.08.01-.17.05-.25.03-.07.07-.14.12-.19.05-.05.11-.09.18-.12.06-.03.13-.05.21-.05.07,0,.13.01.19.04.07.03.13.08.17.14.06.08.1.18.12.28.03.15.05.31.05.47v.27ZM42.44,32.11c-.02.06-.05.11-.08.16-.04.07-.1.13-.15.19-.07.07-.15.14-.23.2-.07-.05-.13-.11-.19-.17-.07-.07-.13-.14-.2-.22-.06-.07-.12-.15-.17-.22-.05-.07-.09-.13-.12-.18.05-.02.11-.05.17-.07.06-.02.12-.04.18-.05.06-.01.12-.03.18-.03.05,0,.1-.01.15-.01.07,0,.14,0,.2.02.06.01.11.03.16.06.04.02.08.05.11.09.02.03.04.07.04.11,0,.04-.01.08-.03.12h0Z"/>
  <rect class="cls-1" x="51.24" y="29.59" width=".72" height="4"/>
  <path class="cls-1" d="M54.86,30.36s.07.06.11.08c.04.02.09.03.14.03s.1,0,.14-.03c.04-.02.08-.04.11-.08.03-.03.06-.07.08-.11.02-.04.03-.09.03-.14s0-.1-.03-.14c-.02-.04-.05-.08-.08-.11-.03-.03-.07-.06-.11-.08-.04-.02-.09-.03-.14-.03s-.1,0-.14.03c-.04.02-.08.04-.11.08-.03.03-.06.07-.08.11-.02.04-.03.09-.03.14s.01.1.03.14c.02.04.04.08.08.11"/>
  <path class="cls-1" d="M54.24,33.19c.1.07.22.13.35.16.12.03.25.05.38.05.12,0,.24-.01.36-.04.12-.03.24-.08.35-.14.05.11.14.21.25.26.07.04.15.06.23.08.11.02.22.03.33.03h.67c.12,0,.24,0,.36-.03.11-.02.22-.04.33-.06.1-.03.2-.06.29-.1.09-.03.17-.07.25-.11.05.03.12.06.21.09.09.04.19.07.28.1.12.03.23.06.35.08.13.02.26.03.4.03h.63c.28.02.56-.12.72-.35.05.04.11.09.17.13.07.05.14.09.22.12.09.04.18.07.28.09.12.02.23.03.35.03.17,0,.33-.03.49-.09.27-.11.48-.33.58-.61.05-.13.07-.27.07-.42,0-.09-.01-.19-.03-.28-.02-.1-.05-.19-.1-.29-.04-.09-.1-.18-.17-.26-.06-.08-.14-.16-.23-.22-.1-.06-.2-.11-.31-.15-.12-.04-.25-.06-.38-.05-.11,0-.22.02-.32.05-.13.04-.26.11-.37.21-.14.12-.27.27-.36.43-.14.23-.24.48-.31.73-.04.18-.2.31-.39.3h-.61c-.08,0-.14-.01-.22-.02-.07,0-.13-.02-.19-.03l-.16-.04c.11-.11.22-.24.31-.37.07-.1.14-.2.19-.32.04-.08.07-.17.1-.26.02-.06.02-.13.02-.2,0-.1-.03-.2-.09-.27-.06-.08-.14-.14-.23-.18-.1-.05-.21-.09-.32-.1-.11-.02-.23-.04-.34-.04-.13,0-.27.01-.4.03-.12.02-.24.05-.35.08-.1.03-.2.06-.29.1-.09.04-.16.07-.22.1-.03.02-.06.05-.08.09-.03.04-.05.09-.07.14-.02.05-.04.11-.06.16-.02.05-.03.09-.04.14.02.02.04.05.07.08l.12.17.11.15.14.17c.05.06.1.12.16.18.05.06.11.11.16.16-.09.03-.18.05-.28.07-.14.02-.27.02-.41.02h-.58s-.09,0-.14-.01c-.03,0-.06-.03-.08-.06-.02-.03-.03-.07-.04-.1,0-.06-.01-.11-.01-.17v-1.82h-.72v.31c-.11.03-.22.06-.35.1-.13.04-.26.08-.38.13-.13.05-.25.11-.37.19-.12.07-.22.15-.32.24-.09.09-.16.19-.22.31-.06.12-.08.25-.08.38,0,.14.03.29.1.41.06.11.15.21.25.29M61.28,32.45c.04-.11.09-.21.15-.31.05-.08.12-.16.2-.22.07-.05.16-.08.25-.08.09,0,.17.02.25.07.07.04.13.1.18.16.05.06.09.14.11.22.02.07.04.14.04.22,0,.09-.01.17-.04.25-.03.06-.07.12-.12.16-.06.04-.12.07-.19.09-.08.02-.17.03-.25.03-.07,0-.13,0-.19-.02-.07-.01-.13-.03-.2-.05-.06-.02-.12-.04-.17-.07-.04-.02-.08-.04-.11-.07.02-.13.06-.25.1-.37M57.88,32.04c-.05-.07-.09-.13-.12-.18.05-.02.11-.05.17-.07.06-.02.12-.04.18-.05.06-.02.12-.03.18-.03.05,0,.1-.01.15-.01.07,0,.14,0,.2.02.06.01.11.03.16.06.04.02.08.05.1.09.02.03.04.07.04.11,0,.04-.01.08-.03.12-.02.06-.05.11-.09.16-.05.07-.1.13-.15.19-.07.07-.15.14-.23.2-.07-.05-.13-.11-.19-.17-.07-.07-.13-.14-.2-.22-.06-.07-.12-.15-.17-.22M54.65,32.18c.06-.08.13-.15.22-.2.11-.06.22-.12.33-.16.14-.05.29-.09.43-.12v.94c-.17.11-.37.16-.57.16-.06,0-.12,0-.17-.02-.05-.01-.11-.03-.15-.06-.05-.03-.08-.07-.11-.12-.03-.06-.05-.12-.04-.18,0-.09.02-.17.07-.24"/>
  <path class="cls-1" d="M55.69,30.36s.07.06.11.08c.04.02.09.03.14.03.1,0,.18-.04.25-.1.03-.03.06-.07.08-.11.02-.04.03-.09.03-.14s0-.1-.03-.14c-.02-.04-.04-.08-.08-.11-.07-.07-.16-.1-.25-.1-.05,0-.1,0-.14.03-.08.04-.15.1-.19.19-.02.04-.03.09-.03.14s0,.1.03.14c.02.04.04.08.08.11"/>
  <path class="cls-1" d="M63.95,33.33c.08.08.17.15.27.19.13.05.26.07.4.07h4.57v-4h-.73v3.39h-.9s-.09-.03-.11-.07c-.03-.06-.06-.13-.08-.19-.02-.08-.04-.17-.06-.28-.02-.11-.03-.22-.05-.33-.02-.13-.06-.26-.12-.38-.05-.11-.13-.22-.22-.3-.09-.09-.2-.15-.32-.2-.14-.05-.29-.07-.44-.07-.15,0-.29.01-.43.04-.13.03-.26.06-.39.1v.57c.06-.03.12-.05.18-.06.06-.02.13-.03.19-.05.06-.01.12-.02.18-.02.05,0,.09,0,.14,0,.1,0,.2.02.28.08.07.05.13.12.17.2.04.09.08.18.09.28.02.1.04.22.05.31.01.07.03.15.05.22.02.06.04.12.07.17h-1.96c-.05,0-.1,0-.15-.02-.04-.02-.08-.04-.1-.07-.03-.04-.05-.09-.06-.14-.01-.08-.02-.15-.02-.23v-2.94h-.73v3.08c0,.13.01.25.05.38.03.11.09.21.16.29"/>
  <path class="cls-1" d="M66.1,34.72s.09.03.14.03.09,0,.14-.03c.04-.02.08-.04.11-.08.03-.03.06-.07.08-.11.02-.04.03-.09.03-.14s0-.1-.03-.14c-.02-.04-.05-.08-.08-.11-.03-.03-.07-.06-.11-.08-.04-.02-.09-.03-.14-.03s-.1,0-.14.03c-.04.02-.08.04-.11.08s-.06.07-.08.11c-.02.04-.03.09-.03.14,0,.1.04.19.1.25.03.03.07.06.11.08"/>
  <rect class="cls-1" x="69.92" y="29.59" width=".72" height="4"/>
  <path class="cls-1" d="M52.58,44.15c.12-.12.22-.25.34-.39.05-.06.09-.12.13-.19.04-.07.08-.14.11-.22.03-.07.06-.14.08-.22.02-.07.03-.15.03-.23,0-.12-.02-.25-.06-.37-.03-.1-.1-.19-.18-.26-.08-.07-.17-.12-.28-.15-.12-.04-.24-.05-.36-.05-.29,0-.57.07-.83.2l.04.47c.1-.06.2-.12.31-.16.11-.04.22-.06.34-.06.06,0,.12,0,.17.02.05.01.1.03.15.07.04.03.08.07.1.12.03.05.04.11.04.17,0,.09-.02.18-.07.26-.05.1-.11.2-.17.29-.07.1-.15.2-.24.29-.09.1-.18.19-.27.28-.09.09-.18.17-.26.25-.08.08-.15.14-.22.19v.47h1.86v-.43h-1.14c.13-.12.25-.24.37-.36"/>
  <path class="cls-1" d="M55.58,42.88c-.03-.1-.06-.21-.11-.3-.05-.09-.1-.18-.18-.25-.07-.07-.16-.13-.26-.17-.12-.04-.24-.06-.36-.06-.12,0-.23.02-.35.06-.1.04-.18.1-.25.17-.07.08-.13.16-.18.25-.05.1-.08.2-.11.31-.03.11-.05.22-.06.33-.01.11-.02.22-.02.33s0,.22.02.33c.01.11.03.22.06.33.03.11.06.21.11.3.04.09.1.18.18.25.07.07.16.13.26.17.23.08.48.08.71,0,.1-.04.18-.1.26-.17.07-.07.13-.15.18-.25.05-.1.08-.2.11-.3.03-.11.05-.22.06-.33.01-.11.02-.22.02-.33s0-.22-.02-.34c-.01-.11-.03-.22-.06-.34M55.09,43.86c0,.06,0,.11-.02.17,0,.06-.02.12-.03.17-.01.05-.03.1-.05.14-.02.04-.04.08-.07.12-.03.04-.06.07-.11.09-.05.02-.1.03-.15.03-.06,0-.12-.02-.18-.05-.05-.04-.09-.09-.12-.15-.03-.07-.06-.13-.07-.21-.02-.07-.03-.14-.04-.22,0-.07-.01-.15-.01-.22v-.35c0-.07,0-.14.01-.22,0-.08.02-.15.03-.23.01-.07.04-.14.07-.21.03-.06.07-.11.12-.15.05-.04.11-.06.18-.06.06,0,.12.01.17.05.05.03.09.07.12.12.03.05.06.11.07.17.02.07.03.14.04.2,0,.07.01.14.01.2,0,.07,0,.13,0,.19v.4Z"/>
  <polygon class="cls-1" points="56.11 42.8 56.39 43.17 56.87 42.78 56.87 44.95 57.43 44.95 57.43 42.14 56.93 42.14 56.11 42.8"/>
  <polygon class="cls-1" points="58.35 42.8 58.63 43.17 59.1 42.78 59.1 44.95 59.66 44.95 59.66 42.14 59.17 42.14 58.35 42.8"/>
  <rect class="cls-1" x="60.4" y="43.64" width="1.05" height=".44"/>
  <polygon class="cls-1" points="61.92 42.8 62.2 43.17 62.67 42.78 62.67 44.95 63.24 44.95 63.24 42.14 62.74 42.14 61.92 42.8"/>
  <path class="cls-1" d="M65.65,42.13h-.7l-1.05,1.77v.45h1.21v.58h.54v-.58h.35v-.42h-.36v-1.8ZM65.11,43.94h-.7l.69-1.22v1.22Z"/>
  <path class="cls-1" d="M67.92,43.71c-.04-.06-.1-.11-.17-.14-.07-.04-.15-.07-.24-.08.08-.02.15-.06.22-.1.06-.04.12-.09.17-.14.05-.06.08-.12.1-.19.06-.19.05-.4-.04-.58-.06-.09-.13-.16-.22-.22-.09-.06-.19-.1-.29-.12-.11-.02-.23-.03-.34-.03-.14,0-.27.01-.4.03-.13.02-.26.06-.39.11l.03.45c.1-.05.2-.09.3-.11.11-.03.22-.04.32-.04.06,0,.12,0,.18.02.05.01.11.03.15.06.05.03.08.07.11.12.03.05.04.12.04.18,0,.05-.01.1-.04.15-.02.04-.05.08-.09.1-.04.03-.08.05-.13.06-.05.02-.1.03-.16.04-.05,0-.11.01-.16.02h-.31v.44h.21c.08,0,.16,0,.24.01.08,0,.15.03.22.06.15.07.23.22.22.37,0,.06-.02.13-.06.18-.04.05-.09.09-.15.12-.06.03-.12.06-.19.07-.06.01-.13.02-.19.02-.11,0-.21-.01-.32-.03-.11-.02-.21-.05-.31-.09l-.03.48c.12.04.24.06.36.07.12.01.25.02.37.02.19,0,.37-.03.55-.1l.08-.03s.05-.02.08-.04c.06-.03.11-.07.16-.12.09-.1.15-.22.18-.35.03-.14.03-.29-.01-.44-.01-.08-.04-.15-.08-.22"/>
  <path class="cls-1" d="M69.55,44.15c.12-.12.23-.25.34-.39.05-.06.09-.12.14-.19.04-.07.08-.14.11-.22.03-.07.06-.14.08-.22.02-.07.03-.15.03-.23,0-.12-.02-.25-.06-.37-.04-.1-.1-.19-.18-.26-.08-.07-.18-.12-.28-.15-.12-.03-.24-.05-.36-.05-.15,0-.29.02-.44.05-.14.03-.28.08-.4.15l.04.47c.1-.06.2-.12.31-.16.11-.04.22-.06.34-.06.06,0,.12,0,.17.02.05.01.1.03.15.07.09.07.14.18.14.29,0,.09-.02.18-.06.26-.05.1-.11.2-.17.29-.07.1-.15.2-.24.29-.09.1-.18.19-.27.28-.09.09-.17.17-.26.25l-.22.19v.47h1.86v-.43h-1.14c.14-.12.26-.24.38-.36"/>
  <path class="cls-1" d="M64.02,6.18c.2,0,.41-.05.58-.16h.01c.4-.23.62-.67.58-1.12l3.63-2.11,6.8,3.92v2.8h.98v-3.37l-7.78-4.48-4.12,2.39c-.37-.26-.87-.28-1.26-.06h-.01c-.55.33-.74,1.05-.41,1.6.21.35.59.57.99.57h0Z"/>
  <path class="cls-1" d="M70.96,24.67h-.01c-.4-.22-.89-.2-1.26.07l-3.87-2.17v-9.69h-.98v10.26l4.37,2.45c-.04.45.2.89.59,1.11h.02c.56.32,1.28.12,1.59-.45.32-.56.12-1.28-.45-1.59h0Z"/>
  <path class="cls-1" d="M82.14,20.49h0c-.42.25-.65.72-.59,1.21l-4.28,2.54-8.39-4.84-.49.86,8.88,5.14,4.77-2.83c.4.29.92.31,1.35.06.59-.32.81-1.07.49-1.66-.32-.59-1.07-.81-1.66-.49-.03.01-.05.03-.08.05v-.02Z"/>
  <path class="cls-1" d="M86.03,8.81v-.03c-.04-.65-.59-1.14-1.23-1.11-.61.03-1.09.53-1.11,1.14v.03c0,.45.27.86.68,1.05l.06,5.25-8.39,4.84.49.85,8.88-5.13-.06-5.81c.41-.2.68-.62.67-1.07"/>
  <path class="cls-1" d="M74.84,2.19h.02c.4.24.89.22,1.26-.05l4.06,2.33v8.67l-1.89,1.11-.91,1.71-4.06,1.64-2.48-1.71-.77-2.26-1.63-1.6-.69.7,1.46,1.44.8,2.35,3.18,2.19,4.87-1.97.95-1.78,2.14-1.26V3.91l-4.55-2.61c.04-.45-.19-.89-.58-1.12l-.02-.03c-.56-.32-1.27-.13-1.6.43-.32.56-.13,1.27.43,1.6h0Z"/>
  <path class="cls-1" d="M61.63,16.79v-5.02l8.01-4.65.87.49.22,2.18,1.55,1.52,2.09.85,1,1.48,1.01.75.58-.79-.87-.65-1.05-1.61-2.19-.9-1.16-1.13-.24-2.31-1.81-1.02-8.98,5.22v5.59c-.42.19-.68.61-.68,1.06v.02c.03.65.57,1.15,1.22,1.12.61-.03,1.09-.51,1.12-1.12v-.02c0-.46-.26-.88-.68-1.07"/>
</svg>