<?xml version="1.0" encoding="UTF-8"?>
<svg id="Layer_1" data-name="Layer 1" xmlns="http://www.w3.org/2000/svg" viewBox="0 0 90 45">
  <defs>
    <style>
      .cls-1 {
        fill: #fff;
      }
    </style>
  </defs>
  <path class="cls-1" d="M2.86,29.1l1.48-4.02,1.41,4.02h-2.89ZM7.2,33.15h1.36l-3.52-9.68h-1.34L0,33.15h1.37l1.08-2.97h3.69l1.05,2.97ZM13.64,31.1c0,.79-.64,1.21-1.73,1.21-.88,0-1.48-.25-1.8-.82l-1.31.23c.51,1.04,1.57,1.54,3.06,1.54,2.02,0,3.08-1.12,3.08-2.31,0-1.53-1.41-1.95-3.04-2.28-.79-.16-1.71-.45-1.71-1.14,0-.5.48-1.07,1.45-1.07s1.58.67,1.67.94l1.15-.48c-.53-1-1.58-1.41-2.68-1.41-1.7,0-2.83.84-2.83,2.17,0,1.52,1.3,1.81,2.56,2.09,1.08.23,2.13.5,2.13,1.33ZM17.65,23.47l-1.27.53v1.79h-1.17v1.03h1.17v4.73c-.02.96-.02,1.66,1.41,1.66.47,0,.98-.09,1.2-.12v-1.02c-.25.08-.57.17-.81.17-.53,0-.53-.37-.53-1.24v-4.17h1.34v-1.03h-1.34v-2.32ZM20.1,25.79v7.36h1.23v-3.39c0-.63-.02-1.38.31-1.91.4-.65,1-.9,2.21-.91v-1.28c-.5.02-1.82.05-2.52,1.44v-1.32h-1.23ZM31.16,23.47v1.19h5.5l-5.51,7.23v1.26h7.11v-1.16h-5.62l5.48-7.31v-1.21h-6.97ZM46.01,25.79v7.36h1.24v-4.18c0-.55,0-1.1.55-1.65.39-.39.86-.56,1.41-.56.67,0,1.36.31,1.58,1.01.08.25.08.47.08,1.21v4.16h1.23v-4.36c0-.62,0-1.07-.13-1.51-.36-1.21-1.48-1.68-2.42-1.68-.44,0-1.61.11-2.29,1.31v-1.12h-1.24ZM65.2,31.37c-.26.5-.74.96-1.7.96-.83,0-2.22-.52-2.22-2.95,0-.65.12-2.97,2.15-2.97,1.03,0,1.5.56,1.72,1.04l1.16-.48c-.71-1.19-2-1.46-2.92-1.46-2.34,0-3.48,1.89-3.48,3.97,0,1.8.98,3.81,3.58,3.81,1.51,0,2.35-.73,2.81-1.45l-1.09-.46ZM40.05,28.7h3.9c-.11-1.92-1.22-2.25-1.96-2.25-1.06,0-1.8.78-1.94,2.25ZM44.97,31.74c-.42.72-1.23,1.54-2.84,1.54-2.17,0-3.43-1.48-3.43-3.95,0-2.76,1.83-3.82,3.38-3.82,1.35,0,2.64.75,3.08,2.59.14.62.14,1.18.14,1.49h-5.29c-.03,1.23.48,2.79,2.22,2.76.71-.01,1.21-.33,1.53-.84l1.2.23ZM54.09,28.7h3.9c-.11-1.92-1.22-2.25-1.96-2.25-1.06,0-1.8.78-1.94,2.25ZM59.01,31.74c-.42.72-1.23,1.54-2.84,1.54-2.17,0-3.42-1.48-3.42-3.95,0-2.76,1.82-3.82,3.37-3.82,1.35,0,2.64.75,3.08,2.59.14.62.14,1.18.14,1.49h-5.29c-.03,1.23.49,2.79,2.22,2.76.71-.01,1.21-.33,1.53-.84l1.2.23ZM73.05,33.15h-1.29s-.11-.51-.15-1.08c-.37.39-1.06,1.19-2.46,1.19s-2.49-.85-2.49-2.09c0-.39.11-.78.33-1.11.42-.62,1.2-1.12,3.39-1.29l1.17-.09v-.19c0-.76,0-2.04-1.64-2.04-1.03,0-1.38.5-1.5.95l-1.14-.48s.04-.08.06-.12c.44-.81,1.29-1.31,2.53-1.31.68,0,1.56.17,2.14.62.82.62.8,1.85.8,1.85l.05,3.77s.04,1.1.2,1.4ZM71.36,31.12c.19-.41.2-.57.2-1.65-.48.08-1.13.17-1.93.34-1.37.3-1.6.81-1.6,1.32,0,.59.47,1.09,1.38,1.09.86,0,1.59-.34,1.94-1.11ZM30.29,33.15h-1.29s-.11-.51-.15-1.08c-.37.39-1.07,1.19-2.46,1.19s-2.49-.85-2.49-2.09c0-.39.11-.78.33-1.11.42-.62,1.2-1.12,3.39-1.29l1.16-.09v-.19c0-.76,0-2.04-1.64-2.04-1.03,0-1.38.5-1.5.95l-1.14-.48s.04-.08.06-.12c.44-.81,1.29-1.31,2.54-1.31.68,0,1.56.17,2.14.62.82.62.8,1.85.8,1.85l.05,3.77s.05,1.1.2,1.4ZM28.6,31.12c.19-.41.2-.57.2-1.65-.48.08-1.13.17-1.93.34-1.37.3-1.6.81-1.6,1.32,0,.59.47,1.09,1.38,1.09.85,0,1.59-.34,1.94-1.11Z"/>
  <path class="cls-1" d="M81.09,26.95c-.19.12-.38.24-.57.37-2.22-1.23-6.98-3.61-7.4-3.82-.44-.23-1.21-.54-1.12-1.27.14-1.03,1.92-3.29,2.68-4.21,4.11-5.03,5.95-6.58,7.17-6.42,1.3.17,2.03,1.52,2.11,7.82-.73-.22-1.53-.46-2.38-.67-.07-.92-.24-2.3-.31-2.78-.07-.54-.18-.74-.39-.77-.25-.03-.85.54-1.39,1.1-.25.25-.95.96-1.72,1.74-.64-.04-1.07.09-1.31.41-.19.25-.23.6-.12,1.03-.42.42-.78.78-1,1-.86.86-1.76,1.56-1.81,1.91-.04.28.4.58,1.01.95,1.51.9,5.22,2.91,6.54,3.62ZM86.86,20.66c-1.45-.5-5.04-1.84-8.82-2.34-1.3-.17-1.82.29-1.29,1.53.53,1.22,1.9,3.27,3.33,4.81,1.43,1.54,2.99,1.95,3.48-.42.02-.08.03-.17.05-.25.12-.61.21-1.2.25-1.72-.64-.29-1.35-.6-2.06-.9.04.54.1,1.48.14,2.2,0,.09,0,.18.01.27.04,1.17-.36,1.17-1.02.69-.78-.55-3.15-3.69-3.42-5.07-.01-.09.03-.09.08-.08.02,0,.04.01.06.02,0,0,0,0,0,0h0c.54.21,2.32.91,4.13,1.68.72.31,1.45.62,2.1.91.64.29,1.22.56,1.64.79.78.42,1.09.7.76,1.04-1.63,1.66-7.32,4.01-9.29,6.92,0,0,0,0-.02.03-.02.03-.04.07-.06.1,0,.01-.01.02-.02.03-.1.18-.24.49-.28.86-.08.64.25,1.22,1.16,1.46.23.07.49.12.78.15.05,0,.11,0,.16.01,1.75.09,6.31-.91,7.7-1.53,1.43-.64,1-1.27.59-1.6-.31-.25-1.91-1.14-2.68-1.57-.21.13-.37.24-.57.37,1.32.8,1.84,1.2,2.15,1.44.12.09.05.2-.12.21-.05,0-.09,0-.14.01-1.25.09-3.62.25-4.73.31-.16.01-.35.02-.45.02.28-.26.59-.49.74-.6,2.38-1.67,6.34-4.02,7.51-5.03.86-.74,3.21-3.02-1.84-4.79Z"/>
</svg>