<?xml version="1.0" encoding="UTF-8"?>
<svg id="Layer_1" data-name="Layer 1" xmlns="http://www.w3.org/2000/svg" viewBox="0 0 90 45">
  <defs>
    <style>
      .cls-1 {
        fill: #fff;
      }
    </style>
  </defs>
  <path class="cls-1" d="M31.03,32.57l-.46.34-.04.03-.09.07-.1.08-.1.07-.11.06-.11.07-.11.06-.12.06-.12.06-.12.06-.13.06-.13.04-.12.05-.13.04-.12.05-.12.02-.13.03-.12.03-.13.02h-.11c-.49.11-.98.14-1.51.14h-.38c-2.5-.05-4.58-.88-6.26-2.45-1.67-1.58-2.54-3.57-2.6-5.95v-9.38c.06-2.38.93-4.36,2.6-5.94,1.67-1.59,3.75-2.41,6.26-2.46h.49c.47,0,.91.03,1.33.1l.12.02h.12s.13.04.13.04l.12.03.13.03.13.04.13.04.12.04.13.04.13.05.13.06.11.05.12.05.11.07.11.06.03.02.04.03.05.03.04.03.05.03.04.03.04.03.05.03.04.03.04.03.04.03.04.03.03.03.03.03.04.03.04.03.04.04.03.03.07.05.06.04.09.02h.09s.09,0,.09,0l.09-.02.08-.04.07-.05.05-.07.04-.08.02-.08v-.09s.35-.84.35-.84l.66-.03h3.16l.95.32.03,1.22v19.98c0,1.77.07,3.57-.13,5.34-.56,4.92-3.02,9.11-8.23,10.03-3.16.56-6.3-.58-8.74-2.59l-.9-1.08.18-.39,2.17-2.32.57-.38c.32,0,.65.3,1.22.63.98.58,2.04,1.11,3.16,1.27.71.1,1.49,0,2.16-.22,2.65-.85,3.38-4.19,3.53-6.8v-.14s-.01-.05-.01-.05v-.02s-.03-.04-.03-.04l-.02-.05-.03-.03-.03-.03-.03-.02-.03-.02-.04-.03-.04-.02h-.04s-.04-.02-.04-.02h-.04s-.05-.01-.05-.01h-.04s-.05.01-.05.01h-.04s-.04.02-.04.02l-.07.05ZM31.59,25.71v-9.41c-.03-1.25-.49-2.03-1.35-2.74-.87-.7-1.69-1.06-2.92-1.07h-.47c-1.28.03-2.12.45-2.98,1.26-.87.8-1.31,1.62-1.35,2.84v8.7c.04,1.22.48,2.04,1.35,2.84.86.81,1.7,1.23,2.98,1.26h.47c1.23,0,2.05-.37,2.92-1.07.87-.7,1.32-1.45,1.35-2.62"/>
  <polygon class="cls-1" points="72.44 33.45 72.44 30.01 72.28 29.57 71.86 29.44 62.38 29.44 61.9 29.32 61.74 28.99 61.87 28.57 72.25 8.98 72.33 8.78 72.37 8.58 71.74 8.12 54.73 8.12 54.15 8.69 54.15 12.13 54.73 12.7 63.61 12.7 64.08 12.83 64.24 13.17 64.21 13.37 64.13 13.57 53.64 33.16 53.56 33.36 53.52 33.56 54.15 34.02 71.86 34.02 72.3 33.89 72.44 33.45"/>
  <polygon class="cls-1" points="43.02 4.79 43.19 5.23 43.71 5.4 47.29 5.4 47.81 5.23 47.98 4.8 47.98 4.69 47.98 .71 47.81 .19 47.28 0 47 0 46.39 .27 43.39 3.62 43.24 3.8 43.02 4.34 43.02 4.69 43.02 4.79"/>
  <polygon class="cls-1" points="47.95 8.72 47.81 8.25 47.34 8.1 43.61 8.1 43.14 8.27 42.99 8.72 42.99 8.81 42.99 22.81 42.99 33.41 43.14 33.86 43.61 34.03 47.34 34.03 47.81 33.84 47.95 33.41 47.95 8.72"/>
</svg>