<?xml version="1.0" encoding="UTF-8"?>
<svg id="Layer_1" data-name="Layer 1" xmlns="http://www.w3.org/2000/svg" viewBox="0 0 90 45">
  <defs>
    <style>
      .cls-1 {
        fill: #fff;
      }
    </style>
  </defs>
  <g>
    <polygon class="cls-1" points="24.49 0 24.49 0 24.49 0 24.49 0"/>
    <path class="cls-1" d="M65.04,5.38c.09-.25.16-.5.2-.76.34-1.53.28-2.94.27-4.25,0-.12,0-.23,0-.35,0,0,0,0,0,0h0s0,0,0,0h0c-1.44,2.47-6.63,4.41-11.43,5.73-.21.06-.42.12-.62.19,0,0,0,0,0,0-.16.05-.33.12-.49.18-.05.02-.1.04-.15.06-.15.06-.3.13-.45.19-.06.02-.11.05-.17.07-.15.07-.29.14-.43.21-.05.03-.11.05-.16.08-.14.08-.28.15-.42.23-.05.03-.1.06-.15.09-.14.08-.28.17-.41.26-.05.03-.09.06-.14.09-.14.09-.27.19-.4.28-.04.03-.08.06-.12.09-.13.1-.27.2-.39.31-.04.03-.07.06-.11.09-.08.07-.16.13-.24.2,0,0,0,0,0,0-1.18,1.04-2.15,2.29-2.86,3.69,0,0,0,.01,0,.02,0,.02-.02.03-.02.05-.01.02-.02.05-.04.07-.81,1.66-1.27,3.51-1.27,5.45v1.9s0,.02,0,.03c-.36-2.25-1.24-3.9-2.03-4.97-1.32-1.8-2.93-2.83-4-3.19-.6-.2-1.05-.2-1.19,0l-.06.09-.05-.1c-.13-.24-.12-.55,0-.82,0,0,0,0,0,0,.07-.15.16-.26.27-.35.11-.09.25-.15.39-.18.02,0,.05,0,.07-.01.05,0,.09,0,.14,0,.12,0,.25.02.38.05h0s0-.01,0-.01l.02-.06c-.17-.06-.33-.1-.49-.1,0,0,0,0,0,0-.02,0-.04,0-.07,0-.02,0-.04,0-.06,0,0,0,0,0-.01,0,0,0,0,0,0,0,0,0-.01,0-.02,0h.02c.3-.7,1.06-1.26,1.98-1.46.17-.04.34-.06.5-.07-1.38-1.21-3.03-2.13-4.89-2.64C31.12,4.42,25.93,2.48,24.49,0h0s0,0,0,0c0,.03,0,.06,0,.08,0,.07,0,.14,0,.21-.01,1.35-.07,2.81.29,4.39.04.21.09.42.16.62.55,1.83,1.73,3.82,4.26,5.95h0c.52.46,1.09.85,1.69,1.19,1.12.66,2.34,1.14,3.57,1.62t0,0c4.7,1.33,9.5,3.21,10.54,5.52,0,0,0,0,0,0h0s.03-.06.05-.1c.02-.03.03-.06.05-.09,0,0,0,0,0,0,.56-1.03,1.87-1.97,3.56-2.81.02-.01.04-.02.06-.03.02-.01.04-.02.06-.03h0c1.94-.95,4.36-1.77,6.75-2.44t0,0c1.22-.48,2.44-.95,3.57-1.62.65-.36,1.26-.8,1.81-1.3,2.42-2.07,3.58-3.99,4.12-5.78Z"/>
    <polygon class="cls-1" points="65.51 0 65.52 0 65.51 0 65.51 0 65.51 0 65.51 0 65.51 0 65.51 0"/>
    <path class="cls-1" d="M39.9,9.56l-.4.22-.03.02c.1.19.31.29.51.27.07,0,.14-.03.2-.06.25-.14.34-.46.2-.71l-.23.12-.26.14Z"/>
  </g>
  <g>
    <g>
      <path class="cls-1" d="M3.96,35.48v-.95h1.06c.44,0,.66-.23.66-.68v-4.13h.95v4.23c0,.52-.13.91-.39,1.16-.26.25-.67.37-1.22.37h-1.06Z"/>
      <path class="cls-1" d="M12.13,32.68c.06,0,.11.02.14.06.04.04.06.09.06.14v.55c0,.06-.02.11-.06.14-.04.04-.09.06-.14.06h-.7v.31c0,.53-.13.92-.39,1.16-.26.25-.66.37-1.21.37h-1.64v-.95h1.64c.44,0,.66-.23.66-.68v-.21h-1.09c-.4,0-.74-.14-1.01-.42-.27-.28-.4-.62-.4-1.04v-.9c0-.45.15-.84.45-1.16.3-.32.67-.48,1.12-.48h.31c.45,0,.83.15,1.12.46.3.3.44.7.44,1.19v1.41h.7ZM8.93,31.88c0,.24.06.44.17.58.12.14.28.22.5.22h.88v-1.41c0-.22-.06-.38-.19-.5-.13-.12-.29-.18-.49-.18h-.2c-.19,0-.35.06-.48.18-.13.12-.2.29-.2.5v.61Z"/>
      <path class="cls-1" d="M12.15,33.63c-.06,0-.11-.02-.14-.06-.04-.04-.06-.09-.06-.14v-.55c0-.06.02-.11.06-.14.04-.04.09-.06.14-.06h2.44c.05,0,.1.02.14.06.04.04.06.09.06.14v.55c0,.06-.02.11-.06.14-.04.04-.09.06-.14.06h-2.44Z"/>
      <path class="cls-1" d="M14.59,33.63c-.06,0-.11-.02-.14-.06s-.06-.09-.06-.14v-.55c0-.06.02-.11.06-.14.04-.04.09-.06.14-.06h2.44c.05,0,.1.02.14.06.04.04.06.09.06.14v.55c0,.06-.02.11-.06.14-.04.04-.09.06-.14.06h-2.44Z"/>
      <path class="cls-1" d="M17.04,33.63c-.06,0-.11-.02-.14-.06s-.06-.09-.06-.14v-.55c0-.06.02-.11.06-.14.04-.04.09-.06.14-.06h2.44c.05,0,.1.02.14.06.04.04.06.09.06.14v.55c0,.06-.02.11-.06.14s-.09.06-.14.06h-2.44Z"/>
      <path class="cls-1" d="M24.39,32.68c.05,0,.1.02.14.06.04.04.06.09.06.14v.55c0,.06-.02.11-.06.14-.04.04-.09.06-.14.06-.55,0-.93-.2-1.12-.61-.3.41-.73.61-1.31.61h-2.47c-.06,0-.11-.02-.14-.06-.04-.04-.06-.09-.06-.14v-.55c0-.06.02-.11.06-.14.04-.04.09-.06.14-.06h.91l-.4-1.41c0-.45.14-.84.42-1.16.28-.32.69-.49,1.23-.49h.32c.49,0,.89.14,1.18.43.3.29.44.69.44,1.21v.61c0,.28.06.48.19.61.13.13.33.19.62.19ZM21.48,28.07v.95h-.92v-.95h.92ZM22.64,31.95v-.68c0-.19-.07-.36-.2-.49-.13-.13-.29-.2-.48-.2h-.34c-.22,0-.39.07-.52.2-.12.14-.18.32-.18.55l.33,1.34h.71c.19,0,.35-.07.48-.2.13-.13.19-.31.19-.54ZM23.01,28.07v.95h-.93v-.95h.93Z"/>
      <path class="cls-1" d="M31.12,32.68c.05,0,.1.02.14.06.04.04.06.09.06.14v.55c0,.06-.02.11-.06.14-.04.04-.09.06-.14.06-.53,0-.89-.18-1.09-.55-.26.37-.7.55-1.32.55h-4.3c-.14,0-.2-.09-.2-.26v-.42c0-.18.07-.27.2-.27h.82v-2.94h3.49c.51,0,.9.14,1.18.43.28.29.42.68.42,1.17v.54c0,.28.06.48.19.61s.33.19.62.19ZM29.36,32.02v-.68c0-.2-.06-.36-.18-.47-.12-.12-.28-.17-.47-.17h-2.55v1.99h2.55c.43,0,.65-.22.65-.66Z"/>
      <path class="cls-1" d="M31.12,33.63c-.05,0-.1-.02-.14-.06-.04-.04-.06-.09-.06-.14v-.55c0-.06.02-.11.06-.14.04-.04.09-.06.14-.06h.46c.46,0,.69-.22.69-.66v-4.45h.95v4.45c0,.53-.13.94-.39,1.21-.26.27-.68.41-1.27.41h-.44Z"/>
      <path class="cls-1" d="M34.67,33.63v-6.07h.95v6.07h-.95Z"/>
      <path class="cls-1" d="M44.54,29.71h1.71v3.92h-.95v-2.97h-.77c-.48,0-.72.25-.72.74v2.4c0,1.1-.57,1.65-1.7,1.65h-.96c-.59,0-1.04-.18-1.36-.53-.32-.35-.47-.78-.47-1.28v-1.56h.95v1.45c0,.31.08.55.23.72.16.17.37.25.65.25h.97c.49,0,.74-.24.74-.71v-2.4c0-1.13.55-1.7,1.66-1.7ZM40.34,37.17v-.95h.93v.95h-.93ZM41.87,37.17v-.95h.93v.95h-.93Z"/>
      <path class="cls-1" d="M47.18,33.63v-.95h1.71c.24,0,.44-.08.59-.24.15-.16.2-.36.17-.59l-.13-.78c-.03-.2-.12-.36-.26-.47-.14-.12-.3-.17-.48-.17h-.31v-.95h.31c.99,0,1.54.43,1.66,1.29l.2,1.39c.06.42-.06.77-.36,1.06-.3.29-.71.43-1.23.43h-1.87Z"/>
      <path class="cls-1" d="M53.33,33.63c-.45,0-.8-.14-1.05-.41-.25-.28-.38-.66-.38-1.15v-4.51h.95v4.52c0,.4.21.6.62.6h.24c.05,0,.1.02.14.06.04.04.06.09.06.14v.55c0,.06-.02.11-.06.14s-.09.06-.14.06h-.38Z"/>
      <path class="cls-1" d="M53.71,33.63c-.06,0-.11-.02-.14-.06-.04-.04-.06-.09-.06-.14v-.55c0-.06.02-.11.06-.14.04-.04.09-.06.14-.06h2.44c.05,0,.1.02.14.06.04.04.06.09.06.14v.55c0,.06-.02.11-.06.14-.04.04-.09.06-.14.06h-2.44Z"/>
      <path class="cls-1" d="M56.16,33.63c-.06,0-.11-.02-.14-.06-.04-.04-.06-.09-.06-.14v-.55c0-.06.02-.11.06-.14.04-.04.09-.06.14-.06h2.44c.05,0,.1.02.14.06.04.04.06.09.06.14v.55c0,.06-.02.11-.06.14-.04.04-.09.06-.14.06h-2.44Z"/>
      <path class="cls-1" d="M58.59,33.63c-.05,0-.1-.02-.14-.06s-.06-.09-.06-.14v-.55c0-.06.02-.11.06-.14.04-.04.09-.06.14-.06h.46c.46,0,.69-.22.69-.66v-2.3h.95v2.3c0,.53-.13.94-.39,1.21-.26.27-.68.41-1.27.41h-.44ZM59.77,29.11v-.98h.95v.98h-.95Z"/>
      <path class="cls-1" d="M72.68,29.69h.95v2.38c0,.56-.14.98-.41,1.27-.27.29-.65.44-1.13.44-.53,0-.94-.15-1.22-.46-.26.31-.64.46-1.15.46-.31,0-.58-.05-.83-.16v.18c0,1.11-.57,1.66-1.7,1.66h-.96c-.59,0-1.04-.18-1.36-.53s-.48-.78-.48-1.28v-1.56h.95v1.44c0,.31.08.55.23.72.16.17.37.26.65.26h.97c.49,0,.74-.24.74-.72v-3.54h.95v1.81c0,.51.23.76.69.76.49,0,.73-.25.73-.76v-1.81h.95v1.81c0,.51.23.76.69.76.49,0,.73-.25.73-.76v-2.38Z"/>
      <path class="cls-1" d="M76.51,27.36v.65h-2.08v-.65h.38c-.06-.1-.09-.2-.09-.32v-.13c0-.25.09-.46.26-.63.17-.17.38-.25.63-.25h.48v.65h-.48c-.07,0-.13.02-.17.07-.05.05-.07.1-.07.16v.17c0,.08.02.15.06.2.04.05.1.08.17.08h.89ZM76.8,32.68c.05,0,.1.02.14.06.04.04.06.09.06.14v.55c0,.06-.02.11-.06.14s-.09.06-.14.06h-.38c-.45,0-.8-.14-1.05-.41-.25-.28-.38-.66-.38-1.15v-3.55h.95v3.56c0,.4.21.6.62.6h.24Z"/>
      <path class="cls-1" d="M76.8,33.63c-.06,0-.11-.02-.14-.06-.04-.04-.06-.09-.06-.14v-.55c0-.06.02-.11.06-.14.04-.04.09-.06.14-.06h2.44c.05,0,.1.02.14.06.04.04.06.09.06.14v.55c0,.06-.02.11-.06.14-.04.04-.09.06-.14.06h-2.44Z"/>
      <path class="cls-1" d="M79.25,33.63c-.06,0-.11-.02-.14-.06s-.06-.09-.06-.14v-.55c0-.06.02-.11.06-.14.04-.04.09-.06.14-.06h2.44c.05,0,.1.02.14.06.04.04.06.09.06.14v.55c0,.06-.02.11-.06.14-.04.04-.09.06-.14.06h-2.44Z"/>
      <path class="cls-1" d="M84.7,30.11c.53.14.88.31,1.07.51.18.2.28.55.28,1.03v.42c0,.53-.12.92-.35,1.18-.24.26-.65.38-1.23.38h-2.76c-.14,0-.2-.09-.2-.26v-.42c0-.18.07-.27.2-.27h2.77c.23,0,.39-.05.49-.14.1-.09.14-.24.14-.46v-.43c0-.19-.05-.33-.14-.41-.09-.09-.26-.16-.49-.21l-1.96-.46-.34-1.25,3.67-2.46.06.03v1.07l-2.63,1.64.03.14,1.41.38Z"/>
    </g>
    <g>
      <path class="cls-1" d="M7.47,38.96v.8h-2.54v1.76h1.98v.8h-1.98v2.61h-.98v-5.98h3.52Z"/>
      <path class="cls-1" d="M11.99,43.72h-2.5l-.43,1.22h-1.02l2.14-5.99h1.14l2.14,5.99h-1.03l-.43-1.22ZM11.72,42.92l-.97-2.78-.98,2.78h1.95Z"/>
      <path class="cls-1" d="M15.36,44.15h2.02v.79h-3v-5.98h.98v5.19Z"/>
      <path class="cls-1" d="M18.28,40.36c.27-.46.64-.83,1.11-1.09.47-.26.98-.39,1.54-.39.64,0,1.2.16,1.7.47.5.31.86.76,1.08,1.33h-1.18c-.15-.32-.37-.55-.65-.71-.28-.15-.59-.23-.95-.23-.4,0-.75.09-1.06.27-.31.18-.55.43-.73.77-.17.33-.26.72-.26,1.16s.09.83.26,1.16c.17.33.42.59.73.77.31.18.66.27,1.06.27.36,0,.68-.08.95-.23.28-.15.49-.39.65-.71h1.18c-.22.57-.58,1.01-1.08,1.32-.5.31-1.06.46-1.7.46-.56,0-1.08-.13-1.54-.39-.46-.26-.83-.62-1.11-1.09-.27-.46-.41-.99-.41-1.57s.14-1.11.41-1.57Z"/>
      <path class="cls-1" d="M26.04,44.61c-.47-.26-.84-.62-1.11-1.09-.27-.47-.41-.99-.41-1.58s.14-1.11.41-1.57c.27-.46.64-.83,1.11-1.09.47-.26.98-.39,1.54-.39s1.08.13,1.54.39c.47.26.84.62,1.11,1.09.27.46.4.99.4,1.57s-.13,1.11-.4,1.58c-.27.47-.64.83-1.11,1.09-.47.26-.98.39-1.54.39s-1.07-.13-1.54-.39ZM28.63,43.88c.31-.18.55-.44.73-.77.17-.34.26-.72.26-1.17s-.09-.83-.26-1.16c-.17-.33-.42-.59-.73-.77-.31-.18-.66-.27-1.06-.27s-.75.09-1.06.27c-.31.18-.55.43-.73.77-.17.33-.26.72-.26,1.16s.09.83.26,1.17c.17.34.42.59.73.77.31.18.66.27,1.06.27s.75-.09,1.06-.27Z"/>
      <path class="cls-1" d="M36.5,44.94h-.98l-2.95-4.46v4.46h-.98v-5.99h.98l2.95,4.46v-4.46h.98v5.99Z"/>
      <path class="cls-1" d="M38.68,44.79c-.32-.14-.57-.34-.76-.6-.18-.26-.28-.56-.28-.9h1.05c.02.26.12.47.31.64.18.17.43.25.76.25s.6-.08.79-.25c.19-.16.28-.37.28-.63,0-.2-.06-.36-.18-.49-.12-.13-.26-.22-.44-.29-.17-.07-.42-.14-.73-.22-.39-.1-.71-.21-.95-.31-.24-.11-.45-.27-.62-.49-.17-.22-.26-.52-.26-.89,0-.34.09-.65.26-.9.17-.26.41-.46.72-.59.31-.14.67-.21,1.08-.21.58,0,1.05.14,1.42.43.37.29.57.69.61,1.19h-1.08c-.02-.22-.12-.4-.31-.56-.19-.15-.44-.23-.75-.23-.28,0-.51.07-.69.21-.18.14-.27.35-.27.62,0,.18.06.33.17.45.11.12.25.21.43.28.17.07.41.14.71.22.4.11.72.22.97.33.25.11.46.28.64.5.17.23.26.53.26.91,0,.3-.08.59-.25.86-.16.27-.4.49-.71.65-.31.16-.68.25-1.11.25-.4,0-.76-.07-1.08-.21Z"/>
      <path class="cls-1" d="M45.31,40.36c.27-.46.64-.83,1.11-1.09.47-.26.98-.39,1.54-.39.64,0,1.2.16,1.7.47.5.31.86.76,1.08,1.33h-1.18c-.15-.32-.37-.55-.65-.71-.28-.15-.59-.23-.95-.23-.4,0-.75.09-1.06.27-.31.18-.55.43-.73.77-.17.33-.26.72-.26,1.16s.09.83.26,1.16c.17.33.42.59.73.77.31.18.66.27,1.06.27.36,0,.68-.08.95-.23.28-.15.49-.39.65-.71h1.18c-.22.57-.58,1.01-1.08,1.32-.5.31-1.06.46-1.7.46-.56,0-1.08-.13-1.54-.39-.46-.26-.83-.62-1.11-1.09-.27-.46-.41-.99-.41-1.57s.14-1.11.41-1.57Z"/>
      <path class="cls-1" d="M52.85,44.15h2.02v.79h-3v-5.98h.98v5.19Z"/>
      <path class="cls-1" d="M56.66,38.96v3.81c0,.45.12.79.36,1.02.24.23.57.34.99.34s.76-.11,1-.34c.24-.23.36-.57.36-1.02v-3.81h.98v3.79c0,.49-.11.9-.32,1.24-.21.34-.5.59-.85.76-.36.17-.75.25-1.18.25s-.82-.08-1.17-.25c-.35-.17-.63-.42-.84-.76-.21-.34-.31-.75-.31-1.24v-3.79h.98Z"/>
      <path class="cls-1" d="M65.64,42.38c.22.28.34.6.34.95,0,.3-.08.58-.24.82-.16.24-.39.44-.68.58-.3.14-.65.21-1.04.21h-2.39v-5.98h2.28c.41,0,.76.07,1.05.21.29.14.51.32.66.55.15.23.22.49.22.78,0,.34-.09.63-.28.86-.18.23-.43.4-.74.51.32.06.59.23.82.51ZM62.61,41.47h1.21c.32,0,.57-.07.75-.22.18-.15.27-.36.27-.63s-.09-.48-.27-.63c-.18-.15-.43-.23-.75-.23h-1.21v1.71ZM64.71,43.9c.19-.16.28-.38.28-.67s-.1-.52-.3-.7c-.2-.17-.47-.26-.8-.26h-1.29v1.87h1.32c.33,0,.59-.08.78-.24Z"/>
      <path class="cls-1" d="M69.36,40.36c.27-.46.64-.83,1.11-1.09.47-.26.98-.39,1.54-.39.64,0,1.2.16,1.7.47.5.31.86.76,1.08,1.33h-1.18c-.15-.32-.37-.55-.65-.71-.28-.15-.59-.23-.95-.23-.4,0-.75.09-1.06.27-.31.18-.55.43-.73.77-.17.33-.26.72-.26,1.16s.09.83.26,1.16c.17.33.42.59.73.77.31.18.66.27,1.06.27.36,0,.68-.08.95-.23.28-.15.49-.39.65-.71h1.18c-.22.57-.58,1.01-1.08,1.32-.5.31-1.06.46-1.7.46-.56,0-1.08-.13-1.54-.39-.46-.26-.83-.62-1.11-1.09-.27-.46-.41-.99-.41-1.57s.14-1.11.41-1.57Z"/>
      <path class="cls-1" d="M76.9,38.96v3.81c0,.45.12.79.36,1.02.24.23.57.34.99.34s.76-.11,1-.34c.24-.23.36-.57.36-1.02v-3.81h.98v3.79c0,.49-.11.9-.32,1.24-.21.34-.5.59-.85.76-.36.17-.75.25-1.18.25s-.82-.08-1.17-.25c-.35-.17-.63-.42-.84-.76-.21-.34-.31-.75-.31-1.24v-3.79h.98Z"/>
      <path class="cls-1" d="M85.83,41.6c-.14.27-.37.49-.69.66-.32.17-.72.25-1.21.25h-1.08v2.43h-.98v-5.98h2.06c.46,0,.85.08,1.17.24.32.16.56.37.71.64.16.27.24.57.24.9,0,.3-.07.59-.22.86ZM84.76,41.46c.18-.17.28-.41.28-.72,0-.65-.37-.98-1.11-.98h-1.08v1.95h1.08c.37,0,.65-.08.83-.25Z"/>
    </g>
  </g>
</svg>