<?xml version="1.0" encoding="UTF-8"?>
<svg id="Layer_1" data-name="Layer 1" xmlns="http://www.w3.org/2000/svg" viewBox="0 0 90 45">
  <defs>
    <style>
      .cls-1 {
        fill: #fff;
      }
    </style>
  </defs>
  <path class="cls-1" d="M4.82,21.22c-.31,0-.61.05-.91.15-.3.1-.57.24-.8.45-.24.2-.43.45-.6.77-.16.32-.24.69-.25,1.11h5.03c-.01-.38-.08-.73-.22-1.04-.14-.32-.32-.57-.53-.78-.22-.21-.48-.37-.77-.49-.31-.13-.61-.18-.94-.18M4.97,29.86c-.81,0-1.52-.14-2.15-.42-.62-.29-1.13-.67-1.54-1.14-.41-.48-.72-1.04-.94-1.67-.21-.63-.32-1.31-.32-2.02,0-.75.12-1.43.35-2.05.23-.62.56-1.15.97-1.61.41-.45.92-.8,1.51-1.06.59-.25,1.25-.38,1.97-.38.77,0,1.46.15,2.06.44.6.3,1.1.7,1.51,1.22.4.52.71,1.12.9,1.83.2.71.26,1.47.22,2.31H2.25c.01.39.08.76.23,1.09.14.34.33.62.56.88.23.24.51.43.81.57.32.14.66.2,1.02.2,1.18,0,1.98-.45,2.37-1.37h2.15c-.11.39-.29.78-.52,1.16-.23.39-.53.73-.89,1.03-.36.3-.79.54-1.3.73-.5.18-1.07.27-1.71.27"/>
  <path class="cls-1" d="M11.14,17.11h2.19v2.61h1.99v1.59h-1.99v5.38c0,.51.08.84.24,1,.16.17.48.24.94.24h.79v1.67h-1.62c-.53,0-.95-.04-1.29-.12-.33-.08-.59-.22-.77-.41-.18-.2-.31-.47-.38-.8-.06-.34-.11-.76-.11-1.26v-5.72h-1.47v-1.59h1.47v-2.6Z"/>
  <path class="cls-1" d="M18.75,29.61h-2.19v-9.89h2.19v9.89ZM18.75,18.49h-2.19v-2.2h2.19v2.2Z"/>
  <path class="cls-1" d="M26.56,22.49c-.11-.47-.37-.8-.77-1.02s-.92-.32-1.54-.32c-.51,0-.93.1-1.3.29-.36.19-.54.45-.54.78,0,.61.48,1.02,1.44,1.22l1.34.27c.49.11.95.23,1.39.38.43.14.81.32,1.13.54.32.22.57.5.75.81.18.33.28.73.28,1.21,0,.52-.12.97-.34,1.37-.22.4-.53.73-.92.99-.39.26-.84.47-1.34.6-.51.14-1.05.21-1.63.21-.63,0-1.22-.08-1.73-.25-.52-.17-.97-.4-1.34-.7-.37-.3-.68-.65-.9-1.05-.22-.4-.37-.85-.41-1.32h2.14c.1.53.34.94.72,1.23.38.3.92.44,1.62.44.61,0,1.1-.12,1.47-.34.37-.22.55-.54.55-.93s-.16-.69-.49-.9c-.33-.21-.75-.37-1.28-.48l-1.49-.32c-.43-.08-.82-.2-1.2-.34-.37-.14-.69-.33-.95-.55-.26-.22-.48-.51-.62-.82-.16-.33-.23-.72-.23-1.16s.11-.84.32-1.18c.21-.35.51-.65.88-.89.37-.24.79-.43,1.29-.57.49-.14,1.02-.2,1.57-.2.52,0,1,.06,1.47.18.47.13.89.31,1.26.56.37.25.69.56.95.94.26.37.44.81.54,1.31h-2.05Z"/>
  <path class="cls-1" d="M36.29,24.96c-.78.07-1.45.16-2.01.25-.55.1-1,.22-1.36.37-.36.15-.61.32-.78.53-.17.2-.24.44-.24.73,0,.43.17.76.5,1.02.33.24.77.37,1.32.37.8,0,1.44-.22,1.89-.67.45-.44.68-1.2.68-2.23v-.37h.01ZM34.21,19.43c.61,0,1.18.07,1.7.22.52.15.97.39,1.35.72.38.33.67.76.88,1.3.2.54.3,1.21.29,1.99,0,.13,0,.29-.01.49s-.01.42-.01.66,0,.48-.01.73c-.01.25-.01.49-.01.71,0,.62.02,1.24.07,1.85.05.6.13,1.12.22,1.53h-2.01c-.03-.21-.07-.41-.11-.6-.03-.2-.06-.47-.08-.8-.31.55-.74.96-1.3,1.24-.56.27-1.22.41-1.95.41-.54,0-1.04-.07-1.48-.21-.44-.14-.84-.34-1.16-.6-.33-.25-.57-.57-.75-.93-.18-.36-.26-.77-.26-1.23,0-.61.18-1.12.53-1.52.36-.4.84-.74,1.44-.99.6-.25,1.31-.45,2.12-.59.8-.14,1.66-.25,2.57-.35v-.24c0-.41-.05-.76-.17-1.04-.11-.27-.26-.5-.45-.67-.19-.17-.41-.29-.67-.35-.25-.06-.54-.11-.85-.11-.56,0-1.04.15-1.42.44-.38.3-.58.74-.6,1.34h-2.15c.03-.51.17-.96.39-1.37.22-.41.52-.77.89-1.08.37-.3.81-.53,1.32-.7.51-.16,1.07-.24,1.68-.24"/>
  <rect class="cls-1" x="40.24" y="16.29" width="2.19" height="13.33"/>
  <path class="cls-1" d="M50.57,24.96c-.78.07-1.45.16-2,.25-.55.1-1,.22-1.36.37-.36.15-.61.32-.78.53-.17.2-.24.44-.24.73,0,.43.17.76.5,1.02.33.24.77.37,1.32.37.8,0,1.44-.22,1.89-.67.45-.44.68-1.2.68-2.23v-.37ZM48.5,19.43c.61,0,1.18.07,1.7.22.52.15.97.39,1.35.72.38.33.67.76.88,1.3.2.54.3,1.21.29,1.99,0,.13,0,.29-.01.49s-.01.42-.01.66,0,.48-.01.73c-.01.25-.01.49-.01.71,0,.62.02,1.24.07,1.85.05.6.13,1.12.22,1.53h-2.01c-.03-.21-.07-.41-.11-.6-.03-.2-.06-.47-.08-.8-.31.55-.74.96-1.3,1.24-.56.27-1.22.41-1.95.41-.54,0-1.04-.07-1.48-.21-.44-.14-.84-.34-1.16-.6-.33-.25-.57-.57-.75-.93-.18-.36-.26-.77-.26-1.23,0-.61.18-1.12.53-1.52.36-.4.84-.74,1.44-.99.6-.25,1.31-.45,2.12-.59.8-.14,1.66-.25,2.57-.35v-.24c0-.41-.05-.76-.17-1.04-.11-.27-.26-.5-.45-.67-.19-.17-.41-.29-.67-.35-.25-.06-.54-.11-.85-.11-.56,0-1.04.15-1.42.44-.38.3-.58.74-.6,1.34h-2.15c.03-.51.17-.96.39-1.37.22-.41.52-.77.89-1.08.37-.3.81-.53,1.32-.7.51-.16,1.07-.24,1.68-.24"/>
  <path class="cls-1" d="M54.79,17.11h2.19v2.61h1.99v1.59h-1.99v5.38c0,.51.08.84.24,1,.16.17.48.24.94.24h.79v1.67h-1.62c-.53,0-.95-.04-1.29-.12-.33-.08-.59-.22-.77-.41-.18-.2-.31-.47-.38-.8-.06-.34-.11-.76-.11-1.26v-5.72h-1.47v-1.59h1.47v-2.6Z"/>
  <path class="cls-1" d="M74.49,21.27c1.28,0,2.45.93,2.51,2.46h-5.12c.18-1.86,1.59-2.46,2.61-2.46M82.41,17.78c.8,0,1.46.45,1.46,1.35,0,.82-.5,1.63-1.61,2.13l-.02-.02c-.66-.7-1.28-1.5-1.28-2.26.01-.76.69-1.2,1.45-1.2M86.92,26.31c.71-1.25,1.13-2.65,1.28-4.02h-2.19c-.05.85-.22,1.7-.51,2.46-.29.75-.66,1.42-1.13,1.98-.71.82-1.63,1.35-2.67,1.35-1.23,0-2.07-.53-2.4-1.41h-2.35c-.38.91-1.28,1.37-2.41,1.37-1.25,0-2.53-.9-2.67-2.73h7.33c.19-.9.9-1.58,2.05-2.01,0,0,1.07-.39,2.13-.85,1.46-.68,2.56-1.88,2.56-3.42,0-2.18-1.86-2.93-3.54-2.93-2.13,0-3.69,1.11-3.69,2.89,0,1.05.57,2.03,1.41,3.01-.44.16-.87.36-1.26.61-.68-1.87-2.23-3.08-4.36-3.08-2.8,0-4.82,2.1-4.82,5.07s1.81,5.22,4.97,5.22c1.45,0,2.55-.53,3.31-1.27.77.79,1.94,1.27,3.36,1.27,1.76,0,3.18-.7,4.28-1.78l1.41,1.53h2.98l-3.08-3.3Z"/>
  <path class="cls-1" d="M4.8,21.22c-.31,0-.61.05-.91.15-.3.1-.57.24-.8.45-.24.2-.43.45-.6.77-.16.32-.24.69-.25,1.11h5.03c-.01-.38-.08-.73-.22-1.04-.14-.32-.32-.57-.53-.78-.22-.21-.48-.37-.77-.49-.3-.12-.6-.18-.94-.18M4.95,29.86c-.8,0-1.52-.14-2.15-.42-.62-.29-1.13-.67-1.54-1.14-.41-.48-.72-1.04-.94-1.67-.21-.63-.32-1.31-.32-2.02,0-.75.12-1.43.35-2.05.23-.62.56-1.15.97-1.61.41-.45.92-.8,1.51-1.06.59-.25,1.25-.38,1.97-.38.77,0,1.46.15,2.06.44.6.3,1.1.7,1.51,1.22.4.52.71,1.12.9,1.83.2.71.26,1.47.22,2.31H2.23c.01.39.08.76.23,1.09.14.34.33.62.56.88.23.24.51.43.81.57.32.14.66.2,1.02.2,1.18,0,1.98-.45,2.37-1.37h2.15c-.11.39-.29.78-.52,1.16-.23.39-.53.73-.89,1.03-.36.3-.79.54-1.3.73-.49.19-1.06.27-1.71.27"/>
  <path class="cls-1" d="M11.13,17.11h2.19v2.61h1.98v1.59h-1.99v5.38c0,.51.08.84.24,1,.16.17.48.24.94.24h.79v1.67h-1.62c-.53,0-.95-.04-1.29-.12-.33-.08-.59-.22-.77-.41-.18-.2-.31-.47-.38-.8-.06-.34-.11-.76-.11-1.26v-5.72h-1.47v-1.59h1.47v-2.6h.01Z"/>
  <path class="cls-1" d="M18.73,29.61h-2.19v-9.89h2.19v9.89ZM18.73,18.5h-2.19v-2.21h2.19v2.21Z"/>
  <path class="cls-1" d="M26.53,22.51c-.11-.47-.37-.8-.77-1.02s-.92-.32-1.54-.32c-.51,0-.93.1-1.3.29-.36.19-.54.45-.54.78,0,.61.48,1.02,1.44,1.22l1.34.27c.49.11.95.23,1.39.38.43.14.81.32,1.13.54.32.22.57.5.75.81.18.33.28.73.28,1.21,0,.52-.12.97-.34,1.37-.22.4-.53.73-.92.99-.39.26-.84.47-1.34.6-.51.14-1.05.21-1.63.21-.63,0-1.22-.08-1.73-.25-.52-.17-.97-.4-1.34-.7-.37-.3-.68-.65-.9-1.05-.22-.4-.36-.85-.41-1.32h2.14c.1.53.34.94.72,1.23.38.3.92.44,1.62.44.61,0,1.1-.12,1.47-.34.37-.22.55-.54.55-.93s-.16-.69-.49-.9c-.33-.21-.75-.37-1.28-.48l-1.49-.32c-.43-.08-.82-.2-1.2-.34-.37-.14-.69-.33-.95-.55-.26-.22-.48-.51-.62-.82-.16-.33-.23-.72-.23-1.16s.11-.84.32-1.18c.21-.35.51-.65.88-.89.37-.24.79-.43,1.29-.57.49-.14,1.02-.2,1.57-.2.52,0,1,.06,1.47.18.47.13.89.31,1.26.56.37.25.69.56.95.94.26.37.44.81.54,1.31h-2.05Z"/>
  <path class="cls-1" d="M36.27,24.97c-.78.07-1.45.16-2,.25-.55.1-1,.22-1.36.37-.36.15-.61.32-.78.53-.17.2-.24.44-.24.73,0,.43.17.76.5,1.02.33.24.77.37,1.32.37.8,0,1.44-.22,1.89-.67.45-.44.68-1.2.68-2.23v-.37ZM34.19,19.44c.61,0,1.18.07,1.7.22.52.15.97.39,1.35.72.38.33.67.76.88,1.3.2.54.3,1.21.29,1.99,0,.13,0,.29-.01.49s-.01.42-.01.66,0,.48-.01.73c-.01.25-.01.49-.01.71,0,.62.02,1.24.07,1.85.05.6.13,1.12.22,1.53h-2.01c-.03-.21-.07-.41-.11-.6-.03-.2-.06-.47-.08-.8-.31.55-.74.96-1.3,1.24-.56.27-1.22.41-1.95.41-.54,0-1.04-.07-1.48-.21-.44-.14-.84-.34-1.16-.6-.33-.25-.57-.57-.75-.93-.18-.36-.26-.77-.26-1.23,0-.61.18-1.12.53-1.52.36-.4.84-.74,1.44-.99.6-.25,1.31-.45,2.12-.59.8-.14,1.66-.25,2.57-.35v-.24c0-.41-.05-.76-.17-1.04-.11-.27-.26-.5-.45-.67-.19-.17-.41-.29-.67-.35-.25-.06-.54-.11-.85-.11-.56,0-1.04.15-1.42.44-.38.3-.58.74-.6,1.34h-2.15c.03-.51.17-.96.39-1.37.22-.41.52-.77.89-1.08.37-.3.81-.53,1.32-.7.51-.17,1.07-.24,1.68-.24"/>
  <rect class="cls-1" x="40.23" y="16.3" width="2.19" height="13.33"/>
  <path class="cls-1" d="M50.56,24.97c-.78.07-1.45.16-2,.25-.55.1-1,.22-1.36.37-.36.15-.61.32-.78.53-.17.2-.24.44-.24.73,0,.43.17.76.5,1.02.33.24.77.37,1.32.37.8,0,1.44-.22,1.89-.67.45-.44.68-1.2.68-2.23v-.37ZM48.48,19.44c.61,0,1.18.07,1.7.22.52.15.97.39,1.35.72.38.33.67.76.88,1.3.2.54.3,1.21.29,1.99,0,.13,0,.29-.01.49s-.01.42-.01.66,0,.48-.01.73c-.01.25-.01.49-.01.71,0,.62.02,1.24.07,1.85.05.6.13,1.12.22,1.53h-2.01c-.03-.21-.07-.41-.11-.6-.03-.2-.06-.47-.08-.8-.31.55-.74.96-1.3,1.24-.56.27-1.22.41-1.95.41-.54,0-1.04-.07-1.48-.21-.44-.14-.84-.34-1.16-.6-.33-.25-.57-.57-.75-.93-.18-.36-.26-.77-.26-1.23,0-.61.18-1.12.53-1.52.36-.4.84-.74,1.44-.99.6-.25,1.31-.45,2.12-.59.8-.14,1.66-.25,2.57-.35v-.24c0-.41-.05-.76-.17-1.04-.11-.27-.26-.5-.45-.67-.19-.17-.41-.29-.67-.35-.25-.06-.54-.11-.85-.11-.56,0-1.04.15-1.42.44-.38.3-.58.74-.6,1.34h-2.15c.03-.51.17-.96.39-1.37.22-.41.52-.77.89-1.08.37-.3.81-.53,1.32-.7.51-.17,1.07-.24,1.68-.24"/>
  <path class="cls-1" d="M54.78,17.11h2.18v2.61h1.99v1.59h-1.99v5.38c0,.51.08.84.24,1,.16.17.48.24.94.24h.79v1.67h-1.62c-.53,0-.95-.04-1.29-.12-.33-.08-.59-.22-.77-.41-.18-.2-.31-.47-.38-.8-.06-.34-.11-.76-.11-1.26v-5.72h-1.47v-1.59h1.47v-2.6h.01Z"/>
  <path class="cls-1" d="M63.85,18.12c0,.2.02.38.07.54.05.16.11.28.19.38s.18.18.3.22c.12.05.23.07.36.07.28,0,.49-.11.65-.33.15-.21.23-.51.23-.89s-.07-.67-.23-.88c-.15-.21-.37-.33-.65-.33-.13,0-.24.02-.36.07-.12.05-.21.13-.3.22s-.15.22-.19.38c-.04.15-.07.33-.07.53M63.88,15.12v1.7c.11-.18.24-.31.42-.4.18-.1.39-.15.62-.15.21,0,.41.04.6.13.19.08.35.21.49.37.14.16.24.36.32.58.07.22.12.48.12.76s-.04.54-.12.77c-.07.22-.18.42-.32.58-.14.16-.3.29-.49.37-.19.08-.38.13-.6.13s-.44-.05-.62-.15c-.18-.1-.32-.23-.42-.4v.47h-.78v-4.76h.78Z"/>
  <path class="cls-1" d="M66.73,21.02v-.59h.3c.08,0,.16,0,.22-.01s.12-.02.17-.06c.05-.03.1-.08.14-.15.04-.06.07-.16.12-.26l.04-.08-1.28-3.51h.86l.8,2.53.8-2.53h.8l-1.24,3.52c-.08.22-.16.41-.24.56-.07.15-.17.26-.26.35-.11.08-.22.15-.35.18-.14.03-.31.05-.5.05h-.38Z"/>
</svg>