<?xml version="1.0" encoding="UTF-8"?>
<svg id="Layer_1" data-name="Layer 1" xmlns="http://www.w3.org/2000/svg" viewBox="0 0 90 45">
  <defs>
    <style>
      .cls-1 {
        fill: #fff;
      }
    </style>
  </defs>
  <g>
    <path class="cls-1" d="M0,19.09C0,14.28,3.32,12.37,6.26,12.37c3.15,0,6.12,1.89,6.12,6.43,0,4.85-3.32,6.7-6.26,6.7C2.97,25.51,0,23.49,0,19.09M8.9,19.2c0-4.29-.73-6.06-2.75-6.06-1.78,0-2.67,1.25-2.67,5.57s.7,6.03,2.75,6.03c1.81,0,2.67-1.23,2.67-5.53"/>
    <path class="cls-1" d="M13.09,24.79l.48-.13c.6-.16.68-.26.68-1.04v-5.7c0-.79-.09-.84-.6-1.19l-.6-.4v-.37l3.87-.44.2.13-.04,1.17h.07c.97-.7,2.18-1.3,3.52-1.3,1.56,0,2.4.81,2.4,2.45v5.64c0,.81.07.9.66,1.04l.48.13v.49h-5.11v-.49l.44-.11c.55-.15.6-.2.6-1.06v-4.93c0-1.12-.4-1.47-1.26-1.47-.64,0-1.3.15-1.7.24v6.15c0,.88.05.92.6,1.06l.44.11v.49h-5.11v-.49Z"/>
    <path class="cls-1" d="M24.41,20.49c0-3.19,2.36-4.96,4.78-4.96s4.1,1.26,4.16,4.58h-6.05c.05,3,1.19,3.83,3.08,3.83,1.14,0,2-.33,2.69-.7v.6c-.64.71-2.03,1.67-3.88,1.67-3.19,0-4.78-1.91-4.78-5.02M27.3,19.41l3.13-.16c0-2.22-.29-3.02-1.39-3.02-.93,0-1.67.88-1.74,3.19"/>
    <path class="cls-1" d="M33.67,24.77l.62-.13c.55-.13.71-.22.71-1.34v-8.74c0-1.12-.16-1.21-.71-1.34l-.62-.13v-.51h5.99v.51l-.6.13c-.59.16-.71.22-.71,1.34v3.81h4.1v-3.81c0-1.12-.13-1.17-.71-1.34l-.6-.13v-.51h5.99v.51l-.6.13c-.57.13-.73.22-.73,1.34v8.74c0,1.12.16,1.19.73,1.34l.6.13v.51h-5.99v-.51l.6-.13c.59-.16.71-.22.71-1.34v-4.09h-4.1v4.09c0,1.12.13,1.17.71,1.34l.6.13v.51h-5.99v-.51Z"/>
    <path class="cls-1" d="M47.32,20.49c0-3.19,2.36-4.96,4.78-4.96s4.1,1.26,4.16,4.58h-6.05c.05,3,1.19,3.83,3.08,3.83,1.14,0,2-.33,2.69-.7v.6c-.64.71-2.03,1.67-3.88,1.67-3.19,0-4.78-1.91-4.78-5.02M50.21,19.41l3.13-.16c0-2.22-.29-3.02-1.39-3.02-.93,0-1.67.88-1.74,3.19"/>
    <path class="cls-1" d="M56.95,23.09c0-1.61,1.23-2.33,3.3-2.82l1.85-.46v-1.59c0-1.52-.29-1.98-1.3-1.98-.55,0-.73.15-.77.66-.09,1.15-.48,1.61-1.43,1.61-.81,0-1.25-.42-1.25-1.14,0-1.17,1.5-1.85,4.05-1.85,2.29,0,3.63.71,3.63,2.51v5.07c0,.68.07.95.42,1.14.24.13.6.17.86.18v.44c-.35.27-1.08.64-2.14.64s-1.7-.4-1.91-1.12h-.09c-.46.59-1.28,1.12-2.47,1.12-1.72,0-2.75-.88-2.75-2.42M62.09,23.67v-2.93l-.84.07c-.93.07-1.43.49-1.43,1.81,0,1.19.53,1.58,1.25,1.58.51,0,.86-.22,1.03-.53"/>
    <path class="cls-1" d="M66.61,24.79l.48-.13c.64-.16.71-.26.71-1.04v-9.82c0-.9-.07-.97-.6-1.25l-.68-.33v-.42l4.07-.37.2.15s-.07.92-.07,2.14v9.89c0,.82.07.88.71,1.04l.48.13v.49h-5.29v-.49Z"/>
    <path class="cls-1" d="M73.13,22.98v-6.12h-1.15v-.44c1.43-.55,2.53-1.61,3.04-3.08h1.04v2.44h2.44l-.24,1.08h-2.2v5.94c0,.92.27,1.28,1.19,1.28.44,0,.99-.09,1.32-.16v.51c-.44.4-1.36,1.08-2.89,1.08-1.65,0-2.55-.73-2.55-2.53"/>
    <path class="cls-1" d="M78.9,24.79l.48-.13c.6-.16.68-.26.68-1.04v-9.82c0-.9-.06-.99-.57-1.25l-.68-.33v-.42l4.03-.37.2.15s-.07.92-.07,2.14v1.25c0,1.01-.05,1.81-.05,1.81h.09c.99-.68,2.12-1.26,3.46-1.26,1.56,0,2.4.81,2.4,2.45v5.64c0,.81.07.9.66,1.04l.48.13v.49h-5.11v-.49l.44-.11c.55-.15.6-.2.6-1.06v-4.93c0-1.12-.4-1.47-1.26-1.47-.64,0-1.3.15-1.7.24v6.15c0,.88.05.92.6,1.06l.44.11v.49h-5.11v-.49Z"/>
  </g>
  <g>
    <path class="cls-1" d="M0,32.59v-4.2h1.27l.76,2.87.75-2.87h1.27v4.2h-.79v-3.31l-.83,3.31h-.82l-.83-3.31v3.31h-.79Z"/>
    <path class="cls-1" d="M6.66,31.62l.8.13c-.1.29-.27.52-.49.67-.22.15-.5.23-.84.23-.53,0-.92-.17-1.18-.52-.2-.28-.3-.63-.3-1.05,0-.5.13-.9.4-1.19.26-.29.6-.43,1-.43.45,0,.81.15,1.07.45.26.3.39.76.38,1.37h-2.02c0,.24.07.42.19.56.12.13.28.2.46.2.13,0,.23-.03.32-.1.09-.07.15-.18.19-.33ZM6.7,30.81c0-.23-.07-.41-.18-.53-.11-.12-.25-.18-.42-.18-.18,0-.32.06-.44.19-.11.13-.17.3-.17.52h1.2Z"/>
    <path class="cls-1" d="M10.95,32.59h-.75v-.45c-.12.17-.27.3-.44.39-.17.09-.34.13-.51.13-.35,0-.65-.14-.9-.42-.25-.28-.37-.68-.37-1.18s.12-.91.36-1.18c.24-.27.55-.4.92-.4.34,0,.63.14.88.42v-1.51h.81v4.2ZM8.8,31c0,.32.04.56.13.71.13.21.31.32.54.32.19,0,.34-.08.47-.24.13-.16.19-.39.19-.71,0-.35-.06-.6-.19-.76-.13-.15-.29-.23-.48-.23s-.35.08-.48.23c-.13.15-.19.38-.19.68Z"/>
    <path class="cls-1" d="M11.75,29.13v-.75h.81v.75h-.81ZM11.75,32.59v-3.04h.81v3.04h-.81Z"/>
    <path class="cls-1" d="M16.03,30.44l-.79.14c-.03-.16-.09-.28-.18-.36-.09-.08-.22-.12-.37-.12-.2,0-.36.07-.48.21-.12.14-.18.37-.18.7,0,.36.06.62.18.77.12.15.28.22.49.22.15,0,.28-.04.38-.13.1-.09.17-.24.21-.45l.79.13c-.08.36-.24.64-.47.82-.23.19-.55.28-.94.28-.45,0-.8-.14-1.06-.42s-.4-.67-.4-1.17.13-.89.4-1.17c.27-.28.62-.42,1.08-.42.37,0,.67.08.88.24.22.16.38.4.47.73Z"/>
    <path class="cls-1" d="M17.25,30.47l-.73-.13c.08-.29.22-.51.42-.65.2-.14.5-.21.89-.21.36,0,.63.04.8.13s.3.19.37.32c.07.13.11.37.11.72v.94c0,.27,0,.46.03.59.03.13.07.26.14.41h-.8c-.02-.05-.05-.13-.08-.24-.01-.05-.02-.08-.03-.09-.14.13-.28.23-.44.3-.16.07-.32.1-.5.1-.31,0-.56-.08-.74-.26s-.27-.39-.27-.64c0-.17.04-.33.12-.46.08-.13.2-.24.35-.31s.36-.13.64-.19c.38-.07.64-.14.78-.2v-.08c0-.15-.04-.27-.11-.33-.08-.07-.22-.1-.43-.1-.14,0-.26.03-.34.08-.08.06-.15.16-.19.3ZM18.32,31.13c-.1.03-.27.08-.49.12-.22.05-.37.09-.44.14-.11.07-.16.17-.16.28s.04.21.13.29c.08.08.19.12.32.12.15,0,.28-.05.42-.14.1-.07.16-.16.19-.27.02-.07.03-.2.03-.39v-.16Z"/>
    <path class="cls-1" d="M19.91,32.59v-4.2h.81v4.2h-.81Z"/>
    <path class="cls-1" d="M25.86,31.04l.82.26c-.13.46-.34.8-.63,1.02-.29.22-.67.33-1.12.33-.56,0-1.02-.19-1.38-.57s-.54-.9-.54-1.56c0-.7.18-1.24.54-1.63.36-.39.84-.58,1.42-.58.51,0,.93.15,1.25.46.19.18.33.44.43.77l-.84.2c-.05-.22-.15-.39-.31-.52-.16-.13-.35-.19-.57-.19-.31,0-.56.11-.76.34-.19.22-.29.59-.29,1.09,0,.53.1.91.29,1.14.19.23.44.34.75.34.23,0,.42-.07.58-.21.16-.14.28-.37.35-.68Z"/>
    <path class="cls-1" d="M29.17,31.62l.8.13c-.1.29-.27.52-.49.67-.22.15-.5.23-.84.23-.53,0-.92-.17-1.18-.52-.2-.28-.3-.63-.3-1.05,0-.5.13-.9.4-1.19.26-.29.6-.43,1-.43.45,0,.81.15,1.07.45.26.3.39.76.38,1.37h-2.02c0,.24.07.42.19.56.12.13.28.2.46.2.13,0,.23-.03.32-.1.09-.07.15-.18.19-.33ZM29.22,30.81c0-.23-.07-.41-.18-.53-.11-.12-.25-.18-.42-.18-.18,0-.32.06-.44.19-.11.13-.17.3-.17.52h1.2Z"/>
    <path class="cls-1" d="M33.44,32.59h-.81v-1.55c0-.33-.02-.54-.05-.64-.03-.1-.09-.17-.17-.23-.08-.05-.17-.08-.28-.08-.14,0-.26.04-.38.11-.11.08-.19.18-.23.3-.04.13-.06.36-.06.7v1.38h-.81v-3.04h.75v.45c.27-.34.6-.52,1-.52.18,0,.34.03.49.1.15.06.26.15.33.25.08.1.13.21.16.34s.04.31.04.54v1.89Z"/>
    <path class="cls-1" d="M35.66,29.54v.64h-.55v1.23c0,.25,0,.39.02.43.01.04.03.07.07.1.04.03.08.04.14.04.07,0,.18-.03.32-.08l.07.62c-.19.08-.4.12-.64.12-.15,0-.28-.02-.39-.07-.12-.05-.2-.11-.26-.19-.05-.08-.09-.18-.11-.31-.02-.09-.03-.28-.03-.57v-1.33h-.37v-.64h.37v-.6l.81-.47v1.07h.55Z"/>
    <path class="cls-1" d="M37.98,31.62l.8.13c-.1.29-.27.52-.49.67-.22.15-.5.23-.84.23-.53,0-.92-.17-1.18-.52-.2-.28-.3-.63-.3-1.05,0-.5.13-.9.4-1.19.26-.29.6-.43,1-.43.45,0,.81.15,1.07.45.26.3.39.76.38,1.37h-2.02c0,.24.07.42.19.56.12.13.28.2.46.2.13,0,.23-.03.32-.1.09-.07.15-.18.19-.33ZM38.02,30.81c0-.23-.07-.41-.18-.53-.11-.12-.25-.18-.42-.18-.18,0-.32.06-.44.19-.11.13-.17.3-.17.52h1.2Z"/>
    <path class="cls-1" d="M40.25,32.59h-.81v-3.04h.75v.43c.13-.2.24-.34.35-.4.1-.06.22-.1.35-.1.18,0,.36.05.53.15l-.25.7c-.14-.09-.26-.13-.38-.13s-.21.03-.29.09c-.08.06-.14.17-.18.34-.04.16-.07.5-.07,1.02v.94Z"/>
    <path class="cls-1" d="M41.48,31.72l.81-.12c.03.16.1.28.21.36.11.08.25.12.44.12.21,0,.37-.04.47-.11.07-.05.11-.13.11-.21,0-.06-.02-.11-.06-.15-.04-.04-.13-.07-.27-.11-.65-.14-1.06-.27-1.24-.39-.24-.16-.36-.39-.36-.69,0-.26.1-.49.31-.67.21-.18.53-.27.97-.27s.73.07.93.2c.2.14.34.34.42.6l-.76.14c-.03-.12-.09-.21-.18-.27s-.22-.09-.39-.09c-.21,0-.36.03-.46.09-.06.04-.09.1-.09.16,0,.06.03.11.08.15.07.05.32.13.75.23.43.1.73.22.9.36.17.14.25.34.25.6,0,.28-.12.52-.35.72-.23.2-.58.3-1.03.3-.41,0-.74-.08-.98-.25-.24-.17-.4-.4-.47-.69Z"/>
    <path class="cls-1" d="M49.85,32.59h-.83c-.47,0-.8-.24-.99-.72-.15.23-.43.35-.83.35-.7,0-1.16-.61-1.16-1.42,0-.87.44-1.44,1.22-1.44,0,0,.52,0,1.57,0v1.85c0,.39.2.6.6.6h.42v.79ZM47.43,28.81h-.73v-.68h.73v.68ZM47.98,30.73v-.77h-.54c-.33,0-.58.37-.58.83,0,.41.23.75.56.75.35,0,.56-.32.56-.8ZM48.53,28.81h-.73v-.68h.73v.68Z"/>
    <path class="cls-1" d="M50.29,33.56h-.73v-.68h.73v.68ZM52.34,32.59h-2.64v-.79h.54c.28,0,.41-.19.41-.56v-1.31h.83v1.28c0,.22-.03.41-.09.59h.96v.79ZM51.4,33.56h-.73v-.68h.73v.68Z"/>
    <path class="cls-1" d="M58.17,32.59h-6.08v-.79h.74c.27,0,.42-.14.42-.56v-1.03h.82v.76c.52-.66,1.2-1.05,1.86-1.05.96,0,1.53.68,1.6,1.88h.64v.79ZM56.67,31.8v-.11c0-.6-.29-1.06-.81-1.06-.6,0-1.14.39-1.6,1.17h2.41Z"/>
    <path class="cls-1" d="M64.01,32.59h-6.08v-.79h.74c.27,0,.42-.14.42-.56v-1.03h.82v.76c.52-.66,1.2-1.05,1.86-1.05.96,0,1.53.68,1.6,1.88h.64v.79ZM62.51,31.8v-.11c0-.6-.29-1.06-.81-1.06-.6,0-1.14.39-1.6,1.17h2.41Z"/>
    <path class="cls-1" d="M68.66,32.59h-4.79v-.79h3.33c-.02-.31-.13-.58-.33-.8-.23-.25-.53-.38-.9-.38s-.75.18-.98.42c-.08-.11-.22-.29-.41-.56.4-.42.88-.62,1.45-.62.35,0,.65.06.92.19.63.3,1,.88,1.1,1.75h.62v.79ZM66.38,29.48h-.73v-.68h.73v.68Z"/>
    <path class="cls-1" d="M69.13,29.48h-.73v-.68h.73v.68ZM70.29,31.45c0,.31-.09.57-.26.77-.19.24-.46.36-.8.36h-.7v-.79h.52c.28,0,.42-.19.42-.58v-1.3h.82v1.53ZM70.24,29.48h-.73v-.68h.73v.68Z"/>
    <path class="cls-1" d="M76.93,31.62c0,.61-.36.97-.99.97h-2.13c-1.3,0-1.94-.55-1.94-1.64v-1.02h.81v1.02c0,.35.11.59.33.71.17.1.44.15.82.15h1.51c.23,0,.39-.02.48-.06.19-.08.29-.26.29-.54v-1.27h.81v1.69ZM74.26,29.93h-.73v-.68h.73v.68ZM75.36,29.93h-.73v-.68h.73v.68Z"/>
    <path class="cls-1" d="M78.35,32.59h-.82v-3.79h.82v3.79Z"/>
    <path class="cls-1" d="M81.94,32.59h-2.95v-.79h2.13c0-.82-.45-1.19-1.49-1.19v-.69c.52,0,.88.04,1.1.11.8.28,1.22.87,1.22,1.76v.79Z"/>
    <path class="cls-1" d="M84.31,32.59h-.77c-.63,0-.99-.36-.99-.97v-2.82h.82v2.39c0,.4.1.61.7.61h.24v.79Z"/>
    <path class="cls-1" d="M84.79,33.56h-.73v-.68h.73v.68ZM86.84,32.59h-2.64v-.79h.54c.28,0,.41-.19.41-.56v-1.31h.83v1.28c0,.22-.03.41-.09.59h.96v.79ZM85.9,33.56h-.73v-.68h.73v.68Z"/>
    <path class="cls-1" d="M90,32.59h-3.31v-.79h.93c-.08-.21-.12-.39-.12-.56,0-.38.12-.71.37-.98.25-.27.57-.41.96-.41.5,0,.92.28,1.13.75l-.68.31c-.08-.23-.23-.35-.47-.35-.16,0-.29.06-.38.2-.08.11-.12.26-.12.43,0,.31.11.52.33.6h1.36v.79Z"/>
  </g>
</svg>