<?xml version="1.0" encoding="UTF-8"?>
<svg id="Layer_1" data-name="Layer 1" xmlns="http://www.w3.org/2000/svg" viewBox="0 0 90 45">
  <defs>
    <style>
      .cls-1 {
        fill: #fff;
      }
    </style>
  </defs>
  <rect class="cls-1" x="2.86" y="20.52" width=".54" height=".56"/>
  <path class="cls-1" d="M3.77,22.51v.39h-1.44v-.15c.11-.23.25-.43.43-.6s.35-.25.53-.25.28.06.35.18c.09.13.13.28.13.44M3.41,21.36c-.18,0-.33.03-.46.09-.13.06-.25.14-.35.23-.09.08-.18.19-.28.31v-.59h-.58v2.02c0,.08-.03.15-.06.23-.05.08-.11.13-.2.18-.09.05-.2.06-.33.06s-.25-.03-.34-.08-.15-.11-.19-.19-.06-.15-.06-.23c0-.11.05-.46.16-1.05v-.03l-.53-.03h-.03v.03c-.05.23-.09.45-.13.69s-.05.4-.05.5.04.28.1.41c.06.14.19.26.35.36.18.1.4.15.7.15s.49-.04.65-.13c.18-.09.3-.19.39-.33.09-.13.13-.26.13-.4v-.14h2.03v-1.02c0-.28-.08-.53-.21-.74-.14-.21-.39-.31-.73-.31"/>
  <rect class="cls-1" x="6.13" y="23.7" width=".46" height=".55"/>
  <rect class="cls-1" x="6.73" y="23.7" width=".46" height=".55"/>
  <polygon class="cls-1" points="6.95 21.4 6.37 21.4 6.37 22.9 5.44 22.9 5.44 20.61 4.85 20.61 4.85 23.44 6.95 23.44 6.95 21.4"/>
  <path class="cls-1" d="M10.41,22.9h-1.83v-1.5h-.58v2.08c0,.14-.03.24-.06.3s-.1.1-.19.1h-.16v.51h.03c.15,0,.25.01.29.01.23,0,.4-.09.51-.26.11-.18.16-.41.18-.71h2.41v-2.83h-.58v2.29h-.01Z"/>
  <rect class="cls-1" x="11.57" y="20.61" width=".58" height="2.83"/>
  <rect class="cls-1" x="14.53" y="20.53" width=".46" height=".55"/>
  <rect class="cls-1" x="15.13" y="20.53" width=".46" height=".55"/>
  <rect class="cls-1" x="18.25" y="20.52" width=".54" height=".56"/>
  <rect class="cls-1" x="19.72" y="23.7" width=".46" height=".55"/>
  <rect class="cls-1" x="20.32" y="23.7" width=".46" height=".55"/>
  <path class="cls-1" d="M14.54,22.07c.04-.06.09-.11.16-.14.08-.03.19-.04.33-.04s.26,0,.39.01v.99h-.4c-.14,0-.24-.01-.31-.04-.08-.03-.13-.08-.16-.15s-.05-.19-.05-.33.01-.24.05-.3M20.53,21.4h-.58v1.5h-1.14v-1.5h-.58v1.5h-2.23v-1.48h-.03c-.09-.01-.24-.03-.44-.04-.2,0-.38-.01-.54-.01-.28,0-.5.03-.65.09-.16.06-.28.16-.35.31-.08.14-.1.35-.1.63s.04.5.11.65c.08.15.19.26.35.31.15.06.36.09.63.09h5.54v-2.06Z"/>
  <path class="cls-1" d="M27.18,22.41v.49h-.78c0-.05-.03-.13-.04-.2,0-.09-.01-.19-.01-.28,0-.15.01-.31.05-.5.09-.03.19-.03.28-.03.2,0,.33.04.4.13.06.09.1.21.1.39M28.63,22.9h-.68s-.08-.01-.11-.04c-.04-.03-.06-.06-.08-.11v-.34c0-.24-.03-.43-.08-.58s-.16-.28-.31-.35c-.15-.08-.36-.13-.64-.13s-.34.01-.48.04c-.14.03-.25.06-.33.09h0c-.04.14-.08.29-.1.45-.03.16-.05.33-.05.48s.01.3.05.48h-3.06v-.16c0-.3-.05-.56-.14-.78s-.21-.38-.38-.48c-.16-.11-.35-.16-.58-.16s-.19,0-.29.03c-.11.01-.2.04-.28.05h-.03l.04.44v.03h.43c.18,0,.33.08.45.21s.19.39.19.71v.11h-1.28v.54h6.84v-.1s.03.04.05.05c.05.04.09.05.14.05h1.27v-2.83h-.58v2.29h-.01Z"/>
  <rect class="cls-1" x="32.21" y="20.53" width=".46" height=".55"/>
  <rect class="cls-1" x="31.59" y="20.53" width=".46" height=".55"/>
  <rect class="cls-1" x="33.79" y="23.7" width=".46" height=".55"/>
  <rect class="cls-1" x="34.39" y="23.7" width=".46" height=".55"/>
  <path class="cls-1" d="M32.49,21.91v.99h-.4c-.14,0-.24-.01-.31-.04-.08-.03-.13-.08-.16-.15s-.05-.19-.05-.33.01-.24.05-.3.09-.11.16-.14c.08-.03.19-.04.33-.04s.26,0,.39.01M46.17,22.41v.49h-.79c0-.05-.03-.13-.04-.2,0-.09-.01-.19-.01-.28,0-.15.01-.31.05-.5.09-.03.19-.03.28-.03.2,0,.33.04.4.13.06.08.1.21.1.39M47.63,22.9h-.68s-.08-.01-.11-.04c-.04-.03-.06-.06-.08-.11v-.34c0-.24-.03-.43-.08-.58-.05-.15-.16-.28-.31-.35-.15-.08-.36-.13-.64-.13s-.34.01-.48.04c-.14.03-.25.06-.33.09h0c-.04.14-.08.28-.1.45-.03.18-.05.33-.05.48s.01.3.05.48h-4.01v-2.29h-.58v2.29h-.97v-.46c0-.13-.03-.26-.06-.4-.04-.15-.11-.28-.24-.4-.11-.11-.29-.18-.5-.18h-.74l.05-.1c.13-.23.25-.44.39-.64v-.03s-.41-.25-.41-.25h-.01c-.08.1-.16.21-.25.33-.09.13-.16.24-.21.34l-.24.46h0s.29.4.29.4h1.08c.09,0,.15.04.21.13s.09.19.09.33v.46h-4.06v-1.5h-.58v1.5h-.95v-1.48h-.03c-.09-.01-.24-.03-.44-.04-.2,0-.38-.01-.53-.01-.28,0-.5.03-.65.09-.16.06-.28.16-.35.31-.08.14-.1.35-.1.63s.04.5.11.65.19.26.35.31c.15.06.36.09.63.09h14.69v-.1s.03.04.05.05c.05.04.09.05.14.05h1.27v-2.83h-.58v2.29h-.06Z"/>
  <rect class="cls-1" x="48.79" y="20.61" width=".58" height="2.83"/>
  <rect class="cls-1" x="52.35" y="20.53" width=".46" height=".55"/>
  <rect class="cls-1" x="51.75" y="20.53" width=".46" height=".55"/>
  <path class="cls-1" d="M57.27,21l.89-.18h.03l-.06-.3-.45.11c-.05-.04-.08-.09-.08-.15s.01-.09.05-.13c.04-.04.08-.05.13-.05s.06,0,.09.01c.03,0,.05.03.06.04l.04.03.06-.3h-.01c-.1-.08-.21-.11-.33-.11s-.24.04-.31.13c-.09.09-.13.19-.13.3s.04.23.13.31l-.16.04.05.24h.01Z"/>
  <rect class="cls-1" x="59.51" y="23.7" width=".46" height=".55"/>
  <rect class="cls-1" x="58.9" y="23.7" width=".46" height=".55"/>
  <path class="cls-1" d="M51.71,22.39c0-.14.01-.24.05-.3.04-.06.09-.11.16-.14s.19-.04.33-.04.26,0,.39.01v.99h-.4c-.14,0-.24-.01-.31-.04-.08-.03-.13-.08-.16-.15s-.05-.19-.05-.33M63.65,22.84c0-.09.03-.16.08-.23.05-.06.11-.09.19-.09s.14.03.19.09.08.13.08.21v.06h-.53v-.06h0ZM66.44,22.9h-.79v-.35c0-.29-.05-.54-.16-.76-.11-.21-.26-.39-.48-.51s-.46-.19-.75-.19-.34.01-.51.05c-.19.04-.38.08-.58.13h-.03l.05.45v.03h.03c.23-.04.41-.06.55-.09.14-.03.26-.03.36-.03.24,0,.45.06.64.2.19.13.28.38.28.73v.35h-.33v-.05c0-.14-.04-.28-.11-.41-.08-.13-.18-.24-.3-.31s-.28-.13-.44-.13-.31.04-.44.13c-.13.08-.24.19-.3.31-.08.13-.11.28-.11.41v.05h-3.32v-1.5h-.58v1.5h-1.14v-1.5h-.58v1.5h-4.2v-1.48h-.03c-.09-.01-.24-.03-.44-.04-.2,0-.38-.01-.53-.01-.28,0-.5.03-.65.09-.16.06-.28.16-.35.31s-.1.35-.1.63.04.5.11.65c.08.15.19.26.35.31.15.06.36.09.63.09h14.81v-2.83h-.58v2.29h.01Z"/>
  <rect class="cls-1" x="67.61" y="20.61" width=".58" height="2.83"/>
  <path class="cls-1" d="M.87,27.18c.24,0,.4-.1.4-.3v-.14c0-.21-.16-.31-.4-.31h-.35v.73h.35M1.27,28.33l-.35-.7h-.39v.7H.01v-2.33c.24-.03.41-.04.83-.04.64,0,.98.21.98.7v.28c0,.29-.14.48-.38.6l.45.8h-.63Z"/>
  <path class="cls-1" d="M3.91,27.26v-.21c0-.45-.16-.64-.53-.64s-.53.19-.53.64v.21c0,.45.16.63.53.63s.53-.18.53-.63M2.33,27.31v-.31c0-.73.33-1.05,1.05-1.05s1.05.33,1.05,1.05v.31c0,.73-.34,1.04-1.05,1.04s-1.05-.31-1.05-1.04"/>
  <polygon class="cls-1" points="6.96 26 6.09 27.43 6.09 28.33 5.58 28.33 5.58 27.43 4.69 26 5.3 26 5.84 26.89 6.39 26 6.96 26"/>
  <path class="cls-1" d="M8.47,27.5l-.3-.85-.3.85h.6,0ZM8.64,27.95h-.93l-.13.36h-.56l.89-2.33h.53l.92,2.33h-.59l-.13-.36h0Z"/>
  <polygon class="cls-1" points="11.27 27.85 11.27 28.33 9.79 28.33 9.79 26 10.31 26 10.31 27.85 11.27 27.85"/>
  <path class="cls-1" d="M12.74,27.31v-.31c0-.73.34-1.05,1.07-1.05s.59.08.8.24l-.28.41c-.13-.11-.31-.18-.51-.18-.36,0-.54.16-.54.64v.21c0,.46.18.63.54.63s.39-.06.51-.16l.28.39c-.21.16-.46.24-.8.24-.71,0-1.07-.33-1.07-1.04"/>
  <path class="cls-1" d="M16.52,27.26v-.21c0-.45-.16-.64-.53-.64s-.53.19-.53.64v.21c0,.45.16.63.53.63s.53-.18.53-.63M14.94,27.31v-.31c0-.73.33-1.05,1.05-1.05s1.05.33,1.05,1.05v.31c0,.73-.34,1.04-1.05,1.04s-1.05-.31-1.05-1.04"/>
  <polygon class="cls-1" points="20.11 26 20.11 28.33 19.58 28.33 19.61 26.93 19.09 27.92 18.69 27.92 18.18 26.93 18.19 28.33 17.68 28.33 17.68 26 18.2 26 18.89 27.31 19.57 26 20.11 26"/>
  <polygon class="cls-1" points="23.29 26 23.29 28.33 22.78 28.33 22.8 26.93 22.28 27.92 21.88 27.92 21.36 26.93 21.37 28.33 20.86 28.33 20.86 26 21.4 26 22.08 27.31 22.77 26 23.29 26"/>
  <rect class="cls-1" x="24.05" y="26" width=".51" height="2.33"/>
  <path class="cls-1" d="M25.16,28.18l.11-.45c.2.1.5.15.73.15s.4-.05.4-.19-.33-.28-.59-.39c-.31-.14-.56-.33-.56-.68s.29-.69.95-.69.58.08.78.18l-.1.44c-.19-.1-.44-.14-.65-.14s-.4.04-.4.19.35.26.6.38c.31.14.55.34.55.69s-.29.7-.99.7-.6-.06-.83-.18"/>
  <path class="cls-1" d="M27.4,28.18l.11-.45c.2.1.5.15.73.15s.4-.05.4-.19-.33-.28-.59-.39c-.31-.14-.56-.33-.56-.68s.29-.69.95-.69.58.08.78.18l-.1.44c-.19-.1-.44-.14-.65-.14s-.4.04-.4.19.35.26.6.38c.31.14.55.34.55.69s-.29.7-.99.7-.6-.06-.83-.18"/>
  <rect class="cls-1" x="29.82" y="26" width=".51" height="2.33"/>
  <path class="cls-1" d="M32.56,27.26v-.21c0-.45-.16-.64-.53-.64s-.53.19-.53.64v.21c0,.45.16.63.53.63s.53-.18.53-.63M30.98,27.31v-.31c0-.73.33-1.05,1.05-1.05s1.05.33,1.05,1.05v.31c0,.73-.34,1.04-1.05,1.04s-1.05-.31-1.05-1.04"/>
  <polygon class="cls-1" points="35.78 26 35.78 28.33 35.2 28.33 34.2 26.77 34.22 28.33 33.71 28.33 33.71 26 34.29 26 35.29 27.55 35.27 26 35.78 26"/>
  <polygon class="cls-1" points="38.14 26.46 38.14 26.95 39.01 26.95 39.01 27.43 38.14 27.43 38.14 28.33 37.61 28.33 37.61 26 39.1 26 39.1 26.46 38.14 26.46"/>
  <path class="cls-1" d="M41.18,27.26v-.21c0-.45-.16-.64-.53-.64s-.53.19-.53.64v.21c0,.45.16.63.53.63s.53-.18.53-.63M39.6,27.31v-.31c0-.73.33-1.05,1.05-1.05s1.05.33,1.05,1.05v.31c0,.73-.34,1.04-1.05,1.04s-1.05-.31-1.05-1.04"/>
  <path class="cls-1" d="M43.2,27.18c.24,0,.4-.1.4-.3v-.14c0-.21-.16-.31-.4-.31h-.35v.73h.35M43.6,28.33l-.35-.7h-.39v.7h-.51v-2.33c.24-.03.41-.04.83-.04.64,0,.98.21.98.7v.28c0,.29-.14.48-.38.6l.45.8h-.63Z"/>
  <path class="cls-1" d="M46.75,27.18c.24,0,.4-.1.4-.3v-.14c0-.21-.16-.31-.4-.31h-.35v.73h.35M47.15,28.33l-.35-.7h-.39v.7h-.51v-2.33c.24-.03.41-.04.83-.04.64,0,.98.21.98.7v.28c0,.29-.14.48-.38.6l.45.8h-.63Z"/>
  <rect class="cls-1" x="48.35" y="26" width=".51" height="2.33"/>
  <polygon class="cls-1" points="51.51 26 50.65 27.43 50.65 28.33 50.12 28.33 50.12 27.43 49.24 26 49.85 26 50.4 26.89 50.95 26 51.51 26"/>
  <path class="cls-1" d="M53.03,27.5l-.3-.85-.3.85h.6ZM53.19,27.95h-.93l-.13.36h-.56l.89-2.33h.53l.92,2.33h-.59l-.13-.36h0Z"/>
  <path class="cls-1" d="M55.79,27.05c0-.44-.16-.63-.56-.63s-.25,0-.36.01v1.44c.11,0,.24.01.36.01.4,0,.56-.18.56-.63v-.23h0ZM56.31,27v.31c0,.73-.34,1.05-1.14,1.05s-.6-.03-.84-.04v-2.33c.24-.03.46-.04.84-.04.8,0,1.14.33,1.14,1.05"/>
  <polygon class="cls-1" points="59.01 26 59.01 28.33 58.5 28.33 58.5 27.39 57.47 27.39 57.47 28.33 56.94 28.33 56.94 26 57.47 26 57.47 26.91 58.5 26.91 58.5 26 59.01 26"/>
  <path class="cls-1" d="M60.71,27.31v-.31c0-.73.34-1.05,1.07-1.05s.59.08.8.24l-.28.41c-.13-.11-.31-.18-.51-.18-.36,0-.54.16-.54.64v.21c0,.46.18.63.54.63s.38-.06.51-.16l.28.39c-.21.16-.46.24-.8.24-.73,0-1.07-.33-1.07-1.04"/>
  <rect class="cls-1" x="63.05" y="26" width=".51" height="2.33"/>
  <polygon class="cls-1" points="65.87 26.46 65.19 26.46 65.19 28.33 64.68 28.33 64.68 26.46 64 26.46 64 26 65.87 26 65.87 26.46"/>
  <polygon class="cls-1" points="68.2 26 67.32 27.43 67.32 28.33 66.81 28.33 66.81 27.43 65.93 26 66.53 26 67.07 26.89 67.62 26 68.2 26"/>
  <rect class="cls-1" x="72.44" y="16.65" width=".2" height="11.68"/>
  <path class="cls-1" d="M82.88,26.54s.48.35.79.58c.11.08-.11.1-.38.26-.21.13.01.34.21.33.2,0,.31-.24.48-.25.15,0,.64.41,1.03.66.4.25.54.3.76.08.74-.75.09-.41-.09-.38l-1.2-.74c-.08-.05.05-.14.15-.25.14-.13.24-.26-.01-.39s-.34.14-.43.26c-.08.14-.18.1-.25.05l-.68-.48c3.64-2.54,6.73-2.11,6.73-2.11,0,0-1.04-.48-3.1-.04s-4.05,1.87-4.05,1.87c.01,0-1.97-1.43-4.02-1.87-2.06-.44-3.1.04-3.1.04,0,0,3.1-.44,6.73,2.11l-.68.48c-.06.05-.18.08-.25-.05-.09-.14-.18-.39-.43-.26-.25.14-.15.26-.01.39.11.11.24.2.15.25l-1.2.74c-.18-.05-.83-.38-.09.38.23.23.38.18.76-.08s.88-.66,1.03-.66c.16,0,.28.24.48.25.2,0,.43-.2.21-.33-.25-.16-.48-.19-.38-.26.31-.23.79-.58.79-.58"/>
  <path class="cls-1" d="M85.2,20.02c-.14-.74-.74-1-1.2-1.02.36-.33,1.09-.28,1.53.08-.31-.79-1.13-1.12-1.92-.74.13-.39.9-.76,1.48-.53-.49-.43-1.25-.6-1.92-.1-.01-.4-.09-.73-.3-1.08h0c-.21.34-.28.68-.3,1.07-.66-.5-1.43-.33-1.92.1.58-.24,1.35.14,1.48.53-.8-.38-1.62-.05-1.92.74.44-.35,1.17-.4,1.53-.08-.48,0-1.07.28-1.2,1.02.38-.34.93-.46,1.49-.35-.14.03-.28.06-.43.14-.53.29-.6.87-.6.87,0,0,.49-.43,1.24-.4.09,0,.18,0,.25.01v.05s.01.35.01.35v3.97c-.35.04-.66.14-.87.3,0,0,.99.5,1.22.69.23-.19,1.22-.69,1.22-.69-.19-.18-.5-.26-.87-.3v-4.38c.09-.01.18-.01.26-.01.75-.03,1.24.4,1.24.4,0,0-.08-.58-.6-.87-.15-.08-.29-.11-.43-.14.58-.11,1.12,0,1.49.35"/>
</svg>