<?xml version="1.0" encoding="UTF-8"?>
<svg id="Layer_1" data-name="Layer 1" xmlns="http://www.w3.org/2000/svg" viewBox="0 0 90 45">
  <defs>
    <style>
      .cls-1 {
        fill: #fff;
      }
    </style>
  </defs>
  <path class="cls-1" d="M74.06,11.26s-.08.1-.12.15c-2.71,2.7-5.41,5.41-8.12,8.12-.1.11-.21.14-.35.14-9.63,0-19.27,0-28.9,0-1.59,0-3.19.04-4.78.1-1.12.04-2.23.19-3.32.47-1.41.36-2.66,1.03-3.74,1.98-1.18,1.04-2.33,2.11-3.46,3.2-2.84,2.72-5.66,5.46-8.48,8.2-.1.09-.19.13-.32.13-4.09,0-8.17,0-12.26,0h-.21c.06-.06.09-.11.13-.14,4.97-4.93,9.94-9.85,14.9-14.78,1.34-1.33,2.73-2.62,4.24-3.77,1.65-1.26,3.45-2.23,5.45-2.8,1.16-.33,2.34-.54,3.53-.68,1.59-.18,3.18-.26,4.77-.29.16,0,.32-.02.47-.03,13.52,0,27.04,0,40.56,0Z"/>
  <path class="cls-1" d="M90,11.26s-.08.1-.12.15c-7.41,7.4-14.82,14.8-22.22,22.2-.1.1-.19.14-.34.14-4.37,0-8.75,0-13.12,0h-.2s.06-.08.09-.11c4.66-4.66,9.33-9.32,13.99-13.98,2.76-2.75,5.51-5.51,8.27-8.26.04-.04.07-.09.1-.13,4.52,0,9.03,0,13.55,0Z"/>
  <path class="cls-1" d="M15,33.74c.05-.05.07-.08.09-.1,3.06-3.05,6.12-6.1,9.18-9.14.78-.77,1.61-1.48,2.57-2.03.96-.55,1.99-.87,3.07-1.05,1.9-.32,3.82-.35,5.73-.35,9.46,0,18.91,0,28.37,0,.06,0,.13,0,.23,0-.05.06-.08.1-.11.13-2.53,2.53-5.07,5.06-7.6,7.59-.09.09-.18.11-.3.11-6.76,0-13.52,0-20.28,0-.87,0-1.75.05-2.62.1-1.37.09-2.51.69-3.47,1.66-.99,1-1.99,1.99-2.99,2.98-.06.06-.16.1-.24.1-3.84,0-7.68,0-11.52,0-.03,0-.06,0-.13,0Z"/>
  <path class="cls-1" d="M75.86,30.94c.21,0,.41,0,.6,0,.04,0,.1.09.12.14.22.61.43,1.22.65,1.84.02.06.05.12.09.23.26-.76.51-1.48.76-2.2h.66v2.78h-.44v-2.07s-.03,0-.04-.01c-.25.7-.5,1.39-.75,2.09h-.4c-.25-.7-.5-1.39-.75-2.09-.01,0-.02,0-.03,0v2.08h-.46v-2.79Z"/>
  <path class="cls-1" d="M74.63,33.73h-.48v-2.37h-.88v-.41h2.23v.4h-.87v2.39Z"/>
</svg>