<?xml version="1.0" encoding="UTF-8"?>
<svg id="Layer_1" data-name="Layer 1" xmlns="http://www.w3.org/2000/svg" viewBox="0 0 90 45">
  <defs>
    <style>
      .cls-1 {
        fill: #fff;
      }
    </style>
  </defs>
  <g>
    <path class="cls-1" d="M52.35,15.45c-.41,0-.77-.18-1.02-.47l-3.8-4.42-3.8,4.42c-.25.29-.61.47-1.01.47s-.77-.18-1.02-.47l-3.8-4.42-3.39,3.94c-.35.41-.87.67-1.46.67h-2.22v7.9h28.3v-14.81l-5.78,6.72c-.25.29-.61.47-1.01.47ZM38.69,14.58h-1.56v-1.56h1.56v1.56Z"/>
    <path class="cls-1" d="M30.85,0v15.17l6.05-7.03c.25-.29.61-.47,1.01-.47s.77.18,1.01.47l3.8,4.42,3.8-4.42c.25-.29.61-.47,1.02-.47s.77.18,1.01.47l3.8,4.42,3.13-3.64c.35-.41.87-.67,1.46-.67h2.21V0h-28.3Z"/>
  </g>
  <g>
    <path class="cls-1" d="M19.5,38.01c-.11-.25-.26-.39-.41-.39h0s0,0,0,0h0c-.16,0-.31.15-.42.4l-2.31,5.44h1.21s1.12-2.67,1.51-3.6c.39.92,1.51,3.6,1.51,3.6h1.21l-2.3-5.44Z"/>
    <path class="cls-1" d="M19.5,38.01c-.11-.25-.26-.39-.41-.39h0s0,0,0,0h0c-.16,0-.31.15-.42.4l-2.31,5.44h1.21s1.12-2.67,1.51-3.6c.39.92,1.51,3.6,1.51,3.6h1.21l-2.3-5.44Z"/>
    <rect class="cls-1" x="18.67" y="41.82" width=".82" height=".8"/>
    <rect class="cls-1" x="27.48" y="38.16" width="1" height=".98"/>
    <rect class="cls-1" x="27.48" y="39.52" width="1" height="3.95"/>
    <rect class="cls-1" x="38.56" y="38.16" width="1" height=".98"/>
    <rect class="cls-1" x="38.56" y="39.52" width="1" height="3.95"/>
    <path class="cls-1" d="M29.55,42.65c0,.74-.05,1.03-.2,1.21-.12.15-.38.22-.63.24v.9c.47,0,1.08-.14,1.37-.45.3-.32.45-.81.45-1.62v-3.41h-.99v3.13Z"/>
    <rect class="cls-1" x="29.56" y="38.16" width="1" height=".98"/>
    <path class="cls-1" d="M26.1,42.76c-.38,0-.47-.32-.47-.65v-1.84h.89v-.75h-.89v-.96h-1v3.72c0,.78.43,1.28,1.22,1.28.3,0,.53-.03.74-.09l-.03-.81c-.1.07-.27.11-.45.11"/>
    <path class="cls-1" d="M23.49,42.76c-.38,0-.47-.32-.47-.65v-1.84h.89v-.75h-.89v-.96h-1v3.72c0,.78.43,1.28,1.22,1.28.3,0,.53-.03.74-.09l-.03-.81c-.1.07-.28.11-.46.11"/>
    <path class="cls-1" d="M36.57,40.42h-.01v-.89h-.89v3.93h1v-1.44c0-.56,0-1.6.81-1.6.18,0,.36.03.45.08v-1.03c-.1-.03-.21-.03-.31-.03-.59,0-1,.62-1.05.98"/>
    <polygon class="cls-1" points="39.92 39.52 40.98 39.52 41.82 42.43 41.84 42.43 42.61 39.52 43.77 39.52 44.6 42.43 44.61 42.43 45.41 39.52 46.36 39.52 45.18 43.45 44.01 43.45 43.18 40.46 43.16 40.46 42.35 43.45 41.21 43.45 39.92 39.52"/>
    <path class="cls-1" d="M50.71,39.03v4.43h.98v-3.15h.86v-.74h-.86v-.49c0-.3.1-.6.43-.6.21,0,.34.08.43.14l.08-.84c-.19-.04-.47-.08-.72-.08-.78,0-1.2.54-1.2,1.32"/>
    <path class="cls-1" d="M49.77,41.6v-.51c0-1.16-.48-1.66-1.65-1.66-.42,0-.94.11-1.33.3l.03.87c.34-.26.76-.42,1.18-.42.59,0,.86.21.86.85h-.55c-.42,0-.91.04-1.29.23-.38.19-.66.53-.66,1.12,0,.75.66,1.17,1.34,1.17.45,0,.95-.24,1.18-.68h.02c0,.12,0,.38.04.59h.88c-.02-.31-.04-.58-.05-.88,0-.29-.01-.59-.01-.98M48.65,42.45c-.16.21-.39.35-.7.35-.36,0-.63-.15-.63-.48,0-.6.66-.68,1.11-.68h.43c0,.31-.04.59-.21.81"/>
    <path class="cls-1" d="M34.68,41.6v-.51c0-1.16-.48-1.66-1.65-1.66-.43,0-.94.11-1.33.3l.03.87c.33-.26.75-.42,1.18-.42.59,0,.86.21.86.85h-.55c-.42,0-.91.04-1.29.23-.38.19-.65.53-.65,1.12,0,.75.66,1.17,1.34,1.17.45,0,.95-.24,1.18-.68h.01c0,.12,0,.38.05.59h.88c-.02-.31-.04-.58-.05-.88,0-.29-.01-.59-.01-.98M33.56,42.45c-.16.21-.39.35-.7.35-.36,0-.63-.15-.63-.48,0-.6.66-.68,1.11-.68h.43c0,.31-.05.59-.21.81"/>
    <path class="cls-1" d="M56.45,41.6v-.51c0-1.16-.48-1.66-1.65-1.66-.42,0-.94.11-1.33.3l.03.87c.34-.26.75-.42,1.18-.42.59,0,.86.21.86.85h-.55c-.41,0-.9.04-1.29.23-.37.19-.65.53-.65,1.12,0,.75.66,1.17,1.34,1.17.45,0,.95-.24,1.18-.68h.02c0,.12,0,.38.04.59h.88c-.02-.31-.04-.58-.05-.88,0-.29-.01-.59-.01-.98M55.33,42.45c-.15.21-.39.35-.7.35-.35,0-.63-.15-.63-.48,0-.6.66-.68,1.11-.68h.43c0,.31-.04.59-.21.81"/>
    <path class="cls-1" d="M59.17,42.81h.01c.25.5.64.71,1.18.71,1.04,0,1.56-.89,1.56-2.03s-.45-2.03-1.56-2.03c-.74,0-1.11.55-1.18.75h-.01v-2.49h-.47v5.72h.47v-.62ZM60.29,39.86c.89,0,1.12.87,1.12,1.63s-.23,1.62-1.12,1.62c-.83,0-1.12-.91-1.12-1.62s.27-1.63,1.12-1.63"/>
    <path class="cls-1" d="M65.46,40.9c0-1.01-.4-1.45-1.33-1.45-.33,0-.82.12-1.11.27v.47c.35-.23.72-.32,1.11-.32.63,0,.86.34.86,1v.2h-.09c-.98,0-2.33.06-2.33,1.37,0,.35.17,1.1,1.25,1.1.47,0,.99-.25,1.2-.72h.01v.63h.46c-.04-.26-.04-.5-.04-.81v-1.72ZM64.99,41.71c0,.42-.02,1.4-1.12,1.4-.43,0-.79-.19-.79-.7,0-.85.96-.93,1.77-.93h.13v.24Z"/>
    <path class="cls-1" d="M68.23,39.45c-.79,0-1.07.43-1.22.78h-.02v-.69h-.45c.03.31.03.62.03.92v2.97h.47v-2.15c0-.65.27-1.42,1.12-1.42.65,0,.9.47.9,1.21v2.36h.47v-2.48c0-.85-.36-1.49-1.29-1.49"/>
    <polygon class="cls-1" points="71.6 41.27 73.45 39.55 72.84 39.55 71.16 41.14 71.16 37.72 70.69 37.72 70.69 43.43 71.16 43.43 71.16 41.44 73.02 43.43 73.67 43.43 71.6 41.27"/>
    <path class="cls-1" d="M52.42,34.54v.8s3.73.7,3.73-1.6v-2.79h-1.09v2.85c0,1.15-2.64.74-2.64.74"/>
    <rect class="cls-1" x="72.44" y="28.49" width="1.09" height="5.33"/>
    <path class="cls-1" d="M67.93,33.03v-2.06h-1.1v2.06h-1.87v-.11c0-3.73-5.55-1.84-5.55-1.84v.87s4.35-1.5,4.45.64v.44h-5.51v-4.54s-1.1,0-1.1,0v4.59c0,.46.26.75.76.75h12.81c.5,0,.76-.29.76-.75v-4.59h-1.11v4.54h-2.55Z"/>
    <path class="cls-1" d="M38.27,31.73h-1.58c-.07-.67.21-1.24,1.58-1.08v1.08ZM32.69,28.49h-1.08v4.59c0,.46.26.75.76.75h6.15c.5,0,.76-.29.76-.75v-3.27c-.49-.04-1.15-.02-1.58,0-2.49.08-1.8,2.67-1.8,2.67h2.38v.55s-5.58,0-5.58,0v-4.54Z"/>
    <path class="cls-1" d="M23.87,29.15h-1.32l-6.21,2.29v.49c1.87-.57,6.3-.82,6.3,1.39h-6.31v.52h12.31c.5,0,.5-.03.5-.49v-1.9h-.53v1.88h-2.88s0-1.87,0-1.87h-.53v1.87h-2.03c0-2.07-2.71-2.44-4.33-2.24l5.03-1.93Z"/>
    <path class="cls-1" d="M50.28,32.69c0,.13,0,.34,0,.34h0c-.2.02-2.29.06-2.52.06-1.01,0-2.12-.34-2.12-1.96h-1.01c-.21,2.32,1.73,2.74,3.25,2.76.94,0,3.53-.12,3.53-.12v-.8c0-1.08.39-1.21,1.14-1.21v2.06h1.09v-2.86c-1.88-.12-3.35-.06-3.35,1.72"/>
    <path class="cls-1" d="M42.55,33.06h-1.58c-.07-.67.21-1.24,1.58-1.08v1.08ZM39.7,34.64v.7c1.72.34,3.87.15,3.86-1.57v-2.63c-.49-.04-1.15-.02-1.58,0-2.49.08-1.8,2.68-1.8,2.68h2.41c-.02,1.22-2.47.88-2.89.83"/>
    <rect class="cls-1" x="28.61" y="34.36" width=".53" height=".53"/>
    <rect class="cls-1" x="25.2" y="30.4" width=".53" height=".53"/>
    <rect class="cls-1" x="63.92" y="34.48" width="1" height=".95"/>
    <rect class="cls-1" x="37.26" y="28.31" width="1" height=".95"/>
    <rect class="cls-1" x="50.39" y="34.48" width="1" height=".95"/>
    <rect class="cls-1" x="48.75" y="34.48" width="1" height=".95"/>
    <rect class="cls-1" x="67.7" y="29.45" width="1" height=".96"/>
    <rect class="cls-1" x="66.05" y="29.45" width="1" height=".96"/>
  </g>
</svg>