<?xml version="1.0" encoding="UTF-8"?>
<svg id="Layer_1" data-name="Layer 1" xmlns="http://www.w3.org/2000/svg" viewBox="0 0 90 45">
  <defs>
    <style>
      .cls-1 {
        fill: #fff;
      }
    </style>
  </defs>
  <polygon class="cls-1" points="62.37 31.14 58.56 29.24 58.43 29.54 62.21 31.51 62.37 31.14"/>
  <path class="cls-1" d="M54.32,0h-18.64l-13.18,13.18v18.64l13.18,13.18h18.64l13.18-13.18V13.17L54.32,0ZM66.02,31.14l-12.51,12.48-17.23.02-12.31-12.32V13.82S36.3,1.42,36.3,1.42h17.47s12.22,12.21,12.22,12.21l.03,17.52Z"/>
  <path class="cls-1" d="M43.42,11.36c.51-.08.81-.13,1.42-.15v-.31c0-.39-.18-.58-.65-.56,0,0-.32.09-.42-.08,0,0,0,.12-.11.27-.08.1-.26.21-.26.21,0,0,.42-.08.52-.09.2-.01.61-.15.59.26,0,0,0,0,0,0-.17.01-.52.02-1.13.12l.05.32Z"/>
  <path class="cls-1" d="M45.47,10.27s-.05,0-.08,0v1.39s0,0,0,0c-.02.46-.47.25-.49.23.22.31.76.27.79-.25l.07-1.57s-.09.19-.29.19"/>
  <path class="cls-1" d="M45.58,9.58c.11,0,.2-.07.21-.18,0-.11-.07-.21-.19-.21-.11,0-.2.07-.21.18,0,.11.08.21.19.21"/>
  <path class="cls-1" d="M49.37,11.05s-.05-.01-.08-.02l-.49,1.31h0c-.18.43-.53.08-.54.05.1.37.62.52.83.05l.62-1.45s-.15.14-.34.07"/>
  <path class="cls-1" d="M47.55,12.13c.11,0,.2-.08.21-.19,0-.11-.08-.2-.19-.21-.11,0-.2.08-.21.19,0,.11.08.2.19.21"/>
  <path class="cls-1" d="M49.11,10.43s-.14.22-.53.13c0,0,.1.13.05.24-.02.05-.11.31-.2.59-.46-.15-1.23-.29-1.62-.37,0,0,.17-.16.25-.33.14-.3.08-.65.08-.65,0,.17-.07.78-1.07,1.22,0,0,.64-.05,2.59.52l.46-1.36Z"/>
  <path class="cls-1" d="M54.01,14.17l-.59-.62c-.17-.15-.25-.08-.44.13l-.33.37.5.47-.29.28h0c-.33.31-.5-.14-.5-.18-.05.36.35.71.72.37l.93-.84ZM53.08,14.03l.1-.1c.08-.08.14-.09.22,0l.18.19-.21.21-.29-.29Z"/>
  <path class="cls-1" d="M52.7,11.95c.11,0,.2-.09.2-.2,0-.11-.09-.2-.2-.2-.11,0-.2.09-.2.2,0,.11.09.2.2.2"/>
  <path class="cls-1" d="M53.31,12.39c.11,0,.2-.09.2-.2,0-.11-.09-.2-.2-.2-.11,0-.2.09-.2.2,0,.11.09.2.2.2"/>
  <path class="cls-1" d="M52.54,12.14c-.19-.12-.29-.1-.45.14l-.27.41.54.4-.15.2c-.22-.16-.89-.61-1.22-.8l.83-1.48s-.25.14-.6.08c0,0,.11.04.04.15-.01.03-.76,1.5-.76,1.51-.18.33-.44.26-.57.2-.25-.13-.28-.37-.25-.52.03-.14.09-.41.51-.6,0,0,.06.11.19.03.13-.08.16-.31.16-.31-.18.11-.82.42-.96.79-.15.39.07.73.31.83.14.06.58.21.85-.24l.09-.16c.43.24.83.49,1.43.98l.89-1.12-.63-.48ZM52.25,12.62l.08-.12c.06-.09.1-.08.19-.01l.21.15-.17.22-.3-.24Z"/>
  <path class="cls-1" d="M42.55,9.85c.11,0,.19-.11.18-.21,0-.11-.1-.19-.21-.18-.11,0-.19.11-.18.21,0,.11.1.19.21.18"/>
  <path class="cls-1" d="M40.59,12.88c.11,0,.19-.11.18-.21,0-.11-.1-.19-.21-.18-.11,0-.19.11-.18.21,0,.11.1.19.21.18"/>
  <path class="cls-1" d="M41.19,12.58c.11,0,.19-.11.18-.21,0-.11-.1-.19-.21-.18-.11,0-.19.11-.18.21,0,.11.1.19.21.18"/>
  <path class="cls-1" d="M42.67,11.18c-.32.06-.63.15-.63.15l-.71-.75s-.11-.16-.31-.13c-.13.02-.36.14-.46.22-.12.09-.21.25-.1.37l.55.62c-.46.15-.86.37-1.22.55,0,0,.04-.23,0-.41-.07-.33-.32-.57-.32-.57.1.14.42.67-.12,1.62,0,0,.56-.48,2.22-1.07l-.8-.87c.04-.06.18-.15.29-.14l.84.91c.29-.08.76-.18,1.12-.24l-.2-1.27s-.04.21-.18.29c-.15.06-.28.11-.28.11,0,0,.18-.08.24.22l.08.39Z"/>
  <path class="cls-1" d="M38.97,13.07h-.26c-.23,0-.27-.15-.27-.15-.02.16-.21.24-.4.2-.16-.03-.28-.21-.29-.4,0-.28.22-.44.4-.36-.02.09.03.18.09.19.07,0,.17-.02.16-.12,0-.11-.1-.13-.11-.13-.37-.08-.7.17-.72.48-.01.29.18.55.44.57-.14.1-.28.21-.39.31l-1.17-1.32s.04.24-.13.5c0,0,.06-.08.14,0,.05.06.62.68.93,1.02-.11.1-.2.19-.26.26-.06-.03-.12-.05-.19-.06-.28-.02-.52.19-.55.47,0,.11.02.21.07.3-.07.09-.14.18-.2.26l-1.4-1.08s.09.23-.03.51c0,0,.05-.08.14-.02.09.07,1.35,1.01,1.35,1.01l.07-.11s.03,0,.04-.01c.04-.04.16-.22.28-.37.05.02.1.04.16.04.28.02.52-.19.55-.47,0-.09-.01-.18-.05-.26.56-.57,1.25-1.06,1.62-1.27M36.89,14.75c-.1,0-.17-.09-.16-.19,0-.1.09-.17.19-.16.1,0,.17.09.16.19,0,.1-.09.17-.19.16"/>
  <path class="cls-1" d="M35.1,13.81s.49-.34.62-.76h.08s.03.22-.2.47c-.23.25-.5.29-.5.29"/>
  <path class="cls-1" d="M35.33,14s.49-.34.62-.76h.08s.03.22-.2.47c-.23.25-.5.29-.5.29"/>
  <path class="cls-1" d="M42.96,3.76c-.02-.17.12-.16.12-.16-.45-.08-.67-.37-.67-.37l.42,3.05c.02.11-.05.2-.15.22-.1.02-.2-.05-.22-.16l-.5-3.03s-.13.34-.53.56c0,0,.13-.05.16.12.01.07.16.83.29,1.47-.24.05-.49.13-.71.18l-.2-.96s-.11.35-.5.59c0,0,.13-.06.17.11.02.07.06.24.09.38-.19.05-.39.1-.56.15l-.26-.93s-.09.36-.46.62c0,0,.13-.07.18.09.02.07.13.36.13.36-.17.06-.35.1-.5.15l-.31-.88s-.07.36-.44.64c0,0,.12-.07.18.09.01.04.56,1.53.56,1.53.06.16,0,.4-.32.44-.05,0-.09-.01-.13-.03.08.05.17.07.27.08.32,0,.71-.27.58-.69l-.24-.72c.76-.29,1.66-.53,2.56-.7.06.29.1.47.1.47.04.27.26.47.51.5.14,0,.19.18.19.18,0-.1.06-.2.1-.24.25-.09.4-.33.39-.6v.03s-.27-2.4-.28-2.52"/>
  <path class="cls-1" d="M48.99,3.7c.15,0,.27-.12.27-.27s-.12-.27-.27-.27-.27.12-.27.27.12.27.27.27"/>
  <path class="cls-1" d="M58.05,11.67l-.27-.34,1.92-1.69s-.11.35.06.78c0,0-.07-.13-.2-.02-.13.11-1.51,1.27-1.51,1.27"/>
  <path class="cls-1" d="M32.63,11.2l-.28.34-1.94-1.66s.36.07.76-.17c0,0-.12.09.01.2l1.45,1.3Z"/>
  <path class="cls-1" d="M39.31,4.39c.15,0,.26-.12.26-.27s-.12-.27-.26-.27-.26.12-.26.27c0,.15.12.27.26.27"/>
  <path class="cls-1" d="M39.53,5.07c.15,0,.26-.12.26-.27s-.12-.27-.26-.27-.26.12-.26.27.12.27.26.27"/>
  <path class="cls-1" d="M41.28,7.42c.15,0,.26-.12.26-.27s-.12-.27-.26-.27-.26.12-.26.27.12.27.26.27"/>
  <path class="cls-1" d="M28.54,19.55c.13-.77.2-1.11.46-2l-.45-.15c-.38-.1-1.01.03-1.15.64,0,0-.07.56-.28.59,0,0,.14.03.3.27.11.16.18.49.18.49,0,0,.12-.62.16-.77.08-.3.08-.95.66-.72,0,0,0,0,0,0-.06.25-.21.63-.36,1.57l.48.08Z"/>
  <path class="cls-1" d="M37.62,5.65s-.04.3-.28.42c-.58.29-.64.73-.48,1.07l.28.53.72-.37.24.51h0c.25.59-.42.61-.46.59.45.24,1.09-.13.81-.79l-.83-1.97ZM37.28,7.05c-.08-.14-.1-.24-.06-.34.04-.1.25-.22.25-.22l.18.38-.37.18Z"/>
  <path class="cls-1" d="M32.93,8.68s.06.29-.14.49c-.46.46-.39.9-.13,1.17l.42.42.57-.58.38.41h0c.41.48-.22.71-.27.71.51.08,1-.47.54-1l-1.39-1.61ZM33.03,10.12c-.12-.11-.17-.2-.17-.31,0-.11.18-.29.18-.29l.28.31-.29.29Z"/>
  <path class="cls-1" d="M35.56,6.32c-.09-.15.05-.2.05-.2-.44.11-.76-.06-.76-.06l1.06,1.77c-.28.17-.71.5-1.14.82,0,0-.07-.37-.17-.53-.17-.27-.47-.34-.47-.34.17.16.63.72.19,1.82,0,0,.42-.47,2.21-1.58,0,0-.88-1.55-.97-1.7"/>
  <path class="cls-1" d="M50.78,3.93s-.22.2-.48.13c-.63-.16-.95.13-1.05.5l-.13.59.79.19-.31,1.12s-.05.4-.27.35c-.21-.05-.09-.41-.09-.41l.15-.67s-.87-.2-.99-.22c0,0,.13-.53-.16-.9-.27-.35-.53-.36-.53-.36l.13-1s-.19.47-.74.46h0,0c.08.02.24.06.21.3l-.02.2s-.34-.06-.69.26c-.29.27-.31.77-.31.77,0,0-.25-.02-.32-.02v-.37c-.02-.3-.3-.66-.84-.66,0,0-.6.07-.74-.16,0,0,0,.2-.13.33-.14.14-.36.23-.36.23,0,0,.6-.03.75-.02.51.04.92-.11.91.61,0,0-1.65.06-1.65.06l.03.49s1.53-.11,2.33-.02v.6s.03.54.51.59c.57.06.64-.48.64-.48l.08-.58c.3.05.92.15,1.39.26l-.06.42s-.11.5.32.68c.05.08.04.15.03.2,0,0,.06-.1.15-.15.34.05.48-.16.57-.45,0,0,.83-2.69.88-2.84M47.04,6.35s-.02.16-.2.16c-.13,0-.19-.19-.19-.19l.02-.61.44.05-.07.59ZM47.17,5.29s-.44-.05-.44-.06c.02-.32.2-.61.52-.61l-.08.67ZM48.03,5.42l-.45-.08.08-.69c.16.06.31.19.37.33.07.17,0,.43,0,.43M49.64,4.77c.03-.16.07-.26.17-.3.15-.07.36,0,.36,0l-.12.41-.41-.11Z"/>
  <path class="cls-1" d="M26.65,20.49c.31.13.43.3.43.3.34-.31.87-.12.88.3.01.51-.4.56-.52.56-.15,0-.37,0-.87-.49-.55-.54-.79-.38-.89-.27,0,0,0,0,0,0-.03.04-.05.09-.05.15,0,.13.11.24.25.23.13,0,.24-.11.23-.24,0-.04-.01-.08-.03-.11.12.02.18.06.4.31.48.53.81.62,1.05.62.34,0,.81-.33.79-.86-.02-.65-.65-.86-.9-.85-.52.01-.77.36-.77.36"/>
  <path class="cls-1" d="M58.38,8.86s.11.09,0,.2c-.18.19-1.05,1.08-1.05,1.08-.07-.07-.22-.21-.41-.37.02-.07.04-.14.04-.22,0-.15-.12-.39-.12-.39-.07-.12.01-.26.01-.26,0,0-.11.11-.28.04-.09-.04-.19-.07-.3-.07-.13,0-.24.03-.34.09-.12-.09-.56-.41-.56-.41l1.24-1.74s-.33.15-.76,0c0,0,.13.06.03.2-.07.1-1.29,1.94-1.29,1.94-.06.09-.17.11-.26.06-.09-.06-.11-.18-.06-.26l.63-1c.14-.19.17-.63-.26-.89-.36-.21-1.93-1.01-2.8-1.33l2.31.5c.29.08.34.18.36.22,0,0,.11-.38.75-.33l-3.75-.83-.23.68c.69.24,1.95.8,2.7,1.21.34.18.73.31.36.87,0,0-1.5-.94-3.02-1.52,0,0-.33-.09-.34-.27,0,0-.07.43-.69.39,0,0,1.84.49,3.82,1.78l-.18.3c-.15.23-.12.52.05.72.1.1.02.26.02.26.07-.07.18-.11.23-.11.24.11.49.04.65-.16h0s.24-.34.24-.34c0,0,.1.08.24.2.05.04.14.11.26.21-.03.08-.05.16-.05.25,0,.38.3.69.68.69.13,0,.24-.04.35-.09.14.12.24.21.25.22l.41.43,1.85-1.78s-.35.08-.75-.16M56.27,9.84c-.16,0-.28-.13-.28-.29,0-.16.13-.28.29-.28.16,0,.28.13.28.29,0,.16-.13.28-.29.28"/>
  <path class="cls-1" d="M61.06,20.88c.15,0,.26-.12.26-.27s-.12-.27-.26-.27-.26.12-.26.27c0,.15.12.27.26.27"/>
  <path class="cls-1" d="M63.04,19.93c-.15-.12-.34-.36-.34-.36,0,0,.1.59.11.75.02.31.24.92-.38.91,0,0,0,0,0,0-.09-1.11-.39-2.55-.39-2.55,0-.02,2-.51,2-.51,0,0-.34-.11-.57-.51,0,0,.01.15-.15.19l-1.84.48c.03.12.07.27.11.43h0c.15.65.32,1.59.42,3.01l.47-.02c.39-.04.93-.35.86-.97,0,0-.13-.42.08-.69,0,0-.14.02-.37-.15"/>
  <path class="cls-1" d="M60.43,11.24c.15,0,.27-.11.27-.26,0-.15-.11-.27-.26-.28-.14,0-.27.11-.27.26,0,.15.11.27.25.28"/>
  <path class="cls-1" d="M61.05,12.12c.15,0,.27-.11.27-.26,0-.15-.11-.27-.26-.28-.14,0-.27.11-.27.26,0,.15.11.27.26.28"/>
  <path class="cls-1" d="M62.54,16.98c-.16-.42-.56-.91-1.18-.64-.06-.18-.48-1.07-.56-1.28.25.02.64.36.64.36,0,0,.28-.25.22-.63,0,0,.09-.14.07-.25-.05-.26.09-.34.09-.34,0,0-.16.07-.34-.14-.06-.07-.21-.09-.21-.09-.4-.36-.76-.17-.76-.17.08.27-.04.64-.04.64-.46-.8-.75-1.25-.75-1.25l.51-.34.84-.56s-.36.01-.71-.29c0,0,.06.11-.07.2-.03.02-.08.05-.14.1-.41-.52-.88-.76-1.64-.14.5.66,1.23,1.85,1.64,2.63l.25.1-.06.27c.61,1.22,1.02,2.56,1.02,2.56l1.54-.46s-.27-.03-.36-.29M60.86,14.14s.25.01.4.32c.13.28.03.49.03.49,0,0-.12-.13-.47-.24,0,0,.08-.19.05-.57M59.15,12.34c.27-.17.48,0,.62.23l-.31.22-.31-.45ZM61.64,17.22l-.14-.45c.16-.07.27-.11.42-.02.16.09.22.3.22.3l-.5.16Z"/>
  <path class="cls-1" d="M32.01,11.93l-1.94-1.65s.12.35-.05.78c0,0,.07-.13.2-.02l1.17.94-.36.48h0c-.05,0-.11-.02-.16-.02-.19,0-.36.07-.48.19-.08.04-.21,0-.21,0,0,0,.09.11.06.21-.04.08-.06.17-.06.27,0,.16.05.3.14.42-.11.19-.5.85-.5.82-.02-.17.02-.57.02-.57-.24-.13-.55-.06-.8.14-.11,0-.22.07-.31.2-.1.07-.22.03-.22.03,0,0,.1.1.1.21-.04.12-.03.23.02.31-.04.32.07.62.31.76,0,0,.24-.21.5-.33,0,0-.3.65-.43,1.06l-1.95-.74s.23.29.2.75c0,0,.02-.14.18-.09s1.85.65,1.85.65c0,0,.47-1.2.64-1.58l-.08-.27.3-.1c.19-.36.37-.68.52-.94l.03-.06s.09.02.14.02c.37,0,.68-.3.68-.67,0-.15-.04-.28-.12-.39l.59-.79ZM29.29,14.75c-.15.07-.25.19-.25.19-.09-.2-.06-.4.01-.53.07-.13.25-.3.42-.31,0,0-.02.17-.01.31,0,.12.03.26.03.26,0,0-.13.04-.21.08M30.85,13.39c-.15,0-.28-.13-.28-.28,0-.15.13-.28.28-.28.15,0,.28.13.28.28,0,.15-.13.28-.28.28"/>
  <path class="cls-1" d="M60.5,34.18l-1.52-1.14.12-.16-.27-.2-.11.16-.59-.46-.19.25.58.47-.22.29c-.09.11-.26-.04-.26-.04l-.96-.79c-.15-.13-.1-.24-.1-.24l.39-.51-.25-.19s-.44.56-.46.58c-.21.25.05.43.05.43l1.19,1.04c.17.15.26.1.34.04-.13.18.08.33.08.33,0,0,1.14,1,1.14.99,0,0,.24.17.44-.08l.61-.77ZM59.98,34.39s-.15.19-.15.19c-.15.16-.28.04-.28.04l-.88-.74c-.15-.13-.17-.18-.13-.25l.24-.32,1.08.88c.08.06.21.1.13.21"/>
  <path class="cls-1" d="M61.38,23.1l-.97-.03c-.17,0-.31.08-.31.55-.05.44.07.51.29.54l1.32.12s.14.03.36-.26l.34-.47c.1-.12.22-.09.54-.08l.83.06c.1,0,.21.04.21.17l-.03.29c0,.13-.08.17-.23.13l-.9-.08-.02.34,1.17.12c.27.01.36-.19.37-.36l.04-.57c.01-.26-.14-.38-.41-.39l-1.31-.04c-.21,0-.36-.01-.42.09l-.39.52c-.18.27-.28.18-.28.18l-.89-.04c-.21,0-.27-.06-.24-.27.02-.21.04-.26.29-.25l.64.04.02-.3Z"/>
  <polygon class="cls-1" points="63.42 28.61 63.06 28.49 62.93 28.88 61.49 28.36 61.6 28.06 61.27 27.95 61.17 28.24 59.59 27.67 59.68 27.37 59.39 27.27 59.19 27.85 63.15 29.35 63.42 28.61"/>
  <polygon class="cls-1" points="64.27 24.64 63.95 24.63 63.9 25.08 60.02 24.55 59.97 24.83 64.16 25.46 64.27 24.64"/>
  <polygon class="cls-1" points="62.05 31.78 58.32 29.74 58.18 29.99 59.88 31.41 57.83 30.58 57.66 30.84 61.2 33.19 61.42 32.87 59.18 31.43 61.65 32.46 59.53 30.77 61.86 32.09 62.05 31.78"/>
  <path class="cls-1" d="M62.11,27.03l1.63.43.1-.37-1.74-.43s-.24,0-.3.12c-.02-.08-.04-.25-.26-.25l-1.47-.36s-.34-.13-.41.15l-.23.78,4.06,1.3.11-.38-1.83-.54.1-.38c.04-.13.13-.11.24-.09M61.43,27.4l-1.57-.46.08-.31s0-.18.19-.12c.19.06,1.25.33,1.25.33,0,0,.22.03.17.18l-.12.38Z"/>
  <polygon class="cls-1" points="58.7 28.99 62.54 30.83 62.69 30.5 59.83 29.2 62.9 29.98 63.05 29.63 59.11 28.05 58.98 28.32 61.17 29.24 58.81 28.72 58.7 28.99"/>
  <path class="cls-1" d="M64.09,25.96l.05-.33-4.24-.35-.07.32,4.06,1.3.09-.36-.97-.26.09-.41.99.09ZM62.76,26.2l-2.12-.6,2.2.25-.07.36Z"/>
  <polygon class="cls-1" points="30.1 24.24 30.13 24.52 25.95 25.07 25.91 24.69 30.1 24.24"/>
  <polygon class="cls-1" points="30.2 24.74 26 25.36 26.05 25.7 29 25.21 26.15 26.32 26.2 26.65 30.38 25.74 30.33 25.48 27.7 26 30.25 25.01 30.2 24.74"/>
  <polygon class="cls-1" points="25.89 24.53 27.9 23.57 30.09 24.09 30.06 23.8 28.38 23.38 30.05 23.31 30.04 23.04 25.79 23.18 25.8 23.54 27.45 23.43 25.86 24.16 25.89 24.53"/>
  <path class="cls-1" d="M28.28,27.86l-.16-.6-.31.09.08.28-.79.24c-.12.03-.26-.04-.29-.15l-.06-.26c-.04-.15.1-.2.22-.23l2.97-.76c.2-.04.27-.04.34.22.06.21-.07.28-.23.32l-.88.25.08.31,1.12-.34c.23-.07.35-.16.21-.63-.12-.46-.21-.53-.5-.45l-3.38.81c-.27.08-.41.18-.34.51,0,0,.1.52.4.5l-.22.07.12.36,1.6-.51Z"/>
  <path class="cls-1" d="M54.5,34.3l2.22,2.82c.12.17.15.26.06.36l-.2.16c-.14.1-.24,0-.35-.15l-2.13-2.88-.24.17,2.26,3.2c.13.18.31.2.45.09l.54-.43c.16-.11.27-.24.11-.46l-2.52-3.04-.21.17Z"/>
  <path class="cls-1" d="M44.9,37.95c0-.23-.04-.38-.53-.4-.47-.04-.58.09-.59.33l-.34,3.53c-.01.26.2.36.46.38l.52.02c.26.01.39-.09.41-.36l.07-3.5ZM44.25,41.48l-.27-.02c-.13,0-.17-.14-.16-.28l.23-3.04c.02-.2.05-.27.32-.25.22.01.25.08.24.29l-.11,3.08c0,.13-.12.23-.25.23"/>
  <path class="cls-1" d="M52.5,36.07c-.11-.2-.22-.31-.66-.09-.43.2-.46.37-.35.58l1.44,3.24c.12.24.35.22.59.1l.46-.24c.24-.12.29-.25.17-.49l-1.65-3.1ZM53.66,39.46l-.24.11c-.12.06-.2-.04-.26-.16l-1.32-2.76c-.08-.18-.09-.26.15-.38.2-.1.26-.05.35.13l1.39,2.74c.06.12.05.26-.07.32"/>
  <polygon class="cls-1" points="45.84 39.93 45.83 39.57 45.53 39.58 45.49 37.93 45.86 37.92 45.85 37.58 45.21 37.59 45.2 41.84 45.56 41.83 45.54 39.94 45.84 39.93"/>
  <path class="cls-1" d="M48.44,39.2l-.32-1.61s-.05-.31-.33-.24l-.8.14.5,4.18.39-.06-.27-1.87.63-.12s.28-.02.2-.41M47.94,39.3l-.39.08-.21-1.63.26-.05c.13-.03.22.01.23.1l.23,1.29s.03.19-.12.21"/>
  <polygon class="cls-1" points="49.96 41.2 49.88 40.89 49.45 40.99 49.09 39.47 49.39 39.4 49.31 39.06 49.02 39.13 48.64 37.49 48.98 37.4 48.9 37.09 48.27 37.25 49.14 41.4 49.96 41.2"/>
  <polygon class="cls-1" points="56.14 38.38 55.97 38.12 55.56 38.38 54.67 37.05 54.94 36.85 54.77 36.59 54.5 36.78 53.56 35.37 53.91 35.13 53.74 34.86 53.16 35.26 55.42 38.86 56.14 38.38"/>
  <polygon class="cls-1" points="55.3 38.93 55.13 38.64 54.74 38.87 52.78 35.5 52.53 35.64 54.59 39.34 55.3 38.93"/>
  <polygon class="cls-1" points="50.94 40.91 49.76 37.2 50.04 37.11 49.95 36.8 49.07 37.05 49.16 37.38 49.47 37.28 50.58 41.03 50.94 40.91"/>
  <polygon class="cls-1" points="58.88 36.02 55.87 33.04 55.64 33.25 56.88 35.09 55.18 33.73 54.93 33.95 57.69 37.16 57.97 36.91 56.22 34.9 58.29 36.63 56.74 34.37 58.62 36.29 58.88 36.02"/>
  <path class="cls-1" d="M51.79,38.83l.63,1.55.36-.14-.74-1.73s-.11-.09-.24-.06c.06-.06.18-.18.04-.36l-.59-1.4s-.1-.35-.37-.24l-.77.28,1.39,4.03.36-.13-.66-1.79.37-.15c.13-.05.17.04.22.14M51.08,38.5l-.57-1.54.29-.12s.14-.11.21.08c.07.19.48,1.2.48,1.2,0,0,.08.18-.07.23l-.35.14Z"/>
  <path class="cls-1" d="M39.15,37.74l.36-.9c.06-.16.03-.32-.4-.48-.39-.2-.5-.11-.61.09l-.57,1.2s-.07.12.12.43l.32.48c.1.16.03.23-.03.36l-.41.94c-.04.09-.12.16-.24.11l-.26-.13c-.12-.05-.1-.14-.03-.28l.37-.8-.31-.15-.51,1.07c-.1.24.05.4.21.47l.52.24c.24.1.43.02.53-.23l.5-1.24c.07-.2.11-.33-.02-.5l-.3-.46c-.19-.26-.09-.33-.09-.33l.36-.8c.09-.19.18-.22.35-.15.19.09.23.13.13.35l-.26.58.28.12Z"/>
  <path class="cls-1" d="M34.08,32.77l-2.7,2.49c-.13.13-.22.19-.31.09l-.21-.24c-.09-.1-.07-.18.07-.3l2.79-2.41-.18-.2-2.99,2.49c-.16.15-.16.33-.04.46l.38.43c.18.22.33.26.53.08l2.84-2.7-.18-.19Z"/>
  <polygon class="cls-1" points="35 39.01 35.16 38.74 34.75 38.48 35.64 37.16 35.89 37.33 36.07 37.04 35.83 36.87 36.76 35.49 37.1 35.71 37.27 35.43 36.7 35.06 34.26 38.54 35 39.01"/>
  <polygon class="cls-1" points="39.9 41.15 40.97 37.35 41.34 37.45 41.41 37.14 40.43 36.88 40.33 37.2 40.68 37.29 39.55 41.04 39.9 41.15"/>
  <path class="cls-1" d="M36.87,38.24l-.72,1.39.34.16.79-1.54c.13-.24,0-.34-.06-.39.09,0,.24.05.33-.12.19-.35.71-1.38.71-1.38,0,0,.18-.31-.08-.44l-.71-.38-2.16,3.64.32.19.95-1.65.24.14c.2.13.11.29.06.39M36.74,37.4l.81-1.43.3.14c.16.09.04.21-.01.31l-.58,1.1s-.05.15-.19.07l-.33-.19Z"/>
  <polygon class="cls-1" points="39.97 36.69 40.22 36.79 38.87 40.81 38.5 40.69 39.97 36.69"/>
  <polygon class="cls-1" points="35.41 34.07 35.62 34.26 32.94 37.54 32.68 37.31 35.41 34.07"/>
  <polygon class="cls-1" points="34.46 33.19 31.45 36.17 31.69 36.41 33.72 34.32 32.1 36.77 32.36 37.02 35.15 33.87 34.94 33.67 33.34 35.41 34.63 33.38 34.46 33.19"/>
  <polygon class="cls-1" points="42.65 37.38 42.33 37.34 41.82 38.95 41.91 37.26 41.59 37.19 41.52 39.58 41.1 41.42 41.47 41.49 41.83 39.65 42.65 37.38"/>
  <polygon class="cls-1" points="35.73 34.35 33.48 37.96 33.74 38.16 36.57 34.98 36.32 34.79 34.33 37.1 35.98 34.53 35.73 34.35"/>
  <path class="cls-1" d="M27.73,30.94l.15.3,3.62-2.21-.14-.31-4.03,1.34.14.34.94-.36.17.38-.85.51ZM28.67,29.96l2.07-.76-1.92,1.09-.15-.33Z"/>
  <polygon class="cls-1" points="28.45 32.28 28.61 32.58 32.24 30.38 32.08 30.15 30.33 31.18 30.08 30.72 31.86 29.76 31.76 29.52 27.98 31.45 28.15 31.78 29.8 30.87 30.07 31.33 28.45 32.28"/>
  <path class="cls-1" d="M32.69,31.7s.33-.12.1-.48c-.23-.36-.38-.58-.38-.58l-3.58,2.27.55.81s.19.3.48.06c.3-.24,2.83-2.08,2.83-2.08M29.47,33.27l-.17-.24,3.05-2.03s.13.19.21.3c.08.12-.13.21-.17.25-.04.04-2.31,1.62-2.6,1.82-.15.1-.2.06-.32-.11"/>
  <polygon class="cls-1" points="28.95 29 29.08 29.31 29.39 29.18 29.26 28.86 30.79 28.27 30.97 28.68 31.28 28.55 31.03 27.89 27.06 29.38 27.17 29.71 28.95 29"/>
  <polygon class="cls-1" points="44.15 15.2 43.66 15.46 43.83 16.62 44.26 16.47 44.15 15.2"/>
  <polygon class="cls-1" points="44.28 16.69 43.85 16.82 43.95 17.8 44.32 17.76 44.28 16.69"/>
  <polygon class="cls-1" points="44.33 14.9 44.1 13.22 45.1 13.07 45.1 14.85 44.33 14.9"/>
  <polygon class="cls-1" points="43.27 13.73 43.63 15.24 44.14 14.97 43.91 13.31 43.27 13.73"/>
  <polygon class="cls-1" points="44.35 15.1 44.46 16.42 45.1 16.41 45.1 15.06 44.35 15.1"/>
  <polygon class="cls-1" points="44.49 16.62 44.52 17.75 45.11 17.75 45.11 16.62 44.49 16.62"/>
  <polygon class="cls-1" points="46.23 15.2 46.72 15.46 46.55 16.62 46.13 16.47 46.23 15.2"/>
  <polygon class="cls-1" points="46.11 16.69 46.53 16.82 46.43 17.8 46.07 17.76 46.11 16.69"/>
  <polygon class="cls-1" points="46.05 14.9 46.28 13.22 45.29 13.07 45.29 14.85 46.05 14.9"/>
  <polygon class="cls-1" points="47.11 13.73 46.76 15.24 46.24 14.97 46.47 13.31 47.11 13.73"/>
  <polygon class="cls-1" points="46.03 15.1 45.93 16.42 45.29 16.41 45.29 15.06 46.03 15.1"/>
  <polygon class="cls-1" points="45.91 16.62 45.87 17.75 45.29 17.75 45.29 16.62 45.91 16.62"/>
  <path class="cls-1" d="M44.17,28.54l-.34.31h2.72l-.34-.31h-.02v-.1c0-.48.14-.67.22-.75v-9.67l-.36-.04v10.56h-.39v-.18c0-.39.09-.6.19-.72v-9.68s-.57,0-.57,0v9.68c.11.11.23.32.23.76v.15h-.64v-.15c0-.44.11-.64.23-.76v-9.68s-.57,0-.57,0v9.68c.1.12.19.33.19.72v.18h-.4v-10.56l-.36.04v9.67c.08.09.22.27.22.75v.1h-.02Z"/>
  <path class="cls-1" d="M47.84,27.07s0,.23-.17.25c0,0,.53.42.52,1.41,0,0,.27-1.06-.35-1.66"/>
  <path class="cls-1" d="M49.8,27.09c0,.06-.02.16-.23.16-.22,0-.23-.2-.23-.2-.06.15-.15.2-.28.2-.14,0-.21-.15-.26-.19l-.04.16s-.06.08-.13.09c0,0,.53.42.52,1.41,0,0,.17-.66-.07-1.24.26,0,.25-.21.25-.21,0,0,.02.18.25.18.22,0,.21-.27.2-.36"/>
  <path class="cls-1" d="M49.8,27.05s0,.02,0,.04c0-.02,0-.04,0-.04"/>
  <path class="cls-1" d="M52.37,27.1c0,.06-.02.16-.23.16-.22,0-.23-.2-.23-.2-.06.15-.15.2-.28.2-.14,0-.21-.15-.26-.19l-.04.16s-.06.08-.13.09c0,0,.53.42.52,1.41,0,0,.17-.66-.07-1.24.26,0,.25-.21.25-.21,0,0,.02.18.25.18.22,0,.21-.27.2-.36"/>
  <path class="cls-1" d="M52.36,27.06s0,.02,0,.04c0-.02,0-.04,0-.04"/>
  <path class="cls-1" d="M50.5,27.08s-.03.74-.56,1.36l.13.31s.43-.52.43-1.22c0,0,.07.79.55,1.22l.07-.3c-.51-.55-.62-1.37-.62-1.37"/>
  <path class="cls-1" d="M39.08,27.82c-.04-.05-.06-.12-.06-.22,0-.12.03-.2.09-.25.04-.03.09-.05.14-.05.08,0,.14.03.18.08.04.06.07.13.07.23,0,.12-.04.2-.11.25-.04.03-.08.04-.13.04-.08,0-.15-.02-.19-.07M38.84,28.03c.1.09.22.14.35.14.09,0,.17-.02.23-.06.03-.02.07-.05.1-.09,0,.13-.02.22-.05.29-.04.12-.12.18-.23.18-.06,0-.1-.01-.14-.05-.03-.03-.05-.07-.06-.12h-.33c.01.14.07.25.17.33.1.07.21.11.34.11.26,0,.44-.13.54-.39.05-.14.08-.31.08-.51s-.03-.38-.08-.5c-.09-.22-.27-.34-.52-.34-.17,0-.3.06-.4.17-.1.11-.16.26-.16.44s.05.31.16.4"/>
  <path class="cls-1" d="M41.55,28.21h.32c0,.07.01.12.03.17.04.08.11.12.22.12.07,0,.12-.02.17-.07.05-.04.07-.11.07-.19,0-.11-.04-.18-.13-.22-.05-.02-.13-.03-.24-.03v-.24c.11,0,.18-.01.22-.03.07-.03.11-.1.11-.2,0-.06-.02-.12-.06-.16-.04-.04-.09-.06-.16-.06-.08,0-.14.02-.17.07-.04.05-.05.12-.05.2h-.31c0-.08.02-.16.04-.24.03-.06.07-.13.13-.18.04-.04.09-.07.15-.09.06-.02.13-.03.22-.03.16,0,.29.04.39.12s.15.19.15.33c0,.1-.03.18-.09.25-.04.04-.08.07-.12.09.03,0,.07.03.13.08.08.08.13.18.13.32,0,.14-.05.27-.15.37-.1.11-.24.16-.44.16-.24,0-.4-.08-.49-.23-.05-.08-.08-.19-.08-.32"/>
  <path class="cls-1" d="M40.54,27.95s.09-.05.15-.05c.07,0,.13.03.18.08.05.05.07.13.07.22,0,.09-.02.16-.06.21-.04.05-.1.08-.17.08s-.14-.03-.18-.09c-.05-.06-.07-.13-.07-.22,0-.11.03-.19.1-.24M41.08,27.15c-.09-.08-.22-.12-.37-.12-.11,0-.2.02-.28.07-.08.05-.14.11-.19.2-.06.09-.09.21-.11.36-.01.08-.02.18-.02.31,0,.22.04.4.12.53.1.18.26.26.47.26.2,0,.34-.06.44-.18.09-.12.14-.26.14-.41s-.05-.29-.14-.39c-.09-.1-.22-.15-.37-.15-.07,0-.13.01-.19.03-.05.02-.1.06-.14.11,0-.13.03-.23.05-.29.05-.12.12-.18.23-.18.07,0,.13.03.16.08.02.03.03.06.03.09h.33c-.01-.13-.06-.24-.16-.32"/>
  <path class="cls-1" d="M38.5,28.47h-.2v-1.39h-.27s0,.04-.01.07c-.01.05-.04.09-.07.12-.04.04-.09.07-.16.09-.02,0-.04,0-.07,0v.24h.25v.86h-.24v.28h.78v-.28Z"/>
  <path class="cls-1" d="M50.97,33.24l-1.86-.44,1.57-.13-1.26-2.58c-1.4.4-2.57-.45-3.02-.5-.54-.08-.85.13-1.26.47-.38-.4-.89-.63-1.42-.46-.96.19-1.54.77-2.91.44l-1.21,2.52,1.6.26-1.87.29-.45.87,5.56-.74c.13.2.41.43.7.41.24-.04.46-.17.59-.39l5.69.76-.45-.78ZM45.11,33.23c-.22-.02-.32-.27-.32-.29-.03-.23.25-.95.32-1.29.07.33.35,1.09.3,1.3,0,.02-.08.26-.3.28"/>
</svg>