<?xml version="1.0" encoding="UTF-8"?>
<svg id="Layer_1" data-name="Layer 1" xmlns="http://www.w3.org/2000/svg" viewBox="0 0 90 45">
  <defs>
    <style>
      .cls-1 {
        fill: #fff;
      }
    </style>
  </defs>
  <polygon class="cls-1" points="58.58 19.24 56.02 15.55 56.02 15.51 61.14 15.51 61.14 15.55 58.58 19.24"/>
  <path class="cls-1" d="M88.69,16.78l1.31-1.23v-.04h-6.62v.04l1.31,1.23c.15.14.2.26.2.5v4.85h-4.61v-4.85c0-.24.05-.36.2-.5l1.31-1.23v-.04h-6.62v.04l1.31,1.23c.15.14.2.26.2.5v10.44c0,.24-.05.36-.2.5l-1.31,1.23v.04h6.62v-.04l-1.31-1.23c-.15-.14-.2-.26-.2-.5v-5.19h4.61v5.19c0,.24-.05.36-.2.5l-1.31,1.23v.04h6.62v-.04l-1.31-1.23c-.15-.14-.2-.26-.2-.5v-10.44c0-.24.06-.36.2-.5"/>
  <path class="cls-1" d="M62.78,26.16l.5-1.54h4.73l1.08,2.99c.06.19.06.37-.06.54l-1,1.3v.04h6.3v-.04l-1.21-1.4c-.11-.14-.16-.22-.22-.39l-4.28-12.15h-4.7v.04l1.24,1.43c.13.15.16.3.08.53l-2.89,8.56c-.13.36-.23.54-.46.84l-1.91,2.55v.04h4.71v-.04l-1.86-2.74c-.13-.18-.12-.35-.06-.55M63.41,24.22l2.22-6.51,2.25,6.51h-4.46Z"/>
  <path class="cls-1" d="M21.07,27.72c0,.24.05.36.2.5l1.31,1.23v.04h-6.62v-.04l1.31-1.23c.15-.14.2-.26.2-.5v-10.44c0-.24-.06-.36-.2-.5l-1.31-1.23v-.04h6.62v.04l-1.31,1.23c-.15.14-.2.26-.2.5v10.44Z"/>
  <path class="cls-1" d="M45.54,27.72c0,.24.05.36.2.5l1.31,1.23v.04h-6.62v-.04l1.31-1.23c.15-.14.2-.26.2-.5v-10.44c0-.24-.06-.36-.2-.5l-1.31-1.23v-.04h6.62v.04l-1.31,1.23c-.15.14-.2.26-.2.5v10.44Z"/>
  <path class="cls-1" d="M30.66,15.91h.73c1.36,0,2.28.89,2.28,3.33s-.92,3.33-2.28,3.33h-1.06v-6.31c0-.18.04-.35.33-.35M31.34,22.97c.26,0,.41.11.48.29.07.18,2.45,6.24,2.45,6.24h4.65v-.04s-.97-.99-.97-.99c-.26-.25-.34-.41-.47-.71-.19-.45-1.77-4.22-1.77-4.22l-2.57-.75v-.05c1.61,0,4.35-.83,4.35-3.49,0-3.13-2.45-3.73-5.14-3.73h-7.15v.04l1.31,1.23c.15.14.2.26.2.5v10.44c0,.24-.05.36-.2.5l-1.31,1.23v.04h6.62v-.04l-1.31-1.23c-.15-.14-.2-.26-.2-.49v-4.76h1.01Z"/>
  <path class="cls-1" d="M9.44,22.5c0-4.54-1.01-6.59-3.27-6.59h-.73c-.29,0-.33.18-.33.35v12.48c0,.18.04.35.33.35h.73c2.26,0,3.27-2.05,3.27-6.59M13.52,22.5c0,5.2-2.81,6.99-7.17,6.99H0v-.04l1.31-1.23c.15-.14.2-.26.2-.5v-10.44c0-.24-.05-.36-.2-.5l-1.31-1.23v-.04h6.35c4.36,0,7.17,1.8,7.17,6.99"/>
  <path class="cls-1" d="M53.1,22.91l-5.08-7.36v-.04h4.33l4.49,6.47v5.75c0,.24.05.36.2.5l1.31,1.23v.04h-6.62v-.04l1.31-1.23c.15-.14.2-.26.2-.5v-4.29c0-.24-.01-.35-.14-.52"/>
</svg>