<?xml version="1.0" encoding="UTF-8"?>
<svg id="Layer_1" xmlns="http://www.w3.org/2000/svg" version="1.1" viewBox="0 0 100.9 21.8">
  <!-- Generator: Adobe Illustrator 29.0.0, SVG Export Plug-In . SVG Version: 2.1.0 Build 186)  -->
  <defs>
    <style>
      .st0 {
        fill: #da0046;
      }

      .st1 {
        fill: #fff;
      }
    </style>
  </defs>
  <g>
    <path class="st1" d="M20.4.6v20.8h-4.1V7.9l-5.9,9.6h-.5L4.1,7.9v13.4H0V.6h4.2l6,9.8L16.1.6s4.3,0,4.3,0Z"/>
    <path class="st1" d="M36.6,19.5c-1.5,1.5-3.4,2.3-5.6,2.3s-4.1-.8-5.6-2.3-2.3-3.4-2.3-5.6.8-4.1,2.3-5.6,3.4-2.3,5.6-2.3,4.1.8,5.6,2.3,2.3,3.4,2.3,5.6-.8,4.1-2.3,5.6ZM28.2,16.9c.8.8,1.7,1.2,2.9,1.2s2.1-.4,2.9-1.2c.8-.8,1.2-1.8,1.2-2.9s-.4-2.2-1.2-2.9-1.7-1.2-2.9-1.2-2.1.4-2.9,1.2-1.1,1.8-1.1,2.9.4,2.2,1.1,2.9Z"/>
    <path class="st1" d="M49.8,6.1c1.6,0,3,.5,4,1.6,1.1,1.1,1.6,2.6,1.6,4.5v9.1h-3.8v-8.6c0-1-.3-1.7-.8-2.3-.5-.5-1.2-.8-2.1-.8s-1.8.3-2.4.9c-.6.6-.9,1.5-.9,2.8v8h-3.8V.6h3.8v7.6c.9-1.4,2.4-2.1,4.4-2.1Z"/>
    <path class="st1" d="M62.2,10.7c0,.4.3.7.8,1,.5.2,1.2.5,1.9.7.8.2,1.5.4,2.3.7s1.4.8,1.9,1.4c.5.7.8,1.5.8,2.5,0,1.5-.6,2.7-1.7,3.5s-2.6,1.2-4.3,1.2c-3.1,0-5.1-1.2-6.2-3.5l3.3-1.9c.4,1.3,1.4,1.9,2.9,1.9s2.1-.4,2.1-1.3-.3-.7-.8-1c-.5-.2-1.2-.5-1.9-.7-.8-.2-1.5-.4-2.3-.7s-1.4-.8-1.9-1.4-.8-1.5-.8-2.4c0-1.5.5-2.6,1.6-3.5,1.1-.8,2.4-1.3,4-1.3s2.3.3,3.3.8,1.8,1.3,2.3,2.3l-3.3,1.8c-.5-1-1.3-1.5-2.4-1.5s-.9.1-1.2.3-.5.5-.5.9v.2h0Z"/>
    <path class="st1" d="M74.2,4.7c-.6,0-1.2-.2-1.6-.7s-.7-1-.7-1.6.2-1.2.7-1.7,1-.7,1.6-.7,1.2.2,1.7.7c.5.5.7,1,.7,1.7s-.2,1.2-.7,1.6c-.5.4-1,.7-1.7.7ZM72.3,21.4V6.5h3.8v14.9h-3.8Z"/>
    <path class="st1" d="M87.8,6.1c1.6,0,3,.5,4,1.6,1.1,1.1,1.6,2.6,1.6,4.5v9.1h-3.8v-8.6c0-1-.3-1.7-.8-2.3-.5-.5-1.2-.8-2.1-.8s-1.8.3-2.4.9c-.6.6-.9,1.5-.9,2.8v8h-3.8V6.5h3.8v1.7c.9-1.4,2.4-2.1,4.4-2.1Z"/>
  </g>
  <circle class="st0" cx="98.5" cy="19.5" r="2.2"/>
</svg>