<?xml version="1.0" encoding="UTF-8"?>
<svg id="Layer_1" xmlns="http://www.w3.org/2000/svg" version="1.1" viewBox="0 0 149.03 19.15">
  <!-- Generator: Adobe Illustrator 29.0.0, SVG Export Plug-In . SVG Version: 2.1.0 Build 186)  -->
  <defs>
    <style>
      .st0 {
        fill: #fff;
      }
    </style>
  </defs>
  <path class="st0" d="M0,18.62c.62-2.23,1.22-4.46,1.86-6.67,1.07-3.7,2.17-7.39,3.25-11.09.14-.5.37-.7.94-.7,2.45.03,4.9.03,7.35,0,.51,0,.82.16.93.62.23.92.43,1.84.66,2.76.99,3.95,2.01,7.9,2.98,11.85.27,1.1.39,2.24.61,3.51-1.66,0-3.24.01-4.83-.02-.15,0-.36-.31-.43-.51-.34-.98-.68-1.95-.94-2.95-.15-.57-.45-.75-.99-.76-1.41-.04-2.81-.13-4.22-.14-.21,0-.54.26-.63.47-.42,1.06-.74,2.17-1.17,3.23-.11.26-.47.57-.73.59-1.54.1-3.09.11-4.63.15,0-.11,0-.22,0-.34ZM7.98,9.36h3c-.52-1.55-1.02-3.06-1.52-4.56-.05,0-.11.02-.16.02-.43,1.49-.87,2.99-1.32,4.54Z"/>
  <path class="st0" d="M121.53,0c.3.06.6.15.91.17,2,.17,3.49,1.23,5,2.78-1.12,1.03-2.19,2.06-3.31,3.03-.16.14-.66.14-.84,0-2.39-1.88-5.7-.63-6.27,2.44-.13.73-.14,1.51-.03,2.24.33,2.08,3.56,3.7,5.47,2.73.55-.28.95-.86,1.42-1.3-.04-.1-.08-.21-.13-.31-.93-.08-1.85-.16-2.74-.23v-4.41h9.25c-.05,2.25.06,4.51-1.07,6.58-.54.99-1.16,1.94-1.75,2.91-.04.07-.14.13-.23.15-.85.19-1.33,1.23-2.36,1.04-.09-.02-.23.06-.29.14-.63.75-1.6.48-2.39.74-.54.18-1.2-.03-1.81-.05-.38-.01-.77,0-1.14.16-1.36-.72-2.85-1.28-4.05-2.2-.99-.76-1.79-1.87-2.44-2.96-3.28-5.48.48-12.54,6.44-13.5.22-.04.43-.11.65-.16.56,0,1.13,0,1.69,0Z"/>
  <path class="st0" d="M110.59,5.52c-1.5,0-2.96,0-4.42,0-2.73,0-5.46,0-8.2,0q-1.42,0-1.21,1.71h9.27v4.97h-9.31v1.95h13.88v4.75h-18.65V3.72c-.1-.08-.2-.15-.3-.23-.07.18-.1.37-.2.52-1.3,1.92-2.62,3.83-3.9,5.77-.23.35-.34.83-.35,1.25-.03,2.29-.02,4.58-.02,6.88v.96h-4.65c-.08-1.99-.15-3.96-.23-5.93-.05-1.23-.1-2.46-.18-3.68-.02-.25-.14-.53-.31-.73-1.64-1.98-3.31-3.95-4.95-5.93-.61-.74-1.16-1.52-1.83-2.4,1.09,0,2.13.12,3.13-.03,2-.3,3.37.4,4.33,2.15.48.88,1.2,1.62,1.76,2.46.41.62.74.52,1.11,0,.9-1.29,1.77-2.59,2.72-3.84.25-.33.74-.65,1.13-.67,1.34-.05,2.69.03,4.04.07.48.01.96.06,1.43.06,4.68,0,9.35,0,14.03,0,.59,0,1.19,0,1.86,0v5.15Z"/>
  <path class="st0" d="M57.04,5.86c-1.77,0-3.69.43-5.27-.11-1.99-.67-3.92-.63-5.89-.68-.71-.02-1.45.18-2.14.39-.28.08-.47.45-.7.68.26.2.5.47.79.6,1.39.62,2.83.07,4.25.14,1.38.06,2.76.04,4.13.14,1.76.13,2.86,1.31,3.79,2.62.4.56.62,1.25.84,1.91.21.62.74,1.25.12,1.93.53,1.82-.99,2.63-1.9,3.7-.96,1.12-2.23,1.63-3.74,1.61-2.87-.03-5.74-.01-8.6-.05-.33,0-.67-.2-.99-.33-1-.43-1.91-.93-2.52-1.91-.72-1.16-.99-2.2-.72-3.64,1.37,0,2.76,0,4.16.01.15,0,.4.13.44.25.24.67.81.84,1.4.83,2.11-.05,4.22-.16,6.33-.22.63-.02,1.09-.36,1.1-.92.01-.6-.51-.9-1.11-.91-1.6-.03-3.21.02-4.8-.08-1.39-.09-2.81-.21-4.15-.54-1.75-.43-2.9-1.6-3.14-3.44-.14-1.07-.21-2.17-.13-3.24.13-1.71,1.66-3.51,4.01-3.91,3.32-.57,6.63-.53,9.92.03,2.53.43,4.38,2.68,4.52,5.15Z"/>
  <path class="st0" d="M58.03,18.84c1.79-6.12,3.54-12.12,5.28-18.12.12-.43.35-.56.79-.54,2.1.1,4.21.2,6.31.25.57.01,1.15-.12,1.85-.2.2.59.44,1.17.59,1.79.68,2.97,1.32,5.94,2.02,8.91.3,1.29.71,2.55,1.05,3.82.3,1.14.56,2.3.87,3.44.16.59-.09.74-.62.74-1.32-.01-2.65.03-3.97-.03-.26-.01-.64-.31-.73-.56-.38-.99-.63-2.03-1-3.02-.1-.26-.46-.58-.72-.6-1.49-.12-2.98-.18-4.47-.2-.21,0-.52.29-.61.51-.4,1.04-.77,2.1-1.1,3.16-.14.44-.35.65-.82.65-1.49,0-2.97,0-4.71,0ZM69.14,9.38c-.53-1.6-1.04-3.1-1.61-4.83-.51,1.76-.94,3.26-1.39,4.83h3Z"/>
  <path class="st0" d="M149.03,19.15c-1.54-.08-3.05-.15-4.6-.23,0-.81.03-1.56,0-2.3-.06-1.22-.13-2.45-.26-3.66-.02-.2-.37-.52-.56-.52-2.59-.04-5.18-.02-7.81-.02-.67,2.13-.24,4.3-.43,6.48h-4.64V.76h4.69c0,.48,0,.94,0,1.4,0,1.51.01,3.02,0,4.53,0,.44.11.67.61.68,2.53.03,5.07.07,7.6.12.52.01.59-.26.6-.68.04-1.81.11-3.63.16-5.44,0-.19.03-.38.04-.54h4.63v18.32Z"/>
  <path class="st0" d="M19.14,18.91V.72h4.54c.01.33.04.65.04.97,0,3.97.02,7.93-.01,11.9,0,.7.13.96.92.97,4.02.01,8.04.1,12.06.13.6,0,.88.17.88.78,0,.97.04,1.94.08,2.92.03.57-.35.53-.73.53-2.84,0-5.68,0-8.53,0-2.76,0-5.52,0-8.27,0-.3,0-.61,0-.98,0Z"/>
</svg>