<?xml version="1.0" encoding="UTF-8"?>
<svg id="Layer_1" xmlns="http://www.w3.org/2000/svg" version="1.1" viewBox="0 0 165 43.37">
  <!-- Generator: Adobe Illustrator 29.0.0, SVG Export Plug-In . SVG Version: 2.1.0 Build 186)  -->
  <defs>
    <style>
      .st0 {
        fill: #fff;
      }
    </style>
  </defs>
  <path class="st0" d="M164.24,20.96h-2.79v.58c0,1.27-.33,2.1-.98,2.49-.66.38-2.08.58-4.27.58-2.32,0-3.78-.41-4.41-1.21-.63-.8-.95-2.67-.95-5.61h13.4v-1.46c0-3.55-.53-5.87-1.6-6.97-1.06-1.1-3.31-1.65-6.74-1.65-3.14,0-5.25.63-6.33,1.91-1.08,1.27-1.62,3.76-1.62,7.48,0,4.01.54,6.64,1.61,7.9,1.07,1.25,3.32,1.88,6.75,1.88,2.95,0,5.01-.39,6.18-1.16,1.18-.77,1.76-2.12,1.76-4.06l-.02-.68ZM151.86,11.01c.65-.71,2.09-1.06,4.3-1.06s3.62.3,4.28.9c.67.6.99,1.91.99,3.92l.02.88h-10.57c0-2.39.33-3.94.98-4.65Z"/>
  <path class="st0" d="M99.53,12.68v-.06c2.27-.78,3.41-2.64,3.41-5.59s-.5-4.79-1.51-5.69c-1-.89-3.14-1.35-6.39-1.35h-11.76v26.58h13.03c2.75,0,4.69-.57,5.79-1.71,1.11-1.14,1.67-3.13,1.67-5.95,0-3.49-1.41-5.57-4.23-6.25ZM86.27,2.53h8.71c2.14,0,3.53.26,4.15.79.63.52.95,1.69.95,3.48,0,2.07-.36,3.39-1.08,4-.72.59-2.34.89-4.84.89h-7.89V2.53ZM99.84,23.15c-.71.59-2.21.88-4.49.88l-2.71.02h-6.37v-9.83h7.74c3.17,0,5.11.27,5.82.81.72.54,1.07,2,1.07,4.37,0,1.91-.36,3.15-1.06,3.75Z"/>
  <path class="st0" d="M136.75,7.7c-3.3,0-5.36.95-6.19,2.86l-.08-.06.08-2.53h-2.63v18.62h2.73v-11.2c0-3.63,1.91-5.43,5.74-5.43,1.74,0,2.92.27,3.53.83.61.55.91,1.63.91,3.22v12.58h2.73v-12.11c0-2.65-.47-4.44-1.41-5.38-.95-.93-2.74-1.4-5.41-1.4Z"/>
  <path class="st0" d="M115.45,7.7c-3.43,0-5.65.59-6.67,1.79-1.03,1.19-1.54,3.79-1.54,7.79s.51,6.6,1.54,7.79c1.02,1.2,3.25,1.79,6.67,1.79s5.68-.6,6.7-1.79c1.03-1.19,1.54-3.79,1.54-7.79s-.51-6.6-1.54-7.79c-1.02-1.2-3.26-1.79-6.7-1.79ZM119.96,23.42c-.58.79-2.09,1.18-4.51,1.18s-3.91-.39-4.49-1.18c-.58-.79-.87-2.83-.87-6.14s.29-5.36.87-6.15c.58-.78,2.07-1.18,4.49-1.18s3.93.39,4.51,1.18c.58.78.86,2.84.86,6.15s-.29,5.35-.86,6.14Z"/>
  <path class="st0" d="M78.53,11.69h-7.89c-2.5,0-4.12-.3-4.84-.89-.72-.6-1.09-1.93-1.09-4,0-1.79.31-2.95.95-3.48.63-.53,2.01-.79,4.16-.79h8.7v9.15ZM78.53,24.05h-6.37l-2.71-.02c-2.28,0-3.78-.29-4.48-.89-.71-.59-1.06-1.84-1.06-3.75,0-2.38.35-3.84,1.07-4.37.71-.54,2.66-.81,5.83-.81h7.73v9.83ZM69.77,0C66.51,0,64.38.45,63.37,1.35c-1.01.9-1.51,2.79-1.51,5.69s1.13,4.81,3.41,5.59v.06c-2.82.68-4.23,2.76-4.23,6.25,0,2.82.55,4.8,1.67,5.95,1.11,1.14,3.04,1.71,5.79,1.71h13.03V0h-11.76Z"/>
  <path class="st0" d="M53.91,23.87c-.62.49-1.89.73-3.8.73-3.84,0-5.76-1.17-5.76-3.51,0-1.46.37-2.45,1.12-2.96.74-.51,2.2-.76,4.35-.76s3.45.22,4.09.67c.63.44.94,1.39.94,2.84s-.31,2.51-.94,2.99M50.43,15.25c-3.27,0-5.23.64-5.88,1.93l-.06-.02v-2.26c0-2.13.29-3.51.88-4.14.58-.63,1.86-.94,3.84-.94,3.35,0,5.02.94,5.02,2.82,0,.09,0,.27-.02.55h2.7c0-2.17-.48-3.63-1.47-4.37-.98-.75-2.9-1.12-5.76-1.12-3.1,0-5.2.46-6.29,1.37-1.09.92-1.64,2.66-1.64,5.23v12.29h2.73l-.21-2.01.05-.02c1.04,1.53,3.15,2.3,6.33,2.3,4.7,0,7.05-1.89,7.05-5.67,0-2.25-.52-3.8-1.58-4.65-1.05-.86-2.95-1.29-5.7-1.29"/>
  <path class="st0" d="M29.36,7.7c-3.03,0-5.09.44-6.19,1.33-1.11.89-1.66,2.56-1.66,5.02h2.73v-.49c0-1.44.36-2.4,1.07-2.88.71-.48,2.14-.72,4.26-.72s3.37.46,3.96,1.36c.59.91.88,2.95.88,6.11s-.33,5.06-1,5.9c-.66.84-2.23,1.27-4.68,1.27-2.08,0-3.39-.28-3.96-.83-.56-.55-.84-1.85-.84-3.9h-2.72l-.02,1.01c0,3.99,2.61,5.98,7.83,5.98,3.35,0,5.56-.63,6.64-1.89,1.07-1.26,1.61-3.86,1.61-7.79,0-3.69-.55-6.19-1.64-7.51-1.1-1.32-3.19-1.98-6.26-1.98"/>
  <polygon class="st0" points="14.65 0 14.65 15.45 13.41 15.45 6.82 7.97 3.4 7.97 11.36 16.52 1.95 26.59 5.64 26.59 13.54 17.57 14.65 17.57 14.65 26.59 17.38 26.59 17.38 0 14.65 0"/>
  <path class="st0" d="M3.51,33.82l1.74,4.78H1.79l1.72-4.78ZM2.87,33.09l-2.87,7.84h.94l.6-1.66h3.97l.6,1.66h.92l-2.92-7.84h-1.24Z"/>
  <path class="st0" d="M11.28,39.91c-.2.29-.63.43-1.29.43-.61,0-1.01-.14-1.2-.43-.19-.29-.29-.89-.29-1.81,0-.83.1-1.39.29-1.66.2-.27.59-.41,1.18-.41.63,0,1.06.13,1.28.41.22.28.33.8.33,1.59,0,.97-.1,1.6-.3,1.89M11.58,36.12h-.02c-.19-.5-.79-.76-1.79-.76-.8,0-1.36.2-1.67.6-.31.4-.46,1.11-.46,2.14,0,1.12.15,1.88.46,2.29.31.41.88.62,1.72.62.92,0,1.51-.27,1.76-.8h.02s-.04.72-.04.72h.8v-7.84h-.8v3.03Z"/>
  <polygon class="st0" points="16.04 38.44 15.75 39.37 15.61 39.83 15.47 40.3 15.44 40.3 15.29 39.83 15.15 39.36 14.85 38.42 13.88 35.43 13.05 35.43 14.87 40.93 16.02 40.93 17.86 35.43 16.97 35.43 16.04 38.44"/>
  <g>
    <path class="st0" d="M19.52,36.33c.19-.2.62-.31,1.27-.31s1.07.09,1.27.26c.2.19.29.56.29,1.16v.26s-3.11,0-3.11,0c0-.71.1-1.16.29-1.37M22.34,39.27v.17c0,.38-.09.62-.29.74-.2.11-.61.16-1.26.16-.68,0-1.12-.11-1.3-.35-.18-.23-.28-.78-.28-1.65h3.95v-.43c0-1.05-.16-1.73-.47-2.05-.31-.32-.97-.49-1.98-.49-.93,0-1.55.18-1.87.56-.32.38-.48,1.11-.48,2.21,0,1.18.16,1.96.47,2.33.32.36.98.55,1.99.55.87,0,1.48-.11,1.82-.34.35-.23.52-.63.52-1.2v-.2h-.83Z"/>
    <path class="st0" d="M26.83,35.31c-.73,0-1.26.26-1.57.78l-.02-.02.08-.64h-.81v5.49h.81v-3.28c0-1.11.45-1.67,1.34-1.67.62,0,.92.28.92.84,0,.05,0,.14-.02.29l-.02.14h.79v-.38c0-1.04-.5-1.56-1.51-1.56"/>
    <path class="st0" d="M31.49,38.98v.3s-.02.27-.02.27c0,.52-.26.78-.78.78s-.78-.29-.78-.88v-3.36h2.11v-.67h-2.11v-1.31h-.8v1.31h-.76v.67h.76v3.55c0,.9.53,1.35,1.59,1.35s1.54-.54,1.54-1.62v-.41h-.75Z"/>
  </g>
  <rect class="st0" x="32.94" y="35.43" width=".81" height="5.49"/>
  <rect class="st0" x="32.94" y="33.09" width=".81" height=".9"/>
  <path class="st0" d="M38.07,37.84l-.82-.05-.65-.03c-.54-.03-.81-.32-.81-.89,0-.37.08-.6.24-.7.16-.1.54-.14,1.14-.14.64,0,1.04.04,1.2.14.15.09.23.32.23.7h.8v-.2c0-.88-.73-1.31-2.18-1.31-.9,0-1.51.1-1.82.31-.3.2-.45.61-.45,1.23,0,.65.19,1.08.58,1.29.38.21,1.18.31,2.4.31.53,0,.79.29.79.86,0,.4-.1.67-.31.8-.21.12-.64.18-1.31.18-.54,0-.9-.06-1.08-.18-.18-.12-.28-.36-.28-.72v-.25h-.83v.3c-.01.58.16.98.49,1.2.34.22.96.32,1.86.32s1.48-.11,1.81-.35c.33-.23.49-.65.49-1.27,0-.99-.49-1.51-1.49-1.56"/>
  <rect class="st0" x="40.72" y="33.09" width=".8" height=".9"/>
  <rect class="st0" x="40.72" y="35.43" width=".8" height="5.49"/>
  <g>
    <path class="st0" d="M45.53,35.36c-.97,0-1.58.28-1.82.85l-.03-.02.03-.75h-.78v5.49h.8v-3.3c0-1.07.57-1.6,1.69-1.6.51,0,.86.08,1.04.24.18.17.27.48.27.95v3.71h.8v-3.58c0-.77-.14-1.31-.42-1.58-.28-.27-.81-.41-1.59-.41"/>
    <path class="st0" d="M52.45,39.89c-.2.3-.62.44-1.26.44s-1.04-.13-1.23-.4c-.19-.27-.28-.86-.28-1.77s.09-1.48.28-1.74c.19-.27.6-.4,1.23-.4s1.06.13,1.26.39c.2.26.31.8.31,1.63,0,.94-.11,1.55-.31,1.85M52.82,36.18h-.01c-.28-.55-.87-.82-1.77-.82-.85,0-1.42.2-1.73.6-.31.41-.47,1.15-.47,2.25s.15,1.79.46,2.19c.31.4.86.6,1.67.6.99,0,1.59-.25,1.79-.76h.02v1.1c0,.54-.11.9-.32,1.08-.21.18-.62.28-1.23.28s-.97-.07-1.15-.21c-.17-.14-.26-.44-.26-.92h-.78c0,.69.15,1.16.45,1.41.3.25.86.38,1.68.38.92,0,1.55-.15,1.89-.45.35-.3.52-.85.52-1.64v-5.85h-.8l.04.75Z"/>
    <path class="st0" d="M60.99,40.26c-1.05,0-1.68-.09-1.91-.27-.23-.18-.35-.67-.35-1.46,0-.61.07-1,.21-1.18.14-.17.51-.32,1.1-.45l3.06,2.52c-.16.56-.86.84-2.11.84M64.15,38.07v-.4s0-.21,0-.21h-.87v1.06l-2.95-2.45-.19-.16c-.33-.26-.5-.61-.5-1.04,0-.39.1-.64.29-.77.19-.13.58-.19,1.16-.19.64,0,1.05.07,1.21.21.16.14.23.5.23,1.08v.29h.87v-.48c.01-.71-.15-1.2-.47-1.46-.32-.26-.92-.39-1.8-.39s-1.51.13-1.84.39c-.33.27-.49.77-.49,1.5,0,.52.24.98.71,1.37-.11.02-.19.04-.24.05-.54.11-.9.3-1.09.58-.18.27-.28.76-.28,1.45,0,1.06.2,1.73.6,2.04.4.31,1.29.46,2.67.46s2.31-.35,2.63-1.04l1.16.96.48-.62-1.37-1.13c.06-.33.09-.7.09-1.11"/>
    <path class="st0" d="M74.1,38.17l-.34.81c-.03.08-.08.21-.16.41l-.16.41h-.02l-.16-.41-.16-.41-.33-.82-2.09-5.07h-1.53v7.84h.88v-6.92s-.01-.21-.01-.21h.02c.03.08.05.14.07.18l.07.18.16.37,2.67,6.4h.88l2.67-6.48.15-.37s.03-.09.07-.18l.07-.18h.02v.47s0,.47,0,.47v6.27h.88v-7.84h-1.55l-2.08,5.08Z"/>
    <path class="st0" d="M81.22,40.34c-.56,0-.94-.07-1.12-.21-.19-.14-.28-.44-.28-.88s.09-.71.28-.84c.18-.13.59-.2,1.2-.2s1.06.08,1.28.23c.22.14.33.44.33.87,0,.69-.57,1.03-1.7,1.03M81.35,35.36c-.84,0-1.4.11-1.7.33-.28.22-.43.65-.43,1.29h.8c0-.08,0-.13,0-.16,0-.55.49-.83,1.48-.83.58,0,.96.09,1.13.28.17.18.26.59.26,1.22v.67h-.02c-.19-.38-.77-.56-1.73-.56-.81,0-1.37.12-1.68.38-.31.25-.46.71-.46,1.37,0,1.11.69,1.67,2.08,1.67.94,0,1.56-.23,1.87-.68h.01s-.06.6-.06.6h.8v-3.63c0-.75-.16-1.27-.48-1.53-.32-.27-.94-.41-1.86-.41"/>
    <path class="st0" d="M87.56,35.31c-.73,0-1.26.26-1.58.78l-.02-.02.08-.64h-.81v5.49h.81v-3.28c0-1.11.45-1.67,1.34-1.67.61,0,.92.28.92.84,0,.05,0,.14-.02.29l-.02.14h.79v-.38c0-1.04-.5-1.56-1.51-1.56"/>
  </g>
  <polygon class="st0" points="93.97 35.43 92.96 35.43 91.02 37.65 90.66 37.65 90.66 33.09 89.85 33.09 89.85 40.93 90.66 40.93 90.66 38.27 90.98 38.27 93.31 40.93 94.4 40.93 91.62 37.96 93.97 35.43"/>
  <g>
    <path class="st0" d="M95.9,36.33c.19-.2.61-.31,1.26-.31s1.07.09,1.27.26c.19.19.29.56.29,1.16v.26s-3.11,0-3.11,0c0-.71.09-1.16.29-1.37M98.72,39.27v.17c0,.38-.09.62-.29.74-.19.11-.62.16-1.26.16-.68,0-1.11-.11-1.3-.35-.19-.23-.28-.78-.28-1.65h3.95v-.43c0-1.05-.16-1.73-.47-2.05-.31-.32-.98-.49-1.98-.49-.92,0-1.55.18-1.86.56-.32.38-.48,1.11-.48,2.21,0,1.18.15,1.96.47,2.33.31.36.98.55,1.99.55.87,0,1.48-.11,1.82-.34.35-.23.52-.63.52-1.2v-.2h-.83Z"/>
    <path class="st0" d="M103.18,38.98v.3s-.02.27-.02.27c0,.52-.26.78-.78.78s-.78-.29-.78-.88v-3.36h2.11v-.67h-2.11v-1.31h-.8v1.31h-.76v.67h.76v3.55c0,.9.53,1.35,1.59,1.35s1.54-.54,1.54-1.62v-.41h-.75Z"/>
  </g>
  <rect class="st0" x="104.64" y="33.09" width=".81" height=".9"/>
  <rect class="st0" x="104.64" y="35.43" width=".81" height="5.49"/>
  <g>
    <path class="st0" d="M109.45,35.36c-.98,0-1.58.28-1.83.85l-.02-.02.02-.75h-.78v5.49h.81v-3.3c0-1.07.56-1.6,1.69-1.6.51,0,.86.08,1.04.24.18.17.27.48.27.95v3.71h.8v-3.58c0-.77-.13-1.31-.42-1.58-.28-.27-.8-.41-1.59-.41"/>
    <path class="st0" d="M116.38,39.89c-.21.3-.63.44-1.27.44s-1.04-.13-1.22-.4c-.19-.27-.29-.86-.29-1.77s.09-1.48.29-1.74c.18-.27.59-.4,1.22-.4s1.06.13,1.27.39c.2.26.3.8.3,1.63,0,.94-.1,1.55-.3,1.85M116.74,36.18h-.01c-.28-.55-.87-.82-1.77-.82-.84,0-1.42.2-1.73.6-.31.41-.47,1.15-.47,2.25s.15,1.79.46,2.19c.31.4.86.6,1.68.6.99,0,1.59-.25,1.79-.76h.02v1.1c0,.54-.11.9-.32,1.08-.21.18-.62.28-1.23.28s-.97-.07-1.15-.21c-.17-.14-.26-.44-.26-.92h-.78c0,.69.15,1.16.45,1.41.3.25.86.38,1.68.38.92,0,1.55-.15,1.89-.45.34-.3.52-.85.52-1.64v-5.85h-.8l.04.75Z"/>
    <path class="st0" d="M124.58,36.53c-1.04-.05-1.67-.14-1.88-.28-.2-.14-.32-.53-.32-1.16,0-.56.14-.93.4-1.08.27-.16.87-.24,1.79-.24.78,0,1.28.08,1.49.25.21.17.31.57.31,1.2h.88c0-.91-.18-1.51-.54-1.78-.35-.28-1.12-.42-2.29-.42s-1.93.15-2.31.45c-.39.3-.58.89-.58,1.78,0,1.29.67,1.98,1.99,2.07l.87.04.91.05c.51.04.84.13,1,.28.16.17.24.48.24.96,0,.73-.12,1.19-.35,1.36-.23.17-.86.26-1.87.26-.88,0-1.43-.09-1.64-.26-.21-.17-.32-.61-.32-1.31v-.19h-.88v.35c0,.87.19,1.44.57,1.73.37.28,1.13.43,2.25.43,1.3,0,2.14-.14,2.53-.42.38-.29.56-.91.56-1.87,0-.89-.16-1.47-.49-1.73-.33-.26-1.11-.41-2.33-.46"/>
    <path class="st0" d="M132.02,40c-.16.23-.62.34-1.33.34s-1.15-.11-1.32-.34c-.17-.23-.25-.84-.25-1.81s.08-1.58.25-1.81c.17-.23.61-.35,1.32-.35s1.16.12,1.33.35c.17.23.26.83.26,1.81s-.09,1.58-.26,1.81M130.69,35.36c-1.01,0-1.67.18-1.97.53-.31.35-.46,1.12-.46,2.29s.15,1.94.46,2.29c.3.35.96.53,1.97.53s1.67-.18,1.97-.53c.3-.35.46-1.12.46-2.29s-.15-1.94-.46-2.29c-.3-.35-.96-.53-1.97-.53"/>
  </g>
  <rect class="st0" x="134.37" y="33.09" width=".81" height="7.84"/>
  <g>
    <path class="st0" d="M140.26,38.58c0,.67-.11,1.13-.35,1.39-.23.25-.67.37-1.3.37-.48,0-.8-.08-.97-.25-.16-.18-.24-.5-.24-1v-3.66h-.8v3.66c0,1.28.64,1.91,1.92,1.91.92,0,1.51-.27,1.79-.81h.02s-.06.73-.06.73h.8v-5.49h-.8v3.15Z"/>
    <path class="st0" d="M144.92,38.98v.3s-.01.27-.01.27c0,.52-.26.78-.78.78s-.78-.29-.78-.88v-3.36h2.11v-.67h-2.11v-1.31h-.8v1.31h-.76v.67h.76v3.55c0,.9.53,1.35,1.59,1.35s1.54-.54,1.54-1.62v-.41h-.76Z"/>
  </g>
  <rect class="st0" x="146.38" y="33.09" width=".8" height=".9"/>
  <rect class="st0" x="146.38" y="35.43" width=".8" height="5.49"/>
  <g>
    <path class="st0" d="M152.18,40c-.17.23-.61.34-1.33.34s-1.15-.11-1.32-.34c-.17-.23-.26-.84-.26-1.81s.09-1.58.26-1.81c.17-.23.61-.35,1.32-.35s1.16.12,1.33.35c.17.23.26.83.26,1.81s-.09,1.58-.26,1.81M150.85,35.36c-1.01,0-1.67.18-1.97.53-.3.35-.45,1.12-.45,2.29s.15,1.94.45,2.29c.3.35.96.53,1.97.53s1.67-.18,1.97-.53c.3-.35.45-1.12.45-2.29s-.15-1.94-.45-2.29c-.3-.35-.96-.53-1.97-.53"/>
    <path class="st0" d="M157.13,35.36c-.97,0-1.58.28-1.82.85l-.03-.02.03-.75h-.78v5.49h.81v-3.3c0-1.07.56-1.6,1.69-1.6.51,0,.85.08,1.04.24.18.17.27.48.27.95v3.71h.8v-3.58c0-.77-.14-1.31-.42-1.58-.28-.27-.81-.41-1.6-.41"/>
    <path class="st0" d="M163.51,37.84l-.82-.05-.65-.03c-.54-.03-.81-.32-.81-.89,0-.37.08-.6.24-.7.16-.1.55-.14,1.14-.14.64,0,1.04.04,1.19.14.16.09.23.32.23.7h.8v-.2c0-.88-.72-1.31-2.18-1.31-.9,0-1.51.1-1.81.31-.31.2-.46.61-.46,1.23,0,.65.19,1.08.58,1.29.38.21,1.18.31,2.4.31.52,0,.79.29.79.86,0,.4-.11.67-.31.8-.21.12-.65.18-1.31.18-.53,0-.9-.06-1.08-.18-.18-.12-.28-.36-.28-.72v-.25h-.84v.3c0,.58.16.98.5,1.2.34.22.96.32,1.85.32s1.48-.11,1.81-.35c.33-.23.49-.65.49-1.27,0-.99-.49-1.51-1.49-1.56"/>
  </g>
</svg>