<?xml version="1.0" encoding="UTF-8"?>
<svg id="Layer_1" xmlns="http://www.w3.org/2000/svg" version="1.1" viewBox="0 0 164.59 58.96">
  <!-- Generator: Adobe Illustrator 29.0.0, SVG Export Plug-In . SVG Version: 2.1.0 Build 186)  -->
  <defs>
    <style>
      .st0, .st1 {
        fill: #fff;
      }

      .st1 {
        fill-rule: evenodd;
      }
    </style>
  </defs>
  <rect class="st0" x="7.79" y="56.42" width="26.86" height=".43"/>
  <rect class="st0" x="135.54" y="56.29" width="26.85" height=".43"/>
  <path class="st0" d="M43.19,52.88l-.28.72c-.27-.2-.7-.3-1.29-.3-.55,0-.99.23-1.32.7-.33.47-.5,1.07-.5,1.81s.17,1.28.51,1.72c.34.44.78.66,1.31.66.59,0,1.04-.21,1.35-.62l.47.65c-.49.49-1.13.73-1.91.73s-1.45-.29-1.92-.88c-.47-.58-.7-1.35-.7-2.31s.25-1.69.75-2.31c.5-.61,1.15-.92,1.94-.92.68,0,1.21.11,1.59.33"/>
  <path class="st0" d="M46.23,56.57c0-.7.19-1.26.57-1.7.38-.43.87-.65,1.5-.65.65,0,1.16.21,1.52.62.36.41.54.99.54,1.72s-.18,1.31-.55,1.73c-.37.42-.87.63-1.51.63s-1.16-.21-1.52-.64c-.37-.43-.55-1-.55-1.72M47.08,56.57c0,1.14.4,1.71,1.21,1.71.38,0,.67-.15.89-.46.21-.31.32-.72.32-1.25,0-1.12-.41-1.68-1.21-1.68-.37,0-.66.15-.88.45-.22.3-.33.71-.33,1.24"/>
  <path class="st0" d="M58.66,58.85v-2.87c0-.71-.31-1.07-.93-1.07-.2,0-.38.06-.55.18-.17.12-.29.26-.35.41v3.35h-.81v-3.22c0-.22-.08-.4-.25-.53-.17-.13-.39-.19-.67-.19-.16,0-.33.06-.52.19-.18.12-.31.26-.39.41v3.34h-.81v-4.53h.53l.27.53c.31-.41.7-.61,1.17-.61.65,0,1.11.2,1.37.61.09-.17.26-.32.51-.43.25-.12.5-.17.76-.17.47,0,.84.14,1.09.42.26.28.39.67.39,1.17v3.03h-.81Z"/>
  <path class="st0" d="M68.07,58.85v-2.87c0-.71-.31-1.07-.93-1.07-.2,0-.38.06-.55.18-.17.12-.29.26-.35.41v3.35h-.81v-3.22c0-.22-.08-.4-.25-.53-.17-.13-.39-.19-.67-.19-.16,0-.33.06-.52.19-.18.12-.31.26-.39.41v3.34h-.81v-4.53h.53l.27.53c.31-.41.7-.61,1.17-.61.65,0,1.11.2,1.37.61.09-.17.26-.32.51-.43.25-.12.5-.17.76-.17.47,0,.84.14,1.1.42.26.28.39.67.39,1.17v3.03h-.81Z"/>
  <path class="st0" d="M72.96,54.32v2.89c0,.7.31,1.05.92,1.05.27,0,.51-.08.73-.23.22-.15.37-.33.44-.53v-3.19h.81v4.53h-.81v-.63c-.09.18-.27.34-.55.49-.27.15-.54.22-.8.22-.5,0-.88-.14-1.15-.43-.27-.29-.4-.69-.4-1.22v-2.98h.81Z"/>
  <path class="st0" d="M81.94,58.85v-2.64c0-.48-.07-.82-.22-1.02-.15-.19-.39-.29-.73-.29-.18,0-.38.05-.58.17-.2.11-.36.25-.46.41v3.37h-.81v-4.53h.55l.26.58c.27-.44.7-.67,1.31-.67,1,0,1.5.6,1.5,1.81v2.81h-.81Z"/>
  <path class="st0" d="M86.46,58.85v-3.86h-.63v-.68h1.43v4.54h-.81ZM86.9,52.6c.14,0,.26.05.36.15.1.1.15.22.15.35s-.05.26-.15.35c-.1.1-.22.15-.36.15s-.25-.05-.35-.15c-.1-.1-.15-.21-.15-.35s.05-.25.15-.35c.1-.1.22-.14.35-.14"/>
  <path class="st0" d="M94.17,54.69l-.4.57c-.08-.08-.23-.16-.44-.23-.21-.07-.41-.11-.61-.11-.44,0-.79.15-1.05.46-.26.31-.39.73-.39,1.26s.13.93.4,1.21c.26.28.63.42,1.1.42.37,0,.73-.14,1.1-.42l.32.68c-.43.28-.97.42-1.61.42s-1.13-.21-1.54-.62c-.41-.42-.61-.98-.61-1.68s.21-1.3.63-1.74c.42-.44,1-.66,1.73-.66.23,0,.49.05.77.15.27.1.48.2.61.31"/>
  <path class="st0" d="M99.79,58.33c-.32.4-.82.61-1.49.61-.36,0-.67-.13-.93-.39-.26-.26-.39-.58-.39-.96,0-.46.2-.85.61-1.17.41-.32.92-.48,1.55-.48.17,0,.36.04.58.11,0-.73-.33-1.1-.99-1.1-.51,0-.89.13-1.17.41l-.34-.67c.15-.12.36-.23.64-.32.27-.09.53-.13.78-.13.66,0,1.14.15,1.44.45.3.3.45.77.45,1.43v1.63c0,.4.12.66.36.8v.4c-.33,0-.58-.05-.74-.14-.16-.09-.28-.25-.35-.46M99.71,56.63c-.26-.06-.43-.08-.54-.08-.41,0-.74.1-1,.31-.26.21-.39.46-.39.74,0,.47.28.71.84.71.41,0,.77-.19,1.09-.58v-1.1Z"/>
  <path class="st0" d="M104.26,54.95h-.53v-.64h.53v-.95l.81-.31v1.26h1.25v.64h-1.25v2.25c0,.38.07.65.2.81.13.16.34.24.62.24.21,0,.42-.05.64-.16l.12.71c-.34.08-.7.13-1.1.13-.36,0-.66-.13-.91-.4-.25-.27-.37-.6-.37-1.01v-2.58Z"/>
  <path class="st0" d="M109.99,58.85v-3.86h-.63v-.68h1.44v4.54h-.81ZM110.43,52.6c.14,0,.26.05.36.15.1.1.15.22.15.35s-.05.26-.15.35c-.1.1-.22.15-.36.15s-.25-.05-.35-.15c-.1-.1-.15-.21-.15-.35s.05-.25.15-.35c.1-.1.21-.14.35-.14"/>
  <path class="st0" d="M113.96,56.57c0-.7.19-1.26.57-1.7.38-.43.88-.65,1.5-.65.65,0,1.16.21,1.52.62.36.41.54.99.54,1.72s-.18,1.31-.55,1.73c-.37.42-.87.63-1.51.63s-1.16-.21-1.52-.64c-.36-.43-.54-1-.54-1.72M114.81,56.57c0,1.14.41,1.71,1.21,1.71.38,0,.67-.15.89-.46.21-.31.32-.72.32-1.25,0-1.12-.4-1.68-1.21-1.68-.37,0-.66.15-.88.45-.22.3-.33.71-.33,1.24"/>
  <path class="st0" d="M123.91,58.85v-2.64c0-.48-.07-.82-.22-1.02-.14-.19-.39-.29-.73-.29-.19,0-.38.05-.58.17-.2.11-.36.25-.46.41v3.37h-.81v-4.53h.55l.26.58c.27-.44.7-.67,1.31-.67,1,0,1.5.6,1.5,1.81v2.81h-.81Z"/>
  <path class="st0" d="M127.74,58.58l.28-.76c.45.29.82.44,1.09.44.5,0,.75-.21.75-.63,0-.3-.24-.56-.72-.77-.37-.17-.62-.3-.75-.39-.13-.09-.24-.19-.34-.3-.09-.11-.17-.23-.21-.36-.05-.12-.07-.26-.07-.4,0-.37.14-.66.41-.87.27-.21.63-.31,1.07-.31.33,0,.75.1,1.26.31l-.23.74c-.32-.25-.64-.38-.97-.38-.19,0-.36.04-.49.13-.13.09-.2.2-.2.34,0,.29.17.51.5.66l.58.26c.35.16.61.34.77.55.16.21.24.46.24.77,0,.41-.14.73-.43.96-.29.23-.68.35-1.19.35-.48,0-.93-.12-1.35-.36"/>
  <path class="st0" d="M162.66,35.79c-.85-4.93-5.18-8.64-10.09-8.63-5.73.02-10.38,4.72-10.37,10.47.01,5.74,4.69,10.4,10.43,10.39,1.82,0,3.63-.52,5.24-1.49h.03c.12-.09.24-.16.35-.24.14-.09.28-.19.42-.29l.1-.07c.93-.69,1.74-1.52,2.42-2.47l.25-.36-.18-.19c-.07-.07-.13-.13-.21-.21l-.69-.62c-.95-.77-1.84-1.16-2.66-1.16-.64,0-1.05.16-1.26.31l-.04.04-.3.29c-.96.93-2.2,1.44-3.48,1.45-2.23,0-3.8-1.25-4.43-3.56l14.38-.03.12-.31s.43-1.19-.02-3.33M152.53,31.64c1.92,0,3.65,1.48,4.39,3.73l-8.77.02c.73-2.25,2.46-3.74,4.38-3.75"/>
  <path class="st0" d="M102.3,35.91c-.85-4.93-5.19-8.64-10.09-8.63-5.73.02-10.38,4.72-10.37,10.47.01,5.74,4.69,10.4,10.42,10.39,1.82,0,3.64-.52,5.24-1.49l.03-.02c.12-.07.24-.15.35-.22.14-.09.28-.19.42-.29l.1-.07c.92-.69,1.74-1.52,2.41-2.47l.26-.36-.18-.19c-.07-.07-.13-.13-.21-.21l-.69-.62c-.95-.77-1.84-1.16-2.66-1.16-.64,0-1.05.16-1.26.31l-.04.03-.3.29c-.96.93-2.2,1.44-3.48,1.45-2.23,0-3.8-1.26-4.43-3.56l14.38-.03.11-.31s.44-1.19-.01-3.33M92.17,31.76c1.92,0,3.65,1.48,4.39,3.73l-8.77.02c.73-2.25,2.46-3.74,4.38-3.75"/>
  <path class="st0" d="M115.92,27.19c-2.43,0-4.42.97-5.93,2.86-.65-2.26-2.41-2.61-3.45-2.61-.92,0-2.34.4-2.34.93l.04,19.67h6.03s-.03-13.51-.03-13.51c.77-1.4,2.16-2.21,3.81-2.21,1.99,0,3.14,1.34,3.14,3.68l.02,7.53c0,3.98,2.3,4.57,3.66,4.57.94,0,2.37-.37,2.37-.92l-.02-11.99c-.01-5.01-2.74-8-7.3-7.99"/>
  <path class="st0" d="M56.8,20.97c-1.37,0-3.68.61-3.67,4.62l.05,22.62h6.03s-.05-26.33-.05-26.33c0-.55-1.41-.92-2.34-.92"/>
  <path class="st0" d="M11.1,21.07c-1.37,0-3.68.61-3.67,4.62l.04,22.62h6.03s-.05-26.33-.05-26.33c0-.55-1.41-.92-2.35-.92"/>
  <path class="st0" d="M46.95,19.78c-3.6,0-7.79,2.1-7.78,7.96v.77s-.92,0-.92,0h-.03s-.08,0-.21,0c-1.16,0-2.4.67-2.4,2.53v2.3s3.56,0,3.56,0l.03,14.91h5.76s-.03-14.92-.03-14.92h5.52s0-2.36,0-2.36v-.13c-.05-2.09-1.91-2.32-2.29-2.34h-3.23s0-.75,0-.75c0-1.83.85-2.88,2.34-2.88.45,0,.91.09,1.39.27l.17.02c.06.01.16.03.31.03.58,0,1.72-.3,2.83-2.3l.38-.76.02-.04c.03-.07.06-.14.09-.22l.1-.24-.36-.23c-1.62-1.04-3.48-1.62-5.24-1.61"/>
  <path class="st0" d="M27.31,27.37c-2.43,0-4.42.97-5.92,2.86-.65-2.26-2.42-2.61-3.46-2.61-.92,0-2.34.4-2.34.93l.04,19.67h6.03s-.03-13.51-.03-13.51c.77-1.4,2.16-2.21,3.81-2.21,1.99,0,3.13,1.34,3.14,3.68l.02,7.52c0,3.98,2.3,4.57,3.66,4.57.94,0,2.37-.37,2.36-.92l-.02-11.99c-.01-5.01-2.74-8-7.3-7.99"/>
  <path class="st0" d="M74.31,27.36l.03,13.5c-.77,1.4-2.16,2.21-3.81,2.21-1.99,0-3.14-1.34-3.14-3.68l-.02-7.53c0-3.98-2.3-4.57-3.66-4.57-.94,0-2.36.37-2.36.92l.02,11.98c0,5.01,2.74,8,7.29,7.99,2.43,0,4.42-.97,5.93-2.86.65,2.26,2.42,2.61,3.46,2.61.92,0,2.34-.4,2.34-.93l-.04-19.67h-6.03Z"/>
  <path class="st0" d="M142.35,44.49c-.05-.08-.1-.15-.17-.24l-.62-.81c-2.11-2.52-3.64-1.93-3.91-1.8l-.09.02-.09.04c-.16.11-.32.2-.51.31l-.04.02c-.12.06-.24.12-.35.16-.21.08-.39.14-.56.18l-.11.05c-.33.08-.66.12-1,.13-2.49,0-4.54-2.19-4.56-4.9,0-1.32.46-2.57,1.32-3.5.85-.93,1.99-1.45,3.21-1.45.27,0,.53.02.8.08v.02s.28.06.28.06c.17.04.35.09.55.17.13.05.25.1.36.16.02,0,.03.01.05.02.19.1.35.19.51.3l.18.06c.27.13,1.81.71,3.91-1.85l.6-.81c.05-.08.11-.16.16-.24l.13-.21-.17-.18s-.41-.43-.6-.6c-1.88-1.62-4.28-2.5-6.76-2.5h-.04c-5.73.03-10.36,4.74-10.32,10.5.03,5.73,4.7,10.39,10.41,10.38h.04c.16,0,.33,0,.49-.01h.17c.1-.02.2-.03.3-.04.04,0,.07,0,.12-.01l.13-.02c.07,0,.15-.02.22-.03.05,0,.09-.01.15-.02l.15-.03c.05,0,.11-.02.16-.03.05-.01.1-.02.15-.03l.15-.03c.05,0,.11-.02.16-.03.05-.01.11-.03.16-.04l.15-.04s.09-.02.14-.04c.05-.01.1-.03.15-.05l.14-.04c.05-.02.1-.03.16-.05.05-.02.1-.04.15-.06l.13-.05c.05-.02.1-.04.15-.06.05-.02.1-.04.15-.06l.13-.05c.05-.02.1-.04.16-.06.05-.02.09-.04.14-.06l.13-.06s.1-.05.14-.07c.05-.02.09-.05.14-.07l.13-.07s.09-.05.14-.07c.04-.02.08-.05.13-.08l.12-.07s.1-.06.15-.08c.04-.02.08-.05.13-.08l.11-.07s.09-.06.14-.09c.04-.03.08-.06.12-.08l.11-.08s.09-.07.14-.1l.24-.19s.08-.06.12-.09c.04-.03.07-.06.11-.09l.24-.2.75-.76-.14-.21Z"/>
  <path class="st0" d="M10.8,4.97c-.15,0-.3,0-.45.03-1.07.12-2.04.65-2.72,1.49-.68.84-.98,1.89-.86,2.96.25,2.19,2.23,3.81,4.48,3.56,1.07-.12,2.04-.65,2.72-1.49.68-.84.98-1.89.86-2.96-.23-2.04-1.96-3.59-4.02-3.59"/>
  <path class="st0" d="M13.79,1.53c2.78,1.1,4.71,3.63,5.04,6.58.24,2.13-.37,4.23-1.72,5.91-1.35,1.68-3.27,2.73-5.42,2.97-1.32.15-2.66-.03-3.89-.52-2.78-1.11-4.71-3.63-5.04-6.58-.24-2.13.37-4.23,1.72-5.91,1.35-1.67,3.28-2.73,5.42-2.97,1.32-.14,2.66.04,3.89.52M8.84,13.89c.8.32,1.68.43,2.54.34,1.41-.15,2.67-.84,3.55-1.94.88-1.1,1.28-2.47,1.13-3.87-.22-1.94-1.48-3.59-3.3-4.31-.8-.32-1.68-.44-2.54-.34-1.41.15-2.67.85-3.55,1.94-.89,1.1-1.28,2.48-1.13,3.87.21,1.94,1.48,3.59,3.3,4.31"/>
  <path class="st0" d="M21.68,7.95c-.02-2.98-1.67-5.68-4.32-7.07-.93-.49-1.95-.78-3-.88.38.14.75.3,1.1.49,3.08,1.61,5.01,4.77,5.03,8.23.01,2-.61,3.89-1.76,5.49.21-.17.41-.36.61-.55,1.52-1.53,2.35-3.55,2.34-5.7"/>
  <path class="st0" d="M.02,10.8c.23,2.97,2.07,5.55,4.81,6.75.96.42,2,.64,3.05.67-.39-.11-.77-.25-1.14-.41-3.19-1.39-5.34-4.4-5.6-7.85-.15-1.99.33-3.93,1.36-5.6-.2.19-.39.39-.57.6C.54,6.58-.14,8.66.02,10.8"/>
  <path class="st1" d="M161.37,27.18v-2.19h.94c.24,0,.41.02.51.06.1.04.19.11.26.21.06.1.1.21.1.34,0,.16-.05.3-.15.41-.09.11-.24.17-.43.2.09.06.17.12.24.18.06.07.14.19.25.36l.27.42h-.53l-.32-.47c-.11-.17-.19-.28-.23-.32-.04-.04-.09-.08-.13-.09-.05-.02-.12-.02-.23-.02h-.09v.91h-.45ZM161.82,25.92h.33c.21,0,.35-.01.4-.03.05-.02.09-.05.12-.09.03-.05.05-.1.05-.17,0-.07-.02-.13-.06-.18-.04-.05-.09-.07-.17-.09-.04,0-.14,0-.32,0h-.34v.56Z"/>
  <path class="st0" d="M162.24,28.39c-1.29,0-2.35-1.05-2.35-2.34s1.05-2.34,2.35-2.34,2.35,1.05,2.35,2.34-1.05,2.34-2.35,2.34M162.24,24.08c-1.09,0-1.98.89-1.98,1.97s.89,1.97,1.98,1.97,1.98-.88,1.98-1.97-.89-1.97-1.98-1.97"/>
</svg>