<?xml version="1.0" encoding="UTF-8"?>
<svg id="Layer_1" data-name="Layer 1" xmlns="http://www.w3.org/2000/svg" viewBox="0 0 90 45">
  <defs>
    <style>
      .cls-1 {
        fill: #fff;
      }
    </style>
  </defs>
  <path class="cls-1" d="M26.07,13.2c0-7.86-4.21-9.51-7.73-9.51h-6.11v19.48h5.82c5.4,0,8.02-3.26,8.02-9.98ZM13.23,4.69h5.11c4.47,0,6.74,2.86,6.74,8.51,0,6.21-2.17,8.98-7.03,8.98h-4.82V4.69Z"/>
  <polygon class="cls-1" points="77.75 26.81 77.75 14.11 64.46 14.11 64.46 26.81 65.45 26.81 65.45 15.11 76.76 15.11 76.76 26.81 77.75 26.81"/>
  <polygon class="cls-1" points="44.55 17.59 50.27 26.83 51.46 26.8 44.55 15.68 37.73 26.81 38.89 26.81 44.55 17.59"/>
  <path class="cls-1" d="M76.76,0v10.24h-11.3V0h-5.34v25.82h-4.21l-8.16-12.65L56.44,0h-6.23l-5.58,8.96L39.1.04l-.02-.04h-6.3l8.61,13.2-8.13,12.62h-9.39c4.33-1.96,6.61-6.24,6.61-12.4C30.48,4.51,26.46,0,18.52,0H7.96v26.81h1V1h9.56c7.38,0,10.97,4.06,10.97,12.42,0,7.14-3.12,11.42-9.01,12.39h-.08s.13.8.13.8v.21h13.31v-.06l8.74-13.56L34.62,1h3.9l6.1,9.85L50.76,1h3.82l-8.03,12.16,8.78,13.61v.05h.03l.02.03.04-.03h5.68v-.23h0V1h3.34v10.24h13.3V1h3.34v25.81h1V0h-5.34Z"/>
  <rect class="cls-1" x="24.16" y="38.72" width=".59" height=".62"/>
  <rect class="cls-1" x="66.46" y="38.72" width=".59" height=".62"/>
  <path class="cls-1" d="M9.76,38.72h-1.85v4.87h1.83c.67,0,1.19-.22,1.56-.66.37-.44.56-1.05.56-1.85s-.18-1.35-.54-1.75c-.36-.41-.88-.61-1.56-.61ZM10.81,42.52c-.25.32-.62.47-1.1.47h-1.14v-3.71h1.14c.48,0,.84.16,1.1.47.25.32.38.77.38,1.36s-.12,1.09-.37,1.4Z"/>
  <path class="cls-1" d="M14.97,41.95c0,.39-.09.69-.26.89-.18.2-.44.3-.78.3-.26,0-.44-.07-.55-.2-.11-.14-.16-.38-.16-.73v-2.17h-.6v2.29c0,.25.01.43.04.55.02.12.06.22.12.3.1.15.24.27.42.36.18.08.4.13.64.13.26,0,.49-.05.69-.16.2-.1.36-.26.48-.46v.53h.57v-3.54h-.59v1.91Z"/>
  <path class="cls-1" d="M18.21,39.93c-.24,0-.46.05-.65.15-.19.1-.36.25-.49.45v-1.82h-.58v4.87h.58v-.45c.15.19.31.33.5.42.19.09.4.14.65.14.47,0,.85-.17,1.13-.51.28-.34.42-.79.42-1.36s-.14-1.04-.43-1.38c-.28-.34-.66-.52-1.13-.52ZM18.86,42.82c-.19.23-.45.35-.77.35s-.59-.12-.77-.36c-.18-.24-.27-.58-.27-1.02s.09-.77.26-.99c.18-.22.44-.33.79-.33s.59.12.77.37c.18.24.27.59.27,1.04,0,.4-.09.72-.28.95Z"/>
  <path class="cls-1" d="M23.46,43.16c-.09,0-.15-.02-.18-.07-.03-.04-.05-.14-.05-.29v-1.77c0-.38-.11-.65-.34-.83-.22-.18-.57-.27-1.05-.27-.44,0-.79.1-1.04.31-.25.21-.38.49-.38.85v.03h.56c0-.22.07-.38.21-.49.14-.11.35-.17.62-.17s.47.05.6.14c.13.09.2.23.2.41,0,.14-.01.24-.03.28-.02.04-.07.08-.14.1-.07.03-.25.06-.56.09-.18.02-.32.04-.42.05-.41.05-.71.17-.91.35-.2.18-.3.44-.3.76s.1.59.3.78c.2.19.48.28.85.28.23,0,.45-.05.66-.15.21-.1.4-.24.59-.44v.02c0,.17.05.3.15.39.1.09.25.13.45.13.05,0,.1,0,.15-.01.05,0,.12-.02.19-.04v-.46s-.07.01-.09.01c-.03,0-.05,0-.06,0ZM22.62,42.31c0,.25-.1.46-.31.62-.2.16-.47.24-.79.24-.2,0-.36-.05-.47-.14-.11-.09-.17-.23-.17-.41s.05-.31.14-.4c.09-.09.25-.16.47-.19.07-.01.17-.03.31-.04.39-.05.66-.12.82-.2v.53Z"/>
  <rect class="cls-1" x="24.16" y="40.05" width=".59" height="3.54"/>
  <polygon class="cls-1" points="30.78 40.72 28.25 40.72 28.25 38.72 27.59 38.72 27.59 43.59 28.25 43.59 28.25 41.31 30.78 41.31 30.78 43.59 31.44 43.59 31.44 38.72 30.78 38.72 30.78 40.72"/>
  <path class="cls-1" d="M33.84,39.93c-.5,0-.88.17-1.17.51-.28.34-.42.81-.42,1.41,0,.57.14,1.02.43,1.35.28.33.67.5,1.16.5.42,0,.77-.11,1.04-.34.28-.22.44-.53.51-.92h-.59c-.05.23-.15.41-.31.53-.16.12-.36.19-.6.19-.32,0-.56-.1-.74-.31-.18-.2-.27-.49-.28-.86h2.55s0-.07,0-.1c0-.04,0-.09,0-.16,0-.57-.14-1.01-.42-1.32-.28-.31-.67-.47-1.18-.47ZM32.87,41.49c.03-.34.13-.59.3-.77.17-.18.4-.26.69-.26s.54.09.7.27c.17.18.25.43.25.76h-1.94Z"/>
  <path class="cls-1" d="M39.09,43.16c-.09,0-.15-.02-.18-.07-.03-.04-.05-.14-.05-.29v-1.77c0-.38-.11-.65-.34-.83-.22-.18-.57-.27-1.05-.27-.44,0-.79.1-1.04.31-.25.21-.38.49-.38.85v.03h.56c0-.22.07-.38.21-.49.14-.11.35-.17.62-.17s.47.05.6.14c.13.09.2.23.2.41,0,.14-.01.24-.03.28-.02.04-.07.08-.14.1-.07.03-.25.06-.56.09-.18.02-.32.04-.42.05-.41.05-.71.17-.91.35-.2.18-.3.44-.3.76s.1.59.3.78c.2.19.48.28.85.28.23,0,.45-.05.66-.15.21-.1.4-.24.59-.44v.02c0,.17.05.3.15.39.1.09.25.13.45.13.05,0,.1,0,.15-.01.05,0,.12-.02.19-.04v-.46s-.07.01-.09.01c-.03,0-.05,0-.06,0ZM38.25,42.31c0,.25-.1.46-.31.62-.2.16-.47.24-.79.24-.2,0-.36-.05-.47-.14-.11-.09-.17-.23-.17-.41s.05-.31.14-.4c.09-.09.25-.16.47-.19.07-.01.17-.03.31-.04.39-.05.66-.12.82-.2v.53Z"/>
  <rect class="cls-1" x="39.8" y="38.72" width=".6" height="4.87"/>
  <path class="cls-1" d="M42.02,39.06h-.59v.99h-.53v.47h.53v2.38c0,.28.06.47.17.57.11.11.31.16.59.16.06,0,.13,0,.21-.01.08,0,.17-.02.27-.04v-.51c-.08,0-.14.01-.19.01-.05,0-.09,0-.13,0-.12,0-.2-.03-.25-.08-.05-.05-.07-.16-.07-.32v-2.17h.64v-.47h-.64v-.99Z"/>
  <path class="cls-1" d="M46.02,40.44c-.1-.16-.24-.28-.42-.36-.18-.08-.41-.12-.67-.12s-.47.05-.66.15c-.19.1-.34.25-.45.44v-1.83h-.59v4.87h.59v-2.09c0-.31.09-.55.28-.74.19-.18.44-.27.77-.27.26,0,.44.07.55.2.11.13.16.37.16.72v2.18h.6v-2.29c0-.25-.01-.43-.04-.55-.02-.12-.06-.22-.12-.3Z"/>
  <polygon class="cls-1" points="49.65 41.35 52.25 41.35 52.25 40.78 49.65 40.78 49.65 39.32 52.46 39.32 52.46 38.72 48.99 38.72 48.99 43.59 52.52 43.59 52.52 42.98 49.65 42.98 49.65 41.35"/>
  <polygon class="cls-1" points="55.96 40.05 55.27 40.05 54.42 41.32 53.55 40.05 52.85 40.05 54.03 41.77 52.79 43.59 53.49 43.59 54.39 42.22 55.32 43.59 56.03 43.59 54.77 41.76 55.96 40.05"/>
  <path class="cls-1" d="M58.24,39.93c-.25,0-.47.05-.66.15-.18.1-.35.25-.5.47v-.5h-.58v4.95h.58v-1.85c.14.18.3.32.49.41.19.09.41.13.66.13.47,0,.85-.17,1.13-.51.28-.34.43-.8.43-1.38s-.14-1.03-.42-1.36c-.28-.34-.66-.51-1.13-.51ZM58.89,42.8c-.18.24-.44.37-.77.37s-.61-.11-.79-.33c-.18-.22-.26-.55-.26-.99s.09-.78.27-1.02c.18-.24.44-.36.77-.36s.58.12.77.35.28.55.28.95c0,.45-.09.79-.27,1.04Z"/>
  <path class="cls-1" d="M61.93,39.93c-.5,0-.88.17-1.17.51-.28.34-.42.81-.42,1.41,0,.57.14,1.02.43,1.35.28.33.67.5,1.16.5.42,0,.77-.11,1.04-.34.28-.22.44-.53.51-.92h-.59c-.05.23-.15.41-.31.53-.16.12-.36.19-.6.19-.32,0-.56-.1-.74-.31s-.27-.49-.28-.86h2.55s0-.07,0-.1c0-.04,0-.09,0-.16,0-.57-.14-1.01-.42-1.32-.28-.31-.67-.47-1.18-.47ZM60.96,41.49c.03-.34.13-.59.3-.77.17-.18.4-.26.69-.26s.54.09.7.27c.17.18.25.43.25.76h-1.94Z"/>
  <path class="cls-1" d="M65.77,39.97c-.24,0-.43.06-.6.18-.16.12-.29.3-.39.53v-.63h-.57v3.54h.59v-1.97c0-.33.08-.58.25-.75.17-.17.41-.26.73-.26.04,0,.07,0,.09,0,.02,0,.04,0,.05,0v-.63s-.04,0-.06,0c-.02,0-.05,0-.1,0Z"/>
  <rect class="cls-1" x="66.46" y="40.05" width=".59" height="3.54"/>
  <path class="cls-1" d="M69.38,39.93c-.5,0-.88.17-1.17.51-.28.34-.42.81-.42,1.41,0,.57.14,1.02.43,1.35.28.33.67.5,1.16.5.42,0,.77-.11,1.04-.34.28-.22.44-.53.51-.92h-.59c-.05.23-.15.41-.31.53-.16.12-.36.19-.6.19-.32,0-.56-.1-.74-.31-.18-.2-.27-.49-.28-.86h2.55s0-.07,0-.1c0-.04,0-.09,0-.16,0-.57-.14-1.01-.42-1.32-.28-.31-.67-.47-1.18-.47ZM68.41,41.49c.03-.34.13-.59.3-.77.17-.18.4-.26.69-.26s.54.09.7.27c.17.18.25.43.25.76h-1.94Z"/>
  <path class="cls-1" d="M74.46,40.44c-.1-.16-.24-.28-.42-.36-.18-.08-.41-.12-.67-.12-.25,0-.46.05-.65.15-.19.1-.35.25-.49.46v-.52h-.57v3.54h.59v-2.02c0-.35.09-.61.28-.8.18-.19.44-.28.77-.28.26,0,.44.07.55.2.11.13.16.37.16.72v2.18h.6v-2.29c0-.25-.01-.43-.04-.55-.02-.12-.06-.22-.12-.3Z"/>
  <path class="cls-1" d="M77.58,42.94c-.17.14-.39.21-.67.21-.31,0-.55-.12-.72-.35-.17-.23-.25-.57-.25-1s.09-.76.26-.99c.18-.23.42-.35.75-.35.27,0,.49.07.65.2.16.13.25.32.26.56h.59c-.02-.4-.16-.71-.43-.94-.27-.23-.62-.35-1.07-.35-.5,0-.9.17-1.19.5-.29.34-.43.8-.43,1.39s.14,1.04.41,1.37c.28.33.66.5,1.14.5s.83-.12,1.11-.37c.28-.24.43-.58.46-1.02h-.57c-.04.27-.14.48-.31.62Z"/>
  <path class="cls-1" d="M80.48,39.93c-.5,0-.88.17-1.17.51-.28.34-.42.81-.42,1.41,0,.57.14,1.02.43,1.35.28.33.67.5,1.16.5.42,0,.77-.11,1.04-.34.28-.22.44-.53.51-.92h-.59c-.05.23-.15.41-.31.53-.16.12-.36.19-.6.19-.32,0-.57-.1-.74-.31-.18-.2-.27-.49-.28-.86h2.55s0-.07,0-.1c0-.04,0-.09,0-.16,0-.57-.14-1.01-.42-1.32-.28-.31-.67-.47-1.18-.47ZM79.51,41.49c.03-.34.13-.59.3-.77.17-.18.4-.26.69-.26s.54.09.7.27c.17.18.25.43.25.76h-1.94Z"/>
  <rect class="cls-1" x="9.79" y="30.55" width=".55" height=".57"/>
  <rect class="cls-1" x="8.56" y="30.55" width=".55" height=".57"/>
  <rect class="cls-1" x="17.58" y="35.45" width=".55" height=".57"/>
  <rect class="cls-1" x="16.36" y="35.45" width=".55" height=".57"/>
  <path class="cls-1" d="M7.91,33.07c0,.73.3,1.1.88,1.1h1.04c0,.26.07.46.21.6.14.14.35.21.62.21h5.81c.4-.02.75-.23.91-.53.04.08.09.16.15.23.16.2.36.3.59.3h16.22c.65,0,1.05-.37,1.05-1,0-.37,0-.83,0-1.4v-1.4c-.02-.46-.02-.79-.02-1.01v-.05h-.6v.05c0,.22,0,.56,0,1.03v1.37c.02.56.02,1.02.02,1.38,0,.28-.17.45-.45.45h-3.37c-.05-.64-.17-1.1-.35-1.42-.26-.47-.69-.73-1.27-.79-.33-.04-.69.05-1.1.28-.4.22-.73.54-.98.95v-.52h-.55v1.51h-3.52c-.06-.64-.22-1.16-.5-1.55-.34-.49-.85-.73-1.5-.73-.36,0-.76.1-1.22.31l-.04.02.25.52.04-.02c.34-.19.67-.28.99-.28.36,0,.66.15.92.47.28.33.42.76.44,1.27h-4.5c-.13,0-.26-.06-.37-.18-.14-.14-.21-.34-.22-.59h0c0-.46-.01-.93-.01-1.4v-.05h-.6v.05c.02,1.16.02,1.64.01,1.7h0c0,.16-.07.27-.21.37-.11.07-.23.1-.36.1h-5.66c-.11,0-.26-.03-.26-.32v-2.37h-.6v.29c-.18-.21-.48-.35-.78-.35-.28,0-.53.11-.73.31-.25.25-.37.61-.37,1.09ZM27.26,34.39c.49-1.1,1.15-1.66,1.96-1.66.04,0,.07,0,.11,0,.43.03.73.32.9.88.07.23.11.5.12.8h-3.09v-.03ZM16.93,33.92h0s0,0,0,0c0,.01,0,.02,0,.03h0s0-.03,0-.03ZM8.73,32.4c.11-.15.25-.22.42-.22.26,0,.48.14.65.42v1.03s-.9,0-.9,0c-.16,0-.26-.06-.31-.17-.04-.08-.05-.2-.05-.35,0-.31.07-.55.2-.71Z"/>
  <polygon class="cls-1" points="37.04 30.13 36.45 30.13 36.48 34.98 37.08 34.98 37.04 30.13"/>
  <path class="cls-1" d="M43.54,33.51h-1.31c0-.22.09-.41.23-.56.16-.16.34-.24.56-.24h.03c.32,0,.55.15.69.45.09.18.15.48.19.92.02.26.13.48.31.65.18.17.38.25.6.25h5.63c.33,0,.59-.09.77-.27.18-.17.27-.43.27-.73,0-.01,0-.58-.02-1.73v-.04h-.6v.05c.01,1.04.02,1.68.02,1.71,0,.28-.17.45-.45.45h-5.54c-.18,0-.4-.18-.42-.42-.05-.5-.14-.87-.25-1.1-.23-.51-.64-.76-1.2-.76-.96,0-1.45.64-1.45,1.9v.05h1.37v.37c.01.43-.12.78-.4,1.08-.28.3-.61.45-1,.45s-.72-.15-1-.44c-.28-.29-.41-.64-.41-1.07v-.44c-.01-.21-.01-.37-.01-.46v-.05h-.6v.05c0,.21.01.39.02.54,0,.15,0,.26.01.35,0,.59.19,1.08.59,1.5.39.41.87.62,1.41.62s1.02-.21,1.41-.62c.39-.41.59-.91.59-1.49l-.02-.95Z"/>
  <path class="cls-1" d="M52.48,34.98h2.75v-.05c0-.87-.16-1.56-.48-2.05-.3-.45-.66-.67-1.08-.67h-.05v.55h.05c.23,0,.43.15.63.47.22.33.33.73.35,1.19h-1.99l-.18.56Z"/>
  <path class="cls-1" d="M67.31,33.98s0-.58-.02-1.73v-.04h-.6v.05c.01,1.05.02,1.68.02,1.71,0,.28-.17.45-.45.45h-5.8c-.11,0-.26-.03-.26-.32v-2.37h-.6v.29c-.18-.21-.48-.35-.78-.35-.28,0-.53.11-.73.31-.25.25-.37.61-.37,1.09,0,.73.3,1.1.88,1.1h1.04c0,.26.07.46.21.6.14.14.35.21.62.21h5.81c.33,0,.59-.09.77-.27.18-.17.27-.43.27-.73ZM58.7,33.62c-.16,0-.26-.06-.31-.17-.04-.08-.05-.2-.05-.35,0-.31.07-.55.2-.71.11-.15.25-.22.42-.22.26,0,.48.14.65.42v1.03s-.9,0-.9,0Z"/>
  <path class="cls-1" d="M69.49,34.62c.17.24.39.36.65.36h10.85c.33,0,.59-.09.77-.27.18-.17.27-.43.27-.73,0-.01,0-.58-.02-1.73v-.04h-.6v.05c.01,1.05.02,1.68.02,1.71,0,.28-.17.45-.45.45h-4.02c-.06-.64-.23-1.16-.5-1.55-.36-.49-.85-.73-1.51-.73-.36,0-.76.11-1.21.31l-.04.02.25.52.04-.02c.34-.19.67-.28.99-.28.35,0,.66.15.92.47.27.32.41.75.44,1.27h-6.25c-.12,0-.25-.06-.37-.18-.14-.14-.21-.31-.21-.52v-1.51h-.61v2.12c0,.48-.14.88-.42,1.2-.3.33-.68.49-1.14.49h-.07l.03.06c.11.23.17.38.22.46v.02s.04,0,.04,0c.55-.05,1-.26,1.35-.64.33-.36.52-.8.58-1.32Z"/>
  <rect class="cls-1" x="41.98" y="37.08" width=".55" height=".57"/>
  <rect class="cls-1" x="40.75" y="37.08" width=".55" height=".57"/>
  <rect class="cls-1" x="50.44" y="35.49" width=".55" height=".57"/>
  <rect class="cls-1" x="66.28" y="35.49" width=".55" height=".57"/>
  <rect class="cls-1" x="74.64" y="35.49" width=".55" height=".57"/>
  <rect class="cls-1" x="59.64" y="30.55" width=".55" height=".57"/>
  <rect class="cls-1" x="58.42" y="30.55" width=".55" height=".57"/>
  <rect class="cls-1" x="81.48" y="30.99" width=".55" height=".57"/>
  <rect class="cls-1" x="80.26" y="30.99" width=".55" height=".57"/>
</svg>