<?xml version="1.0" encoding="UTF-8"?>
<svg id="Layer_1" data-name="Layer 1" xmlns="http://www.w3.org/2000/svg" viewBox="0 0 90 45">
  <defs>
    <style>
      .cls-1 {
        fill: #fff;
      }
    </style>
  </defs>
  <path class="cls-1" d="M74.65,15.31c-.02-.08-.05-.12-.09-.12-.03,0-.06.03-.11.08-.05.05-.07.09-.07.11,0,.06.09.1.28.13.01-.07.01-.14,0-.2ZM75.4,24.74c.18-.08.34-.21.45-.38,0-.13-.04-.26-.1-.37-.07-.17-.13-.25-.18-.25-.06,0-.16.07-.29.22-.11.12-.2.25-.26.4.03.08.08.16.14.22.07.07.15.13.23.16ZM85.8,28.85c-.18,0-.27.05-.27.16,0,.12.13.18.38.18.1,0,.19-.01.29-.03-.14-.21-.27-.31-.39-.31ZM84.35,28.78c-.21-.45-.46-.67-.76-.67-.63,0-1.38.52-2.26,1.56,1.04.01,2.06-.25,2.97-.77.05-.03.07-.07.05-.12ZM88.9,29.19c.23-.39.35-.84.35-1.3-.05-.69-.26-1.35-.63-1.92-.09-.16-.38-.65-.84-1.35-.12-.18-.19-.29-.31-.49.02.23.05.75.11,1.57.08,1.13.12,1.8.12,2.02,0,.37-.05.73-.17,1.07-.05.19-.15.36-.27.51s-.28.27-.45.34c-.01,0-.06.03-.06.03,0,.16-.03.32-.08.47-.06.22-.17.43-.31.61-.02.02-.04.04-.06.06h.67c.26-.16.61-.38,1.04-.66.36-.24.67-.57.9-.95ZM85.98,21.1c-.18,0-.27.05-.27.15,0,.13.12.19.37.19.1,0,.2-.01.29-.04-.14-.2-.28-.3-.4-.3ZM75.07,15.58s0-.03,0-.06c-.06-.12-.15-.22-.27-.26,0,.1,0,.19-.03.28.02,0,.12.02.29.05.01,0,.02,0,.02,0ZM81.87,15.8c-.13,0-.2.05-.2.14,0,.1.08.16.25.19.1,0,.24.01.45.03-.05-.1-.12-.18-.2-.25-.09-.06-.19-.1-.29-.11ZM85.13,15.79c.56-.22,2.65-1.04,4.1-1.62-.04-.04-.09-.07-.14-.09-.05-.02-.11-.03-.17-.03-.66-.01-1.31.01-1.96.07-.51.03-1.16.03-1.67.08-.36.04-.73.04-1.09,0,.04.11.11.28.19.53.13.35.2.56.22.65.01.04.02.09.02.13,0,.1-.09.04-.26-.17-.02-.03-.03-.01-.03.04,0,.02.06.97.19,2.84.13,1.87.19,2.89.19,3.06,0,.46-.06.91-.22,1.33-.02.06-.05.11-.07.17-.03.05-.05.06-.05.02,0-.08,0-.16,0-.24.02-.17-.02-.51-.02-.74,0-.2-.04-1.51-.18-3.58-.14-2.07-.17-2.52-.19-2.84,0-.25-.03-.5-.09-.75.02-.16.07-.32.14-.47-.16-.01-.35-.02-.61-.02-.52,0-1,.02-1.48.04.15.11.22.17.22.19-.04.17-.11.32-.21.46-.02.03-.03.04-.05.02-.15-.12-.31-.24-.48-.35,0,0,0-.02,0-.04l.12-.27c-.41.02-.82.03-1.26.03-1.06,0-2.24-.03-3.29-.11-.94-.08-1.86-.04-2.8-.04-.1,0-.19,0-.29,0h-.21s-.08.02-.11.04c-.03.03-.05.07-.05.11-.06.85-.06,2.99-.06,4.01,0,.43.22,2.88.25,4.08.03,1.13.08,1.95.09,2.05,0,.12.03.23.08.33.05.1.12.19.2.27.1.05.22.08.34.07.17,0,.35-.03.51-.1-.07-.16-.1-.33-.09-.51.01-.33.12-.65.32-.91.2-.28.37-.42.51-.42.13,0,.23.1.31.31.06.16.08.33.08.51.02.35-.08.69-.27.97.2.08.42.11.63.08.28-.04.45-.19.45-.47-.02-.18-.05-.35-.09-.52-.06-.3-.12-.54-.18-.74-.03-.09-.04-.15-.04-.15,0-.2.02-.4.1-.59.03-.06.05-.09.06-.09,0,0,.03.02.05.06.19.47.32.96.38,1.46.02.3.13.6.3.84.05.05.12.09.18.11.07.02.14.03.21.03.21,0,.42-.09.58-.24.05-.05.08-.22.08-.52,0-.18-.04-.91-.13-2.2-.09-1.28-.13-2.04-.13-2.27,0-.18-.03-.35-.09-.51.03-.19.09-.37.17-.54.01-.03.02-.05.04-.05.01,0,.03.02.04.06.03.07.11.28.23.61.12.35.2.56.22.64.01.04.02.09.02.14,0,.1-.09.04-.26-.17-.02-.03-.03-.02-.03.04,0,.01.04.58.12,1.71.08,1.13.12,1.8.12,2.02.03.52-.09,1.03-.32,1.48-.06.13-.15.24-.26.32-.11.08-.24.13-.38.14-.18,0-.36-.06-.5-.19-.18-.17-.29-.39-.33-.64-.02.23-.11.45-.24.64-.1.13-.24.21-.4.23-.17.03-.33.03-.5,0-.21-.04-.42-.12-.61-.24-.24.2-.54.32-.85.34-.18.01-.36-.04-.51-.14-.13-.12-.24-.27-.31-.44.02.7.04,1.39.06,2.09,0,0,0,0,.01,0,.08.04.16.08.23.14.09.06.18.13.26.21l.16-.34s.03-.04.04-.04c.09.05.18.1.27.17.16.11.23.18.23.2-.04.17-.11.33-.21.46-.02.03-.03.04-.05.02-.14-.11-.29-.22-.46-.34-.05.12-.11.24-.17.35-.02.03-.03.04-.05.02-.08-.06-.15-.12-.23-.18.03.83.05,1.67.07,2.5.06.03.14.05.21.05.16,0,.31-.13.44-.4.14-.32.27-.63.41-.95.12-.25.27-.47.45-.67.12-.16.3-.26.49-.28.06,0,.13.03.18.07.05.04.1.09.13.15l.23.4c.09.14.2.26.34.34.15.08.32.11.49.11.33,0,.64-.11.91-.31.02-.02.11-.12.28-.31.07-.1.16-.19.25-.26.03,0,.04.02.04.07,0,.03,0,.05-.01.07-.02.07-.03.15-.03.23,0,.27.3.4.5.41.31,0,.44-.14.44-.44-.02-.18-.05-.35-.09-.52-.06-.3-.12-.54-.18-.74-.03-.09-.04-.15-.04-.15,0-.2.02-.4.1-.59.03-.06.05-.09.06-.09.01,0,.03.02.05.06.19.47.32.96.38,1.46.12.73.33,1.08.79,1.4.16.1.34.15.53.16.18-.21.33-.41.46-.59.05-.08.07-.18.07-.27v-.71c0-.09-.06-.98-.17-2.69,0-.13-.02-.25-.02-.37-.38.29-.83.46-1.3.5-.16,0-.32-.04-.46-.12s-.25-.22-.32-.37c-.1-.28-.14-.59-.12-.89.02-.6.2-1.18.2-1.03,0,.17-.04.25-.06.77-.02.23.03.47.15.67.06.1.15.19.25.25.1.06.22.09.34.09.37-.03.73-.15,1.04-.35.08-.04.15-.09.23-.14-.07-1.06-.1-1.63-.1-1.72,0-.18-.03-.35-.09-.51.03-.19.09-.37.17-.54.01-.03.03-.05.04-.05.01,0,.03.02.04.06.03.07.11.28.23.61.13.35.2.56.22.64.01.04.02.09.02.14,0,.1-.09.04-.26-.18-.02-.03-.03-.01-.03.04,0,0,.03.43.09,1.29.14-.11.29-.22.43-.34.19-.14.36-.32.49-.51-.01-.41-.11-.8-.29-1.16-.03-.06-.05-.12-.06-.18.03-.16.07-.31.12-.46.01-.05.03-.08.05-.08.02,0,.05.04.08.11.03.08.07.16.12.23.05.05.11.08.18.1.07.02.13.02.2.01.07-.01.13-.04.19-.08.06-.04.1-.09.13-.16.09-.15.17-.3.25-.46.08-.16.15-.24.19-.24.05,0,.1.05.14.15.04.11.06.22.06.34,0,.11-.02.22-.04.33-.03.18-.07.27-.11.27-.03,0-.04-.07-.04-.22,0-.08,0-.15-.03-.22-.06.01-.13.1-.2.27-.07.17-.15.32-.24.47-.04.06-.09.11-.15.15-.06.04-.13.06-.2.06-.05,0-.11,0-.16-.02,0,.79-.11,1.32-.33,1.59-.21.26-.46.49-.73.68l.02.28c.1,1.46.15,2.25.15,2.36-.02.45-.07.9-.14,1.35.82-.87,1.49-1.3,2.02-1.3.13,0,.26.05.38.12.11.07.21.17.28.29.13.16.21.37.23.58,0,.19-.05.37-.14.53-.11.22-.28.41-.49.54-.44.27-.92.48-1.42.59-.38.09-.77.16-1.16.18-.29.03-.59,0-.86-.12-.25-.12-.47-.3-.64-.53-.17-.23-.29-.49-.35-.77-.02.23-.09.45-.2.64-.05.07-.11.12-.17.16-.07.04-.15.05-.22.05-.18,0-.35-.07-.49-.2-.13-.13-.22-.3-.24-.49-.12.23-.3.42-.51.56-.21.14-.45.21-.7.22-.18.02-.36,0-.53-.09-.17-.08-.31-.2-.41-.36-.09-.14-.16-.29-.25-.44-.07-.12-.15-.18-.22-.18-.23,0-.47.21-.73.62-.09.19-.18.38-.24.58-.08.23-.18.46-.31.67-.05.09-.12.17-.2.23.84-.01,1.7.08,2.54.07,1.14-.01,2.28-.05,3.43-.08,1.8-.05,3.61-.07,5.41-.07.59-.39.88-.67.88-.86,0-.08-.02-.15-.04-.22-.17.05-.35.08-.52.07-.49,0-.73-.17-.73-.52,0-.26.09-.51.25-.71.05-.08.12-.15.21-.2.08-.05.17-.08.27-.09.08,0,.16.04.23.08.07.04.14.1.18.17.14.17.26.36.35.57.02,0,.05-.01.07-.02.17-.06.31-.17.42-.31.11-.15.17-.32.19-.51,0-.18-.04-.91-.13-2.2-.09-1.28-.13-1.91-.13-2.14,0-.22-.03-.44-.1-.65.03-.19.09-.37.17-.54.01-.03.02-.05.04-.05.01,0,.03.02.04.06.02.05.05.15.11.3.24.46.5.91.79,1.33.3.46.58.94.83,1.43.3.59.47,1.24.49,1.91,0,.81-.25,1.6-.7,2.26-.21.33-.5.6-.84.78-.06.03-.13.06-.2.08.38,0,.76,0,1.14,0,.14,0,.29-.03.42-.09.13-.06.25-.15.35-.25.1-.11.18-.24.23-.38.05-.14.08-.29.07-.44-.02-.47-.03-1.03-.03-1.64,0-.68.03-1.43.05-2.11.01-.46,0-.93-.03-1.39-.13.26-.21.54-.23.83-.02.13-.05.26-.1.38-.03.05-.02.12-.04.12s-.03.07-.06-.11c-.03-.18-.08-.35-.13-.53-.09-.29-.15-.42-.18-.43,0,0,0,0-.01,0,0,0,0,0-.01,0,0,0,0,0-.01,0,0,0,0,0,0,.01,0,0-.01.02-.02.02,0,0-.02,0-.03,0-.05-.01-.1-.04-.14-.08-.06-.05-.08-.1-.09-.13.02-.05.04-.1.07-.15.05-.08.08-.13.09-.13.11,0,.22.11.33.33.1.21.17.44.21.68,0,.01,0,.03,0,.04,0,0,0,0,0,0,0-.01.01-.03.02-.04.03-.22.08-.5.16-.85.03-.09.08-.18.15-.25-.05-.58-.11-1.16-.13-1.89-.01-.39-.02-.89-.02-1.43-.15.02-.3.05-.44.08.04.69.07,1.1.07,1.21,0,.46-.07.91-.22,1.34-.02.06-.05.11-.07.17-.03.05-.05.06-.05.02,0-.08,0-.17,0-.25.02-.2.03-.4.03-.61,0-.17-.05-.75-.12-1.79-.07.02-.13.04-.2.06-.34.12-.74.27-1.19.46-.22.1-.43.19-.65.29h-.02c0,.17-.04.33-.09.48-.06.22-.17.43-.31.61-.3.37-.64.71-1.01,1-.39.37-.89.59-1.41.64-.15,0-.3-.02-.44-.09-.14-.07-.25-.17-.34-.3-.15-.23-.22-.52-.19-.8,0-.45.11-.65.1-.41-.02.21.02.43.13.61.1.12.22.21.35.27.14.06.28.08.43.07.39-.03.77-.17,1.1-.41.36-.23.7-.5,1-.82.29-.29.43-.48.43-.58,0-.07-.01-.15-.04-.21-.17.05-.35.07-.52.07-.48,0-.73-.18-.73-.53,0-.26.08-.51.24-.71.05-.08.13-.15.21-.2.08-.05.18-.08.27-.09.08.01.16.04.23.08.07.04.13.1.18.17.14.17.26.36.35.57.02,0,.05-.01.07-.02h0c.36-.14.88-.35,1.54-.61-.16-.02-.57-.17-1.24-.27-.34-.05-.67-.11-1-.2-.1-.03-.13-.03-.11-.09.04-.13.1-.25.16-.37.13-.07.27-.13.42-.16.35-.1.59-.14.82-.23.11-.04.17-.1.19-.18.01-.05,0-.31.02-.77.01-.49-.04-1.83-.04-1.92,0-.18-.02-.35-.09-.51.03-.19.09-.37.17-.54.01-.03.02-.05.04-.05.01,0,.03.02.04.05.03.08.11.28.23.61.12.35.2.56.22.64.01.04.02.09.02.14,0,.1-.09.04-.26-.18-.02-.03-.03-.02-.03.04,0,.02.01.2.03.54.02.34.03.57.03.69.02.45-.02.9-.12,1.34-.06.24-.19.46-.35.63.31.07.67.16,1.11.22.06,0,.12.02.19.03-.09-1.33-.09-1.68-.11-2.22,0-.23-.04-.45-.1-.66.03-.19.09-.37.17-.54.01-.03.03-.05.04-.05.01,0,.03.02.04.06.03.07.11.28.23.61.13.35.2.56.22.64.01.04.02.09.02.14,0,.1-.09.04-.26-.17-.02-.03-.03-.02-.03.04,0,.02.04.69.13,2,0,.07,0,.14.01.2.18.02.35.04.5.05,0-1,.03-2.04.08-2.74.08-1.05-.09-2.52-.5-3.15-1.41.56-3.65,1.46-4.35,1.76.02-.11.06-.22.11-.33ZM77.3,27.34c-.05.12-.11.18-.18.18-.12,0-.2-.08-.25-.25-.06.22-.16.33-.31.33-.03,0-.06,0-.08-.02-.03-.02-.05-.04-.06-.06-.05-.08-.07-.18-.07-.27v-.27s-.01-.04-.04-.05c-.01,0-.03-.01-.03-.03,0-.01-.01-.03,0-.04,0-.07.03-.13.07-.17.04-.05.08-.07.1-.08.03,0,.04.06.04.18,0,.05,0,.1-.01.15,0,.04-.01.07-.01.11,0,.06.01.13.04.18.03.07.07.1.11.1.03,0,.06,0,.09-.02.03-.01.05-.03.07-.06.02-.02.04-.05.05-.09.01-.03.02-.07.02-.1,0-.07-.02-.14-.03-.21-.02-.06-.03-.12-.04-.19,0-.04.01-.07.03-.1.02-.05.04-.07.05-.07.02,0,.04.07.07.2.02.1.04.19.05.29,0,.18.07.27.2.27.03,0,.05,0,.07-.02.02-.02.03-.04.04-.07-.09-.15-.15-.31-.17-.49,0-.06.02-.12.05-.17.02-.03.04-.05.04-.06,0,0,.01.02.02.07,0,.05.01.1.03.15,0,0,.03.08.08.22.03.06.04.13.05.2,0,.09-.02.18-.05.26h0ZM78.5,26.76s-.03.04-.05.02c-.15-.12-.31-.24-.48-.35,0,0,0-.02,0-.04l.2-.43s.03-.04.04-.04c.09.05.18.1.26.17.16.11.23.18.23.2-.04.17-.11.32-.21.46h0ZM80.57,26.78c.06-.2.15-.39.25-.57.03-.05.05-.08.06-.08,0,.03-.01.06-.03.09-.13.28-.23.58-.3.88-.02.08-.03.16-.03.24,0,.08.01.16.05.22.03.04.05.06.08.05.06-.01.12-.08.18-.21,0-.01.01-.02.02-.03,0,0,0,0,0,0,0,.01,0,.02,0,.03-.01.12-.05.23-.1.33-.05.1-.11.15-.17.15-.03,0-.07,0-.09-.03s-.05-.05-.06-.08c-.04-.1-.05-.2-.05-.31.03-.24.08-.48.17-.7h0ZM77.73,14.74s.08-.07.1-.08c.03,0,.04.06.04.18,0,.05,0,.1-.01.15,0,.04-.01.07-.02.11,0,.06.01.13.04.18.03.07.07.1.11.1.03,0,.06,0,.09-.02s.05-.03.07-.06c.02-.02.04-.05.05-.09.01-.03.02-.07.02-.1,0-.07-.02-.14-.03-.21-.02-.06-.03-.12-.03-.19,0-.04.01-.07.03-.1.02-.05.04-.07.05-.07.02,0,.04.07.07.2.02.1.04.19.05.29,0,.18.07.27.2.27.03,0,.05,0,.07-.02.02-.02.03-.04.04-.07-.09-.15-.15-.31-.17-.49,0-.06.02-.12.05-.17.02-.03.04-.05.04-.06,0,0,.01.02.02.07,0,.05.01.1.03.15,0,0,.03.08.08.22.03.06.04.13.05.2,0,.09-.02.18-.05.26-.05.12-.11.18-.18.18-.12,0-.2-.08-.25-.25-.06.22-.16.33-.31.33-.03,0-.06,0-.08-.02-.03-.02-.05-.04-.06-.06-.05-.08-.07-.18-.07-.27v-.27s-.01-.04-.04-.05c-.01,0-.03-.01-.03-.03,0-.01-.01-.03,0-.04,0-.06.03-.13.07-.17ZM75.72,15.96l.2-.42s.03-.04.04-.04c.08.04.16.08.22.14.09.06.18.13.26.2l.16-.34s.03-.04.04-.04c.09.05.18.1.27.17.16.11.23.18.23.2-.04.17-.11.33-.21.46-.02.03-.03.04-.05.02-.14-.11-.29-.22-.46-.34-.05.12-.11.24-.17.35-.02.03-.03.04-.05.02-.15-.12-.31-.24-.48-.35,0,0,0-.02,0-.04h0ZM73.83,16.59c0-.07.02-.13.05-.2.03-.06.07-.11.12-.16.09-.07.19-.14.28-.2.12-.08.22-.18.3-.3-.21-.04-.31-.12-.31-.25,0-.11.03-.22.08-.32-.04-.13-.03-.23.02-.29.02-.02.04-.04.07-.05.02-.01.05-.02.08-.02.07,0,.13.02.19.06.21.11.38.29.48.52,0,.02.01.03,0,.05,0,.08-.02.17-.06.24-.04.09-.08.13-.12.14h0,0s-.12-.02-.34-.06c-.07.15-.17.28-.29.39-.12.1-.25.18-.39.25-.04.02-.07.05-.07.07,0,.02.02.04.05.05.16.03.32.04.47.01.09-.01.31-.06.64-.14.04-.01.06-.01.06,0-.06.06-.13.11-.19.15-.1.06-.2.11-.31.15-.17.07-.36.11-.54.11-.19,0-.29-.07-.29-.2h0ZM74.74,19.28c-.01.09-.04.19-.08.27-.01.02-.02-.23-.05-.38-.02-.18-.07-.35-.16-.51-.09-.16-.21-.29-.35-.39,0-.13.01-.26.05-.38.17.14.32.31.42.51.16.26.21.58.16.89h0ZM75.82,22.88s-.03.04-.05.02c-.14-.11-.29-.22-.46-.34-.05.12-.11.24-.17.35-.02.03-.03.04-.05.02-.15-.12-.31-.24-.48-.35,0,0,0-.02,0-.04l.2-.43s.03-.04.04-.04c.08.04.16.08.23.14.09.06.18.13.26.2l.16-.34s.03-.04.04-.04c.09.05.18.1.27.17.16.11.23.18.23.2-.04.17-.11.33-.21.46ZM77.15,22s-.03.04-.05.02c-.14-.11-.29-.22-.46-.34-.05.12-.11.24-.17.35-.02.03-.03.04-.05.02-.15-.12-.31-.24-.48-.35,0,0,0-.02,0-.04l.2-.42s.03-.04.04-.04c.08.04.16.08.22.14.09.06.18.13.26.21l.16-.34s.03-.04.04-.04c.09.05.18.1.27.17.16.11.23.18.23.2-.04.17-.11.32-.21.46h0ZM76.1,20.85l.2-.43s.03-.04.04-.04c.09.04.18.1.27.17.16.11.23.18.23.2-.04.17-.11.32-.21.46-.02.03-.03.04-.05.02-.15-.12-.31-.24-.48-.35,0,0,0-.02,0-.04h0ZM77.53,19.54c-.02.07-.05.15-.09.21-.54.2-2.83,1.1-3.55,1.42.03-.11.06-.22.1-.32.57-.22,2.84-1.11,3.48-1.36.03-.01.05-.02.06-.01s0,.02,0,.06h0ZM80.89,19.3c-.05.12-.11.24-.17.35-.02.03-.03.04-.05.02-.15-.12-.31-.24-.48-.35,0,0,0-.02,0-.04l.2-.43s.03-.04.04-.04c.08.04.16.08.23.14.09.06.18.13.26.2l.16-.34s.03-.04.04-.04c.09.05.18.1.27.17.16.11.23.18.23.2-.04.17-.11.33-.21.46-.02.03-.03.04-.05.02-.13-.11-.29-.22-.46-.34h0ZM81.9,21.18s-.03.04-.05.02c-.15-.12-.31-.24-.48-.35,0,0,0-.02,0-.04l.2-.43s.03-.04.04-.04c.09.04.18.1.27.17.16.11.23.18.23.2-.04.17-.11.32-.21.46h0ZM81.33,18.43c-.19.01-.39-.03-.56-.13-.08-.06-.15-.15-.2-.24-.05-.1-.08-.2-.08-.31-.06.19-.17.36-.31.5s-.31.24-.5.29v.12c.1,1.32.14,2.06.14,2.22,0,.46-.07.91-.22,1.34-.02.06-.05.11-.07.17-.03.05-.05.06-.05.02,0-.08,0-.17,0-.25.02-.17.03-.49.03-.72,0-.21-.05-.95-.15-2.46,0-.14-.02-.27-.03-.4-.17,0-.34-.05-.5-.13-.16-.08-.29-.19-.4-.33-.1-.15-.19-.31-.27-.47-.07-.12-.15-.18-.22-.18-.23,0-.47.21-.73.62-.09.19-.17.38-.24.58-.08.23-.18.46-.3.67-.04.09-.1.16-.18.22-.08.06-.16.09-.25.1-.23,0-.42-.19-.57-.56-.14-.32-.21-.67-.21-1.03-.01-.35.03-.7.12-1.03.02-.09.05-.14.07-.14.02,0,.03.06.02.17-.03.23-.05.46-.05.7,0,.91.2,1.36.6,1.36.16,0,.31-.13.44-.4.14-.32.27-.63.41-.95.12-.25.27-.47.45-.67.12-.16.3-.26.49-.28.06,0,.13.03.18.07.05.04.1.09.13.15.08.14.16.27.23.4.09.14.2.26.34.34.13.06.26.09.4.09-.05-.82-.08-1.3-.08-1.44,0-.18-.03-.35-.09-.51.03-.19.09-.37.17-.54.01-.03.03-.05.04-.05.01,0,.03.02.04.06.03.07.11.28.23.61.13.35.2.56.22.64.01.04.02.09.02.14,0,.1-.09.04-.26-.17-.02-.03-.03-.02-.03.04,0,.02.03.42.08,1.21.21-.03.42-.13.59-.27.02-.02.11-.12.28-.31.07-.1.16-.19.25-.26.03,0,.04.02.04.07,0,.03,0,.05-.01.07-.02.07-.03.15-.03.23,0,.27.33.39.48.4.28.02.57-.03.83-.15.29-.11.56-.28.8-.49,0-.11-.07-.21-.22-.28-.13-.07-.28-.11-.43-.11h-.41c-.07,0-.13,0-.2-.04-.06-.03-.12-.07-.16-.12-.09-.11-.14-.25-.13-.4,0-.24.08-.48.22-.67.15-.23.3-.34.45-.34.14.01.28.06.41.14.12.08.23.19.3.32.24.34.36.75.35,1.17,0,.37-.12.72-.35.99-.16.21-.36.37-.59.48-.23.11-.48.16-.74.15ZM83.51,19.8c-.13.22-.23.33-.29.33,0,0-.09.02-.27.07-.14.04-.28.06-.42.07-.07,0-.1,0-.1-.02.16-.12.34-.22.53-.29.27-.13.4-.22.4-.27,0-.01-.05-.02-.16-.02-.1,0-.21-.02-.31-.05-.05-.02-.09-.05-.12-.1-.03-.05-.04-.1-.04-.15.02-.29.13-.56.32-.77.2-.26.36-.39.47-.39.1,0,.15.05.15.16,0,.09-.02.18-.06.26-.04.11-.09.17-.15.17-.01,0-.03,0-.04,0s-.02-.02-.02-.03c0-.01-.01-.03-.02-.03-.01,0-.03-.01-.04,0-.03,0-.1.04-.19.13-.09.09-.14.15-.14.18,0,.07.12.12.36.14.24.02.36.09.36.21-.03.17-.1.32-.2.46h0ZM78.03,30.83s-.03.04-.05.02c-.14-.11-.29-.22-.46-.34-.05.12-.11.24-.17.35-.02.03-.03.04-.05.02-.15-.12-.31-.24-.48-.35,0,0,0-.02,0-.04l.2-.42s.03-.04.04-.04c.08.04.16.08.23.14.09.06.18.13.26.2l.16-.34s.03-.04.04-.04c.09.05.18.1.27.17.16.11.23.18.23.2-.04.17-.11.32-.21.46ZM87.72,22.34l.2-.43s.03-.04.04-.04c.09.04.18.1.27.17.16.11.23.18.23.2-.04.17-.11.32-.21.46-.02.03-.03.04-.05.02-.15-.12-.31-.24-.48-.35,0,0,0-.02,0-.04h0ZM85.85,25.44s.05-.02.06-.01,0,.03,0,.06c-.02.07-.05.14-.09.21-.01.01-.52.22-1.52.61-1.02.4-1.71.71-1.71.71.01-.05.06-.22.1-.33,1.02-.4,2.07-.82,3.16-1.24h0ZM86.06,17.35c-.09-.03-.19-.05-.28-.05-.06,0-.13.02-.18.05-.01,0-.02,0-.03,0,0,0,0-.01,0-.03.03-.08.07-.15.13-.21.07-.05.15-.07.24-.07.24,0,.36.06.36.19-.03.16-.11.3-.23.4-.11.12-.22.24-.33.36-.04.05-.06.1-.07.17,0,.1.11.16.33.16.22,0,.45-.04.66-.11.07-.02.1-.02.1-.02s-.02.04-.07.08c-.22.2-.5.31-.79.29-.09,0-.18-.03-.25-.08-.03-.02-.05-.06-.07-.09-.02-.04-.02-.08-.02-.12,0-.17.07-.33.18-.45.12-.13.24-.27.35-.4.03-.03.02-.05-.02-.06h0Z"/>
  <path class="cls-1" d="M3.07,28.01l-2.42-3.66H0v4.69h.63v-3.67l2.43,3.67h.64v-4.69h-.63v3.66Z"/>
  <path class="cls-1" d="M7.11,28.75v-1.9c0-.16-.02-.33-.08-.48-.06-.15-.15-.28-.27-.39-.27-.22-.6-.33-.94-.31-.15,0-.3.01-.45.04-.12.02-.23.06-.35.1-.09.04-.18.08-.27.13-.07.04-.13.09-.19.14l.28.43c.11-.08.22-.15.35-.21.18-.08.37-.11.56-.1.2-.01.4.04.57.16.07.06.13.14.17.23.04.09.05.19.04.29v.12s-.06,0-.11-.01c-.05,0-.12,0-.19-.01h-.23c-.08-.02-.15-.02-.23-.02-.36-.03-.72.09-1.01.32-.11.1-.21.23-.27.38-.06.15-.09.3-.08.46,0,.16.03.33.1.47.06.12.15.23.25.32.1.08.22.14.35.18.12.04.25.05.38.05.2,0,.4-.04.58-.12.18-.07.34-.2.46-.37v.39h.57c0-.07,0-.12,0-.17v-.12ZM6.54,27.86c0,.1-.03.2-.07.29-.05.09-.11.18-.19.25-.08.07-.18.13-.28.17-.11.04-.22.06-.33.06-.17.01-.34-.04-.48-.14-.06-.05-.1-.11-.13-.18-.03-.07-.04-.15-.04-.22,0-.08.01-.15.03-.22.02-.08.07-.15.12-.21.07-.07.16-.12.25-.16.13-.05.27-.07.41-.06.07,0,.14,0,.22,0h.21c.07.02.13.02.18.03.05,0,.09.01.1.02v.37Z"/>
  <path class="cls-1" d="M9.52,28.54c-.09.04-.19.06-.29.06-.06,0-.12,0-.18-.03-.06-.03-.11-.06-.15-.11-.09-.16-.13-.35-.12-.54v-1.61h.9v-.53h-.9v-1.07h-.6v1.07h-.56v.53h.56v1.67c-.02.31.06.62.23.88.09.1.21.18.33.23.12.05.26.07.39.06.16,0,.33-.02.48-.09.15-.06.29-.16.4-.29l-.27-.39c-.07.07-.14.13-.23.17Z"/>
  <path class="cls-1" d="M11.11,25.77h-.6v3.27h.6v-3.27Z"/>
  <path class="cls-1" d="M11.14,24.47h-.67v.71h.67v-.71Z"/>
  <path class="cls-1" d="M14.62,26.18c-.15-.16-.33-.29-.54-.38-.2-.09-.42-.13-.63-.13-.23,0-.45.04-.66.14-.19.09-.37.22-.52.38-.14.16-.26.35-.34.55-.16.43-.16.91,0,1.34.08.2.19.39.34.55.15.16.32.29.52.38.21.09.43.14.66.14.22,0,.45-.04.65-.14.19-.09.37-.22.52-.38.15-.16.26-.35.34-.55.16-.43.16-.91,0-1.34-.08-.21-.2-.39-.34-.55ZM14.41,27.84c-.04.14-.11.27-.2.38-.09.11-.2.2-.33.27-.13.07-.28.1-.43.1-.15,0-.3-.03-.43-.1-.12-.07-.24-.16-.33-.27-.09-.11-.16-.24-.21-.38-.05-.14-.07-.29-.07-.44,0-.15.02-.3.07-.44.04-.14.11-.27.2-.38.09-.11.2-.2.33-.27.13-.07.28-.1.43-.1.15,0,.3.03.43.1.12.07.24.16.33.27.09.11.16.24.21.38.05.14.07.29.07.43,0,.15-.02.3-.07.44Z"/>
  <path class="cls-1" d="M17.38,25.69c-.13,0-.26.02-.38.06-.1.03-.2.08-.3.14-.08.05-.15.11-.21.19-.06.07-.11.13-.15.19l-.02-.49h-.57c0,.09,0,.16,0,.21v3.06h.6v-1.52c0-.16.02-.31.05-.47.03-.14.08-.28.15-.41.07-.13.18-.24.3-.31.12-.07.27-.1.41-.1.1,0,.19.01.28.05.09.04.17.09.24.17.14.19.2.43.19.67v1.91h.6v-1.96c.02-.36-.08-.72-.29-1.01-.11-.13-.25-.23-.41-.29-.16-.06-.32-.09-.49-.08Z"/>
  <path class="cls-1" d="M21.88,28.75v-1.9c0-.16-.02-.33-.08-.48-.06-.15-.15-.28-.27-.39-.27-.22-.6-.33-.94-.31-.15,0-.3.01-.45.04-.12.02-.23.06-.35.1-.09.04-.18.08-.27.13-.07.04-.13.09-.19.14l.28.43c.11-.08.22-.15.35-.21.18-.08.37-.11.56-.1.2-.01.4.04.57.16.07.06.13.14.17.23.04.09.05.19.04.29v.12s-.06,0-.11-.01c-.05,0-.12,0-.19-.01h-.23c-.08-.02-.16-.02-.23-.02-.36-.03-.72.09-1.01.32-.11.1-.21.23-.27.38-.06.15-.09.3-.08.46,0,.16.03.33.1.47.06.12.15.23.25.32.1.08.22.14.35.18.12.04.25.05.38.05.2,0,.4-.04.58-.12.18-.07.34-.2.46-.37v.39h.57c0-.07,0-.12,0-.17v-.12ZM21.31,27.86c0,.1-.03.2-.07.29-.05.09-.11.18-.19.25-.08.07-.18.13-.28.17-.11.04-.22.06-.33.06-.17.01-.34-.04-.48-.14-.06-.05-.1-.11-.13-.18-.03-.07-.04-.15-.04-.22,0-.08.01-.15.03-.22.02-.08.07-.15.12-.21.07-.07.16-.12.25-.16.13-.05.27-.07.41-.06.07,0,.14,0,.22,0h.21c.07.02.13.02.18.03.05,0,.09.01.1.02v.37Z"/>
  <path class="cls-1" d="M23.29,24.35h-.6v4.69h.6v-4.69Z"/>
  <path class="cls-1" d="M26.31,25.39c.14-.18.32-.32.51-.41.2-.09.41-.14.63-.14.16,0,.31.02.46.07.12.04.24.1.35.18.1.07.19.14.26.24.07.08.13.16.19.25l.45-.41c-.07-.11-.15-.21-.24-.31-.11-.11-.23-.21-.36-.3-.34-.22-.73-.33-1.12-.32-.31,0-.62.06-.91.19-.27.12-.5.3-.7.53-.2.23-.35.5-.46.79-.22.62-.22,1.31,0,1.94.1.29.26.55.46.77.2.22.43.39.7.51.28.12.59.19.9.18.21,0,.43-.03.63-.1.18-.06.35-.14.5-.24.13-.09.26-.19.37-.31.09-.09.16-.18.23-.29l-.45-.39c-.04.05-.1.12-.16.19-.07.09-.16.16-.25.23-.11.08-.24.15-.37.19-.17.06-.34.08-.52.08-.22,0-.44-.04-.64-.14-.19-.09-.35-.22-.49-.39-.14-.17-.24-.37-.31-.58-.07-.23-.11-.47-.11-.71,0-.24.03-.49.11-.72.07-.22.17-.42.31-.59Z"/>
  <path class="cls-1" d="M32.59,28.7v-2.94h-.6v1.52c0,.16-.01.31-.04.47-.03.14-.08.28-.15.41-.07.12-.16.22-.28.29-.13.08-.28.12-.43.11-.1,0-.19,0-.28-.04-.09-.04-.17-.09-.24-.16-.14-.19-.2-.43-.18-.67v-1.92h-.6v1.96c-.02.36.08.72.29,1.01.11.13.25.23.4.29.15.06.32.09.49.08.13,0,.26-.02.38-.06.1-.03.2-.08.29-.14.08-.05.15-.11.21-.18.05-.06.1-.12.15-.18l.02.48h.57c0-.07,0-.13,0-.2v-.13Z"/>
  <path class="cls-1" d="M34.02,24.35h-.6v4.69h.6v-4.69Z"/>
  <path class="cls-1" d="M36.43,28.54c-.09.04-.19.06-.29.06-.06,0-.12,0-.18-.03-.06-.03-.11-.06-.15-.11-.09-.16-.13-.35-.12-.54v-1.61h.9v-.53h-.9v-1.07h-.6v1.07h-.56v.53h.56v1.67c-.02.31.06.62.23.88.09.1.21.18.33.23.12.05.26.07.39.06.16,0,.33-.02.48-.09.15-.06.29-.16.4-.29l-.27-.39c-.07.07-.14.13-.23.17Z"/>
  <path class="cls-1" d="M40.09,28.7v-2.94h-.6v1.52c0,.16-.01.31-.04.47-.03.14-.08.28-.15.41-.07.12-.16.22-.28.29-.13.08-.28.12-.43.11-.1,0-.19,0-.28-.04-.09-.04-.17-.09-.24-.16-.14-.19-.2-.43-.18-.67v-1.92h-.6v1.96c-.02.36.08.72.29,1.01.11.13.25.23.41.29.15.06.32.09.49.08.13,0,.26-.02.38-.06.1-.03.2-.08.29-.14.08-.05.15-.11.21-.18.05-.06.1-.12.15-.18l.02.48h.57c0-.07,0-.13,0-.2v-.13Z"/>
  <path class="cls-1" d="M42.52,25.72c-.13,0-.25.02-.38.06-.1.04-.2.08-.29.14-.08.05-.15.11-.21.19-.05.06-.1.12-.14.19l-.02-.53h-.57c0,.09,0,.16,0,.2v3.06h.6v-1.72c0-.13.02-.26.07-.39.04-.12.11-.23.19-.32.12-.13.27-.22.44-.26.17-.04.34-.04.51.02l.13-.59c-.05-.02-.1-.03-.16-.04-.06,0-.12-.01-.18-.01Z"/>
  <path class="cls-1" d="M45.75,28.75v-1.9c0-.16-.02-.33-.08-.48-.06-.15-.15-.28-.27-.39-.27-.22-.6-.33-.94-.31-.15,0-.3.01-.45.04-.12.02-.23.06-.35.1-.09.04-.18.08-.27.13-.07.04-.13.09-.19.14l.28.43c.11-.08.22-.15.35-.21.18-.08.37-.11.56-.1.2-.01.4.04.57.16.07.06.13.14.17.23.04.09.05.19.04.29v.12s-.06,0-.11-.01c-.05,0-.12,0-.19-.01h-.23c-.08-.02-.16-.02-.23-.02-.36-.03-.72.09-1.01.32-.11.1-.21.23-.27.38-.06.15-.09.3-.08.46,0,.16.03.33.1.47.06.12.15.23.25.32.1.08.22.14.35.18.12.04.25.05.38.05.2,0,.4-.04.58-.12.18-.07.34-.2.46-.37v.39h.57c0-.07,0-.12,0-.17v-.12ZM45.18,27.86c0,.1-.03.2-.07.29-.05.09-.11.18-.19.25-.08.07-.18.13-.28.17-.1.04-.22.06-.33.06-.17.01-.34-.04-.48-.14-.06-.05-.1-.11-.13-.18-.03-.07-.04-.15-.04-.22,0-.08.01-.15.03-.22.02-.08.07-.15.12-.21.07-.07.16-.12.25-.16.13-.05.27-.07.41-.06.07,0,.14,0,.22,0h.21c.07.02.13.02.18.03.05,0,.09.01.1.02v.37Z"/>
  <path class="cls-1" d="M47.16,24.35h-.6v4.69h.6v-4.69Z"/>
  <path class="cls-1" d="M50.74,24.35l-1.74,4.69h.67l.46-1.31h1.82l.46,1.31h.71l-1.74-4.69h-.65ZM50.32,27.16l.72-2.06.72,2.06h-1.44Z"/>
  <path class="cls-1" d="M56.27,28.28l-.74-2.52h-.51l-.74,2.49-.69-2.49h-.66l1.04,3.27h.56l.71-2.28.72,2.28h.59l1.02-3.27h-.62l-.68,2.52Z"/>
  <path class="cls-1" d="M60.56,28.75v-1.9c0-.16-.02-.33-.08-.48-.06-.15-.15-.28-.27-.39-.27-.22-.6-.33-.94-.31-.15,0-.3.01-.45.04-.12.02-.23.06-.35.1-.09.04-.18.08-.27.13-.07.04-.13.09-.19.14l.28.43c.11-.08.22-.15.35-.21.18-.08.37-.11.56-.1.2-.01.4.04.57.16.07.06.13.14.17.23.04.09.05.19.04.29v.12s-.06,0-.11-.01c-.05,0-.12,0-.19-.01h-.23c-.08-.02-.15-.02-.23-.02-.36-.03-.72.09-1.01.32-.11.1-.21.23-.27.38s-.09.3-.08.46c0,.16.03.33.1.47.06.12.15.23.25.32.1.08.22.14.35.18.12.04.25.05.38.05.2,0,.4-.04.58-.12.18-.07.34-.2.46-.37v.39h.57c0-.07,0-.12,0-.17v-.12ZM59.99,27.86c0,.1-.03.2-.07.29-.05.09-.11.18-.19.25-.08.07-.18.13-.28.17-.11.04-.22.06-.33.06-.17.01-.34-.04-.48-.14-.06-.05-.1-.11-.13-.18-.03-.07-.04-.15-.04-.22,0-.08.01-.15.03-.22.02-.08.07-.15.12-.21.07-.07.16-.12.25-.16.13-.05.27-.07.41-.06.07,0,.14,0,.22,0h.21c.07.02.13.02.18.03.05,0,.09.01.1.02v.37Z"/>
  <path class="cls-1" d="M62.98,25.72c-.13,0-.25.02-.38.06-.1.04-.2.08-.29.14-.08.05-.15.11-.21.19-.05.06-.1.12-.14.19l-.02-.53h-.57c0,.09,0,.16,0,.2v3.06h.6v-1.72c0-.13.02-.26.07-.39.04-.12.11-.23.19-.32.12-.13.27-.22.44-.26.17-.04.34-.04.51.02l.13-.59c-.05-.02-.1-.03-.16-.04-.06,0-.12-.01-.18-.01Z"/>
  <path class="cls-1" d="M66.46,28.7v-4.36h-.6v1.55c-.12-.06-.24-.11-.37-.15-.14-.04-.29-.06-.44-.06-.18,0-.35.04-.52.1-.19.07-.36.17-.51.31-.16.15-.3.34-.39.55-.11.25-.16.52-.15.8,0,.24.03.47.1.7.06.2.16.38.29.53.12.14.27.26.44.34.17.08.36.12.55.12.13,0,.27-.02.4-.06.1-.04.2-.09.3-.15.07-.05.14-.11.2-.17.05-.06.09-.1.11-.13l.02.41h.59c0-.07,0-.13,0-.2v-.13ZM65.86,27.66c0,.1-.02.21-.05.31-.03.11-.09.21-.15.3-.07.1-.17.17-.27.23-.12.06-.26.1-.4.09-.14,0-.28-.03-.4-.09-.11-.06-.2-.14-.28-.24-.08-.11-.13-.23-.16-.36-.04-.14-.05-.29-.05-.44,0-.17.02-.34.08-.51.05-.14.12-.27.21-.38.09-.1.2-.18.32-.24.13-.06.26-.09.4-.08.15,0,.31.02.45.07.11.04.21.1.31.18v1.17Z"/>
  <path class="cls-1" d="M2.37,16.74l-.46-.49-.46.49.46.49.46-.49Z"/>
  <path class="cls-1" d="M1.3,16.74l-.46-.49-.46.49.46.49.46-.49Z"/>
  <path class="cls-1" d="M4.92,22.82l-.46-.49-.46.49.46.49.46-.49Z"/>
  <path class="cls-1" d="M5.99,22.82l-.46-.49-.46.49.46.49.46-.49Z"/>
  <path class="cls-1" d="M8.63,18.4l-.46-.49-.46.49.46.49.46-.49Z"/>
  <path class="cls-1" d="M14.18,20.21c0-.21-.03-.42-.1-.62-.06-.18-.15-.35-.27-.5-.11-.14-.24-.25-.4-.33-.15-.08-.32-.12-.49-.12-.31.02-.61.16-.83.4-.31.32-.57.7-.77,1.11l.05-3.46-.58.11.05,4.21h-1.69c-.58,0-.88-.16-.88-.48,0-.04,0-.15.03-.33.02-.18.04-.38.07-.6l-.5-.06c0,.07-.02.15-.03.23-.01.09-.02.18-.04.26-.01.09-.03.18-.04.26-.01.09-.03.16-.04.21-.02.08-.05.16-.1.23-.05.07-.12.12-.19.16-.23.09-.47.13-.71.12h-.59c-.58,0-.88-.16-.88-.48,0-.04,0-.15.03-.33s.04-.38.07-.6l-.5-.06c0,.07-.02.15-.03.23-.01.09-.02.18-.04.26-.01.09-.03.18-.04.26-.01.09-.03.16-.04.21-.02.08-.05.16-.1.23-.05.07-.12.12-.19.16-.23.09-.47.13-.71.12h-.59c-.18.02-.37-.03-.52-.14-.06-.06-.1-.14-.13-.22-.03-.08-.04-.17-.02-.26l.03-2.64-.58.11v.47c-.5.09-.98.3-1.39.62-.15.12-.28.27-.37.45-.09.18-.13.37-.13.57,0,.15.03.3.09.43.06.14.15.25.26.34.11.09.24.16.38.2.15.05.31.07.47.07.25,0,.51-.06.73-.19.08.59.48.88,1.19.88h.59c.27,0,.54-.04.8-.14.2-.07.37-.2.48-.39.19.35.57.52,1.15.52h.59c.27,0,.54-.04.8-.14.2-.07.37-.2.48-.39.19.35.57.52,1.15.52h2.6c1.61,0,2.42-.5,2.42-1.5ZM1.29,20.33c-.1,0-.2,0-.3-.03-.09-.02-.17-.04-.25-.09-.07-.03-.13-.09-.17-.15-.04-.07-.07-.15-.06-.23,0-.12.04-.23.11-.32.09-.11.19-.19.31-.26.14-.08.29-.14.45-.19.17-.05.35-.09.52-.1v1.25c-.18.08-.39.11-.6.11h0ZM12.13,19.78c.1-.12.22-.22.35-.3.14-.07.28-.12.44-.13.1,0,.19.02.28.07.09.04.17.11.24.18.14.16.22.38.22.6,0,.14-.04.28-.12.39-.08.11-.19.19-.32.23-.47.15-.96.21-1.46.19h-.41c.2-.45.45-.86.77-1.23h0Z"/>
  <path class="cls-1" d="M19.43,21.09c.09-.17.13-.36.12-.55l.03-3.86-.58.11.02,3.82s0,.07-.02.1c-.01.03-.03.06-.06.08-.06.06-.13.1-.2.12-.09.03-.18.05-.28.07-.1.01-.21.02-.31.02h-.95v-.08c.03-.54-.08-1.08-.32-1.56-.09-.17-.22-.3-.38-.4-.16-.09-.34-.14-.52-.14-.16,0-.32.04-.46.11-.14.08-.27.18-.37.32-.11.14-.19.31-.24.48-.06.19-.09.4-.09.6,0,.18.02.36.09.53.07.17.17.31.3.43.32.24.71.36,1.11.33h.26c-.24.52-.83.85-1.75.99l.27.64c.46-.05.89-.23,1.27-.52.34-.26.59-.62.72-1.04h1.08c.17,0,.34-.02.51-.06.16-.04.31-.1.44-.2.13-.09.24-.21.31-.36ZM16.4,21c-.72,0-1.08-.23-1.08-.68,0-.21.05-.42.18-.59.06-.07.13-.13.21-.17.08-.04.17-.06.26-.06.12,0,.23.04.33.1.1.07.17.16.22.28.15.35.22.73.2,1.11h-.31Z"/>
  <path class="cls-1" d="M21.05,21.7l.04-5.02-.58.11.04,4.91h.51Z"/>
  <path class="cls-1" d="M25.59,16.74l-.46-.49-.46.49.46.49.46-.49Z"/>
  <path class="cls-1" d="M24.51,16.74l-.46-.49-.46.49.46.49.46-.49Z"/>
  <path class="cls-1" d="M28.29,22.82l.46.49.46-.49-.46-.49-.46.49Z"/>
  <path class="cls-1" d="M28.13,22.82l-.46-.49-.46.49.46.49.46-.49Z"/>
  <path class="cls-1" d="M31.82,16.7l-.46-.49-.46.49.46.49.46-.49Z"/>
  <path class="cls-1" d="M29.94,21.7h.17c.26,0,.49,0,.69-.01.2,0,.37-.02.52-.04.13-.02.26-.04.39-.07.11-.03.21-.06.31-.11.18-.08.32-.22.41-.41.09-.25.13-.52.12-.78.03-.63-.07-1.26-.3-1.84-.05-.13-.12-.25-.22-.34-.09-.1-.21-.17-.33-.22-.12-.05-.26-.07-.39-.06-.13,0-.26.05-.38.11-.14.08-.26.18-.36.31-.1.14-.19.3-.24.47-.06.18-.09.38-.09.57,0,.15.01.3.06.45.05.14.12.28.22.39.1.1.22.18.35.23.13.05.27.07.41.07.14,0,.28-.02.42-.07.12-.04.24-.11.34-.2v.54c0,.1-.16.18-.49.23-.48.06-.96.09-1.44.08h-.76c-.58,0-.88-.16-.88-.48,0-.04,0-.15.03-.33s.04-.38.07-.6l-.5-.06c0,.07-.02.15-.03.23-.01.09-.02.18-.04.26-.01.09-.03.18-.04.26-.01.09-.03.16-.04.21-.02.08-.05.16-.1.23-.05.07-.12.12-.19.16-.23.09-.47.13-.71.12h-.59c-.18.02-.37-.03-.52-.14-.06-.06-.1-.14-.13-.22-.03-.08-.04-.17-.02-.26l.03-2.64-.58.11v.47c-.5.09-.98.3-1.39.62-.15.12-.28.27-.36.45-.09.18-.13.37-.13.57,0,.15.03.3.09.43.06.14.15.25.26.34.11.09.24.16.38.2.15.05.31.07.47.07.25,0,.51-.06.73-.19.08.59.48.88,1.19.88h.59c.27,0,.54-.04.8-.14.2-.07.37-.2.48-.39.19.35.57.52,1.15.52h.59,0ZM31.72,19.77c-.12.04-.25.05-.37.05-.17.01-.34-.04-.48-.15-.06-.05-.1-.12-.13-.2-.03-.08-.04-.16-.04-.24,0-.2.06-.4.19-.55.06-.07.13-.13.2-.17s.17-.06.25-.06c.09,0,.18.02.26.07.08.05.15.12.19.2.13.27.2.57.21.88-.09.07-.19.12-.29.15ZM24.5,20.33c-.1,0-.2,0-.3-.03-.09-.02-.17-.04-.25-.09-.07-.03-.13-.09-.17-.15-.04-.07-.07-.15-.06-.23,0-.12.04-.23.11-.32.09-.11.19-.19.31-.26.14-.08.29-.14.45-.19.17-.05.35-.09.52-.1v1.25c-.18.08-.39.11-.6.11h0Z"/>
  <path class="cls-1" d="M38.33,17.52l-.46-.49-.46.49.46.49.46-.49Z"/>
  <path class="cls-1" d="M39.4,17.52l-.46-.49-.46.49.46.49.46-.49Z"/>
  <path class="cls-1" d="M43.13,18.9l.46-.49-.46-.49-.46.49.46.49Z"/>
  <path class="cls-1" d="M43.05,17.4l-.46-.49-.46.49.46.49.46-.49Z"/>
  <path class="cls-1" d="M43.58,21.7h1.18c.17,0,.34-.02.51-.06.16-.04.31-.1.44-.2.13-.09.24-.21.32-.36.09-.17.13-.36.12-.55l.03-3.86-.58.11.02,3.82s0,.07-.02.1c-.01.03-.03.06-.06.08-.06.06-.13.1-.2.12-.09.03-.18.05-.28.07-.1.01-.21.02-.31.02h-1.18c-.58,0-.88-.16-.88-.48,0-.04,0-.15.03-.33.02-.18.04-.38.07-.6l-.5-.06c-.01.07-.02.15-.03.23-.01.09-.02.18-.04.26-.01.09-.03.18-.04.26-.01.09-.03.16-.04.21-.02.08-.05.16-.1.23-.05.07-.12.12-.19.16-.23.09-.47.13-.71.12h-1.18c-.15,0-.29,0-.42,0-.13,0-.26-.01-.37-.02.12-.12.22-.27.29-.43.07-.16.1-.34.09-.52,0-.18-.03-.37-.09-.54-.06-.16-.14-.31-.25-.44-.1-.12-.23-.22-.37-.3-.14-.07-.29-.11-.45-.11s-.31.04-.45.11c-.14.07-.27.17-.37.3-.11.13-.19.28-.25.44-.06.17-.09.36-.09.54,0,.18.03.36.09.52.07.16.17.31.29.43-.12.01-.24.02-.38.02-.13,0-.27,0-.41,0h-2.14c-.18.02-.37-.03-.52-.14-.06-.06-.1-.14-.13-.22-.03-.08-.04-.17-.03-.26l.03-3.7-.58.11.03,3.82c0,.73.41,1.09,1.2,1.09h2.14c.27,0,.54-.02.81-.07.26-.04.51-.11.75-.2.24.09.5.16.75.2.27.05.54.07.81.07h1.18c.27,0,.54-.04.8-.14.2-.07.37-.2.48-.39.19.35.57.52,1.15.52ZM38.41,20.82c-.45-.16-.68-.41-.68-.77,0-.1.02-.2.05-.29.03-.09.08-.17.14-.23.06-.07.13-.12.22-.16.17-.07.36-.07.53,0,.08.04.16.09.22.16.13.14.2.33.2.52,0,.36-.22.61-.67.77Z"/>
  <path class="cls-1" d="M42.51,18.4l-.46-.49-.46.49.46.49.46-.49Z"/>
  <path class="cls-1" d="M47.15,21.7h.51l.04-5.02-.58.11.04,4.91Z"/>
  <path class="cls-1" d="M51.67,21.48c.24.16.53.24.82.23h.9c.44.03.88-.08,1.27-.32.14-.12.25-.27.32-.44.07-.17.1-.36.09-.55,0-.14-.01-.27-.03-.41-.02-.16-.05-.32-.1-.47-.04-.16-.09-.32-.14-.47-.05-.14-.1-.28-.17-.41l-.53.31c.07.13.12.27.18.41.05.15.1.29.14.43.04.13.07.27.1.41.02.11.03.23.03.34,0,.12-.11.23-.32.32-.27.1-.55.15-.84.14h-.9c-.1,0-.2,0-.3-.02-.08-.01-.15-.04-.21-.09-.06-.04-.11-.1-.15-.16-.05-.08-.09-.17-.13-.26-.03-.08-.08-.22-.14-.41-.06-.19-.12-.38-.18-.58l-.55.27c.09.3.18.54.25.74.06.17.13.34.21.5-.08.36-.29.68-.57.9-.39.32-.83.58-1.3.76l.34.62c.47-.17.9-.42,1.27-.76.31-.27.54-.62.66-1.02Z"/>
  <path class="cls-1" d="M51.35,18.36l-.46-.49-.46.49.46.49.46-.49Z"/>
  <path class="cls-1" d="M53.6,17.8l.1.28c.37-.12.75-.2,1.13-.23l.05-.37c-.07,0-.14.01-.21.02-.07.01-.15.02-.24.04-.11,0-.21-.04-.31-.1-.03-.02-.06-.05-.08-.08-.02-.03-.03-.07-.03-.11,0-.03,0-.07.02-.1.01-.03.04-.06.06-.08.06-.05.14-.07.22-.07.08,0,.16.02.24.07l.15-.23c-.05-.06-.11-.11-.19-.15-.07-.03-.15-.05-.23-.05-.08,0-.15.01-.22.04-.07.03-.13.07-.19.13-.05.05-.1.12-.13.19-.03.07-.04.15-.04.23,0,.09.02.18.06.25.04.08.11.14.18.18-.05.02-.11.04-.17.06-.06.02-.12.04-.19.07Z"/>
  <path class="cls-1" d="M56.46,21.7l.04-5.02-.58.11.04,4.91h.51Z"/>
  <path class="cls-1" d="M60.68,21.7c.16,0,.32-.01.47-.04.16-.03.32-.07.48-.12.18-.06.36-.14.53-.23.19-.1.4-.22.64-.36.18-.11.34-.2.48-.28.12-.07.24-.13.35-.18-.01.32.09.64.29.89.12.12.27.21.42.26.16.06.32.08.49.06h1.83c.17,0,.34-.02.51-.06.16-.04.31-.1.44-.2.13-.09.24-.21.32-.36.09-.17.13-.36.12-.55l.03-3.86-.58.11.02,3.82s0,.07-.02.1c-.01.03-.03.06-.06.08-.06.06-.13.1-.2.12-.09.03-.18.05-.28.07-.1.01-.21.02-.31.02h-1.83c-.13,0-.25-.01-.38-.04-.09-.02-.17-.06-.24-.12-.06-.06-.11-.13-.13-.22-.03-.1-.04-.2-.04-.3.1-.03.2-.07.3-.1v-.65h-.15c-.06,0-.13,0-.19-.02-.07-.01-.14-.03-.21-.06-.08-.03-.17-.06-.27-.11-.1-.04-.22-.1-.35-.16-.16-.08-.3-.14-.42-.2-.1-.05-.21-.09-.32-.12-.08-.03-.17-.05-.25-.06-.07-.01-.15-.02-.22-.02-.21,0-.42.05-.6.17-.19.14-.35.32-.45.54l.34.28c.08-.1.18-.19.29-.26.1-.05.21-.07.32-.07.07,0,.13,0,.2.02.08.02.16.04.24.06.09.03.19.07.31.12.12.05.26.11.42.18l.38.17c-.14.05-.27.1-.4.16-.14.07-.3.14-.47.23-.19.1-.37.19-.53.27-.15.07-.3.13-.46.18-.14.04-.28.08-.42.1-.14.02-.28.03-.42.03h-.95v-.08c.03-.54-.08-1.08-.32-1.56-.09-.17-.22-.3-.38-.4s-.34-.14-.52-.14c-.16,0-.32.04-.46.11-.14.08-.27.18-.37.32-.11.14-.19.31-.24.48-.06.19-.09.4-.09.6-.01.18.02.36.09.53.07.17.17.31.3.43.32.24.71.36,1.11.33h.26c-.24.52-.83.85-1.75.99l.27.64c.46-.05.89-.23,1.27-.52.34-.26.59-.62.72-1.04h1.08,0ZM58.92,21c-.72,0-1.08-.23-1.08-.68,0-.21.05-.42.18-.59.06-.07.13-.13.21-.17.08-.04.17-.06.26-.06.12,0,.23.04.33.1.1.07.17.16.22.28.15.35.22.73.2,1.11h-.31Z"/>
  <path class="cls-1" d="M61.99,22.66l.46.49.46-.49-.46-.49-.46.49Z"/>
  <path class="cls-1" d="M69.54,21.7l.04-5.02-.58.11.04,4.91h.51Z"/>
  <path class="cls-1" d="M67.4,28.29c.11.12.25.21.39.28.17.07.35.11.53.1.17,0,.34-.03.49-.1.06-.02.11-.07.14-.12s.05-.12.05-.19c0-.07-.01-.13-.04-.19-.03-.06-.08-.11-.14-.14-.08-.05-.17-.09-.27-.11-.11-.03-.25-.07-.41-.11-.12-.03-.24-.07-.35-.11-.11-.04-.22-.11-.31-.18-.09-.08-.17-.17-.22-.28-.06-.12-.09-.26-.08-.39,0-.14.03-.29.1-.41.07-.12.16-.22.27-.3.12-.08.25-.14.38-.18.14-.04.29-.06.44-.06.23,0,.45.03.66.11.18.07.34.17.49.3l-.32.43c-.1-.09-.22-.17-.34-.22-.15-.06-.32-.09-.48-.09-.16,0-.31.03-.45.1-.05.03-.1.08-.13.13-.03.06-.04.12-.04.19,0,.07.02.14.06.19s.1.1.16.11c.19.08.39.14.59.19.14.03.27.08.4.13.12.04.23.11.33.19.09.07.17.17.22.28.06.12.09.26.08.4,0,.15-.03.3-.1.42-.07.12-.17.23-.28.31-.12.09-.26.15-.41.19-.16.04-.32.06-.48.06-.24.02-.47-.01-.7-.1-.22-.08-.43-.22-.6-.39l.36-.41Z"/>
</svg>