<?xml version="1.0" encoding="UTF-8"?>
<svg id="Layer_1" data-name="Layer 1" xmlns="http://www.w3.org/2000/svg" viewBox="0 0 90 45">
  <defs>
    <style>
      .cls-1 {
        fill: #fff;
      }
    </style>
  </defs>
  <g id="yp86wB.tif">
    <g>
      <path class="cls-1" d="M45.02,12.33c-.18-.31-.33-.55-.47-.79-.5-.9-1.02-1.78-1.49-2.7-.4-.79-.79-1.59-1.04-2.44-.18-.59-.32-1.18-.34-1.81,0-.16-.07-.33-.06-.49.04-.73.12-1.46.45-2.13.31-.62.73-1.16,1.33-1.52.77-.47,1.61-.57,2.48-.32.62.18,1.11.53,1.53,1.04.5.6.73,1.28.87,2.02.14.71.12,1.43-.02,2.13-.11.55-.3,1.09-.47,1.62-.27.83-.67,1.61-1.08,2.38-.4.76-.84,1.5-1.27,2.24-.13.22-.25.45-.42.76Z"/>
      <path class="cls-1" d="M45.8,12.38c.57-.89,1.12-1.77,1.68-2.65.37-.58.73-1.18,1.15-1.73.36-.47.78-.89,1.21-1.29.34-.32.72-.61,1.11-.88.25-.17.51-.34.82-.41.18-.04.35-.16.53-.22.8-.29,1.63-.37,2.46-.29.42.04.86.14,1.21.44.03.02.06.05.09.07.88.4,1.17,1.16,1.27,2.04.06.6-.17,1.13-.45,1.65-.45.83-1.16,1.38-1.96,1.84-1.04.59-2.17.91-3.35,1.08-.74.11-1.47.22-2.22.23-.56,0-1.13.05-1.69.08-.59.03-1.17.08-1.76.12-.02,0-.04-.03-.11-.07Z"/>
      <path class="cls-1" d="M44.15,12.42c-.42-.02-.81-.03-1.21-.05-.11,0-.23-.03-.34-.04-.72-.03-1.44-.04-2.16-.09-.41-.02-.81-.12-1.22-.14-.75-.03-1.47-.22-2.18-.4-.67-.17-1.31-.44-1.92-.77-.44-.24-.85-.54-1.21-.87-.46-.41-.79-.93-1.04-1.51-.19-.46-.19-.93-.15-1.4.04-.44.31-.8.55-1.17.4-.59,1.04-.75,1.65-.99.46.01.9-.14,1.37-.05.43.08.86.14,1.27.26.68.21,1.34.5,1.89.98.35.3.71.59,1.05.9.2.18.36.4.54.6.55.63.99,1.34,1.44,2.04.34.53.68,1.06,1.01,1.59.1.16.2.33.29.5.11.19.22.37.36.6Z"/>
      <path class="cls-1" d="M45.99,13.27c.25-.04.41-.07.58-.09.34-.03.69-.06,1.03-.08,1.31-.07,2.63-.15,3.94-.06.76.05,1.52.15,2.28.33.65.16,1.28.38,1.88.66.93.43,1.7,1.06,2.22,1.96.15.26.2.58.28.87.04.16.07.33.07.49,0,.46-.11.88-.35,1.28-.36.63-.89,1.02-1.56,1.23-.55.18-1.09.14-1.65-.05-.79-.27-1.41-.77-1.97-1.37-.54-.57-1.05-1.17-1.61-1.72-.6-.59-1.24-1.14-1.94-1.63-.88-.61-1.83-1.09-2.76-1.6-.11-.06-.23-.12-.44-.22Z"/>
      <path class="cls-1" d="M43.97,13.27c-.51.27-.93.49-1.34.71-.86.46-1.69.98-2.45,1.59-.37.3-.75.59-1.1.9-.22.19-.42.41-.62.63-.35.39-.72.77-1.05,1.18-.38.48-.85.85-1.35,1.18-.46.29-.98.5-1.52.51-1.03.02-1.87-.36-2.42-1.29-.25-.43-.37-.88-.39-1.35,0-.4.08-.81.26-1.19.26-.55.64-.99,1.12-1.35.27-.2.53-.41.82-.57.37-.2.75-.39,1.15-.53.47-.16.96-.27,1.44-.38.52-.12,1.06-.16,1.59-.23.86-.11,1.72-.06,2.58-.06.58,0,1.16.04,1.73.08.48.04.96.1,1.53.16Z"/>
      <path class="cls-1" d="M41.93,18.86c-.1-.64.18-1.22.47-1.78.26-.48.56-.95.88-1.4.21-.31.45-.59.7-.87.28-.32.57-.62.86-.93.1-.1.2-.12.3-.01.1.1.21.19.3.3.63.76,1.26,1.52,1.76,2.38.27.47.51.95.64,1.48.31,1.33.06,2.53-.92,3.51-.42.42-.97.63-1.56.69-.54.06-1.07,0-1.59-.2-.58-.21-1.01-.62-1.33-1.13-.38-.61-.57-1.29-.5-2.04Z"/>
    </g>
  </g>
  <g>
    <path class="cls-1" d="M47.79,41.21c-.21.08-.36.15-.52.19-.32.09-.54,0-.71-.3-.1-.17-.14-.35-.15-.55,0-.38.04-.74.17-1.1.03-.08.07-.17.13-.23.1-.11.25-.1.38,0,.12.08.12.19.06.3-.16.28-.26.59-.26.92,0,.05,0,.1,0,.15.02.14.05.29.19.36.15.07.25-.06.34-.14.25-.21.34-.5.36-.82,0-.18.01-.35.04-.53.02-.14.11-.2.25-.19.14,0,.21.1.21.23,0,.1,0,.21,0,.31,0,.5,0,1.01,0,1.51,0,.29.06.59.06.88-.01.68-.04,1.36-.07,2.04,0,.17-.04.33-.08.49-.02.08-.09.16-.15.21-.11.09-.28.03-.29-.11-.02-.15,0-.31,0-.46.02-.35.05-.69.07-1.04.02-.29.06-.59.05-.88,0-.41-.05-.81-.08-1.25Z"/>
    <path class="cls-1" d="M55.05,40.89c-.12.08-.2.12-.27.17-.47.36-1.05.11-1.15-.51-.06-.36-.02-.75,0-1.12,0-.12.08-.25.14-.35.08-.12.21-.15.34-.09.13.06.19.21.11.36-.15.3-.16.62-.15.94,0,.05,0,.11.01.15.04.12.06.26.21.3.16.04.27-.05.36-.17.22-.29.29-.62.26-.98-.01-.15,0-.3.04-.45.02-.07.13-.15.2-.15.07,0,.15.09.2.16.03.05.03.12.04.18.05.52.08,1.05.16,1.57.16,1.11.24,2.22.23,3.34,0,.13.03.27-.1.35-.08.05-.19.09-.28.08-.04,0-.08-.14-.1-.22-.02-.09,0-.18,0-.27.02-.78-.03-1.56-.14-2.34-.02-.15,0-.31-.02-.46-.02-.15-.06-.3-.11-.49Z"/>
    <path class="cls-1" d="M28.37,39.3c0-.13,0-.19,0-.26,0-.51-.09-.58-.58-.55-.15,0-.23.07-.27.21-.03.11-.09.21-.15.31-.06.09-.17.15-.27.08-.06-.04-.1-.14-.12-.22-.01-.07.01-.15.04-.22.06-.17.05-.3-.13-.39-.1-.05-.16-.13-.13-.25.04-.13.18-.22.34-.17.15.04.2,0,.26-.13.23-.49.46-.97.7-1.45.09-.18.2-.36.33-.51.07-.08.23-.16.33-.14.14.04.26.16.26.34,0,.21.01.41,0,.62-.05.57-.14,1.14-.18,1.72-.02.32.02.64.03.96,0,.1,0,.21,0,.31-.01.2-.09.28-.24.27-.16-.01-.26-.14-.25-.32,0-.09.02-.18.03-.2ZM28.46,36.78s-.06-.03-.09-.04c-.13.29-.33.53-.44.84-.14.4-.11.47.33.44.02,0,.04-.02.09-.04.04-.39.07-.79.11-1.2Z"/>
    <path class="cls-1" d="M29.94,38.74c-.06.29-.11.55-.17.81-.02.07-.03.15-.06.22-.07.14-.25.17-.35.05-.06-.09-.13-.22-.11-.31.19-.85.3-1.72.75-2.49.23-.39.53-.64.99-.71.44-.06.81.25.66.74-.1.34-.28.64-.52.89-.18.19-.36.36-.55.54-.1.09-.11.17-.06.31.1.27.22.52.42.72.07.07.16.15.07.26-.09.11-.22.15-.34.06-.1-.07-.21-.15-.28-.25-.16-.26-.29-.54-.46-.84ZM31.18,36.8s-.05-.04-.08-.07c-.14.06-.31.09-.4.19-.3.33-.53.71-.59,1.2.47-.2.72-.57.98-.93.07-.1.06-.26.09-.39Z"/>
    <path class="cls-1" d="M67.94,37.26c-.1-.14-.21-.27-.29-.41-.09-.15-.18-.31-.24-.48-.16-.45,0-.66.47-.66.38,0,.66.19.88.48.15.2.15.43.09.66-.02.07-.06.15-.1.21-.14.22-.11.39.06.58.19.22.36.47.49.73.08.15.09.34.12.52.07.38-.31.65-.75.56-.33-.07-.55-.29-.71-.55-.21-.34-.3-.73-.37-1.13-.01-.08.03-.18.07-.25.07-.09.16-.16.28-.26ZM68.19,37.65c-.03.08-.08.14-.07.19.05.21.08.43.18.62.09.18.24.33.38.47.04.04.16.03.21,0,.04-.03.07-.15.05-.2-.17-.4-.36-.78-.75-1.08ZM68.2,36.88s.08-.01.11-.02c0-.12.05-.25.01-.35-.05-.12-.17-.21-.28-.3-.03-.02-.12-.02-.14,0-.03.05-.05.13-.03.17.1.17.21.34.31.51Z"/>
    <path class="cls-1" d="M45.25,40.65c.15.19.27.37.41.54.06.08.15.14.22.22.15.14.19.28.13.36-.07.09-.35.09-.46-.02-.16-.15-.31-.31-.45-.48-.09-.11-.16-.23-.27-.39-.06.25-.03.45-.04.64,0,.14.01.29-.01.42-.01.07-.1.14-.18.17-.1.04-.21,0-.25-.12-.04-.11-.09-.22-.09-.33,0-.32.02-.64.04-.96,0-.17.02-.33.02-.5,0-.5.14-.96.39-1.39.21-.35.52-.57.95-.56.26,0,.42.16.45.43.06.48-.07.91-.37,1.3-.16.2-.3.41-.49.67ZM44.85,40.25c.29-.24.53-.51.68-.86.05-.1.09-.22.1-.33,0-.1,0-.26-.07-.31-.12-.08-.24.01-.33.11-.03.04-.08.07-.1.12-.18.4-.31.81-.28,1.26Z"/>
    <path class="cls-1" d="M51.4,40.46c.12,0,.3.05.36-.01.1-.1.13-.27.17-.42.14-.43.23-.86.23-1.32,0-.11.04-.23.08-.33.05-.11.15-.13.26-.11.12.02.17.1.18.21.05.46.1.91.16,1.37.08.66.19,1.32.48,1.93.05.1.1.19,0,.28-.09.1-.22.1-.32.04-.2-.12-.38-.26-.56-.4-.07-.05-.13-.12-.2-.19-.22-.2-.22-.2-.35.09-.05.11-.13.22-.23.3-.09.07-.22.13-.31,0-.05-.07-.05-.19-.04-.28,0-.07.07-.14.1-.21.05-.09.09-.18.13-.27.06-.12,0-.19-.1-.24-.08-.03-.18-.05-.25-.1-.06-.04-.14-.13-.12-.17.02-.07.1-.13.16-.18.04-.03.1-.02.15-.03,0,0,0,.02,0,.03ZM52.29,40.98c.06.05.1.09.15.12,0,0,.05-.04.07-.06-.04-.04-.07-.09-.11-.12,0,0-.05.03-.11.06Z"/>
    <path class="cls-1" d="M35.65,40.57c-.15.06-.24.11-.33.14-.21.07-.42.04-.58-.1-.08-.07-.15-.18-.16-.29-.03-.23,0-.45.11-.67.19-.4.44-.76.73-1.08.18-.19.42-.33.65-.47.18-.1.41-.02.54.14.07.1.03.17-.05.22-.01,0-.02.02-.03.02-.84.16-1.1.89-1.46,1.52,0,.01-.01.02-.01.04.01.07.01.15.05.21.02.02.12,0,.17-.02.28-.14.53-.32.7-.59.06-.1.12-.2.19-.29.08-.11.2-.11.31-.06.11.05.13.15.11.26,0,.05-.03.1-.06.14-.26.5-.37,1.04-.48,1.58-.08.43-.2.85-.17,1.29,0,.06-.01.13-.04.18-.08.16-.22.17-.34.04-.15-.17-.18-.37-.14-.58.08-.43.18-.85.27-1.28.02-.11.02-.22.03-.37Z"/>
    <path class="cls-1" d="M70.13,35.91c-.18-.02-.33.06-.44-.11-.15-.23-.15-.47.04-.67.21-.22.48-.24.75-.18.22.05.36.23.36.45,0,.2-.05.4-.12.58-.07.18-.19.33-.3.53.2.04.38.07.56.11.63.15.88.67.57,1.23-.22.41-.51.78-.99.91-.12.03-.28.02-.41-.03-.18-.06-.23-.18-.2-.37.02-.14.1-.19.24-.15.33.1.42.07.61-.2.09-.12.19-.24.26-.38.15-.32.05-.52-.29-.59-.28-.07-.56-.02-.83.09-.34.14-.49.13-.57-.05-.11-.25.12-.34.26-.45.23-.19.36-.45.5-.74ZM70.23,35.51s-.03.02-.03.02c0,.02.01.04.02.06,0,0,.03-.02.03-.02,0-.02-.01-.04-.02-.06Z"/>
    <path class="cls-1" d="M49.14,42.14c-.08,0-.15,0-.23,0-.15,0-.21-.1-.22-.22,0-.13.1-.24.22-.22.2.04.22-.07.22-.21,0-.08,0-.15,0-.23.02-.56.05-1.13.08-1.69.01-.24.02-.47-.28-.55-.05-.01-.11-.14-.09-.18.02-.07.11-.12.18-.17.02-.01.05,0,.08,0,.31-.11.56-.12.73.25.05.11.22.16.33.26.12.1.23.2.33.32.38.46.31.94.07,1.44-.22.45-.6.77-.93,1.12-.1.1-.3.1-.46.15,0-.01,0-.02,0-.04ZM49.61,41.26s.06.01.09.02c.12-.16.26-.32.36-.49.22-.41.34-1-.3-1.33-.19.3-.05.65-.13.97-.06.26-.01.55-.01.83Z"/>
    <path class="cls-1" d="M25.82,37.58c.03-.59.39-1.05.5-1.59-.51.44-.84.98-.92,1.65-.03.22.1.34.32.32.11-.01.22-.07.33-.11.13-.05.26-.11.39-.16.05-.02.15,0,.17.03.03.06.02.14.03.21,0,.01-.01.02-.02.03-.21.33-.78.56-1.15.47-.32-.08-.56-.35-.59-.68-.03-.29.04-.57.16-.82.23-.51.49-1.02.92-1.4.11-.09.22-.18.34-.24.18-.09.36-.04.5.08.13.11.2.26.12.45-.18.42-.32.87-.55,1.27-.11.2-.37.33-.56.49Z"/>
    <path class="cls-1" d="M66.57,38.03c-.17.13-.32.25-.47.35-.16.11-.33.16-.5.03-.18-.13-.21-.33-.19-.52.05-.37.19-.72.44-1.01.27-.32.7-.33.97-.02.06.06.11.15.11.23.04.54.2,1.05.39,1.56.15.42.29.85.42,1.28.03.08.05.17.06.26.01.17-.05.26-.19.29-.14.03-.18-.08-.22-.17-.1-.25-.21-.49-.3-.75-.15-.44-.28-.88-.42-1.32-.02-.07-.06-.14-.09-.22ZM65.91,37.75c.26-.02.38-.21.37-.6-.14.23-.25.41-.37.6Z"/>
    <path class="cls-1" d="M33.62,38.53c-.09.29-.19.58-.28.87-.09.31-.16.62-.24.93-.03.13-.12.19-.26.18-.14-.01-.21-.1-.21-.23,0-.22,0-.44,0-.66.02-.36.05-.72.07-1.07,0-.08,0-.15,0-.23.01-.26.14-.34.38-.24.05.02.08.06.14.1.06-.09.12-.18.18-.25.1-.12.21-.24.39-.19.19.05.32.18.36.37.05.24.09.48.09.73,0,.5-.04,1-.07,1.5-.01.19-.07.25-.21.26-.15,0-.29-.09-.31-.24-.01-.07.01-.15.02-.23.07-.52.04-1.05.05-1.58-.03,0-.07-.01-.1-.02Z"/>
    <path class="cls-1" d="M43.28,39.04c.11-.01.2-.04.28-.03.07.01.15.06.17.12.02.05,0,.16-.05.2-.12.09-.27.15-.39.24-.1.07-.2.16-.27.26-.04.06-.03.2.02.25.04.04.16.04.24.02.11-.02.22-.09.33-.1.07,0,.2.02.22.07.05.1.06.23-.07.3-.17.09-.34.17-.52.26-.08.04-.16.08-.24.13-.13.09-.17.22-.14.37.04.18.17.26.34.18.16-.07.3-.18.46-.28.22.17.24.24.11.45-.18.27-.43.4-.76.36-.33-.04-.47-.29-.6-.54-.09-.18-.14-.37-.23-.6.04-.05.12-.12.17-.21.14-.21.23-.45.06-.68-.09-.13-.06-.23.03-.31.18-.17.28-.36.27-.61,0-.16.08-.27.24-.31.12-.03.23.07.29.26.02.06.03.12.05.2Z"/>
    <path class="cls-1" d="M39.57,38.64c.13,0,.24,0,.35.03.14.03.19.19.09.3-.08.08-.18.17-.28.19-.33.08-.46.29-.48.63.07,0,.15,0,.21-.02.14-.03.27-.08.41-.11.13-.03.24,0,.27.15.03.12-.05.19-.15.24-.23.11-.47.2-.69.32-.09.05-.17.15-.21.25-.05.12.03.22.12.3.1.08.19.05.29,0,.1-.06.19-.13.3-.18.06-.02.16-.02.2.02.04.04.06.14.05.2-.08.28-.43.55-.73.54-.29-.01-.49-.2-.62-.45-.1-.2-.08-.46-.27-.62-.02-.02,0-.12.03-.17.03-.05.09-.09.14-.14.17-.2.26-.42.11-.67-.09-.15-.06-.26.07-.37.15-.11.26-.25.24-.46,0-.06.03-.12.06-.18.05-.12.12-.2.26-.18.14.01.2.1.22.23,0,.05.02.1.04.15Z"/>
    <path class="cls-1" d="M41.08,40.69c.07-.24.15-.49.22-.73.08-.28.16-.57.26-.85.03-.1.06-.24.22-.21.14.02.24.17.23.32,0,.04-.02.07-.03.11-.17.67-.34,1.34-.52,2.01-.05.18-.12.37-.23.53-.2.3-.45.24-.59-.04-.19-.38-.2-.77-.16-1.17.01-.17.04-.33.06-.5.03-.27.05-.54.09-.8.02-.11.06-.23.21-.24.14,0,.29.1.31.24.02.11,0,.23-.02.34-.04.33-.16.65-.04.98Z"/>
    <path class="cls-1" d="M64.41,36.94c.22,0,.33.07.36.3.03.23.05.46.08.69.09.68.09,1.38.34,2.04.1.26.06.36-.1.42-.15.06-.35-.03-.42-.24-.12-.38-.22-.76-.28-1.15-.06-.38-.06-.77-.09-1.15-.02-.22-.07-.43-.1-.64-.03-.19.02-.26.21-.26Z"/>
    <path class="cls-1" d="M59.88,40.26c.02.24.03.48.05.72,0,.04.04.08.02.11-.04.09-.07.21-.14.25-.13.06-.21-.06-.27-.15-.02-.03-.02-.07-.03-.11-.09-.32-.19-.64-.27-.96-.02-.08-.04-.18-.03-.26.01-.12.13-.09.21-.13.07-.04.12-.12.18-.19.18-.18.41-.16.54.06.25.41.36.88.46,1.34.01.05-.02.16-.06.16-.08.02-.2.03-.25-.02-.08-.08-.12-.19-.15-.3-.06-.18-.1-.36-.14-.54-.04,0-.07.01-.11.02Z"/>
    <path class="cls-1" d="M61.3,40.46c-.18-.21,0-.46-.25-.66.01.24,0,.43.04.62.04.19.16.22.31.1.1-.08.19-.17.3-.24.1-.07.21,0,.2.13-.02.21-.37.62-.57.62-.2,0-.37-.09-.49-.26-.07-.09-.13-.2-.14-.31-.05-.47-.07-.95.19-1.38.09-.14.19-.19.35-.18.16.01.21.12.24.26.09.44.14.88-.16,1.32Z"/>
    <path class="cls-1" d="M62.67,40.46c.1-.09.18-.18.27-.24.04-.03.12-.06.16-.05.05.02.09.09.1.15.04.23-.17.49-.41.52-.22.02-.4-.07-.54-.24-.09-.11-.16-.23-.25-.35.11-.2.2-.41,0-.62-.03-.03-.02-.1-.02-.15.02-.18.05-.35.08-.53.03-.18.14-.24.3-.16.08.04.15.09.23.12.25.08.28.14.12.37q-.15.22-.17.39c.13-.05.23-.11.34-.14.05-.01.12.03.16.07.02.03.01.11-.01.14-.1.12-.21.22-.32.33-.1.1-.16.2-.04.4Z"/>
    <path class="cls-1" d="M57.73,40.27c.1.04.19.06.26.11.15.12.3.23.43.38.14.16.08.34-.03.5-.11.16-.56.31-.74.26-.14-.04-.24-.16-.24-.31,0-.14.07-.2.22-.15.06.02.13.07.18.05.08-.02.14-.09.21-.14-.04-.06-.07-.14-.12-.17-.11-.06-.24-.09-.36-.13-.29-.1-.49-.32-.21-.64.16-.19.31-.38.48-.56.05-.06.15-.11.23-.11.17,0,.24.2.14.35-.1.15-.23.28-.34.42-.03.04-.05.08-.1.14Z"/>
    <path class="cls-1" d="M32.21,38.46c-.07.47-.15.93-.22,1.4-.01.09-.01.17-.01.26,0,.16-.07.28-.21.31-.13.03-.25-.04-.28-.2-.03-.19-.03-.38-.01-.57.04-.34.1-.68.15-1.02.02-.11.05-.23.1-.33.06-.14.2-.21.31-.18.12.04.21.2.18.34Z"/>
    <path class="cls-1" d="M59.2,41.38s-.05.11-.1.13c-.06.02-.17,0-.21-.04-.07-.07-.12-.17-.15-.26-.06-.26-.11-.52-.16-.79-.01-.07-.03-.17,0-.23.04-.06.13-.12.2-.14.05,0,.11.07.17.11,0,0,0,.02,0,.04.07.38.14.75.22,1.17Z"/>
    <path class="cls-1" d="M32.69,36.82c-.01.13-.13.22-.28.21-.17-.01-.32-.18-.3-.33.02-.14.13-.22.28-.21.16.01.32.18.3.34Z"/>
    <path class="cls-1" d="M58.67,39.78c-.08-.09-.15-.17-.21-.24.07-.05.13-.14.2-.14.12,0,.18.1.15.22-.01.05-.07.09-.14.16Z"/>
  </g>
  <path class="cls-1" d="M48.12,35.26c.41.08.76.17,1.12.2.66.07,1.23-.11,1.59-.72.12-.21.23-.43.32-.66.12-.27.21-.55.32-.83.1-.25.1-.27-.13-.44-.42-.3-.81-.63-1.06-1.1-.19-.37-.28-.77-.37-1.17-.2-.9-.39-1.81-.58-2.71-.22-1.03-.44-2.05-.66-3.08-.02-.07,0-.15,0-.25.57-.05,1.13-.07,1.66.09.31.09.56.33.66.66.12.39.21.79.3,1.19.16.74.31,1.48.47,2.22.15.7.31,1.4.47,2.1.01.06.04.12.08.24.07-.13.12-.21.15-.3.18-.52.35-1.05.53-1.57.25-.74.49-1.49.74-2.23.3-.9.6-1.8.91-2.7.13-.39.29-.77.44-1.15.2-.51.59-.84,1.08-1.04.49-.2,1-.31,1.59-.22-.09.25-.16.47-.24.7-.38,1.12-.76,2.24-1.15,3.35-.33.95-.66,1.89-.99,2.84-.36,1.05-.7,2.1-1.05,3.14-.25.73-.5,1.46-.78,2.18-.21.55-.51,1.07-.89,1.53-.32.39-.76.62-1.24.76-.83.25-1.67.24-2.5-.05-.46-.16-.69-.49-.78-.99Z"/>
  <path class="cls-1" d="M33.18,21.45c.12.03.26.05.39.09.54.17,1.03.42,1.38.88.35.46.42,1.01.37,1.57,0,.1-.05.21-.03.3.08.36.05.71.01,1.11.08-.05.15-.07.2-.11.32-.33.69-.57,1.12-.72.34-.12.69-.19,1.05-.12.23.05.46.06.68.1.46.08.83.33,1.16.65.35.33.54.76.63,1.22.06.29.07.59.08.88,0,1.08,0,2.17,0,3.25,0,.84.07,1.67.23,2.49,0,.05,0,.1,0,.15,0,.02-.02.05-.03.07-.9.19-2-.28-2.24-1.37-.12-.53-.19-1.06-.19-1.6,0-.85.05-1.7.05-2.55,0-.38-.04-.76-.25-1.11-.18-.31-.45-.46-.77-.52-.35-.07-.7,0-1.01.18-.23.14-.34.38-.43.62-.15.4-.23.82-.23,1.24,0,1.3,0,2.61-.01,3.91,0,.31,0,.61,0,.92,0,.2-.1.3-.31.31-.26.01-.52,0-.77,0-.36,0-.72,0-1.07,0-.03-.03-.03-.04-.04-.04,0,0-.02-.02-.02-.03,0-3.84-.01-7.69-.01-11.53,0-.05,0-.1.01-.15,0-.02.03-.04.06-.09Z"/>
  <path class="cls-1" d="M48.04,24.66c0,.14,0,.27,0,.4,0,1.78-.02,3.56.02,5.34.02.96.07,1.92.35,2.85-.29.1-.7.08-1.05-.02-.36-.11-.64-.31-.87-.61-.23-.29-.26-.65-.38-.99-.18.34-.34.66-.5.97-.16.32-.43.51-.73.66-1.06.54-2.31.11-2.93-.71-.45-.6-.71-1.24-.81-1.97-.16-1.18-.12-2.33.31-3.45.41-1.07,1.12-1.86,2.19-2.3.39-.16.8-.24,1.23-.28.88-.08,1.74.06,2.62.03.16,0,.33.05.55.09ZM45.8,28.28h0c0-.62,0-1.24,0-1.85,0-.29-.11-.4-.4-.39-.49,0-.93.15-1.3.5-.33.31-.51.71-.63,1.13-.22.76-.27,1.54-.21,2.33.04.48.13.96.4,1.39.22.34.8.57,1.21.32.2-.12.39-.25.52-.45.24-.36.39-.75.4-1.18.01-.59,0-1.18,0-1.78Z"/>
  <path class="cls-1" d="M71.43,24.66c0,.17,0,.31,0,.45,0,1.74-.02,3.48.01,5.23.02.92.08,1.85.3,2.75.01.06.02.12.03.2-.55.07-1.06,0-1.52-.3-.45-.3-.66-.76-.72-1.38-.09.13-.14.17-.15.22-.11.4-.35.72-.6,1.02-.26.33-.64.51-1.05.6-.83.18-1.56-.08-2.16-.65-.49-.47-.79-1.07-.96-1.73-.2-.77-.2-1.56-.14-2.34.06-.73.26-1.43.6-2.1.31-.61.74-1.09,1.29-1.45.56-.38,1.19-.57,1.88-.64.88-.09,1.75.07,2.62.03.17,0,.35.05.58.09ZM69.19,28.3h0c0-.5,0-1.01,0-1.51,0-.14,0-.28,0-.43-.01-.2-.12-.31-.31-.33-.44-.05-.86.08-1.2.33-.34.25-.6.6-.73,1.02-.14.44-.22.89-.27,1.36-.06.59-.08,1.18.04,1.76.08.39.19.78.51,1.06.19.17.42.28.67.24.35-.06.66-.23.86-.54.26-.41.44-.84.43-1.34-.01-.54,0-1.08,0-1.63Z"/>
  <path class="cls-1" d="M32.11,33.28c-.55.08-1.02.02-1.45-.27-.43-.29-.58-.76-.76-1.28-.08.13-.14.2-.19.28-.36.62-.87,1.08-1.55,1.32-.65.23-1.3.18-1.91-.14-.42-.22-.73-.57-.95-.99-.22-.44-.37-.91-.42-1.39-.05-.43-.07-.87-.07-1.31,0-1.35,0-2.71,0-4.06,0-.24.03-.46.18-.65.18-.22.43-.28.68-.3.37-.02.75-.01,1.12,0,.21,0,.23.04.21.26-.01.11-.02.23-.02.35,0,1.16,0,2.32,0,3.48,0,.58.03,1.16.07,1.73.02.25.08.51.19.74.29.66,1.12.99,1.77.34.25-.25.39-.55.48-.87.11-.37.19-.74.19-1.14,0-1.29,0-2.58,0-3.87,0-.21.04-.41.15-.59.16-.27.4-.44.72-.45.37-.01.75,0,1.12,0,.2,0,.24.05.25.26,0,.09,0,.18,0,.27,0,2.27,0,4.54,0,6.81,0,.34.07.69.12,1.03.01.13.03.25.05.41Z"/>
  <path class="cls-1" d="M56.49,33.31c0-.19,0-.32,0-.45,0-1.42,0-2.84,0-4.26,0-.19.02-.39.08-.57.37-1.09.75-2.19,1.12-3.28.1-.29.12-.3.42-.23.43.09.58.27.6.71,0,.15,0,.3.06.46.05-.07.1-.14.15-.21.4-.59.96-.9,1.65-1.01.69-.11,1.33.05,1.91.4.45.27.78.67.95,1.18.1.31.17.62.17.94,0,1.21-.02,2.42,0,3.64,0,.51.08,1.02.13,1.53.03.37.07.73.11,1.14-.55,0-1.03-.1-1.45-.39-.39-.27-.64-.64-.81-1.09-.11-.3-.13-.59-.16-.9-.11-1.09-.03-2.19-.07-3.28-.01-.34-.07-.66-.21-.97-.13-.29-.33-.46-.63-.52-.31-.07-.62-.09-.94.05-.56.24-.69.74-.77,1.25-.07.42-.08.84-.09,1.27-.01,1.34,0,2.68,0,4.02,0,.09,0,.18,0,.27-.02.18-.11.28-.3.29-.63,0-1.26,0-1.93,0Z"/>
  <path class="cls-1" d="M23.65,27.31c0,1.6,0,3.2,0,4.8,0,.68-.03,1.36-.15,2.03-.08.46-.23.9-.49,1.29-.26.38-.61.67-1.05.81-.47.16-.96.25-1.47.18-.32-.04-.64-.04-.96-.09-.24-.04-.48-.1-.71-.17-.33-.12-.49-.4-.59-.72-.03-.12.02-.2.16-.19.14,0,.28,0,.43.01.44.02.87.06,1.31.06.45,0,.76-.26.93-.64.16-.35.24-.73.28-1.11.1-.81.05-1.62.05-2.43.01-2.23,0-4.46,0-6.69,0-.55.08-1.07.33-1.57.37-.7.96-1.12,1.68-1.41.16-.06.23,0,.24.18,0,.09,0,.18,0,.27,0,1.79,0,3.58,0,5.38Z"/>
  <g>
    <path class="cls-1" d="M48.12,35.26c.41.08.76.17,1.12.2.66.07,1.23-.11,1.59-.72.12-.21.23-.43.32-.66.12-.27.21-.55.32-.83.1-.25.1-.27-.13-.44-.42-.3-.81-.63-1.06-1.1-.19-.37-.28-.77-.37-1.17-.2-.9-.39-1.81-.58-2.71-.22-1.03-.44-2.05-.66-3.08-.02-.07,0-.15,0-.25.57-.05,1.13-.07,1.66.09.31.09.56.33.66.66.12.39.21.79.3,1.19.16.74.31,1.48.47,2.22.15.7.31,1.4.47,2.1.01.06.04.12.08.24.07-.13.12-.21.15-.3.18-.52.35-1.05.53-1.57.25-.74.49-1.49.74-2.23.3-.9.6-1.8.91-2.7.13-.39.29-.77.44-1.15.2-.51.59-.84,1.08-1.04.49-.2,1-.31,1.59-.22-.09.25-.16.47-.24.7-.38,1.12-.76,2.24-1.15,3.35-.33.95-.66,1.89-.99,2.84-.36,1.05-.7,2.1-1.05,3.14-.25.73-.5,1.46-.78,2.18-.21.55-.51,1.07-.89,1.53-.32.39-.76.62-1.24.76-.83.25-1.67.24-2.5-.05-.46-.16-.69-.49-.78-.99Z"/>
    <path class="cls-1" d="M33.18,21.45c.12.03.26.05.39.09.54.17,1.03.42,1.38.88.35.46.42,1.01.37,1.57,0,.1-.05.21-.03.3.08.36.05.71.01,1.11.08-.05.15-.07.2-.11.32-.33.69-.57,1.12-.72.34-.12.69-.19,1.05-.12.23.05.46.06.68.1.46.08.83.33,1.16.65.35.33.54.76.63,1.22.06.29.07.59.08.88,0,1.08,0,2.17,0,3.25,0,.84.07,1.67.23,2.49,0,.05,0,.1,0,.15,0,.02-.02.05-.03.07-.9.19-2-.28-2.24-1.37-.12-.53-.19-1.06-.19-1.6,0-.85.05-1.7.05-2.55,0-.38-.04-.76-.25-1.11-.18-.31-.45-.46-.77-.52-.35-.07-.7,0-1.01.18-.23.14-.34.38-.43.62-.15.4-.23.82-.23,1.24,0,1.3,0,2.61-.01,3.91,0,.31,0,.61,0,.92,0,.2-.1.3-.31.31-.26.01-.52,0-.77,0-.36,0-.72,0-1.07,0-.03-.03-.03-.04-.04-.04,0,0-.02-.02-.02-.03,0-3.84-.01-7.69-.01-11.53,0-.05,0-.1.01-.15,0-.02.03-.04.06-.09Z"/>
    <path class="cls-1" d="M48.04,24.66c0,.14,0,.27,0,.4,0,1.78-.02,3.56.02,5.34.02.96.07,1.92.35,2.85-.29.1-.7.08-1.05-.02-.36-.11-.64-.31-.87-.61-.23-.29-.26-.65-.38-.99-.18.34-.34.66-.5.97-.16.32-.43.51-.73.66-1.06.54-2.31.11-2.93-.71-.45-.6-.71-1.24-.81-1.97-.16-1.18-.12-2.33.31-3.45.41-1.07,1.12-1.86,2.19-2.3.39-.16.8-.24,1.23-.28.88-.08,1.74.06,2.62.03.16,0,.33.05.55.09ZM45.8,28.28h0c0-.62,0-1.24,0-1.85,0-.29-.11-.4-.4-.39-.49,0-.93.15-1.3.5-.33.31-.51.71-.63,1.13-.22.76-.27,1.54-.21,2.33.04.48.13.96.4,1.39.22.34.8.57,1.21.32.2-.12.39-.25.52-.45.24-.36.39-.75.4-1.18.01-.59,0-1.18,0-1.78Z"/>
    <path class="cls-1" d="M71.43,24.66c0,.17,0,.31,0,.45,0,1.74-.02,3.48.01,5.23.02.92.08,1.85.3,2.75.01.06.02.12.03.2-.55.07-1.06,0-1.52-.3-.45-.3-.66-.76-.72-1.38-.09.13-.14.17-.15.22-.11.4-.35.72-.6,1.02-.26.33-.64.51-1.05.6-.83.18-1.56-.08-2.16-.65-.49-.47-.79-1.07-.96-1.73-.2-.77-.2-1.56-.14-2.34.06-.73.26-1.43.6-2.1.31-.61.74-1.09,1.29-1.45.56-.38,1.19-.57,1.88-.64.88-.09,1.75.07,2.62.03.17,0,.35.05.58.09ZM69.19,28.3h0c0-.5,0-1.01,0-1.51,0-.14,0-.28,0-.43-.01-.2-.12-.31-.31-.33-.44-.05-.86.08-1.2.33-.34.25-.6.6-.73,1.02-.14.44-.22.89-.27,1.36-.06.59-.08,1.18.04,1.76.08.39.19.78.51,1.06.19.17.42.28.67.24.35-.06.66-.23.86-.54.26-.41.44-.84.43-1.34-.01-.54,0-1.08,0-1.63Z"/>
    <path class="cls-1" d="M32.11,33.28c-.55.08-1.02.02-1.45-.27-.43-.29-.58-.76-.76-1.28-.08.13-.14.2-.19.28-.36.62-.87,1.08-1.55,1.32-.65.23-1.3.18-1.91-.14-.42-.22-.73-.57-.95-.99-.22-.44-.37-.91-.42-1.39-.05-.43-.07-.87-.07-1.31,0-1.35,0-2.71,0-4.06,0-.24.03-.46.18-.65.18-.22.43-.28.68-.3.37-.02.75-.01,1.12,0,.21,0,.23.04.21.26-.01.11-.02.23-.02.35,0,1.16,0,2.32,0,3.48,0,.58.03,1.16.07,1.73.02.25.08.51.19.74.29.66,1.12.99,1.77.34.25-.25.39-.55.48-.87.11-.37.19-.74.19-1.14,0-1.29,0-2.58,0-3.87,0-.21.04-.41.15-.59.16-.27.4-.44.72-.45.37-.01.75,0,1.12,0,.2,0,.24.05.25.26,0,.09,0,.18,0,.27,0,2.27,0,4.54,0,6.81,0,.34.07.69.12,1.03.01.13.03.25.05.41Z"/>
    <path class="cls-1" d="M56.49,33.31c0-.19,0-.32,0-.45,0-1.42,0-2.84,0-4.26,0-.19.02-.39.08-.57.37-1.09.75-2.19,1.12-3.28.1-.29.12-.3.42-.23.43.09.58.27.6.71,0,.15,0,.3.06.46.05-.07.1-.14.15-.21.4-.59.96-.9,1.65-1.01.69-.11,1.33.05,1.91.4.45.27.78.67.95,1.18.1.31.17.62.17.94,0,1.21-.02,2.42,0,3.64,0,.51.08,1.02.13,1.53.03.37.07.73.11,1.14-.55,0-1.03-.1-1.45-.39-.39-.27-.64-.64-.81-1.09-.11-.3-.13-.59-.16-.9-.11-1.09-.03-2.19-.07-3.28-.01-.34-.07-.66-.21-.97-.13-.29-.33-.46-.63-.52-.31-.07-.62-.09-.94.05-.56.24-.69.74-.77,1.25-.07.42-.08.84-.09,1.27-.01,1.34,0,2.68,0,4.02,0,.09,0,.18,0,.27-.02.18-.11.28-.3.29-.63,0-1.26,0-1.93,0Z"/>
    <path class="cls-1" d="M23.65,27.31c0,1.6,0,3.2,0,4.8,0,.68-.03,1.36-.15,2.03-.08.46-.23.9-.49,1.29-.26.38-.61.67-1.05.81-.47.16-.96.25-1.47.18-.32-.04-.64-.04-.96-.09-.24-.04-.48-.1-.71-.17-.33-.12-.49-.4-.59-.72-.03-.12.02-.2.16-.19.14,0,.28,0,.43.01.44.02.87.06,1.31.06.45,0,.76-.26.93-.64.16-.35.24-.73.28-1.11.1-.81.05-1.62.05-2.43.01-2.23,0-4.46,0-6.69,0-.55.08-1.07.33-1.57.37-.7.96-1.12,1.68-1.41.16-.06.23,0,.24.18,0,.09,0,.18,0,.27,0,1.79,0,3.58,0,5.38Z"/>
  </g>
</svg>