<?xml version="1.0" encoding="UTF-8"?>
<svg id="Layer_1" data-name="Layer 1" xmlns="http://www.w3.org/2000/svg" viewBox="0 0 90 45">
  <defs>
    <style>
      .cls-1 {
        fill: #fff;
      }
    </style>
  </defs>
  <g>
    <path class="cls-1" d="M1.41,22.21c.24,0,.46-.04.64-.11.19-.08.35-.18.48-.32.13-.14.23-.3.3-.5.07-.19.1-.41.1-.65,0-.3-.07-.59-.19-.86-.13-.27-.35-.56-.65-.86l-.2-.19h-.9l-.22.24c-.59.61-.89,1.21-.89,1.8,0,.43.13.79.4,1.06.27.27.64.4,1.13.4ZM.66,20.22c.08-.13.2-.28.37-.47l.28-.31h.05l.33.31c.22.2.38.37.46.51.09.14.13.27.13.4,0,.19-.07.34-.22.46-.14.12-.34.18-.57.18h-.16c-.24,0-.43-.07-.57-.2-.14-.13-.22-.29-.22-.48,0-.14.04-.28.12-.41Z"/>
    <path class="cls-1" d="M6.17,23.77c.12,0,.22-.04.29-.11.07-.08.11-.19.11-.34s-.04-.27-.11-.35c-.07-.07-.17-.11-.29-.11h-.12c-.12,0-.22.04-.29.11-.07.07-.11.19-.11.35s.04.27.11.34c.07.07.17.11.29.11h.12Z"/>
    <path class="cls-1" d="M7.69,23.32c0-.16-.04-.27-.11-.35-.07-.07-.17-.11-.29-.11h-.12c-.12,0-.22.04-.29.11-.07.07-.11.19-.11.35s.04.27.11.34c.07.07.17.11.29.11h.12c.12,0,.22-.04.29-.11.07-.07.11-.19.11-.34Z"/>
    <path class="cls-1" d="M15.81,20.6c0,.22-.05.38-.14.48-.09.1-.25.15-.49.15h-.55c-.42,0-.63-.21-.63-.63v-4.36h-.74v4.36c0,.42-.22.63-.66.63h-.43c-.09,0-.17,0-.23-.03-.06-.02-.12-.05-.17-.09-.05-.04-.1-.1-.14-.18-.04-.08-.08-.17-.13-.29l-.59-1.6h-.8l-.43.27c-.38.24-.66.48-.84.73-.19.25-.28.52-.28.82,0,.1,0,.19.02.28-.07.04-.16.06-.26.07-.1.01-.23.02-.39.02h-.3c-.41,0-.62-.21-.62-.63v-1.21h-.69v1.21c0,.42-.22.63-.66.63h-.52c-.24,0-.41-.04-.51-.12-.1-.08-.15-.23-.15-.45v-4.42h-.74v4.49c0,.5.11.86.34,1.08.23.22.6.32,1.12.32h.01s0,0,0,0c.35,0,.62-.07.79-.21.17-.14.29-.37.35-.7h.05c.07.31.21.54.42.69.21.15.52.22.91.22h0s0,0,0,0c.24,0,.42-.06.56-.17.14-.11.24-.29.32-.53h.05c.1.22.26.39.49.51.22.12.51.18.87.18h.97v-.58h.05c.13.21.27.36.44.45.17.09.4.13.69.13.35,0,.61-.07.78-.21.17-.14.29-.37.35-.7h.05c.07.31.21.54.44.69.22.15.53.22.93.22h.47c.49,0,.84-.12,1.05-.37.21-.25.32-.63.32-1.16v-4.36h-.74v4.36ZM9.9,21.23c-.24,0-.42-.04-.55-.11-.13-.07-.19-.19-.19-.35,0-.14.07-.27.2-.39.13-.12.31-.23.52-.34l.47-.24.42,1.13c.02.05.04.1.05.15.02.05.03.09.05.14h-.99Z"/>
    <path class="cls-1" d="M20.54,17.34h.12c.12,0,.22-.04.29-.11.07-.07.11-.19.11-.34s-.04-.27-.11-.35c-.07-.07-.17-.11-.29-.11h-.12c-.12,0-.22.04-.29.11-.07.07-.11.19-.11.35s.04.27.11.34c.07.08.17.11.29.11Z"/>
    <path class="cls-1" d="M21.65,17.34h.12c.12,0,.22-.04.29-.11.07-.07.11-.19.11-.34s-.04-.27-.11-.35c-.07-.07-.17-.11-.29-.11h-.12c-.12,0-.22.04-.29.11s-.11.19-.11.35.04.27.11.34c.07.08.17.11.29.11Z"/>
    <path class="cls-1" d="M20.3,21.64c.27,0,.5-.06.67-.19.17-.13.29-.34.37-.64h.04v.1c0,.42.1.73.31.93.21.2.55.3,1.03.3h.36c.56,0,.97-.12,1.24-.36.27-.24.4-.61.4-1.11,0-.24-.03-.58-.09-1l-.1-.69-.69.11.13.69c.04.23.06.41.08.55.01.14.02.25.02.34,0,.22-.07.37-.22.45-.15.08-.4.12-.76.12h-.43c-.21,0-.36-.04-.45-.11-.09-.07-.14-.2-.14-.39v-2.74h-.72v.42l-.84.45c-.23.12-.42.24-.59.36-.17.12-.3.25-.42.38-.11.13-.19.27-.25.43-.05.15-.08.32-.08.5,0,.36.1.63.29.83.19.19.47.29.84.29ZM20.01,19.88c.13-.11.33-.25.62-.39l.71-.37v1.07c0,.2-.06.34-.19.42-.13.08-.35.12-.67.12-.24,0-.41-.03-.51-.1-.1-.07-.15-.18-.15-.33,0-.17.06-.31.19-.42Z"/>
    <path class="cls-1" d="M24.56,23.77h.12c.12,0,.22-.04.29-.11.07-.08.11-.19.11-.34s-.04-.27-.11-.35c-.07-.07-.17-.11-.29-.11h-.12c-.12,0-.22.04-.29.11-.07.07-.11.19-.11.35s.04.27.11.34c.07.08.17.11.29.11Z"/>
    <path class="cls-1" d="M23.56,22.87h-.12c-.12,0-.22.04-.29.11-.07.07-.11.19-.11.35s.04.27.11.34c.07.07.17.11.29.11h.12c.12,0,.22-.04.29-.11.07-.08.11-.19.11-.34s-.04-.27-.11-.35c-.07-.07-.17-.11-.29-.11Z"/>
    <path class="cls-1" d="M26.13,22.13h1.03c.45,0,.8-.12,1.05-.37.25-.25.37-.59.37-1.03,0-.18-.02-.34-.05-.49-.03-.15-.09-.3-.16-.45-.07-.15-.17-.31-.29-.47s-.26-.34-.44-.52l-.73-.8-.64.65.81.84c.3.29.5.52.63.7.12.18.18.35.18.51s-.05.28-.14.38-.26.15-.51.15h-1.27v-.57h-.7v.58c0,.3.08.52.23.67.16.14.37.22.64.22Z"/>
    <path class="cls-1" d="M42.9,22.12h0s.47,0,.47,0c.49,0,.84-.12,1.05-.37.21-.25.32-.63.32-1.16v-4.36h-.74v4.36c0,.22-.05.38-.14.48-.09.1-.25.15-.49.15h-.58c-.41,0-.62-.21-.62-.63v-.89h-.69v.9c0,.26-.04.45-.12.56-.08.11-.2.16-.37.16h-.14c-.18,0-.3-.05-.38-.16-.07-.11-.11-.29-.11-.56v-.58h-.69v.57c0,.27-.05.46-.17.57-.11.11-.29.16-.52.16-.15,0-.3-.02-.45-.06-.14-.04-.3-.1-.46-.19l-.05-.03.36-.71-.59-.3-.33.66c-.05.11-.1.19-.16.26-.05.07-.11.13-.17.17-.06.04-.14.07-.22.09-.08.02-.18.02-.29.02h-1.34v-.02c.15-.13.28-.24.39-.34.11-.1.2-.19.26-.29.07-.1.12-.2.15-.3.03-.11.05-.23.05-.37,0-.4-.14-.7-.41-.91-.27-.21-.68-.31-1.22-.31-.27,0-.54.03-.82.1-.28.07-.54.16-.78.28v.92l.97,1.21v.03h-1.66c-.01-.72-.15-1.27-.41-1.67-.26-.4-.62-.6-1.09-.6-.22,0-.42.05-.61.14-.18.1-.34.22-.48.39-.13.16-.24.35-.32.58-.08.22-.12.46-.12.72,0,.43.12.76.35,1,.23.23.57.35.99.35h.95c-.1.32-.31.57-.62.74-.31.18-.74.27-1.3.27h-.46v.9h.49c.71,0,1.27-.17,1.69-.5.42-.33.69-.8.83-1.41h1.08c.24,0,.47-.03.7-.09.23-.06.44-.16.64-.3.2.14.42.24.67.3.24.06.48.09.73.09h.33c.31,0,.57-.03.77-.08.2-.05.38-.16.54-.33l.21.13c.22.13.41.23.57.29.16.06.32.09.47.09.5,0,.79-.31.88-.93h.05c.1.62.42.93.96.93.25,0,.45-.07.59-.22.14-.14.23-.38.26-.72h.04c.07.29.21.5.42.63.2.14.49.2.86.2h0ZM31.57,21.23h-.98c-.24,0-.42-.04-.54-.13-.12-.09-.18-.23-.18-.43,0-.24.07-.44.21-.58.14-.15.34-.22.58-.22.27,0,.49.11.66.33.17.22.25.52.25.88v.15ZM34.88,20.84l-.25.22-1.08-1.3v-.03c.33-.09.65-.14.97-.14.66,0,.99.16.99.48,0,.14-.05.26-.16.36-.1.1-.26.24-.47.42Z"/>
    <path class="cls-1" d="M46.57,16.23h-.74v5.89h.74v-5.89Z"/>
    <path class="cls-1" d="M50.56,17.34h.12c.12,0,.22-.04.29-.11.07-.07.11-.19.11-.34s-.04-.27-.11-.35c-.07-.07-.17-.11-.29-.11h-.12c-.12,0-.22.04-.29.11-.07.07-.11.19-.11.35s.04.27.11.34c.07.08.17.11.29.11Z"/>
    <path class="cls-1" d="M51.67,17.34h.12c.12,0,.22-.04.29-.11.07-.07.11-.19.11-.34s-.04-.27-.11-.35c-.07-.07-.17-.11-.29-.11h-.12c-.12,0-.22.04-.29.11-.07.07-.11.19-.11.35s.04.27.11.34c.07.08.17.11.29.11Z"/>
    <path class="cls-1" d="M55.05,18.15h-.55c-.37,0-.55-.11-.55-.32,0-.07.03-.13.09-.17.06-.04.13-.07.23-.07.14,0,.27.06.4.18l.33-.43c-.08-.11-.19-.19-.33-.25-.13-.06-.27-.09-.4-.09-.23,0-.41.07-.56.21-.15.14-.22.32-.22.53,0,.17.05.3.15.41v.04h-.32v.55h1.73v-.6Z"/>
    <path class="cls-1" d="M57.33,22.87h-.12c-.12,0-.22.04-.29.11-.07.07-.11.19-.11.35s.04.27.11.34c.07.07.17.11.29.11h.12c.12,0,.22-.04.29-.11.07-.08.11-.19.11-.34s-.04-.27-.11-.35c-.07-.07-.17-.11-.29-.11Z"/>
    <path class="cls-1" d="M56.09,23.77h.12c.12,0,.22-.04.29-.11.07-.08.11-.19.11-.34s-.04-.27-.11-.35c-.07-.07-.17-.11-.29-.11h-.12c-.12,0-.22.04-.29.11-.07.07-.11.19-.11.35s.04.27.11.34c.07.08.17.11.29.11Z"/>
    <path class="cls-1" d="M61.04,22.13h1.07c.49,0,.84-.12,1.05-.37.21-.25.32-.63.32-1.16v-4.36h-.74v4.36c0,.22-.05.38-.14.48-.09.1-.25.15-.49.15h-.91c-.18,0-.33.04-.43.13-.1.09-.2.25-.29.48l-.65,1.61c-.1-.16-.19-.3-.26-.42-.07-.12-.13-.23-.17-.34-.04-.1-.07-.2-.09-.28-.02-.09-.03-.17-.03-.26s0-.17.02-.26c.01-.09.04-.17.07-.27.03-.09.07-.19.12-.31.05-.11.1-.24.17-.37l.3-.61-.59-.3-.33.66c-.1.2-.21.34-.34.42-.12.08-.29.12-.51.12h-.53c-.41,0-.62-.21-.62-.63v-1.21h-.69v1.21c0,.42-.22.63-.66.63h-.56c-.41,0-.62-.21-.62-.63v-1.21h-.69v1.21c0,.42-.22.63-.66.63h-.52c-.21,0-.36-.04-.45-.11-.09-.07-.14-.2-.14-.39v-2.74h-.72v.42l-.84.45c-.23.12-.42.24-.59.36-.17.12-.3.25-.42.38-.11.13-.19.27-.25.43-.05.15-.08.32-.08.5,0,.36.1.63.29.83.2.2.47.29.84.29.27,0,.5-.06.66-.19.17-.13.29-.34.37-.64h.04v.1c0,.42.1.73.31.93.21.2.55.3,1.03.3.35,0,.62-.07.79-.21.17-.14.29-.37.35-.7h.05c.07.31.21.54.42.69.21.15.52.22.91.22h0s0,0,0,0c.35,0,.62-.07.79-.21.17-.14.29-.37.35-.7h.05c.07.31.21.54.42.69.21.15.52.22.91.22h0s0,0,0,0c.31,0,.55-.02.7-.07.16-.05.29-.12.39-.22l.04.02c-.08.12-.16.26-.22.41-.06.15-.09.32-.09.49,0,.1.01.19.03.27.02.09.06.19.12.3.05.11.13.24.22.39.09.15.21.34.35.55h.87l.84-2.15ZM51.35,20.2c0,.2-.06.34-.19.42-.13.08-.35.12-.67.12-.24,0-.41-.03-.51-.1-.1-.07-.15-.18-.15-.33,0-.17.06-.3.19-.42.13-.11.33-.25.62-.39l.71-.37v1.07h0Z"/>
    <path class="cls-1" d="M65.3,16.23h-.74v5.89h.74v-5.89Z"/>
    <path class="cls-1" d="M1.89,27.75l-.42-.08c-.22-.04-.38-.1-.47-.18-.1-.08-.15-.21-.15-.38s.06-.29.18-.39c.12-.09.3-.14.55-.14s.44.04.6.13c.16.09.29.2.4.33l.58-.55c-.18-.22-.39-.38-.65-.5-.25-.11-.55-.17-.88-.17-.25,0-.48.03-.68.09-.2.06-.37.15-.51.27-.14.12-.25.26-.32.42-.08.16-.11.35-.11.55,0,.73.45,1.17,1.34,1.31l.42.06c.23.04.39.11.48.2.09.09.13.22.13.36,0,.19-.07.35-.2.46-.13.11-.33.17-.59.17-.23,0-.44-.05-.63-.14-.19-.09-.36-.23-.52-.41l-.57.56c.19.22.42.4.69.54.27.14.59.21.98.21.27,0,.51-.03.71-.1.21-.07.38-.17.53-.29s.25-.28.33-.45c.08-.17.11-.37.11-.58,0-.37-.11-.67-.32-.87-.21-.21-.55-.35-1-.44Z"/>
    <path class="cls-1" d="M6.6,28.17c0-.39-.12-.68-.35-.89-.23-.21-.58-.31-1.03-.31-.34,0-.61.06-.81.18-.21.12-.37.28-.49.47l.49.44c.08-.12.18-.22.3-.3.12-.08.27-.13.46-.13.22,0,.38.05.47.15.1.1.15.25.15.44v.24h-.57c-.46,0-.81.08-1.06.25-.25.17-.37.43-.37.77,0,.3.09.54.27.72.18.18.45.27.79.27.25,0,.46-.05.63-.17.17-.11.28-.27.34-.49h.04c.03.18.09.32.2.42.1.1.25.16.43.16h.46v-.66h-.33v-1.58h0ZM5.78,29.41c0,.16-.06.28-.19.36s-.28.12-.47.12c-.16,0-.29-.03-.38-.1-.09-.07-.13-.17-.13-.3v-.11c0-.27.21-.41.64-.41h.53v.44Z"/>
    <path class="cls-1" d="M9.59,29.27c0,.09-.02.17-.06.24s-.09.12-.15.17c-.06.05-.13.08-.21.1-.08.02-.16.03-.24.03-.2,0-.34-.06-.43-.18-.09-.12-.13-.3-.13-.53v-2.05h-.82v2.13c0,.42.09.75.27.97.18.23.45.34.8.34.14,0,.26-.02.36-.05.1-.03.19-.08.27-.14.08-.06.14-.13.19-.2.05-.08.09-.16.12-.24h.03v.56h.82v-3.36h-.82v2.23h0Z"/>
    <path class="cls-1" d="M13.44,27.61h-.03c-.06-.19-.17-.35-.34-.46-.17-.11-.36-.17-.58-.17-.42,0-.75.15-.97.45-.22.3-.34.74-.34,1.3s.11,1,.34,1.31c.22.31.55.46.97.46.22,0,.42-.06.58-.17.17-.12.28-.27.34-.46h.03v.56h.82v-4.77h-.82v1.96ZM13.44,29.26c0,.18-.07.31-.2.41-.13.09-.3.14-.49.14-.21,0-.39-.07-.52-.21-.13-.14-.2-.33-.2-.57v-.58c0-.24.07-.43.2-.58.13-.14.3-.22.52-.22.2,0,.36.05.49.15s.2.23.2.39v1.07Z"/>
    <path class="cls-1" d="M15.62,25.61c-.17,0-.29.04-.37.12-.08.08-.11.18-.11.3v.13c0,.12.04.22.11.3.08.08.2.12.37.12s.29-.04.37-.12c.08-.08.12-.18.12-.3v-.13c0-.12-.04-.22-.12-.3-.08-.08-.2-.12-.37-.12Z"/>
    <path class="cls-1" d="M16.03,27.05h-.82v3.37h.82v-3.37Z"/>
    <path class="cls-1" d="M22.66,28.08l-.28,1.38h-.02l-.31-1.38-.51-2.16h-.94l-.51,2.16-.32,1.38h-.02l-.28-1.38-.44-2.16h-.85l1.04,4.5h.96l.57-2.38.29-1.19h.01l.28,1.19.57,2.38h.95l1.07-4.5h-.81l-.46,2.16Z"/>
    <path class="cls-1" d="M27,28.17c0-.39-.12-.68-.35-.89-.23-.21-.58-.31-1.03-.31-.34,0-.61.06-.81.18-.21.12-.37.28-.49.47l.49.44c.08-.12.18-.22.3-.3.12-.08.27-.13.46-.13.22,0,.38.05.47.15.1.1.15.25.15.44v.24h-.57c-.46,0-.81.08-1.06.25-.25.17-.37.43-.37.77,0,.3.09.54.27.72.18.18.45.27.79.27.25,0,.46-.05.63-.17.17-.11.28-.27.34-.49h.04c.03.18.09.32.2.42.1.1.25.16.43.16h.46v-.66h-.33v-1.58ZM26.18,29.41c0,.16-.06.28-.19.36s-.28.12-.47.12c-.16,0-.29-.03-.38-.1-.09-.07-.13-.17-.13-.3v-.11c0-.27.21-.41.64-.41h.53v.44h0Z"/>
    <path class="cls-1" d="M28.97,26.13h-.74v.57c0,.12-.02.2-.07.26-.04.06-.13.09-.25.09h-.26v.66h.49v1.85c0,.27.07.49.22.63s.36.22.64.22h.59v-.66h-.63v-2.04h.69v-.66h-.69v-.92h0Z"/>
    <path class="cls-1" d="M32.82,27.48c-.12-.15-.28-.28-.47-.37-.19-.09-.42-.14-.68-.14-.24,0-.46.04-.65.13-.19.08-.35.2-.49.36-.13.15-.23.34-.3.55-.07.22-.11.46-.11.72s.04.51.11.73c.07.22.18.4.31.55.13.15.3.27.49.35.2.08.42.13.66.13.31,0,.59-.05.82-.17.24-.11.42-.26.56-.46l-.44-.5c-.1.13-.22.24-.35.33-.13.09-.3.13-.5.13-.27,0-.47-.07-.61-.22-.14-.15-.21-.34-.21-.59v-.08h2.22v-.27c0-.23-.03-.45-.09-.65-.06-.2-.15-.38-.28-.54ZM32.34,28.43h-1.37v-.05c0-.23.06-.42.19-.57.13-.15.3-.22.52-.22s.38.07.49.22c.11.14.17.33.17.56v.06Z"/>
    <path class="cls-1" d="M35.3,27.11c-.1.04-.19.09-.26.15-.07.06-.13.14-.18.22-.04.08-.08.17-.1.26h-.03v-.7h-.82v3.37h.82v-2.06c0-.18.07-.32.21-.4.14-.08.35-.12.63-.12h.26v-.78h-.18c-.13,0-.25.02-.35.06Z"/>
    <path class="cls-1" d="M39.11,25.92l-1.5,4.5h.86l.35-1.15h1.59l.36,1.15h.88l-1.49-4.5h-1.05ZM39.02,28.54l.57-1.85h.03l.58,1.85h-1.18Z"/>
    <path class="cls-1" d="M44.25,29.27c0,.09-.02.17-.06.24-.04.07-.09.12-.15.17-.06.05-.13.08-.21.1-.08.02-.16.03-.24.03-.2,0-.34-.06-.43-.18-.09-.12-.13-.3-.13-.53v-2.05h-.82v2.13c0,.42.09.75.27.97.18.23.45.34.8.34.14,0,.26-.02.36-.05.1-.03.19-.08.27-.14.08-.06.14-.13.19-.2.05-.08.09-.16.12-.24h.03v.56h.82v-3.36h-.82v2.23h0Z"/>
    <path class="cls-1" d="M47.02,26.13h-.74v.57c0,.12-.02.2-.07.26-.04.06-.13.09-.25.09h-.26v.66h.49v1.85c0,.27.07.49.22.63.15.15.36.22.64.22h.59v-.66h-.63v-2.04h.69v-.66h-.69v-.92h0Z"/>
    <path class="cls-1" d="M50.2,26.97c-.26,0-.46.06-.61.18-.15.12-.26.27-.32.45h-.03v-1.97h-.82v4.77h.82v-2.23c0-.09.02-.17.06-.24.04-.07.09-.12.15-.17.06-.05.13-.08.21-.1.08-.02.16-.04.25-.04.2,0,.34.06.42.18.09.12.13.3.13.54v2.04h.82v-2.12c0-.42-.09-.75-.27-.97-.18-.23-.45-.34-.8-.34Z"/>
    <path class="cls-1" d="M54.65,27.45c-.13-.15-.3-.27-.49-.35-.19-.08-.41-.12-.65-.12s-.45.04-.64.12c-.19.08-.35.2-.49.35-.13.15-.24.34-.31.55-.07.22-.11.46-.11.73s.04.51.11.73c.07.22.18.4.31.56.13.15.3.27.49.35.19.08.4.12.64.12s.46-.04.65-.12c.19-.08.36-.2.49-.35.13-.15.24-.34.31-.56.07-.22.11-.46.11-.73s-.04-.51-.11-.73c-.07-.21-.18-.4-.31-.55ZM54.21,29.04c0,.26-.06.45-.19.59-.12.13-.29.2-.51.2s-.38-.07-.51-.2c-.12-.13-.19-.33-.19-.59v-.63c0-.25.06-.45.19-.58.12-.13.29-.2.51-.2s.39.07.51.2c.12.13.19.33.19.58v.63Z"/>
    <path class="cls-1" d="M57.18,27.11c-.1.04-.19.09-.26.15-.07.06-.13.14-.18.22-.04.08-.08.17-.1.26h-.03v-.7h-.82v3.37h.82v-2.06c0-.18.07-.32.21-.4.14-.08.35-.12.63-.12h.26v-.78h-.18c-.13,0-.25.02-.35.06Z"/>
    <path class="cls-1" d="M58.72,25.61c-.17,0-.29.04-.37.12-.08.08-.11.18-.11.3v.13c0,.12.04.22.11.3.08.08.2.12.37.12s.29-.04.36-.12c.08-.08.12-.18.12-.3v-.13c0-.12-.04-.22-.12-.3-.08-.08-.2-.12-.36-.12Z"/>
    <path class="cls-1" d="M59.13,27.05h-.82v3.37h.82v-3.37Z"/>
    <path class="cls-1" d="M61.07,26.13h-.74v.57c0,.12-.02.2-.07.26-.04.06-.13.09-.25.09h-.26v.66h.49v1.85c0,.27.07.49.22.63.15.15.36.22.64.22h.59v-.66h-.63v-2.04h.69v-.66h-.69v-.92h0Z"/>
    <path class="cls-1" d="M63.94,28.83l-.23.85h-.04l-.22-.85-.58-1.78h-.81l1.2,3.52-.15.47h-.6v.66h.49c.14,0,.26-.01.36-.04.1-.03.19-.07.26-.12.07-.06.14-.13.19-.22.05-.09.1-.19.14-.31l1.35-3.97h-.77l-.59,1.78Z"/>
    <path class="cls-1" d="M80.9,31.95c-.16,0-.35-.02-.58-.05-.71-.17-1.32-.34-1.86-.53-.65-.22-1.21-.47-1.67-.73-.16-.09-.31-.18-.45-.29v.02s-.05-.04-.05-.04v.03l-.42-.39c-.58-.55-1.53-2.38-2.04-3.37-.1-.2-.18-.35-.22-.43-.3-.55-.64-1.16-1-1.78-.24-.42-.5-.85-.75-1.28-.43-.71-.82-1.34-1.18-1.87-.19-.28-.37-.54-.55-.79-.08-.11-.16-.21-.24-.31-.42-.54-.5-1.4-.23-2.43.17-.62.46-1.26.82-1.8h-.02l.3-.4c.05-.07.1-.13.16-.19.2-.22.41-.4.61-.53.15-.09.28-.18.39-.28.17-.15.19-.24.18-.3-.03-.59.37-1.09.93-1.16.31-.04.64-.04,1.02,0,.57.06,1.2.2,1.86.44,2.47.88,5.12,2.88,6.91,4.4,1.17,1,2.12,1.91,2.71,2.5.1.1.2.2.3.31h0s.18.2.18.2c.36.41.71.86,1.05,1.35.3.44.64.78,1.07,1.08l-.09.24.14-.21c.24.17.48.29.69.4.71.37,1.28.67,1.26,2.14,0,.29-.05.56-.13.8-.5,1.43-2.11,1.85-3.59,2.13h0c-.26.05-.52.1-.78.14-.97.17-1.9.33-2.61.66-.2.09-.39.22-.55.37-.16.15-.29.33-.4.53l-.16.33c-.06.13-.1.25-.14.35-.18.5-.34.71-.88.71ZM76.17,29.59l.19.16c.21.18.42.32.66.46.43.25.97.48,1.59.69.52.18,1.12.35,1.79.51.74.1.74.1.9-.34.04-.1.08-.21.13-.33l.02-.06.17-.35c.14-.26.3-.48.5-.67.2-.19.43-.35.68-.47.77-.35,1.77-.53,2.73-.7.26-.05.52-.09.77-.14h0c1.66-.32,2.84-.75,3.21-1.81.07-.19.1-.41.1-.64.01-1.16-.32-1.34-.99-1.69-.22-.11-.47-.24-.73-.43l-.06-.05c-.47-.33-.85-.71-1.19-1.2-.29-.42-.6-.82-.91-1.18l-.11-.12c-.15-.17-.3-.33-.45-.48-.58-.58-1.52-1.48-2.68-2.47-1.76-1.49-4.36-3.45-6.75-4.31-.63-.22-1.21-.36-1.74-.42-.34-.03-.64-.04-.92,0-.3.03-.51.31-.49.64.02.37-.26.62-.35.7-.12.11-.28.21-.45.32-.16.1-.33.25-.49.43l-.14.18c-.46.56-.83,1.3-1.03,2.03-.23.86-.18,1.58.14,1.99.08.1.16.21.25.32.18.25.38.52.57.8.36.54.76,1.17,1.19,1.89.26.43.51.86.75,1.29.36.63.7,1.24,1.01,1.79.04.08.12.24.23.44.41.8,1.37,2.67,1.9,3.2ZM79.78,27.4c-.24,0-.49-.03-.72-.1l-.06-.02c-.3-.07-.59-.23-.91-.51h0l-.15-.14c-.43-.44-.68-1-.73-1.61,0-.06,0-.12,0-.19,0-.21.06-.49.2-.88l.04-.11c.03-.1.07-.2.11-.32.65-1.58,2.01-3.67,2.02-3.69l.21-.31.21.31s1.12,1.72,1.82,3.22c.37.8.55,1.38.55,1.78,0,.56-.17,1.08-.5,1.53h0s-.07.09-.11.13c-.25.3-.57.54-.93.69l-.05.02s-.1.04-.15.06c-.23.08-.48.13-.73.14h0s-.1,0-.1,0ZM79.78,26.9v.17s0-.17,0-.17v.17s0-.17,0-.17h0c.23,0,.46-.04.67-.11.06-.02.11-.04.16-.06l.05-.02c.27-.13.51-.31.7-.54.03-.04.06-.07.09-.11.26-.36.41-.78.41-1.23,0-.22-.09-.67-.51-1.57-.5-1.07-1.22-2.26-1.57-2.83-.4.64-1.29,2.11-1.77,3.27-.04.1-.07.19-.1.28l-.04.12c-.07.21-.17.52-.17.72,0,.05,0,.1,0,.15.04.49.24.94.58,1.29h.15v.14c.27.23.5.36.69.39l.07.02c.18.05.36.08.55.08h.05Z"/>
  </g>
  <path class="cls-1" d="M80.35,22.93s-.07-.02-.1-.03c.02.02.03.04.05.06.04.05.08.1.11.15.08.12.15.25.21.39.06.13.1.28.14.42h0s-.22.07-.22.07l-.11.03h0c-.09-.38-.26-.7-.5-.96v1.99h0s-.1.08-.15.12h0s0,0,0,0c-.05-.04-.1-.08-.15-.12h0v-2c-.24.26-.41.58-.5.95h0s-.11-.01-.11-.01l-.21-.05h0c.04-.17.09-.31.15-.45.06-.14.13-.27.22-.39.03-.05.07-.09.1-.14.01-.02.03-.04.05-.06-.03.01-.07.02-.1.04-.26.1-.55.26-.86.48l-.03.02c.08-.17.17-.36.28-.58.14-.08.27-.14.4-.2.03-.01.06-.03.09-.04.06-.02.12-.04.18-.06-.14-.07-.28-.12-.43-.17.04-.07.07-.14.11-.21.02-.03.03-.06.05-.09.22.07.42.16.61.27,0-.14.03-.32.06-.48l.1-.45s0,0,0,0l.1.45c.03.16.06.34.06.48.19-.11.39-.2.61-.27.02.03.03.06.05.09.04.07.08.14.11.21-.15.04-.3.1-.43.17.06.02.12.04.18.06.03.01.06.02.09.04.02,0,.05.02.07.03.11.05.22.11.33.17.11.21.2.41.28.58l-.02-.02c-.31-.22-.6-.38-.86-.48Z"/>
  <path class="cls-1" d="M81.65,24.81c0,.1-.01.21-.03.3-.52-.02-.95.09-1.28.31-.02.01-.04.03-.06.04-.07.05-.14.11-.21.17-.02.01-.03.03-.05.04.3.23.64.45.98.51-.1.09-.21.17-.33.23-.32-.12-.62-.33-.89-.54-.27.21-.57.42-.89.54-.12-.06-.23-.14-.33-.23.34-.05.68-.27.98-.51-.02-.01-.03-.03-.05-.04-.08-.06-.15-.12-.21-.17-.02-.02-.04-.03-.06-.04-.33-.23-.75-.33-1.28-.31-.02-.1-.03-.2-.03-.3.6-.02,1.1.1,1.48.37.05.03.1.07.15.11.07.05.13.11.2.16,0,0,0,0,0,0,.01,0,.02.02.04.03.01,0,.02-.02.03-.03t0,0c.07-.06.14-.11.21-.16.05-.04.1-.08.15-.11.39-.27.89-.39,1.49-.36Z"/>
</svg>