<?xml version="1.0" encoding="UTF-8"?>
<svg id="Layer_1" data-name="Layer 1" xmlns="http://www.w3.org/2000/svg" viewBox="0 0 90 45">
  <defs>
    <style>
      .cls-1 {
        fill: #fff;
      }
    </style>
  </defs>
  <path class="cls-1" d="M10.22,30.82l-2.01,4.22H2.08l2.85-5.89c2.59,1.33,5.29,1.68,5.29,1.68M4.81,11.04c6.23-2.77,12.14.31,15.09,2.42l-1.13-1.35,2.2,1.06.5-2.38.54,2.38,2.18-1.1-1.53,1.9,2.22,1.01h-2.44s.59,2.36.59,2.36l-1.52-1.91-1.48,1.93.55-2.38-2.44.05,1.8-.86c-8.55-4.24-15.99-1.63-18.76,2.41-.1.15-.2.3-.29.45-.2-1.61,1.15-4.76,3.93-6M15.74,26.69l-1.81-3.85-1.76,3.77c1.2.14,2.41.15,3.56.07M6.98,24.98l4.87-9.99h4.4l10.15,20.07h-6.72l-1.9-4.04c-3.39.51-7.68.08-10.83-1.47C1.14,26.67-1.48,21.2.85,17.09l.03-.05v.05c.39,2.93,2.58,5.9,6.11,7.88M43.95,27.01l-3.78,8.05h-3.91l-4.09-8.67v8.67h-5.59V14.99h6.26l5.59,11.09,5.4-11.09h6.07v20.07h-5.93v-8.05ZM52.42,14.99h16.94v4.94h-11.01v2.79h7.06l3.15,4.84h-10.21v2.56h11.01v4.94h-16.94V14.99ZM82.76,20.22c-.21-.12-.45-.19-.69-.22-.33-.05-.93-.07-1.78-.07h-2.87v2.79h2.87c.7,0,1.82.06,2.47-.29.28-.15.5-.42.5-1.1s-.22-.96-.5-1.1M90,35.06h-6.8l-5.78-8.86v8.86h-5.92V14.99h9.22c1.46,0,2.62.09,3.47.26.92.18,1.75.5,2.48.98.86.57,1.51,1.34,1.93,2.3.38.89.57,1.84.58,2.83,0,3.03-1.54,4.99-4.32,5.83l5.15,7.87Z"/>
</svg>