<?xml version="1.0" encoding="UTF-8"?>
<svg id="Layer_1" data-name="Layer 1" xmlns="http://www.w3.org/2000/svg" viewBox="0 0 90 45">
  <defs>
    <style>
      .cls-1 {
        fill: #fff;
      }
    </style>
  </defs>
  <path class="cls-1" d="M.23,24c.04-.12.08-.23.14-.35,1.42-2.86,7.47-4.04,16.15-2.99l1.75-6.42c-8.93-1.13-15.44.14-16.53,4.21L.23,24Z"/>
  <path class="cls-1" d="M32.81,17.32c-.04.1-.07.19-.11.29-1.36,2.9-7.43,4.1-16.18,3.05l-1.75,6.42c8.93,1.13,15.44-.14,16.53-4.21l1.51-5.55Z"/>
  <path class="cls-1" d="M5.95,10.55c13.18.95,26.63,7.46,25.36,12.33l1.18-4.34c.38-1.37.56-2.08.56-2.65,0-4.96-12.99-11-25.36-11.76l-1.75,6.42Z"/>
  <g>
    <path class="cls-1" d="M27.1,30.76C13.93,29.82.47,23.3,1.75,18.44l-1.18,4.34c-.38,1.37-.56,2.08-.56,2.65,0,4.96,12.99,11,25.36,11.76l1.74-6.43Z"/>
    <path class="cls-1" d="M75.16,29.25c-1.67.02-2.56-1.04-2.56-2.92,0-.13,0-.25.01-.37h6.55c.13-.5.22-1.04.22-1.54,0-2.3-1.41-4.05-4.29-4.05s-5.56,2.9-5.56,5.95,1.91,4.7,5.09,4.7c1.41,0,2.8-.47,3.77-1.21l-.61-1.52c-.76.59-1.69.94-2.62.95h0ZM75.14,22.02c.97,0,1.47.63,1.47,2.02,0,.13,0,.27-.02.41h-3.74c.41-1.46,1.28-2.43,2.29-2.43h0Z"/>
    <path class="cls-1" d="M49.22,19.73c0-2.38-1.86-4.12-4.68-4.12h-5.45l-4.12,15.16h3.44l1.52-5.59h2.99c3.42,0,6.3-2.21,6.3-5.45ZM41.6,23.41h-1.18l1.63-6.02h1.24c1.57,0,2.45,1.06,2.45,2.47,0,2.25-1.77,3.55-4.14,3.55Z"/>
    <path class="cls-1" d="M53.71,20.66l.38-1.41c.19-.74.52-1.99.97-3.44.47-1.49,1.34-2.42,2.51-2.42.56,0,.91.26.91.69-.02.47-.41.76-.41,1.52,0,.89.76,1.58,1.73,1.58,1.21,0,2.18-.97,2.18-2.17,0-1.84-1.58-3.05-3.98-3.05-3.53,0-5.84,2.25-7.3,7.51l-5.89,21.41h3.34l5.09-18.56h3.47l-2.28,8.44h3.34l2.73-10.11h-6.79Z"/>
    <path class="cls-1" d="M70.6,20.66h-8.83l-.44,1.67h4.28l-6.64,8.44h9.35l.43-1.67h-4.81l6.65-8.44Z"/>
    <path class="cls-1" d="M88.09,20.48c-1.19,0-2.47.77-3.46,2.38l.58-2.2h-3.34l-2.73,10.11h3.34l1.24-4.55c.5-1.86,1.71-3.68,2.51-3.68.86,0,.54,1.63,2.03,1.63,1.08,0,1.73-1,1.73-1.91,0-1.06-.85-1.78-1.91-1.78Z"/>
  </g>
</svg>