<?xml version="1.0" encoding="UTF-8"?>
<svg id="Layer_1" data-name="Layer 1" xmlns="http://www.w3.org/2000/svg" viewBox="0 0 90 45">
  <defs>
    <style>
      .cls-1 {
        fill: #fff;
      }
    </style>
  </defs>
  <path class="cls-1" d="M57.25,11.49s0,0,0,0h0s0,0,0,0ZM57.49,11.31s0,0,0,0h0s0,0,0,0ZM71.03,13.83c.4-.51,1.63-1.83,1.63-1.83l.16-.1c.08-.22.16-.45.24-.67-.04-.07-.09-.18-.07-.25.01-.04.06-.08.11-.12,0,0,0,0,0,0,0,0,0,0,0,0,.1-.06.21-.05.21-.05-.03-.02-.07-.03-.11-.03.3-.86.55-1.56.57-1.6.02-.05.05-.06.07-.06s.03,0,.03,0c0,0-.12.77-.43,1.73.06.07.14.21.11.28-.02.07-.16.16-.26.19-.55,1.74-1.31,3.91-1.31,3.94l-2.55,7.95c-.39-.44-.51-.84-.51-.84l2.01-9.28,1.3-.82c-.74.59-1.21,1.57-1.21,1.57ZM69.43,22.28s1.92-7.21,2.12-7.89c-.05,0-1.33,3.61-2.12,7.89ZM60.52,14.84s0,.02,0,.02l.88-.59s1.07-.7,1.08-.72c0,0,0,0,0,0-.01,0-.12.04-.28.07-.21.05-.51.1-.79.06-.5-.07-1.05.15-1.17.16,0,0,.13.19.14.44,0,.21.1.47.13.55ZM56.06,24.42c.06-.04.12-.09.19-.14.22-.17.31-.25.33-.29.03-.05.06-.11.07-.18.03-.12.04-.25-.03-.26,0,0-.02,0-.02,0-.08,0-.05.09-.1.18-.02.04-.06.08-.1.12,0,0,0,0,0,0-.08.07-.19.14-.26.2-.06.06-.12.12-.16.19-.11.17-.05.26.09.17ZM90,26.37c0,.29-.03.47-.12.48-.19.02-.34-.12-.59-.15-.08,0-.16,0-.22,0-.07,0-.15.03-.23.06,0,0,0,0,0,0,0,0-.01,0-.02,0-.4.2-.66.77-1.35,1.8-.92,1.38-2.34,1.72-2.34,1.72-.62.19-1.24.25-1.73.25h0s-.03,0-.04,0c-.16,0-.3,0-.43,0-.11,0-.2,0-.27.02-.23.05-.34.22-.55.33-.21-.23-.34-.32-.56-.38,0,0,.53.59.9,1.03.29.4.72.86,1.05,1.22.22.23.46.35.48.49.07.45-.74,1.16-1.22,1.78-.35.44-.46.98-.44,1.54,0,.2-.41-.22-.55-.32-.15-.11.14-.14.43-1.18.14-.5.33-.36.87-1.64.09-.2-.33-.54-1.03-1.12-.69-.57-1.18-.69-1.18-.69-.11,1.92.12,2.01,0,2.86-.14,1.02.18,2.09.34,2.32.16.23-.04.22-.15.21-.28-.01-.62-.13-.58-.7.06-.83-.17-1.54-.28-1.81-.11-.27.05-.56.04-1.3,0-.75-.24-1.84-.24-1.84-.97.37-3.26-.65-3.26-.65-.42.69-.63,1.98-.49,2.33.14.36.02.99.26,1.66.24.67,1.4,1.86,1.62,2.06.23.2.15.27-.06.26-.04,0-.08,0-.12,0-.19,0-.39,0-.46-.17-.3-.67-1.74-1.93-1.93-2.07-.18-.15-.09-1.53-.47-2.57-.09-.25-.19-.46-.29-.63h0s-.07-.13-.21-.31c-.05-.06-.1-.12-.14-.16-.23-.25-.55-.85-.55-.85,0,0,.07.38.25.7-.08.21-.21.85-.56,1.37-.09.14-.18.24-.26.3.22.26.33.48.12.73-.36.44-.51,1.54-.59,1.89-.09.35-.12.9-.05,1.09.07.19.06.34-.1.28-.16-.06-.59-.44-.54-.52.05-.08.22-.41.28-.7.05-.29-.11-.28.15-.87.26-.59.24-.93.16-1.25,0-.02-.01-.04-.02-.06,0-.01-.01-.03-.02-.04,0-.01-.01-.03-.02-.04-.01.03-.03.06-.04.09-.2.56-.58.82-.74,1.56-.16.74.03,1.81.18,2.1.15.29.07.3-.38.25,0,0-.1.03-.1-.56,0-.53-.2-.79-.39-1.56-.19-.77-.14-.62.32-1.43.22-.39.36-.91.45-1.44-.28-.35-.57-.68-.76-.87-.45-.45-.6-.29-.78.01-.18.3-.42.92-.57,1.38-.15.46-.07.87-.32,1.27-.25.4-.27,1.92-.29,2.14-.02.22.16.75.16.96,0,.2-.2.09-.34.05-.14-.04-.44-.23-.35-.63.09-.4.25-1.95.21-2.45-.04-.49-.23-.69.03-1.21s.46-1.91.46-1.91c0,0-.9-.15-1.49-.34,0,0,0,0,0,0-.08.01-.17.02-.25.02-1.73.03-2.06-.07-2.61.34-.24-.31-.62-.74-.95-.83,0,0,.91,1.03,1.18,1.37.08.1.17.22.27.35.42.53.67,1.03.99,1.32.33.28.29.38.31,1.26.02.88.15,1.83.43,2.17.28.34.47.5.34.57-.13.07-.59.06-.74-.03-.15-.09-.2-.28-.3-.8-.1-.51-.1-1.81-.25-1.99-.15-.18-.26-.49-.37-.84-.11-.35-1.41-1.5-1.41-1.5-.1.5-.28,1.71-.18,2.08.1.37.4.96.72,1.63.32.67.72.86.68,1.06-.04.2-.47.07-.58,0-.1-.07-.32-.74-.56-1.07-.24-.34-.83-.75-.84-1.04-.01-.25,0-.98,0-1.16-.02.05-.04.09-.05.13-.15.42-.1.82-.23,1.05-.13.23-.37.85-.45,1.28-.07.43.21.85.4,1.03.19.18.3.33.06.35-.24.02-.34.05-.47-.09-.03-.04-.08-.07-.14-.09-.25.02-.61,0-.62-.22,0-.23-.22-.97-.49-1.69-.27-.72-.7-1.18-.65-1.51,0-.06-.04-.19-.14-.36-.47.74-.85,2-1.01,2.32-.06.12-.16.3-.27.5.63.89,1.01,1.11.81,1.18-.21.07-.58.03-.7-.06-.12-.09-.16-.39-.41-.53-.13.27-.18.41-.19.5-.03.22-.5-.26-.44-.38.04-.07.2-.26.42-.59,0,0,.01-.01.02-.03-.03-.09-.08-.18-.14-.27-.2-.27-.83-1.09-1.06-1.26-.23-.17-.1-.65,0-1.26.1-.61-.06-1.53-.06-1.53,0,0-.02.08-.06.2,0,0,0,0,0,0-.12.42-.4,1.38-.4,1.71,0,.42-.41.7-.5,1.49-.09.79,0,1.63.12,1.84.12.21-.54.05-.57-.16-.03-.21.03-.65.09-1.21.07-.57.22-1.61.22-2.02,0-.07,0-.19-.02-.35,0,0,.63-.64.94-1.1-.31.46-.94,1.1-.94,1.1-.12.23-.21.52-.33.94-.2.69-.67,2.65-.83,2.89-.07.1-.38-.26-.41-.4-.03-.14.38-.39.46-.7.08-.31.35-1.55.3-2.18-.06-.63-.09-.79.16-.98.1-.08.3-.28.52-.58-.1-.74.07-1.51.07-1.51,0,0-1.11-.03-1.93-.48-.5-.28-.75-.83-.75-.83.03.25.17.47.27.61,0,.22-.03,1.1-.33,1.69-.34.67-.51,1.19-.54,1.69-.03.5.03,1.2.26,1.66.24.46,1.17,1.68,1.15,1.89-.01.21-.41.05-.63-.03-.22-.08-.17-.46-.43-.92-.26-.46-1.18-1.3-1.18-1.57s.36-1.71.28-2.39c-.08-.67-.3-1.04-.3-1.04,0,0-.13.66-.29.91-.16.25-.82.46-1.04.71-.12.14-.34.39-.55.67,0,.02.01.05.02.07.14.46,1.08,2.64,1.18,2.84.22.46.52.7.3.71-.22,0-.57-.09-.62-.33-.04-.21-.89-2.15-1.21-2.75-.03.07-.06.13-.08.2-.26.76-.94,2.31-1.24,2.86-.09.17-.57-.34-.47-.46.1-.11.98-1.2,1.21-2.3.09-.44.12-.68.13-.82-.28-.26-.6-.56-.57-.72.05-.24.22-1.4.09-1.96-.07-.3-.25-.62-.41-.85l-.47-.74.21.49c-.04.16-.13.56-.19.83-.07.29-.09.33-.42.63-.4.38-.59.53-.96,1.51-.37.98-.38,1.98-.41,2.6-.03.63.04,1.25.24,1.38.2.12.46.24.35.36-.18.21-.63.07-.82-.23-.19-.3-.28-.19-.17-.85.11-.66-.13-2.45-.25-2.76-.12-.31-.03-.23.23-.68.26-.45.74-1.73.79-2.83.05-1.1-.21-2.04.86-2.96.28-.24.53-.46.76-.66.33-.21-.73.96-.92,1.32-.2.37-.16,1.27.11,1.47,0,0-.06-.36.09-.68.03-.07.1-.05.16-.02.09.04.19.07.16-.22-.03-.38-.02-.43.19-.7.46-.59.56.48.56.48.14-.14.14-.32.08-.84-.04-.37.08-.95.18-1.21.11-.23.25-.26.41-.29.12,0,.21.12.18.57-.04.5.13.69.2.12.07-.56.23-.82.45-1.05.13-.12.6-.63.99-.67.44-.03.71.14.71.14-.09-.09-.16-.16-.24-.23h0c-.37-.33-.56-.32-.66-.29-.16.05-.54.34-.83.52,0,0,0-.01,0-.02,0,0,0,0,0,0,0-.15.03-.29.07-.41.11-.31.23-.39.43-.63.21-.24.38-.26.22-.67-.16-.41-.52-.43-.35-.75.13-.21.28-.44.36-.52.02-.03.05-.05.07-.06h0s.05-.04.07-.05c.06-.05.16-.12.23-.21.07-.09.13-.2.11-.31,0-.03-.02-.07-.04-.1-.06-.14-.12-.13-.11-.31,0-.09.02-.18.05-.26.01-.03.04-.08.07-.12.19-.13.27.34.33.45.06.1.11.07.04-.12-.07-.19.05-.35.21-.32.08.02.15.03.21.01.14-.04-.07-.19-.33-.21.15-.05.24-.12.32-.18.01-.01.03-.02.04-.02.04,0,.06.08.17.13.14.07.31.03.31.03,0,0,0,0,0,0,0,0,0-.02,0-.02,0-.04.02-.1-.05-.11-.03,0-.05,0-.07,0-.03,0-.05.02-.13,0-.11-.03-.13-.12-.14-.14,0,0,0-.02,0-.02,0-.07-.03-.05-.11-.02-.08.04-.14.07-.14.07-.07.03-.19.07-.33.1-.2.04-.39.11-.49.27-.07.11-.11.34-.16.59-.07.32-.44.48-.51.7-.07.22-.28.91-.26,1.06,0,0,0,0,0,0h0s0,.03.01.04c0,0,.01.02.02.02.05.07.15.22.06.44-.16.36-.05.58-.09.64-.13.2-.23.42-.31.63-.01.03-.02.06-.03.09h0s0,0,0,0c0,0,0,.01,0,.02,0,0,0,.04-.02.09-.03.13-.09.33-.15.43h0c-.07-.23-.22-1.39-.29-1.85-.08-.54-.57-.34-.62-.85-.01-.13-.04-.23-.08-.32.05,0,.12-.03.21-.08.45-.27.56-.69.56-.69-.15.21-.44.54-.66.63-.18.08-.24-.15-.26-.23,0-.08.02-.16.1-.27.27-.34.21-.33.4-1.03.19-.7.9-.99.9-.99-.28-.42-.11-.79.05-1.77.03-.2.08-.38.14-.53.18-.43.99-.94,1.51-1.33.52-.39,1.03-1.03,1.03-1.03-.2.18-1.97,1.54-1.97,1.54-.17-.32-.27-.93-.27-.93.95-.01,1.46-.62,3.37-1.73.57-.33,1.12-.68,1.61-1-.05.07-.1.15-.16.23-.24.36-.39.66-.85,1.04,0,0,.56-.28.84-.73.28-.45.49-.77.68-.9h0c.23-.16.43-.3.61-.43l-2.18,7.54v.08s2.43-7.8,2.43-7.8c.12-.09.22-.16.3-.22.1-.27.2-.57.31-.88-.08-.09-.21-.35-.16-.49.01-.03.03-.07.06-.1h0s.02-.02.03-.03c.05-.05.12-.09.18-.12.14-.07.26-.09.26-.09-.02-.01-.04-.02-.07-.03.26-.72.47-1.31.48-1.34.02-.05.04-.06.06-.06.01,0,.02,0,.02,0,0,0-.14.66-.4,1.49.11.1.25.36.21.49-.04.12-.29.26-.45.31-.43,1.39-.95,2.9-.96,2.91l-2.92,9.81s-.27-.03-.51-.08c-.04-.01-.09-.02-.13-.03-.17-.04-.16-.07-.18-.17,0-.06-.03-.14-.09-.26-.06-.09-.11-.19-.15-.29-.01-.03-.18-.39-.23-.74-.06-.36-.18-.32-.18-.32,0,0,.12.18.13.48.01.3.13.48.24.78.02.05.04.09.06.14,0,0,0,0,0,0,0,0,0,0,0,.02.02.05.08.2,0,.4-.1.24.35.18.78.24.28.04.43.14.5.2.21.2.13.37.05.52-.09.18-.07.35-.49.5-.18.06-.21.23-.04.75.04.13.09.25.15.34-.02.05-.03.09-.04.12-.02.05-.03.08-.03.09-.29.62-.82.84-1.29,1.33-.16.18-.28.37-.36.56-.02.05-.04.11-.06.16-.17.49-.13.95-.09,1.17.15-.6.33-1.11.77-1.46.18-.14.33-.27.45-.4,0,0,0,0,.01-.01,0,0,0,0,.01-.01.08-.08.36-.37.66-.49.36-.14.27-.88.48-.91.2-.03.13.41.13.42-.08.29-.11.67-.04.89,0,0,.11-.92.45-1.44.28-.42.72-.83.86-.9.14-.06-.04.2-.11.43-.06.2-.11.55-.1.65,0,0,.34-.87.69-1.16.21-.18.2-.48.12-.62-.05-.09-.05-.12-.03-.18.07-.13.31-.5-.03-.8-.18-.16-.25-.35-.27-.52-.01-.23-.03-.57.22-.64.25-.07.32-.13.33-.24h0s-.02-.06-.05-.09c-.12-.1-.2-.16-.13-.26.06-.1.24-.08.32.02,0,0,0,.01,0,.01.01.02.03.08.05.21.03.2.05.54.2.83,0,0-.21-.87-.06-1.08.03-.03.07-.06.12-.08.11-.04.22-.03.22-.03-.07-.07-.17-.17-.24-.15-.07.02-.13.16-.18.17-.05,0-.12-.06-.16-.11-.06-.08-.14-.16-.07-.23.07-.06.23-.07.27-.19.01-.03.03-.05.04-.05.02,0,.04.02.08.04.04.02.09.04.15.04.17-.01.17-.04.29.01.07.03.13.02.14,0,0-.02-.06-.06-.1-.14-.09-.17-.07-.06-.24-.05-.16,0-.31.03-.37-.03-.06-.06-.08.11-.19.17-.11.06-.28.23-.34.4-.07.17-.14.35-.24.59-.03.06-.05.11-.08.16-.09.17-.23.36-.23.47,0,.09,0,.22,0,.36h0c0,.06-.01.12-.03.18-.02.1-.05.23-.08.35-.02.07-.04.13-.06.17-.08.17.02.19.08.25.01.01.03.03.03.05,0,0,0,.02,0,.03,0,.05,0,.1-.01.15,0,0-.06.14-.36.39-.3.25-.25.63-.4.75-.06.05-.14.12-.26.22-.19.16-.35.12-.48.09-.08-.02-.15-.04-.2-.01.06-.11.27-.52.28-.54.08-.09.23-.32.29-.44.2-.46.39-1.05.39-1.05.08-.32.19-.68.35-1.08.08-.19.5-1.17.51-1.35.02-.3.16-.48.28-.58.06-.05.3-.2.77-.2,0,0-.18-.11-.46-.06.1-.3.14-.44.3-.89.2-.58-.05-1.05.13-1.38.18-.32.09-.67.09-.67.18-.17.64-.28.78-.48.02-.02.02-.05.03-.07.23.1.49-.09.49-.09-.38.14-.52-.04-.54-.07h0c-.1-.15-.29-.28-.29-.28,0,0,.3-.25,1.25-.22.95.04.73-.28,1.9-.96.57-.33,1.63-1.01,2.57-1.62-.75.62-1.32,1.53-1.32,1.53.63-.72,2.08-2.03,2.08-2.03.29-.19.43-.28.62-.41.11-.32.31-.84.5-1.38-.1-.12-.24-.41-.19-.58.02-.05.07-.11.13-.16.19-.16.49-.18.49-.18-.02-.02-.06-.03-.09-.04.46-1.29,1.01-2.58,1.03-2.63.03-.06.05-.07.06-.07,0,0,.01,0,.01,0,0,0-.41,1.33-.85,2.75.12.13.26.41.22.56-.04.14-.31.29-.5.35-.3.98-.58,1.88-.7,2.26v.02s-2.08,6.83-2.08,6.83c-.03-.01-.07-.03-.13-.04-.12-.04-.19-.07-.25-.09-.03-.01-.05-.02-.07-.03,0,0,0,0-.01,0-.12-.04-.13-.02-.2.06-.1.13-.3.09-.38.08-.08,0-.08.33-.08.53s-.35.5-.49.75c-.15.24,0,.53,0,.53-.48.33-.6.72-.6.72-.09.18,0,.8-.23,1.22-.2.37-.28.4-.36.7-.34-.21-.93-.57-.97-.81-.08-.47-.37-.7-.55-.82,0,0,.28.44.31.62.03.18.01.34.13.53.14.21.62.47.92.57.03.01.09.03.12.04,0,0,0,.01,0,.02-.04.19-.13.38-.24.55,0,0,0,.01-.02.02-.05.1-.1.19-.13.28l-.04.11c-.21.55-.21.92-.39,1.05-.23.17-.43.12-.76.54-.33.41-.66.9-.95,1.23-.15.17-.25.27-.31.39-.05.11-.07.22-.04.41.05.37.27,1.15.59,1.99,0,0-.13-.77-.25-1.34-.07-.34-.14-.89,0-.79.15.1.23.11.27-.18.02-.18.05-.46.27-.49.1-.01.16.09.2.2.05.13.08.25.15.18.06-.07,0-.35.1-.59.11-.24.28-.53.48-.61.06-.03.09-.02.13-.02.03,0,.07,0,.13,0,.2-.03.32-.26.49-.25.22.01.18.36.15.59,0,0,.17-.14.29-.46.08-.21.19-.62.38-.72.19-.1.57,0,.68.32,0,0,.05-.18-.14-.38-.17-.18-.22-.18-.32-.41-.05-.12-.08-.25-.08-.36h0s0-.19-.02-.43c-.16.26-.26.51-.33.62-.12.17-.23.46-.47.54-.25.08-.31-.07-.26-.31,0-.03.01-.05.02-.09.21-.58.62-.8,1.16-1.26.54-.46.16-.64.16-1.11,0-.08,0-.16,0-.24,0-.55,1.39-.98.95-1.06-.24-.05-.68.26-.81.31-.14.05-.13-.13-.13-.13,0-.02,0-.03,0-.04,0-.09.02-.17.04-.2.08-.17.2-.22.28-.29.13-.11.28-.19.44-.31.16-.12.47-.07.21-.31-.26-.25-.12-.65-.12-.65h0c.11-.14.21-.28.21-.38,0-.2-.04-.24.04-.26.09-.01.16-.02.18-.11.02-.06.06-.1.13-.1.04,0,.1.02.16.06.15.11.45.04.66.14.05.02-.07-.16-.07-.16l.59-1.96c.18-.23.6-.65,1.27-.99,1.01-.52,1.14-1.02,1.14-1.02-.28.32-.6.53-1.21.82-.61.29-.91.53-1.05.68l1.45-4.82c.6-.3,1.47-.52,2.31-.92,0,0-1.46,1.08-2.29,1.75,0,0,.74-.46,1.76-.57,1.02-.11,1.18-.72,1.18-.72,0,0-.45.44-1.12.54-.62.1-1.01.29-1.04.31.06-.04,2.07-1.45,2.64-1.84.38-.17.79-.38,1.15-.58-1.78,5.13-1.7,6.45-1.7,6.45.53-2.68,1.77-6.11,1.94-6.59.45-.26.68-.42.86-.53.05-.17.11-.38.15-.54-.07-.07-.17-.25-.15-.36.02-.07.11-.17.21-.24.05-.03.13-.08.22-.07,0,0-.03-.03-.09-.02.11-.4.39-1.04.39-1.06.02-.06.05-.07.06-.07,0,0,.01,0,.01,0,0,0-.17.71-.27,1.18.09.06.23.27.2.38-.02.1-.22.23-.34.27-.04.17-.08.34-.12.52v-.02s-2.69,12.18-2.69,12.18c-.17-.28-.31-.5-.34-.54h0c.03.1.16.6.26.89.07.2.27.51.47.78.01.01.18.23.38.21.13-.02.2-.03.25.02.07.07.22.14.07.25-.03.02-.06.04-.09.06.07.04.16.09.26.15,0,0,1.82,1.11,5.68,2.28,0,0,0,0,0,0,0,0,.04.01.1.03h0c.22.06.75.2,1.26.25,0,0-.9-.26-1.28-.37.12-.27.18-.47.25-.49.13-.03.16-.07.16-.07.02-.02.04-.05.05-.11.05-.22.23-.09.28.04,0,0,.03-.09-.03-.19-.07-.11-.07-.36-.02-.47,0,0,.13.05.2.13.07.08.17.31.22.26.05-.05.06-.23.16-.22.12,0,.47.17.52.28.08.14-.26.4-.26.4.25-.02.4-.27.54-.29.14-.03.18.24.4.26.06,0,.11,0,.16,0,.14-.01.25-.03.31.16.09.26.11.16.19.06.14-.19.36.13.36.13,0-.22-.3-.5-.94-.65-.81-.19-1.33-.48-1.68-.55-.32-.06-.28-.02-.28.03,0,.06-.03.1-.06.12-.4.3-.63.75-.81,1.09-.1-.03-.21-.07-.34-.11.17-.21.3-.43.3-.62,0-.16.07-.3.15-.42.07-.1.12-.19.17-.29-.11.16-.54.42-.61.74-.04.18-.13.33-.27.51-.21-.07-.45-.15-.71-.24-1.58-.51-3.17-1.25-3.93-1.65.05-.04.1-.09.16-.13.31-.2.4-.26.4-.61,0-.34.19-.47.22-.82.04-.35.13-.51.37-.9.24-.39.03-.68.11-.86.07-.18.15-.34.39-.43,0,0-.02-.12.06-.2.05-.05.13-.07.23-.07.05,0,.12,0,.19,0,.2.01.35.03.4.11.05.09.15.12.18.14.03.02-.07.13-.14.18-.07.05-.1.08-.07.15.03.06.08.22.09.26,0,.04-.12,0-.12.04,0,.04-.03.1-.04.19,0,.09-.11.14-.21.13-.1,0,.05.2.17.39.12.19.07.28.29.27.23,0,.29,0,.25.12h0c.4.26.94,1.24,2.68,2.02l-.03.12s-1.51-.6-2.6-1.94c.05.2.15.23.22.35.06.1.13.17.5.53.54.52.62.57.98,1.22.18.32.84.3.83.35.11-.24.16-.48.19-.72.04-.27.07-.86.07-.86.02-.24.05-.51.12-.76.06-.23.16-.43.32-.55.41-.32.57-.51.57-.51,0,0-.16-.17-.1-.39.05-.22.24-.42.24-.42,0,0,.03-.11.02-.22,0-.11-.05-.22.04-.27.01,0,.03-.01.04-.01.06-.04.54-.27.68-.34,0-.02.03-.03.05-.05.01,0,.03,0,.04,0,.04,0,.09.02.11.06,0,0,0,.02,0,.03,0,0,.24.15.29.19.02.02.04.01.07.01.03,0,.07,0,.1.06.05.1-.04.09-.04.13,0,.04.04.06,0,.12-.01,0-.02.02-.03.04,0,0,0,.01,0,.02.02.07-.07.02,0,.3.05.22.07.21,0,.64-.06.41-.09.4-.09.4,0,0,.14.13.24.26.15.21.29.43.35.87.02.16.04.35.07.52.06.29.17.53.44.48,0,0,.35-.13.49.13.02.03.03.07.04.1.03.09.03.18.02.24.43.23,1.39.7,3.22,1.36.58.21,2.14.66,2.89.88l.39.11s.07.02.1.03c.2.04.45.08.69.1l-.14-.05c-.31-.07-.8-.19-1.05-.29,0-.05,0-.1,0-.13.02-.15.08-.19.19-.23.13-.04.27,0,.38.19,0,0,.01-.1-.06-.18-.09-.1-.13-.34-.1-.46,0,0,.13.03.22.09.09.07.23.28.27.22.04-.06.02-.24.11-.24.12-.02.49.08.57.18.1.13-.18.44-.18.44.24-.06.35-.32.46-.4.06-.04.11-.08.31-.09h0s.04,0,.06,0c.21,0,.43.09.54.14.12.06.32.13.21.02-.05-.05-.09-.08-.13-.1,0,0-.03-.02-.07-.03-.02,0-.03,0-.03,0-.09-.03-.36-.09-.64-.1-.05,0-.1,0-.16.02-.07.01-.14.02-.22.01-.22-.03-.31-.15-.68-.18-.27-.02-.52-.06-.64-.04,0-.04.03-.07.14-.07.24-.02,1.6.11,1.98.16.45.07,1.19.24,1.18.89ZM71.84,23.84c-.08-.17-.37-.34-.37-.51.02-.12.08-.1.2-.22.12-.12.18-.28.02-.38-.14-.09-.21-.2-.21-.33h0s0-.04,0-.06c0-.11.04-.23.1-.28.17-.14.16-.14.16-.27,0-.06,0-.12-.01-.16h0c0-.06-.02-.1-.02-.1-.04.13-.06.22-.26.39-.2.17-.06.33-.14.65-.01.06-.03.12-.04.19-.01.08-.02.16-.02.25,0,.23.23.25-.18.48-.16.09.08.26-.1.41-.07.06-.16.11-.23.14.03.03.08.04.13.04.23,0,.59-.22.69-.24.1-.02.18,0,.23.02.07.03.09.06.06-.01ZM72.11,21.43c-.17-.36-.08-.69-.08-.69-.31.26.08.69.08.69ZM72.29,20.24c.06-.09.12-.11.12-.11,0,0-.19-.02-.23.12-.04.14-.02.17-.13.22-.44.14-.26.53-.26.53.01-.42.54-.56.54-.56.11-.01-.09-.11-.03-.2ZM78.15,20.06c-.17.02-.3.16-.42.16,0,0-.01,0-.02,0-.13-.02-.16.2-.09.39.24.69.49.87.49.87,0,0-.31-.75-.34-.9-.03-.15,0-.24.11-.18.11.06.18.05.21-.09.03-.14.04-.2.18-.23,0,0-.06-.04-.12-.03ZM77.59,20.02c-.05.02-.1.05-.09.07.02.02.05.03.02.08,0,0,.4-.16.55-.21.15-.05.09-.02.07-.08-.01-.05.02-.09.02-.09,0,0-.02.03-.05.03-.02,0-.04,0-.06-.02l-.46.22ZM77.41,19.96s.03.02.05.02c.01,0,.03,0,.04,0,.12-.06.41-.2.5-.24.02-.01.02-.04.02-.08l-.61.31ZM77.52,21.24c.18.25.43.62.43.62,0,0-.13-.38-.3-.72-.18-.35-.26-.71-.26-.71-.03.2-.05.56.13.82ZM76.6,23.85c-.14-.21-.02-.81-.12-.61-.14.29-.02.51-.12.75-.1.24-.15.45-.15.45.2-.33.52-.38.38-.59ZM78.75,23.37c-.08-.52.07-.73,0-1.21-.07-.48-.47-.67-.33-.5.14.17.28.73.22.96-.05.23-.03.44,0,.58-.01-.02-.03-.05-.05-.07-.36-.55-1.05-1.28-1.23-1.48-.18-.21-.14-.5-.19-.32-.05.17-.36.29-.56.56-.2.26-.21.83-.21.83.15-.82.48-.97.5-.92.02.05-.16.48-.09.59.07.11.13.83.13.83.05-.17-.04-.8-.04-.96s.14-.54.14-.54c.38.21.89.87,1.17,1.24.28.37.27.31.45.47.15.13.25.22.08-.05ZM62.8,18.65l1.24-4.03c-.77,1.38-1.24,4.03-1.24,4.03ZM59.33,17.14s.39-.35.87-.31c.48.04.92-.21,1.29-.42.36-.21.71-.27.82-.74,0,0-.24.43-.83.57-.44.1-.64.23-.89.23-.08,0-.16-.01-.26-.04-.41-.13-.66.31-.66.31,0,0,.05-.39-.09-.62,0,0-.03.56-.23,1.01ZM58.91,19.19c.56-.23,1.12-.39,1.41-1.34,0,0-.33.45-.91.59-.69.16-.72.43-.72.43,0,0,.15-.1.47-.13.32-.03.4-.1.4-.1,0,0-.21.28-.61.42-.31.11-.79.36-.92.72,0,0,.32-.36.87-.59ZM58.07,24.48c.12.03.48.13.66.35.18.22.45.48.45.48,0,0-.13-.3-.37-.56-.23-.25-.58-.46-.82-.52-.32-.08-.25-.17-.26-.46,0-.18-.09-.31-.09-.31,0,.27.02.36-.06.58-.06.15.01.33.49.45ZM53.94,14.22s-.81.91-1.4,1.52c-.51.52-.88.6-.97.61,0,0-.02,0-.02,0,0,0,0,0,.02,0,.03,0,.06.01.11.02.16.03.45.07.89-.33.61-.56,1.37-1.82,1.37-1.82ZM52.48,21.53c-.07-.36-.08-.75-.08-.75-.21.33.08.75.08.75ZM51.9,30.46l-.26-.13c-.26-.11-.49-.19-.49-.13-.07.94-.36,1.61-.4,2.36.11-.15.23-.33.35-.56h0s.45-.51.71-1.23c.03-.1.07-.2.09-.31ZM70.39,24.32c.17.09.54.26.9.42-.37-.17-.73-.33-.9-.42ZM69.89,25.01s.26.17.48.49c.22.32.26.47.6.65.06.03.14.08.23.13,0,0,.59.44.84.66.25.22,1.2.69,1.58.79h0c.14.04.3.07.47.08.03,0,.06,0,.09,0,0,0,.48,0,.83-.08.36-.09.25-.22.56-.21,0,0-.14-.15-.35-.02-.14.09-.29.11-.39.1.2-.16.45-.37.65-.74.06-.11.12-.23.17-.34l.03-.06h0s.05-.11.05-.11h0s-.01,0-.02,0c-.08-.02-.16-.05-.25-.07l-.03.06h0s-.01.02-.01.02h0s0,.01,0,.02h0c-.2.4-.52,1.14-1.16,1.22-.14.02-.43-.03-.54-.07,0,0,0,0,0,0,.28-.29.59-.63.71-.74.08-.08.33-.3.57-.55l.03-.04h0s0,0,0-.01l.03-.03c-.09-.03-.18-.06-.26-.08l-.04.04c-.29.3-.72.7-1.31,1.35,0,0-.42-.17-1.04-.53-.11-.06-.22-.13-.34-.21-.3-.19-.49-.32-.61-.41-.07-.06-.31-.28-.37-.33,0,0-.01-.01-.02-.02-.2-.22-.34-.37-.45-.48-.23-.23-.36-.3-.72-.46ZM72.63,29.02c.06-.02.12-.02.18-.02-.06,0-.12,0-.18.02ZM64.7,24.25s0,0,0,0c.06.08.13.17.22.29,0,0,0,0,0,.01,0,0,0,0,0,0,.06.09.52.77,1.22,1.5,0,0,.01.02.02.02.03.03.06.07.1.1.01.01.02.02.04.04.03.03.06.06.1.1.01.01.02.02.04.04.07.07.15.14.22.21,0,0,0,0,0,0,.03.03.06.05.09.08.02.02.04.04.06.06.03.02.06.05.09.07.02.02.05.04.07.06.03.02.06.05.09.07.03.02.05.04.08.06.03.02.06.04.09.07.04.03.09.06.13.1.03.02.07.05.1.07.03.02.06.04.09.06.03.02.06.04.09.06.03.02.06.04.09.06.03.02.06.04.09.05.03.02.06.03.09.05.03.02.06.03.09.05.04.02.07.04.11.06.02.01.04.02.06.03,0,0,0,0,0,0,.21.1.43.19.65.25.13.04.26.06.39.08,0,0-.11-.04-.31-.13-.12-.05-.26-.13-.43-.22v-.03s.01,0,.01,0c.02-.04.03-.08.05-.12.05-.12.1-.24.15-.35.05-.11.09-.2.13-.23,0,0,.01,0,.02-.01.13-.03.16-.07.16-.07.02-.02.04-.05.05-.11.05-.22.23-.09.28.04,0,0,.03-.09-.03-.19-.07-.11-.06-.36-.02-.47,0,0,.13.05.2.13.07.08.17.31.22.26.05-.05.06-.23.16-.22.12,0,.46.17.52.28.08.14-.26.4-.26.4.25-.02.4-.27.54-.29.14-.03.18.24.4.26.06,0,.11,0,.16,0,.14-.01.25-.03.31.16.09.26.11.16.19.06.14-.19.36.13.36.13,0-.12-.31-.41-.94-.61-.79-.25-.98-.44-1.68-.59-.32-.07-.28-.02-.28.03,0,.05-.03.1-.06.12-.4.3-.63.75-.8,1.1l-.04.1s-.02.06-.04.09c-.85-.5-2.11-1.44-3.19-3.01.11-.15.25-.19.27-.2.59-.17.62-.05.79-.19.06-.05.18-.13.49-.3.31-.17.49-.07.76.11.28.17.79.44,1.24.54.3.07.67.19.67.19-.08-.11-.7-.36-.79-.39-.69-.27-.74-.35-1.2-.63-.04-.02-.08-.04-.11-.06.17-.04.19-.13.12-.23-.1-.13-.25-.18-.18-.33.07-.16.43-.52.37-.71-.06-.19-.11-.06-.28.1-.03.03-.05.04-.06.04-.1,0-.18-.07-.22-.1,0,0,0,0,0,0,0,0,0,0,0,0,0,0,0,0,0,0h0c-.12-.14-.18-.3-.2-.45-.01-.23-.03-.57.22-.64.25-.07.32-.13.33-.24h0s-.02-.06-.05-.09c-.12-.1-.2-.16-.13-.26,0-.01.02-.02.03-.03.07-.06.27-.04.2-.17-.05-.09-.05-.15-.05-.18,0-.02,0-.04.03-.05.07-.06.21-.1.25-.23.01-.03.02-.05.04-.05.02,0,.05.02.08.04.04.02.09.04.15.03.17-.01.19,0,.31.05.07.03.13.02.14,0,0-.02-.06-.07-.1-.14-.04-.07-.05-.09-.08-.09,0,0,0,0,0,0-.29-.02-.83-.05-.91.06-.08.1.02.26.02.26h0c-.07.08-.14.17-.17.26-.07.17-.14.35-.24.59-.02.06-.05.11-.08.16-.09.17-.23.36-.23.46,0,.09,0,.23,0,.36h0s-.01.09-.02.13c-.02.07-.04.14-.07.21-.14.37-.58.9-.85,1.26-.07.09-.12.17-.16.25,0,0-.38.19-.61.46ZM67.56,20.6s.17-.28.1-.26c-.01,0-.02,0-.03.02-.02.02-.03.03-.04.04-.02.02-.04.05-.06.07-.11.15-.12.3-.11.37,0,0,0,0,0,.01,0,.01,0,.03,0,.04.03.2.05.52.2.79,0,0-.21-.87-.06-1.08ZM67.3,21.25c-.26.33.02.68.02.68-.07-.28-.02-.68-.02-.68ZM62.96,22.47c.1.2.29.45.46.5.03,0,.07.03.11.06.04.03.33.23.51.61.24.53.58.48.58.48-.21-.14-.23-.32-.38-.58-.14-.26-.22-.39-.4-.51-.24-.16-.4-.26-.53-.37-.13-.1-.35-.19-.35-.19ZM62.31,20.7c0,.35.15.59.15.59-.09-.47-.04-.69-.04-.7.03-.05.08-.08.12-.07.12.01.19.02.22-.02,0,0-.03-.06-.15-.12-.08-.04-.19-.08-.25.03-.04.07-.06.2-.05.29ZM60.62,32.68c-.45-.64-1.05-1.39-1.23-1.61-.08.35-.18.74-.31,1.1-.33.94-.04,1.49-.18,1.94-.11.39.1.92.63,1.7,0,0,0,0,0,0h0s.01-.02.01-.03c0,0,0,0,0,0,.03-.06.06-.12.09-.17.25-.54.55-1.7.55-2.12,0-.18.19-.45.44-.8ZM63.89,31.35s-.16-.1-.74-.1c-.02.02-.78.8-1.4,1.37.05.41.1.81.15,1.07.12.62.49,2.19.77,2.78.07-.39.19-.98.15-1.28-.08-.68.02-.89.44-1.94.42-1.05.62-1.91.62-1.91ZM63.11,31.26s0,0,0,0c0,0,0,0,0,0ZM63.14,31.25s0,0,0,0c0,0,0,0,0,0ZM67.75,28.95c.36-.09.25-.22.56-.21,0,0-.14-.14-.35-.02-.14.09-.29.11-.4.1.2-.15.45-.37.65-.75.04-.07.07-.14.11-.21-.07-.03-.14-.07-.22-.11-.2.42-.52.93-1.02.91-.73-.03-1.19-1.09-1.34-1.44h0s0,0,0,0l-.2-.48c-.04-.12-.19-.38-.22-.45-.18-.34-.2-.44-.35-.64-.09-.11-.23-.22-.39-.34.05-.18.04-.52.23-.69-.03-.04-.06-.09-.09-.13-.02-.03-.08-.03-.1,0-.08.15-.18.35-.16.61,0,0,0,0,0,.01,0,.04,0,.07.02.11-.15-.11-.29-.23-.41-.36,0,0,.09.25.17.65.08.38.15.26.27.53.04.08.06.2.06.2.05-.09.05-.23.02-.38-.04-.22-.08-.3.04-.22.13.09.25.19.37.36.13.16.29.48.54.74l.2.48s.07.73.43,1.29c.36.56,1.23.52,1.58.42ZM72.07,31.01c0-.07,0-.13,0-.2v-.02h0c0-.08,0-.15,0-.22,0-.13.02-.29.06-.47.12-.43.41-1.05.41-1.05-.58.54-.74,1.09-.79,1.16-.17-.24-.4-.48-.69-.61,0,0,.36.46.67.9.08.12.2.31.34.52h0v-.02ZM75.03,29.21c-.09,0-.18,0-.26,0,.08,0,.17,0,.26,0ZM79.39,24.81s.07.03.1.05c.06.05.15.2.18.16.03-.04.02-.16.09-.16.08,0,.33.07.38.14.07.09-.14.3-.14.3.16-.04.24-.18.32-.24.04-.03.07-.05.22-.05h0s.03,0,.04,0c.15,0,.22.03.29.07.08.04.21.1.14.02-.03-.03-.06-.06-.09-.07,0,0-.02-.01-.05-.03-.01,0-.02,0-.02,0-.06-.02-.18-.05-.37-.07-.03,0-.07,0-.11,0-.05,0-.1.01-.15,0-.15-.02-.22-.14-.47-.17-.14-.02-.31-.05-.42-.05.01.03.03.07.04.1ZM86.28,26.51c-.76-.21-2.34-.67-2.89-.87-.94-.35-1.62-.64-2.12-.85-.54-.23-.9-.42-1.13-.54,0,0-.12-.03-.33-.03-.12,0-.27.01-.45.05,0,0-.02,0-.05.02-.05.04-.05.11-.03.21.17.07.49.1,1.4.26.31.05.75.19.73.64,0,.2-.03.32-.1.33-.07,0-.13-.02-.19-.05-.1-.04-.21-.08-.45,0-.12.04-.22.1-.3.17.36.16.57.45.97.67.35.19.57.58.83.89.2.23.46.43.73.57.14.06.28.11.41.15h0s.07.03.21.05h0s.08.02.13.02c0,0,.02,0,.03,0,.34.06.91.1,1.64-.03,0,0,0-.02,0-.02-.12,0-.34,0-.58-.03.66-.21,1.08-.68,1.23-.87.27-.38.28-.66.29-.72v-.04ZM65.58,23.99s.08.01.12,0c.01,0,.03,0,.04,0h0s.01,0,.02,0c.01,0,.03,0,.04,0,.2-.07.08-.42.36-.44.3-.02.39-.09.54-.22.07-.07.11-.13.1-.17,0-.03-.11-.05-.2-.07,0,0-.11-.02-.24-.02h-.01c-.21,0-.38.17-.5.32-.04.05-.08.11-.12.16,0,0,0,0,0,0-.13.17-.28.41-.13.45ZM60.37,24.88c.6-.39.43-.81.43-.81-.2.2-.42.78-.43.81h0Z"/>
  <path class="cls-1" d="M.26,35.78h.03l1.09-1h.34l-1.17,1.05,1.23,1.26h-.35l-1.14-1.19h-.04v1.19H.02v-2.31h.23v1ZM2.31,34.97s-.02-.08-.05-.11c-.03-.03-.07-.04-.11-.04s-.07.01-.11.04c-.03.03-.05.07-.05.11s.02.08.05.11c.03.03.07.04.11.04s.07-.01.11-.04c.03-.03.05-.07.05-.11M2.27,35.56h-.22v1.53h.22v-1.53ZM2.77,35.56c0,.06,0,.12.01.18,0,.06,0,.12,0,.16v1.19h.22v-.78c0-.14.02-.25.07-.33.04-.08.09-.14.15-.18.06-.04.11-.06.16-.07.05,0,.08-.01.09-.01.16,0,.27.04.33.14.06.09.09.22.09.39v.85h.22v-.97c0-.19-.05-.34-.14-.44-.09-.1-.24-.16-.43-.16-.05,0-.1,0-.15.02-.05.01-.1.03-.14.06-.05.03-.09.06-.12.09-.04.03-.07.07-.09.11h0s0-.08,0-.12c0-.04,0-.08,0-.12h-.22ZM4.56,37.57c.1.1.21.18.33.23.12.05.26.07.41.07.17,0,.31-.03.42-.08.11-.05.19-.12.25-.2.06-.08.1-.16.12-.26.02-.09.03-.18.03-.26v-1.52h-.22v.25h0c-.04-.06-.09-.11-.14-.15-.05-.04-.1-.07-.15-.09-.05-.02-.1-.04-.15-.05-.05,0-.1-.01-.15-.01-.11,0-.22.02-.31.06-.1.04-.18.1-.25.17-.07.07-.12.16-.16.25-.04.1-.06.2-.06.31s.02.21.06.31c.04.1.1.18.17.25.07.07.16.12.25.16.1.04.2.06.31.06s.22-.02.32-.07c.1-.04.19-.12.26-.22h0v.27c0,.08-.01.16-.03.23-.02.07-.05.14-.1.19-.05.05-.11.1-.19.13-.08.03-.17.05-.28.05-.12,0-.24-.03-.34-.08-.1-.05-.18-.12-.25-.2l-.16.17ZM4.76,36.3c0-.08.01-.16.04-.23.03-.07.07-.13.12-.19.05-.05.11-.1.18-.13.07-.03.14-.05.22-.05.09,0,.17.02.24.05.07.03.13.07.18.13.05.05.09.12.11.19s.04.15.04.23c0,.09-.01.17-.04.24-.03.07-.07.13-.13.18-.05.05-.12.09-.19.12-.07.03-.14.04-.22.04s-.16-.02-.22-.05c-.07-.03-.13-.07-.18-.13-.05-.05-.09-.12-.12-.19-.03-.07-.04-.15-.04-.23M7.8,36.48h1.18l.26.61h.27l-1.01-2.31h-.23l-1.01,2.31h.27l.26-.61ZM8.39,35.05l.5,1.21h-1l.5-1.21ZM9.75,37.09h.22v-.25h0c.03.05.08.1.12.13.05.04.1.07.15.09.05.02.11.04.16.05.06.01.11.02.16.02.12,0,.23-.02.33-.06.1-.04.18-.1.26-.17.07-.07.13-.16.17-.25.04-.1.06-.2.06-.32s-.02-.22-.06-.32c-.04-.1-.1-.18-.17-.26-.07-.07-.16-.13-.26-.17-.1-.04-.21-.06-.33-.06-.05,0-.1,0-.16.02-.06.01-.11.03-.16.05-.05.02-.1.05-.15.09-.05.04-.09.08-.12.13h0v-1.2h-.22v2.47ZM11.14,36.32c0,.08-.01.16-.04.24-.03.07-.07.14-.12.19-.05.05-.11.1-.18.13-.07.03-.15.05-.24.05s-.17-.02-.25-.05c-.07-.03-.14-.07-.19-.13-.05-.06-.1-.12-.13-.19-.03-.07-.04-.15-.04-.24s.01-.16.04-.24c.03-.07.07-.14.13-.19.05-.05.12-.1.19-.13.07-.03.16-.05.25-.05s.17.02.24.05c.07.03.13.07.18.13.05.06.09.12.12.19.03.07.04.15.04.24M13.27,34.62h-.22v1.2h0c-.03-.05-.08-.1-.12-.13-.05-.04-.1-.07-.15-.09-.05-.02-.11-.04-.16-.05-.06-.01-.11-.02-.16-.02-.12,0-.23.02-.33.06-.1.04-.18.1-.26.17-.07.07-.13.16-.17.26-.04.1-.06.2-.06.32s.02.22.06.32c.04.1.1.18.17.25.07.07.16.13.26.17.1.04.21.06.33.06.05,0,.1,0,.16-.02.06-.01.11-.03.16-.05.05-.03.1-.06.15-.09.05-.04.09-.08.12-.13h0v.25h.22v-2.47ZM11.87,36.32c0-.08.01-.16.04-.24.03-.07.07-.14.12-.19.05-.05.11-.1.18-.13.07-.03.15-.05.24-.05s.17.02.24.05c.07.03.14.07.19.13.06.06.1.12.13.19.03.07.05.15.05.24s-.02.16-.05.24c-.03.07-.07.14-.13.19-.05.05-.12.1-.19.13-.08.03-.16.05-.24.05s-.17-.02-.24-.05c-.07-.03-.13-.07-.18-.13-.05-.06-.09-.12-.12-.19-.03-.07-.04-.15-.04-.24M15.06,37.09c0-.06,0-.12-.01-.18,0-.06,0-.12,0-.16v-1.19h-.22v.78c0,.14-.02.25-.07.33-.04.08-.09.14-.15.18-.06.04-.11.06-.16.07-.05,0-.08.01-.09.01-.08,0-.15-.01-.2-.03-.05-.02-.1-.06-.13-.1-.03-.04-.05-.1-.07-.16-.01-.07-.02-.14-.02-.23v-.85h-.22v.97c0,.19.05.34.14.44.09.1.24.16.43.16.05,0,.1,0,.15-.02.05-.01.1-.03.15-.06.05-.03.09-.06.12-.09.04-.03.07-.07.09-.11h0s0,.08,0,.12c0,.04,0,.08,0,.12h.22ZM15.82,34.62h-.22v2.47h.22v-2.47ZM17.21,36.15c-.09,0-.19,0-.3.01-.11,0-.21.03-.31.07-.1.03-.18.09-.24.16-.06.07-.1.17-.1.29,0,.07.02.14.04.19.03.06.07.1.12.14.05.04.11.07.17.09.06.02.13.03.2.03.12,0,.23-.02.32-.07.09-.05.16-.12.22-.22h0s0,.08,0,.13,0,.08.01.12h.21s-.01-.09-.02-.16c0-.06,0-.13,0-.18v-.68c0-.09-.02-.17-.05-.24-.03-.07-.07-.12-.12-.17-.05-.04-.11-.08-.18-.1-.07-.02-.14-.03-.21-.03-.29,0-.5.07-.65.22l.13.15c.13-.12.29-.18.47-.18.26,0,.39.13.39.4v.04h-.11ZM17.32,36.33v.11c0,.07,0,.13-.03.19-.02.06-.05.11-.09.16-.04.04-.09.08-.15.11-.06.03-.13.04-.2.04-.04,0-.09,0-.13-.02-.04,0-.08-.03-.12-.05-.03-.02-.06-.05-.08-.09-.02-.04-.03-.08-.03-.13,0-.08.03-.14.08-.18.05-.04.12-.08.19-.1.08-.02.15-.03.24-.04.08,0,.15,0,.2,0h.11ZM19.08,35.56h-1.16v.2h.85l-.9,1.18v.16h1.24v-.2h-.93l.89-1.18v-.16ZM19.74,34.97s-.02-.08-.05-.11c-.03-.03-.07-.04-.11-.04s-.07.01-.11.04c-.03.03-.05.07-.05.11s.02.08.05.11c.03.03.07.04.11.04s.07-.01.11-.04c.03-.03.05-.07.05-.11M19.69,35.56h-.22v1.53h.22v-1.53ZM21.26,35.56h-1.16v.2h.85l-.9,1.18v.16h1.24v-.2h-.93l.89-1.18v-.16ZM24.3,36.59c-.04.07-.09.12-.14.17-.05.04-.11.08-.16.11-.06.03-.12.04-.18.06-.06.01-.12.02-.18.02-.15,0-.28-.03-.4-.08-.12-.06-.22-.13-.3-.22-.08-.09-.14-.2-.19-.32-.04-.12-.07-.25-.07-.38s.02-.26.07-.38c.04-.12.11-.23.19-.32.08-.09.18-.16.3-.22.12-.05.25-.08.4-.08.06,0,.12,0,.18.03.06.02.12.04.17.07.05.03.1.06.14.1.04.04.07.07.1.11l.21-.15c-.1-.13-.23-.22-.37-.28-.14-.06-.29-.09-.43-.09-.17,0-.33.03-.48.09-.15.06-.27.15-.38.25-.11.11-.19.24-.25.38-.06.15-.09.31-.09.49s.03.34.09.49c.06.15.15.28.25.38.11.11.24.19.38.25.15.06.31.09.48.09.1,0,.19,0,.27-.03.09-.02.17-.05.24-.09.07-.04.14-.08.2-.14.06-.05.1-.11.14-.17l-.19-.14ZM25.68,36.15c-.09,0-.19,0-.3.01-.11,0-.21.03-.31.07-.1.03-.18.09-.24.16-.06.07-.1.17-.1.29,0,.07.01.14.04.19.03.06.07.1.12.14.05.04.11.07.17.09.06.02.13.03.2.03.12,0,.23-.02.32-.07.09-.05.16-.12.22-.22h0s0,.08,0,.13c0,.04,0,.08.01.12h.21s-.01-.09-.02-.16c0-.06,0-.13,0-.18v-.68c0-.09-.02-.17-.05-.24-.03-.07-.07-.12-.12-.17-.05-.04-.11-.08-.18-.1-.07-.02-.14-.03-.21-.03-.29,0-.5.07-.65.22l.13.15c.13-.12.29-.18.47-.18.26,0,.39.13.39.4v.04h-.11ZM25.79,36.33v.11c0,.07-.01.13-.03.19-.02.06-.05.11-.09.16-.04.04-.09.08-.15.11-.06.03-.13.04-.2.04-.04,0-.09,0-.13-.02-.04,0-.08-.03-.12-.05-.03-.02-.06-.05-.08-.09-.02-.04-.03-.08-.03-.13,0-.08.03-.14.08-.18.05-.04.12-.08.19-.1.08-.02.15-.03.24-.04.08,0,.15,0,.2,0h.11ZM26.51,37.09h.22v-.78c0-.14.02-.25.06-.33.04-.08.09-.14.14-.18.05-.04.1-.06.15-.07.05,0,.08-.01.09-.01.15,0,.25.04.3.12.05.08.08.2.08.36v.89h.22v-.81c0-.07,0-.14.02-.21.01-.07.04-.13.07-.18.03-.05.08-.09.13-.13.06-.03.12-.05.2-.05.15,0,.25.04.3.12.06.08.08.2.08.36v.89h.22v-.97c0-.19-.05-.34-.14-.44-.09-.1-.24-.16-.43-.16-.1,0-.2.03-.29.09-.1.06-.16.13-.21.23-.03-.07-.06-.12-.1-.16-.04-.04-.08-.07-.12-.1-.04-.02-.09-.04-.14-.05-.05,0-.09-.01-.13-.01-.09,0-.18.02-.28.07-.09.05-.17.11-.22.2h0v-.23h-.23c0,.06,0,.11.01.17s0,.11,0,.17v1.19ZM30.71,36.38v-.1c0-.1-.02-.2-.05-.3-.03-.09-.08-.17-.14-.24-.06-.07-.14-.12-.23-.16-.09-.04-.2-.06-.31-.06-.11,0-.21.02-.3.06-.09.04-.17.1-.25.17-.07.07-.12.16-.16.26-.04.1-.06.2-.06.32s.02.22.06.32c.04.1.1.18.16.26.07.07.15.13.25.17.1.04.2.06.31.06.13,0,.24-.03.36-.08.11-.05.21-.13.3-.25l-.17-.14c-.04.07-.11.13-.19.18-.08.05-.18.08-.3.08-.08,0-.15-.01-.21-.04-.07-.03-.12-.07-.17-.12-.05-.05-.09-.11-.12-.17-.03-.07-.05-.14-.05-.22h1.27ZM29.45,36.21c0-.06.01-.12.04-.18.03-.06.07-.11.12-.16.05-.05.11-.08.17-.11.07-.03.13-.04.2-.04.16,0,.28.05.37.14.09.09.13.21.13.35h-1.03ZM31.37,34.62h-.22v2.47h.22v-2.47ZM32.76,35.99h1.08v-.22h-1.08v-.79h1.16v-.22h-1.39v2.31h.23v-1.09ZM35.69,36.38v-.1c0-.1-.02-.2-.05-.3-.03-.09-.08-.17-.14-.24-.06-.07-.14-.12-.23-.16-.09-.04-.2-.06-.31-.06s-.21.02-.3.06c-.09.04-.18.1-.25.17-.07.07-.12.16-.16.26-.04.1-.06.2-.06.32s.02.22.06.32c.04.1.1.18.17.26.07.07.15.13.25.17.1.04.2.06.32.06.13,0,.24-.03.36-.08.11-.05.21-.13.3-.25l-.17-.14c-.04.07-.11.13-.19.18-.08.05-.18.08-.3.08-.08,0-.15-.01-.21-.04-.07-.03-.12-.07-.17-.12-.05-.05-.09-.11-.12-.17-.03-.07-.05-.14-.06-.22h1.27ZM34.42,36.21c0-.06.01-.12.04-.18.03-.06.07-.11.12-.16.05-.05.11-.08.17-.11.07-.03.13-.04.2-.04.16,0,.28.05.37.14.09.09.13.21.13.35h-1.03ZM37.08,35.8c-.05-.1-.12-.17-.21-.21-.09-.04-.19-.06-.3-.06-.07,0-.14,0-.21.03-.07.02-.13.05-.18.08-.05.04-.1.08-.13.14-.03.06-.05.13-.05.21,0,.07.01.13.05.18.03.05.07.09.11.12.04.03.09.05.13.07.04.02.08.03.11.03l.21.05c.08.02.15.05.21.08.06.03.09.09.09.16,0,.04-.01.08-.03.11-.02.03-.05.06-.08.08-.03.02-.07.04-.12.05-.04.01-.09.02-.13.02-.09,0-.17-.02-.24-.06-.07-.04-.12-.1-.16-.17l-.19.13c.07.11.16.19.26.23.1.04.21.07.33.07.07,0,.15,0,.22-.03.07-.02.14-.05.19-.08.06-.04.1-.09.13-.15.03-.06.05-.13.05-.21,0-.11-.03-.2-.11-.27s-.16-.12-.27-.15l-.22-.05c-.1-.02-.18-.05-.23-.08-.05-.03-.08-.09-.08-.16,0-.04,0-.08.03-.1.02-.03.04-.05.07-.07.03-.02.06-.03.1-.04.04,0,.08-.01.11-.01.08,0,.14.02.2.06.05.04.1.09.13.15l.19-.13ZM38.26,35.56h-.44v-.43h-.22v.43h-.32v.2h.32v.96c0,.09.01.15.04.21.02.05.06.09.09.12.04.03.08.05.12.06.04.01.09.02.13.02.11,0,.21-.02.29-.06v-.2s-.08.03-.12.04c-.04.01-.08.02-.12.02-.03,0-.06,0-.09-.01-.03,0-.05-.02-.07-.04-.02-.02-.03-.05-.04-.08-.01-.03-.02-.08-.02-.14v-.9h.44v-.2ZM38.87,34.97s-.02-.08-.05-.11c-.03-.03-.07-.04-.11-.04s-.08.01-.11.04c-.03.03-.05.07-.05.11s.02.08.05.11c.03.03.07.04.11.04s.07-.01.11-.04c.03-.03.05-.07.05-.11M38.82,35.56h-.22v1.53h.22v-1.53ZM40.64,35.56h-.25l-.49,1.29h0l-.49-1.29h-.26l.62,1.53h.24l.62-1.53ZM41.79,36.15c-.09,0-.19,0-.3.01-.11,0-.21.03-.31.07-.1.03-.18.09-.24.16-.06.07-.1.17-.1.29,0,.07.02.14.04.19.03.06.07.1.12.14.05.04.1.07.17.09.06.02.13.03.2.03.12,0,.23-.02.32-.07.09-.05.16-.12.22-.22h0s0,.08,0,.13c0,.04,0,.08.01.12h.21s-.01-.09-.02-.16c0-.06,0-.13,0-.18v-.68c0-.09-.02-.17-.05-.24-.03-.07-.07-.12-.12-.17-.05-.04-.11-.08-.18-.1-.07-.02-.14-.03-.21-.03-.29,0-.5.07-.65.22l.13.15c.13-.12.29-.18.47-.18.26,0,.39.13.39.4v.04h-.11ZM41.9,36.33v.11c0,.07-.01.13-.03.19-.02.06-.05.11-.09.16-.04.04-.09.08-.15.11-.06.03-.13.04-.2.04-.04,0-.09,0-.13-.02-.04,0-.08-.03-.12-.05-.03-.02-.06-.05-.08-.09-.02-.04-.03-.08-.03-.13,0-.08.03-.14.08-.18.05-.04.12-.08.19-.1.08-.02.15-.03.24-.04.08,0,.15,0,.2,0h.11ZM42.88,34.62h-.22v2.47h.22v-2.47ZM.87,23.17c-.36-.24-.6-.59-.85-.94-.02-.02-.03-.05,0-.07.05-.04.08.01.11.04.65.46,1.36.78,2.12,1,1.17.34,2.38.46,3.59.43,1.68-.04,3.3-.33,4.87-.96.29-.12.29-.13.29-.45,0-.7-.05-1.4-.11-2.1-.01-.14.02-.24.12-.33.08-.07.16-.16.27-.26.01.26.03.48.04.71.01.66.02,1.31.03,1.97,0,.13,0,.26.03.39.12.55.27.57.72.58.1,0,.45.01.78-.07.26-.07.34-.19.34-.46.02-.76-.04-1.51-.08-2.26,0-.02,0-.04,0-.06-.09-.34.08-.56.36-.75.02.39.05.77.06,1.14.01.63.01,1.26.02,1.89,0,.38.18.55.56.56.32.01.62-.03.9-.19.09-.05.13-.11.12-.22-.09-.87-.05-1.74-.11-2.61-.02-.29.14-.45.38-.62-.04.38.09.68.27.96.05.08-.01.1-.05.12-.17.08-.21.22-.2.4.02.49,0,.98.04,1.47,0,.07.02.14.03.21.61-.21.93-.12,1.1.31.17.41,0,.9-.35,1.05-.38.17-.74-.07-1.06-.71-.28.24-.59.36-.96.35-.36,0-.7-.05-.89-.43-.25.41-1.13.49-1.55.44-.33-.04-.55-.24-.66-.55-.04-.13-.09-.12-.19-.07-1.28.6-2.63.92-4.03,1.06-1.17.12-2.33.12-3.5-.07-.9-.15-1.78-.38-2.55-.89M15.66,23.06s-.07.02-.06.08c.04.24.46.54.69.49.07-.02.14-.04.13-.15-.04-.25-.27-.47-.52-.46-.08,0-.16.02-.24.05M35.88,25.08c-.21-.06-.42-.14-.62-.23-.04-.02-.08-.04-.05-.1.02-.04.04-.07.1-.05.65.2,1.1-.13,1.48-.6.05-.06.08-.13.12-.2.12-.2.15-.4-.04-.58-.05-.05-.07-.11-.11-.16-.24-.29-.18-.56.04-.82.06.06.08.15.12.23.18.4.62.64,1.1.63.37,0,.37.02.46-.34.12-.51.26-1.01.54-1.46.02-.03.04-.05.07-.11.27.48.69.87.68,1.46,0,.11-.02.23-.05.34-.02.07-.01.1.07.1.27,0,.54,0,.81,0,.2,0,.34-.12.44-.28.09-.13.14-.29.19-.44.09-.26.25-.48.5-.62.19-.1.38-.12.57,0,.36.21.66,1.08.52,1.46-.1.28-.23.36-.53.33-.35-.04-.65-.2-.93-.39-.08-.06-.12-.09-.17.04-.1.27-.32.4-.6.41-.18,0-.36,0-.57-.04.13.25.19.48.15.72-.11.63-.77.88-1.31.49-.35-.25-.51-.6-.5-1.02,0-.14-.04-.17-.17-.16-.24.01-.66.05-.9-.13.04.55-.21.95-.56,1.3-.24.24-.52.31-.85.22M41.45,22.52c-.04.07-.04.12.02.17.26.26.58.39.93.44.16.02.19-.04.14-.18-.05-.16-.1-.32-.2-.47-.24-.36-.68-.34-.89.03M38.66,23.07s-.05.11.06.1c.21-.01.42,0,.62-.08.18-.07.21-.13.16-.32-.09-.31-.29-.55-.49-.85-.13.41-.24.78-.35,1.14M38.67,23.67c-.06,0-.08.03-.07.1.07.41.55.85.97.86.2,0,.27-.07.25-.27-.04-.45-.37-.72-.86-.71-.1,0-.2.02-.29.03M31.09,21.68c.01.39.01.77.03,1.16.02.51.29.82.75.9.43.08.88-.03,1.23-.16.51-.2.97-.47,1.42-.76.38-.25.65-.28.99-.27.04,0,.1.02.12-.03.07-.13.13-.26.21-.42-.68.07-1.15-.07-1.6-.19-.26-.07-.55-.2-.82-.23-.2-.03-.42-.03-.6.06-.37.19-.53.62-.21,1.18.05-.15.09-.17.07-.36-.01-.15.06-.27.17-.32.1-.05.2-.08.32-.08.45,0,.86.13,1.3.28-.76.45-1.65.88-2.43.78-.39-.05-.58-.26-.56-.65.02-.5,0-1,0-1.51,0-.49-.01-.99-.06-1.52-.08.07-.13.13-.2.18-.16.12-.2.27-.19.47.04.49.06.98.08,1.47M17.35,20.5c.08,1.07.16,2.13.07,3.2,0,.02.02.04.03.06.25-.22.38-.48.39-.81.01-.66.01-1.32-.01-1.98-.02-.44-.03-.88-.09-1.34-.16.13-.27.26-.38.39-.03.04-.04.07-.03.12.01.12.02.24.03.36M6.49,21.7c-.11.08-.24.1-.37.14-.23.06-.46.07-.72.08.34.27.91.26,1.21,0,.15-.12.21-.33.15-.49-.07-.18-.23-.19-.38-.2-.1,0-.2,0-.31,0,.07-.2.21-.31.36-.35.15-.04.17-.14.2-.25.02-.12-.03-.16-.15-.13-.3.09-.65.61-.64.92,0,.1.04.14.14.14.16,0,.32,0,.48,0,.04,0,.08,0,.09.05,0,.03-.03.06-.06.08M25.78,22.22c.23-.26.24-.26-.02-.49q-.25-.23-.46.03c-.04.05-.08.1-.12.16.12.1.24.2.35.31.1.1.16.09.24-.01M33.58,24.32s-.04-.03-.05,0c-.1.12-.19.24-.29.36,0,0,0,.04,0,.04.14.12.28.25.42.37,0,0,.02,0,.03,0,.05,0,.3-.31.31-.37,0,0,0-.03-.02-.04-.13-.13-.26-.26-.4-.36M12.58,29.25c-.07.09-.07.17-.01.27.12.21.22.43.3.66.07.21.04.28-.16.35-.05.02-.1.03-.14.04-.26.05-.52.05-.79.04-.28-.01-.41-.1-.52-.35-.07-.19-.09-.38-.1-.58-.01-.65-.02-1.29-.03-1.93,0-.25-.02-.49-.04-.78-.1.1-.17.17-.25.23-.12.1-.16.22-.15.39.07.69.11,1.38.11,2.08,0,.3,0,.32-.29.44-1.04.43-2.12.69-3.23.84-1.16.16-2.12.18-3.28.04-1.4-.17-2.73-.53-3.9-1.37-.02-.02-.05-.05-.08-.02-.03.03-.01.06,0,.09.3.4.59.81,1.05,1.06.45.25.93.43,1.42.56,1.33.35,2.48.4,3.84.3,1.54-.12,3.03-.45,4.44-1.11.11-.05.13-.02.16.08.11.31.32.52.65.55.32.03.65.02.97-.04.23-.05.38-.18.51-.38.28-.45.11-1.18-.28-1.76-.07.11-.14.22-.21.32M33.41,27.01c.01.32.12.58.27.82.06.1.05.17-.05.21-.14.07-.15.18-.14.32.03.54.08,1.08.03,1.62-.02.2-.07.4-.15.59-.15.39-.45.54-.84.56-.53.02-1.01-.11-1.45-.42-.06-.04-.1-.05-.16,0-.45.32-.95.44-1.5.42-.16,0-.31-.03-.45-.14.04.52-.18.9-.49,1.24-.25.27-.54.39-.91.29-.21-.06-.42-.14-.62-.23-.05-.02-.09-.04-.06-.11.03-.06.06-.05.12-.04.8.27,1.57-.54,1.69-1.07.02-.07-.01-.13-.05-.18-.11-.17-.22-.34-.32-.52-.06-.1-.07-.19,0-.29.06-.1.09-.22.18-.32.05.11.1.22.15.32.17.33.39.55.81.54.42,0,.82-.01,1.22-.2-.23-.21-.46-.42-.69-.63-.04-.03-.1-.06-.15-.06-.12,0-.12-.04-.09-.15.05-.24.17-.35.43-.39.64-.1,1.27-.13,1.9.06.12.04.13.08.1.2-.06.2-.16.37-.32.5-.16.13-.31.28-.48.43.3.18.62.23.95.23.13,0,.25.01.38,0,.34-.06.49-.22.48-.56-.01-.48-.04-.96-.07-1.44-.02-.32-.04-.64-.08-.96-.04-.3.14-.46.36-.64M31.03,30.18s.07.05.11.01c.23-.18.48-.35.69-.57-.43-.14-.97-.15-1.47-.03.21.23.43.41.67.59M42.05,30.22c-.44.13-.77-.05-1.03-.37-.25-.3-.17-.52.2-.64.36-.11.71-.09,1.02.13.03.02.06.07.11.02.03-.03.03-.05.02-.09-.1-.28-.49-.58-.8-.6-.41-.03-.78.24-.98.7-.16.38-.08.75.23,1.02.05.04.09.08.16.13-.39.11-.76.12-1.12.06-.32-.05-.45-.26-.39-.59.02-.12.04-.23.07-.36-.29.16-.3.15-.39.53-.05.22-.19.34-.39.4-.11.03-.22.05-.33.05-.49,0-.69-.15-.79-.63-.02-.09-.04-.18-.06-.27-.1-.49-.19-.98-.33-1.5-.07.1-.12.17-.18.24-.1.12-.12.24-.07.39.09.29.15.58.22.88.11.51.04.63-.45.81-.05.02-.1.03-.16.05-.44.11-.73,0-.87-.42-.01-.05-.03-.11-.06-.11-.02,0-.02.04-.02.11,0,.13-.03.26,0,.38.04.34.26.58.61.58.49,0,.92-.16,1.19-.63.12.39.37.63.8.64.38,0,.73-.05.97-.41.13.24.32.35.56.39.25.04.51.05.76,0,.68-.17,1.36-.37,2.03-.57.04-.01.07-.02.09-.07.06-.15.13-.3.2-.47-.29.08-.55.16-.82.23M17.74,27.02c-.28.19-.39.42-.35.75.09.75.13,1.5.14,2.26,0,.15,0,.3-.13.41-.35.35-1.05.17-1.18-.29-.06-.2-.07-.4-.07-.61-.01-.78-.03-1.57-.04-2.35,0-.06.02-.12-.04-.19-.17.16-.35.28-.32.56.05.61.06,1.22.03,1.83-.02.39-.19.72-.44.86.03-.3,0-.46-.13-.74-.19-.42-.45-.79-.72-1.16-.07-.1-.1-.18-.01-.29.04-.05.06-.09-.02-.14-.24-.15-.47-.32-.69-.52-.16.24-.15.46.03.69.31.39.6.79.87,1.2.19.29.38.59.49.93.04.11.02.17-.09.24-.34.2-.68.38-1.05.52-.06.02-.11.04-.17.07-.05.03-.12.03-.17.1.98.12,1.77-.11,2.14-1.15.02.13.03.23.04.33.07.42.37.75.72.78.52.04.89-.07,1.08-.55.08-.19.13-.39.15-.59.05-.54,0-1.08-.03-1.62,0-.13,0-.25.14-.31.1-.05.1-.12.05-.21-.15-.25-.26-.51-.27-.81M26.38,28.94c-.09.13-.15.24-.23.34-.07.09-.07.17-.01.27.11.2.21.41.28.63.09.25.03.26-.2.4-.6.34-3.42.5-4.83.06-.41-.13-.64-.23-.81-.59-.05-.1-.09-.19-.15-.31-.07.13-.11.24-.17.35-.05.1-.04.18,0,.27.1.18.21.35.32.52.04.05.07.1.06.18-.12.7-1,1.26-1.68,1.08-.06-.02-.1-.03-.13.04-.03.07.03.08.07.1.17.09.35.15.54.21.41.13.74.02,1.01-.3.29-.34.51-.71.47-1.2.14.07.23.1.34.13,1.68.4,4.11.22,4.68.01.54-.2.88-.42.85-1-.02-.42-.19-.79-.4-1.19M34.73,27.1c-.15.12-.26.25-.37.38-.03.04-.04.07-.04.12.01.13.02.25.03.38.08,1.05.16,2.11.07,3.17,0,.03,0,.05.04.07.02-.02.04-.03.06-.05.24-.23.32-.52.33-.85,0-.84,0-1.67-.04-2.51-.01-.23-.01-.46-.07-.71M14.88,32.12c-.08,0-.16,0-.25,0-.13,0-.25-.03-.36-.1-.05-.03-.1-.07-.1-.14,0-.08.07-.1.12-.12.17-.07.28-.04.41.13.08-.1.17-.2.1-.34-.08-.13-.21-.12-.34-.09-.14.03-.26.11-.37.21-.28.27-.24.52.11.7-.11.08-.22.16-.26.32.28-.11.55-.22.83-.25.21-.02.29-.14.35-.32h-.25M20.09,28.36c-.06.07-.12.14-.18.21q-.15.19.03.34c.07.06.14.11.2.18.07.09.13.07.2,0,.26-.26.26-.29-.01-.54-.07-.06-.14-.12-.23-.19M28.14,28.4c-.1.12-.22.23-.27.37-.02.07.14.14.21.21.05.05.11.1.17.15.02.02.04.06.08.03.12-.1.22-.22.3-.36-.01-.01-.02-.03-.03-.04-.13-.11-.25-.23-.38-.34-.02-.02-.05-.05-.08-.01M12.92,32.11c-.06-.06-.14-.11-.2-.17-.06-.06-.11-.05-.14.02-.06.13-.26.18-.2.38,0,0,0,0,.01.01.11.1.22.2.33.29.02.02.04.03.06.05.01,0,.03-.01.03-.02.11-.1.23-.2.28-.34.03-.09-.11-.14-.18-.21M39.48,32.15c-.07-.08-.16-.14-.23-.21-.02-.02-.04-.03-.06-.05-.02.01-.03.01-.03.02-.09.12-.22.23-.27.37-.03.07.13.14.21.21.06.05.11.1.17.15.02.02.05.06.08.03.12-.1.23-.2.28-.34.04-.09-.09-.13-.14-.19M25.11,31.96s-.05-.02-.07,0c-.09.11-.21.21-.26.34-.02.07.13.14.2.21.05.05.11.11.17.16.02.02.04.06.08.04.03,0,.28-.31.28-.35,0,0-.01-.03-.02-.04-.13-.12-.26-.24-.38-.36M25.92,31.93c-.08-.08-.12-.02-.15.03-.06.11-.25.15-.18.33,0,0,0,0,.01.01.11.1.22.2.33.3.02.02.04.05.08.04.03,0,.28-.31.28-.35-.01-.02-.03-.04-.05-.06-.11-.1-.22-.2-.32-.31M15.17,18.82l.16-.3h0c-.43.15-1,.35-1.55.53l-.06.27h0c.48-.15.97-.32,1.45-.51M12.4,25.37h0c.48-.15.97-.32,1.45-.51l.16-.3h0c-.43.15-1,.35-1.55.53l-.06.27ZM1.16,25.37h0c.48-.15.97-.32,1.45-.51l.16-.3h0c-.43.15-1,.35-1.55.53l-.06.27ZM10.21,32.49l-.06.27h0c.48-.15.97-.32,1.45-.51l.16-.3h0c-.43.15-1,.35-1.55.53M8,32.49l-.06.27h0c.48-.15.97-.32,1.45-.51l.16-.3h0c-.43.15-1,.35-1.55.53M27.32,33.29l-.06.27h0c.48-.15.97-.32,1.45-.51l.16-.29h0c-.43.15-1,.35-1.55.53M30.05,27.88h0c.48-.15.97-.31,1.45-.51l.16-.3h0c-.43.15-1,.35-1.55.53l-.06.27ZM38.3,19.98l.16-.29h0c-.43.15-2.25.82-2.8,1l-.06.27h0c.48-.15,2.22-.79,2.7-.98M42.41,19.98l.16-.29h0c-.43.15-1,.35-1.55.53l-.06.27h0c.48-.15.97-.32,1.45-.51M40.44,27.88h0c.48-.15.97-.31,1.45-.51l.16-.3h0c-.43.15-1,.35-1.55.53l-.06.27ZM35.69,32.41l-.06.27h0c.48-.15,1.5-.51,1.98-.71l.16-.3h0c-.43.15-1.53.55-2.08.73M27.12,21.08c.35-.14.75-.29.99-.47-.32-.06-.48-.17-.48-.4,0-.3.29-.54.54-.54.15,0,.34.14.34.56,0,.06,0,.11-.02.17.05,0,.1.02.14.05l-.19.26s-.06-.03-.1-.04c-.22.28-.62.44-.82.51-.06,0-.36-.02-.39-.07v-.02ZM27.81,20.08c0,.13.2.24.49.3,0-.02.01-.05.01-.07,0-.18-.13-.39-.28-.39-.12,0-.23.09-.23.16M38.19,27.36c-.1-.16-.23-.24-.36-.24-.01,0-.05.05-.1.14-.06.09-.08.15-.08.16,0,.03.03.08.09.14.07.06.13.09.16.09s.06-.01.06-.02c.01-.02.02-.02.06-.02s.09.1.18.33c.09.22.14.37.14.45,0,.05.01.07.02.07.02,0,.05-.02.08-.08.05-.08.08-.21.11-.4.08-.44.16-.67.26-.67.03,0,.08.03.12.08.05.05.07.07.08.07.02,0,.06-.02.07-.09.02-.05.02-.09.02-.13s-.02-.08-.07-.15c-.05-.07-.1-.1-.16-.1-.1,0-.2.1-.29.31-.08.3-.14.53-.15.68-.01.02-.02.03-.02.05h-.01v-.05c-.05-.25-.12-.46-.22-.61M21.45,22.66s.06-.01.06-.02c.01-.02.02-.02.06-.02s.09.1.18.33c.09.22.14.37.14.45,0,.05.01.07.02.07.02,0,.05-.02.08-.08.05-.08.08-.21.11-.4.08-.44.16-.67.26-.67.03,0,.08.03.11.08.05.05.07.07.08.07.02,0,.06-.02.07-.09.02-.05.02-.09.02-.13s-.02-.08-.07-.15c-.05-.07-.1-.1-.16-.1-.1,0-.2.1-.29.31-.08.3-.14.53-.15.68-.01.02-.02.03-.02.05h-.01v-.05c-.05-.25-.11-.46-.22-.61-.1-.16-.23-.24-.36-.24-.01,0-.05.05-.1.14-.06.09-.08.15-.08.16,0,.03.03.08.09.14.07.06.13.09.16.09M7.34,28.56c-.1-.16-.23-.24-.36-.24-.01,0-.08.1-.18.3-.06.12-.21.26-.44.44-.56.38-1,.64-1.31.82-.07.04-.1.08-.1.09h.01s.06-.01.12-.02c.38-.15.59-.22.62-.24.18-.08.38-.2.59-.36.21-.15.37-.33.48-.54.02-.04.04-.08.06-.11.01.02.03.04.06.07.08.06.13.09.17.09.03,0,.06-.01.07-.02,0-.02.02-.03.05-.03.03,0,.1.11.18.34.09.22.14.37.14.45,0,.05.01.07.02.07.02,0,.05-.02.08-.08.05-.08.08-.22.11-.4.08-.45.17-.67.26-.67.03,0,.08.02.12.08.05.05.07.07.08.07.03,0,.06-.03.07-.09.02-.06.03-.09.03-.13s-.02-.09-.08-.15c-.05-.07-.1-.12-.16-.12-.1,0-.19.12-.29.32-.08.3-.13.52-.15.67-.01.03-.02.05-.02.05t-.01,0v-.05c-.05-.24-.12-.45-.22-.6M9.25,20.88c0,.17-.03.34-.1.52-.08.23-.14.41-.16.57-.01.06-.01.12-.01.17,0,.29.07.42.22.42.14,0,.24-.17.3-.52.01-.01.01-.03,0-.03t-.01,0s-.01.01-.01.02c-.08.15-.15.23-.21.23-.1,0-.16-.1-.16-.3,0-.09.05-.26.15-.52.09-.25.15-.49.15-.71,0-.47-.16-.83-.46-1.08-.02-.01-.03-.01-.05,0l-.1.18s-.01.06.01.08c.3.3.45.62.45.95M21.77,29.33c-.01.06-.01.12-.01.17,0,.29.07.43.22.43.14,0,.24-.17.3-.52.01-.01.01-.03,0-.03t-.01,0s-.01.01-.01.02c-.08.15-.15.23-.21.23-.1,0-.16-.1-.16-.3,0-.09.05-.26.15-.52.09-.25.15-.49.15-.71,0-.47-.16-.83-.46-1.08-.02-.01-.03-.01-.05,0l-.1.18s-.01.06.01.08c.3.3.45.62.45.95,0,.17-.03.34-.1.52-.08.23-.14.41-.16.57M19.23,20.41c-.07.11-.2.12-.3.06-.11-.07-.2-.09-.31.03-.02.03-.1.12-.1.08,0,0,.1-.4.28-.41.19-.02.25.22.46,0,0,0,0,0-.02-.04-.02-.04-.12-.17-.08-.27.02-.07.1-.13.1-.13,0,0,.04.3.22.39.02,0,.03.02.05.02.09-.12.34-.4.52-.46.23-.08.26.24.18.37-.08.14-.36.33-.66.32-.31,0-.18-.22-.34.03M20.12,19.93s-.14-.15-.52.24c.16.02.35-.06.43-.11.1-.06.13-.09.09-.13M35.96,27.83c-.07.11-.2.12-.3.06-.11-.07-.2-.09-.31.04-.02.03-.1.12-.1.08,0,0,.1-.4.28-.41.19-.01.25.22.46,0,0,0,0,0-.02-.04-.02-.04-.12-.18-.08-.27.02-.07.1-.13.1-.13,0,0,.04.3.22.39.02,0,.03.02.05.02.09-.12.34-.4.52-.46.23-.08.26.24.18.37-.08.14-.36.33-.66.32-.31,0-.18-.22-.34.03M36.85,27.35s-.14-.15-.52.24c.16.02.35-.06.43-.11.1-.06.13-.09.09-.13M24.66,28.3c-.06.04-.13.07-.19.11-.1.06-.2.11-.31.17-.03.02-.06.03-.1.08.03,0,.05,0,.06,0,.15-.05.3-.09.45-.13.04-.01.08-.04.11-.07.07-.07.13-.14.19-.22.04-.05.07-.11.1-.16.03-.06.02-.09-.04-.11-.04-.02-.09-.03-.13-.03-.16-.02-.31-.02-.47-.02-.07,0-.13.03-.18.08-.05.07-.09.14-.12.22,0,0,0,0,0,.01.02,0,.04,0,.06,0,.16,0,.32,0,.48.01.04,0,.07,0,.11.03-.01.01-.02.03-.04.04M19.43,23.02s-.1-.09-.02.1c.09.19.3.71.66,1.07.36.36,1.94,1.6,5.18,1.44,3.24-.16,4.66-1.6,4.93-2.25.27-.65.2-1.64-.38-2.35-.05-.06-.27.36-.3.43-.04.11.17.24.37.75.2.51.28.77-.34,1.36-.63.59-2.45,1.62-5.32,1.5-2.65-.12-4.18-1.45-4.71-1.98,0,0-.04-.05-.07-.07"/>
</svg>