<?xml version="1.0" encoding="UTF-8"?>
<svg id="Layer_1" data-name="Layer 1" xmlns="http://www.w3.org/2000/svg" viewBox="0 0 90 45">
  <defs>
    <style>
      .cls-1 {
        fill: #fff;
      }
    </style>
  </defs>
  <path class="cls-1" d="M32.71,37.56c-.31,0-.54.08-.71.25-.17.17-.25.4-.25.71v.72h-1.04v-.75c0-.32-.08-.56-.24-.71-.16-.15-.4-.23-.74-.23-.29,0-.52.06-.68.17-.16.11-.26.29-.31.52l.38.04c.04-.15.11-.26.19-.32.09-.06.22-.09.41-.09.21,0,.36.05.45.15.09.1.13.27.13.51v.7h-2.46c.13-.08.24-.19.31-.32.07-.14.11-.28.11-.44,0-.28-.09-.5-.26-.67-.18-.17-.41-.25-.7-.25s-.54.08-.71.25c-.17.17-.25.4-.25.7v.72h-1v-.41c0-.42-.1-.74-.29-.95-.19-.21-.48-.32-.85-.32-.22,0-.43.03-.63.1l.09.33c.16-.06.33-.09.5-.09.27,0,.46.08.59.23.12.16.19.4.19.74v.37h-1.63v.34h9.06c.41,0,.73-.1.96-.29.23-.19.35-.46.35-.8,0-.29-.09-.52-.26-.69-.17-.17-.41-.25-.7-.25M27.67,39.05c-.14.13-.35.19-.61.19h-.32v-.72c0-.43.19-.65.57-.65.18,0,.32.05.42.16.1.11.15.26.15.46,0,.24-.07.42-.21.55M33.07,39.06c-.14.13-.35.19-.62.19h-.3v-.72c0-.43.19-.65.57-.65.18,0,.32.05.42.16.1.11.15.26.15.46,0,.24-.07.42-.22.55M38.36,39.91h.39v.41h-.39v-.41ZM21.43,36.43h.39v3.15h-.39v-3.15ZM71.03,37.11v.12h-.38v-.41h.38v.29ZM20.39,39.25h-1.38c.13-.08.24-.19.31-.32.08-.14.11-.28.11-.44,0-.28-.09-.5-.26-.67-.18-.17-.41-.25-.7-.25s-.54.08-.71.25c-.17.17-.25.4-.25.7v.72h-1.06v-2.81h-.39v2.81h-1.15v-.54c0-.38-.1-.65-.29-.82-.2-.17-.51-.25-.95-.25h-.37l1.55-1.2h-.52l-1.57,1.22v.3h.85c.23,0,.41.02.55.07.13.05.23.13.29.24.06.11.09.28.09.49v.5h-2.48v-1.61h-.39v1.61h-1.06v-.72c0-.31-.08-.55-.24-.71-.16-.16-.39-.25-.69-.25s-.54.09-.72.26c-.18.17-.27.4-.27.69,0,.34.11.61.34.79.23.19.55.28.97.28h10.81v-3.15h-.39v2.81ZM10.2,39.25h-.29c-.27,0-.48-.06-.63-.19-.15-.13-.22-.31-.22-.55,0-.2.05-.35.15-.46.1-.11.25-.16.43-.16s.33.06.42.17c.09.11.13.29.13.53v.67ZM18.82,39.05c-.14.13-.35.19-.61.19h-.32v-.72c0-.43.19-.65.57-.65.18,0,.32.05.42.16.1.11.15.26.15.46,0,.24-.07.42-.21.55M36.46,37.02v.21h-.39v-.41h.39v.21ZM10.13,37.07v.16h-.38v-.41h.38v.25ZM11.67,39.91h.38v.41h-.38v-.41ZM41.21,37.08v.14h-.39v-.41h.39v.27ZM9.51,37.02v.21h-.38v-.41h.38v.21ZM44.19,37.11v.12h-.39v-.41h.39v.29ZM70.41,37.08v.14h-.38v-.41h.38v.27ZM11.04,39.91h.38v.41h-.38v-.41ZM65.32,40.43h.51v.16h-.81v-.16h.11v-.24c0-.1.03-.18.09-.24.06-.06.15-.08.26-.08.1,0,.18.02.24.07.06.04.09.11.11.21l-.18.03s-.03-.09-.05-.11c-.02-.02-.06-.03-.11-.03-.11,0-.16.05-.16.16v.24ZM59.46,37.56c-.31,0-.54.08-.71.25-.17.17-.25.41-.25.71v.72h-.56v1.7h.39v-1.36h.79c.41,0,.73-.1.96-.29.23-.19.35-.46.35-.8,0-.29-.09-.52-.26-.69-.17-.17-.41-.25-.71-.25M59.82,39.06c-.15.13-.35.19-.62.19h-.3v-.72c0-.43.19-.65.57-.65.18,0,.32.05.42.16.1.11.15.26.15.46,0,.24-.07.42-.22.55M38.73,37.76c.02.07.03.15.03.25v1.57h-1.56c-.02.3-.11.54-.29.7-.18.16-.42.25-.73.25-.35,0-.62-.09-.81-.26-.19-.17-.28-.42-.28-.75,0-.12.02-.24.06-.37.04-.13.09-.24.15-.35l.36.09c-.12.21-.18.42-.18.63s.06.39.18.51c.12.12.29.18.51.18.43,0,.64-.24.64-.72v-1.86h.39v1.61h1.17v-1.19c0-.13-.03-.24-.08-.33l.35-.15c.04.06.08.12.09.18M63.39,37.56c-.31,0-.54.08-.71.25-.17.17-.25.4-.25.71v.72h-1.05v-2.81h-.39v3.15h2.07c.41,0,.73-.1.96-.29.23-.19.35-.46.35-.8,0-.29-.09-.52-.26-.69-.17-.17-.41-.25-.7-.25M63.74,39.06c-.14.13-.35.19-.62.19h-.3v-.72c0-.43.19-.65.57-.65.18,0,.32.05.42.16.1.11.15.26.15.46,0,.24-.07.42-.22.55M67.6,36.43h.39v3.15h-.39v-3.15ZM81.07,37.82c-.17-.17-.41-.25-.7-.25s-.54.08-.71.25c-.17.17-.25.4-.25.71v.72h-1.04v-.75c0-.32-.08-.56-.24-.71-.16-.15-.4-.23-.74-.23-.29,0-.52.06-.68.17-.16.11-.26.29-.31.52l.38.04c.04-.15.11-.26.19-.32.09-.06.23-.09.41-.09.21,0,.36.05.45.15.09.1.13.27.13.51v.7h-2.46c.13-.08.24-.19.31-.32.07-.14.11-.28.11-.44,0-.28-.09-.5-.26-.67-.18-.17-.41-.25-.7-.25s-.54.08-.71.25c-.17.17-.25.4-.25.7v.72h-1.06v-1.61h-.39v1.61h-1.05v-.72c0-.31-.08-.55-.24-.71-.16-.16-.39-.25-.69-.25s-.54.09-.72.26c-.18.17-.27.4-.27.69,0,.34.11.61.34.79.23.19.55.28.97.28h9.15c.41,0,.73-.1.96-.29.23-.19.35-.46.35-.8,0-.29-.09-.52-.26-.69M71.1,39.25h-.29c-.27,0-.48-.06-.63-.19-.14-.13-.22-.31-.22-.55,0-.2.05-.35.15-.46.1-.11.25-.16.43-.16s.33.06.42.17c.09.11.13.29.13.53v.67ZM75.32,39.05c-.14.13-.35.19-.61.19h-.32v-.72c0-.43.19-.65.56-.65.18,0,.32.05.42.16.1.11.15.26.15.46,0,.24-.07.42-.21.55M80.72,39.06c-.15.13-.35.19-.62.19h-.3v-.72c0-.43.19-.65.57-.65.18,0,.32.05.42.16.1.11.15.26.15.46,0,.24-.07.42-.22.55M71.95,39.91h.38v.41h-.38v-.41ZM72.57,39.91h.38v.41h-.38v-.41ZM66.55,36.43h.39v3.15h-2.23v-.34h.56v-1.61h.39v1.61h.88v-2.81ZM42.41,39.91h.38v.41h-.38v-.41ZM41.79,39.91h.38v.41h-.38v-.41ZM42.76,37.76c.02.07.03.15.03.25v1.57h-1.57v.22c0,.24-.06.43-.17.55-.11.12-.28.18-.51.18-.13,0-.27-.02-.42-.06l.07-.3c.14.03.24.04.29.04.12,0,.21-.03.26-.09.05-.06.08-.16.08-.28v-2.2h.39v1.61h1.18v-1.19c0-.13-.03-.24-.08-.33l.36-.15c.04.06.07.12.09.18M49.04,36.43h.39v3.15h-.39v-3.15ZM53.04,39.91h.39v.41h-.39v-.41ZM54.99,39.25h1.63v.34h-6.73v-.34h1.63v-.37c0-.34-.06-.59-.19-.74-.12-.16-.32-.23-.59-.23-.17,0-.34.03-.5.09l-.09-.33c.2-.07.4-.1.63-.1.38,0,.66.11.85.32.19.21.29.53.29.95v.41h1.12v-1.61h.39v1.61h1.17v-.73c0-.32.08-.56.25-.71.17-.16.42-.24.76-.24.28,0,.5.06.65.17.15.11.24.28.29.52l-.38.04c-.04-.15-.1-.26-.18-.32-.08-.06-.21-.09-.39-.09-.21,0-.37.05-.46.15-.09.1-.14.27-.14.51v.7ZM48,36.43h.39v3.15h-4.19v.22c0,.24-.06.43-.17.55-.11.12-.28.18-.51.18-.13,0-.27-.02-.42-.06l.07-.3c.14.03.24.04.29.04.12,0,.21-.03.26-.09.05-.06.08-.16.08-.28v-2.2h.39v1.61h1.17v-.73c0-.32.08-.56.25-.71.17-.16.42-.24.76-.24.28,0,.5.06.65.17.15.11.24.28.29.52l-.38.04c-.04-.15-.1-.26-.18-.32-.08-.06-.21-.09-.39-.09-.22,0-.37.05-.46.15-.09.1-.14.27-.14.51v.7h2.24v-2.81Z"/>
  <path class="cls-1" d="M11.39,42.22h.3v2.18h-.3v-2.18ZM12.16,42.83h.28v.24c.08-.1.16-.17.25-.22.09-.05.18-.07.28-.07.13,0,.23.03.3.08.08.05.13.12.17.22.08-.1.16-.17.26-.22.1-.05.2-.07.31-.07.16,0,.29.04.38.13.09.08.13.22.13.41v1.09h-.28v-1.03c0-.07,0-.13-.02-.18-.01-.05-.03-.09-.06-.11-.02-.03-.06-.05-.09-.06-.04-.01-.08-.02-.13-.02s-.1,0-.16.02c-.05.02-.11.04-.16.09-.04.03-.08.08-.11.13-.03.05-.04.11-.04.17v1h-.28v-1.03c0-.14-.02-.23-.08-.29-.05-.05-.12-.08-.22-.08-.11,0-.21.04-.31.13-.04.03-.07.07-.11.13-.03.05-.05.12-.05.2v.94h-.28v-1.58ZM15.98,44.19c-.06.07-.14.13-.23.18-.09.05-.21.08-.35.08-.08,0-.16-.01-.23-.03-.07-.02-.13-.05-.18-.09-.05-.04-.09-.09-.12-.15-.03-.06-.04-.13-.04-.21,0-.11.02-.2.07-.26.05-.07.11-.12.19-.16.08-.04.17-.07.27-.08.1-.02.21-.03.31-.03h.29v-.07c0-.13-.03-.23-.09-.29-.06-.06-.16-.09-.29-.09s-.23.02-.29.06c-.06.04-.1.1-.12.17l-.26-.03c.03-.14.1-.25.22-.32.11-.07.27-.1.47-.1.12,0,.22.01.31.04s.15.07.2.12c.05.05.09.11.11.19.02.08.03.16.03.25v1.03h-.27v-.22ZM15.97,43.61h-.27c-.11.01-.21.02-.28.04-.08.02-.13.04-.18.07-.04.03-.08.06-.09.1-.02.04-.03.09-.03.14,0,.08.03.14.08.19.05.05.13.07.25.07.17,0,.3-.04.39-.12.09-.08.14-.18.14-.32v-.18ZM16.68,42.83h.28v.24c.08-.1.16-.17.25-.22.09-.05.18-.07.28-.07.13,0,.23.03.3.08.08.05.13.12.17.22.08-.1.16-.17.26-.22.1-.05.2-.07.31-.07.16,0,.29.04.38.13.09.08.13.22.13.41v1.09h-.28v-1.03c0-.07,0-.13-.02-.18-.01-.05-.03-.09-.06-.11-.02-.03-.06-.05-.09-.06-.04-.01-.08-.02-.13-.02s-.1,0-.16.02c-.05.02-.11.04-.16.09-.04.03-.08.08-.11.13-.03.05-.04.11-.04.17v1h-.28v-1.03c0-.14-.03-.23-.08-.29-.05-.05-.12-.08-.22-.08-.11,0-.21.04-.31.13-.04.03-.07.07-.11.13-.03.05-.05.12-.05.2v.94h-.28v-1.58ZM20.9,42.22h.31l.9,2.18h-.32l-.24-.61h-.99l-.24.61h-.31l.9-2.18ZM21.45,43.55l-.41-1.01-.4,1.01h.81ZM22.36,42.22h.28v.82c.07-.09.15-.15.24-.2.09-.05.2-.07.32-.07s.22.02.31.06c.09.04.16.1.22.17.06.07.1.16.13.26.03.1.04.21.04.33,0,.13-.02.25-.05.35-.03.1-.08.19-.15.27-.07.07-.14.13-.23.17s-.19.06-.31.06c-.1,0-.19-.02-.28-.06-.09-.04-.17-.1-.25-.19v.2h-.28v-2.18ZM22.64,43.66c0,.1.01.19.04.26.02.07.06.13.1.18.04.05.1.08.16.1.06.02.13.03.2.03s.13-.01.19-.03c.06-.02.11-.06.15-.11.04-.05.08-.11.1-.19.03-.08.04-.18.04-.29s-.01-.21-.04-.29c-.03-.08-.06-.14-.1-.19-.04-.05-.09-.08-.15-.1-.05-.02-.11-.03-.17-.03-.07,0-.14.01-.2.04-.06.02-.12.06-.16.1s-.08.1-.11.17c-.03.07-.04.15-.04.24v.11ZM25.44,44.18c-.07.09-.15.16-.24.2s-.2.07-.32.07-.23-.02-.32-.06-.16-.1-.22-.18c-.06-.07-.1-.16-.13-.26-.03-.1-.04-.21-.04-.33,0-.13.02-.25.05-.35.03-.1.08-.19.15-.27.06-.07.14-.13.23-.17.09-.04.19-.06.31-.06.09,0,.18.02.27.05.09.03.17.1.25.19v-.8h.28v2.18h-.27v-.23ZM25.44,43.57c0-.13-.01-.22-.04-.29-.03-.07-.08-.13-.14-.18-.05-.04-.09-.06-.14-.08-.05-.01-.1-.02-.16-.02-.07,0-.13.01-.19.03-.06.02-.11.06-.16.11-.04.05-.08.11-.1.19-.02.08-.04.17-.04.29s.01.21.04.29c.03.08.06.14.11.19.04.05.09.08.15.1.05.02.11.03.17.03.06,0,.12,0,.17-.02.05-.01.1-.04.15-.07.07-.05.11-.11.15-.18.03-.07.05-.17.05-.28v-.11ZM26.14,42.83h.28v1c0,.15.03.25.08.31.05.06.13.09.25.09.13,0,.24-.04.34-.13.05-.04.09-.09.12-.14.03-.05.04-.11.04-.19v-.94h.28v1.58h-.28v-.24c-.08.1-.17.18-.26.22-.1.05-.2.07-.31.07-.19,0-.33-.05-.41-.15-.09-.1-.13-.24-.13-.44v-1.05ZM27.97,42.22h.28v2.18h-.28v-2.18ZM29.73,44.19c-.06.07-.14.13-.23.18-.09.05-.21.08-.35.08-.08,0-.16-.01-.23-.03-.07-.02-.13-.05-.18-.09-.05-.04-.09-.09-.12-.15-.03-.06-.04-.13-.04-.21,0-.11.02-.2.07-.26.05-.07.11-.12.19-.16.08-.04.17-.07.27-.08.1-.02.21-.03.31-.03h.29v-.07c0-.13-.03-.23-.09-.29-.06-.06-.16-.09-.29-.09s-.23.02-.29.06c-.06.04-.1.1-.12.17l-.26-.03c.03-.14.1-.25.22-.32.11-.07.27-.1.47-.1.12,0,.22.01.31.04.08.03.15.07.2.12.05.05.09.11.11.19.02.08.03.16.03.25v1.03h-.27v-.22ZM29.72,43.61h-.27c-.11.01-.21.02-.28.04-.08.02-.14.04-.18.07-.04.03-.08.06-.09.1-.02.04-.03.09-.03.14,0,.08.03.14.08.19.05.05.13.07.25.07.17,0,.3-.04.39-.12.09-.08.14-.18.14-.32v-.18ZM30.3,44.21l.97-1.17h-.95v-.21h1.3v.2l-.97,1.17h1.02l-.04.21h-1.34v-.2ZM31.93,42.22h.3v.31h-.3v-.31ZM31.95,42.83h.28v1.58h-.28v-1.58ZM32.54,44.21l.97-1.17h-.95v-.21h1.3v.2l-.97,1.17h1.02l-.04.21h-1.33v-.2ZM35,42.22h.77c.16,0,.3.02.4.04.11.03.19.07.25.12.06.05.1.11.13.18.02.07.04.14.04.22,0,.1-.02.19-.07.27-.05.08-.13.15-.25.2.08.03.14.06.19.1.05.04.09.08.12.13.03.05.05.09.06.14.01.05.02.1.02.15,0,.09-.02.17-.04.25-.03.08-.08.14-.14.2-.06.06-.15.1-.25.13-.11.03-.24.05-.39.05h-.82v-2.18ZM35.81,43.15c.17,0,.3-.03.37-.09.08-.06.11-.15.11-.26s-.04-.2-.12-.26c-.08-.05-.22-.08-.42-.08h-.47v.69h.51ZM35.82,44.17c.11,0,.19,0,.26-.03.07-.02.13-.04.17-.08.04-.03.07-.07.09-.12.02-.05.02-.1.02-.16,0-.13-.04-.23-.12-.29-.08-.07-.21-.1-.4-.1h-.55v.79h.52ZM37,42.22h.3v.31h-.3v-.31ZM37.01,42.83h.28v1.58h-.28v-1.58ZM37.73,42.83h.28v.24c.08-.1.17-.18.27-.22.1-.05.2-.07.31-.07.19,0,.33.05.42.15.09.1.14.24.14.43v1.05h-.28v-1c0-.15-.03-.25-.08-.31-.06-.06-.14-.09-.26-.09-.06,0-.12.01-.19.03-.06.02-.12.05-.17.1-.05.04-.09.09-.12.14-.03.05-.04.11-.04.19v.94h-.28v-1.58ZM40.42,42.22h.37l.74,1.85.76-1.85h.36v2.18h-.27v-1.72l-.72,1.72h-.24l-.71-1.72v1.72h-.27v-2.18ZM43.82,44.46c-.13,0-.24-.02-.34-.06-.1-.04-.18-.09-.25-.17-.07-.07-.12-.16-.16-.26-.04-.1-.05-.22-.05-.35s.02-.24.06-.35c.04-.1.09-.19.16-.27.07-.07.16-.13.26-.17.1-.04.21-.06.33-.06s.24.02.34.06c.1.04.18.09.25.17.07.07.12.16.16.26.04.1.05.22.05.35s-.02.25-.06.35c-.04.1-.09.19-.16.27-.07.07-.16.13-.26.17-.1.04-.21.06-.34.06M43.82,44.24c.09,0,.17-.02.23-.05.06-.03.12-.07.16-.13.04-.05.07-.12.09-.2.02-.08.03-.16.03-.25s0-.17-.03-.25c-.02-.08-.05-.14-.09-.19-.04-.05-.1-.1-.16-.13-.07-.03-.14-.05-.23-.05s-.17.02-.23.05c-.06.03-.12.07-.16.13-.04.05-.07.12-.09.19-.02.08-.03.16-.03.25s0,.18.03.25c.02.08.05.14.09.2.04.05.09.1.16.13.07.03.14.05.23.05M44.97,42.22h.28v.84c.08-.1.17-.17.27-.22.1-.05.2-.07.31-.07.19,0,.33.05.42.15.09.1.14.24.14.43v1.05h-.28v-1c0-.15-.03-.25-.08-.31-.06-.06-.14-.09-.26-.09-.06,0-.12.01-.19.03-.06.02-.12.05-.17.1-.05.04-.09.09-.12.14-.03.05-.04.11-.04.19v.94h-.28v-2.18ZM47.86,44.19c-.06.07-.14.13-.23.18-.09.05-.21.08-.35.08-.08,0-.16-.01-.23-.03-.07-.02-.13-.05-.18-.09-.05-.04-.09-.09-.12-.15-.03-.06-.04-.13-.04-.21,0-.11.02-.2.07-.26.05-.07.11-.12.19-.16.08-.04.17-.07.27-.08.1-.02.21-.03.31-.03h.29v-.07c0-.13-.03-.23-.09-.29-.06-.06-.16-.09-.29-.09s-.23.02-.29.06c-.06.04-.1.1-.12.17l-.26-.03c.03-.14.1-.25.22-.32.11-.07.27-.1.46-.1.12,0,.22.01.31.04.08.03.15.07.2.12.05.05.09.11.11.19.02.08.03.16.03.25v1.03h-.27v-.22ZM47.85,43.61h-.27c-.11.01-.21.02-.28.04-.08.02-.13.04-.18.07-.04.03-.08.06-.09.1-.02.04-.03.09-.03.14,0,.08.03.14.08.19.05.05.13.07.25.07.17,0,.29-.04.39-.12.09-.08.14-.18.14-.32v-.18ZM48.56,42.83h.28v.24c.08-.1.16-.17.25-.22.09-.05.18-.07.28-.07.12,0,.23.03.3.08.08.05.13.12.17.22.08-.1.16-.17.26-.22.1-.05.2-.07.31-.07.16,0,.29.04.38.13.09.08.13.22.13.41v1.09h-.28v-1.03c0-.07,0-.13-.02-.18-.01-.05-.03-.09-.06-.11-.03-.03-.06-.05-.09-.06-.04-.01-.08-.02-.13-.02s-.1,0-.15.02c-.05.02-.11.04-.16.09-.04.03-.08.08-.11.13-.03.05-.04.11-.04.17v1h-.28v-1.03c0-.14-.03-.23-.08-.29-.05-.05-.12-.08-.22-.08-.11,0-.21.04-.31.13-.04.03-.07.07-.11.13-.03.05-.05.12-.05.2v.94h-.28v-1.58ZM51.34,42.83h.28v.24c.08-.1.16-.17.25-.22.09-.05.18-.07.28-.07.13,0,.23.03.3.08.08.05.13.12.17.22.08-.1.16-.17.26-.22.1-.05.2-.07.31-.07.16,0,.29.04.38.13.09.08.13.22.13.41v1.09h-.28v-1.03c0-.07,0-.13-.02-.18-.01-.05-.03-.09-.06-.11-.02-.03-.06-.05-.09-.06-.04-.01-.08-.02-.13-.02s-.1,0-.16.02c-.05.02-.11.04-.16.09-.04.03-.08.08-.11.13-.03.05-.04.11-.04.17v1h-.28v-1.03c0-.14-.02-.23-.08-.29-.05-.05-.12-.08-.22-.08-.11,0-.21.04-.31.13-.04.03-.07.07-.11.13-.03.05-.05.12-.05.2v.94h-.28v-1.58ZM55.53,43.96c-.03.15-.1.27-.22.36-.12.09-.28.13-.5.13-.25,0-.45-.07-.59-.22-.14-.15-.2-.35-.2-.61,0-.14.02-.26.06-.36.04-.11.09-.19.16-.27.07-.07.15-.13.25-.16.1-.04.2-.06.32-.06.13,0,.24.02.33.06.09.04.17.09.23.16.06.07.1.15.13.24.03.09.04.2.04.31v.13h-1.24c0,.08.01.15.03.22.02.07.05.13.1.18.04.05.09.09.16.12.06.03.13.04.22.04.14,0,.24-.02.31-.08.07-.05.11-.12.13-.2h.27ZM55.27,43.48c0-.08,0-.14-.03-.2-.02-.06-.04-.11-.08-.16-.04-.04-.08-.08-.14-.1-.06-.02-.13-.04-.21-.04-.15,0-.26.04-.35.13-.08.09-.13.21-.15.37h.95ZM57.12,44.18c-.07.09-.15.16-.24.2-.09.05-.2.07-.32.07s-.23-.02-.32-.06c-.09-.04-.16-.1-.22-.18-.06-.07-.1-.16-.13-.26-.03-.1-.04-.21-.04-.33,0-.13.02-.25.05-.35.03-.1.08-.19.15-.27.06-.07.14-.13.23-.17.09-.04.2-.06.31-.06.09,0,.18.02.27.05.09.03.17.1.25.19v-.8h.28v2.18h-.27v-.23ZM57.12,43.57c0-.13-.01-.22-.04-.29-.03-.07-.08-.13-.14-.18-.05-.04-.1-.06-.14-.08-.05-.01-.1-.02-.16-.02-.07,0-.13.01-.19.03-.06.02-.11.06-.15.11-.04.05-.08.11-.1.19-.02.08-.04.17-.04.29s.01.21.04.29c.03.08.06.14.11.19.04.05.09.08.15.1s.11.03.17.03c.06,0,.12,0,.17-.02.05-.01.1-.04.15-.07.06-.05.11-.11.15-.18.03-.07.05-.17.05-.28v-.11ZM58.65,42.22h.76c.17,0,.31.02.42.06.11.04.2.08.26.14.06.06.11.12.13.2.02.07.03.15.03.22,0,.14-.03.26-.09.36-.06.1-.16.17-.3.23l.49.98h-.33l-.44-.91s-.06,0-.09,0c-.03,0-.06,0-.09,0h-.46v.91h-.29v-2.18ZM59.44,43.26c.1,0,.19,0,.26-.03.07-.02.12-.05.16-.08.04-.04.07-.08.08-.13.02-.05.02-.11.02-.17s0-.11-.03-.16c-.02-.05-.05-.09-.09-.12-.04-.03-.1-.06-.17-.08-.07-.02-.16-.03-.27-.03h-.45v.8h.49ZM61.29,44.46c-.13,0-.24-.02-.34-.06-.1-.04-.18-.09-.25-.17-.07-.07-.12-.16-.16-.26-.04-.1-.05-.22-.05-.35s.02-.24.06-.35c.04-.1.09-.19.16-.27.07-.07.16-.13.26-.17.1-.04.21-.06.33-.06s.24.02.34.06c.1.04.18.09.25.17.07.07.12.16.16.26.04.1.06.22.06.35s-.02.25-.06.35c-.04.1-.09.19-.16.27-.07.07-.16.13-.26.17s-.21.06-.34.06M61.29,44.24c.09,0,.17-.02.23-.05.06-.03.12-.07.16-.13.04-.05.07-.12.09-.2.02-.08.03-.16.03-.25s-.01-.17-.03-.25c-.02-.08-.05-.14-.09-.19-.04-.05-.1-.1-.16-.13-.07-.03-.14-.05-.23-.05s-.17.02-.23.05c-.06.03-.12.07-.16.13-.04.05-.07.12-.09.19-.02.08-.03.16-.03.25s0,.18.03.25c.02.08.05.14.09.2s.09.1.16.13c.07.03.14.05.23.05M62.36,44.74c.06.02.12.03.18.03.07,0,.12-.02.16-.05.04-.03.08-.1.11-.19l.07-.17-.71-1.54h.33l.53,1.24.48-1.24h.31l-.73,1.73c-.03.07-.06.13-.09.19-.03.05-.06.1-.1.14-.04.04-.08.07-.13.09-.05.02-.11.03-.19.03-.05,0-.1,0-.14,0-.04,0-.09-.02-.14-.03l.05-.21ZM65,44.19c-.06.07-.14.13-.23.18-.09.05-.21.08-.35.08-.08,0-.16-.01-.23-.03-.07-.02-.13-.05-.18-.09-.05-.04-.09-.09-.12-.15-.03-.06-.04-.13-.04-.21,0-.11.02-.2.07-.26.05-.07.11-.12.19-.16.08-.04.17-.07.27-.08.1-.02.21-.03.31-.03h.29v-.07c0-.13-.03-.23-.09-.29-.06-.06-.16-.09-.29-.09s-.23.02-.29.06c-.06.04-.1.1-.12.17l-.26-.03c.03-.14.1-.25.22-.32.11-.07.27-.1.46-.1.12,0,.22.01.31.04.08.03.15.07.2.12.05.05.09.11.11.19.02.08.03.16.03.25v1.03h-.27v-.22ZM65,43.61h-.27c-.11.01-.21.02-.28.04-.08.02-.14.04-.18.07-.04.03-.08.06-.09.1-.02.04-.03.09-.03.14,0,.08.03.14.08.19.05.05.13.07.25.07.17,0,.29-.04.39-.12.09-.08.14-.18.14-.32v-.18ZM65.7,42.22h.28v2.18h-.28v-2.18ZM67.23,42.22h.76c.17,0,.31.02.42.06.11.04.2.08.26.14.06.06.11.12.13.2.02.07.03.15.03.22,0,.14-.03.26-.09.36-.06.1-.16.17-.3.23l.49.98h-.33l-.44-.91s-.06,0-.09,0c-.03,0-.06,0-.09,0h-.46v.91h-.29v-2.18ZM68.01,43.26c.1,0,.19,0,.26-.03.07-.02.12-.05.16-.08.04-.04.07-.08.08-.13.02-.05.02-.11.02-.17s0-.11-.03-.16c-.02-.05-.05-.09-.09-.12-.04-.03-.1-.06-.17-.08-.07-.02-.16-.03-.27-.03h-.45v.8h.49ZM70.53,43.96c-.03.15-.1.27-.21.36-.12.09-.28.13-.5.13-.25,0-.45-.07-.58-.22-.14-.15-.2-.35-.2-.61,0-.14.02-.26.06-.36.04-.11.09-.19.16-.27.07-.07.15-.13.25-.16.1-.04.2-.06.32-.06.13,0,.24.02.33.06.09.04.17.09.23.16.06.07.1.15.13.24.03.09.04.2.04.31v.13h-1.24c0,.08.01.15.03.22.02.07.06.13.1.18.04.05.09.09.16.12.06.03.13.04.22.04.14,0,.24-.02.31-.08.07-.05.11-.12.13-.2h.27ZM70.28,43.48c0-.08,0-.14-.03-.2-.02-.06-.04-.11-.08-.16-.04-.04-.08-.08-.14-.1-.06-.02-.13-.04-.21-.04-.15,0-.26.04-.35.13-.08.09-.13.21-.15.37h.95ZM71.11,43.94c.02.11.07.19.15.23.08.04.19.07.32.07.14,0,.24-.02.3-.07.06-.05.09-.11.09-.18,0-.03,0-.06-.01-.09,0-.03-.02-.05-.04-.07-.02-.02-.05-.04-.09-.06-.04-.02-.09-.03-.15-.04l-.21-.03c-.09-.01-.18-.03-.25-.05-.07-.02-.13-.05-.18-.09-.05-.04-.09-.08-.11-.13-.02-.05-.04-.11-.04-.19s.02-.14.05-.2.08-.11.14-.15c.06-.04.13-.07.21-.09.08-.02.17-.03.26-.03.12,0,.22.01.3.03.08.02.15.05.2.09.05.04.09.09.12.14.03.05.05.11.06.17l-.26.04s-.03-.08-.05-.11c-.02-.03-.05-.06-.08-.08-.03-.02-.07-.04-.12-.05-.05-.01-.1-.02-.17-.02-.08,0-.14,0-.19.02-.05.01-.09.03-.12.05-.03.02-.05.05-.07.07-.01.03-.02.06-.02.09,0,.03,0,.06.01.09,0,.03.02.05.05.07.02.02.06.04.1.05.04.01.09.03.16.04l.24.04c.2.03.34.08.42.16.09.08.13.19.13.33,0,.07-.01.13-.04.19-.03.06-.07.11-.13.15-.06.04-.13.07-.21.1-.08.02-.18.04-.29.04-.1,0-.2,0-.28-.03-.09-.02-.17-.05-.23-.09-.07-.04-.12-.09-.16-.16-.04-.07-.06-.15-.07-.24h.27ZM74,43.96c-.03.15-.1.27-.21.36-.12.09-.28.13-.5.13-.25,0-.45-.07-.58-.22-.14-.15-.2-.35-.2-.61,0-.14.02-.26.06-.36.04-.11.09-.19.16-.27.07-.07.15-.13.25-.16.1-.04.2-.06.32-.06.13,0,.24.02.33.06.09.04.17.09.23.16.06.07.1.15.13.24.03.09.04.2.04.31v.13h-1.24c0,.08.01.15.03.22.02.07.05.13.1.18.04.05.09.09.16.12.06.03.13.04.22.04.14,0,.24-.02.31-.08.06-.05.11-.12.13-.2h.27ZM73.74,43.48c0-.08,0-.14-.03-.2-.02-.06-.04-.11-.08-.16-.04-.04-.08-.08-.14-.1-.06-.02-.13-.04-.21-.04-.15,0-.26.04-.35.13-.08.09-.13.21-.15.37h.95ZM74.35,42.83h.28v.25c.06-.09.14-.16.22-.2.08-.05.17-.07.27-.07.06,0,.11,0,.15.01l-.04.25s-.04,0-.07-.01c-.02,0-.04,0-.07,0-.05,0-.1,0-.16.03-.05.02-.1.05-.15.09-.05.04-.08.08-.11.13-.03.05-.04.11-.04.18v.94h-.28v-1.58ZM75.44,42.83h.33l.5,1.28.51-1.28h.31l-.67,1.58h-.3l-.67-1.58ZM78.59,43.96c-.03.15-.1.27-.21.36-.12.09-.28.13-.5.13-.25,0-.45-.07-.58-.22-.14-.15-.2-.35-.2-.61,0-.14.02-.26.06-.36.04-.11.09-.19.16-.27.07-.07.15-.13.25-.16.1-.04.2-.06.32-.06.13,0,.24.02.33.06.09.04.17.09.23.16.06.07.1.15.13.24.03.09.04.2.04.31v.13h-1.24c0,.08.01.15.03.22.02.07.06.13.1.18.04.05.09.09.16.12.06.03.14.04.22.04.14,0,.24-.02.31-.08.06-.05.11-.12.13-.2h.27ZM78.33,43.48c0-.08,0-.14-.03-.2-.02-.06-.04-.11-.08-.16-.04-.04-.08-.08-.14-.1-.06-.02-.13-.04-.21-.04-.15,0-.26.04-.35.13-.08.09-.13.21-.15.37h.95Z"/>
  <path class="cls-1" d="M75.44,20.29h0c-.86-.87-1.95-1.43-3.16-1.62-1.21-.19-2.42.02-3.5.59l-5.09,2.69,2.31-3.39-2.58-3.79-2.58,3.79,2.31,3.39h-10.53l-.58-.59h0l-11.71-11.91c-1.85-1.88-4.32-2.89-6.95-2.86-2.64.04-5.08,1.12-6.87,3.05l-14.39,15.47,3.62-1.62c1.21-.54,4.82-1.57,9.83-1.57,2.05,0,5.71.6,8.04,1.58l.04.02c2.22.93,4.48,2.16,6.88,3.45,2.75,1.49,5.6,3.04,8.56,4.21,3.37,1.34,6.39,1.99,9.24,1.99,1.1,0,2.2-.09,3.29-.26,4.6-.72,8.64-3.3,11.22-5.35,2.78-2.2,4.46-4.21,4.53-4.29l.47-.56-2.38-2.42ZM69.54,20.68c1.56-.82,3.52-.52,4.76.74l.52.53h-7.69l2.41-1.27ZM60.65,23.56l-4.25,2.25-2.21-2.25h6.46ZM25.56,20.31c-3.23,0-5.76.39-7.52.8l4.17-4.48,6.58,3.97c-1.2-.18-2.33-.28-3.22-.28M23.32,15.42l4.36-4.69c1.49-1.6,3.52-2.51,5.72-2.54.04,0,.08,0,.11,0,2.15,0,4.16.84,5.67,2.38l11.18,11.37h-7.86l2.31-3.39-2.58-3.79-2.58,3.79,2.31,3.39h-5.69l2.31-3.39-2.58-3.79-2.58,3.79,2.31,3.39h-1.57l-10.82-6.53ZM41.28,25.55c-1.28-.7-2.53-1.37-3.76-2h14.42l2.98,3.03-5.6,2.96c-2.75-1.12-5.44-2.58-8.05-3.99M58.32,31.56c-2.17,0-4.47-.41-6.98-1.26l4.76-2.51,3.66,3.72c-.48.03-.96.05-1.44.05M61.76,31.25l-4.18-4.25,6.51-3.44h10.8c-2.22,2.23-7.22,6.61-13.13,7.69M59.85.9c-1.47-1.2-4.1-1.21-5.88,0l-1.64,1.11-1.64-1.11c-1.79-1.21-4.41-1.2-5.88,0l-3.44,2.88c1.83-.81,4.59.27,6.24,1.39h.01s4.71,3.19,4.71,3.19h0s0,0,0,0h0s0,0,0,0l4.71-3.18h.01c1.65-1.12,4.41-2.21,6.24-1.4l-3.44-2.88ZM48.5,3.85c-1.03-.69-2.18-1.11-3.37-1.23l.57-.38c1.21-.86,2.68-.9,4.08,0l1.1.74-1.83,1.24-.55-.37ZM52.33,6.42h0l-1.83-1.24,1.83-1.24h0s0,0,0,0h0s0,0,0,0l1.83,1.24-1.83,1.24ZM56.15,3.85l-.55.37-1.83-1.24,1.1-.74c1.4-.9,2.88-.86,4.08,0l.57.38c-1.19.12-2.34.53-3.37,1.23"/>
</svg>