<?xml version="1.0" encoding="UTF-8"?>
<svg id="Layer_1" data-name="Layer 1" xmlns="http://www.w3.org/2000/svg" viewBox="0 0 90 45">
  <defs>
    <style>
      .cls-1, .cls-2 {
        fill: #fff;
      }

      .cls-2 {
        fill-rule: evenodd;
      }
    </style>
  </defs>
  <path class="cls-2" d="M45.96,19.51c.34,0,.3-.19.3-.55v-1.75c0-.36-.04-.48.17-.48.72,0,.92-.07.92-.71v-6.51c0-1.77-1.25-1.48-1.61-2.13-.5-.88.94-.88.41-2.78-.13-.43-.47-.7-1.12-.7s-.99.27-1.12.7c-.52,1.9.92,1.9.42,2.78-.35.65-1.61.35-1.61,2.13v6.51c0,.64.2.71.92.71.2,0,.17.11.17.48v1.75c0,.36-.04.55.3.55h1.85"/>
  <path class="cls-2" d="M40.25,5.37c-.64.68-1.65,2.27-.99,3.6,1.34.52,1.24-4.26,2.92-4.18.83.77-.25,3.02-.58,4.01-.41,1.22-.74,3.78-1.53,5.02-.66,1.03-.16,4.28-.37,5.4-.56.56-2.07.16-2.71.06,0-1.28-.17-2.29-.37-4.34-.02-.41-.46-6.74-.1-7.5.72-1.59,4.67-4.63,5.21-5.21.47-.52,2.15-2.23,2.79-2.23.45.31.19,1.03.08,1.32-.64,1.59-3.41,3.16-4.34,4.05"/>
  <path class="cls-2" d="M49.88,5.37c.62.68,1.63,2.27.99,3.6-1.36.52-1.26-4.26-2.93-4.18-.8.77.27,3.02.6,4.01.41,1.22.74,3.78,1.53,5.02.64,1.03.16,4.28.35,5.4.58.56,2.07.16,2.73.06,0-1.28.15-2.29.35-4.34.04-.41.47-6.74.12-7.5-.72-1.59-4.67-4.63-5.21-5.21-.5-.52-2.15-2.23-2.79-2.23-.47.31-.19,1.03-.08,1.32.64,1.59,3.41,3.16,4.34,4.05"/>
  <path class="cls-2" d="M34.51,3.23c-.35.33-1.14.56-1.68,1.28-.21-.39.33-1.35.97-1.9.48-.39,1.41-1.04,1.68-1.1.21.48-.54,1.2-.97,1.72"/>
  <path class="cls-2" d="M33.41,5.82c-.6.56-1.24.79-2.07,1.8-.35-1.22-.27-2.3-.1-3.02.29-.95.77-2.01,1.58-2.34-.17.54-.44,1.28-.5,2.3-.35,1.39-.56,1.43-.48,1.61.08,0,.54-.72,1.1-1.28.66-.66,1.49-.81,2.03-1.2-.08.27-.56,1.12-1.55,2.13"/>
  <path class="cls-2" d="M30.49,11.56c-.81-1.45-.89-2.51-.95-3.73.04-.85.46-2.82,1.08-3.11-.19,1.78.29,1.95.1,3.42,0,.08-.21,1.62-.21,1.7.25-.04.02-1.41,2.86-3.38-.62,1.08-.33,1.41-1.45,2.84-1.31,1.28-1.49,2.55-1.43,2.26"/>
  <path class="cls-2" d="M31.63,12.92c-.6.87-.5,1.3-.64,1.72-1.43-.83-3.05-4.12-2.44-5.76.37,1.24.89,1.51,1.26,2.55.64,1.55.54,2.03.95,2.38-.08-.81.19-1.76.46-2.46.39-.6.7-1.39.99-1.66.31,1.14.08,2.07-.58,3.23"/>
  <path class="cls-2" d="M32.92,15.74c0,1.26-.23,1.82-.33,2.76-2.47-.81-3.75-3.62-3.75-5.01.75,1.7,1.84,1.68,3.27,4.08.12-.91-.25-.23-.29-1.95.04-1.8.41-1.86.48-2.98.46.5.62,2.49.62,3.11"/>
  <path class="cls-2" d="M34.97,19.32c.19.93.27,2.03.41,2.84-1.41-.52-1.76-.12-3.44-1.18-.77-.41-2.13-2.15-2.05-3.4,1.66,1.84,1.95,1.64,2.75,2.32.74.6,1.34,1.49,1.88,1.37.04-.5-1.22-1.57-1.06-4.68.33.35,1.24,1.76,1.49,2.73"/>
  <path class="cls-2" d="M37.76,21.64c.44.62.33.89,1.45,2.17-.27.12-1.86.54-2.92.58-.7,0-3.19-.66-4.02-2.36,1.43.77,1.45.58,3.35.99,1.37.31,2.34.74,2.71.7-.08-.19-1.14-.62-1.86-1.53-.73-.97-.56-2.07-1.2-2.88.44-.12,2.13,1.86,2.48,2.32"/>
  <path class="cls-2" d="M55.51,3.23c.33.33,1.14.56,1.66,1.28.23-.39-.33-1.35-.97-1.9-.46-.39-1.39-1.04-1.68-1.1-.21.48.54,1.2.99,1.72"/>
  <path class="cls-2" d="M56.61,5.82c.58.56,1.22.79,2.05,1.8.35-1.22.27-2.3.1-3.02-.27-.95-.77-2.01-1.57-2.34.19.54.43,1.28.5,2.3.35,1.39.56,1.43.48,1.61-.08,0-.54-.72-1.1-1.28-.64-.66-1.47-.81-2.03-1.2.08.27.58,1.12,1.57,2.13"/>
  <path class="cls-2" d="M59.51,11.56c.83-1.45.89-2.51.95-3.73-.04-.85-.46-2.82-1.06-3.11.16,1.78-.31,1.95-.1,3.42,0,.08.19,1.62.19,1.7-.23-.04-.02-1.41-2.84-3.38.6,1.08.31,1.41,1.43,2.84,1.33,1.28,1.49,2.55,1.43,2.26"/>
  <path class="cls-2" d="M58.39,12.92c.58.87.48,1.3.62,1.72,1.43-.83,3.07-4.12,2.44-5.76-.35,1.24-.89,1.51-1.24,2.55-.66,1.55-.56,2.03-.95,2.38.08-.81-.21-1.76-.48-2.46-.37-.6-.7-1.39-1-1.66-.29,1.14-.08,2.07.6,3.23"/>
  <path class="cls-2" d="M57.08,15.74c0,1.26.25,1.82.35,2.76,2.45-.81,3.75-3.62,3.75-5.01-.77,1.7-1.84,1.68-3.29,4.08-.12-.91.25-.23.29-1.95-.04-1.8-.41-1.86-.48-2.98-.46.5-.62,2.49-.62,3.11"/>
  <path class="cls-2" d="M55.03,19.32c-.19.93-.25,2.03-.39,2.84,1.39-.52,1.74-.12,3.42-1.18.77-.41,2.15-2.15,2.07-3.4-1.66,1.84-1.97,1.64-2.75,2.32-.75.6-1.37,1.49-1.91,1.37-.04-.5,1.22-1.57,1.08-4.68-.35.35-1.26,1.76-1.51,2.73"/>
  <path class="cls-2" d="M52.24,21.64c-.41.62-.31.89-1.45,2.17.29.12,1.86.54,2.94.58.68,0,3.17-.66,4-2.36-1.43.77-1.45.58-3.35.99-1.37.31-2.32.74-2.71.7.08-.19,1.16-.62,1.86-1.53.73-.97.56-2.07,1.22-2.88-.46-.12-2.15,1.86-2.51,2.32"/>
  <path class="cls-2" d="M41.47,27.48l-.41-.21s2.63-3.21,7.14-2.96c4.51.25,4.2,1.31,6.63,1.14.27-.02-.21.33-.21.33,0,0-2.36.91-5.28-.08-2.9-.99-4.78-1.59-7.87,1.78"/>
  <path class="cls-2" d="M48.61,27.48l.42-.21s-2.61-3.21-7.13-2.96c-4.53.25-4.22,1.31-6.65,1.14-.27-.02.21.33.21.33,0,0,2.36.91,5.28-.08,2.92-.99,4.8-1.59,7.87,1.78"/>
  <path class="cls-2" d="M31.67,34.19c0,2.15-1.16,3.19-3.53,3.19s-3.54-1.03-3.54-3.19v-4.76h2.39v4.23c0,.79,0,1.78,1.16,1.78s1.13-.99,1.13-1.78v-4.23h2.39v4.76"/>
  <polygon class="cls-2" points="33.11 29.43 35.55 29.43 37.82 33.58 37.84 33.58 37.84 29.43 40.1 29.43 40.1 37.19 37.77 37.19 35.39 32.95 35.37 32.95 35.37 37.19 33.11 37.19 33.11 29.43"/>
  <polygon class="cls-2" points="41.57 29.43 43.96 29.43 43.96 32.13 46.2 32.13 46.2 29.43 48.59 29.43 48.59 37.19 46.2 37.19 46.2 34.12 43.96 34.12 43.96 37.19 41.57 37.19 41.57 29.43"/>
  <path class="cls-2" d="M54.71,32.32c-.04-.28-.26-1.14-1.25-1.14-1.12,0-1.48,1.09-1.48,2.13s.36,2.13,1.48,2.13c.8,0,1.12-.57,1.26-1.29h2.35c0,1.56-1.27,3.23-3.54,3.23-2.51,0-3.93-1.77-3.93-4.07,0-2.44,1.54-4.06,3.93-4.06,2.13.01,3.31,1.13,3.51,3.08h-2.33"/>
  <path class="cls-2" d="M58.06,37.19h2.39v-2.71h1.27c.95,0,1.01.77,1.08,1.51.03.4.08.8.19,1.19h2.39c-.22-.36-.23-1.28-.26-1.66-.09-.97-.49-1.68-1.14-1.94.79-.29,1.16-1.14,1.16-1.95,0-1.47-1.17-2.22-2.53-2.22h-4.55v7.76M60.45,31.28h1.12c.91,0,1.18.28,1.18.77,0,.7-.61.77-1.05.77h-1.25v-1.54Z"/>
  <path class="cls-1" d="M26.66,44.28s-.02,0-.04,0c-.03,0-.07-.05-.07-.07-.04-.14-.06-.28-.11-.43h0c-.08.15-.22.2-.33.21-.03.14-.04.3-.14.45-.02.03-.08.07-.11.08-.07.04-.14.07-.21.09-.04,0-.09.02-.14.03-.07.01-.2.02-.22.02-.02,0-.09,0-.13,0-.06,0-.12-.02-.18-.04-.03-.01-.09-.06-.11-.09,0-.02-.03-.05-.04-.07-.01-.05-.02-.13-.02-.15,0-.02,0-.05.01-.07.02-.08.05-.16.08-.24.03-.07.15-.26.22-.25v.03s-.15.24-.15.37c0,.02,0,.03,0,.05,0,.03.02.06.04.1.03.04.11.08.15.09.06,0,.17.02.19.02.02,0,.08-.01.12-.01.11,0,.26-.04.37-.08.03-.01.07-.05.11-.08-.02-.07-.04-.15-.06-.21-.03-.06-.12-.2-.12-.23,0-.02.07-.15.13-.25.04.03.09.14.15.15.04,0,.11.02.12.02s.05,0,.07,0c.02,0,.04-.01.06-.02.1-.06.16-.2.24-.28.04.15.07.38.12.57,0,.02.04.04.06.06h.17v.26h-.23ZM25.47,43.45s-.02.03-.04.03c-.02,0-.17-.09-.25-.14,0-.02.03-.04.04-.05.05-.05.14-.13.15-.13.02,0,.16.08.24.13-.03.04-.09.12-.15.17M26.57,44.76s-.01.02-.03.02c-.02,0-.14-.07-.21-.11l-.12.1c-.07-.01-.15-.07-.22-.11.03-.05.1-.12.15-.16.06.03.18.1.2.1.02,0,.11-.11.13-.11.02,0,.15.08.22.12-.03.04-.09.1-.13.15"/>
  <path class="cls-1" d="M27.57,44.28c-.08,0-.14-.1-.16-.17l-.1.17h-.49v-.26h.55c.02-.1,0-.19.03-.25.02-.04.12-.15.17-.21,0,.03.01.08,0,.11,0,.07-.02.19-.02.21,0,.06.06.1.11.14.04,0,.08,0,.12,0v.26h-.23ZM27.57,43.42c-.13,0-.27.08-.38.17h-.03c.02-.06.09-.13.15-.16-.08-.05-.16-.02-.16-.11,0-.14.15-.28.27-.28.05,0,.08.02.08.07,0,.02-.03.07-.05.1-.01-.03-.08-.06-.1-.06-.03,0-.12.04-.13.07.03.08.21.09.3.09.02,0,.03,0,.1,0,0,.03-.05.09-.06.11"/>
  <path class="cls-1" d="M29.11,44.15l-.4-.03c-.16,0-.35.17-.43.17h-.51s0-.26,0-.26h.57s.11-.02.16-.03c.02-.01.06-.03.09-.05,0,0,0,0,0,0-.08-.04-.26-.13-.36-.13-.09,0-.08.03-.18.05v-.03s.02-.04.03-.05c.09-.12.19-.23.29-.23.02,0,.1.01.15.03.13.06.41.24.61.29.05.02.13.04.18.05-.04.04-.15.22-.18.22M28.62,44.76l-.24-.13.19-.19c.07.03.17.12.25.13l-.2.19Z"/>
  <path class="cls-1" d="M30.76,44.28c0-.19.01-.37-.08-.52,0,0,0,0-.01,0-.05.11-.11.31-.26.44-.19.17-.54.16-.73.2h-.36s0-.03.01-.04c.34-.14.6-.15.96-.39-.04-.2-.21-.35-.34-.43-.01.01-.03.05-.04.08-.12-.05-.24-.1-.39-.18-.01,0-.02-.04-.03-.05,0-.02,0-.04,0-.06,0-.02.01-.16.03-.22,0-.02.02-.05.03-.07h.03s.06.02.09.03c.08.04.16.08.23.13.27.18.45.41.48.69.04-.03.07-.07.11-.11.02-.02.04-.05.05-.08.03-.07.09-.21.09-.23v-.22s-.02-.09,0-.14c.02-.04.14-.13.2-.17l.13,1.07h.11v.26h-.32Z"/>
  <path class="cls-1" d="M31.71,43.31s-.08.11-.13.16c0,0,0,.01,0,.03l.06.44-.06.32s-.03.01-.05.01h-.55v-.26h.48s0-.06,0-.08c0-.02-.02-.14-.03-.22-.02-.1-.04-.29-.09-.43,0-.02-.06-.04-.09-.07.05-.11.1-.2.18-.31,0,.03,0,.08.02.1.03.04.09.07.14.1.06.04.12.08.18.11-.01.03-.04.06-.06.08"/>
  <path class="cls-1" d="M32.23,44.28l-.12-1s.15-.28.19-.32l.07.83c0,.17-.02.31-.13.48"/>
  <path class="cls-1" d="M34.23,44.07s-.03.08-.03.11c0,.01-.02.03-.02.05-.05.21-.49.33-.66.33-.22,0-.44-.08-.44-.36,0-.11.11-.51.22-.55,0,0,.01,0,.02,0v.03s-.09.12-.09.28c0,.26.23.29.39.29.12,0,.51-.07.51-.21,0-.13-.17-.42-.17-.45,0-.02.08-.15.13-.24.11.13.19.38.19.52,0,.05,0,.08-.03.17M33.6,43.31s-.12-.07-.17-.11c0-.03.11-.17.14-.17.02,0,.18.12.18.14,0,.04-.15.14-.16.14"/>
  <path class="cls-1" d="M34.73,44.77c-.14,0-.5-.1-.56-.15,0-.04.04-.04.04-.04.02,0,.23.05.25.05.15,0,.65-.31.65-.56,0-.01,0-.05-.02-.09h0c-.06.18-.14.22-.26.22-.17,0-.18-.1-.18-.24,0-.02,0-.05,0-.08,0-.06.18-.41.34-.41.1,0,.19.19.2.23,0,.02.02.05.03.08.01.05.02.14.02.16,0,.28-.18.82-.5.82M34.89,43.77s-.15.04-.15.1c0,.05.14.07.16.07.05,0,.06,0,.12-.03,0-.1-.08-.14-.13-.14"/>
  <path class="cls-1" d="M35.92,43.35c-.12,0-.22.06-.36.14h-.01c.02-.07.08-.1.13-.13-.04-.02-.1-.03-.14-.05,0,0-.01,0-.01-.03,0-.11.14-.27.26-.27.05,0,.09.02.09.07,0,.02-.04.06-.05.09-.01-.02-.06-.04-.08-.05-.01,0,0,0-.02,0-.02,0-.04,0-.06.02-.02.01-.04.02-.06.04,0,0,0,.01-.01.02,0,.01.02.03.03.03.03.02.08.03.1.03h.26s-.04.07-.07.11"/>
  <path class="cls-1" d="M36.24,44.2c-.06.14-.13.31-.26.43-.03.03-.09.07-.14.09-.02,0-.07.01-.09.01-.02,0-.05,0-.07,0-.08-.02-.17-.06-.26-.09-.05-.02-.15-.06-.21-.12v-.02s.02,0,.04,0c.02,0,.23.06.25.06.02,0,.08,0,.11-.02.14-.04.33-.16.46-.32-.08,0-.19-.02-.28-.04-.04,0-.15-.07-.16-.14,0,0,0-.02,0-.03,0-.02.03-.14.05-.19.04-.1.1-.27.22-.36.02-.02.07-.03.09-.03.02,0,.02,0,.03,0,.02,0,.09.06.11.09.08.15.12.3.13.43h.07v.26h-.1ZM35.97,43.72s-.05-.03-.06-.03c-.02,0-.06.03-.08.05-.01.02-.03.04-.03.06s.02.05.02.05c.02.03.08.06.11.06.01,0,.03,0,.05,0s.05,0,.07,0c0,0,.02-.01.02-.02-.02-.06-.05-.12-.09-.16"/>
  <path class="cls-1" d="M37.03,43.95v.26h-.19s-.09-.06-.1-.09c-.02.02-.09.09-.12.09h-.32v-.26h.42c.06,0,.05-.17.05-.18.05-.07.13-.15.21-.23,0,.09-.05.22-.09.35.03.03.07.06.1.06.02,0,.04-.02.05-.02,0,0-.01.02-.02.02"/>
  <path class="cls-1" d="M37.79,44.2s-.04-.05-.06-.08c-.01.03-.03.05-.03.08h-.35s-.02-.04-.03-.06c-.02,0-.04.03-.06.06h-.28v-.26h.32c0-.06-.01-.11,0-.15,0-.02.04-.05.07-.08.04-.04.09-.09.13-.13-.03.1-.07.3-.07.32,0,.01,0,.02,0,.04h.24s0-.08-.02-.11c0-.02-.02-.05-.02-.07s.14-.2.17-.23v.2l-.03.16s.03.04.06.04h.04v.26s-.09,0-.09,0ZM37.51,43.39l-.2-.11s-.1.1-.12.1c-.02,0-.13-.06-.18-.09.02-.04.09-.11.13-.14.06.03.17.1.18.1.02,0,.09-.07.14-.1l.19.1s-.08.1-.13.15M37.31,43.16s-.09-.08-.13-.11c.03-.04.08-.08.12-.12.04.03.09.07.14.11-.04.04-.08.07-.13.12"/>
  <path class="cls-1" d="M38.53,43.23s-.08.11-.13.16c0,0,0,.01,0,.03l.06.44-.06.32s-.03.01-.05.01h-.55v-.26h.48s0-.06,0-.08c0-.02-.02-.15-.03-.22-.02-.1-.05-.29-.09-.43,0-.02-.06-.05-.09-.07.05-.11.1-.2.18-.31,0,.03,0,.07.02.1.03.04.09.07.14.1.05.04.12.08.18.11-.01.03-.04.06-.06.08"/>
  <path class="cls-1" d="M39.81,43.96s0,.03-.01.04c0,.03-.03.1-.07.13-.05.03-.22.11-.31.11-.08,0-.27-.01-.27-.14,0-.19.27-.57.39-.7.2.17.32.22.32.39,0,.07-.03.12-.04.18M39.67,43.24l-.2-.1s-.09.1-.1.1c-.04,0-.19-.09-.2-.11.04-.05.09-.11.14-.15.03.02.14.1.18.1.01,0,.11-.1.12-.1s.14.07.2.11c-.03.04-.11.14-.15.16M39.72,43.93c-.04-.1-.17-.22-.24-.27-.03.04-.14.17-.14.22,0,.08.08.09.13.09.02,0,.18-.02.25-.03v-.02Z"/>
  <path class="cls-1" d="M40.89,44.24c-.03-.06-.05-.12-.07-.17-.06.02-.06.12-.12.17h-.59s-.05-.06-.05-.06c0-.01.02-.18.03-.26,0-.04.04-.12.07-.17,0,0,.01,0,.02.02,0,.05-.01.13,0,.17,0,.01.03.04.04.04h.54s.01-.02.01-.03c0-.09-.1-.38-.1-.4l.13-.26c.05.21.11.45.16.63,0,.04.06.07.11.07h.07v.26h-.26Z"/>
  <path class="cls-1" d="M42.47,44.24l-.03-.2h-.34s-.05.01-.07.02c-.09.04-.19.1-.28.15-.02,0-.07.03-.09.03h-.55v-.26h.6s.05-.01.06-.01c.07-.02.14-.05.21-.09-.06-.03-.17-.06-.24-.08-.04-.01-.12-.04-.14-.04-.01,0-.09,0-.13.03-.02.01-.06.04-.09.05.02-.05.05-.12.08-.16.05-.07.14-.15.21-.16h.06s.06,0,.1,0c.02,0,.05.01.07.02.27.14.55.22.79.23-.03.06-.05.14-.07.21,0,0,.02,0,.18,0v.26h-.35Z"/>
  <path class="cls-1" d="M43.42,44.24s-.04,0-.04-.01c-.02,0-.05-.03-.07-.05-.02-.02-.03-.05-.04-.09l-.09.16h-.47v-.26h.53c.04-.07,0-.18.03-.24.03-.08.11-.13.16-.19l-.03.3s0,.02,0,.03c.01.05.09.1.12.1h.06v.26h-.16ZM43.33,43.29s0,.02-.03.02c-.01,0-.14-.07-.2-.1-.04.03-.11.1-.11.1-.01,0-.03-.01-.05-.02-.05-.02-.11-.06-.16-.1.02-.04.13-.16.15-.16.01,0,.1.07.15.09,0,0,.01,0,.03,0s.09-.07.13-.11l.21.11s-.07.09-.13.15"/>
  <path class="cls-1" d="M44.19,44.38c-.06-.04-.15-.15-.23-.15h-.48v-.26h.33s.02-.05.02-.07-.01-.11-.02-.16c-.03-.14-.05-.31-.1-.46,0-.01-.08-.06-.08-.08,0-.02.13-.26.17-.28h.02s0,.08.03.1c.07.07.2.15.26.18-.05.06-.08.18-.16.24.02.15-.01.32.05.43.04.08.29.14.29.24,0,.06-.06.21-.09.25"/>
  <path class="cls-1" d="M44.7,44.24l-.12-1s.15-.28.19-.32l.07.83c0,.17-.02.31-.13.48"/>
  <path class="cls-1" d="M46.68,44.25s-.06.1-.09.15c-.12-.03-.27-.1-.43-.19-.02-.01-.06-.04-.09-.06-.02-.02-.07-.05-.07-.08,0-.03.08-.14.08-.18-.09.04-.23.06-.27.13l.12.6c-.02.13-.04.26-.1.37,0,0-.02.01-.03.01l-.13-.83c0-.06.01-.1.05-.17.01-.02.03-.06.04-.08.03-.04.05-.12.11-.16.19-.12.41-.16.62-.2.03.14.03.34.21.43h.09v.26h-.11ZM46.4,43.81h-.02c-.05.02-.11.04-.15.06-.01,0-.03.01-.03.03,0,.02.04.06.08.09.02.01.04.03.06.04.04,0,.09.03.12.03-.04-.07-.05-.14-.06-.24"/>
  <path class="cls-1" d="M47.91,44c-.04.07-.09.15-.14.23l-.49-.18c-.09.04-.07.14-.15.2h-.4v-.26h.44s.04-.07.04-.11c.04-.11.15-.29.28-.35.06-.03.19-.1.29-.1,0,0,.02.01.02.02.03.1.09.26.12.39,0,.02,0,.06,0,.08,0,.02-.01.05-.02.07M47.62,43.71s-.02,0-.04,0-.05,0-.07.02c-.03,0-.06.02-.08.04,0,0-.02.02-.02.02l.29.12c-.02-.07-.02-.14-.08-.18"/>
  <path class="cls-1" d="M48.49,42.89c-.09,0-.19.04-.29.12h-.03v-.02s.06-.07.09-.09c-.04-.01-.09-.03-.13-.05,0-.03,0-.06.02-.08.02-.07.1-.14.16-.16,0,0,.02,0,.04,0,.03,0,.08.01.08.05,0,.01-.03.05-.05.08,0-.02-.03-.03-.05-.04t-.02,0s-.11.02-.11.06c0,.05.17.05.17.05.02,0,.02,0,.17,0-.01.02-.03.06-.05.09"/>
  <path class="cls-1" d="M49.63,44.25c0-.19,0-.37-.08-.52,0,0,0,0-.01,0-.05.11-.11.31-.26.44-.19.17-.55.17-.73.21h-.36s0-.03,0-.04c.34-.14.6-.15.96-.38-.04-.2-.21-.35-.34-.43-.01.01-.03.05-.04.08-.12-.05-.24-.1-.39-.18-.01,0-.02-.04-.03-.05,0-.02,0-.04,0-.07,0-.02.01-.16.03-.22,0-.02.02-.05.03-.07h.03s.06.02.09.03c.08.04.16.08.23.13.27.18.45.41.49.69.04-.03.07-.07.11-.11.02-.02.04-.05.06-.08.03-.07.09-.21.09-.23v-.22s-.02-.09,0-.13c.02-.04.14-.13.2-.17l.13,1.07h.11v.26h-.32Z"/>
  <path class="cls-1" d="M50.58,43.28s-.08.11-.13.16c0,0,0,.01,0,.03l.05.44-.06.32s-.03.01-.04.01h-.55v-.26h.48s0-.06,0-.08-.02-.14-.03-.22c-.02-.1-.05-.29-.09-.43,0-.02-.06-.05-.09-.07.06-.11.1-.2.18-.31,0,.03,0,.08.02.1.03.04.09.07.14.1.05.04.12.07.18.11-.01.03-.04.06-.06.08"/>
  <path class="cls-1" d="M51.67,43.19s-.12-.06-.19-.1c-.03.03-.09.09-.1.09-.02,0-.12-.06-.18-.1.03-.04.08-.1.13-.15.05.04.15.1.17.1.01,0,.08-.07.12-.1l.2.11s-.13.15-.14.15M51.97,44.25s-.02,0-.03-.02c-.02-.01-.04-.04-.05-.07-.02-.06-.03-.13-.05-.2-.08.04-.08.2-.18.21l-.39-.08v-.04s.07-.18.1-.28c.02-.07.14-.14.18-.16.06-.04.14-.08.2-.12,0-.03-.03-.06-.03-.08,0-.02.09-.15.14-.23.04.22.07.5.13.75,0,.04.05.04.1.04h.07v.26h-.18ZM51.83,43.84s-.03-.17-.05-.24c-.02,0-.05.03-.05.05-.05.14-.18.16-.25.2.06.02.18.05.2.05h.15v-.05Z"/>
  <path class="cls-1" d="M52.79,44.25c-.06,0-.15-.12-.16-.16l-.09.16h-.43v-.26h.49s.02-.09.03-.14c0-.02-.01-.08,0-.11.04-.07.1-.12.16-.18.02.1-.02.22-.02.3s.07.12.16.14h.06v.26h-.21ZM52.72,44.77l-.18-.11s-.1.1-.11.1c-.02,0-.17-.1-.19-.12.03-.05.09-.12.14-.17.05.05.12.08.17.11.04-.04.09-.09.12-.11l.2.11s-.1.15-.15.18"/>
  <path class="cls-1" d="M54.09,43.99c-.04.07-.09.15-.14.23l-.49-.18c-.09.04-.07.14-.15.2h-.4v-.26h.44s.04-.08.04-.11c.04-.11.15-.29.28-.35.06-.03.19-.1.29-.1,0,0,.02.01.02.02.03.1.09.27.12.4,0,.02,0,.06,0,.08,0,.02-.01.05-.02.07M53.79,43.7s-.02,0-.04,0-.06,0-.07.02c-.03,0-.06.02-.08.04,0,0-.02.02-.02.02l.29.12c-.02-.07-.02-.14-.08-.18"/>
  <path class="cls-1" d="M54.53,44.25l-.11-1.19s.02-.04.04-.06c.04-.05.1-.12.15-.16,0,.07.02.15.02.23.02.26.06.66.09.87,0,0,.02.02.03.02.03,0,.06.03.09.03h.05v.26h-.36Z"/>
  <path class="cls-1" d="M55.58,43.99v.26h-.19s-.09-.06-.1-.09c-.02.02-.09.09-.12.09h-.33s0-.26,0-.26h.42c.06,0,.05-.17.05-.18.05-.07.13-.15.21-.23,0,.09-.05.22-.09.35.03.03.06.06.1.06"/>
  <path class="cls-1" d="M56.33,44.25s-.04-.05-.06-.08c-.01.03-.02.05-.03.08h-.35s-.02-.04-.03-.06c-.02.01-.04.04-.06.06h-.27v-.26h.32c0-.05-.01-.1,0-.14.02-.04.13-.15.2-.21l-.07.27v.08h.24s0-.02,0-.04c0-.02-.03-.11-.03-.12s.07-.12.11-.18c.01-.02.04-.03.05-.05v.2s-.02.1-.03.15c.02.04.05.03.08.03h.03v.26h-.09Z"/>
  <path class="cls-1" d="M57.08,43.27s-.08.11-.13.16c0,0,0,.01,0,.03l.06.44-.06.32s-.03.01-.05.01h-.55v-.26h.48s0-.06,0-.08c0-.02-.02-.14-.03-.22-.02-.1-.05-.29-.09-.43,0-.02-.06-.05-.09-.07.05-.11.1-.2.18-.31,0,.03,0,.07.02.1.03.04.09.07.14.1.05.04.12.07.18.11-.01.03-.03.06-.06.08"/>
  <path class="cls-1" d="M57.6,44.25l-.12-1s.15-.28.19-.32l.06.83c0,.17-.02.31-.13.48"/>
  <path class="cls-1" d="M58.82,43.14s-.12-.06-.19-.1c-.03.04-.09.09-.1.09-.02,0-.12-.06-.18-.1.03-.04.08-.1.13-.15.05.04.15.1.17.1.01,0,.08-.07.12-.1l.2.11s-.13.15-.14.15M59.12,44.19s-.02,0-.03-.02c-.02-.01-.04-.04-.05-.07-.02-.06-.03-.13-.05-.2-.08.04-.08.2-.18.21l-.39-.08v-.03s.06-.18.1-.28c.02-.07.14-.13.18-.16.06-.04.13-.08.2-.12,0-.03-.03-.06-.03-.08,0-.02.09-.15.14-.23.04.22.07.5.13.75,0,.04.05.04.1.04h.07v.26h-.18ZM58.98,43.79s-.03-.17-.05-.24c-.02,0-.05.03-.05.05-.04.14-.18.16-.25.2.06.02.18.05.2.05h.15v-.05Z"/>
  <rect class="cls-1" x="59.01" y="43.93" width=".26" height=".26"/>
  <path class="cls-1" d="M59.89,44.19c-.06,0-.15-.12-.15-.16l-.09.16h-.43v-.26h.49s.02-.09.03-.14c0-.02-.01-.08,0-.11.03-.07.1-.12.16-.18.02.1-.02.22-.02.3s.07.12.16.14h.06v.26h-.21ZM59.81,44.71l-.18-.11s-.1.1-.11.1c-.02,0-.17-.1-.19-.12.03-.05.09-.12.14-.17.05.05.12.08.17.11.04-.04.09-.09.12-.11l.2.11s-.1.15-.15.18"/>
  <path class="cls-1" d="M60.73,43.93v.26h-.19s-.09-.06-.1-.09c-.02.02-.09.09-.12.09h-.33v-.26h.42c.06,0,.05-.17.06-.17.05-.07.13-.16.21-.23,0,.09-.05.22-.09.35.03.03.06.05.1.05.02,0,.04-.02.06-.02,0,0-.01.02-.02.02"/>
  <path class="cls-1" d="M61.78,44.19h-1.17v-.26h.15c.27-.16.73-.5.89-.5.11,0,.37.19.37.32,0,0-.16.44-.24.44M61.18,43.28s-.16-.13-.17-.14c.01-.02.14-.15.17-.15.02,0,.17.14.17.16,0,.03-.16.14-.17.14M61.52,43.7c-.13,0-.35.17-.46.23h.64s.06-.02.08-.04c.01-.1-.2-.19-.25-.19"/>
  <path class="cls-1" d="M63,44.19c-.06.14-.13.31-.26.43-.03.03-.09.07-.14.09-.02,0-.07.01-.09.01s-.05,0-.06,0c-.08-.02-.17-.06-.26-.09-.05-.02-.16-.06-.21-.12v-.02s.02,0,.04,0c.02,0,.23.06.25.06.02,0,.08,0,.11-.02.15-.04.33-.16.46-.32-.08,0-.19-.02-.28-.04-.04,0-.15-.07-.16-.13,0,0,0-.02,0-.04s.03-.14.05-.19c.04-.1.1-.27.22-.36.02-.02.07-.03.09-.03.02,0,.02,0,.03,0,.02,0,.09.06.11.09.08.15.12.29.13.43h.07v.26h-.1ZM62.73,43.71s-.05-.03-.06-.03c-.02,0-.06.03-.08.05-.02.02-.04.04-.04.06,0,.01.02.05.02.05.02.03.08.06.11.06.01,0,.03,0,.05,0s.05,0,.07,0c0,0,.02-.01.02-.02-.02-.06-.05-.12-.09-.16"/>
  <path class="cls-1" d="M63,44.19v-.26h.35s0-.09.02-.12c.11-.14.37-.39.54-.39.12,0,.15.2.15.26,0,.01,0,.05,0,.07-.03.05-.07.11-.1.18h.19v.26h-1.15ZM63.68,43.25l-.16-.13c.05-.05.15-.15.16-.15.01,0,.12.09.17.14-.05.05-.12.11-.17.14M63.87,43.8s-.03-.07-.07-.1c-.02,0-.06-.02-.07-.02-.03,0-.22.06-.22.12,0,.08.16.13.2.13.02,0,.09-.02.13-.03.01-.01.03-.02.03-.03,0-.03,0-.06,0-.07"/>
  <path class="cls-1" d="M64.76,44.34c-.05-.04-.15-.15-.23-.15h-.48v-.26h.33s.02-.05.02-.07c0-.02-.01-.11-.02-.16-.03-.14-.05-.31-.1-.46,0-.01-.08-.06-.08-.08,0-.02.13-.26.17-.28h.02s0,.08.03.1c.07.07.2.15.26.18-.05.06-.08.18-.16.24.02.15-.01.32.05.43.05.08.29.14.29.24,0,.05-.06.21-.09.25"/>
  <path class="cls-1" d="M65.27,44.19l-.12-1s.15-.28.19-.32l.06.83c0,.17-.02.31-.13.48"/>
  <path class="cls-2" d="M26.26,40.94c0,.45-.26.67-.71.67s-.71-.22-.71-.67v-1.04s.36,0,.36,0v1.04c0,.18.05.36.34.36.26,0,.34-.11.34-.36v-1.04h.36v1.04"/>
  <polygon class="cls-2" points="26.65 39.9 27.01 39.9 27.7 41.03 27.71 41.03 27.71 39.9 28.05 39.9 28.05 41.58 27.69 41.58 27 40.46 26.99 40.46 26.99 41.58 26.65 41.58 26.65 39.9"/>
  <polygon class="cls-2" points="29.08 39.9 29.45 39.9 29.45 40.54 30.12 40.54 30.12 39.9 30.48 39.9 30.48 41.57 30.12 41.57 30.12 40.85 29.45 40.85 29.45 41.57 29.08 41.57 29.08 39.9"/>
  <path class="cls-2" d="M30.77,39.9h.33v.27h-.33v-.27ZM30.77,40.36h.33v1.21s-.33,0-.33,0v-1.21Z"/>
  <path class="cls-2" d="M32.51,40.36h-.31v.16s0,0,0,0c-.08-.14-.2-.19-.36-.19-.34,0-.52.29-.52.6,0,.33.15.61.51.61.15,0,.29-.06.36-.19h0v.16c0,.17-.08.3-.27.3-.12,0-.22-.04-.25-.17h-.33c.02.28.29.39.53.39.55,0,.62-.34.62-.54v-1.13M31.91,41.29c-.2,0-.27-.19-.27-.36,0-.18.08-.34.27-.34.21,0,.28.18.28.37,0,.17-.09.34-.28.34"/>
  <path class="cls-2" d="M32.76,39.9h.33v.63h0c.08-.14.23-.2.35-.2.35,0,.44.2.44.5v.74h-.33v-.68c0-.2-.06-.3-.21-.3-.18,0-.26.1-.26.35v.64s-.33,0-.33,0v-1.67"/>
  <path class="cls-2" d="M35.91,40.46c-.02-.17-.18-.29-.36-.29-.33,0-.45.28-.45.57s.12.56.45.56c.22,0,.35-.16.38-.37h.35c-.04.42-.32.68-.73.68-.51,0-.82-.39-.82-.87,0-.5.3-.88.81-.88.36,0,.67.22.72.6h-.35"/>
  <path class="cls-2" d="M36.44,40.97c0,.38.24.64.62.64s.62-.25.62-.64c0-.39-.24-.64-.62-.64s-.62.25-.62.64M36.77,40.97c0-.2.07-.39.29-.39s.29.19.29.39-.07.39-.29.39-.29-.19-.29-.39"/>
  <path class="cls-2" d="M37.9,40.36h.31v.16h0c.09-.12.21-.2.37-.2s.29.06.35.2c.07-.11.19-.2.36-.2.25,0,.44.12.44.43v.81h-.33v-.69c0-.16-.01-.29-.2-.29s-.22.15-.22.31v.67h-.33s0-.68,0-.68c0-.14.01-.3-.2-.3-.07,0-.22.04-.22.28v.7h-.33v-1.21"/>
  <path class="cls-2" d="M39.99,40.36h.31v.16h0c.09-.12.21-.2.37-.2s.29.06.35.2c.07-.11.2-.2.36-.2.25,0,.44.12.44.43v.81h-.33v-.69c0-.16-.01-.29-.2-.29s-.22.15-.22.31v.67h-.33s0-.68,0-.68c0-.14,0-.3-.2-.3-.06,0-.22.04-.22.28v.7s-.33,0-.33,0v-1.21"/>
  <path class="cls-2" d="M42.09,39.9h.33s0,.27,0,.27h-.33v-.27ZM42.09,40.36h.33s0,1.21,0,1.21h-.33v-1.21Z"/>
  <path class="cls-2" d="M42.92,41.18c0,.15.12.2.25.2.09,0,.22-.04.21-.16,0-.1-.14-.14-.37-.19-.19-.04-.38-.11-.38-.32,0-.31.26-.39.52-.39.26,0,.5.09.53.39h-.31c0-.13-.11-.16-.22-.16-.07,0-.18.01-.18.11,0,.12.18.14.37.18.19.05.38.12.38.34,0,.32-.28.42-.55.42s-.55-.11-.56-.43h.31"/>
  <path class="cls-2" d="M44.16,41.18c0,.15.12.2.25.2.09,0,.22-.04.22-.15,0-.1-.14-.14-.37-.19-.19-.04-.38-.11-.38-.32,0-.31.26-.39.52-.39s.5.09.53.39h-.31c-.01-.13-.11-.16-.23-.16-.07,0-.18.01-.18.11,0,.12.19.14.37.18.19.05.38.12.38.34,0,.32-.27.42-.55.42-.28,0-.55-.11-.56-.43h.31"/>
  <path class="cls-2" d="M45.15,39.9h.33v.27h-.33v-.27ZM45.15,40.36h.33v1.21s-.33,0-.33,0v-1.21Z"/>
  <path class="cls-2" d="M45.7,40.96c0,.38.24.64.62.64s.62-.25.62-.64-.24-.64-.62-.64-.62.25-.62.64M46.03,40.96c0-.2.07-.39.29-.39s.29.19.29.39-.07.39-.29.39-.29-.19-.29-.39"/>
  <path class="cls-2" d="M47.14,40.36h.31v.17h0c.08-.14.23-.2.37-.2.35,0,.44.2.44.5v.74h-.33v-.68c0-.2-.06-.3-.21-.3-.18,0-.26.1-.26.35v.63s-.33,0-.33,0v-1.21"/>
  <path class="cls-2" d="M49.65,41.04c.02-.37-.17-.72-.58-.72-.37,0-.61.28-.61.64,0,.37.24.64.62.64.27,0,.47-.12.56-.41h-.29c-.02.07-.13.16-.26.16-.18,0-.29-.1-.29-.31h.87M48.79,40.83c0-.1.07-.26.27-.26.16,0,.23.09.26.26h-.54Z"/>
  <path class="cls-2" d="M49.84,40.36h.31v.22h0c.06-.15.22-.26.38-.26.02,0,.05,0,.07.01v.31s-.08-.01-.12-.01c-.24,0-.32.18-.32.39v.55s-.33,0-.33,0v-1.21"/>
  <path class="cls-2" d="M51.44,40.58h-.2v-.22s.2,0,.2,0v-.09c0-.21.13-.37.4-.37.06,0,.12,0,.18,0v.25s-.08,0-.12,0c-.09,0-.13.04-.13.14v.07h.23v.22h-.23v.99h-.33v-.99"/>
  <path class="cls-2" d="M52.1,40.96c0,.38.24.64.62.64s.62-.25.62-.64-.24-.64-.62-.64-.62.25-.62.64M52.43,40.96c0-.19.07-.39.29-.39s.29.19.29.39-.07.39-.29.39-.29-.19-.29-.39"/>
  <path class="cls-2" d="M53.54,40.36h.31v.22h0c.06-.15.22-.26.38-.26.02,0,.05,0,.07.01v.31s-.08-.01-.12-.01c-.24,0-.33.18-.33.39v.55s-.33,0-.33,0v-1.21"/>
  <path class="cls-2" d="M55.11,41.57h.37v-.65s.36,0,.36,0c.18,0,.25.08.28.25.02.13.02.3.06.4h.36c-.07-.09-.06-.29-.07-.4-.01-.17-.06-.34-.24-.39h0c.18-.08.26-.23.26-.42,0-.25-.19-.46-.48-.46h-.89v1.67M55.47,40.18h.4c.16,0,.25.07.25.23,0,.17-.09.24-.25.24h-.4v-.47Z"/>
  <path class="cls-2" d="M57.88,41.04c.02-.37-.17-.72-.58-.72-.37,0-.61.28-.61.64,0,.37.24.64.61.64.27,0,.47-.12.56-.41h-.29c-.02.07-.13.16-.26.16-.18,0-.29-.1-.3-.31h.87M57.01,40.83c0-.09.07-.26.27-.26.16,0,.23.09.26.26h-.54Z"/>
  <path class="cls-2" d="M58.14,40.58h-.2v-.22s.2,0,.2,0v-.09c0-.21.13-.37.4-.37.06,0,.12,0,.17,0v.25s-.08,0-.12,0c-.09,0-.13.04-.13.14v.07h.23s0,.22,0,.22h-.23v.99h-.33v-.99"/>
  <path class="cls-2" d="M59.96,41.57h-.31v-.17h0c-.08.14-.23.2-.37.2-.35,0-.44-.2-.44-.5v-.74s.33,0,.33,0v.68c0,.2.06.3.21.3.18,0,.26-.1.26-.35v-.63h.33v1.21"/>
  <path class="cls-2" d="M61.35,40.35h-.31v.16s0,0,0,0c-.08-.14-.2-.19-.36-.19-.34,0-.52.29-.52.6,0,.33.15.61.51.61.14,0,.29-.06.36-.19h0v.16c0,.17-.08.3-.27.3-.12,0-.22-.04-.25-.17h-.33c.02.28.29.39.53.39.55,0,.62-.34.62-.54v-1.13M60.76,41.28c-.2,0-.27-.19-.27-.36s.08-.34.27-.34c.22,0,.28.18.28.37,0,.18-.09.34-.28.34"/>
  <path class="cls-2" d="M62.75,41.04c.02-.37-.17-.72-.58-.72-.36,0-.61.28-.61.64s.23.64.61.64c.27,0,.47-.12.56-.41h-.29c-.02.07-.13.16-.26.16-.18,0-.29-.1-.3-.31h.87M61.88,40.83c0-.09.06-.26.27-.26.16,0,.23.09.26.26h-.54Z"/>
  <path class="cls-2" d="M64.07,41.04c.02-.37-.17-.72-.58-.72-.37,0-.61.28-.61.64,0,.37.23.64.61.64.27,0,.47-.12.56-.41h-.29c-.02.07-.13.16-.26.16-.18,0-.29-.1-.3-.31h.87M63.2,40.83c0-.09.07-.26.27-.26.16,0,.23.09.26.26h-.54Z"/>
  <path class="cls-2" d="M64.51,41.17c0,.15.12.2.25.2.1,0,.22-.04.22-.16,0-.1-.14-.14-.37-.19-.19-.04-.38-.11-.38-.32,0-.31.26-.39.52-.39s.5.09.53.39h-.32c0-.13-.11-.16-.22-.16-.07,0-.18.01-.18.11,0,.12.19.14.37.18.19.05.38.12.38.34,0,.32-.27.42-.55.42s-.55-.11-.56-.43h.31"/>
</svg>