<?xml version="1.0" encoding="UTF-8"?>
<svg id="Layer_1" data-name="Layer 1" xmlns="http://www.w3.org/2000/svg" viewBox="0 0 90 45">
  <defs>
    <style>
      .cls-1 {
        fill: #fff;
      }
    </style>
  </defs>
  <path class="cls-1" d="M23.1,25.63h2.08c.81,0,1.12.28,1.12.97s-.31.94-1.12.94h-2.08v-1.91ZM19.87,32.57h3.23v-2.82h3.46c2.29,0,3.11-1.35,3.11-3.09,0-2.02-.85-3.17-3.14-3.17h-6.66v9.08Z"/>
  <polygon class="cls-1" points="30.73 23.49 39.42 23.49 39.42 25.7 33.96 25.7 33.96 26.92 39.03 26.92 39.03 29.13 33.96 29.13 33.96 30.36 39.42 30.36 39.42 32.57 30.73 32.57 30.73 23.49"/>
  <path class="cls-1" d="M44,25.63h2.08c.81,0,1.12.28,1.12.97s-.31.94-1.12.94h-2.08v-1.91ZM40.77,32.57h3.23v-2.82h3.46c2.29,0,3.11-1.35,3.11-3.09,0-2.02-.85-3.17-3.14-3.17h-6.66v9.08Z"/>
  <path class="cls-1" d="M53.69,28.72c-1.58-.27-2.23-1.28-2.23-2.56,0-2.35,2.07-2.99,4.73-2.99,3.64,0,5.14,1.06,5.25,2.97h-3.75c0-.37-.2-.6-.49-.72-.29-.14-.65-.19-1.01-.19-.96,0-1.29.27-1.29.65,0,.25.1.42.42.47l3.86.64c1.63.27,2.63,1.11,2.63,2.64,0,2.21-1.62,3.25-5.25,3.25-2.48,0-5.2-.38-5.21-3.05h3.89c.01.3.11.51.34.65.24.13.6.19,1.1.19,1.01,0,1.28-.31,1.28-.74,0-.27-.15-.53-.58-.61l-3.68-.61Z"/>
  <rect class="cls-1" x="62.86" y="23.49" width="3.23" height="9.08"/>
  <path class="cls-1" d="M78.04,29.03c-.21,1.2-.57,2.16-1.37,2.82-.79.66-2.03,1.03-3.99,1.03s-5.58-.15-5.58-4.86,3.63-4.86,5.58-4.86,4.94.28,5.37,3.88h-3.64c-.09-.65-.48-1.59-1.73-1.59-1.32,0-2.15.72-2.15,2.57s.81,2.57,1.99,2.57c1.02,0,1.62-.47,1.89-1.56h3.64Z"/>
  <path class="cls-1" d="M82.26,28.03c0-1.84.84-2.57,2.15-2.57s2.15.72,2.15,2.57-.84,2.57-2.15,2.57-2.15-.72-2.15-2.57M78.83,28.03c0,4.7,3.63,4.86,5.58,4.86s5.58-.15,5.58-4.86-3.63-4.86-5.58-4.86-5.58.15-5.58,4.86"/>
  <path class="cls-1" d="M15,23.58c.21-4.36-3.55-9.26-8.67-9.87v-.06c5.06,0,8.93,4.67,8.93,8.36,0,.77-.07,1.24-.17,1.59l-.08-.02ZM14.69,24.13c-.34.41-.76.82-1.25,1.22-.91-5.24-4.76-9.82-7.48-11.15l-.06.04c2.74,2.25,6,6.61,7.27,11.32-.61.45-1.31.86-2.09,1.19-2.58-2.94-4.99-8.62-5.77-12.23l-.08.02c.02,3.5,2.5,9.44,5.53,12.33-.67.27-1.4.47-2.16.6-2.91-1.15-4.97-4.83-4.97-8.61,0-2.46.75-3.99.9-4.3l-.06-.02c-.18.27-1.28,1.79-1.28,4.45,0,4.27,2.1,7.52,4.9,8.55-.96.1-1.96.07-2.99-.14l-.02.07c.3.11,1.31.54,2.86.54,3.5,0,5.86-2.17,6.82-3.82l-.07-.05Z"/>
  <path class="cls-1" d="M7.59,12.11c-2.65,0-5.76,1.91-5.76,3.66,0,.68.62,1.25,1.9,1.25,2.97,0,5.74-2.04,5.74-3.63,0-.84-.8-1.28-1.88-1.28M8.65,13.34c0,1.34-2.57,2.98-4.72,2.98-.95,0-1.46-.37-1.46-.99,0-1.36,2.6-2.97,4.62-2.97,1.31,0,1.57.67,1.57.98"/>
  <path class="cls-1" d="M.77,16.59c-.07.13-.37.71-.37,1.31,0,1.11,1.12,2.14,3.19,2.14,3.97,0,8.56-2.92,8.56-5.63,0-1.22-1.15-1.88-1.95-2.02v.05c.23.08,1.15.5,1.15,1.59,0,2.16-4.05,5.11-8.09,5.11-1.55,0-2.52-.76-2.52-1.87,0-.35.07-.58.09-.65l-.05-.02Z"/>
  <path class="cls-1" d="M13.79,14.61c.11.08.76.63.76,1.66,0,3.51-5.51,6.97-10.38,6.97C1.27,23.23-.06,21.8,0,20.53h.05c.11.66,1.06,1.84,3.6,1.84,4.88,0,10.32-3.57,10.32-6.71,0-.54-.15-.87-.23-1.02l.04-.04Z"/>
  <path class="cls-1" d="M15.63,17.89c.02.07.14.41.14.94,0,3.91-5.58,7.25-10.42,7.25-2.5,0-3.8-1.21-4.07-1.7l.04-.03c.69.6,2.05,1.06,3.64,1.06,4.28,0,10.67-3.26,10.61-7.5h.06Z"/>
</svg>