<?xml version="1.0" encoding="UTF-8"?>
<svg id="Layer_1" data-name="Layer 1" xmlns="http://www.w3.org/2000/svg" viewBox="0 0 90 45">
  <defs>
    <style>
      .cls-1 {
        fill: #fff;
      }
    </style>
  </defs>
  <path class="cls-1" d="M32.25,27.76c.34,0,.51-.17.51-.5,0-.14-.05-.26-.14-.35-.09-.09-.22-.14-.37-.14-.13,0-.25.05-.35.15-.1.1-.15.21-.15.35s.05.25.15.35c.1.1.22.15.34.15M45.21,33.52c-.34-.17-.58-.32-.73-.47,0,0-.3.19-.89.56-.35.21-.58.46-.67.73h-2.38c-.25-.31-.44-.54-.58-.7.15-.07.33-.12.54-.14.19-.02.38-.04.57-.06.08-.49-.25-.94-.99-1.35,0-.36-.11-.66-.32-.89-.17-.18-.43-.35-.8-.51-.75.35-1.12.81-1.11,1.37-.66.42-.99.85-.99,1.28l.03.12c.34-.02.69.04,1.06.18v.02c-.17.16-.36.38-.57.67h-2.35v-3.33l-.11-.07s-.2.13-.48.35c-.28.23-.47.38-.54.45l-.02.12c.07.12.1.26.09.41v.25l-.02.02c-.8,0-1.32.15-1.58.44-.16.19-.27.56-.31,1.1-.04.61-.14,1.07-.29,1.37h6.23c.18-.46.5-.87.97-1.23.49.31.82.72.98,1.23h2.27s.71.01.71.01c.28.73.8,1.1,1.57,1.1.47,0,.86-.15,1.18-.46.31-.3.47-.69.47-1.16,0-.44-.09-.77-.28-.99-.11-.14-.32-.28-.64-.43M33.97,34.38h-.9v-.37c0-.12.06-.22.17-.31.12-.09.24-.13.36-.13h.36v.8ZM39.2,33c-.14.07-.22.1-.24.1-.02,0-.09-.04-.22-.11-.13-.08-.22-.11-.26-.1.09-.15.18-.24.25-.28,0-.02.03-.08.06-.2.02-.09.08-.19.17-.27.09.05.15.12.18.21.03.09.05.18.08.27.04.03.07.06.11.08.07.06.12.13.14.19-.03.02-.12.06-.25.12M44.48,35.49c-.14,0-.27-.06-.38-.17-.11-.12-.17-.24-.17-.38,0-.14.06-.27.18-.39.12-.12.25-.17.39-.17.36,0,.54.19.54.57,0,.36-.18.54-.55.54M48.56,9.41l-.12-.11s-.22.15-.54.43c-.32.28-.49.45-.5.5.03.03.05,6.92.06,12.88h1.1v-13.71ZM33.42,27.76c.13,0,.25-.05.35-.14.1-.09.15-.21.15-.35,0-.13-.05-.24-.16-.34-.11-.1-.22-.15-.35-.15-.14,0-.26.05-.36.15-.1.1-.15.22-.15.36s.05.26.15.35c.1.09.22.14.37.14M47.49,35.44h10.68c-.19-.19-.32-.38-.38-.57-.05-.14-.08-.36-.11-.66-.14.09-.26.14-.36.14-.34,0-.63-.25-.88-.76-.39-.81-.64-1.28-.74-1.4-.4-.5-.96-.76-1.67-.76-.23,0-.49.04-.77.12l.44,1.2c.17-.14.33-.21.49-.21.29,0,.52.12.7.35.07.1.19.36.35.76.14.33.29.57.45.69h-6.08v-.02h-1.05v-9.78h-1.09c0,3.74.02,6.82.02,7.11.01.56.02,1.32,0,2.27v1.5ZM55.13,35.74c-.14,0-.26.05-.36.15-.1.1-.15.22-.15.36s.05.26.15.37c.1.1.22.15.35.15.11,0,.22-.05.33-.15.11-.1.17-.2.17-.3,0-.39-.17-.58-.5-.58"/>
  <path class="cls-1" d="M53.51,23.19c-.17.09-.28.14-.35.14-.34,0-.63-.25-.89-.77-.39-.82-.64-1.3-.74-1.43-.41-.5-.98-.76-1.7-.76-.32,0-.57.04-.76.12.11.38.24.76.4,1.16l.06.02s.1-.08.21-.14c.11-.05.2-.08.26-.08.27,0,.49.12.67.35.09.13.22.38.38.77.15.34.29.57.41.7h-4.91v1.11h7.41c-.28-.31-.44-.71-.46-1.2M44.34,24.39h.69v-1.11h-.69v1.11ZM50.72,19.75c.32,0,.49-.17.49-.5s-.17-.5-.5-.5c-.14,0-.26.05-.36.14s-.15.21-.15.35.05.26.15.36c.1.1.22.15.37.15M41.85,9.41l-.12-.11s-.22.15-.54.43c-.32.28-.49.45-.5.5.04.05.07.51.08,1.3.01.56.02,10.4,0,11.35v1.5h2.04v-1.11h-.98v-13.87ZM39.63,9.31s-.22.18-.53.42c-.22.17-.39.31-.5.44v.07s0,.06.03.11c.03.05.05.09.05.11v12.82h-1.5c0-.76.05-2.11-.23-2.37-.23-.2-.85-.32-1.48-.32h-2.48c-.09,0-.24-.11-.46-.33-.1.36-.37.83-.8,1.42h3.98c.13,0,.24.08.32.22.06.12.09.25.09.4l-.02,1.05h-4.46v1.04h8.11v-14.93l-.05-.12-.07-.04Z"/>
  <path class="cls-1" d="M46.32,9.41l-.08-.11s-.24.16-.57.44c-.34.29-.5.46-.5.5,0,.02.01.05.04.09.03.05.04.08.04.09v18.35h-1.15V9.39l-.09-.08s-.24.15-.57.44c-.33.28-.5.44-.5.48l.12.28v18.33h-9.57c-.17,0-.43-.09-.77-.28-.17.52-.5.97-.99,1.35h15.53v-1.11h-.94V9.41ZM39.08,26.87s-.09.04-.16.09c-.08.05-.15.07-.22.07-.41,0-.61-.17-.61-.51,0-.15.06-.28.18-.38.12-.11.25-.16.38-.16.02,0,.14.04.37.13v-.16c-.06-.07-.26-.61-.34-.88-.04-.12-.3.12-.4.16-.38.17-.61.29-.69.37-.22.2-.33.52-.33.96,0,.19.06.35.19.48-.73.01-1.09.28-1.09.8h3.04c-.19-.33-.3-.65-.32-.96M57.96,9.52s-.22.15-.54.43c-.32.28-.49.45-.5.5.05.05.08.47.09,1.26.02.56.02,15.91,0,16.87v4.58h1.06V9.62l-.12-.11ZM55.27,9.79c-.3.25-.48.41-.56.48v.07s.08.36.09.97c.02.43.02,15.61.01,16.36-.02.95-.02,1.34-.02,1.17h-1.37c-.26-.46-.51-.75-.76-.86-.39-.17-.66-.33-.81-.48-.1.13-.32.27-.66.44-.31.16-.61.45-.91.86h-.35s-1.15-.01-1.15-.01v1.11h1.51c.11.33.31.59.6.78s.61.29.97.29c.41,0,.73-.1.97-.29.14-.12.34-.38.6-.78h2.45V9.52l-.11-.11s-.2.14-.5.39M52.24,29.77c-.11.11-.24.17-.39.17s-.27-.06-.38-.17c-.11-.11-.17-.24-.17-.38,0-.16.05-.29.16-.4.11-.11.24-.16.4-.16s.29.05.39.15c.11.1.16.23.16.39s-.05.28-.17.4"/>
  <rect class="cls-1" x="63.28" y="18.45" width="1.19" height="1.19" transform="translate(5.24 50.75) rotate(-45)"/>
  <rect class="cls-1" x="63.28" y="15.05" width="1.19" height="1.19" transform="translate(7.64 49.75) rotate(-45)"/>
  <rect class="cls-1" x="63.28" y="21.85" width="1.19" height="1.19" transform="translate(2.84 51.74) rotate(-45)"/>
  <rect class="cls-1" x="63.28" y="28.64" width="1.19" height="1.19" transform="translate(-1.96 53.73) rotate(-45)"/>
  <rect class="cls-1" x="25.34" y="25.24" width="1.19" height="1.19" transform="translate(-10.67 25.9) rotate(-45)"/>
  <polygon class="cls-1" points="38.63 41.65 39.24 41.65 38.94 40.03 38.63 41.65"/>
  <rect class="cls-1" x="63.28" y="25.24" width="1.19" height="1.19" transform="translate(.44 52.74) rotate(-45)"/>
  <rect class="cls-1" x="25.34" y="11.69" width="1.19" height="1.19" transform="translate(-1.09 21.94) rotate(-45)"/>
  <rect class="cls-1" x="25.34" y="32.04" width="1.19" height="1.19" transform="translate(-15.48 27.89) rotate(-45)"/>
  <rect class="cls-1" x="63.28" y="11.69" width="1.19" height="1.19" transform="translate(10.02 48.77) rotate(-45)"/>
  <rect class="cls-1" x="25.34" y="15.05" width="1.19" height="1.19" transform="translate(-3.47 22.92) rotate(-45)"/>
  <rect class="cls-1" x="25.34" y="18.45" width="1.19" height="1.19" transform="translate(-5.87 23.92) rotate(-45)"/>
  <rect class="cls-1" x="25.34" y="21.85" width="1.19" height="1.19" transform="translate(-8.27 24.91) rotate(-45)"/>
  <rect class="cls-1" x="25.34" y="28.64" width="1.19" height="1.19" transform="translate(-13.08 26.9) rotate(-45)"/>
  <path class="cls-1" d="M21.95,45h46.1V0H21.95v45ZM65.63,14.84l-.84-.84.84-.84v1.68ZM64.79,27.58l.84-.84v1.68l-.84-.84ZM65.63,31.82l-.84-.84.84-.84v1.68ZM64.79,24.19l.84-.84v1.68l-.84-.84ZM64.79,20.79l.84-.84v1.68l-.84-.84ZM64.79,17.4l.84-.84v1.68l-.84-.84ZM62.83,9.54l1.05-1.05,1.05,1.05-1.05,1.05,1.7,1.7-1.68,1.68,1.68,1.68-1.7,1.7,1.7,1.7-1.7,1.7,1.7,1.7-1.7,1.7,1.7,1.7-1.7,1.7,1.7,1.7-1.7,1.7,1.7,1.7-1.7,1.7,1.05,1.05-1.05,1.05-1.05-1.05,1.05-1.05-1.7-1.7,1.7-1.7-1.7-1.7,1.7-1.7-1.7-1.7,1.7-1.7-1.7-1.7,1.7-1.7-1.7-1.7,1.7-1.7-1.7-1.7,1.68-1.68-1.68-1.68,1.7-1.7-1.05-1.05ZM62.18,13.16l.84.84-.84.84v-1.68ZM62.18,16.55l.84.84-.84.84v-1.68ZM62.18,19.95l.84.84-.84.84v-1.68ZM62.18,23.35l.84.84-.84.84v-1.68ZM62.18,26.74l.84.84-.84.84v-1.68ZM62.18,30.14l.84.84-.84.84v-1.68ZM44.02,1.11s-.02.02-.04.04c0-.02,0-.04-.02-.04-.04,0-.06.02-.08.04,0-.02,0-.04-.02-.04-.04,0-.06.04-.08.06,0-.02-.02-.04-.02-.04-.02.02-.08.02-.08.08t-.04-.04s-.04.04-.04.08c0-.02,0-.04-.02-.04-.02.02-.04.04-.04.08l-.02-.02s-.04.08-.04.11c0-.02-.02-.04-.02-.04-.04.04-.02.1-.04.13-.04-.23.06-.44.27-.5.21-.08.44-.13.67-.02,0,0,.02-.02.02-.04-.02-.06-.08-.17-.15-.1,0-.02,0-.04.02-.06-.04-.06-.1.02-.13,0l.02-.02c-.04-.06-.08.02-.12,0l.02-.02s-.02-.02-.04-.02c-.02.02-.08.02-.08.08,0-.02.02-.08-.02-.08-.06.02-.08.1-.12.13-.02-.08,0-.15.08-.19.17-.12.34-.13.54-.08.12.04.17.13.23.23.04-.08.06-.15.08-.25,0,.02,0,.04.02.06.04-.08.02-.17.06-.25.04.08.02.17.06.25.02-.02.02-.04.02-.06.02.1.04.17.08.25.06-.13.17-.21.31-.25.21-.04.56.02.54.29-.04-.04-.06-.12-.11-.13-.04,0-.02.06-.02.08,0-.06-.06-.06-.08-.08-.02-.02-.04,0-.04.02s.02.02.02.04c-.04-.02-.08-.06-.12-.02.02,0,.02.02.02.04-.04-.02-.08-.04-.11-.04-.04.02.02.06,0,.08-.02-.04-.06-.02-.08-.02-.04.04-.12.15-.1.15.23-.1.5-.06.71.02.08.02.17.1.23.17.04.1.06.21.04.33-.04-.04,0-.1-.04-.13,0,0-.02.02-.02.04,0-.08-.06-.11-.1-.17-.02,0-.02.02-.02.04,0-.04-.02-.06-.04-.08t-.04.04c0-.06-.06-.06-.08-.08,0,0-.02.02-.02.04-.02-.02-.04-.04-.06-.06-.04,0-.06.04-.1,0-.02-.02-.04,0-.04.04t-.04-.04s-.1-.02-.13.02c.17.15.42.21.58.42.15.23.23.48.15.73-.02-.06.02-.13-.02-.19-.04.04,0,.1-.02.15-.02-.06-.02-.11-.06-.17-.04.04-.02.1-.02.13-.02-.08,0-.15-.06-.21-.02,0,0,.06-.04.08,0-.06.02-.13-.04-.19,0,0-.02.02-.02.04,0-.06.02-.13-.04-.15-.04,0-.02.06-.02.08-.02-.08-.02-.17-.08-.21-.02-.02-.02.04-.02.06-.02-.06-.02-.15-.08-.17-.02,0-.02.06-.02.08-.02-.06-.06-.11-.08-.17t-.04.04c-.02-.06-.06-.1-.12-.12-.02,0-.02.04-.02.06.12.15.27.27.36.42.13.27.1.59-.04.86.02-.06.06-.15,0-.17-.04-.02,0,.06-.04.08,0-.12,0-.21-.04-.33-.02.02-.04.04-.04.08,0-.02,0-.04-.02-.04-.02,0-.02.02-.02.04,0-.08.01-.17.04-.25,0-.04-.02-.08-.04-.12-.02.02-.04.04-.04.08-.02-.08,0-.17-.04-.25-.04.02-.02.06-.02.08-.04-.06.02-.13-.04-.17-.02,0,0,.06-.04.08,0-.06.02-.13-.04-.17-.02,0-.02.06-.02.08,0-.06-.02-.15-.08-.17-.02,0,0,.06-.02.08h-.04s0-.04-.02-.04-.04,0-.04.02c.02.06.1.06.12.12,0,.06.06.08.06.13-.02-.04-.08-.06-.12-.02.1.04.19.1.17.21,0-.04-.04-.08-.08-.1-.02,0-.06,0-.06.02.08.08.15.15.13.27,0-.04-.02-.08-.06-.1-.02,0-.04.02-.04.02.05.1.08.19.08.3,0,0,0-.02-.02-.01-.04,0-.02.06-.02.1l-.02-.02c-.04.06.02.1,0,.15-.02.06-.02.1-.04.15-.02-.06.02-.13-.02-.19-.04.08-.04.17-.04.27,0-.02,0-.04-.02-.04-.04.02,0,.08-.04.1.02-.13-.04-.27-.04-.4.02,0,.04,0,.04-.02,0-.04.02-.12-.02-.12-.04-.02,0,.08-.04.1,0-.08,0-.15-.06-.17-.04-.02.02.06-.04.08-.08.02-.04-.06-.08-.1-.06.77-.04,1.17,0,1.94,0,.1.06.19.04.29-.02.04-.04.1-.02.13,0,.06.02.12.06.17.02.08-.06.15-.04.23.06.14.12.27.21.4h-.77c.08-.15.21-.29.19-.46,0-.06-.04-.12-.02-.17.1-.15.02-.29.04-.46.02-.04.04-.08.04-.11.04-.79.04-1.17,0-1.96-.04.02-.02.06-.02.08-.02.04-.08.02-.1-.02.02,0,.02-.02.02-.04-.04-.06-.04.02-.06.02-.02.04-.04.1-.02.15-.04-.02,0-.11-.04-.1-.04,0-.02.08-.02.12,0,.02.02.02.04.02,0,.14-.06.27-.04.4-.04-.02,0-.08-.04-.1-.02,0-.02.02-.02.04,0-.1,0-.19-.04-.27-.04.06,0,.13-.02.19-.02-.06-.02-.1-.04-.15-.02-.06.04-.1,0-.15l-.02.02s.02-.1-.02-.1c-.02,0-.02,0-.02.01,0-.1,0-.2.08-.28.02-.02,0-.04-.02-.04-.06,0-.06.06-.08.1-.02-.11.06-.19.13-.27,0-.02-.04-.02-.06-.02-.04.02-.08.06-.08.1-.02-.12.08-.17.17-.21-.04-.04-.1-.02-.12.02.04-.08.08-.13.15-.19-.02-.02-.04-.04-.08-.04.04-.02,0-.06.04-.08,0-.02-.02-.02-.04-.02-.06.04-.1.12-.1.19,0-.02,0-.08-.02-.08-.06.04-.04.12-.04.17-.04-.02,0-.08-.04-.08-.06.04,0,.12-.04.17,0-.02.02-.06-.02-.08-.04.08-.02.17-.04.25,0-.04-.02-.06-.04-.08-.02.06-.06.1-.02.15.06.09.06.17.02.27,0-.04.02-.08-.02-.1-.02,0-.02.02-.02.04,0-.04-.02-.06-.04-.08-.04.12-.04.21-.04.33-.04-.02,0-.1-.04-.08-.03,0-.03.04-.03.07-.09-.23-.11-.49,0-.72.08-.15.21-.29.35-.42.02-.02.06-.08,0-.08-.06-.02-.1.04-.12.1t-.04-.04c-.02.06-.06.12-.08.17,0-.02,0-.08-.02-.08-.06.02-.06.11-.08.17,0-.02,0-.08-.02-.06-.06.04-.06.13-.08.21,0-.02.02-.08-.02-.08-.06.02-.04.1-.04.15,0-.02-.02-.04-.02-.04-.06.06-.04.13-.04.19-.04-.02-.02-.08-.04-.08-.06.06-.04.14-.06.21-.02-.04.02-.1-.02-.13-.04.06-.04.12-.06.17-.02-.06.02-.11-.02-.15-.04.06,0,.13-.02.19-.04-.17-.04-.34.02-.5.04-.08.08-.15.13-.23.06-.08.13-.13.21-.19.12-.1.27-.12.36-.23-.04-.04-.1.02-.13-.02M43.14,5.02c.63.19,1.19.54,1.71.92,1.09-.96,2.63-1.32,4.04-1.05-1.36.04-2.78.4-3.78,1.36.27.25.54.5.81.75.08-.11.08-.27.17-.38.1-.12.25-.17.38-.15.15.04.27.19.23.35-.06.23-.31.29-.52.15-.04-.02-.1.11-.06.17.08.13.23.21.38.27.11-.17.38-.17.5,0,.1.13.04.33-.1.38-.36.15-.75-.1-1.03-.33-.17.27-.63.56-.9.21-.04-.06-.06-.14-.04-.21.04-.15.19-.27.35-.23.08.02.15.04.19.12.04.06-.02.15.06.13.06,0,.15-.1.13-.12-.19-.36-.56-.56-.84-.82-.29.27-.61.46-.84.81-.04.06.08.13.13.13.08,0,.04-.17.14-.21.1-.04.19-.06.29-.02.12.06.19.19.17.32-.04.19-.25.27-.42.25-.21-.04-.4-.17-.52-.36-.27.21-.58.42-.94.38-.08-.02-.15-.06-.19-.13-.08-.13-.04-.31.1-.4.13-.08.31-.04.4.1.15-.06.31-.13.38-.27.04-.06-.02-.19-.08-.17-.1.04-.21.1-.33.06-.12-.06-.19-.19-.17-.33.04-.17.19-.27.36-.23.09.04.17.08.25.15.1.12.1.27.17.38.27-.25.54-.5.81-.75-1-.96-2.42-1.32-3.78-1.36.79-.15,1.59-.1,2.38.13M30.37,8.22h29.26v28.57h-29.26V8.22ZM27.69,14.84l-.84-.84.84-.84v1.68ZM26.85,27.58l.84-.84v1.68l-.84-.84ZM27.69,31.82l-.84-.84.84-.84v1.68ZM26.85,24.19l.84-.84v1.68l-.84-.84ZM26.85,20.79l.84-.84v1.68l-.84-.84ZM26.85,17.4l.84-.84v1.68l-.84-.84ZM24.23,13.16l.84.84-.84.84v-1.68ZM24.23,16.55l.84.84-.84.84v-1.68ZM24.23,19.95l.84.84-.84.84v-1.68ZM24.23,23.35l.84.84-.84.84v-1.68ZM24.23,26.74l.84.84-.84.84v-1.68ZM24.23,30.14l.84.84-.84.84v-1.68ZM25.82,43.39l-.62-2.06-.37.73v1.33h-.45v-4.39h.45v1.95l.92-1.95h.61l-.85,1.71.89,2.68h-.59ZM27.14,43.39h-.45v-4.39h.45v4.39ZM25.93,34.33l1.05,1.05-1.05,1.05-1.05-1.05,1.05-1.05-1.7-1.7,1.7-1.7-1.7-1.7,1.7-1.7-1.7-1.7,1.7-1.7-1.7-1.7,1.7-1.7-1.7-1.7,1.7-1.7-1.7-1.7,1.68-1.68-1.68-1.68,1.7-1.7-1.05-1.05,1.05-1.05,1.05,1.05-1.05,1.05,1.7,1.7-1.68,1.68,1.68,1.68-1.7,1.7,1.7,1.7-1.7,1.7,1.7,1.7-1.7,1.7,1.7,1.7-1.7,1.7,1.7,1.7-1.7,1.7,1.7,1.7-1.7,1.7ZM29.42,43.39h-.46l-.9-2.86v2.86h-.42v-4.39h.44l.92,2.93v-2.93h.42v4.39ZM31.98,42.79c-.09.18-.23.34-.41.47-.18.14-.36.21-.55.21-.23,0-.44-.1-.61-.29-.18-.19-.31-.47-.39-.83-.09-.36-.13-.75-.13-1.17,0-.46.05-.86.15-1.22.1-.35.24-.63.43-.82.14-.15.32-.22.54-.22.28,0,.5.11.65.34.16.23.26.55.3.95l-.45.16c-.03-.22-.09-.39-.18-.51-.09-.12-.2-.19-.33-.19-.2,0-.35.12-.47.37-.12.25-.18.61-.18,1.09,0,.52.06.91.18,1.17.12.26.27.39.47.39.1,0,.19-.04.29-.11.1-.07.18-.16.25-.26v-.56h-.52v-.74h.98v1.75ZM34.84,43.39l-.62-2.06-.37.73v1.33h-.45v-4.39h.45v1.95l.92-1.95h.61l-.85,1.71.89,2.68h-.59ZM37.52,43.39h-.45v-1.92h-.89v1.92h-.45v-4.39h.45v1.73h.89v-1.73h.45v4.39ZM39.59,43.39l-.2-1h-.9l-.19,1h-.48l.87-4.39h.48l.9,4.39h-.49ZM41.97,43.39h-1.58v-4.35h.45v3.61h1.13v.74ZM42.8,43.39h-.45v-4.39h.45v4.39ZM45.11,42.17c-.06.32-.14.58-.24.77-.08.15-.19.27-.32.35-.1.06-.23.09-.4.09h-.85v-4.39h.83c.19,0,.33.03.43.08.13.08.25.21.34.4.09.19.16.43.22.71.05.28.07.63.07,1.04,0,.36-.02.67-.07.93M48.34,41.31c0,.53-.01.9-.04,1.12-.02.22-.07.4-.13.55-.07.15-.15.27-.26.36-.11.09-.25.13-.43.13-.21,0-.38-.05-.49-.15-.11-.1-.2-.22-.26-.38-.06-.15-.11-.32-.13-.49-.03-.25-.05-.62-.05-1.11v-2.34h.45v2.38c0,.38,0,.62.02.73.02.18.07.32.14.43.07.11.17.16.3.16s.23-.05.29-.15c.06-.1.1-.23.12-.38.01-.15.02-.4.02-.75v-2.43h.45v2.31ZM50.67,43.39h-.45l-.91-2.86v2.86h-.42v-4.39h.44l.92,2.93v-2.93h.42v4.39ZM51.65,43.39h-.45v-4.39h.45v4.39ZM53.2,43.39h-.48l-.8-4.39h.49l.57,3.25.55-3.25h.48l-.8,4.39ZM56.01,43.39h-1.71v-4.39h1.66v.74h-1.21v.97h1.13v.74h-1.13v1.19h1.25v.74ZM57.93,43.39l-.33-.95c-.12-.34-.2-.56-.24-.65-.04-.09-.09-.15-.14-.18-.05-.03-.12-.05-.23-.05h-.09v1.83h-.45v-4.39h.95c.24,0,.41.04.52.12.11.08.2.22.26.42.07.2.1.43.1.69,0,.33-.05.6-.15.82s-.25.35-.44.41c.1.11.18.23.24.37s.15.37.26.71l.27.86h-.54ZM60.38,42.82c-.07.22-.17.38-.3.49-.13.11-.29.16-.49.16-.28,0-.5-.13-.65-.38-.15-.26-.24-.63-.27-1.12l.44-.08c.03.29.08.5.16.64.08.14.19.2.33.2.15,0,.26-.06.33-.18.07-.12.11-.26.11-.42,0-.1-.02-.19-.05-.26-.03-.07-.09-.14-.16-.19-.05-.04-.17-.1-.36-.19-.24-.12-.41-.26-.51-.43-.14-.24-.21-.54-.21-.88,0-.22.03-.43.1-.63.07-.19.16-.34.28-.44.12-.1.27-.15.44-.15.28,0,.49.12.64.36.14.24.22.56.22.97l-.45.04c-.02-.23-.06-.39-.12-.49-.06-.1-.16-.15-.29-.15s-.23.05-.31.16c-.05.07-.07.16-.07.27,0,.1.02.19.07.27.06.09.2.19.42.29.22.1.38.21.49.32.11.11.19.26.25.45.06.19.09.42.09.7,0,.25-.04.49-.11.71M61.37,43.39h-.45v-4.39h.45v4.39ZM63.49,39.74h-.66v3.65h-.45v-3.65h-.67v-.74h1.78v.74ZM64.89,41.55v1.84h-.45v-1.85l-.82-2.54h.53l.53,1.74.52-1.74h.52l-.83,2.55Z"/>
  <path class="cls-1" d="M57.82,40.29c0-.15-.02-.27-.06-.36-.04-.09-.1-.15-.17-.17-.04,0-.15-.02-.33-.02h-.35v1.11h.34c.22,0,.35-.02.41-.05.05-.04.1-.1.13-.19.03-.09.05-.2.05-.33"/>
  <rect class="cls-1" x="63.28" y="32.04" width="1.19" height="1.19" transform="translate(-4.36 54.73) rotate(-45)"/>
  <path class="cls-1" d="M44.53,39.99c-.05-.1-.13-.17-.21-.21-.06-.03-.19-.04-.37-.04h-.2v2.91h.34c.13,0,.22-.01.27-.04.07-.04.14-.1.18-.18.05-.09.09-.23.12-.42.03-.2.05-.46.05-.8s-.02-.6-.05-.78c-.03-.18-.07-.32-.13-.42"/>
</svg>