<?xml version="1.0" encoding="UTF-8"?>
<svg id="Layer_1" data-name="Layer 1" xmlns="http://www.w3.org/2000/svg" viewBox="0 0 90 45">
  <defs>
    <style>
      .cls-1, .cls-2 {
        fill: #fff;
      }

      .cls-2 {
        fill-rule: evenodd;
      }
    </style>
  </defs>
  <path class="cls-1" d="M13.79,21.61c.04.19.18.34.37.39v.02s.22.99.22.99h-.3l.3,1.39h-.3l.3,1.39h.6l.3-1.39h-.3l.3-1.39h-.3l.22-1.01c.19-.04.33-.2.37-.39.58.18,1.3.63,1.67,1.76,0,0,.76-1.93-.69-3.02-.27-.2-.53-.32-.77-.4.37-.11.86-.11,1.49.15,0,0-.7-1.39-2.21-1-.14.04-.26.09-.37.15-.11-.06-.23-.11-.36-.15-1.51-.39-2.21,1-2.21,1,.63-.26,1.12-.25,1.49-.15-.25.08-.51.2-.77.4-1.45,1.09-.7,3.02-.7,3.02.38-1.13,1.09-1.58,1.67-1.76"/>
  <path class="cls-1" d="M9.94,16.67c.17-2.4,1.48-4.4,3.25-5.14-.15-.35-.23-.75-.23-1.19,0-.14.01-.28.03-.41-2.09.92-3.61,3.48-3.7,6.52.1.03.2.06.3.09.12.04.24.08.36.12"/>
  <path class="cls-1" d="M20.11,16.46c-.08-3.04-1.6-5.6-3.69-6.52.02.13.03.27.03.41,0,.44-.09.84-.23,1.19,1.77.74,3.07,2.73,3.24,5.14.12-.04.24-.09.36-.12.1-.03.2-.06.29-.09"/>
  <path class="cls-1" d="M14.7,12.25c.71,0,1.28-.85,1.28-1.9s-.57-1.9-1.28-1.9-1.28.85-1.28,1.9.58,1.9,1.28,1.9"/>
  <path class="cls-1" d="M26.88,21.54c-.15,1.89-1.63,3.74-3.83,4.66.08.1.15.2.23.3.06.08.12.17.17.25,2.84-1.02,4.78-3.25,5.01-5.51-.12.05-.25.11-.38.15-.42.14-.83.18-1.2.15"/>
  <path class="cls-1" d="M20.11,17.15c2.32-.56,4.6.07,5.84,1.51.28-.25.64-.45,1.06-.59.13-.04.27-.08.4-.1-1.51-1.69-4.39-2.35-7.29-1.51,0,.08,0,.17,0,.25,0,.15,0,.29-.01.44"/>
  <path class="cls-1" d="M19.48,17.33s.04-.01.06-.02c.19-.06.38-.11.57-.16,0-.14.01-.29.01-.44,0-.09,0-.17,0-.25-.1.03-.2.06-.29.09-.12.04-.24.08-.36.12.01.18.02.36.02.54,0,.04,0,.08,0,.12"/>
  <path class="cls-1" d="M29.35,19.15c-.22-.67-1.2-.96-2.2-.63-1,.32-1.63,1.13-1.41,1.81.22.67,1.2.96,2.2.63,1-.33,1.63-1.13,1.41-1.81"/>
  <path class="cls-1" d="M22.8,26.97c1.25,2.03,1.36,4.4.36,6.02.32.19.63.47.89.82.08.11.15.23.22.35,1.14-1.96.88-4.9-.81-7.4-.1.04-.19.07-.29.1-.12.04-.24.07-.37.11"/>
  <path class="cls-1" d="M14.68,33.09c1.86,2.4,4.58,3.57,6.81,3.09-.09-.1-.18-.2-.27-.31-.25-.35-.43-.73-.51-1.1-1.86.44-4.08-.4-5.63-2.23-.06.09-.13.19-.2.28-.06.09-.14.18-.21.27"/>
  <path class="cls-1" d="M21.52,33.3c-.57.42-.54,1.44.08,2.29.62.85,1.58,1.2,2.16.79.57-.42.54-1.45-.08-2.29-.62-.85-1.58-1.2-2.15-.78"/>
  <path class="cls-1" d="M5.91,26.74c-1.67,2.49-1.92,5.41-.78,7.36.06-.12.13-.23.22-.35.25-.35.56-.63.88-.82-.98-1.61-.88-3.95.34-5.97-.11-.03-.22-.07-.34-.1-.11-.03-.21-.07-.32-.11"/>
  <path class="cls-1" d="M14.28,32.53c-1.55,1.8-3.75,2.62-5.59,2.18-.09.37-.25.75-.51,1.1-.08.11-.17.22-.26.32,2.21.48,4.91-.67,6.77-3.03-.05-.07-.11-.15-.16-.22-.09-.11-.17-.23-.24-.34"/>
  <path class="cls-1" d="M7.88,33.25c-.58-.42-1.54-.07-2.16.78-.62.85-.65,1.87-.08,2.29.57.41,1.54.06,2.15-.78.62-.85.65-1.88.08-2.29"/>
  <path class="cls-1" d="M9.29,16.46c-2.9-.84-5.78-.18-7.29,1.51.13.03.26.06.4.1.42.13.77.34,1.06.59,1.24-1.44,3.52-2.07,5.84-1.51,0-.15-.01-.29-.01-.44,0-.08,0-.17,0-.25"/>
  <path class="cls-1" d="M6.32,26.19c-2.19-.92-3.65-2.76-3.8-4.64-.38.03-.79-.01-1.2-.15-.13-.04-.26-.09-.38-.15.23,2.26,2.15,4.47,4.98,5.5.07-.1.14-.2.21-.29.06-.09.13-.18.2-.26"/>
  <path class="cls-1" d="M9.92,17.33s0-.08,0-.12c0-.19,0-.36.02-.54-.12-.04-.24-.09-.36-.12-.1-.03-.2-.06-.29-.09,0,.08,0,.17,0,.25,0,.15,0,.29.01.44.19.05.38.1.57.16.02,0,.04.01.06.02"/>
  <path class="cls-1" d="M3.66,20.32c.22-.67-.41-1.48-1.41-1.81-1-.32-1.98-.04-2.21.63-.22.68.42,1.48,1.41,1.81,1,.32,1.98.04,2.2-.63"/>
  <path class="cls-1" d="M25.34,20.45c-.68-2.09-3.35-3.1-5.96-2.25-.26.08-.51.18-.75.3.04-.28.06-.56.06-.86,0-2.74-1.79-4.98-3.99-4.98s-3.98,2.23-3.98,4.98c0,.29.02.58.06.86-.24-.11-.49-.22-.75-.3-2.61-.85-5.29.16-5.97,2.25-.68,2.09.89,4.48,3.5,5.32.24.08.49.14.73.19-.16.18-.32.37-.47.57-1.61,2.22-1.48,5.08.3,6.37,1.78,1.29,4.53.53,6.15-1.68.15-.21.29-.43.41-.65.13.24.28.47.44.7,1.61,2.22,4.37,2.97,6.15,1.68,1.78-1.29,1.91-4.15.3-6.37-.16-.22-.33-.43-.51-.61.26-.05.52-.11.77-.2,2.61-.85,4.18-3.24,3.5-5.33M20.98,25.89s-.08.01-.11.02c.03.03.05.05.08.08.2.2.38.42.55.65,1.58,2.18,1.46,4.97-.28,6.23-1.74,1.26-4.43.51-6.01-1.66-.18-.24-.33-.49-.46-.75-.02-.03-.04-.07-.06-.1-.02.03-.03.07-.05.1-.13.24-.27.47-.44.69-1.58,2.18-4.28,2.92-6.01,1.66-1.74-1.26-1.86-4.06-.28-6.23.16-.22.33-.42.5-.6.03-.03.06-.06.08-.08-.04,0-.08-.01-.11-.02-.26-.05-.52-.11-.78-.2-2.56-.83-4.1-3.17-3.44-5.21.66-2.04,3.28-3.02,5.85-2.19.28.09.54.2.8.32.03.02.07.03.1.05,0-.04-.01-.08-.02-.11-.04-.3-.06-.6-.06-.91,0-2.69,1.74-4.88,3.88-4.88s3.89,2.19,3.89,4.88c0,.31-.02.61-.07.91,0,.04-.01.07-.02.11.03-.02.07-.03.1-.05.26-.12.52-.23.8-.32,2.56-.83,5.18.15,5.84,2.19.66,2.04-.88,4.38-3.44,5.21-.27.09-.55.16-.82.2"/>
  <path class="cls-1" d="M23.28,26.5c-.07-.1-.15-.2-.23-.3-.18.07-.36.14-.55.2-.02,0-.04.01-.06.02.01.02.03.03.04.05.12.16.23.33.33.49.12-.04.24-.07.37-.11.1-.03.19-.07.29-.1-.06-.09-.12-.17-.18-.25"/>
  <path class="cls-1" d="M14.73,32.09s-.04-.05-.05-.08c0,0,0,.02-.02.03-.12.17-.25.33-.39.49.08.12.16.23.24.34.05.07.11.15.16.22.07-.09.14-.18.21-.27.07-.09.13-.19.2-.28-.12-.14-.24-.29-.35-.44"/>
  <path class="cls-1" d="M6.9,26.4c-.2-.07-.4-.14-.59-.22-.07.09-.14.17-.2.26-.07.1-.14.2-.21.29.11.04.21.08.32.11.11.04.22.07.34.1.11-.18.23-.36.36-.54,0,0,0,0,0,0,0,0-.02,0-.03,0"/>
  <path class="cls-2" d="M20.03,25.32s-.08,0-.12,0c-.89.04-1.76.18-2.61.46-.57.2-1.12.46-1.62.82-.21.15-.41.31-.6.49-.03.03-.03.04,0,.07.34.31.67.62,1,.93.04.03.05.02.06-.02.03-.06.05-.13.07-.2.03-.11.07-.21.16-.29.13-.13.29-.19.47-.17.17.02.32.2.32.37,0,.18-.13.34-.31.37-.13.03-.25,0-.36-.07-.05-.03-.07-.02-.09.02-.04.08-.04.15.01.23.09.13.23.2.37.27.07.03.12.04.18-.03.13-.12.28-.13.44-.06.13.06.22.2.22.35,0,.14-.09.26-.23.31-.25.09-.48.05-.72-.05-.22-.09-.4-.22-.59-.37-.03-.02-.04-.02-.06,0-.16.21-.36.37-.62.44-.17.04-.32.01-.47-.1-.18-.15-.2-.38-.04-.56.16-.17.37-.16.54-.05.07.04.1.1.09.19,0,.08.02.09.09.07.06-.02.1-.06.14-.11.02-.02,0-.04,0-.06-.09-.16-.2-.29-.33-.41-.19-.18-.39-.33-.59-.49-.06-.05-.11-.09-.17-.15-.02-.02-.03-.02-.05,0-.21.2-.44.37-.66.56-.16.14-.3.29-.42.47-.03.05-.03.08,0,.12.04.04.08.06.13.07.04,0,.07,0,.08-.05.01-.04.02-.07.03-.11.02-.07.06-.12.13-.14.05-.01.09-.03.14-.03.22-.03.36.11.42.29.06.17-.03.35-.2.44-.18.09-.36.08-.53,0-.2-.09-.36-.21-.48-.4-.02-.03-.03-.03-.06,0-.18.14-.36.27-.57.36-.19.09-.39.14-.61.12-.29-.03-.4-.31-.31-.52.12-.31.46-.3.63-.13.05.05.09.06.15.03.15-.07.3-.15.39-.29.05-.07.05-.15,0-.23-.02-.04-.05-.05-.1-.03-.05.02-.11.04-.16.06-.23.07-.38-.02-.46-.23-.06-.16-.02-.3.1-.41.12-.11.26-.13.41-.07.02,0,.03.01.04.02.18.08.31.2.36.4.02.08.05.16.09.24.01.02.02.03.05,0,.34-.32.67-.63,1.02-.94.03-.02.01-.04,0-.05-.25-.23-.51-.44-.8-.62-.73-.47-1.52-.76-2.36-.94-.47-.1-.95-.16-1.44-.2-.1,0-.2,0-.3-.01-.02,0-.03,0-.05-.01.1-.02.19-.03.29-.05.43-.06.86-.07,1.29-.04.41.03.81.09,1.2.19.59.14,1.13.37,1.65.67.31.19.62.39.91.61.04.03.06,0,.09-.02.46-.4.97-.71,1.52-.95.49-.21,1-.36,1.53-.44.54-.09,1.08-.1,1.63-.06.19.01.37.04.56.07.02,0,.03,0,.05.02"/>
  <path class="cls-1" d="M41.88,21.81s.69.79.19.79h-.83c-.44,0-1.04-.19-1.39-.79-.57.1-.95.12-1.24.12-1.42,0-2.76-.7-2.76-2.31,0-1.79,1.53-2.42,3.13-2.42.65,0,1.15.04,1.47.08v2.9c0,1.02.31,1.63,1.07,1.63h.37ZM39.48,18c-.22-.05-.44-.06-.75-.06-1.07,0-1.91.54-1.91,1.66s.93,1.57,1.89,1.57c.25,0,.52-.02.76-.05v-3.12ZM37.49,15.72c0-.3.23-.55.52-.55s.54.24.54.55-.21.55-.54.55-.52-.25-.52-.55M38.96,15.72c0-.3.24-.55.55-.55s.52.24.52.55-.2.55-.54.55c-.31,0-.54-.25-.54-.55"/>
  <path class="cls-1" d="M41.76,21.81h.86v-1.99l.94-.35-.2,2.18c.37-2.11,1.98-4.41,4.49-4.41,1.41,0,2.83.84,2.83,2.43,0,1.38-1.13,2.92-3.05,2.92h-5.53l-.35-.79ZM47.83,18.02c-2.07,0-3.42,1.7-3.93,3.79h3.67c1.37,0,2.1-1.14,2.11-2,0-.51-.3-1.79-1.85-1.79M47.25,15.96c-.31,0-.54-.26-.54-.56s.24-.56.56-.56c.3,0,.52.24.52.56,0,.3-.21.56-.54.56h-.01Z"/>
  <path class="cls-1" d="M54.51,21.81s.69.79.19.79h-.77c-.7,0-1.81-.46-1.81-2.3v-5.12l.97-.34v5.35c0,1.02.3,1.63,1.07,1.63h.36Z"/>
  <path class="cls-1" d="M54.43,24.87c-.31,0-.52-.25-.52-.56s.23-.55.54-.55.52.24.52.55-.2.56-.52.56h-.01ZM54.35,21.81c.76,0,1.14-.61,1.14-1.63v-2.66l.97-.33v3.11c0,1.83-1.04,2.3-1.75,2.3l-.36-.79ZM55.91,24.87c-.31,0-.52-.25-.52-.56s.23-.55.55-.55.52.24.52.55-.21.56-.54.56h-.01Z"/>
  <path class="cls-1" d="M60.91,21.81s.69.79.19.79c-.73,0-1.23-.31-1.57-.75v.37c0,1.71-.67,2.64-2.26,2.69l-.12-.76c.9-.08,1.49-.31,1.43-2.29v-3.24l.95-.34v2.33c0,.58.55,1.19,1.23,1.2h.16Z"/>
  <path class="cls-1" d="M60.74,21.81c.76,0,1.14-.61,1.14-1.63v-5l.96-.34v5.47c0,1.83-1.04,2.3-1.75,2.3l-.36-.79Z"/>
  <polygon class="cls-1" points="64.28 15.17 65.25 14.83 65.25 22.6 64.28 22.6 64.28 15.17"/>
  <path class="cls-1" d="M72.07,22.59c-1.42,0-2.54-1.05-2.54-2.73,0-1.76,1.17-2.81,2.62-2.81,1.53,0,2.55,1.11,2.55,2.72,0,1.97-1.37,2.82-2.62,2.82h-.01ZM72.12,21.87c.92,0,1.6-.86,1.6-2.06,0-.89-.44-2.03-1.58-2.03s-1.61,1.05-1.61,2.06c0,1.15.65,2.02,1.58,2.02h.01ZM71.44,15.94c-.31,0-.52-.25-.52-.56s.23-.55.54-.55.52.24.52.55-.21.56-.52.56h-.01ZM72.38,15.38c0-.3.24-.55.55-.55s.52.24.52.55-.2.56-.54.56c-.31,0-.54-.25-.54-.56"/>
  <path class="cls-1" d="M75.39,24.14c.9-.08,1.49-.31,1.43-2.29v-3.24l.95-.35v3.94c0,1.72-.67,2.64-2.26,2.69l-.12-.76Z"/>
  <polygon class="cls-1" points="79.21 15.17 80.17 14.83 80.17 22.6 79.21 22.6 79.21 15.17"/>
  <path class="cls-1" d="M80.92,24.14c.9-.08,1.49-.31,1.43-2.29v-3.24l.95-.35v3.94c0,1.72-.67,2.64-2.26,2.69l-.12-.76ZM82.77,17.03c-.31,0-.52-.25-.52-.56s.23-.55.54-.55.52.24.52.55-.2.56-.52.56h-.01Z"/>
  <path class="cls-1" d="M87.58,24.14c.93-.13,1.33-.42,1.39-1.55-.3.07-.64.11-1.06.11-1.62,0-2.6-1.08-2.6-2.67s.94-2.85,2.49-2.85c1.73,0,2.17,1.1,2.17,2.49v2.45c0,1.71-.64,2.74-2.27,2.77l-.12-.76ZM86.23,19.95c.01,1.48.85,2,1.81,2,.39,0,.7-.04.97-.1v-2.54c0-.62-.29-1.45-1.29-1.45s-1.52.95-1.49,2.08"/>
  <path class="cls-1" d="M40.68,26.64c.22.02.39.1.53.26.14.15.21.34.21.55v5.35h-.5v-5.35c0-.17-.1-.28-.29-.32-.19-.04-.3.05-.34.26l-1.01,4.94c-.04.15-.11.28-.23.38-.12.1-.26.15-.41.15s-.3-.05-.43-.15c-.12-.1-.2-.23-.23-.39l-1-4.94c-.04-.21-.15-.29-.34-.26-.19.04-.29.14-.29.32v5.35h-.5v-5.35c0-.22.07-.4.21-.55.14-.16.32-.24.53-.26.22-.02.41.03.58.15.17.12.27.29.32.5l.99,4.95c.02.09.07.13.17.13.09,0,.14-.04.15-.13l1-4.95c.04-.21.15-.38.31-.5.17-.12.36-.17.58-.15"/>
  <path class="cls-1" d="M42.66,27.45h-.5v-.76h.5v.76ZM42.66,32.8h-.5v-4.57h.5v4.57Z"/>
  <path class="cls-1" d="M45.22,28.13c.49,0,.92.18,1.28.54.36.36.54.79.54,1.28v2.84h-.5v-2.84c0-.36-.13-.67-.39-.93-.26-.26-.57-.39-.93-.39s-.68.13-.94.39c-.26.26-.39.57-.39.93v2.84h-.5v-2.84c0-.51.18-.93.53-1.28.36-.36.79-.54,1.3-.54"/>
  <path class="cls-1" d="M48.28,27.45h-.5v-.76h.5v.76ZM48.28,32.8h-.5v-4.57h.5v4.57Z"/>
  <path class="cls-1" d="M50.31,28.13c.36,0,.67.13.92.39.26.25.39.55.39.91v.32h-.51v-.32c0-.22-.08-.41-.23-.56-.15-.16-.34-.23-.56-.23s-.4.08-.56.23c-.16.15-.24.33-.24.54,0,.34.16.57.48.7l.81.31c.24.09.43.25.58.46.14.21.22.45.22.71,0,.23-.06.44-.17.64-.26.43-.63.64-1.12.64-.36,0-.67-.13-.92-.38-.25-.26-.38-.56-.38-.93v-.32h.5v.32c0,.22.08.41.24.56.16.16.34.23.56.23s.4-.08.56-.23c.16-.15.24-.33.24-.54,0-.33-.16-.56-.48-.7l-.81-.32c-.25-.1-.44-.25-.58-.46-.14-.21-.21-.44-.21-.7,0-.23.06-.45.17-.64.25-.43.63-.64,1.12-.64"/>
  <path class="cls-1" d="M52.77,26.69v1.44c0,.07.03.1.1.1h.74v.5h-.74c-.07,0-.1.03-.1.09v2.77c0,.19.07.36.21.49.14.14.3.2.5.2h.14v.5h-.14c-.34,0-.63-.12-.86-.35-.23-.24-.35-.52-.35-.85v-4.91h.5Z"/>
  <path class="cls-1" d="M56.18,28.64h-.33c-.3,0-.55.11-.76.32-.21.21-.31.46-.31.75v3.1h-.5v-3.1c0-.43.15-.8.46-1.1.31-.31.68-.47,1.11-.47h.33v.5Z"/>
  <path class="cls-1" d="M59.05,34.35h-.51l.32-1.44s0-.04-.01-.06c-.01-.02-.03-.02-.05-.02,0,0-.04,0-.08.01-.04,0-.07.01-.09.01-.22,0-.42-.07-.6-.22-.18-.14-.29-.32-.34-.54l-.84-3.88h.51l.82,3.77c.05.23.2.35.45.35.24,0,.39-.12.45-.36l.84-3.76h.52l-1.38,6.12Z"/>
  <path class="cls-1" d="M64.97,28.13c.65,0,1.21.23,1.68.7.46.46.69,1.02.69,1.67s-.23,1.21-.69,1.67c-.47.47-1.02.7-1.68.7s-1.21-.23-1.67-.7c-.46-.46-.69-1.02-.69-1.67s.23-1.21.69-1.67c.46-.47,1.02-.7,1.67-.7M64.97,28.64c-.52,0-.96.18-1.32.54-.36.37-.54.81-.54,1.32s.18.94.54,1.32c.36.36.8.54,1.32.54s.96-.18,1.32-.54c.37-.37.55-.81.55-1.32s-.18-.95-.55-1.32c-.36-.36-.8-.54-1.32-.54"/>
  <path class="cls-1" d="M69.34,27.2h-.14c-.2,0-.36.07-.5.2-.14.14-.2.3-.2.49v.23c0,.07.03.1.1.1h.74v.5h-.74c-.07,0-.1.03-.1.1v3.97h-.5v-4.91c0-.33.12-.61.35-.85.24-.24.52-.36.86-.36h.14v.51Z"/>
  <path class="cls-1" d="M73.08,26.64c.42,0,.8.15,1.11.46.31.31.46.67.46,1.1v.38h-.5v-.38c0-.29-.11-.54-.32-.75-.21-.21-.46-.32-.75-.32s-.54.11-.76.32c-.21.21-.31.47-.31.75,0,.24.07.46.2.66.13.2.31.35.52.45l.91.42c.31.14.55.35.74.63.18.28.27.59.27.93,0,.43-.15.8-.46,1.11-.31.31-.68.46-1.11.46s-.81-.15-1.11-.46c-.3-.3-.46-.67-.46-1.11v-.38h.5v.38c0,.3.1.55.31.76.21.2.46.31.76.31s.55-.1.75-.31c.22-.21.32-.46.32-.76,0-.24-.07-.46-.2-.66-.13-.2-.3-.35-.52-.45l-.93-.41c-.3-.14-.55-.36-.73-.64-.18-.28-.27-.59-.27-.93,0-.43.15-.8.46-1.1.31-.31.68-.46,1.11-.46"/>
  <path class="cls-1" d="M77.68,28.13c.65,0,1.21.23,1.68.7.46.46.69,1.02.69,1.67s-.23,1.21-.69,1.67c-.47.47-1.02.7-1.68.7-.71,0-1.3-.28-1.79-.83,0-.02-.03-.02-.05-.01-.01.01-.02.02-.02.03v2.3h-.5v-3.89c0-.64.23-1.19.69-1.64.46-.46,1.02-.69,1.67-.69M77.68,28.64c-.52,0-.96.18-1.32.54-.36.37-.54.81-.54,1.32s.18.94.54,1.32c.36.36.8.54,1.32.54s.96-.18,1.32-.54c.37-.37.55-.81.55-1.32s-.18-.95-.55-1.32c-.36-.36-.8-.54-1.32-.54"/>
  <path class="cls-1" d="M83.07,28.13c.65,0,1.21.23,1.68.7.46.46.69,1.02.69,1.67s-.23,1.21-.69,1.67c-.47.47-1.02.7-1.68.7s-1.21-.23-1.67-.7c-.46-.46-.69-1.02-.69-1.67s.23-1.21.69-1.67c.46-.47,1.02-.7,1.67-.7M83.07,28.64c-.52,0-.96.18-1.32.54-.36.37-.54.81-.54,1.32s.18.94.54,1.32c.36.36.8.54,1.32.54s.96-.18,1.32-.54c.37-.37.55-.81.55-1.32s-.18-.95-.55-1.32c-.36-.36-.8-.54-1.32-.54"/>
  <path class="cls-1" d="M87.99,28.64h-.33c-.29,0-.55.11-.76.32-.21.21-.31.46-.31.75v3.1h-.5v-3.1c0-.43.15-.8.46-1.1.31-.31.68-.47,1.11-.47h.33v.5Z"/>
  <path class="cls-1" d="M89.16,26.69v1.44c0,.07.03.1.1.1h.74v.5h-.74c-.07,0-.1.03-.1.09v2.77c0,.19.07.36.21.49.14.14.3.2.5.2h.14v.5h-.14c-.34,0-.63-.12-.86-.35-.23-.24-.35-.52-.35-.85v-4.91h.5Z"/>
</svg>