<?xml version="1.0" encoding="UTF-8"?>
<svg id="Layer_1" data-name="Layer 1" xmlns="http://www.w3.org/2000/svg" viewBox="0 0 90 45">
  <defs>
    <style>
      .cls-1 {
        fill: #fff;
      }
    </style>
  </defs>
  <path class="cls-1" d="M53.14,22.7c-.14-.24-.38-.41-.65-.47-.3,0-.44.08-.44.23s.2.28.61.27c.16,0,.32,0,.47-.04M54.11,23.41c.05.68-.16,1.35-.58,1.88-.68.67-1.46,1.24-2.31,1.67-.52.35-1.09.63-1.69.83-.18,0-3.79.99-3.95.83.17-.12.36-.21.56-.29,1.55-.7,5.03-1.99,7.04-3.59.39-.3.58-.51.58-.64-.06-.12-.15-.22-.27-.29-.24-.1-.51-.15-.77-.14-.8,0-1.19-.27-1.19-.81,0-.41.15-.81.42-1.12.65-.75,1.29-.52,1.78.35.23.4.36.85.38,1.32"/>
  <path class="cls-1" d="M48.29,22.23c-.07-.18-.15-.36-.25-.53,0-.28.05-.56.11-.84.02-.08.05-.13.07-.13.09.03.18.26.84.88.1.1.27.28.12.26-.13,0-.26-.04-.38-.08.44,1.06.81,1.64.55,2.66-.05.24-.16.46-.31.65-.72.74-1.55,1.35-2.47,1.82-.55.37-1.15.66-1.77.87-.03,0-.53.12-1.47.35-.79.21-1.59.38-2.4.49h-.04c.17-.12.36-.22.55-.29,1.39-.63,3.19-1.29,4.8-2.16.79-.4,1.54-.87,2.25-1.39.39-.31.58-.52.58-.65s-.54-1.1-.77-1.88"/>
  <path class="cls-1" d="M44.68,16.72c0-.28-.04-.55-.15-.81.06-.29.15-.58.29-.85.03-.05.04-.08.06-.08s.05.03.08.08c.05.12.18.44.38.96.38.98.69,1.79-.04.95-.03-.04-.05-.02-.05.07,0,0,.45,6.15.45,6.63.02.72-.11,1.43-.37,2.1-.18.47-.26.45-.19-.09.1-.89.03-1.77-.2-4.99-.17-2.36-.26-3.69-.26-3.99M42.63,22.22c-.2-.66-.31-.23-.22-.92.02-.15.04-.3.08-.44.02-.08.05-.13.07-.14.03.02.06.04.08.07.67.84,1.43,1.26.5.98.45,1.08.81,1.64.55,2.66-.05.24-.16.46-.31.65-.72.73-1.55,1.35-2.47,1.82-.55.37-1.15.67-1.77.88-.03,0-.53.12-1.48.35-.79.22-1.59.38-2.4.49h-.04c0-.05.74-.38,2.89-1.29,2.94-1.24,5.31-2.76,5.31-3.2,0-.16-.55-1.11-.77-1.88"/>
  <path class="cls-1" d="M40.48,24.04c-.24-.43-.56-.82-.94-1.15-.29.31-.99,1.42-.99,1.75,0,.2.15.3.47.3.61,0,1.5-.73,1.47-.9M41.14,19.88c-.04.39-.19.76-.41,1.09-.18.29-.42.69-.76,1.17.7.82.79,1.22.79,1.88,0,.34-.11.67-.28.96-.39.5-.96.84-1.58.94-.4,0-.59-.3-.59-.89,0-.94.35-1.58.88-2.47-.35-.37-.67-.77-.95-1.2-.04-.04-.14-.13-.26-.27-.07-.06-.11-.16-.12-.25,0-.28.06-.55.16-.81.43.23.84.51,1.22.82h0s-.04.03-.17.03c-.12,0-.23.02-.34.07,0,.02.03.07.1.14.22.3.5.56.81.77.47-.64.9-1.32,1.27-2.03.08-.19.13-.29.15-.29s.05.09.05.32M35.01,17.39c0-.28-.04-.55-.15-.81.06-.29.15-.58.29-.85.03-.05.04-.08.05-.08s.05.03.08.08c.31.71.57,1.44.78,2.18,0,.15-.15.07-.44-.27-.08-.12-.04.08.18,3.21.15,2.07.22,3.23.22,3.49.02.72-.11,1.44-.37,2.11-.05.13-.18.44-.2.3s.06-.42.06-1.35c0-.8-.5-7.33-.5-8.01M30.47,23.27l-1.81-.46c.23-.1.46-.18.7-.23.5-.12.99-.28,1.46-.47.18-.06.19-.23.21-.36.08-.29-.23-3.8-.23-4.23.01-.28-.04-.56-.16-.81.06-.3.16-.58.3-.85.02-.05.04-.08.06-.08s.05.03.08.08c.06.12.18.43.39.96s.34.89.38,1.01c.02.07.03.14.03.22,0,.15-.14.06-.45-.28-.03-.04-.05-.02-.05.06,0,.03.05.49.15,1.82s.1,1.81-.03,2.24c-.16.56-.52,1.05-1,1.38"/>
  <path class="cls-1" d="M36.77,24.09c-.39.72-.38.82-.5.82-1.14-.09-2.29,0-3.4.26-2.56.85-5.23,1.32-7.92,1.41-1.44.06-2.88-.16-4.25-.63v-1.03c.9.44,2.41.65,4.53.65,2.49-.02,4.97-.41,7.34-1.17-.35-.04-3.15-.8-3.8-.8-.3,0-.46-.02-.46-.08,0-.03.02-.06.03-.09l.31-.61h1.76c4.72,1.31,6.37,1.03,6.37,1.22v.07s-.01-.01-.01-.01Z"/>
  <path class="cls-1" d="M19.91,24.35c.25.25.53.46.85.62v1.03c-.72-.2-1.31-.7-1.64-1.37-.56-1.22-.16-5.89-.92-7.62.04-.28.12-.55.23-.8.03-.08.06-.12.08-.13s.05.04.08.1c.92,1.75.23,7.11,1.31,8.17M17.2,22.25c-.07-.18-.15-.36-.25-.53,0-.28.05-.56.11-.83.02-.08.05-.13.07-.14.03.02.05.04.08.07.67.82,1.43,1.27.5.98.34.63.56,1.32.65,2.04,0,.45-.15.9-.41,1.27-.72.73-1.55,1.35-2.47,1.82-.55.37-1.14.66-1.77.87-.19,0-3.24.84-3.88.84h-.04c.94-.49,1.9-.92,2.89-1.3,3.09-1.3,5.31-2.78,5.31-3.2-.08-.24-.18-.48-.3-.7-.19-.38-.34-.77-.47-1.17"/>
  <path class="cls-1" d="M9.47,26.2v-1.02c.84.02,2.3-.62,3.33-1.03l-1.92-.59c-.08,0-.15.02-.2.08-.06.06-.15.08-.23.07-1.58-.11-1.55-.04-1.41-.34.29-.5.33-.73.51-.77.47-.06.94-.09,1.41-.09.02,0,.41.13,1.17.38,1.05.39,2.14.66,3.25.8,1.08.19,1.08.14,1.15.17.03.01.03.06-.02.12l-.35.65c-.16.36-.98-.42-3.29.4-.6.27-1.19.51-1.79.76-.5.24-1.04.38-1.59.41"/>
  <path class="cls-1" d="M9.52,26.2c-.63.03-1.17-.45-1.21-1.08-.14.27-.34.52-.58.7-.36.34-.82.53-1.31.54v-1.03c.52.02,1.03-.14,1.44-.47.07-.04.8-.89.86-.9s.07.04.07.1c0,.04,0,.08,0,.12-.18.64.06,1,.73.99v1.02h0Z"/>
  <path class="cls-1" d="M6.47,26.35c-.25,0-.5-.01-.75-.06-.34-.11-.64-.34-.82-.65l-.41-.7c-.14-.23-.23-.29-.37-.3-.38.01-.79.34-1.2.99-.15.3-.29.6-.41.91-.13.37-.3.73-.5,1.07-.13.28-.4.47-.7.5-.38,0-.69-.3-.95-.88-.23-.51-.35-1.05-.36-1.61,0-1.07.23-1.83.32-1.83s-.06.6-.06,1.36c0,1.44.33,2.16.99,2.16.27,0,.51-.2.73-.62.23-.5.45-1.01.69-1.5.28-.56.94-1.49,1.56-1.51.22.02.41.16.52.35.55.89.75,1.32,1.73,1.32v1.02h0ZM8.5,27.89s.01-.03,0-.06c.31-.59.33-.7.39-.72.3.16.58.35.83.57-.07.26-.18.5-.35.7-.06.13-.05,0-.88-.5M5.85,27.66c.29-.57.27-.59.33-.6.3.16.58.35.83.58-.06.26-.18.51-.35.73-.03.05-.05.05-.09.04-.23-.16-.47-.34-.76-.53-.08.19-.17.37-.29.54-.02.05-.05.06-.08.03-.25-.19-.52-.37-.79-.54.01,0,.01-.04,0-.06.28-.54.32-.7.39-.73.14.06.26.14.38.23.15.1.3.21.43.33M3.21,20.45c.29-.57.27-.59.33-.6.3.16.58.35.83.58-.06.26-.18.51-.34.73-.03.05-.05.05-.09.03-.23-.16-.47-.34-.76-.53-.08.19-.17.37-.28.55-.02.05-.05.06-.08.03-.25-.19-.52-.37-.79-.54.01,0,.01-.04,0-.06.27-.54.31-.7.39-.73.28.16.55.35.8.56M27.96,20.1s.01-.03,0-.06c.29-.56.32-.7.39-.72.3.15.58.34.83.56-.06.26-.18.51-.34.72-.07.13-.05,0-.88-.5M47.34,18.92s.01-.03,0-.06c.31-.58.33-.7.39-.72.3.16.58.35.83.57-.07.26-.18.51-.35.72-.06.13-.04,0-.88-.51M39.14,18.35c.29-.58.27-.59.33-.6.3.16.58.35.83.58-.06.26-.18.51-.34.73-.03.05-.05.05-.09.03-.23-.16-.47-.34-.76-.53-.08.18-.17.36-.28.53-.02.05-.05.06-.09.04-.25-.19-.52-.37-.79-.54.01,0,.01-.03,0-.06.27-.53.31-.7.39-.73.14.06.26.13.38.22.15.1.29.21.42.33M46.77,16.79c3.03-1.1,3.64-1.34,3.68-1.34s.01.04,0,.08c-.03.09-.08.17-.14.23-1.05.38-2.28.86-3.7,1.41.04-.12.09-.23.16-.39M15.94,27.92c2.91-1.06,3.64-1.34,3.68-1.34s.01.04,0,.08c-.03.09-.08.17-.14.23-1.05.39-2.28.85-3.7,1.41.04-.14.1-.27.16-.39M49.56,17.06c1.15-.42,2.57-.86,3.81-1.31.03,0,.05-.02.08-.03.01.01.01.04,0,.08-.03.09-.07.17-.14.23-1.04.39-2.5.86-3.91,1.41.05-.13.1-.27.16-.39M20.5,19.5c2.3-.84,8.45-3.13,8.52-3.13.01.01.01.04,0,.08-.03.09-.08.17-.14.23-1.05.39-7.13,2.65-8.54,3.22.04-.14.1-.27.16-.39M5.33,19.46c1.82-.66,8.47-3.13,8.52-3.13v.08c-.03.08-.07.16-.13.23-1.04.39-7.12,2.65-8.54,3.21.04-.13.09-.26.15-.39M40.46,17.06c2.79-1.02,3.65-1.34,3.68-1.34s.01.04,0,.08c-.03.09-.07.16-.13.23-1.05.39-2.28.86-3.69,1.41.03-.14.08-.27.14-.39M9.42,16.87l.03-.03h.01v.05c-.08.43-.22.65-.4.65s-.29-.16-.3-.48c.02-.44.14-.87.35-1.25.06-.1.09-.16.1-.17h0c-.13.37-.23.75-.29,1.13,0,.25.08.38.21.38.08-.01.18-.1.28-.28M21.45,22.79l.03-.04h0v.05c-.08.44-.22.65-.4.65s-.29-.16-.3-.47c.02-.44.14-.87.35-1.25l.1-.17h0c-.13.37-.23.75-.29,1.13,0,.25.07.37.21.37.09,0,.18-.09.28-.28M33.83,20.27l.03-.03h.01v.05c-.08.43-.22.65-.4.65s-.29-.16-.29-.48c.02-.44.14-.87.35-1.25.06-.1.09-.16.1-.17h0c-.13.37-.22.75-.29,1.13,0,.25.08.37.21.37.07,0,.17-.09.27-.27M53.45,19.21l.03-.04h.01v.05c-.08.43-.22.65-.4.65s-.29-.16-.3-.48c.02-.44.14-.87.35-1.25.06-.1.09-.16.1-.17h0c-.13.37-.23.75-.29,1.14,0,.25.08.37.21.37.09,0,.18-.09.28-.27M4.56,16.29c.45,0,.67.65.75,1.09,0,.02,0,.04,0,.05h.02s0-.02.01-.06c.05-.3.12-.6.2-.89.12-.28.23-.42.37-.42s.31.23.31.33c0,.05-.01.1-.04.15-.03.09-.06.13-.09.12s-.05-.03-.1-.11c-.03-.06-.09-.11-.16-.12-.28,0-.33,1.57-.59,1.57-.02,0-.04-.03-.04-.09-.02-.21-.08-.41-.17-.59-.11-.28-.19-.43-.23-.43l-.06.03s-.04.03-.08.03c-.15-.04-.27-.15-.33-.29.03-.07.06-.14.11-.2.05-.1.09-.16.11-.16M14.88,17.27c.45,0,.67.65.75,1.09,0,.02,0,.04,0,.06h.02s.01-.04.02-.06c.03-.2.1-.49.2-.89.11-.28.23-.42.38-.42.09.01.16.06.21.14.09.09.12.23.06.35-.1.33-.18-.09-.35-.1-.29,0-.34,1.57-.59,1.57-.02,0-.03-.04-.03-.09-.02-.21-.08-.41-.17-.59-.11-.29-.19-.43-.23-.43l-.06.03s-.04.04-.08.03c-.15-.04-.27-.15-.33-.29.03-.07.06-.14.1-.2.06-.11.1-.17.12-.17M31.96,26.7c.45,0,.67.65.75,1.09,0,.02,0,.04,0,.05h.01l.02-.06c.03-.2.1-.49.2-.89.11-.28.23-.42.38-.42s.3.23.3.34c0,.05-.01.1-.04.15-.05.18-.11.15-.19.02-.03-.06-.09-.11-.16-.12-.29,0-.33,1.57-.59,1.57-.02,0-.04-.03-.04-.09-.02-.21-.08-.41-.17-.59-.11-.29-.19-.44-.23-.44l-.06.03s-.03.04-.08.03c-.15-.04-.27-.15-.33-.29.06-.14.14-.26.23-.38M25.48,21.82c-.14.29-.35.53-.62.7-.47.35-1,.61-1.56.76-.05.02-.1.03-.16.03h-.02c.02-.08.2-.1,1.84-1.17.16-.11.3-.24.42-.39.06-.08.13-.15.2-.21h0c-.03.09-.06.18-.11.26M26.46,20.08c0,.08-.06.29-.13.27-.08.04-.33-.85-.6.67-.02.19-.07.37-.15.54-.07.13-.14.16-.14.01-.03-.2-.08-.39-.17-.57-.11-.29-.2-.43-.23-.43l-.06.03s-.04.03-.09.03c-.15-.04-.27-.15-.33-.29.06-.14.14-.26.23-.38.45,0,.67.64.75,1.08,0,.02,0,.04,0,.06h0s-.02-.05.23-.94c.15-.35.36-.58.59-.28.05.06.08.12.08.2M8.55,20.86c0,.23-.12.62-.37.62-.18,0-.31-.12-.39-.38-.08.28-.23.43-.47.43-.09,0-.18-.05-.23-.12-.07-.11-.11-.25-.1-.38-.01-.39.04-.39-.05-.42-.04-.02-.06-.06-.06-.1,0-.09.04-.17.09-.23.06-.07.1-.1.13-.1s.07.08.06.23v.36c0,.16.08.38.22.38.09,0,.18-.04.23-.11.23-.2.04-.49,0-.8,0-.02.02-.07.05-.14.02-.03.04-.06.06-.09.08.01.18.58.18.7,0,.26.1.39.3.39.08,0,.15-.05.16-.13-.14-.2-.23-.44-.26-.68,0-.12.06-.24.16-.31.03,0,.03.19.08.3,0,0,.05.12.14.31.05.08.08.18.09.27M21.48,17.98c-.03.07-.05.11-.08.11s-.03-.05-.01-.14c.09-.62-.18-1.24-.69-1.59-.02-.03-.03-.07-.01-.1l.14-.23h.07c.46.33.72.86.7,1.43,0,.19-.03.37-.1.54M24.49,16.64c-.01.19-.08.37-.19.53-.13.2-.31.38-.51.51-.04.04-.09.07-.14.09h0c.03-.08.62-.63.62-.88,0-.12-.05-.18-.16-.18s-.2.09-.23.09h-.03s.01-.48.39-.48c.16,0,.25.12.25.32M13.03,19.62c-.02.23-.1.46-.23.65-.16.25-.36.47-.61.64-.05.05-.11.09-.18.11h0c.04-.1.75-.77.75-1.08,0-.14-.06-.22-.2-.22-.07,0-.15.02-.2.07-.05.03-.07.04-.08.04l-.03-.02s.02-.57.48-.58c.2,0,.31.14.31.39M29.34,27.48c-.07.19-.2.34-.37.46-.19.16-.42.28-.67.35-.05.03-.11.04-.17.04h0c.05-.06.81-.43.9-.67.04-.12,0-.19-.1-.23-.09-.02-.18-.01-.26.02l-.02-.02s.02-.04.05-.09c.08-.2.29-.31.5-.25.16.06.21.19.14.39M1.94,16.87c-.06-.13-.05-.28.03-.4.06-.06.14-.09.22-.09.44.1.81.39,1,.8v.07c.01.12-.02.24-.08.34-.06.12-.12.18-.18.18-.17,0-.33-.03-.5-.05-.35.46-.81.82-1.35,1.06-.31.14-.62.26-.94.35h-.02c.05-.13,1.56-.84,2.15-1.41-.31-.06-.47-.19-.47-.39.01-.16.06-.31.13-.45M2.43,17.36c.04-.15,0-.39-.15-.4-.06.02-.12.05-.16.1-.07.06-.1.11-.1.14,0,.08.14.14.42.16M3.03,17.36c-.08-.17-.23-.31-.41-.38,0,.14-.02.28-.05.41.29.05.5.06.47.06.01-.02,0-.05-.01-.09M38.39,16.45c-.28-.14-.42-.3-.42-.46,0-.21.11-.4.27-.53.18-.16.33-.22.45-.18s.15.15.15.33c0,.18-.04.36-.1.54.1.05.19.12.27.2-.03.14-.09.28-.19.39-.07-.09-.16-.16-.26-.21-.16.23-.37.43-.61.59-.47.34-1,.59-1.56.75-.05.02-.1.04-.15.04h-.02c.05-.14,1.61-.85,2.18-1.47M38.57,16.06c.05-.15.04-.41-.12-.41-.06,0-.23.08-.23.14s.12.16.34.27"/>
  <path class="cls-1" d="M75.54,14.7h.01l.02.02h-.03s0-.02,0-.02ZM73.86,9.75v.07h-.01v-.07ZM72.15,14.71l.02-.02h.01l-.03.02ZM79.46,14.79c-.28-.39-.6-.75-.96-1.07,0,0,.23-.06.31.03-.31-.35-.72-.6-1.17-.7.18-.07.37-.12.56-.15-.59-.22-1.2-.36-1.83-.4,0,0,.13-.19.21-.22-.29-.09-.59-.13-.88-.13-.02-.01-.04-.02-.07-.03.53-.05,1.06-.04,1.58.05-.05-.08-.11-.15-.18-.21.39.01.78.1,1.14.25,0,0-.07-.18-.14-.2,0,0,.16-.04,1.23.42.01-.05,0-.1-.05-.12,0,0,.23-.12,1.14.14,0,0-.06-.23-.81-.66.1-.08.22-.12.35-.11-.48-.21-.98-.36-1.5-.44,0,0,.21-.18.32-.15-.46-.15-.95-.16-1.41-.03.08-.14.19-.27.32-.38-.6.06-1.17.24-1.7.52,0-.1.02-.2.05-.29-.32.1-.62.23-.91.39.19-.16.41-.27.64-.34-.1-.02-.2-.02-.3-.01.4-.21.82-.39,1.26-.52-.09-.04-.18-.08-.27-.1.33-.1.68-.16,1.03-.19-.05-.05-.1-.09-.16-.13.38-.04.75-.07,1.13-.07-.03-.04-.07-.08-.12-.1.32-.14.67-.22,1.03-.23,0,0-.1-.23-.96-.23.04-.11.13-.19.23-.23-.47,0-.95.05-1.41.17,0,0,.08-.23.19-.23-.41.04-.81.21-1.13.47,0-.13.04-.25.11-.36-.44.23-.82.56-1.11.97-.05-.08-.08-.17-.1-.26-.21.16-.38.37-.52.59-.08.01-.15.03-.22.07.22-.33.49-.63.79-.89-.07-.04-.15-.05-.23-.05.24-.19.49-.37.75-.53,0,0-.14-.04-.2,0,0,0,.07-.15.96-.54-.06-.01-.12-.01-.17,0,0,0,.1-.23.78-.63,0,0-.22-.11-.95.17,0-.11.05-.21.13-.29-.39.16-.77.38-1.11.63,0,0-.04-.18.04-.23-.27.16-.35.2-.75.83-.05-.13-.08-.27-.07-.4-.23.33-.38.71-.43,1.11-.05-.41-.2-.81-.44-1.14,0,.14-.02.28-.07.4-.4-.62-.47-.66-.75-.83.08.05.04.23.04.23-.34-.26-.71-.47-1.1-.63.08.08.12.18.12.29-.73-.28-.95-.17-.95-.17.68.4.78.63.78.63-.06-.01-.12-.01-.17,0,.89.39.96.54.96.54-.07-.02-.13-.02-.2,0,.26.16.51.33.75.52-.08,0-.16,0-.23.05.3.26.57.56.79.89-.07-.03-.14-.05-.22-.07-.14-.23-.31-.43-.52-.6.01.07-.1.26-.1.26-.29-.41-.67-.74-1.11-.96.06.11.1.24.11.36-.32-.26-.72-.43-1.13-.47.11.01.19.23.19.23-.46-.12-.93-.18-1.41-.17.11.04.19.13.23.23-.86.01-.96.23-.96.23.35.02.7.1,1.02.23-.05.02-.09.06-.12.1.38,0,.75.03,1.13.07-.06.03-.11.08-.16.13.35.03.69.09,1.03.19-.09.04-.17.08-.25.14.44.13.86.31,1.26.52-.1,0-.2,0-.3.01.24.07.46.19.65.34-.29-.17-.6-.3-.92-.41.03.09.05.19.05.29-.53-.28-1.11-.45-1.7-.52.13.11.23.23.32.38-.46-.14-.95-.13-1.41.03.11-.03.32.15.32.15-.52.09-1.02.24-1.5.44.13,0,.25.04.35.11-.75.42-.81.67-.81.67.9-.27,1.14-.15,1.14-.15-.05.02-.07.08-.05.12,1.07-.47,1.24-.42,1.24-.42-.08.03-.15.2-.15.2.36-.16.74-.24,1.14-.25-.07.06-.13.13-.19.21.52-.09,1.05-.11,1.58-.05-.02,0-.04.02-.07.03-.3,0-.6.05-.88.13.08.06.15.13.2.22-.63.05-1.25.18-1.84.4.19.03.38.08.56.15-.46.1-.87.35-1.17.7.07-.08.31-.02.31-.02-.36.32-.69.68-.96,1.07.12-.07.27-.09.4-.07-.44.76-.38,1.04-.38,1.04.58-.67.89-.75.89-.75-.02.06,0,.13.03.19.59-.92.77-.99.77-.99-.05.06,0,.22,0,.22.26-.27.54-.52.85-.73-.02.1-.04.19-.05.29.21-.2.46-.38.72-.51.1.03.21.09.23.1h0c-.55.16-1.04.48-1.42.9.17-.03.34-.04.51-.01-.66.55-.72.68-.85,1.02.04-.1.3-.12.3-.12-.24.43-.42.88-.54,1.35.1-.1.22-.17.36-.2-.16.87.05,1.04.05,1.04.32-.83.55-.96.55-.96,0,.06.04.12.09.15.26-1.06.36-1.12.36-1.12-.02.07.11.19.11.19.13-.33.29-.64.48-.94,0,.05,0,.1.02.15-.22.24-.39.52-.52.83.13-.09.28-.15.43-.19-.32.7-.3.78-.28,1.1,0-.09.19-.17.19-.17-.02.43.02.85.13,1.27.03-.11.1-.21.2-.28.22.76.47.87.47.87-.07-.34-.05-.69.08-1.01.03.05.07.1.12.13-.23-.95-.12-1.1-.12-1.1.01.07.14.15.14.15-.03-.31-.03-.62,0-.92.05.06.12.12.2.15.05-.4.16-.8.32-1.17.02.09.05.17.11.25.02-.2.07-.4.17-.58l-.23,10.9s-1.01.52-1.21,1.2h3.78c-.15-.7-1.2-1.2-1.2-1.2l-.22-10.98c.11.2.19.43.21.66.05-.08.08-.16.11-.25.16.37.27.77.32,1.17.08-.04.14-.09.19-.15.02.31.02.62,0,.92,0,0,.12-.09.14-.15,0,0,.1.15-.13,1.1.05-.04.08-.08.11-.13.12.32.15.67.08,1.01,0,0,.25-.11.47-.86.1.07.17.16.2.28.11-.41.15-.84.13-1.27,0,0,.2.08.19.17.03-.32.04-.4-.28-1.1.15.04.3.1.43.19-.12-.3-.3-.58-.52-.83,0-.05.02-.1.02-.15.18.3.34.61.48.94,0,0,.14-.11.11-.19,0,0,.1.05.36,1.13,0,0,.1-.06.09-.15,0,0,.23.14.54.96,0,0,.22-.18.05-1.04.14.02.27.09.36.2-.12-.47-.3-.93-.54-1.36,0,0,.26.03.3.13-.14-.34-.2-.47-.85-1.02.17-.03.34-.02.51.01-.38-.42-.88-.73-1.42-.9h0s.14-.07.23-.1c.26.13.51.3.72.51,0-.1-.02-.2-.05-.29.31.22.59.47.85.75,0,0,.05-.16,0-.22,0,0,.19.07.77.98.04-.05.05-.12.03-.18,0,0,.32.07.89.75,0,0,.06-.28-.38-1.04-.05-.02.2-.07.36.05"/>
  <path class="cls-1" d="M78.31,36.26c-1.17,1.03-2.68,1.59-4.24,1.59-1.23,0-2.43-.35-3.46-1l-1.36-.66c2.63,2.67,6.93,2.7,9.6.06,0,0,0,0,0,0,.27-.26.51-.55.73-.85l-1.27.87h0ZM66.43,23.22c.56-2,2.38-3.38,4.46-3.38l1-.25c-2.7-.55-5.33,1.18-5.88,3.88,0,0,0,0,0,0-.04.19-.07.37-.08.56l.5-.81h0ZM75.41,19.51c2.01-.31,3.98.72,4.87,2.54l.65.73c-.71-2.66-3.45-4.24-6.11-3.52,0,0,0,0,0,0-.13.04-.26.08-.38.12l.97.11h0ZM82.48,25.65c1.08,1.54,1.13,3.58.11,5.16l-.33.98c1.93-1.95,1.91-5.1-.05-7.02,0,0,0,0,0,0l-.09-.09.36.97ZM65.83,32.62c-1.3-1.3-1.69-3.25-1.01-4.96l.15-1.04c-1.52,2.28-.9,5.36,1.38,6.88,0,0,0,0,0,0h.01l-.53-.89h0Z"/>
  <path class="cls-1" d="M74.55,19.4s.1,0,.15.01c-.05,0-.1-.01-.15-.01M76.78,18.79c-.83,0-1.65.21-2.38.6.17.01.2.01.02,0,2.59-.94,5.45.4,6.39,2.99.05.13.09.26.12.39h-.01c.31.39.6.81.84,1.25.14-2.74-1.97-5.08-4.72-5.22h-.26M75.4,19.52s-.06,0-.08-.01c1.9.31,3.64,1.21,4.99,2.58l-.03-.04c-.89-1.82-2.87-2.85-4.88-2.54"/>
  <path class="cls-1" d="M82.11,24.7v-.02.02ZM82.58,30.82c1.02-1.58.98-3.63-.11-5.16.55,1.72.57,3.57.07,5.3.01-.04.03-.08.04-.13h0Z"/>
  <path class="cls-1" d="M82.1,24.68c2,1.87,2.1,5.01.23,7.01l-.1.11v-.03c-.25.61-.56,1.19-.94,1.73,2.54-1.01,3.79-3.88,2.78-6.43-.39-.99-1.09-1.83-2-2.39h.02Z"/>
  <path class="cls-1" d="M79.58,35.41h0c-2.2,3.04-6.45,3.72-9.48,1.52,0,0,0,0,0,0-.3-.22-.58-.46-.84-.72h0c-.44-.26-.86-.56-1.25-.89,1.72,3.22,5.72,4.45,8.94,2.73,1.16-.62,2.1-1.56,2.72-2.72l-.1.08M74.07,37.86c1.56,0,3.07-.56,4.24-1.59-2.35,1.33-5.18,1.54-7.7.58,1.04.65,2.24,1,3.46,1M64.64,28.17c-.43,1.59.01,3.29,1.17,4.46l.02.04c-.82-1.53-1.18-3.27-1.03-5-.06.17-.12.34-.17.51M65.93,32.83l.16.28-.16-.28M64.29,28.08c.14-.52.36-1.01.66-1.46h0c.14-.66.35-1.32.63-1.94-2.33,1.42-3.07,4.47-1.65,6.8.56.92,1.41,1.64,2.42,2.03-1.79-1.18-2.62-3.37-2.06-5.44M70.89,19.84c-2.08,0-3.9,1.38-4.46,3.38-.03.03-.05.07-.07.1,1.12-1.64,2.74-2.86,4.62-3.48h-.09M73.29,19.38c-2.42-1.32-5.46-.42-6.77,2.01-.44.81-.65,1.73-.6,2.65.09-.15.07-.12.01-.02.24-2.74,2.66-4.76,5.4-4.52,0,0,0,0,0,0,.19.02.38.04.56.08h-.03c.47-.1.95-.17,1.43-.2M65.98,23.92s.05-.08.07-.12c-.02.04-.05.08-.07.12M65.98,23.94v-.02s0,.02,0,.02Z"/>
  <path class="cls-1" d="M81.27,35.14c-.33.06-.65-.17-.7-.5-.06-.33.17-.65.5-.7.33-.06.65.17.7.5,0,.03,0,.07,0,.1.02.31-.2.57-.51.6M76.26,33.46c1-.47,2.05-3.27,3.34-2.93-1.06.61-2.25,3.46-3.34,2.93M71.41,33.46c-1.08.53-2.27-2.31-3.34-2.93,1.3-.34,2.33,2.46,3.34,2.93M66.43,35.14c-.33.05-.65-.17-.7-.5-.05-.33.17-.65.5-.7.33-.05.64.17.7.5,0,.03,0,.07,0,.1.03.31-.2.58-.51.6,0,0,0,0,0,0M80.4,33.65c-.62-.33-1.15-.81-1.56-1.38.36-.58.82-1.08,1.37-1.49,1.09-.77-.96-1-1.55-.62s-.44.3-1.07.76c-.9-.91-1.86-1.75-2.88-2.53,3.18-2.37,6.9-3.91,10.82-4.49-4.34-.63-8.71,1.7-11.69,3.84-2.97-2.14-7.35-4.46-11.69-3.84,3.93.58,7.65,2.13,10.83,4.5-1.02.78-1.98,1.62-2.88,2.53-.63-.47-.46-.36-1.07-.76s-2.65-.15-1.55.62c.55.4,1.02.91,1.38,1.49-.41.57-.94,1.04-1.56,1.38-2.07-.77-2.39,1.73-1.26,2.17.67.23,1.41.05,1.9-.46l1.92-1.97c.27.2.56.38.86.54,1.68.47,1.16-.73,1.03-.96-.24-.34-.5-.68-.78-.99.86-1.05,1.82-2.02,2.87-2.89,1.05.87,2.01,1.84,2.87,2.89-.28.32-.54.65-.78.99-.13.23-.64,1.43,1.03.96.3-.16.59-.34.86-.54l1.92,1.97c.49.51,1.23.69,1.9.46,1.15-.45.84-2.95-1.24-2.17"/>
  <path class="cls-1" d="M2.23,31.55l-.81,1.95h-.09l-.81-1.9c.03,1.71-.13,1.79.33,1.83v.08H.11v-.09c.27-.03.29-.08.29-.26v-1.52c0-.19-.09-.21-.28-.23v-.09h.82l.65,1.51.65-1.51h.8v.08c-.25.02-.28.08-.28.29.02,1.81-.1,1.64.28,1.71v.08h-1.08v-.07c.3-.03.27-.1.29-.23v-1.62h0ZM3.5,33.19v-1.55c.01-.08-.03-.16-.1-.19-.06-.02-.13-.04-.2-.04v-.09h1.13v.08c-.27.01-.31.09-.31.23v1.53c0,.1.03.16.09.19.07.03.14.04.22.04v.08h-1.13v-.08c.26-.02.29-.09.29-.23M5.2,31.32l1.12,1.39c-.02-.86.06-1.14-.09-1.24l-.07-.03h0l-.14-.02v-.08h.7v.08c-.22.03-.25.08-.25.26v1.88h-.09l-1.46-1.74c.03,1.5-.12,1.55.31,1.61v.08h-.73v-.09c.26-.04.28-.09.28-.26v-1.52c-.23-.27-.25-.21-.27-.23v-.08h.68ZM7.2,33.18v-1.55c0-.19-.12-.21-.3-.23v-.09h1.13v.08c-.27,0-.31.09-.31.23v1.55c0,.1.03.16.09.19.07.03.14.04.22.04v.08h-1.13v-.08c.25-.02.29-.09.29-.23M9.72,31.96h-.09c-.09-.31-.29-.59-.62-.59-.14-.02-.28.06-.33.19-.01.04-.02.08-.02.12,0,.19.16.28.33.36l.47.23c.32.16.45.56.28.88,0,0,0,0,0,0-.05.1-.13.19-.22.25-.28.16-.62.18-.92.06-.12-.04-.18-.06-.23.05v.02h-.09v-.79h.09c.09.38.27.69.66.69.19.03.37-.1.4-.3.02-.12-.03-.25-.12-.32h0c-.27-.21-.98-.32-.99-.9s.52-.77,1.08-.58c.12.05.19.06.23-.05v-.03h.09v.7h0ZM10.83,33.11v-1.69c-.2-.02-.39.06-.52.22h0c-.06.1-.1.21-.11.32h-.09v-.65h1.94v.65h-.08c0-.3-.24-.54-.54-.55-.03,0-.05,0-.08,0,.01,1.58-.04,1.84.06,1.93h0c.08.04.16.06.25.06v.08h-1.14v-.07c.1,0,.19-.02.27-.08.03-.07.05-.15.04-.23M13.09,31.56v.82c.4,0,.58-.07.58-.47,0-.23-.07-.38-.2-.43h0c-.08-.04-.31-.06-.36.01-.01.03-.02.06-.02.09M14.5,33.42v.08h-.65l-.67-1h-.09c.02.83-.09.88.29.92v.08h-1.1v-.08c.23-.03.27-.08.28-.19v-1.52c0-.23-.06-.28-.28-.29v-.09h1.03c.48,0,.77.13.88.38.07.19.03.4-.11.54-.11.08-.23.14-.36.18l.65.92s.08.07.13.07M16.84,31.33v.08c-.09,0-.17.05-.22.12l-.62,1c0,.41-.03.74.06.82h0c.07.04.15.06.23.06v.08h-1.12v-.08c.38-.03.29-.09.3-.77l-.58-1.07c-.05-.1-.15-.16-.26-.18v-.07h1.08v.08c-.06,0-.23,0-.26.08v.02c.13.33.28.64.47.94.35-.61.63-.94.39-1.01-.06-.01-.12-.02-.18-.03v-.08h.71ZM19.07,31.39c-.48,0-.58.58-.58,1.07s.09,1,.57,1,.57-.54.57-1.01c.05-.35-.06-.7-.3-.96-.08-.06-.17-.09-.27-.09M19.07,31.28c1.48,0,1.52,2.27-.01,2.27-.63-.02-1.12-.54-1.1-1.17.02-.59.48-1.07,1.07-1.1.01,0,.03,0,.04,0"/>
  <path class="cls-1" d="M22.23,31.33v.65h-.08c-.02-.13-.07-.25-.14-.36-.02-.01-.1-.18-.59-.18-.18,0-.2.05-.2.15v.75c.14.02.28-.03.38-.14.07-.1.11-.21.12-.33h.08v1.08h-.08c-.05-.39-.18-.49-.49-.5.03.9-.12.95.35.98v.08h-1.15v-.08c.14-.01.23-.04.25-.08.02-.05.03-.1.03-.15v-1.55c0-.1-.03-.16-.09-.19-.06-.02-.13-.03-.19-.03v-.09h1.81ZM25.08,31.33v.65h-.08c-.07-.3-.16-.39-.15-.37-.16-.13-.37-.19-.58-.17-.18,0-.2.05-.2.15v.75c.14.02.28-.03.38-.14.06-.1.1-.21.12-.33h.08v1.08h-.09c-.05-.39-.18-.49-.5-.5.03.91-.12.95.35.98v.08h-1.16v-.08c.14-.01.23-.04.25-.08.02-.05.04-.1.04-.15v-1.55c0-.18-.09-.22-.29-.22v-.09h1.82ZM26.57,31.39c-.48,0-.58.58-.58,1.07s.1,1,.57,1,.57-.54.57-1.01-.11-1.05-.56-1.05M26.57,31.28c.63,0,1.14.52,1.14,1.16,0,.63-.52,1.14-1.16,1.14-.63,0-1.14-.52-1.14-1.15-.01-.32.11-.63.35-.85.22-.2.51-.31.81-.3M28.8,31.57v.81c.4,0,.59-.07.59-.47,0-.23-.07-.38-.21-.43h0c-.08-.03-.31-.06-.35.01-.01.03-.02.06-.02.09M30.21,33.43v.08h-.66l-.68-1.02h-.09c.02.82-.09.88.29.92v.08h-1.09v-.09c.27-.03.26-.09.28-.19.03-.51.03-1.01,0-1.52,0-.23-.06-.28-.29-.29v-.09h1.03c.48,0,.77.13.88.38.07.19.03.4-.11.54-.11.08-.23.15-.36.18l.65.92s.08.07.14.07M32.26,31.32v.65h-.08c-.08-.42-.23-.54-.76-.54-.19,0-.21.05-.21.15v.75c.36,0,.47-.13.52-.48h.08v1.1h-.08c0-.17-.07-.33-.2-.43h-.02c-.1-.04-.2-.06-.3-.05v.77c0,.16.11.18.27.18.2,0,.41-.05.57-.17.12-.11.22-.25.28-.4h.09l-.13.66h-1.88v-.09c.14-.01.22-.04.25-.08s.03-.12.03-.15v-1.55c0-.19-.1-.22-.28-.23v-.07h1.85ZM32.98,33.18v-1.55c0-.19-.11-.21-.3-.23v-.09h1.13v.08c-.27.01-.31.09-.31.23v1.55c-.01.08.03.15.09.19.07.03.14.04.22.04v.08h-1.13v-.08c.26-.02.29-.09.29-.23M36.43,32.57v.08c-.23.03-.28.08-.28.29v.41c-.28.14-.58.2-.89.2-.63.01-1.15-.49-1.16-1.12,0-.31.12-.61.34-.83.34-.34.85-.42,1.28-.21.14.06.2.08.27-.07v-.04h.1v.75h-.07c-.07-.16-.16-.3-.27-.43-.12-.13-.29-.22-.47-.23-.49,0-.59.54-.59,1.03,0,.52.13,1.04.65,1.04.35,0,.3-.21.31-.23-.02-.46.09-.54-.33-.56v-.08h1.1s0,.02,0,.02ZM37.31,31.32l1.12,1.37c-.02-.85.06-1.14-.09-1.23l-.07-.03h0l-.14-.02v-.08h.7v.08c-.22.04-.25.08-.25.26v1.89h-.09l-1.44-1.74c.03,1.49-.12,1.55.31,1.6v.08h-.73v-.09c.25-.03.28-.09.28-.26v-1.52c-.23-.27-.23-.21-.27-.23v-.08h.67ZM40.38,32.73h.62l-.32-.78-.31.78ZM41.99,33.41v.08h-1.04v-.08c.06-.01.26.01.26-.12-.03-.15-.08-.3-.15-.43h-.72c-.06.14-.11.28-.14.42,0,.13.23.12.27.13v.08h-.65v-.08c.07,0,.14-.05.18-.1.07-.09.11-.23.85-2.02h.09l.72,1.69c.06.15.14.29.23.41h.01s.06.03.09.03h0ZM44.11,31.31v.65h-.08c-.02-.13-.07-.25-.14-.36h0c-.16-.13-.37-.19-.58-.17-.11,0-.18.02-.19.07,0,.03-.01.05-.01.08v.74c.14.02.28-.03.38-.14.06-.1.1-.21.11-.33h.08v1.09h-.09c-.04-.39-.18-.49-.49-.5v.75c0,.21.13.22.35.23v.08h-1.15v-.08c.09,0,.18-.03.25-.08.03-.04.03-.11.03-.15v-1.55c.01-.08-.03-.15-.09-.19-.06-.02-.12-.03-.19-.03v-.09l1.81-.02ZM46.21,31.31v.65h-.08c-.07-.31-.16-.39-.15-.37-.16-.13-.37-.19-.58-.17-.19,0-.2.05-.2.15v.74c.14.02.28-.03.38-.14.07-.1.11-.21.12-.33h.09v1.1h-.08c-.04-.39-.19-.49-.49-.5v.75c0,.21.12.22.35.23v.08h-1.15v-.08c.13,0,.23-.04.25-.08.02-.05.03-.1.03-.15v-1.55c0-.18-.09-.22-.28-.22v-.09l1.8-.02ZM47.04,32.72h.62l-.33-.78-.3.78h0ZM48.64,33.4v.08h-1.03v-.07h.1c.1,0,.15-.04.15-.11-.03-.15-.08-.3-.15-.43h-.72c-.06.14-.11.28-.14.42,0,.13.23.12.26.13v.08h-.65v-.08c.07,0,.14-.05.18-.1.06-.09.09-.18.84-2.02h.09c.64,1.47.81,1.99.94,2.09h.01s.06.03.09.03h.02ZM49.23,33.17v-1.55c0-.19-.12-.21-.3-.22v-.09h1.12v.08c-.27.01-.31.09-.31.23v1.56c0,.1.03.16.09.19.07.03.14.04.21.04v.08h-1.12v-.08c.27-.02.3-.09.3-.23M51.11,31.56v.81c.4,0,.59-.07.59-.47,0-.23-.07-.38-.2-.43h0c-.08-.04-.31-.06-.36.01-.02.03-.03.06-.03.09M52.52,33.42v.08h-.64l-.67-1h-.09c.02.81-.09.88.29.92v.08h-1.09v-.08c.27-.04.26-.09.28-.19,0-.92,0,1.3,0-1.52,0-.23-.06-.28-.29-.29v-.09h1.03c.45,0,.91.12.91.57,0,.3-.19.44-.48.53h-.03l.65.92s.08.07.13.07M54.24,31.97h-.09c-.04-.14-.1-.26-.19-.38l-.03-.04c-.1-.11-.24-.18-.39-.18-.14-.02-.28.06-.33.19-.01.04-.02.08-.02.12,0,.18.16.28.33.36l.47.23c.32.16.45.55.28.87-.05.1-.13.19-.22.25-.28.16-.62.18-.92.06-.12-.04-.18-.06-.22.06v.02h-.09v-.79h.09c.09.38.26.69.65.69.15.02.3-.06.37-.2.08-.14.04-.32-.08-.42h0c-.14-.09-.29-.17-.45-.23-.24-.09-.43-.26-.53-.5-.01-.06-.02-.11-.02-.17,0-.58.53-.77,1.08-.58.12.04.19.07.23-.05v-.03h.09v.7h0Z"/>
  <path class="cls-1" d="M74.44,19.81h0c.05.02.1.04.15.07h.01s.08.06.08.06h0l.03.02h.03s-.29.01-.29.01c-.02-.03-.06-.12-.04-.09h0s-.03-.06-.03-.06l.02.89.02.06s.02.07.01.05h-.03v.31h.11s.08.3.07.27c.04.2.06.31.05.27v.03h0v.07h-.23v.3h.29l.03.21.04.17s.04.32.03.29l.04.3h-.42v.31h.45c.01.11.03.23.03.21l.04.53.02.15s.01.06.01.08h-.53v.31h.55l.03.23c0,.09.04.76.04.72v.03c.19.14.35.32.47.52h.79c.19-.11.37-.21.55-.31h-1.51c-.01-.25-.08-1.2-.08-1.17h1.7c.08.34.14.69.17,1.03.1-.05.19-.1.29-.15-.08-.56-.11-.74-.1-.7l-.05-.18h1.36l.1.31c.09-.04.19-.08.28-.11l-.05-.19h.56c.31-.11.64-.21.95-.3h-.28s-.09-.2-.08-.16l-.04-.13s-.04-.09-.06-.14-.11-.18-.08-.15c-.03-.09-.08-.18-.13-.26-.03-.05-.09-.16-.07-.13h.57s.51.89.49.86h0c.1-.01.2-.04.31-.06l-.03-.07-.11-.21-.25-.5h.23s.12.17.1.13h0c.39.6.38.62.36.59h0c.11-.03.22-.05.32-.07l-.1-.16s-.23-.38-.2-.34l-.31-.46c-.08-.11-.32-.42-.3-.38-.03-.04-.5-.56-.47-.52l-.11-.11h0l-.13-.13c-.32-.3-.44-.4-.4-.37-.12-.11-.28-.23-.23-.2h0l-.69-.51s-.51-.32-.47-.3l-.21-.11-.42-.21s-.18-.07-.14-.05c-.38-.17-.39-.17-.37-.16h0l-.2-.09h0c-.33-.12-.77-.23-.75-.23l-.08-.03c-.59-.12-1.22-.23-1.17-.23h-.01c-.31-.03.05,0-.59-.05v.42h.03s0,0,0,0ZM74.99,21.79v-.14s-.03-.05-.03-.05l-.03-.15h0c-.03-.14-.06-.28-.05-.23l-.02-.07h.94l.08.15s.1.16.08.12c.01.03.03.07.05.1.08.15.15.3.14.27h-1.17.01ZM75.11,22.43c-.01-.07-.07-.37-.07-.34h1.24l.11.23h0l.03.1.03.07h0l.19.55h-1.45c-.04-.34-.08-.67-.08-.64v.02ZM77.15,21.49l.1.15h0l.12.16h-.88c-.08-.19-.17-.37-.28-.55l-.05-.08h.68c.12.12.32.35.31.34h0ZM75.33,24.33l-.03-.45c0-.08-.07-.55-.06-.51h1.51l.06.23.03.07c.04.26.11.3.16.66h-1.67ZM76.98,23.07l-.1-.31-.03-.07-.05-.15h0c-.12-.33-.17-.44-.16-.43h.94c.44.77.57,1,.55.96h-1.15ZM79.28,23.07h-.83l-.16-.33c-.1-.19-.19-.35-.16-.31l-.19-.33h.66c.05.07.53.7.5.67.02.02.15.22.19.3h0ZM77.31,24.33c-.06-.32-.14-.63-.23-.94h1.19c.12.27.27.66.26.63h0l.1.32h-1.32ZM79.89,24.29l.03.05h-.97l-.12-.36h0c-.02-.05-.11-.32-.19-.47h0s-.04-.1-.05-.12h.87l.03.07.07.12h0c.04.07.12.23.1.2.02.04.14.27.11.2.07.15.14.36.13.32h0ZM79.78,22.1v-.08s.32.31.27.26c.06.08.13.15.21.22l.11.11c.11.12.35.4.3.34l.08.12h-.2l-.11-.16h0c-.17-.23-.29-.41-.27-.38-.05-.05-.38-.43-.36-.4h0l-.02-.02h0ZM79.49,21.77h.01l.03.02h-.05l-.03-.04s.08.04.04.01h0ZM79.51,22.27h0l.23.29.14.15s.04.08.03.06c.03.04.21.28.19.23h0l.04.05h-.5c-.05-.1-.11-.19-.18-.28-.04-.06-.27-.4-.23-.37l-.23-.32h.38s.2.21.16.17h-.04ZM79.23,21.54l-.06-.05.06.05ZM78.12,21.15h.15l.09.06h0c.46.37.75.63.7.58h-.32l-.03-.04h0s-.06-.07-.04-.05h0c-.16-.2-.34-.38-.52-.55h-.02ZM77.82,20.83h.01-.06l-.19-.13h-.01s.25.13.25.13h0ZM77.64,21.15h0s.08.07.06.06h0c.59.56.53.5.52.49l.03.05s.07.06.05.04h-.59c-.21-.31-.52-.69-.48-.64h.41ZM76.35,20.3h.03l.03.02h0l.28.15h0c.09.05.2.11.16.09l.22.14c.11.07.21.15.17.13h-.27s-.05-.05-.08-.07h0l-.14-.13-.17-.17c-.07-.06-.14-.11-.21-.16h-.02ZM75.82,20.3c.2.15.13.09.45.33h0c.09.06.17.13.23.21h-.56s-.01-.01-.01-.01l-.13-.22-.03-.02h0c-.11-.14-.23-.3-.21-.26h0l.26-.03ZM75.25,19.99h.03-.03ZM75.12,20.3s.06.05.08.07h0l.03.06.05.03c.09.12.27.35.23.31.02.02.07.07.05.05h-.83s-.02-.07-.01-.05h0l-.06-.19h0s-.02-.07-.01-.05l-.02-.06h0l-.03-.03-.05-.12h.54l.03-.02ZM74.68,19.94h0"/>
  <path class="cls-1" d="M67.65,33.44c.14-.09.28-.2.42-.31h-.08l-.05-.09-.05-.11-.04-.08h0s-.33-.78-.31-.73h0s-.03-.09-.05-.13h0v-.03h1.02c.05.16.11.37.1.33l.02.07s.06.17.05.14h0c.06-.06.12-.14.17-.22-.14-.22-.29-.43-.46-.63h-1.02v-.02h0l-.03-.06v-.08c-.05-.12-.09-.25-.08-.21,0-.04-.06-.27-.05-.23l-.13-.57h.09c-.05-.13.01-.23.15-.31h-.28l-.07-.52c0-.05-.07-.7-.07-.65h1.16v.14c.05.63.05.67.08.86.1,0,.21,0,.31,0,0-.03-.02-.27-.02-.23l-.02-.08c-.01-.21-.02-.41-.02-.38l-.02-.33h1.54l.05,1.07.02.11h-.96l.46.3h.54c0,.05.05.46.05.42v.02l.05.03s.08-.09.23-.23c-.01-.08-.02-.16-.02-.23h.26c.09-.09.21-.19.32-.3h-.62s-.03-.18-.02-.14c-.03-.66-.05-1.04-.05-1.03h1.9v.11c.17-.14.34-.28.52-.42h-.21v-.68c-.1-.07-.2-.14-.31-.21v.89h-1.9v-1.07h1.64c-.16-.11-.32-.2-.47-.3h-1.15c0-.12.03-.54.03-.51l.02-.13c-.1-.05-.2-.11-.3-.17-.04.37-.06.8-.06.8h-1.53l.04-.27c.04-.42.06-.58.05-.54v-.07s.06-.31.06-.31h.69c-.31-.15-.61-.3-.92-.43l-.02.12h-1.11s.07-.23.05-.2h0s.07-.23.05-.2l.04-.09v-.05c-.1-.04-.2-.08-.3-.11,0,.03-.01.11,0,.07,0,.02-.02.04-.03.06h0l-.05.14-.04.16h0s-.03.09-.05.14v.05h-.75s.06-.15.05-.11h0s.18-.54.17-.5c.01-.03.06-.19.05-.16.01-.03.05-.12.03-.09h0l-.29-.1c-.02.06-.09.27-.08.23l-.06.14c-.07.23-.14.46-.14.45h0l-.04.13h-.38l.04-.11h0l.05-.15h0l.05-.13h0c.05-.12.09-.24.13-.36.03-.06.06-.13.09-.2h0l.04-.08h0c-.1-.04-.2-.06-.3-.09-.07.13-.13.27-.17.42-.07.17-.13.35-.18.53l-.03.07h0s-.07.2-.07.23-.2.81-.19.75c-.12.78-.15,1.19-.15,1.17,0,.03-.01.58-.01.54l.15.02h-.15c0,.35.02.68.07,1.01l.03.25.03.13v.09h0c.06.37.09.47.09.46l.14.54.05.16.03.07.05.14h0s.25.74.21.59l.11.23h0l.17.34.02.08c.03.06.27.46.25.42.61.99-.2-.31.28.47-.03-.03.06.09.08.13.12-.02.25-.03.37-.02l-.06-.08h.23l.08.12c.11.03.23.06.34.1l.07-.03-.12-.19.44.04v-.03ZM68.38,27.61h1.54s-.01,1.1-.01,1.07h-1.54c.02-.99.03-1.09.02-1.07M67.06,26.51l.08-.38h1.1c-.09.54-.16,1.2-.15,1.17h-1.14c.03-.16.12-.83.11-.79h0ZM66.91,27.61h1.16c-.02.52-.03,1.08-.03,1.07h-1.17s.04-1.14.04-1.07h0ZM66.85,30.88l.04.16s.16.54.15.5v.09h-.7s-.1-.29-.09-.25c-.08-.27-.1-.33-.08-.3l-.05-.12v-.07h0s-.12-.47-.11-.43h.78s.03.23.03.19c0,.04.05.27.05.23h0ZM66.72,30.16h-.79l-.08-.52c-.04-.47-.05-.67-.05-.63v-.02h.79c.09.88.12,1.12.11,1.08v.08ZM65.9,26.8c.03-.11.15-.7.15-.66h.76l-.06.32h0l-.02.16h0c-.09.56-.09.7-.09.69h-.79c.04-.3.08-.55.07-.51h0ZM65.79,27.89l.02-.08v-.19h.8l-.02.16c0,.1-.01.94-.01.91h-.81c0-.06.01-.89.01-.8h0ZM65.23,26.59h0c.07-.31.11-.48.11-.44h.39c-.06.21-.1.42-.13.63,0,.07-.07.52-.07.47h0v.07h-.43c.04-.2.02-.15.13-.73ZM65.04,28.03h0c0-.07.04-.47.04-.42h.42c-.04.36-.03,1.12-.03,1.07h-.42v-.65h0ZM65.11,29.55l-.05-.56h.42c.03.42.14,1.2.14,1.17h-.4s-.11-.65-.11-.61h0ZM65.67,31.64c-.06-.12-.1-.25-.14-.37h0c-.02-.06-.18-.56-.16-.52,0-.05-.02-.1-.04-.15,0-.02-.03-.09-.04-.12h.4c.07.29.17.69.16.67l.16.51-.35-.02ZM66.43,33.12s-.07-.09-.1-.15c-.11-.2-.21-.37-.23-.4h0s-.1-.18-.08-.14h0l-.03-.04v-.07s-.2-.36-.2-.36h.34s.1.23.08.19h0s.04.1.06.15c.05.09.12.25.11.22h0c.09.18.19.38.16.34.02.03.13.23.15.27h-.25ZM67.04,33.12h0l-.11-.2-.03-.07h0c-.11-.18-.28-.55-.27-.53-.02-.07-.05-.14-.08-.2-.03-.05-.05-.09-.06-.15h.7c.02.06.19.52.17.47.08.22.21.52.2.5l.09.2h-.6s-.02-.03-.02-.03Z"/>
  <path class="cls-1" d="M66.18,24.1c.14-.25.3-.49.47-.73h.23s-.15.29-.13.26c-.28.5-.2.35-.3.53l.31.08.15-.26.04-.07.31-.53h.57c-.17.31-.32.63-.46.96h-.23c.32.09.64.19.95.3h.5s-.04.15-.05.17c.09.03.19.07.28.11l.08-.28h1.36c-.08.23-.11.47-.11.7,0,.05-.02.09-.04.14h0c.1.05.19.09.29.15.03-.15.05-.31.07-.47h0c.05-.27.02-.15.1-.54h1.7l-.08,1.17h-1.44c.19.1.37.2.56.31h.79c.11-.17.25-.32.4-.44.03-.53.08-1.06.08-1.04h.6v-.31h-.58c.04-.36.07-.59.06-.55l.04-.41h.5v-.3h-.47c.11-.62.16-1.02.15-.97h.34v-.31h-.28v-.07h0s.07-.26.07-.26l.07-.23h.17v-.31h-.09v-.05l.05-.16.03-.07.03-1.17h-.26s-.16.03-.16.03c-.03,0-.58.08-.55.08l-.16.04s-.74.14-.7.13l-.59.19s-.27.11-.23.09h0l-.21.09h0c-.35.14-.32.12-.31.12s-.09.07-.07.05c-.09.03-.18.07-.26.12-.07.04-.54.28-.5.26l-.47.3c-.19.15-.72.53-.7.52l-.13.11c-.34.29-.65.61-.95.94h0l-.1.11-.1.13h0l-.11.12s-.15.21-.12.17h0s-.07.09-.1.14c-.11.15-.25.36-.23.32h0c-.17.29-.29.47-.28.47l-.09.12v.02c.12.01.24.04.35.07v-.04ZM68.84,23.84c-.07.16-.12.32-.17.49h-.98c.05-.12.11-.28.1-.23h0l.06-.12.05-.08.1-.21v-.06l.03-.04h0s.06-.09.08-.13c.01-.03.03-.05.04-.07h.87l-.09.26c-.02.08-.05.15-.08.22v-.02ZM69.88,22.38h0s.19-.31.17-.28h.94l-.03.07h0s-.07.15-.06.11v.07s-.07.13-.05.09l-.11.31-.09.3h-1.14c.16-.3.41-.74.38-.68h0ZM70.67,21.28h0l.02-.03s.07-.05.05-.04l.04-.05h.67l-.14.27h0c-.1.2-.19.37-.17.35v.02h-.88l.42-.53h0ZM69.53,22.35v.05s-.05.06-.03.04c-.17.34-.33.65-.32.64h-.83l.14-.23h0l.11-.17.42-.56h.66c-.05.07-.1.15-.14.23h-.01ZM70.34,24.21s-.03.08-.03.12h-1.31l.17-.51.07-.14.03-.07s.05-.1.07-.15h.01l.03-.07h1.19c-.15.54-.22.84-.22.83h0ZM72.29,24.34h-1.66c.05-.22.08-.41.08-.4l.07-.19c.05-.23.1-.38.1-.38h1.51c-.02.08-.1.92-.11.97h0ZM72.53,22.37l-.03.23c-.02.19-.05.39-.05.37h0v.09h-1.46l.05-.15s.03-.08.03-.11c.07-.18.16-.43.16-.45h0l.05-.12h0l.04-.09.02-.03h0s1.23-.01,1.23-.01l-.04.26ZM72.71,21.38c-.03.14-.05.26-.04.23,0,.02-.03.07-.03.05v.14h-1.16l.18-.36.16-.28h.94l-.05.21ZM72.86,19.99h.03s.03-.03.03-.03h0c.11-.05.22-.1.32-.16h0l-.02.02s-.02.06-.03.09h-.01s-.03.06-.04.09h-.29.01s0,0,0,0ZM72.33,20.01s.07-.02.04-.01h-.04ZM72.24,20.59l.02-.04.13-.12.03-.05h.01s.05-.05.05-.05h.54s-.04.11-.03.08l-.03.08h0l-.05.15-.05.16h0s-.02.07-.01.05h-.82s.03-.06.03-.04h0l.03-.02c.18-.23.16-.22.15-.2h.02ZM71.45,20.54l.07-.05.07-.03.05-.06.13-.07h.02s.28-.01.28-.01l-.07.08-.06.07h-.01l-.05.05v.02h0s-.03.03-.03.03c-.02.03-.14.22-.15.23h-.56l.02-.03.32-.27-.02.03ZM70.51,20.72l.19-.1h.02s.02-.03.02-.03l.11-.07.04-.02h0s.3-.16.33-.18h.03c-.12.08-.24.18-.35.27l-.23.25h-.31s.1-.09.16-.13h0ZM70.01,20.72l-.04.05-.11.06h0s-.02.01-.02.01h-.06l.23-.13h0ZM69.9,21.21h0s.05-.03.07-.05h.39l-.27.35-.03.05-.05.04-.13.2h-.6s.09-.1.13-.14c.21-.19.5-.46.48-.44h0ZM68.82,21.57c.06-.05.55-.43.52-.41h.15c-.21.2-.41.41-.6.64h-.32l.26-.22h0ZM68.4,21.53h-.02c.09-.07.03-.02.02,0M68.13,21.79h-.05c.55-.47-.02.05.04,0M68.24,22.1h.38s-.23.3-.2.27c-.03.03-.15.21-.13.18-.02.05-.05.09-.08.13l-.03.05c-.17.27-.22.34-.2.31v.03h-.53l.22-.28c.05-.07.63-.75.57-.68h0ZM67.65,22.17l.07-.04s.03-.04.04-.05v.02h.07l-.38.44s-.15.2-.12.17c-.06.09-.25.37-.23.33l-.02.03h-.2s.82-.94.79-.9h0Z"/>
  <path class="cls-1" d="M82.85,27.54c-.08-.61-.11-.8-.11-.79l-.05-.23c-.01-.06-.1-.41-.09-.37h0l-.03-.09h0l-.04-.13c-.14-.46-.18-.56-.16-.52h0c-.02-.05-.09-.25-.07-.21l-.2-.49c-.1.03-.2.06-.3.09l.03.08h0c.17.42.11.28.23.56h0c.05.13.1.26.13.4h-.38s-.05-.17-.03-.13c-.02-.07-.17-.55-.16-.51-.03-.09-.1-.27-.11-.3l-.29.1.03.07h0l.05.15c.07.17.13.34.17.52h0l.04.1h-.76l-.08-.36-.05-.15h0l-.02-.05s0,.02,0-.05c-.1.04-.2.08-.3.11h0s.11.33.1.3c.02.07.06.23.05.2h-1.1l-.02-.1c-.28.12-.58.26-.87.4h.62c.03.23.07.47.07.46.05.44.08.7.09.73h-1.54c-.03-.49-.03-.56-.06-.77l-.3.16.04.6h-1.07c-.16.1-.32.2-.47.3h1.57c0,.07,0,1.13,0,1.07h-1.9v-.84c-.11.07-.2.14-.3.21v.63h-.14l.45.36v-.06h1.9c-.07,1.24-.04.73-.07,1.17h-.56c.12.11.23.22.33.3h.2l-.03.17.28.28c0-.06.03-.21.03-.18l.03-.27h.6c.08-.06.19-.13.46-.3h-1.03c.03-.23.07-.91.07-.89v-.28h1.53s-.02.54-.02.5c0,.03-.04.31-.03.28v.1s-.02.14-.02.15c.1-.01.2-.02.3-.02l.02-.08.06-.91h1.17c-.12,1.14-.08.85-.1.94-.02.08-.03.16-.03.23h-.22c.13.08.19.18.14.31h.03l-.09.43h0v.07s-.03.09-.04.14c0,.05-.02.1-.04.15-.03.07-.06.14-.08.22,0,.12-.04.2-.03.16h-.97c-.17.2-.32.41-.46.63.04.07.08.12.12.19v-.03h0c.02-.07.04-.14.06-.2h0l.08-.26h1.02s-.09.27-.08.23c-.01.04-.1.26-.09.22l-.14.33h0s-.03.08-.05.11c-.12.23-.09.18-.15.28h0c.15.12.29.22.42.31h.34l-.08.11s-.02.02-.02.03l.11.06c.09-.03.19-.06.27-.08.03-.05.07-.11.08-.13h.23l-.04.05v.03c.11-.02.24-.02.36,0,.06-.08.28-.42.23-.36.04-.07.08-.14.12-.21.02-.03.37-.69.33-.62l.03-.07h0l.06-.13h0c.19-.47.26-.64.26-.66h0l.05-.15v-.03l.12-.37h0c.12-.42.16-.62.16-.61v-.08s.08-.34.07-.3h0s.03-.21.03-.23l.03-.16s.05-.59.05-.55c.04-.47.04-.94,0-1.41v-.04ZM77.72,28.68c0-1.01,0-1.09,0-1.07h1.53l.02,1.07h-1.54ZM82.23,26.14v-.16c.04.16.11.42.11.4.17.91.17.94.16.91h0v.03h-.43v-.08h0s-.09-.57-.08-.54c0-.03,0-.07-.01-.08h0l-.06-.31s-.05-.21-.04-.17h.35ZM81.81,27.62c.02.62.03,1.1.03,1.07h-.81c0-.85-.01-.92-.01-.91v-.16s.79,0,.79,0ZM81.69,30.16h-.79s.01-.07.01-.1h0s.02-.1.02-.15c.05-.3.08-.61.09-.92h.8c-.02.39-.06.79-.13,1.17M81.57,26.14c.02.08.04.2.03.16,0,.04.05.2.04.16,0,.03.03.17.02.14l.03.15.03.15v.07h0c.01.11,0,.05.05.34h-.78l-.08-.55-.05-.3-.06-.33h.77ZM79.5,27.02c-.01-.24-.04-.47-.08-.7l-.03-.18h1.11c.09.38.15.76.18,1.15h0v.03h-1.15c0-.1-.01-.2-.03-.3h0ZM79.57,28.69c0-.92,0-1,0-.98v-.08s1.14,0,1.14,0c0,.03.03,1.1.03,1.07h-1.18ZM80.58,31.56l.02-.05h0c.07-.19.12-.39.17-.59h0s.08-.45.08-.42h.77s-.22.77-.2.74c-.02.09-.05.18-.08.27-.02.05-.04.1-.07.15v.02h-.7c0-.08.01-.12.01-.1v-.02ZM80.84,32.66h0l-.07.13s-.1.16-.07.12c-.1.2-.03.04-.12.23h-.59s.23-.52.19-.44c.08-.16.23-.62.22-.54.01-.04.07-.19.05-.15v-.05h.72s-.23.52-.22.48l-.06.14-.03.07h-.02ZM81.52,32.59s-.1.17-.08.14h0s-.05.1-.07.12c-.06.11-.13.21-.11.17-.02.04-.05.08-.07.11h-.26s.09-.17.11-.19l.03-.07c.13-.25.22-.43.22-.42.17-.41.19-.44.18-.42l.03-.07h.34l-.31.62h0ZM82.26,30.75h0l-.11.36h0l-.05.16s-.11.32-.1.27c-.06.13-.03.09-.04.11h-.36c.05-.14.15-.47.16-.52s.09-.34.08-.3c.05-.23.09-.38.09-.36h.4s-.08.32-.07.28h0ZM82.53,29.49c-.06.33-.07.45-.07.45l-.05.23h-.4c.05-.19.07-.38.08-.58l.03-.16.02-.31h0v-.13h.42c0,.08-.04.53-.04.5v-.02ZM82.58,28.7h-.42v-.62s-.03-.5-.03-.47h.42s.04,1.15.03,1.07v.02ZM72.27,36.3h0Z"/>
  <path class="cls-1" d="M72.46,26.43h-.31v.19h0l.29.19s.01-.33.02-.38h0Z"/>
  <path class="cls-1" d="M79.46,35.07h0l-.21-.23-.12.11c-.42.37-.51.46-.47.43h0l-.18.14-.03.03h-.19c.37-.38.47-.47.42-.44l.22-.26s.05-.07.04-.05h.28l-.38-.38s-.06.09-.05.07h-.02s-.69.01-.69.01c.02-.03.15-.28.13-.23l.04-.08s.04-.06.05-.1l.06-.13-.23-.22-.05.08-.28.54s-.05.07-.07.11l-.04.05h-.99l.08-.21h0s.07-.2.06-.16c.03-.05.04-.11.05-.16-.12.03-.23.05-.35.07-.04.12-.04.11-.16.44h0v.03h-1.31l.11-.72v-.11h0s.03-.17.03-.23h.53c.02-.1.05-.2.09-.3h-.58c.04-.3.11-1.2.11-1.17h1.3c-.08-.11-.16-.21-.25-.31h-1.03l.03-.49h0l.03-.58-.42-.42h-2.38c-.17.16-.33.32-.49.49l.06,1h-.97c-.08.1-.17.2-.25.3h1.24c.05.65.11,1.19.11,1.17h-.52c.04.1.07.2.09.3h.47l.04.28c0,.08.06.54.06.5h0s.04.25.05.28h-1.3s-.17-.46-.19-.49c-.12-.02-.23-.05-.35-.09l.15.44s.06.17.05.14h-.99l-.04-.05-.07-.09s-.32-.62-.28-.54h0l-.03-.05-.23.23s.11.23.09.19h0c.04.08.09.16.14.23v.06h-.7v-.04s-.32.35-.32.35h.22s.05.07.03.05h0l.04.04h0c.2.23.34.37.33.36.04.06.09.11.14.16l.1.09.04.04h-.19s-.19-.15-.22-.17c-.43-.39-.34-.3-.57-.51l-.21.22c.31.32-.03,0-.01,0l-.22.23c.09.07.51.41.44.36.05.02.1.05.14.08.03.02.09.07.11.09h0c.1.07.55.36.52.33.35.19.22.12.58.3l.13.07c.15.07.35.15.3.13l.52.2.15.07c.32.1.48.15.44.14.05.01.42.1.38.09h0l.07.02h.09c.59.12.77.16.75.15.28.03.43.05.39.04l1.12.03.47-.03c.23-.02.4-.04.4-.04l.17-.03c.55-.11.7-.13.69-.13l.08-.03h0c.07-.01.13-.03.2-.05l.61-.19s.34-.13.3-.12c.13-.05.43-.17.37-.14h0l.3-.13.13-.07s.1-.04.14-.07l.15-.08.18-.09.75-.49.14-.08.47-.39-.21-.22c-.37.31-.01,0,0-.02h.05ZM76.26,35.49s.16-.33.15-.3c.03-.07.19-.41.18-.38h.92c-.04.05-.14.2-.11.16-.03.04-.35.47-.32.42h0l-.11.13h-.01s-.7.01-.7.01v-.02s.02-.03.03-.05h-.02ZM76.25,34.82v.03h-.01c-.1.25-.22.48-.36.7h-.97c.1-.48.12-.59.11-.56,0-.03.03-.17.04-.19h1.2ZM72.85,34.52l-.16-1.07h2.24c-.09.58-.12.91-.12.9,0,.06-.02.11-.04.17h-1.92ZM74.68,35.07v.04c-.05.15-.08.31-.11.47h-1.52l-.04-.16-.03-.17-.04-.13c-.04-.19-.06-.32-.05-.28h1.84l-.05.23h0ZM72.55,31.97h2.53c-.04.3-.06.62-.06.62,0,.03-.02.17-.02.14,0,.03-.03.38-.03.34v.09h-2.31s-.03-.26-.03-.22c-.03-.47-.09-.98-.09-.96h0ZM72.53,31.65l-.05-.88c-.02-.2-.03-.34-.03-.3h2.7l-.05.75h0l-.03.42h-2.56ZM72.58,34.82s.07.28.05.23v.1l.03.11h0l.05.23s.02.08.01.06h-.98c-.07-.1-.25-.47-.23-.41-.02-.03-.16-.34-.14-.3h0s-.01-.04-.01-.04h1.22ZM71.03,34.82h0l.18.38h0l.04.09c.08.15.16.31.14.27h-.7s-.07-.08-.05-.06h0s-.11-.13-.08-.09l-.36-.47-.09-.12h.94s-.02-.01-.02-.01ZM69.86,36.02l-.07-.03-.16-.11h.11l.07.06h0c.57.45.01.05.06.07h0ZM69.83,35.58c-.11-.11-.37-.36-.31-.3-.16-.16-.33-.35-.28-.3-.02-.03-.1-.12-.13-.16h.63s.59.81.5.7l.04.05h-.44ZM71.03,36.43l-.19-.11-.05-.05-.06-.03-.04-.04c-.17-.09-.34-.2-.48-.33h.35l.04.06c.11.11.26.23.22.2h0l.09.09.13.11.09.07h-.1s0,.01,0,.01ZM71.63,36.43l-.05-.05-.07-.03-.23-.2h0l-.07-.06h0l-.05-.05h0c-.07-.08-.17-.18-.14-.15h.57l.18.28h0c.09.11.17.21.14.17l.05.08h.02-.36ZM72.23,36.79c-.05-.03-.11-.07-.09-.06h.11l.07.07.05.03h0s-.09-.03-.09-.03h-.05s0-.01,0-.01ZM72.38,36.43c-.28-.32-.33-.4-.31-.37l-.03-.02h0l-.07-.13h0v-.02h.86c.06.25.18.58.17.55h-.62ZM73.25,37.04l-.17-.08h0l-.09-.06-.05-.02-.05-.04h-.02l-.02-.03-.05-.02s-.09-.09-.07-.07h.37v.03h.01v.04c.03.09.07.17.12.25h0ZM73.24,36.22h0l-.09-.27h0l-.03-.07h1.37c-.05.14-.02.07-.11.34h0s-.07.17-.08.2h-1l-.07-.2h0ZM74.18,36.74h0l-.06.12h0l-.05.03v.05s-.07.08-.05.06l-.05.05h0l-.05.03s-.07.03-.05.02h-.13s-.01-.01-.01-.01h0l-.05-.05h0l-.05-.07s-.03-.07-.03-.05l-.04-.02s-.1-.19-.08-.15v-.02h.71v.02ZM74.82,36.8h-.05s-.02.05-.02.05h-.01l-.05.04-.06.03-.03.03h0l-.05.02h0l-.06.03-.02.02h-.01s-.08.03-.06.03h0c.07-.15.14-.31.12-.28h0s.38-.01.38-.01l-.07.06h-.02,0ZM75.25,36.85c.08-.09.15-.16.11-.11h.12c-.23.12-.19.1-.23.11M75.36,36.29s-.09.08-.11.11l-.02.03h-.58l.05-.14h0l.05-.15h0l.04-.15v-.05l.02-.05h.85s-.06.1-.09.15c-.21.27-.23.3-.2.27h0ZM76.26,36.22l-.27.21h-.34.02s.13-.2.11-.17h.01l.03-.03c.04-.08.09-.15.14-.22.02-.02.06-.05.04-.03l.02-.06.03-.04h.6c-.44.4-.38.34-.38.33h0ZM77.23,36.03h0s-.37.23-.34.22c-.07.04-.35.21-.29.17h-.11s.39-.36.35-.33l.11-.1.11-.13h.34s-.21.19-.17.16h0ZM77.57,36.14h0s.36-.3.33-.26h.1l-.42.26h0ZM77.78,35.58h-.44l.12-.15c.09-.12.18-.24.26-.36l.14-.2.03-.05h.62l-.23.26c-.48.5-.51.51-.49.5h0ZM79.19,35.33l.07-.05-.07.05Z"/>
  <path class="cls-1" d="M77.83,33.4l-.05.04h.09M69.91,33.44l-.05-.03-.04.03h.08ZM75.47,26.44h-.3v.42s.32-.19.32-.19c0-.07-.01-.21-.01-.23h0ZM73.64,27.61h.42c.14-.1.29-.2.44-.3h-1.3c.15.11.29.2.44.3h0Z"/>
  <path class="cls-1" d="M87.46,24.75s-.16-.03-.16-.13c0,0,0-.1.22-.05.1.03.2.08.28.13,0,0-.29-.13-.36-.09,0,0-.09.03.02.14"/>
  <path class="cls-1" d="M87.44,24.63s.23.04.35.08l.04.02-.02-.04c-.03-.05-.25-.13-.29-.14s-.15-.03-.22.02c-.02.01-.03.03-.03.05,0,.11.16.15.17.15h.05s-.09-.08-.09-.12l.03-.03h0ZM87.21,23.08s-.16.04-.19-.06c0,0-.04-.09.19-.13.1-.02.21-.02.31,0,0,0-.32,0-.37.06,0,0-.08.06.07.12"/>
  <path class="cls-1" d="M87.15,22.97s.23-.06.36-.05h.05s.01-.07-.36-.05c-.08,0-.15.04-.19.1,0,.02,0,.03,0,.05.04.11.21.07.21.07h.05c-.05-.03-.12-.04-.13-.08l.02-.03h0ZM89.04,22.87l-.16.05-1.53-1.15.16-.04"/>
  <path class="cls-1" d="M87.34,21.73h-.05s1.58,1.2,1.58,1.2l.23-.07-1.59-1.17-.17.04h0ZM86.11,24.79s.05,0,.11.09c0,0,.04.05,0,.06-.07,0-.14,0-.21-.01-.07-.01-.14.02-.18.07,0,0-.05.07.04.16.07.09.17.14.28.15-.08-.05-.15-.11-.21-.18,0,0-.08-.09-.06-.12s.01-.05.11-.03.42.07.34-.07c-.03-.05-.07-.1-.11-.14l-.11.03h0Z"/>
  <path class="cls-1" d="M86.21,24.78s.08.08.11.13v.05l-.08.03c-.13.02-.28-.05-.35,0l-.02.03h0c-.04.07.19.27.27.32v-.02c-.11,0-.21-.06-.28-.15-.07-.09-.03-.15-.03-.15.07-.12.22-.05.38-.05l.03-.02-.02-.05c-.07-.09-.11-.1-.12-.1v.02l.1-.02h0ZM86.17,35.16s.25.08.17.19c-.21.13-.48.07-.63-.13-.03-.03-.23-.7.51-.64.59.12,1.17.29,1.74.48.55.17.72.1.72.1l.2.21c-.29,0-.59-.04-.87-.13-.55-.2-1.11-.35-1.68-.46-.55-.03-.45.38-.44.4l.26-.03ZM89.4,33.96c-.14-.09-.29-.19-.27-.18s-3.12-.39-3.14-.5c0,0,.19.26.93.38s1.81.27,1.81.27l-.15.13.83-.11ZM89.97,30.81l-.28-.15s-3.15-.11-3.17-.21c0,0,.21.23.96.3s1.83.1,1.83.1l-.14.15.81-.18h0ZM89.7,26.22l-.27-.09s-2.71.48-2.75.4c0,0,.23.19.87.1s1.58-.25,1.58-.25l-.09.16.66-.32h0ZM88.97,33.37s.06-.1.1-.11c0,0,.05,0,.07.02s.04.1-.07.12l-.09-.03ZM88.91,33.43c.08.03.17.05.25.07.11.05.11-.08.11-.08-.02-.1-.08-.2-.16-.26-.16-.1-.26.12-.26.12l-.03-.02c-.15-.3-.28-.62-.39-.94v.04c0,.35.13.69.36.96v.04l-.09.07.13.1.09-.09h0Z"/>
  <path class="cls-1" d="M89.44,26.92s.02-.14.05-.16.05-.04.07,0,.08.08-.03.16h-.1ZM89.4,27c.1,0,.19-.02.29-.04.04,0,.08-.02.09-.07,0,0,0,0,0,0,0-.02,0-.04-.01-.06-.07-.1-.17-.17-.28-.2-.21-.04-.22.23-.22.23,0,.04-.05,0-.05,0-.29-.25-.56-.53-.81-.81v.05c.16.36.44.66.79.84l.02.04s-.07.11-.07.11l.18.05.07-.13h0ZM86.04,17.68s-.03-.09-.01-.11l.05-.03s.08.03.03.11l-.06.03ZM86.04,17.75c.06-.03.12-.07.17-.11.08-.04.01-.1.01-.1-.07-.04-.15-.06-.23-.05-.14.03-.07.2-.07.2h-.03c-.25-.06-.5-.15-.73-.27l.02.03c.2.18.46.29.73.31l.02.02v.09l.12-.02v-.1h0ZM85.16,35.2l.15.15.22-.15-.15-.16"/>
  <path class="cls-1" d="M85.25,34.9l.15.16.23-.15-.15-.16M86.06,33.12l.14.16.23-.15-.15-.16"/>
  <path class="cls-1" d="M86.13,32.83l.14.16.23-.15-.15-.16M86.56,22.02l-.03.28h.21l.04-.27"/>
  <path class="cls-1" d="M86.4,21.77l-.03.28h.21l.04-.27M87.61,29.81l.2.07.13-.23-.2-.08M87.99,25.67l.19.1.16-.22-.19-.11M87.2,23.64l.21.05.1-.26-.21-.05M85.46,19.03l.02.28.21-.04v-.27M83.44,17.07l.02.28.2-.04v-.27M85.58,21.02l.02.27.2-.03v-.28M87.48,32.05s-.16-.11-.1-.22c0,0,.05-.1.27.06,0,0,.23.22.23.28,0,0-.23-.29-.35-.28,0,0-.12-.01-.06.16M89.52,28.68s-.17-.08-.13-.2c0,0,.03-.11.27.01,0,0,.25.18.27.23,0,0-.28-.23-.38-.21,0,0-.11,0-.02.16"/>
  <path class="cls-1" d="M89.54,28.5c.07-.02.25.12.36.21l.04.03v-.05c-.01-.07-.23-.22-.28-.25s-.16-.09-.23-.05-.09.16.09.26l.05.03s-.08-.12-.05-.17l.04-.02h-.02ZM89.52,28.63s-.15-.07-.12-.17l.03-.03s.08-.01.21.05c.1.06.18.14.26.23l.03-.02s-.29-.25-.39-.22h0s-.05.02-.07.04c-.02.05,0,.1.03.15l.02-.02h0ZM88.65,27.92s-.17-.07-.14-.19c0,0,.02-.11.27,0,0,0,.26.16.28.22,0,0-.3-.22-.39-.19,0,0-.12,0-.02.16"/>
  <path class="cls-1" d="M88.67,27.78c.06-.03.26.1.37.19l.04.03v-.05c-.03-.07-.28-.22-.3-.23-.1-.05-.26-.09-.29.02s.15.21.15.21l.05.02s-.09-.12-.07-.16l.04-.02h0ZM88.65,27.91s-.16-.07-.13-.17l.03-.03s.08-.02.21.03.27.17.27.21l.03-.02s-.31-.23-.4-.19h0s-.05.02-.07.04c-.02.03,0,.09.03.15l.03-.03h0ZM87.52,25.59s-.18-.03-.18-.15c0,0,0-.11.26-.07.11.04.22.09.32.15,0,0-.34-.15-.42-.1,0,0-.11.04.02.16"/>
  <path class="cls-1" d="M87.51,25.45c.05-.04.28.04.4.1l.04.02-.03-.04c-.1-.08-.21-.13-.34-.16-.12-.02-.21-.01-.23.03-.02.02-.03.04-.03.06,0,.13.19.16.2.17h.05s-.11-.1-.1-.14l.03-.04h-.01ZM87.52,25.58s-.16-.03-.16-.13l.02-.03s.08-.04.22-.01c.11.03.22.08.32.15l.02-.03s-.35-.16-.43-.1h0s-.05.03-.05.06c0,.05.02.1.07.13v-.03h0ZM87.46,24.74s-.15-.03-.14-.11v-.03s.09-.03.21,0c.1.02.19.06.27.12l.02-.02s-.31-.14-.38-.09h0s-.04.02-.05.05c0,.03.01.07.06.12v-.05ZM87.2,23.06s-.15.03-.17-.05v-.03s.05-.06.17-.08c.1-.01.2,0,.3.01v-.03s-.33,0-.38.07c-.02.01-.03.04-.03.06,0,.03.04.06.1.09v-.03h.01ZM87.81,21.09s-.18.04-.22-.07c0,0-.05-.1.21-.15.12,0,.23,0,.35.01,0,0-.36-.01-.42.07,0,.01-.09.08.08.15"/>
  <path class="cls-1" d="M87.75,20.97c.04-.05.27-.07.4-.06h.05l-.04-.03c-.12-.03-.24-.04-.36-.02-.03,0-.18.03-.22.11,0,.02,0,.04,0,.06.05.12.23.08.23.08h.05s-.13-.06-.14-.11l.02-.03h0ZM87.81,21.08s-.17.03-.2-.06v-.03s.06-.07.19-.09c.11-.02.23-.02.34,0v-.03s-.36,0-.42.07c-.02.02-.03.05-.03.07,0,.04.05.07.11.1v-.04h0ZM84.27,20.89s-.18.02-.21-.09c0,0-.03-.11.22-.13.12,0,.24.02.35.05,0,0-.36-.05-.42.02,0,0-.09.07.07.15"/>
  <path class="cls-1" d="M84.21,20.76s.27-.04.41-.02h.05l-.03-.04c-.12-.04-.24-.06-.36-.06-.04,0-.18,0-.23.09-.02.03-.01.06,0,.06.03.13.22.11.23.11h.05s-.12-.06-.13-.11l.02-.03h0ZM84.26,20.87s-.16.02-.19-.08v-.04s.07-.06.2-.07c.11,0,.23.01.34.05v-.03s-.36-.05-.42.03c-.02.02-.03.04-.03.07,0,.04.04.07.1.11v-.03h.01ZM83.45,19.09s-.16.02-.19-.08c0,0-.03-.09.19-.11.1,0,.21.02.31.05,0,0-.31-.05-.37.02,0,0-.08.05.06.12"/>
  <path class="cls-1" d="M83.4,18.98c.12-.04.24-.04.36-.01h.05l-.03-.03s-.27-.05-.31-.05-.16,0-.2.08,0,.15.19.15h.05s-.11-.05-.11-.09v-.03s.01,0,.01,0ZM83.44,19.08s-.15.01-.16-.07v-.03s.06-.05.17-.07c.1,0,.2.02.29.05v-.03s-.31-.05-.37.03c-.02.01-.03.04-.03.06,0,.03.03.07.08.09v-.03h.01ZM82.27,17.6s-.14.07-.2,0c0,0-.06-.07.14-.17.1-.04.2-.06.3-.06,0,0-.31.07-.34.15,0,0-.07.07.09.1"/>
  <path class="cls-1" d="M82.18,17.5c.02-.05.21-.11.33-.13h.04l-.04-.02c-.05-.03-.27.05-.31.06-.09.05-.15.09-.16.14,0,.02,0,.04,0,.05.07.09.21.02.22.02l.04-.02s-.13-.01-.14-.05v-.05s.02,0,.02,0ZM82.26,17.58s-.13.07-.18,0v-.03s.03-.07.14-.12c.09-.04.19-.06.29-.06v-.03s-.32.07-.35.15h0s-.01.05,0,.07c0,.03.05.05.11.06v-.03h-.01ZM82.23,18.64s-.14.07-.2-.01c0,0-.06-.07.15-.17.1-.03.2-.05.3-.06,0,0-.31.07-.34.15,0,0-.06.08.09.1"/>
  <path class="cls-1" d="M82.16,18.55c.02-.05.21-.11.33-.13h.05s-.05-.03-.05-.03c-.05-.03-.27.05-.31.06-.09.05-.15.09-.16.14s0,.05.01.05c.07.09.21.02.22.02l.05-.02h-.05s-.07-.01-.09-.04v-.04h0ZM82.23,18.63s-.13.07-.18,0v-.03s.03-.07.14-.12c.09-.04.19-.06.29-.06v-.04s-.32.07-.35.15h0s-.01.05,0,.07c.01.03.05.05.12.06l-.02-.04ZM82,16.35s-.14.07-.2,0c0,0-.06-.07.15-.17.1-.03.19-.05.3-.06,0,0-.31.07-.34.15,0,0-.06.08.09.1"/>
  <path class="cls-1" d="M81.93,16.25c.02-.05.21-.11.33-.14h.05l-.04-.02c-.11,0-.21.02-.31.06-.09.05-.15.09-.16.14s0,.05.01.05c.07.09.21.02.22.02l.05-.02h-.05s-.07-.01-.09-.04v-.04h0ZM82,16.33s-.13.06-.18,0v-.03s.04-.07.14-.12c.09-.04.19-.06.29-.06v-.04s-.32.07-.35.15h0c-.05.07.02.11.11.13v-.03h0ZM81.86,14.52s-.16.02-.19-.09c0,0-.03-.11.19-.13.1,0,.21.02.31.05,0,0-.32-.05-.37.03,0,0-.08.07.06.15"/>
  <path class="cls-1" d="M81.8,14.4c.04-.05.23-.04.36-.02h.05l-.03-.04c-.05-.05-.34-.06-.32-.06-.11,0-.17.04-.2.09s.03.19.19.16h.05s-.11-.06-.11-.11l.02-.03h0ZM81.84,14.51s-.15.02-.17-.08v-.04s.06-.06.17-.07c.1,0,.2.01.29.05v-.03s-.31-.05-.37.03h0s-.03.04-.03.07c0,.04.03.07.09.11v-.03h.01ZM86.51,31.57s-.15-.11-.09-.21c0,0,.05-.1.25.05,0,0,.21.21.21.27,0,0-.23-.28-.32-.27,0,0-.11-.02-.05.15M86.61,35.73c-.08-.03-.13-.11-.11-.19,0,0,.02-.13.22-.06,0,0,.22.14.23.2,0,0-.23-.2-.32-.14,0,0-.1.03-.02.19M87.38,34.24l-.07-.13c-.14.08-.31.05-.42-.06.09.18.3.26.48.19M89.91,28.01l-.19-.14c-.15.21-.41.29-.65.21.26.19.61.16.84-.07M88.59,31.8l-.15-.14c-.15.17-.39.22-.59.12.21.19.52.2.74.02M89.72,31.75l-.11-.13c-.13.12-.32.14-.47.05.15.17.4.21.59.08M88.76,26.94l-.13-.15c-.16.14-.39.16-.56.05.18.21.48.25.7.09M85.92,20.22h-.25s-.03.34-.5.5c.33,0,.63-.2.75-.5M81.54,13.89l-.14.09c.06.16.02.35-.11.47.18-.12.27-.34.23-.56M81.22,15.12l-.15.08c.05.17,0,.35-.13.46.19-.11.3-.32.28-.54M88.45,21.18h-.23s-.02.31-.47.47c.31,0,.59-.18.7-.47M88.77,35.93l-.08-.14s-.37.08-.53-.07c0,0,.11.32.61.2M89.11,34.78l-.11-.11s-.35.16-.54.06c0,0,.19.29.65.05M89.33,32.92l-.13-.06-.42-1.27.12.06M89.88,29.95l-.15-.03-.76-1.29.15.03M88.03,34.95l-.11-.05-.34-1.02.09.05M88.19,36.65l-.13-.07-.31-1.36.12.07M89.65,25.92h-.15l-1-1.28h.14"/>
  <path class="cls-1" d="M88.45,24.62l1.05,1.31h.2l-1.06-1.31h-.19ZM89.65,25.9h-.15.01l-1.01-1.28v.03s.13.01.13.01h-.01l1.03,1.26v-.03s0,0,0,0ZM89.04,22.85l-.16.04h.02l-1.53-1.15v.05l.16-.04h-.01l1.53,1.14M87.82,21.39l-.16.07-1.64-.97.15-.05"/>
  <path class="cls-1" d="M85.96,20.48l1.71,1s.23-.09.21-.08l-1.72-.99-.2.07ZM87.81,21.37l-.16.07h.01l-1.64-.97v.05l.15-.05h-.02l1.64.96.02-.05ZM84.83,17.15l-.09.07-1.24-.42.09-.06"/>
  <path class="cls-1" d="M83.46,16.79l1.29.44.13-.09-1.28-.43-.13.07h0ZM84.82,17.13l-.1.07h.02l-1.24-.43v.03l.09-.05h-.01l1.24.42v-.03h0ZM80.26,16.86l.87.08.05-.06-.87-.08"/>
  <path class="cls-1" d="M80.31,16.82l.84.07-.04.04-.83-.08.03-.03ZM80.31,16.8h0l-.05.05h-.01s.9.1.9.1l.05-.06h.01l-.9-.09ZM80.21,17.03l.87.09.05-.06-.88-.09"/>
  <path class="cls-1" d="M80.26,16.98l.84.08-.03.04-.84-.09.04-.03h0ZM80.26,16.96h0l-.05.05h-.02s.9.11.9.11l.05-.06h.01s-.89-.1-.89-.1ZM84.43,16.33l-.13.08-1.58-.54.12-.07"/>
  <path class="cls-1" d="M82.67,15.87s1.74.6,1.64.56l.16-.11-1.64-.55-.16.09h0ZM84.42,16.31l-.12.08h.01l-1.58-.54v.04l.12-.07h-.01l1.59.53v-.03ZM87.19,27.35h-.05l-.35-.45h.05"/>
  <path class="cls-1" d="M86.74,26.88l.38.49h.1s-.4-.51-.38-.47h0s-.07,0-.1,0v-.02ZM87.19,27.35h-.05.01l-.35-.45v.03s.03,0,.03,0v-.02s.34.45.34.45l.02-.03h0Z"/>
  <path class="cls-1" d="M86.84,26.9h-.06l.36.47h.07l-.37-.47h0ZM87.19,27.35h-.05l-.35-.45h.05l.35.45v-.02s0,.02,0,.02Z"/>
  <path class="cls-1" d="M87.2,27.35l-.34-.45-.03.03h0v-.03s-.04,0-.04,0v.03s.01-.01.01-.01h-.04l.35.45.03-.03h0v.04s.04,0,.04,0l-.02-.03h0s.02.01.02.01ZM87.19,27.33h-.05v.03h0l.02-.03-.37-.47v.03s-.01.01-.01.01v.03h.07v-.03h.01l-.03.03s.4.5.37.47v-.03h.01v-.03s-.01,0-.01,0h0Z"/>
  <path class="cls-1" d="M86.82,26.91l.36.47v-.03s-.05,0-.05,0h.01l-.35-.46h-.01s-.01.01-.01.01h.06,0ZM86.84,26.88h-.1l.39.51h.12l-.39-.5h-.02ZM89.2,23.86l-.12.03-1.17-1.19.11-.03"/>
  <path class="cls-1" d="M87.87,22.68l1.22,1.24.16-.05-1.22-1.22-.16.03ZM89.2,23.83l-.12.03h.01l-1.19-1.2v.04l.11-.03h-.01l1.19,1.19v-.04ZM84.7,18.17h-.16l.16.28s0,.04-.05,0-.3-.15-.3-.15c0,0,.23.32.53.22,0,0,.04,0-.01-.11-.04-.09-.09-.17-.17-.23M89.54,32.6s-.07.05-.12.07c-.09.03-.11-.07-.11-.09s.13,0,.12-.05c0,0,.01-.02-.06-.09-.1-.09-.21-.17-.32-.25l-.02-.07c.13.03.25.04.38.04,0,0,.05,0,.03-.05v-.04s.13-.03.13-.03c.04.03.06.07.08.12,0,0,.01.07-.11.09-.1.02-.2.02-.3,0,0,0-.05-.01,0,.02.1.07.19.15.28.23,0-.01.07.1.03.11M88.49,24.21s0,.09-.02.13c-.03.09-.12.04-.13.04s.07-.11.03-.13c0,0,0-.03-.11,0,0,0-.25.06-.4.11l-.07-.03c.09-.09.18-.19.24-.31,0,0,.04-.04-.03-.05l-.03-.03.04-.12s.1-.01.15,0c0,0,.07.03,0,.15-.04.09-.11.17-.19.23,0,0-.03.03.01.02.12-.04.23-.07.35-.09,0-.01.14,0,.12.04"/>
  <path class="cls-1" d="M88,24.22h0c.08-.05.23-.27.21-.36,0-.02-.02-.04-.04-.05-.05-.01-.11-.01-.16,0h-.01l-.05.14h0l.03.03h.02c-.07.1-.16.2-.25.28l-.02.02.1.04h0c.13-.04.26-.08.39-.11.07-.01.09,0,.09,0h.01s-.04.1-.06.12h.05c.05.02.12,0,.14-.05h0s.03-.1.02-.15h0s0-.02,0-.02c-.02-.03-.08-.04-.13-.04,0,0-.02-.02-.36.09l.03.04ZM88.46,24.2h0s0,.08-.02.12c-.02.06-.07.04-.12.03v.03s.06-.08.05-.13l-.03-.03h.01s-.03-.03-.13-.01c-.01,0-.26.06-.4.11h.01l-.07-.03v.03c.1-.08.19-.18.26-.29h0s.02-.03.01-.05c-.01-.02-.03-.03-.05-.03h.01l-.03-.03v.02l.04-.12h-.01s.1,0,.14.01l.02.03s0,.07-.02.09c-.04.09-.1.17-.18.23l-.02.04h.04c.11-.03.23-.06.35-.08.04,0,.07,0,.11.03h0v.03ZM86.62,21.26s.01.07,0,.11c-.01.08-.09.05-.11.05s.04-.1,0-.11c0,0,0-.02-.09,0-.11.05-.21.1-.31.16h-.06c.07-.1.12-.19.16-.29,0,0,.02-.04-.03-.04l-.03-.03v-.11c.05-.02.1-.02.14-.02,0,0,.06.01.03.12-.02.09-.06.17-.11.23,0,0-.03.03,0,.01.09-.05.18-.09.27-.13,0,0,.12,0,.11.03"/>
  <path class="cls-1" d="M86.52,21.22c-.07.02-.26.13-.27.13h0c.06-.06.16-.27.11-.34s-.15-.01-.17-.01h0l-.02.12h0l.03.03h.02c-.04.1-.09.19-.16.27v.02h.09c.1-.04.2-.09.31-.14.06-.02.07,0,.07,0h.01s0,.06-.01.08v.03s.01,0,.01,0c.11,0,.11-.05.12-.07.01-.04.01-.08,0-.12h0v-.03s-.08,0-.13,0v.02ZM86.62,21.26s0,.07,0,.1c0,.04-.03.05-.09.05l.02.02s.03-.08.01-.11h-.03s.01-.01.01-.01c-.03-.07-.37.13-.42.16h.03-.06s0,.01,0,.01c.07-.08.13-.18.17-.28v-.04l-.04-.02h0l-.03-.03h0s.02-.09.02-.09h0s.07,0,.11,0l.02.02s0,.05,0,.08c-.02.08-.05.16-.11.22v.04h.04s.2-.11.27-.13.08,0,.08,0h0s0,.03,0,.03ZM81.93,15.25s.04.07.04.11c.01.08-.07.08-.08.08s0-.11-.03-.1c0,0-.01-.01-.08.04-.08.07-.16.15-.23.23h-.06c.04-.1.06-.21.07-.32,0,0,0-.04-.04-.03h-.03l-.02-.11s.07-.05.11-.06c0,0,.07,0,.07.1,0,.09,0,.17-.03.25,0,0-.01.03.01,0,.07-.08.14-.15.21-.21,0,0,.11-.05.11,0"/>
  <path class="cls-1" d="M81.82,15.25c-.05.04-.21.21-.22.21h0c.04-.08.06-.31,0-.36l-.05-.02s-.08.03-.12.06h0s.02.08.02.12h.03s.03.01.03.01h0c0,.12-.03.22-.07.32v.02h.08c.08-.09.23-.23.23-.25.05-.04.07-.04.07-.04h.01s.01.09.01.11h.03s.09-.03.08-.11c0-.04-.02-.08-.05-.11h0l-.02-.02s-.07.01-.11.03l.04.02ZM81.92,15.25s.04.06.04.09c0,.05-.01.05-.07.07h.02s0-.08-.03-.1h-.03.01s-.03-.02-.11.04c0,0-.17.15-.25.23h.01-.06v.02c.05-.1.08-.21.08-.32h0v-.04h-.08s0,0,0,0l-.02-.08h0s.06-.03.1-.04h.03s.03.23,0,.32v.04h.03c.07-.07.14-.14.21-.21.04-.02.08-.03.09-.03h0ZM88.43,33.26l-.07-.07c-.08-.01-.16,0-.23.03,0,0-.09.03-.09-.03,0,0,0-.1.07-.1.1,0,.2,0,.3,0l-.05-.07c-.07.01-.14.01-.2,0,0,0-.1,0-.1-.15,0,0,0-.03.11-.04.08,0,.16,0,.23.01l-.07-.09c-.09,0-.19,0-.28.01-.07,0-.13.07-.12.11s0,.08.12.16c0,0-.19.07-.13.17,0,0,.05.1.23.09.04,0,.08-.02.12-.03.05-.02.1-.02.16-.02"/>
  <path class="cls-1" d="M88.28,33.26l-.12.03c-.17,0-.21-.08-.21-.08-.01-.07,0-.05,0-.05.03-.04.07-.07.12-.08h.03s-.12-.07-.14-.17h0s.01-.04.01-.04c.02-.03.06-.05.09-.06.09,0,.18,0,.28,0h-.01l.07.09.02-.03c-.07-.02-.34-.03-.36.04h0c0,.16.11.17.11.17h0c.07.01.14.01.21,0h-.02l.06.07v-.03c-.09.01-.19.01-.28,0-.07,0-.09.08-.09.12v.04s.1,0,.11,0c.07-.03.14-.04.22-.03h-.01l.07.07.02-.03c-.06-.02-.12-.02-.17,0M88.38,33.2c-.08-.01-.16,0-.23.04h-.05s0-.09.06-.09c.1.01.2.01.3,0h.03s-.01-.03-.01-.03l-.05-.07h-.01c-.06.01-.13.01-.19,0h0s-.08,0-.08-.13h0s.01-.02.1-.03c.09,0,.18,0,.27.02l-.09-.13c-.22,0-.36,0-.41.09v.06h-.01s.01.09.12.16v-.03s-.12.04-.15.11c-.01.03,0,.06.01.09,0,0,.05.11.23.11.04,0,.08-.02.12-.03.05-.01.09-.02.14-.01h.06s-.09-.06-.13-.11h0ZM89.03,29.77l-.07-.07c-.08,0-.16,0-.23.03,0,0-.09.03-.09-.03,0,0,0-.11.07-.11.1,0,.2,0,.3,0l-.05-.07c-.07.01-.14.01-.2,0,0,0-.1,0-.09-.15,0,0,0-.03.11-.04.08,0,.16,0,.23,0l-.07-.09c-.1,0-.19,0-.29.01-.07.01-.12.07-.12.11s0,.09.12.16c0,0-.19.06-.12.17,0,0,.05.1.23.09.04,0,.08-.02.12-.03.05-.01.1-.02.15-.01"/>
  <path class="cls-1" d="M88.86,29.74s-.11.03-.11.03c-.08.02-.16-.02-.21-.08v-.05s.09-.08.12-.08h.04s-.13-.07-.15-.18v-.03s.07-.06.11-.06c.09,0,.18,0,.28,0h-.01l.07.08.02-.03c-.08,0-.16,0-.23,0-.11,0-.12.04-.13.05h0c-.01.08.04.15.11.17h0c.07.01.14.01.21,0h-.02l.05.07v-.03c-.1,0-.19,0-.29,0-.07,0-.09.08-.09.12v.04s.08.01.11,0c.07-.03.14-.04.22-.03h-.01l.07.07.02-.03c-.05-.01-.11-.01-.17,0M88.97,29.66c-.09-.01-.17,0-.25.03h-.05s0-.09.06-.09c.31.02.31-.02.32-.02-.02-.02-.09-.11-.08-.09-.07.02-.14.02-.21.01-.06,0-.08-.07-.08-.13h0s.01-.02.1-.03c.07,0,.15,0,.22.01h.05l-.09-.13c-.1,0-.2,0-.3,0-.05,0-.09.04-.12.07v.06c0,.07.05.14.11.17v-.04s-.12.04-.15.11c-.01.03,0,.06.01.09,0,0,.05.11.23.11.04,0,.08-.02.12-.03.05-.01.09-.02.14-.01h.06s-.11-.1-.11-.1ZM89.04,25.64l-.09-.05c-.08.01-.15.04-.21.09,0,0-.08.05-.09,0,0,0-.03-.1.05-.12.1-.02.19-.05.28-.09l-.07-.05c-.06.04-.12.06-.19.06,0,0-.09.02-.13-.12,0,0,0-.03.1-.07.07-.03.14-.04.22-.05l-.09-.07c-.09.02-.18.05-.27.09-.06.02-.09.08-.09.14.01.04.03.08.16.12,0,0-.17.11-.07.2,0,0,.07.08.23.03.04-.02.07-.04.11-.06.04-.03.09-.05.15-.06"/>
  <path class="cls-1" d="M88.88,25.68s-.07.05-.11.06h0c-.16.05-.23-.02-.23-.03l-.02-.05s.07-.1.09-.12l.03-.02h-.04c-.13-.05-.13-.1-.15-.13v-.03s.04-.06.07-.08c.09-.03.17-.06.26-.08h-.02l.09.07v-.03c-.06,0-.32.06-.32.13h0c.04.15.15.13.16.13h0c.07,0,.14-.03.21-.07h-.02l.07.05v-.03c-.09.04-.18.06-.28.08-.07.02-.07.1-.06.14l.03.04s.07,0,.1-.02c.06-.05.13-.08.2-.08h-.01l.08.05v-.03s-.1.03-.14.05M88.95,25.58c-.09,0-.17.04-.23.1h0l-.06.02h0s-.02-.09.04-.1c.1-.02.2-.05.29-.09h.02l-.1-.07c-.15.07-.26.12-.31-.04h0s0-.02.09-.05c.08-.03.17-.05.26-.05l-.13-.11c-.18.05-.26.08-.28.09-.08.04-.11.13-.09.16h0c.03.07.09.11.16.13v-.03s-.08.08-.09.13c0,.03.01.06.03.08,0,0,.08.09.27.03.1-.05.17-.11.23-.11h.06c-.05-.02-.1-.05-.15-.09h0ZM86.1,24.81s.08.07.11.09v.03s0,0,0,0h-.2s-.14-.02-.19.08.11.32.33.32h.03l-.03-.02c-.08-.05-.15-.11-.21-.18-.03-.03-.07-.1-.06-.11s.01-.03.09-.03c.09.01.18.02.27.01.08,0,.12-.04.08-.1-.03-.05-.07-.1-.12-.14h0l-.1.03h0ZM87.24,35.22c.1.02.2,0,.29-.05l.05.04c-.38.34-.16.81-.15.97.01.2-.21,0-.33-.17.08,0,.14.14.2.18s.03-.07.01-.11c-.16-.56.08-.8.08-.8-.06,0-.11-.02-.15-.06"/>
  <path class="cls-1" d="M87.4,35.27c-.05.05-.09.12-.11.19-.06.2-.05.42.02.62.01.03.03.1.01.11h-.02s-.05-.05-.07-.08c-.11-.14-.13-.1-.16-.11v.02c.07.07.25.31.34.26.14-.08-.28-.64.18-1.06h0s-.05-.05-.07-.05h0c-.09.05-.19.07-.28.05h-.03l.02.02s.1.06.16.06h0v-.02ZM87.26,35.23c.1.02.21,0,.3-.06h-.01l.05.03h0c-.47.42-.06.99-.18,1.05-.07.04-.25-.18-.3-.25h0c.07.01.13.14.2.19h.04s0-.11-.01-.13c-.16-.55.07-.79.08-.79h.01c-.06,0-.12-.02-.17-.05h0s0,.02,0,.02ZM86.45,34.27s.3.36.31.03c.01-.19-.09-.38-.26-.47-.1-.05-.21.09-.21.09l-.05-.18-.11-.05.11.73.15.12-.03-.33c.01-.1.09-.18.19-.19.03,0,.05.01.07.14s-.15.11-.15.11M87.22,26.97s.28.08.18-.1c-.06-.11-.18-.17-.31-.15-.07,0-.08.12-.08.12l-.09-.07h-.08s.32.37.32.37h.12s-.13-.15-.13-.15c-.03-.05-.02-.12.03-.16.01-.01.03,0,.08.05s-.04.11-.04.11M86.93,21.4c.18-.04.21.03.21.04,0,.09-.03.17-.09.23,0,0-.15-.17-.12-.27M87.17,21.7c.07-.04.1-.12.1-.19-.03-.03.18.05.18.05,0,0,.05-.07-.28-.19-.37-.14-.37.05-.37.05,0,0-.01.28.19.33.07.01.13,0,.19-.05M85.21,17.11s.19-.07.16.12c-.01.01-.2-.15-.34-.05s-.67.77-.79.87c.42-.13.77-.78.77-.78,0,0,.07-.09.36.17.18-.01.21-.11.2-.09.04-.32-.04-.35-.06-.36-.15-.08-.3.12-.3.12M81.04,14.53s.11-.11.15.03c0,.01-.19-.05-.23.06s-.23.7-.3.83c.18-.21.28-.48.31-.75,0,0,.03-.09.3,0,.12-.06.11-.12.11-.11-.07-.23-.13-.23-.15-.23-.14-.01-.18.16-.18.16M83.26,15.42s.16-.05.02-.1c-.01,0-.38-.1-.48.03,0,.02-.05.05.38.22.07.03.18.11.16.12-.24-.07-.47-.17-.68-.31-.05.07.15.18.17.19.47.23.5.19.52.18.04-.03.05-.07.05-.11,0-.01.03-.02-.3-.17-.07-.03-.13-.06-.19-.1-.02-.02.05-.04.29,0,.03,0,.06.03.07.06M87.4,32.48c-.11.03-.23.04-.35.03-.07-.04-.1-.25-.1-.25l.45.23M86.34,32.46s-.05-.16.17-.19c.01.13-.17.19-.17.19M89.64,31.17s.01.07-.03.11c-.13.04-.27.05-.4.04-.6-.07-1.21-.1-1.81-.09-.37-.02-.69.27-.7.64h0s0,.07,0,.1c0,0-.11-.09-.15-.08s.04.12.04.12c0,0-.44.11-.47.31-.01.17.11.31.27.33,0,0,0,0,0,0,.07,0,.13-.01.19-.05.02.13.06.47.06.47,0,0,0,.08.22.19.14.03.23.05.53-.11.01,0,.14-.13-.19-.2-.1.09-.23.13-.36.11l-.03-.66c.08.15.23.25.4.28.14.02.28,0,.42-.03.19-.05.09-.14.09-.14,0,0-.59-.31-.77-.44.03-.63.42-.64.47-.65s.72-.02.87-.02c.5.05,1.01.07,1.51.03.17-.07-.19-.36-.16-.27"/>
  <path class="cls-1" d="M86.91,29.56c-.25.08-.19.4-.19.4,0,0-.02.26.78.28.75.02,1.83,0,1.83,0l-.13.15.8-.22h0l-.28-.13s-1.73.03-2.64,0c-.25-.03-.12-.28-.07-.3.09-.04.19-.04.27,0-.33-.5-.44-1.11-.32-1.7.14.26.41.42.7.42-.03.17.03.35.16.47,0,0-.4.19,0,.45.14.11.48-.09.48-.09-.07-.05-.15-.08-.23-.1-.03.07-.16.03-.16.03,0,0-.06-.23.28-.18.03-.01-.36-.32-.31-.47.06-.23.38-.38.37-.38-.07-.05-.15-.09-.23-.1,0,0-.23.14-.29.18-.1.07-.23.07-.32,0-.12-.12-.23-.26-.33-.4.17-.22.44-.34.71-.33.55-.03,1.06-.04,1.5-.08.23,0,.45-.08.64-.21l-.25-.12c-.23.11-.49.17-.75.16-.41-.03-.81-.02-1.22.02-.28.03-.56.13-.79.29,0,0-.34-.68-.11-.97.2-.24.54-.3.81-.14.08.05.11-.05.11-.05-.32-.2-.74-.2-1.05.02,0,0-.46.38.1,1.31,0,0-.34.61.15,1.79M87.11,25.78c.07,0,.15,0,.22.02-.11.28-.42.42-.7.31,0,0,0,0,0,0-.03-.01-.06-.03-.09-.04-.2-.21-.18-.54.03-.74.06-.05.13-.09.2-.12.83-.14,1.66-.32,2.47-.56.08.02.16.04.23.08-.23.35-2.28.5-2.56.66-.45.28-.14.61-.14.61,0,0,.05,0,.33-.21M83.25,16.51l-.21.13v.15c-.05.44-.03.88.03,1.31-.01.14-.08.13-.08.13,0,0-1.34-.42-1.52-.66-.18-.19.01-.28.01-.28.15-.09.3-.16.47-.21.5.1.5-.19.51-.23.27-.25-.13-1.72-.08-1.81.04.01.12.13.12.13,0,0-.03-.29-.06-.57.44.06,2.23,1.73,2.29,1.85s-.54-.05-1.17-.09c.4.11.82.19,1.24.23.35,0,.12-.32.12-.32-.68-.67-1.43-1.27-2.23-1.78-.08-.03-.17-.01-.23.04v-.07s-.21.1-.22.14c-.16.67.21,1.52.13,2.15-.01.16-.33.06-.33.06-.48-.22-.99-.34-1.51-.36-.98.06-.75-.41-.75-.41.17-.31.46-.53.81-.61-.47.02-.87.34-1,.78,0,0-.1.41.59.44.36-.01.72.03,1.06.13l.56.23c-.22.06-.42.19-.56.38-.16.3.26.5.26.5,0,0,1.1.5,1.27.54s.56.03.48-.6c-.12-.76-.04-.77-.04-.77l.11.11-.08-.66Z"/>
  <path class="cls-1" d="M86.47,23.56c.08-.05.23.1.23.21s.03.7.03.9c-.31-.24-.56-.55-.7-.92.15-.04.3-.1.43-.19M85.64,22.36s.28,0,.3.13c-.02.13-.23.19-.38.03.02-.13.07-.15.07-.15M86.41,19.54c.15,0,.04.22.04.22-.03-.07-.04-.14-.04-.22M86.58,22.98c.75-.29,2.08-.88,2.25-1.17l-.3-.03c-.84.52-1.73.94-2.66,1.25-.14.05-.26-.23-.26-.23,0,0,.73-.07.54-.47-.17-.31-.7-.14-.75,0-.34-.34.11-.54.11-.54,0,0-.87-.23-.75-1.01.08-.35.18-.69.31-1.03.1.05.21.07.32.06.19-.07.38-.17.54-.3l.06.09h.16c.02.13.05.26.11.38.09.16.23.03.23.03,0,0,.48-.42.09-.64-.12-.06-.27.07-.42.01s-.07-.18,0-.36l-.26.1c-.04.17-.14.32-.28.42-.18.11-.5-.07-.5-.07l.36-1.52s0-.06.09-.02c.64.16,2.09,2.44,2.08,2.52s-.93-.21-1.02-.04c.37.04.73.1,1.08.19.23,0,.2-.17.2-.17,0,0-1.44-2.3-2.26-2.67l-.11.03-.11-.03c-.08,0-.15.05-.19.11-.05.11-.35,1.44-.4,1.47-.42-.14-.77-.46-.94-.87-.22-.6.64-.87.69-.91-.43,0-.8.29-.91.7-.01.25.07.5.23.69.24.26.53.47.84.64,0,0-.1.22-.11.26s-.06.06-.14.07-.3-.33-.3-.33c0,0-.19.04-.2.08-.02.06-.01.12.02.17-.39-.31-.82-.56-1.29-.75-.35-.21.07-.43.11-.43.17-.06.74-.03.7-.07-.25-.09-.52-.11-.79-.05-.19.05-.33.2-.38.38-.06.33.85.62,1.12.81.22.18.41.39.56.64l.23-.05.05-.23s.06.17.4-.04c-.2.5-.4,1.17.03,1.49.13.11.27.21.42.3-.13.08-.18.23-.13.38.04.15.14.29.27.37.09.73.55.62.55.64-.09.12-.13.28-.11.43l-.15.05s-.04.14.16.08c.18.43.48.8.87,1.06l.11.21h.22s-.01-.95-.03-1.37c-.06-.25-.31-.41-.56-.36-.03,0-.07.02-.1.03-.07.03-.3.23-.28.19,0-.39.57-.59.58-.59"/>
  <path class="cls-1" d="M65.05,14.76s.09.3.08.28,2.04,2.11,1.98,2.21c0,0,.03-.29-.4-.78s-1.22-1.32-1.22-1.32h.19s-.64-.38-.64-.38h0ZM64.62,15.19h-.09l-.02-.03s.02-.06.08-.03l.03.05h0ZM64.66,15.19l-.09-.12s-.03-.03-.05-.03c0,0,0,0,0,0-.01,0-.02,0-.02.02-.03.05-.03.11-.02.17.03.11.15.05.15.05v.02c-.03.19-.08.37-.14.55h.01c.12-.16.18-.35.17-.55v-.02h.08l-.02-.09h-.07Z"/>
  <path class="cls-1" d="M64.72,15.19l.02.09h.01s-.07-.01-.07-.01l-.02.03c0,.2-.05.39-.17.54h-.02.01c.06-.18.11-.37.15-.55v-.03h-.02s-.07.01-.1,0c-.07-.03-.05-.16-.02-.21l.03-.02.03.03.09.11h.08v.03ZM64.67,15.19l-.09-.12-.05-.03c-.07,0-.12.23-.01.27.04.01.08,0,.12-.01h0c-.04.21-.09.41-.16.59l.03-.02h.02c.12-.17.18-.37.17-.57h0s.04,0,.05,0h.01s-.02-.07-.03-.11h-.07.01,0Z"/>
  <path class="cls-1" d="M64.53,15.13s-.03.01-.03.04l.03.04h.09s0-.03-.03-.07c-.08-.01-.05,0-.06,0h0ZM64.62,15.18s-.07.02-.07,0l-.02-.02.02-.03h.04l.03.04h0ZM67.11,15.47s-.13,0-.13-.03c0,0,.02-.23.31-.15,0,0,.05.07-.18.19M67.45,15.09c-.36-.21-.53-.06-.53-.05-.11.13-.13.32-.04.47.04.15.2.24.35.2h.04c.08-.1.18-.16.29-.21,0,0,.14-.04.17.05v.09l-.05.23s-.19.54-.21.58-.4.83-.42.86-.42.76-.44.81.75-.85.83-.96c.12-.26.52-1.19.45-1.46-.06-.25-.21-.47-.43-.6M65.21,16l.09.19.27-.08-.09-.2M64.41,16.72l.07.2.27-.06-.07-.21"/>
  <path class="cls-1" d="M64.58,16.47l.07.2.27-.06-.07-.2M66.61,17.05s.11.15.03.23c0,0-.07.09-.23-.12-.06-.1-.11-.21-.13-.32,0,0,.14.34.23.35,0,0,.1.05.09-.13"/>
  <path class="cls-1" d="M66.52,17.17c-.07-.01-.17-.22-.23-.35l-.02-.05v.05c-.03.07.13.36.12.34.07.1.14.15.19.15.02,0,.04,0,.06-.02.09-.09-.02-.23-.03-.25l-.03-.05s.01.15-.03.16h-.03ZM66.6,17.07s.1.13.03.21h-.03s-.09-.03-.16-.13c-.06-.1-.1-.2-.13-.31h-.03s.15.35.23.36h0s.05.01.08,0c.03-.02.05-.07.04-.15l-.02.02ZM66.66,15.78s.09.16,0,.23c0,0-.08.07-.2-.16-.05-.11-.07-.22-.08-.34,0,0,.09.35.18.38,0,0,.09.07.11-.11"/>
  <path class="cls-1" d="M66.55,15.87c-.06-.02-.13-.23-.17-.37v-.05s-.03.05-.03.05c0,.12.03.24.08.36,0,.02.08.16.17.18.02,0,.04,0,.06-.01.11-.08.01-.23.01-.25l-.03-.05s0,.14-.05.16h-.05s0-.01,0-.01ZM66.64,15.79s.08.15,0,.2h-.04s-.08-.04-.15-.16c-.04-.1-.07-.21-.08-.33h-.03s.09.36.19.4h0s.05.01.07,0c.04-.03.06-.08.07-.13h-.03v.02ZM65.53,14.58l.04.16s.22-.03.4.27c-.05-.22-.22-.39-.44-.43M65.1,18.19l.04.16s.23-.03.4.27c-.04-.22-.22-.39-.44-.43M66.48,13.89l.07.1-.38,1.34-.06-.1"/>
  <path class="cls-1" d="M66.16,15.39l.4-1.39h0l-.09-.14s-.4,1.41-.39,1.39c.03.05.06.09.09.14h0ZM66.45,13.91l.07.1h0l-.38,1.33h.03l-.06-.1h0s.38-1.34.38-1.34h-.03s0,.01,0,.01ZM65.05,15.28s-.05-.25-.14-.1c-.06.09-.06.2,0,.29.04.05.13.02.13.02l-.02.1.04.05.14-.38-.03-.1-.07.16s-.09.06-.14.04c-.01,0-.02-.02,0-.09s.09,0,.09,0"/>
  <path class="cls-1" d="M59.43,36.39l.32-.03s2.68-1.64,2.76-1.58c-.34-.02-.69.08-.96.28-.66.36-1.57.94-1.57.94l.04-.2-.58.59h0ZM59.28,21.88s-.07.05-.1.05l-.04-.03s0-.08.09-.05l.05.04ZM59.33,21.87l-.15-.12s-.04-.03-.07-.02c0,0,0,0,0,0-.01,0-.02.02-.03.04-.02.08,0,.16.03.23.07.11.2,0,.2,0l.02.03c.01.24,0,.49-.01.73l.02-.02c.1-.23.11-.49.04-.73v-.03h.08s-.05-.12-.05-.12h-.09,0Z"/>
  <path class="cls-1" d="M59.41,21.85l.06.11h0s-.08,0-.08,0v.03c.05.24.04.5-.05.73v.02h.02c.02-.24.03-.49.01-.73v-.04h-.03s-.08.05-.13.05c-.09,0-.12-.19-.1-.26l.03-.03.05.02c.05.03.1.07.15.12h0l.08-.03h0ZM59.34,21.86l-.15-.12-.06-.03c-.09.02-.07.32.07.33.05,0,.1-.01.14-.05.02.26.01.52-.01.78l.02-.03v-.02c.1-.23.11-.49.04-.73h0s.05-.02.07-.01h.01s-.05-.08-.07-.13h0l-.09.03h.01v-.02Z"/>
  <path class="cls-1" d="M59.22,21.83c-.07-.01-.1,0-.1.07s.04.04.05.04.08-.03.11-.05h0s0-.01-.06-.05h0ZM59.27,21.87s-.07.05-.09.04l-.03-.03v-.05s.05,0,.07,0h0l.05.04h0ZM59.36,22.66s-.06.09-.1.09c0,0-.05,0-.05-.03s-.03-.09.08-.1l.07.04ZM59.41,22.62l-.22-.08s-.07-.01-.09.01c0,.01-.01.03-.01.05.01.09.06.17.12.23.13.11.23-.07.23-.07l.03.02c.11.27.2.55.27.84v-.03c.02-.3-.06-.61-.23-.86v-.04l.09-.05-.11-.1-.09.06h0Z"/>
  <path class="cls-1" d="M59.49,22.57l.11.1h0s-.09.04-.09.04v.04c.18.25.26.54.23.85v.03s0,0,0,0c-.07-.29-.16-.57-.27-.85l-.03-.03h-.02c-.03.06-.07.1-.12.11-.11.02-.21-.16-.22-.27l.03-.05s.04,0,.07,0c.07.02.15.05.22.08h0l.09-.07h-.01.02ZM59.41,22.61l-.23-.08c-.07-.03-.11,0-.11.07,0,.11.11.3.23.28.06-.02.11-.06.15-.11v.02s0-.12.28.87c0-.03.01-.04.02-.07.02-.3-.06-.61-.23-.86v-.02s.05-.04.08-.05h.01l-.13-.11-.08.05h.02Z"/>
  <path class="cls-1" d="M59.28,22.61c-.08,0-.11.05-.09.11s.06.03.07.03c.04,0,.09-.07.11-.1s-.05-.04-.08-.05h0ZM59.34,22.65s-.05.06-.09.08l-.05-.02v-.05s.04-.03.07-.03c.02,0,.05.02.07.03h0ZM58.64,24.79s-.05.09-.09.1l-.06-.02s-.04-.09.07-.11l.08.03ZM58.69,24.75c-.08-.02-.16-.04-.23-.05-.11-.04-.09.07-.09.07.02.09.07.17.15.23.14.09.23-.1.23-.1h.03c.14.27.25.54.36.82v-.03c-.01-.31-.13-.6-.33-.83v-.03l.08-.06-.11-.09-.09.07h0Z"/>
  <path class="cls-1" d="M58.77,24.7l.11.08h0l-.09.07v.05c.2.23.32.52.33.82v.03h.03c-.1-.28-.22-.55-.36-.81h0l-.03-.04h-.02c-.03.06-.07.1-.12.13-.03,0-.07,0-.1-.02-.08-.06-.13-.14-.14-.23l.02-.05s.03,0,.06,0c.23.05.2.05.23.06h0l.08-.07h-.01ZM58.69,24.75c-.08-.03-.16-.05-.23-.06-.02-.01-.05-.01-.08,0-.09.07.08.38.23.33.06-.02.1-.07.13-.13h0v.02c.16.27.28.55.38.84v-.07c-.01-.31-.13-.6-.33-.83v-.02s.04-.03.07-.05h0l-.13-.09s-.05.05-.08.07h.04Z"/>
  <path class="cls-1" d="M58.56,24.77c-.08,0-.1.06-.07.12.02.02.04.03.07.02.04,0,.09-.09.09-.11s-.06-.03-.09-.03ZM58.63,24.8s-.06.09-.08.09h-.05v-.07s.03-.03.07-.03c.03,0,.05,0,.07.02h-.01ZM59.78,35.28s.03.08.03.13l-.04.03s-.06-.05-.06-.09c0,0,0-.02,0-.03l.06-.04ZM59.78,35.21c-.05.03-.1.06-.15.1-.08.04,0,.11,0,.11.07.05.15.07.23.07.13-.03.04-.21.04-.21h.03c.26.1.52.21.77.34l-.02-.03c-.21-.2-.48-.33-.77-.37l-.03-.02v-.09h-.12v.1h0Z"/>
  <path class="cls-1" d="M59.76,35.12h.12s-.01-.03-.01-.03v.1l.03.03c.29.04.56.17.77.37l.02.03h.01c-.25-.14-.51-.26-.77-.36h-.04v.03s.05.1.02.16-.22.03-.29-.03l-.03-.06.03-.03s.09-.07.14-.1h0v-.11s-.01.01-.01.01h.02ZM59.78,35.2c-.06.03-.11.07-.16.11l-.04.05c-.01.1.31.22.36.1.02-.06.01-.13-.03-.19h.02c.27.08.53.2.77.35h.01s0,0-.02-.04c-.21-.2-.48-.33-.77-.37,0-.02-.03.01-.02-.1h0s-.01-.01-.01-.01h-.13s.01.13.01.13l.02-.03"/>
  <path class="cls-1" d="M59.72,35.31s-.02.09.02.11c0,0,0,0,0,0,0,0,.02,0,.03,0,.03.01.05-.01.05-.03s-.02-.11-.03-.13-.05.01-.07.04h0ZM59.77,35.28s.03.07.03.11l-.03.02s-.04-.02-.05-.04v-.06l.05-.03ZM64.18,17.91s-.13.03-.13-.01c0,0-.02-.23.27-.2,0,0,.07.07-.14.21M64.44,17.48c-.39-.15-.53.03-.53.05-.08.15-.06.34.05.47.07.14.23.2.37.14.01,0,.03-.01.04-.02,0,0,.16-.21.25-.23,0,0,.13-.07.18.01v.35s-.11.56-.12.61-.25.88-.27.92-.28.82-.29.87.59-.96.65-1.1c.07-.28.31-1.26.19-1.52-.1-.24-.29-.43-.54-.52M59.22,26.8s-.07.11-.11.07-.17-.16.08-.33c0,0,.09.01.03.26M59.16,26.3c-.39.14-.38.36-.37.38.03.17.16.29.33.32.14.06.31,0,.37-.14,0-.02.01-.03.02-.05-.01-.12,0-.23.04-.34,0,0,.06-.13.15-.11l.07.07.15.2s.3.49.32.53.38.83.4.87.32.81.34.85-.19-1.12-.22-1.25c-.12-.26-.59-1.16-.85-1.28-.23-.12-.51-.13-.75-.05M59.96,34.18l.17-.42s.02.14.05.11c.15-.17.32-.32.51-.43.15-.05.28-.14.74.12.3.17.59.37.87.58,0,0,.78.99.8,1.03s-1.45-1.22-1.57-1.3c-.21-.15-.43-.28-.67-.38-.1,0-.47.4-.59.59l-.32.09h0ZM58.57,28.18l.19.1.16-.22-.19-.11M59.16,35.34l.21.03.08-.26-.22-.04M61.09,28.55l.16.14.21-.17-.16-.15M60.66,26.19l.19.11.17-.21-.19-.11M60.08,23.47l.15.15.23-.16-.15-.16M61.5,21.39l.15.15.23-.16-.15-.16"/>
  <path class="cls-1" d="M63.87,20.14l.09.19.26-.08-.09-.2M58.53,27.88l.19.1.17-.22-.19-.11M60.38,23.62l.14.16.23-.15-.14-.16"/>
  <path class="cls-1" d="M60.46,23.34l.14.16.23-.15-.15-.16M64.19,16.45l.08.19.26-.07-.08-.2M58.79,31.86l.27.05v-.22l-.27-.04"/>
  <path class="cls-1" d="M59.04,31.71l.27.05v-.22l-.27-.04M63.29,18.49s.07.16-.03.23c0,0-.09.06-.19-.18-.03-.11-.05-.23-.04-.35,0,0,.05.36.13.4,0,0,.08.07.12-.1"/>
  <path class="cls-1" d="M63.17,18.57c-.06-.03-.11-.25-.13-.39v-.05l-.03.05c-.04.07.05.38.04.36.04.11.11.23.21.19s.05-.23.04-.25l-.02-.05s-.02.14-.07.15h-.05ZM63.27,18.49s.06.15-.03.21h-.03s-.08-.05-.13-.17c-.03-.11-.04-.22-.04-.34h-.03s.05.37.15.42h0s.05.02.07.01c.04-.01.06-.05.08-.13h-.04ZM62.46,20.03s.06.14-.03.19c0,0-.09.05-.17-.15,0,0-.07-.25-.04-.29,0,0,.05.31.12.34,0,0,.08.06.12-.09"/>
  <path class="cls-1" d="M62.35,20.1c-.05-.02-.1-.21-.12-.32v-.04l-.03.04s.03.27.03.3c.04.09.09.15.14.16.02,0,.04,0,.06,0,.11-.06.03-.22.02-.25,0,.02-.02.12-.06.13h-.04v-.02ZM62.44,20.03s.06.13-.02.17h-.03s-.07-.04-.11-.15c-.03-.09-.04-.19-.04-.28h-.03s.05.31.13.35c.02.01.05.01.07,0,.04-.02.07-.06.07-.11l-.04.02ZM63.47,21.3s.07.14-.03.19c0,0-.08.05-.17-.15-.03-.09-.04-.19-.04-.29,0,0,.05.3.13.34,0,0,.08.06.12-.09"/>
  <path class="cls-1" d="M63.35,21.37c-.05-.02-.1-.21-.12-.32v-.04l-.03.04c-.03.05.04.32.04.3.04.09.11.2.19.16s.03-.22.02-.25c0,.02-.02.11-.06.13l-.03-.02h0ZM63.45,21.3s.05.13-.02.17h-.03s-.07-.04-.11-.15c-.03-.09-.04-.19-.04-.28h-.03s.05.31.13.35h0s.04.02.07.01c.03,0,.06-.05.07-.11h-.04ZM61.16,27.21s.15.06.11.16c0,0-.03.09-.23,0,0,0-.22-.13-.23-.19,0,0,.23.19.32.16,0,0,.09,0,.02-.14"/>
  <path class="cls-1" d="M61.13,27.33c-.05.02-.22-.09-.31-.16l-.04-.03v.05c.01.05.2.17.23.2.06.04.14.05.21.02.02-.01.03-.03.04-.05.04-.12-.13-.18-.17-.2.01.03.07.1.05.14l-.03.03h.01ZM61.15,27.22s.13.05.1.14l-.03.03s-.08.02-.18-.03-.22-.15-.23-.18l-.03.02s.25.19.34.16h0s.05-.02.06-.04c.01-.04,0-.09-.02-.12v.03h0ZM61.65,33.23s.19.05.16.19c0,0,0,.13-.27.06,0,0-.29-.14-.32-.2,0,0,.33.2.42.15,0,0,.12-.04,0-.2"/>
  <path class="cls-1" d="M61.65,33.41c-.06.04-.28-.07-.4-.15l-.05-.03c.03.06-.02.1.35.28.39.12.35-.25.11-.29h-.05s.1.11.08.16c0,.02-.02.03-.04.03h0ZM61.65,33.26c.15.04.16.14.15.17l-.02.03s-.09.05-.23,0c-.11-.04-.22-.11-.3-.19l-.03.03s.34.21.44.15h0s.05-.03.06-.06c0-.06-.01-.12-.05-.16v.03s0,0,0,0ZM62.53,22.8s.07.14-.03.19c0,0-.09.05-.17-.15-.03-.09-.04-.19-.04-.29,0,0,.05.31.12.34,0,0,.08.06.12-.08"/>
  <path class="cls-1" d="M62.42,22.87c-.05-.02-.1-.21-.11-.32v-.04l-.03.04s.03.26.03.3c.04.09.09.15.14.16.02,0,.04,0,.06,0,.11-.06.03-.23.02-.25,0,.02-.02.11-.06.13h-.05s0-.02,0-.02ZM62.52,22.8s.05.13-.03.17h-.03s-.07-.04-.11-.15c-.03-.09-.04-.19-.04-.28h-.03s.05.31.13.35h0s.04.02.07.01c.04-.02.07-.06.07-.11h-.04ZM60.64,24.13s.13.08.07.18c0,0-.05.08-.23-.04,0,0-.19-.18-.19-.23,0,0,.19.23.29.23,0,0,.1,0,.05-.13"/>
  <path class="cls-1" d="M60.58,24.24c-.06,0-.2-.13-.27-.22l-.03-.04v.05c0,.05.16.21.19.23.05.05.13.08.2.07.02,0,.04-.02.05-.03.07-.11-.09-.21-.11-.23v.05s.03.07.01.1h-.04v.03ZM60.63,24.14s.12.08.07.16l-.03.02s-.08,0-.17-.07-.18-.19-.18-.22h-.03s.2.25.3.25h0s.05,0,.07-.03c.02-.04.02-.09,0-.12h-.03ZM61.17,22.79s.09.13,0,.19c0,0-.08.07-.19-.12,0,0-.11-.23-.09-.28,0,0,.09.29.18.31,0,0,.09.05.1-.1"/>
  <path class="cls-1" d="M61.07,22.87c-.06-.01-.13-.19-.16-.31v-.04s-.03.04-.03.04c0,.1.04.21.08.3.17.26.34.11.22-.09l-.03-.04v.05s-.01.07-.03.09h-.05ZM61.15,22.79s.07.12,0,.17h-.03s-.08-.03-.14-.12c-.04-.09-.07-.18-.09-.27h-.03s.09.3.19.32h0s.05.01.07,0c.03,0,.05-.05.05-.12v.02ZM62.39,18.92l.07.15c.17-.04.35.03.45.17-.09-.2-.3-.33-.52-.32M61.05,20.66l.07.15c.17-.03.34.04.44.19-.09-.2-.28-.33-.5-.34M60.58,21.27l.09.22c.25-.04.49.06.63.27-.12-.3-.41-.5-.74-.49M57.86,30.38l.16.05c.09-.15.25-.23.42-.22-.21-.06-.44,0-.58.17M58.53,33.61l.16.05c.08-.15.25-.24.42-.22-.21-.06-.44,0-.58.17M59.73,36.7l.21.06c.11-.2.33-.32.56-.29-.28-.08-.58.01-.77.23M58.99,28.81l.16.13c.17-.13.39-.15.58-.05-.21-.17-.5-.2-.74-.07M64.19,15.53l.07.1-.38,1.35-.06-.1"/>
  <path class="cls-1" d="M63.87,17.02s.42-1.49.4-1.39l-.09-.14-.39,1.39.08.14h0ZM64.17,15.53l.07.1h0l-.39,1.35h.03l-.06-.1h0s.38-1.34.38-1.34h-.03,0ZM63.47,16.27l.09.12-.3,1.69-.08-.11"/>
  <path class="cls-1" d="M63.27,18.12s.32-1.86.31-1.74l-.12-.16-.3,1.74.11.15ZM63.45,16.29l.09.12v-.02l-.29,1.69h.03s-.08-.12-.08-.12h0s.28-1.68.28-1.68h-.04ZM62.46,18.55l.09.09.25-1.47-.09-.1"/>
  <path class="cls-1" d="M62.44,18.56l.08.09.03.03.26-1.52-.12-.13-.23,1.53h0ZM62.68,17.08l.09.1h0s-.23,1.46-.23,1.46h.03l-.09-.09h0s.23-1.46.23-1.46h-.04ZM61.84,19.68l.09.1.11-1.73-.11-.1"/>
  <path class="cls-1" d="M61.95,18l.07.07-.1,1.67-.06-.06.09-1.67ZM61.82,19.69l.13.14.11-1.77h0l-.14-.14-.09,1.78h0ZM60.38,21.69l.08.08.16-1.35-.09-.09"/>
  <path class="cls-1" d="M60.54,20.37l.06.06-.15,1.31-.05-.05.15-1.31h0ZM60.36,21.7h0l.08.09.03.03.16-1.41c-.16-.16-.11-.1-.12-.11l-.15,1.41ZM57.83,27.47h.12l.78,1.12h-.11"/>
  <path class="cls-1" d="M58.77,28.62l-.81-1.15h-.16l.82,1.15c.05,0,.11,0,.16,0h0ZM57.83,27.49h.13-.01l.79,1.12v-.02s-.1,0-.1,0h.01l-.79-1.11-.02.02h0ZM57.91,28.19h.12l.78,1.12h-.11"/>
  <path class="cls-1" d="M58.85,29.32l-.81-1.16h-.16l.82,1.15h.16s0,0,0,0ZM57.91,28.2h.12-.01l.79,1.12v-.03s-.1-.01-.1-.01h.01l-.79-1.11v.03s-.01,0-.01,0ZM58.22,32.72l.11-.05,1.19.67-.11.04"/>
  <path class="cls-1" d="M59.57,33.34l-1.23-.69-.12.05h-.03s1.23.69,1.23.69l.15-.05h0ZM58.23,32.73l.11-.05h-.02l1.19.67v-.03l-.11.04h.01l-1.2-.66v.03h0ZM58.7,34.47l.79.28.06-.03-.78-.28"/>
  <path class="cls-1" d="M58.77,34.45l.75.28-.04.02-.76-.27.05-.03ZM58.75,34.42l-.07.04h-.02s.81.31.81.31l.08-.05-.81-.3ZM61.01,28.99h.07l.47.73h-.07"/>
  <path class="cls-1" d="M61.57,29.74l-.48-.75h-.09l.49.75s.11,0,.09,0M61.01,28.99h.07l.47.73v-.02h-.07l-.47-.73h0ZM57.95,25.75h.08l.6.96h-.07"/>
  <path class="cls-1" d="M58.66,26.73l-.62-.98h-.11l.62.98h.1ZM57.96,25.77h.08l.6.96v-.03h-.08l-.6-.96v.03h0ZM58.19,25.8h.08l.58.87h-.07"/>
  <path class="cls-1" d="M58.79,26.68h.09l-.59-.89h-.11l.61.9h0ZM58.2,25.81h.08l.58.87v-.03h-.07l-.57-.86v.02h-.02ZM62.64,21.89s.07-.03.11-.03c.08,0,.07.08.08.09s-.11-.02-.11.02c0,0-.02.01.03.09.07.09.14.18.22.27v.06c-.1-.05-.2-.08-.31-.1,0,0-.04-.01-.03.03l-.02.03h-.11s-.04-.07-.05-.11c0,0,0-.07.11-.05.08,0,.16.02.23.06,0,0,.03.02.01,0-.07-.07-.13-.15-.19-.23,0,0-.05-.11,0-.12"/>
  <path class="cls-1" d="M62.63,22.01c.06.08.12.16.19.23h0c-.08-.04-.17-.07-.27-.07-.04,0-.07,0-.1.03l-.03.05s.02.09.04.12h.13l.02-.03h0v-.02h.06c.1.02.2.05.3.1h.02s0-.11,0-.09h0c-.09-.09-.21-.27-.21-.27-.03-.05-.03-.07-.03-.07h0s.06-.01.09-.01h.03v-.03c-.01-.1-.09-.1-.11-.1-.04,0-.08.01-.12.04h-.02c-.03.05,0,.12,0,.14v-.03ZM62.65,21.9h0s.06-.03.1-.03c.05,0,.05.03.06.06v.02-.02s-.07-.01-.1.01v.03h0s-.02.02.03.09c0,0,.13.18.22.27h0v.04h.02c-.1-.06-.2-.1-.31-.12h-.04v.05h0s-.02.02-.02.02h.01-.11.01s-.04-.07-.04-.11v-.03c.12-.03.24,0,.33.05h.04v-.03c-.07-.07-.13-.15-.19-.23-.01-.03-.02-.06-.01-.09h0ZM58.48,29.97s.01-.08.04-.11c.05-.07.11,0,.12,0s-.08.08-.05.11c0,0,0,.03.09.03,0,0,.23,0,.37-.03l.05.03c-.1.06-.19.13-.28.2,0,0-.03.03.01.05l.02.03-.06.1s-.09-.01-.13-.03c0,0-.05-.04.02-.13.05-.07.12-.13.2-.18,0,0,.03-.02,0-.02-.11.01-.22.02-.32.02,0,.01-.11-.02-.09-.05"/>
  <path class="cls-1" d="M58.57,30.05c.07,0,.32-.02.33-.02h0c-.09.03-.16.09-.21.17-.08.09-.06.18.13.18l.07-.11h0l-.02-.03h-.01c.08-.09.17-.16.27-.21h.02s-.08-.07-.08-.07h0c-.13.02-.36.03-.37.03-.07,0-.08-.02-.08-.02h0l.05-.08.02-.02h-.03s-.1-.03-.13.01h0s-.04.08-.04.13v.03s.11.03.13.04l-.04-.03ZM58.49,29.96s0-.03.04-.1.06-.03.09-.01h.02v-.03s-.08.07-.07.11l.02.03h0s0,.04.11.05c.12,0,.25-.01.37-.03h0l.05.03v-.03c-.1.06-.2.13-.28.21l-.02.04.03.04h0l.02.04h0s-.06.08-.06.08h.01s-.08,0-.12-.03v-.03c-.01-.07.14-.23.22-.26l.03-.03-.03-.02c-.11.02-.22.02-.32.02-.03,0-.06-.02-.09-.04v-.02l-.02-.02ZM60.71,36.01s-.01-.03.01-.09c.01-.03.05-.05.08-.04,0,0,0,0,.01,0,0,0-.05.08-.01.09s0,.02.08,0c0,0,.18-.05.28-.09l.05.02c-.07.06-.13.13-.17.21,0,0-.03.03.02.03l.02.03-.03.09s-.07,0-.11,0c0,0-.05-.02,0-.1.03-.07.07-.12.12-.17,0,0,.03-.02,0,0-.08.03-.16.05-.23.07-.01,0-.11-.01-.1-.05"/>
  <path class="cls-1" d="M60.8,36.05c.09-.02.17-.04.25-.07h0c-.06.05-.17.2-.15.27l.03.03s.08,0,.11,0h0l.03-.1h0l-.02-.03h-.01c.05-.07.11-.14.17-.2h.01-.01l-.04-.02h-.01c-.1.04-.27.08-.28.09-.02,0-.05,0-.07,0h0l.03-.07v-.02s-.04,0-.04,0c-.04-.01-.08-.02-.11.04-.01.03-.02.07-.01.1h0v.02s.07.02.1.02v-.06ZM60.73,36.01h0s0-.06.01-.09c0-.04.04-.03.07-.03h.01v-.02s-.05.07-.04.09l.02.02h0c.02.06.32-.05.37-.07h0l.05.02v-.02c-.07.06-.13.13-.18.2v.03l.03.02h0l.02.03h0l-.03.08h0s-.07.01-.1,0v-.02c-.03-.05.07-.2.12-.23v-.03s-.02,0-.02,0c-.08.03-.16.05-.23.07-.04,0-.07,0-.07-.01h0s-.03-.05-.03-.05ZM60.94,29.52s-.28-.16-.22.06c.01.03.09.23.29.23.08,0,.12-.11.12-.11l.08.11h.09l-.25-.47-.13-.05.1.21c.02.07-.02.14-.08.17-.02,0-.04,0-.08-.07s.08-.11.08-.11M60.35,22.79s-.08-.09.03-.12c.01,0-.05.15.04.2s.56.23.65.28c-.16-.15-.37-.25-.59-.28,0,0-.07-.03.03-.23-.04-.1-.1-.09-.08-.09-.19.04-.19.09-.19.11-.02.11.12.15.12.15M61.27,25.43s-.03-.03-.05-.05c-.08-.05-.1,0-.1.01-.02.07.14.22.16.23.04.04.11.04.15,0,0,0,0,0,0,0h0s.03-.04.04-.07l.21.14s.11.07.19-.07c.06-.16.01-.35-.11-.47.02.16.02.31-.01.47,0,.01-.02.06-.1,0-.11-.11-.21-.22-.3-.35h-.1l.1.13s.02.16-.05.15l-.07-.07s.03-.07.03-.07M61.2,32.65s-.04-.03-.05-.04c-.09-.04-.1.03-.1.03,0,.07.18.19.2.2.04.04.11.04.15,0v-.02s.02-.05.03-.07l.23.1s.12.05.19-.11c.03-.17-.05-.34-.19-.44.05.15.07.3.07.46,0,.01,0,.07-.09.03-.13-.09-.24-.18-.36-.28h-.1l.12.11s.05.15-.03.16c-.03-.01-.05-.03-.07-.05-.05-.02,0-.07,0-.07M58.94,23.55s-.03-.03-.05-.05c-.09-.05-.11,0-.1.01-.02.07.15.22.16.23.04.04.11.04.15,0h0l.04-.07.21.14c.07.04.15.02.19-.05,0,0,0,0,0,0,0,0,0,0,0-.01.06-.16.01-.35-.11-.47.02.16.02.31-.01.47-.06.15-.35-.28-.4-.33h-.1l.1.13s.02.16-.05.15l-.07-.07c-.05-.04.01-.08.02-.08M59.86,26.26l.23.15c.1-.08.22-.12.35-.12,0,0,.51.78-.41.88-.8.09-1.64-.28-2.29.04.17.13.19.15.19.15.38-.27,1.1-.04,2.27-.04.26.05.52-.1.6-.35,0,0,.16-.64-.34-.82-.19-.08-.42-.05-.58.09"/>
  <path class="cls-1" d="M63.49,19.99c0-.13.04-.26.12-.37-.06-.06-.12-.12-.17-.19.08-.19.23-.26.61-.52-.26,1.06-.56,1.07-.56,1.07M63.29,20.06c-.08.02-.17.05-.25.09l.25-.28v.19h0ZM62.38,21.29c-.08-.02-.15-.06-.21-.11,0,0,.29.42.03.54-1,.42-1.76.29-2.54.59-.1-.52,1.04-2.39,1.04-2.39,0,0,.07.13.11.14.61.25,1.21.54,1.78.87.08.05.2.39-.21.37M61.2,19.17s.13-.2.14-.04c-.02.32,0,.65.05.96-.05-.04-.65-.23-.65-.23l.47-.7h0ZM60.22,25.78c-.11-.12.06-.19.06-.19,0,.07-.02.13-.06.19M66.15,17.45c-.05-.07-.08-.13-.28-.15-.16.03-.16.21-.45.31-.25.03-.23-.18-.23-.18,0,0,0-.11.01-.28s.32-.08.32-.08c0,0,.4.03.5-.18.05-.09.1-.19.13-.29,0,0,.05-.28-.54-.42.04.09.09.18.14.27,0,0,.12-.02.17.03s-.11.28-.11.28c-.14.12-.34.16-.52.09-.27-.12-.36.35-.28.62s.38.47.57.36.42-.37.44-.29c-.02.49-.21.96-.54,1.33-.32.32-.84.33-1.17.01.08-.19.18-.36.32-.52l-.13-.21c-.33.36-.71.65-1.13.89-.38.28-.07.51-.07.51-.31.27-.56.6-.73.96.05.07.1.13.16.18.14-.13.3-.24.48-.32-.03.1-.06.19-.1.28-.19.32-.58.1-.58.1,0,0-.91-.5-1.08-.6.02-.35,0-.7-.04-1.05-.15-.45-.32-.17-.32-.17,0,0-1.73,2.45-1.53,3.41.12.17.07.16.22.2.58-.18,1.19-.24,1.8-.18l-.08.32.17.15.08-.07c-.08.42-.04.86.13,1.26.11.4-.41.18-.45.13-.03-.1-.08-.19-.14-.28.15-.02.25-.15.23-.3,0-.03-.02-.07-.03-.1-.13-.13-.32-.18-.49-.13.03.06.07.11.11.16.07-.01.14-.01.21,0,0,.08-.05.15-.11.2l-.23-.08c.11.14.2.3.26.47.04.15-.05.3-.19.35-.06-.04-.12-.08-.19-.11.43.57.05.7.05.7-.18.07-.38.05-.54-.07-.08-.44-.26-.59-.32-.99-.05-.05-.23-.01-.23-.01,0,0,.15.47.28.77.12.47-.39.64-.52.64s-.09-.19-.09-.19c.09-.31-.04-.64-.31-.81-.37-.21-.7,0-.59,0s.46.1.56.13c.1.05.16.17.14.28.01.17-.17.52.22.7s.73-.23.73-.23v.1s-.61.23-.11.57c.46.23.37-.42.37-.42,0,0,.37-.35,1.05,1.95,0-.17-.03-.7-.03-.74-.5-1.48-1.06-1.39-1.06-1.39,0,0-.03-.14-.03-.22.77.32.88-.17.88-.17.02-.12-.02-.24-.1-.34.16-.04.28-.17.29-.34l.36.13s.38.1.2-.54c-.28-1.02.16-1.43.16-1.43l-.16-.16-.26.15s.05-.11-.13-.23c.22-.03.43-.1.64-.19.17-.08.25-.27.18-.45-.01-.02-.03-.05-.04-.07.07.06.66.02.39-.44.24.05.47-.09.53-.32.06-.14.11-.29.13-.44.8-.26.58-.87.81-1.31.25.27.63.4,1,.34.25-.11.46-.3.6-.54,0,0,.49-1.02.27-1.28M59.55,27.96c-.18-.11.05-.23.05-.23,0,0,.04.19-.05.23M60.23,28.52c.52-.36.07-.96.07-.96-.36-.2-.81-.11-1.06.22-.14.27.3.34.3.34,0,0,.32.09.31-.31.06-.3.25-.21.28-.14.28.59-.03.75-.13.76s-.28.02-.28.02c.15.03.29.1.4.21.38.47-.06.56-.15.59-.75.08-1.5.21-2.24.38-.04.23.28.18.28.18,0,0-.03-.08.01-.1.11-.05,1.88-.26,2.06-.31s.77-.32.14-.88M60.8,32.47s-.19-.2-.19-.2h.31c0,.08-.04.16-.12.2M60.52,30.31c.64-.56,0-.84-.18-.76-.16.06-.31.13-.45.22l.26.11c.06-.09.16-.14.27-.15.27.2.02.4-.08.45-.56.23-2.19.49-2.43.66.28.13.23.1.23.1,0,0,2.2-.54,2.33-.51,1.36,1.11.63,1.58.63,1.58-.13-.19-.29-.36-.47-.5.32.02.47-.83-.23-.68-.89.22-1.71.47-1.71.47l.08-.18-.72.33.22.16s1.92-.57,2.13-.64.42.29.11.4c-.09.01-.18,0-.27-.04,0,0,.64.64.62.8-.12.02-.24.03-.36.03l-.54-.42h-.35c.35.18.63.46.83.8,0,.14-.08.28-.2.36,0,0-.19.12-.27-.17-.1-.36-.47-.57-.83-.47-.06.02-.11.04-.16.07,0,0-.47.17-.47.26s.7-.23.89-.21c.32.03.23.4.47.6.28.29.75-.13.77-.16-.19.77-1.69.73-1.96,1.32.06.09.17.12.27.08.51-.73,1.08-.36,1.81-1.1.12-.14.15-.33.1-.5,0,0,.41-.16.27-.45.22.03,1-1-.63-1.84M60.96,34.68c-.14.04-.12-.13-.12-.13,0,0,.22.09.12.13M60.1,34.67s.11.1.11.15c-.15,0-.11-.15-.11-.15M62.51,34.77c-1.36-1.17-1.7-.53-1.7-.53-.1-.09-.24-.14-.38-.13-.52.21-.58.54-.58.54,0,0-.01.53.47.32.34-.15,0-.43-.05-.53s.05-.15.11-.16.31.13.31.13c0,0-.15.25.03.4.51.19.52-.26.44-.28-.08-.1-.02-.05-.19-.19.08-.14,1.58.28,1.41.98-.04.12-.17.23-.79.33.82.11,1.24-.5.94-.87"/>
  <polygon class="cls-1" points="73.63 8.81 73.47 7.78 73.72 8.02 73.47 7.11 73.72 7.27 73.9 6.18 74.09 7.29 74.33 7.17 74.06 8.01 74.33 7.82 74.18 8.81 73.9 9.9 73.63 8.81"/>
</svg>