<?xml version="1.0" encoding="UTF-8"?>
<svg id="Layer_1" data-name="Layer 1" xmlns="http://www.w3.org/2000/svg" viewBox="0 0 90 45">
  <defs>
    <style>
      .cls-1, .cls-2 {
        fill: #fff;
      }

      .cls-2 {
        fill-rule: evenodd;
      }
    </style>
  </defs>
  <path class="cls-2" d="M51.35,37.73c-.73-.69-.97-.56-1.44-2.01-.23-.7-.66-1.55-1.39-1.8-1.26-.43-2.59.52-3.45,1.36-.92.89-1.32,1.92-3.7,3.52-.67.45-1.48.75-2.26.9-.99.18-1.82-.11-2.79-.19-1.84-.16-3.27.55-3.27,1.65,0,1.1,2.8,2.99,5.17,3.42,3.02.55,5.45.39,7.06-.09,2.91-.89,4.51-2,5.86-3.36.9-.9,1.4-2.28.23-3.39"/>
  <path class="cls-2" d="M42.12,40.75c-.62.25-1.64.28-1.72-.09-.06-.26.46-.14,1.04-.46.76-.43.99-.66,1.2-.45.26.25.26.68-.52,1M46.49,37.84c-2.07,1.59-2.97,2.28-3.24,1.56-.15-.39.5-.64,1.07-1.19.72-.7,1.57-1.79,2.37-2.43.92-.74,1.51-.54,1.7-.09.3.66-.75,1.27-1.89,2.15"/>
  <path class="cls-1" d="M52.23,33.99c.03-.34-.1-.59-.24-.81-.32-.47-.5-.74-.45-1.18.07-.65.63-1.09,1.32-1.02.78.08,1.45.75,1.31,2.02-.2,1.92-2.07,3.36-2.7,3.29-.26-.03-.42-.25-.39-.5.02-.18.09-.28.25-.43.51-.51.86-.9.91-1.37"/>
  <path class="cls-1" d="M56.99,39.57l-.86-.4c-.6-.26-1.36-.58-1.36-1.44,0-.45.32-1.03,1.03-1.03s1,.51,1.17.84c.19.32.41.71.94.71.48,0,.82-.36.82-.84,0-.69-.77-1.84-2.85-1.84-2.18,0-2.99,1.3-2.99,2.52,0,1.6,1.37,2.27,1.89,2.51.43.21,1.43.65,1.71.88.23.19.56.47.56,1.05,0,.64-.46,1.07-1.08,1.07-.69,0-.99-.45-1.41-1.03-.24-.33-.48-.67-.96-.67s-.87.41-.87.92c0,.69.82,2.08,3.19,2.08,2.56,0,3.09-1.74,3.09-2.69,0-1.65-1.24-2.27-2.03-2.64"/>
  <path class="cls-1" d="M60.77,44.25c0,.41-.31.74-.73.75-.42,0-.76-.31-.77-.72,0-.41.32-.74.74-.75.42,0,.75.31.76.71M59.46,44.28c0,.32.26.57.58.57.32,0,.55-.27.54-.59,0-.33-.25-.58-.58-.57-.31,0-.55.27-.54.59M59.91,44.65h-.16s-.02-.72-.02-.72c.07-.01.16-.03.28-.03.14,0,.2.02.25.05.04.03.07.08.08.15,0,.09-.06.15-.15.18h0c.07.03.11.09.13.18.02.11.04.15.05.18h-.18s-.04-.08-.06-.18c-.01-.08-.06-.11-.15-.11h-.08s0,.29,0,.29ZM59.91,44.24h.08c.09,0,.17-.04.17-.11,0-.07-.05-.11-.16-.11-.04,0-.08,0-.09.01v.21Z"/>
  <path class="cls-1" d="M25.54,17.62c-1.47,0-2.52,1.72-2.52,3.9,0,2.57,1.27,4.78,3.23,4.78,1.45,0,2.13-1.08,2.48-1.65.3-.44.44-.68.79-.68.37,0,.63.32.63.86,0,1.42-1.32,4.21-4.61,4.21-3.45,0-5.12-3.14-5.12-6.59s1.54-6.74,5.51-6.74c2.82,0,4.15,2.01,4.15,3.19,0,.88-.67,1.4-1.33,1.4-.35,0-.88-.17-1.2-.88-.4-.83-.83-1.79-2.01-1.79"/>
  <path class="cls-1" d="M35.1,18.75c.21-.27.74-.95,1.48-.95.69,0,1.22.34,1.53.86.32.51.32,1.08.32,1.74v6.5c.03,1.22.95,2.08,2.42,2.08h.16c.43,0,.51-.12.51-.58v-8.61c0-.69-.02-1.71-.69-2.69-.88-1.32-2.2-1.42-2.91-1.42-1.93,0-2.45.93-2.82,1.4v-5.05c-.04-1.2-.95-2.05-2.42-2.05h-.13c-.43,0-.51.19-.51.59v16.36c.04,1.2.95,2.06,2.41,2.06h.13c.44,0,.51-.19.51-.58v-9.63Z"/>
  <path class="cls-1" d="M60.69,12.79c.05-.42-.12-.72-.3-.99-.39-.57-.61-.89-.55-1.44.08-.79.77-1.33,1.61-1.24.94.1,1.76.91,1.6,2.45-.24,2.33-2.51,4.08-3.28,4-.32-.03-.51-.31-.48-.6.02-.22.11-.34.3-.52.62-.61,1.04-1.09,1.1-1.67"/>
  <path class="cls-1" d="M70.28,28.17c0,.41-.31.74-.73.75-.42,0-.76-.31-.77-.72,0-.41.32-.74.74-.75.41,0,.75.31.76.71M68.97,28.2c0,.32.26.57.58.57.31,0,.55-.27.54-.59,0-.33-.25-.58-.58-.57-.32,0-.55.27-.54.59M69.42,28.57h-.16s-.02-.72-.02-.72c.07-.01.16-.03.28-.03.14,0,.2.02.25.05.04.03.08.08.08.15,0,.09-.06.15-.15.18h0c.07.03.11.09.13.18.02.11.04.15.05.18h-.18s-.04-.08-.06-.18c-.01-.08-.06-.11-.15-.11h-.08s0,.29,0,.29ZM69.42,28.16h.08c.09,0,.17-.04.17-.11,0-.07-.05-.11-.16-.11-.04,0-.08,0-.09.01v.21Z"/>
  <path class="cls-1" d="M54.94,26.88c.02,1.22.94,2.09,2.41,2.09h.14c.48,0,.53-.15.53-.54v-11.91c-.03-.42-.08-.54-.54-.54h-2.08c-.41,0-.46.17-.46.51v10.38Z"/>
  <path class="cls-1" d="M56.45,11.15c-1.13,0-1.74.72-1.74,1.62s.66,1.54,1.74,1.54c1,0,1.69-.67,1.67-1.62-.03-.82-.56-1.54-1.67-1.54"/>
  <path class="cls-1" d="M66.13,21.37l-1.22-.56c-.86-.37-1.93-.83-1.93-2.06,0-.64.46-1.47,1.46-1.47s1.42.73,1.66,1.2c.27.46.59,1,1.35,1,.68,0,1.17-.52,1.17-1.2,0-.98-1.1-2.62-4.06-2.62-3.11,0-4.25,1.86-4.25,3.6,0,2.27,1.96,3.23,2.69,3.57.61.29,2.04.92,2.44,1.26.33.28.79.68.79,1.51,0,.9-.66,1.52-1.54,1.52-.98,0-1.42-.63-2-1.47-.34-.46-.68-.95-1.37-.95s-1.25.59-1.25,1.32c0,.98,1.18,2.96,4.55,2.96,3.64,0,4.4-2.47,4.4-3.84,0-2.35-1.76-3.23-2.88-3.77"/>
  <path class="cls-1" d="M43.94,26.88c.02,1.22.95,2.09,2.42,2.09h.13c.48,0,.53-.15.53-.54v-11.91c-.03-.42-.08-.54-.54-.54h-2.07c-.42,0-.47.17-.47.51v10.38Z"/>
  <path class="cls-1" d="M45.52,11.15c-1.13,0-1.75.72-1.75,1.62s.67,1.54,1.75,1.54c1,0,1.69-.67,1.67-1.62-.03-.82-.57-1.54-1.67-1.54"/>
  <path class="cls-1" d="M52.51,12.05c-.02-1.22-.94-2.09-2.41-2.09h-.13c-.48,0-.53.15-.53.53v16.38c.02,1.22.94,2.09,2.42,2.09h.13c.48,0,.52-.15.52-.54V12.05Z"/>
  <path class="cls-1" d="M45,0C28.19,0,14.51,9.82,14.51,21.89c0,7.32,5.5,15.96,16.04,19.27.49.15,1.11-.12,1.34-.8.27-.83,0-1.15-.3-1.31-8.54-2.57-14.76-10.84-14.76-17.16,0-10.79,12.64-19.57,28.18-19.57s28.18,8.78,28.18,19.57c0,7.06-5.18,13.13-13.01,16.49-.53.23-.5.88-.29,1.44.21.54.76.77,1.16.65,8.64-3.87,14.45-10.83,14.45-18.57C75.49,9.82,61.81,0,45,0"/>
</svg>