<?xml version="1.0" encoding="UTF-8"?>
<svg id="Layer_1" data-name="Layer 1" xmlns="http://www.w3.org/2000/svg" viewBox="0 0 90 45">
  <defs>
    <style>
      .cls-1 {
        fill: #fff;
      }
    </style>
  </defs>
  <path class="cls-1" d="M44.1,45c-.65-.07-1.29-.13-1.93-.21-3.65-.46-6.99-1.76-10.01-3.86-3.24-2.26-5.77-5.15-7.41-8.75-.65-1.44-1.64-2.09-3.15-2.14-.62-.02-1.24-.13-1.88-.21v-.73c.12,0,.24-.02.37-.02,1.79,0,3.58,0,5.37,0,.28,0,.38.1.48.35,2.43,6.43,6.95,10.69,13.53,12.59,10.24,2.95,20.95-2.5,24.6-12.48.12-.33.26-.44.61-.43,1.73.02,3.46,0,5.18,0,.15,0,.29,0,.46,0,.01.12.02.2.03.29.05.34-.06.48-.43.51-.76.05-1.52.18-2.27.26-.99.11-1.65.63-2.06,1.53-.69,1.5-1.5,2.94-2.52,4.26-3.71,4.83-8.58,7.76-14.59,8.75-.71.12-1.44.16-2.16.23-.11.01-.22.04-.33.06h-1.88Z"/>
  <path class="cls-1" d="M46.28,0c.77.1,1.54.17,2.3.3,6.22,1.07,11.2,4.16,14.86,9.29.8,1.12,1.44,2.37,2.07,3.6.49.97,1.19,1.54,2.28,1.63.83.07,1.66.2,2.52.3v.71c-.09,0-.2.02-.31.02-1.82,0-3.63,0-5.45,0-.26,0-.36-.09-.45-.32-2.67-6.97-7.66-11.37-14.94-12.94-10.01-2.15-19.8,3.49-23.18,12.81-.14.37-.31.48-.69.47-1.7-.02-3.4,0-5.11,0h-.47v-.73c.76-.09,1.53-.18,2.3-.27.21-.03.42-.05.63-.09.84-.15,1.4-.65,1.78-1.4.53-1.03,1.04-2.09,1.67-3.06C29.57,5.03,34.44,1.74,40.65.45c.94-.19,1.91-.26,2.86-.39.1-.01.19-.04.29-.06.83,0,1.65,0,2.48,0Z"/>
  <path class="cls-1" d="M71.89,25.62s-.03,0-.04,0c-.57,0-1.22.14-1.71-.07-.49-.21-.83-.78-1.24-1.18-1.13-1.1-2.26-2.2-3.38-3.28v4.49h-1.4v-6.22c.57,0,1.13-.01,1.69.01.11,0,.23.14.32.23,1.34,1.35,2.68,2.7,4.01,4.06.09.1.15.23.22.35.05-.03.09-.06.14-.09v-4.54h1.38v6.24Z"/>
  <path class="cls-1" d="M18.11,19.38c.55,0,1.1-.03,1.65-.01.12,0,.27.12.37.22,1.33,1.34,2.66,2.68,3.99,4.03.1.11.19.23.28.35.03-.02.07-.03.1-.05v-4.53h1.39v6.23c-.56,0-1.09.01-1.63-.01-.11,0-.23-.12-.33-.22-1.36-1.37-2.72-2.74-4.07-4.1-.09-.1-.19-.19-.36-.34v4.68h-1.39v-6.24Z"/>
  <path class="cls-1" d="M50.93,19.4v1.25h-.4c-1.59,0-3.18,0-4.77,0-.14,0-.28,0-.41.02-.31.06-.49.26-.47.58.01.3.18.49.49.52.14.02.27.01.41.01,1.24,0,2.48,0,3.72,0,1.67,0,2.23,1.74,1.62,2.85-.34.61-.87.92-1.57.93-1.09.01-2.18.01-3.27.01-.86,0-1.72,0-2.61,0v-1.27c.14,0,.28-.02.42-.02,1.64,0,3.28,0,4.92,0,.16,0,.33,0,.49-.03.27-.06.43-.25.45-.53.02-.29-.09-.52-.38-.61-.15-.05-.32-.06-.48-.06-1.28,0-2.55.01-3.83-.01-1.35-.03-2.19-1.41-1.6-2.64.31-.65.86-1,1.56-1.01,1.89-.03,3.77,0,5.7,0Z"/>
  <path class="cls-1" d="M40.49,19.4v1.25h-.4c-1.6,0-3.2,0-4.8,0-.14,0-.28,0-.41.02-.29.07-.44.28-.43.58.01.28.17.47.46.51.13.02.27.02.41.02,1.25,0,2.5-.01,3.75,0,1.33.03,2.15,1.19,1.77,2.47-.24.81-.86,1.28-1.77,1.3-1.45.02-2.9.01-4.35.02-.49,0-.97,0-1.48,0v-1.29c.14,0,.29,0,.43,0,1.69,0,3.38,0,5.07,0,.47,0,.72-.16.77-.49.08-.44-.2-.74-.71-.74-1.18,0-2.35,0-3.53,0-.19,0-.38,0-.56-.01-.92-.07-1.6-.77-1.65-1.69-.05-.98.53-1.75,1.47-1.92.17-.03.35-.05.52-.05,1.74,0,3.48,0,5.22,0,.06,0,.12,0,.22.01Z"/>
  <path class="cls-1" d="M62.27,25.61c-.21,0-.35-.02-.48,0-.83.14-1.45-.09-1.76-.93-.04-.09-.23-.18-.35-.19-1.35-.01-2.7-.02-4.06,0-.14,0-.35.12-.4.24-.3.78-.86,1.01-1.64.88-.17-.03-.34,0-.57,0,.07-.14.11-.23.17-.32,1.17-1.88,2.35-3.75,3.51-5.64.14-.22.29-.27.53-.31.87-.15,1.36.22,1.79.98.94,1.66,2.01,3.26,3.02,4.88.07.11.13.23.23.41ZM59.19,23.29c-.53-.86-1.03-1.66-1.54-2.5-.52.84-1.03,1.65-1.56,2.5h3.1Z"/>
  <path class="cls-1" d="M30.32,25.6h-1.34v-6.21h1.34v6.21Z"/>
</svg>