<?xml version="1.0" encoding="UTF-8"?>
<svg id="Layer_1" data-name="Layer 1" xmlns="http://www.w3.org/2000/svg" viewBox="0 0 90 45">
  <defs>
    <style>
      .cls-1 {
        fill: #fff;
      }
    </style>
  </defs>
  <path class="cls-1" d="M42.92,27c-.95,0-1.87-.48-2.39-1.33l-2.41-3.96c-.29-.48-.14-1.11.34-1.4.48-.29,1.11-.14,1.4.34l2.41,3.96c.2.33.63.45.98.28l9.03-4.59c.5-.25,1.12-.05,1.37.45.26.5.05,1.12-.45,1.37l-9.03,4.59c-.4.2-.83.3-1.25.3"/>
  <path class="cls-1" d="M58.59,15.08c-.39-.54-.99-.9-1.65-.99l-2.41-.33c-.18-.02-.34-.11-.45-.25l-4.17-4.97c-.44-.52-1.05-.86-1.72-.96l-2.94-.42c-.12-.02-.23-.06-.32-.13l-3.78-2.76c-.29-.21-.62-.36-.97-.45l-2.73-.67c-1.03-.25-2.14.12-2.81.95l-2.92,3.62c-.73.9-.81,2.17-.21,3.16l4.64,7.61c.18.3.5.48.83.49.01,0,3,0,3,0,.48,0,.89-.33,1-.8l.66-3.04,1.67,5.6c.13.42.51.72.95.73,0,0,.02,0,.03,0,.43,0,.81-.27.96-.67l1.13-3.12.15.51c.13.43.53.72.98.72h3.38c.56,0,1.02-.46,1.02-1.02s-.46-1.02-1.02-1.02h-2.62l-.82-2.73c-.13-.42-.51-.71-.95-.72-.44,0-.84.26-.99.67l-1.12,3.1-1.91-6.42c-.13-.45-.55-.74-1.02-.73-.46.02-.86.35-.96.8l-1.33,6.11h-1.57l-4.34-7.12c-.16-.26-.14-.59.05-.82l2.92-3.63c.17-.22.46-.31.73-.25l2.73.67c.09.02.18.06.25.12l3.78,2.76c.36.27.79.44,1.24.5l2.94.42c.18.03.34.11.45.25l4.17,4.97c.44.52,1.06.86,1.73.96l2.41.33c.15.02.24.11.28.17.04.05.1.16.07.32l-.25,1.38s-.03.07-.07.09l-1.31.66c-.5.25-.7.87-.45,1.37.18.35.54.56.91.56.15,0,.31-.03.46-.11l1.31-.66c.6-.3,1.03-.88,1.15-1.54l.25-1.38c.12-.65-.03-1.34-.42-1.88"/>
  <path class="cls-1" d="M.01,39.96h.32l.05.44c.21.06.48.09.7.09.55,0,.87-.22.87-.72s-.28-.61-.82-.78c-.56-.18-1.1-.38-1.1-1.1s.5-1.05,1.28-1.05c.34,0,.7.07.96.15v.72h-.33l-.05-.45c-.15-.03-.4-.07-.6-.07-.54,0-.81.25-.81.67,0,.46.32.58.81.75.57.19,1.11.38,1.11,1.13,0,.68-.44,1.09-1.32,1.09-.38,0-.81-.08-1.09-.17v-.71Z"/>
  <path class="cls-1" d="M4.43,40.57c-.22.15-.47.28-.79.28-.48,0-.82-.27-.82-.78,0-.61.45-.8,1.04-.8.18,0,.41.02.53.03v-.3c0-.37-.1-.56-.6-.56-.23,0-.48.04-.71.09l-.05-.32c.27-.06.53-.1.81-.1.67,0,.95.22.95.84v1.55l.29.05v.25h-.62l-.04-.22ZM4.39,39.58c-.11-.01-.34-.02-.48-.02-.48,0-.68.14-.68.49,0,.3.18.49.5.49.23,0,.45-.09.65-.22v-.73Z"/>
  <path class="cls-1" d="M5.67,38.46l-.29-.05v-.25h.7v1.76c0,.32.07.6.45.6.22,0,.48-.1.75-.25v-1.82l-.29-.05v-.25h.7v2.33l.3.05v.25h-.64l-.04-.22c-.29.16-.58.28-.91.28-.57,0-.74-.36-.74-.88v-1.5Z"/>
  <path class="cls-1" d="M10.15,40.59c-.25.15-.51.25-.81.25-.77,0-.9-.7-.9-1.32,0-.76.19-1.41.98-1.41.22,0,.48.05.69.18v-1.08l-.3-.05v-.25h.71v3.59l.29.05v.25h-.64l-.03-.19ZM10.12,38.57c-.24-.1-.45-.14-.62-.14-.48,0-.63.33-.63,1.06,0,.57.1,1.03.59,1.03.21,0,.44-.08.66-.21v-1.73Z"/>
  <path class="cls-1" d="M11.17,40.54l.29-.05v-2.03l-.29-.05v-.25h.7v2.33l.29.05v.25h-1v-.25ZM11.47,36.91h.41v.62h-.41v-.62Z"/>
  <path class="cls-1" d="M16.46,40.72c-.33.07-.68.13-1.01.13-1.32,0-1.53-.8-1.53-1.96s.23-2.03,1.55-2.03c.35,0,.7.06.99.13l-.02.74h-.32l-.04-.47c-.17-.03-.38-.05-.57-.05-1,0-1.12.59-1.12,1.68,0,.98.1,1.6,1.15,1.6.3,0,.6-.05.88-.1l.07.34Z"/>
  <path class="cls-1" d="M16.98,39.5c0-.88.21-1.39,1.09-1.39s1.09.53,1.09,1.35c0,.88-.21,1.39-1.09,1.39s-1.09-.53-1.09-1.35M18.73,39.47c0-.63-.06-1.04-.67-1.04s-.67.39-.67,1.06c0,.63.06,1.04.67,1.04s.67-.39.67-1.06"/>
  <path class="cls-1" d="M19.64,40.54l.29-.05v-2.03l-.29-.05v-.25h.63l.03.18c.23-.12.5-.23.8-.23s.49.11.59.27c.24-.14.54-.27.88-.27.57,0,.71.37.71.82v1.56l.32.05v.25h-.73v-1.76c0-.34-.06-.6-.43-.6-.22,0-.45.09-.66.19.02.09.03.2.03.3v1.56l.32.05v.25h-.73v-1.76c0-.34-.06-.6-.43-.6-.21,0-.42.08-.62.17v1.88l.29.05v.25h-1v-.25Z"/>
  <path class="cls-1" d="M23.91,40.54l.29-.05v-2.03l-.29-.05v-.25h.63l.03.18c.23-.12.5-.23.8-.23s.49.11.59.27c.24-.14.54-.27.88-.27.57,0,.71.37.71.82v1.56l.32.05v.25h-.73v-1.76c0-.34-.06-.6-.43-.6-.22,0-.45.09-.66.19.02.09.03.2.03.3v1.56l.32.05v.25h-.73v-1.76c0-.34-.06-.6-.43-.6-.21,0-.42.08-.62.17v1.88l.29.05v.25h-1v-.25Z"/>
  <path class="cls-1" d="M28.19,40.54l.29-.05v-2.03l-.29-.05v-.25h.7v2.33l.29.05v.25h-1v-.25ZM28.48,36.91h.41v.62h-.41v-.62Z"/>
  <path class="cls-1" d="M29.65,40.11h.3l.04.37c.15.03.31.06.49.06.4,0,.62-.13.62-.43s-.23-.37-.58-.48c-.45-.13-.88-.26-.88-.77s.42-.75,1-.75c.28,0,.56.05.77.12l-.02.61h-.3l-.03-.38c-.13-.02-.28-.04-.4-.04-.41,0-.6.14-.6.4,0,.28.22.35.6.46.42.12.85.25.85.79,0,.5-.37.77-1.04.77-.31,0-.61-.06-.84-.13l.02-.61Z"/>
  <path class="cls-1" d="M32.04,40.11h.3l.04.37c.15.03.31.06.49.06.4,0,.63-.13.63-.43s-.23-.37-.59-.48c-.45-.13-.88-.26-.88-.77s.42-.75,1-.75c.27,0,.56.05.77.12l-.02.61h-.3l-.03-.38c-.13-.02-.28-.04-.4-.04-.41,0-.6.14-.6.4,0,.28.22.35.6.46.42.12.85.25.85.79,0,.5-.37.77-1.04.77-.31,0-.61-.06-.84-.13l.02-.61Z"/>
  <path class="cls-1" d="M34.31,40.54l.29-.05v-2.03l-.29-.05v-.25h.71v2.33l.29.05v.25h-1v-.25ZM34.61,36.91h.41v.62h-.41v-.62Z"/>
  <path class="cls-1" d="M35.77,39.5c0-.88.21-1.39,1.09-1.39s1.09.53,1.09,1.35c0,.88-.21,1.39-1.09,1.39s-1.09-.53-1.09-1.35M37.53,39.47c0-.63-.06-1.04-.67-1.04s-.67.39-.67,1.06c0,.63.06,1.04.67,1.04s.67-.39.67-1.06"/>
  <path class="cls-1" d="M38.44,40.54l.29-.05v-2.03l-.29-.05v-.25h.63l.04.24c.25-.14.57-.29.93-.29.57,0,.71.37.71.82v1.56l.32.05v.25h-.73v-1.76c0-.34-.06-.6-.43-.6-.26,0-.53.12-.77.24v1.82l.29.05v.25h-1v-.25Z"/>
  <path class="cls-1" d="M42.67,40.54l.29-.05v-2h-.39v-.25l.39-.07v-.58c0-.52.27-.73.8-.73.13,0,.27.01.4.03l-.03.32c-.1-.02-.24-.03-.33-.03-.36,0-.43.16-.43.41v.58h.61v.32h-.61v2l.37.05v.25h-1.08v-.25Z"/>
  <path class="cls-1" d="M44.35,39.5c0-.88.21-1.39,1.09-1.39s1.09.53,1.09,1.35c0,.88-.21,1.39-1.09,1.39s-1.09-.53-1.09-1.35M46.11,39.47c0-.63-.06-1.04-.67-1.04s-.67.39-.67,1.06c0,.63.06,1.04.67,1.04s.67-.39.67-1.06"/>
  <path class="cls-1" d="M47.02,40.54l.29-.05v-2.03l-.29-.05v-.25h.63l.05.36c.26-.27.49-.4.76-.4.06,0,.13,0,.18.02l-.02.37c-.06-.02-.13-.02-.18-.02-.26,0-.5.12-.72.33v1.68l.37.05v.25h-1.08v-.25Z"/>
  <polygon class="cls-1" points="50.21 40.54 50.54 40.49 50.54 37.2 50.21 37.15 50.21 36.91 51.32 36.91 51.32 37.15 50.99 37.2 50.99 38.61 52.8 38.61 52.8 37.2 52.46 37.15 52.46 36.91 53.58 36.91 53.58 37.15 53.25 37.2 53.25 40.49 53.58 40.54 53.58 40.79 52.46 40.79 52.46 40.54 52.8 40.49 52.8 38.96 50.99 38.96 50.99 40.49 51.32 40.54 51.32 40.79 50.21 40.79 50.21 40.54"/>
  <path class="cls-1" d="M56.04,40.71c-.26.07-.58.14-.88.14-.79,0-1.07-.48-1.07-1.32s.2-1.42,1.05-1.42c.73,0,.96.41.96,1.15v.35h-1.6c.01.61.18.92.73.92.23,0,.5-.05.75-.13l.07.31ZM55.7,39.31c0-.53-.06-.88-.57-.88-.44,0-.6.25-.63.88h1.2Z"/>
  <path class="cls-1" d="M58.19,40.57c-.22.15-.47.28-.8.28-.48,0-.82-.27-.82-.78,0-.61.45-.8,1.04-.8.18,0,.41.02.53.03v-.3c0-.37-.1-.56-.6-.56-.23,0-.48.04-.71.09l-.05-.32c.27-.06.53-.1.81-.1.66,0,.95.22.95.84v1.55l.29.05v.25h-.62l-.03-.22ZM58.14,39.58c-.11-.01-.34-.02-.48-.02-.48,0-.68.14-.68.49,0,.3.18.49.5.49.23,0,.45-.09.65-.22v-.73Z"/>
  <polygon class="cls-1" points="59.16 40.54 59.46 40.49 59.46 37.2 59.16 37.15 59.16 36.91 59.87 36.91 59.87 40.49 60.16 40.54 60.16 40.79 59.16 40.79 59.16 40.54"/>
  <path class="cls-1" d="M60.84,38.49h-.39v-.25l.41-.07.09-.69h.3v.69h.68v.32h-.68v1.62c0,.26.09.42.37.42.09,0,.18-.02.27-.03l.05.3c-.13.03-.25.05-.4.05-.48,0-.7-.2-.7-.69v-1.67Z"/>
  <path class="cls-1" d="M62.21,40.54l.29-.05v-3.29l-.29-.05v-.25h.7v1.48c.25-.13.55-.27.9-.27.57,0,.71.37.71.82v1.56l.32.05v.25h-.73v-1.76c0-.34-.06-.6-.43-.6-.26,0-.53.12-.77.24v1.82l.29.05v.25h-1v-.25Z"/>
  <path class="cls-1" d="M66.47,39.96h.32l.05.44c.21.06.48.09.7.09.55,0,.87-.22.87-.72s-.28-.61-.82-.78c-.56-.18-1.1-.38-1.1-1.1s.5-1.05,1.28-1.05c.34,0,.7.07.96.15v.72h-.33l-.05-.45c-.15-.03-.4-.07-.6-.07-.54,0-.81.25-.81.67,0,.46.32.58.81.75.57.19,1.11.38,1.11,1.13,0,.68-.44,1.09-1.32,1.09-.38,0-.81-.08-1.09-.17v-.71Z"/>
  <path class="cls-1" d="M69.23,41.69l.29-.05v-3.17l-.29-.05v-.25h.63l.03.21c.25-.15.51-.26.82-.26.76,0,.89.67.89,1.33,0,.76-.18,1.41-.98,1.41-.22,0-.48-.05-.69-.17v.96l.3.05v.25h-1.01v-.25ZM69.93,40.39c.23.1.44.14.62.14.48,0,.63-.34.63-1.07,0-.56-.09-1.02-.59-1.02-.19,0-.44.08-.66.21v1.74Z"/>
  <path class="cls-1" d="M74.14,40.71c-.26.07-.58.14-.88.14-.78,0-1.07-.48-1.07-1.32s.2-1.42,1.05-1.42c.73,0,.96.41.96,1.15v.35h-1.6c.01.61.18.92.73.92.23,0,.5-.05.74-.13l.07.31ZM73.8,39.31c0-.53-.06-.88-.57-.88-.44,0-.6.25-.63.88h1.2Z"/>
  <path class="cls-1" d="M76.66,40.72c-.21.06-.56.13-.85.13-.85,0-1.05-.52-1.05-1.35s.21-1.39,1.09-1.39c.28,0,.6.05.78.1l-.02.64h-.32l-.03-.38c-.13-.02-.26-.04-.4-.04-.6,0-.69.37-.69,1.04s.1,1.06.72,1.06c.23,0,.48-.05.69-.11l.07.3Z"/>
  <path class="cls-1" d="M77.08,40.54l.29-.05v-2.03l-.29-.05v-.25h.7v2.33l.29.05v.25h-1v-.25ZM77.38,36.91h.41v.62h-.41v-.62Z"/>
  <path class="cls-1" d="M80.07,40.57c-.22.15-.47.28-.8.28-.48,0-.82-.27-.82-.78,0-.61.45-.8,1.04-.8.18,0,.41.02.53.03v-.3c0-.37-.1-.56-.6-.56-.23,0-.48.04-.71.09l-.05-.32c.27-.06.53-.1.81-.1.67,0,.95.22.95.84v1.55l.29.05v.25h-.62l-.03-.22ZM80.03,39.58c-.11-.01-.34-.02-.48-.02-.48,0-.68.14-.68.49,0,.3.18.49.5.49.23,0,.45-.09.65-.22v-.73Z"/>
  <polygon class="cls-1" points="81.05 40.54 81.35 40.49 81.35 37.2 81.05 37.15 81.05 36.91 81.76 36.91 81.76 40.49 82.05 40.54 82.05 40.79 81.05 40.79 81.05 40.54"/>
  <path class="cls-1" d="M82.73,38.49h-.39v-.25l.41-.07.09-.69h.3v.69h.68v.32h-.68v1.62c0,.26.09.42.37.42.09,0,.18-.02.27-.03l.05.3c-.13.03-.25.05-.4.05-.47,0-.7-.2-.7-.69v-1.67Z"/>
  <path class="cls-1" d="M84.11,40.54l.29-.05v-2.03l-.29-.05v-.25h.7v2.33l.29.05v.25h-1v-.25ZM84.4,36.91h.41v.62h-.41v-.62Z"/>
  <path class="cls-1" d="M87.51,40.71c-.26.07-.58.14-.88.14-.78,0-1.07-.48-1.07-1.32s.2-1.42,1.05-1.42c.73,0,.96.41.96,1.15v.35h-1.6c.01.61.18.92.73.92.23,0,.5-.05.75-.13l.07.31ZM87.18,39.31c0-.53-.06-.88-.57-.88-.44,0-.6.25-.63.88h1.2Z"/>
  <path class="cls-1" d="M88.14,40.11h.3l.04.37c.15.03.31.06.49.06.4,0,.62-.13.62-.43s-.23-.37-.58-.48c-.45-.13-.88-.26-.88-.77s.42-.75,1-.75c.27,0,.56.05.77.12l-.02.61h-.3l-.03-.38c-.13-.02-.28-.04-.4-.04-.41,0-.6.14-.6.4,0,.28.22.35.6.46.42.12.85.25.85.79,0,.5-.37.77-1.04.77-.31,0-.61-.06-.84-.13l.02-.61Z"/>
  <path class="cls-1" d="M10.2,32.35v1.55h.56v.4h-2.15c-.43,0-.65-.2-.68-.59,0-.07,0-.14,0-.23s0-.18,0-.28c0-.09,0-.19.01-.28,0-.09.01-.17.02-.23.03-.18.09-.33.2-.45.1-.12.25-.21.43-.26.22-.06.43-.07.63-.03.2.04.4.14.58.29v-.28h.6v.4h-.19ZM9.8,32.81s-.02-.08-.07-.13c-.05-.05-.11-.1-.18-.15-.07-.05-.16-.09-.25-.13-.09-.04-.18-.06-.26-.07-.23-.01-.4.03-.5.14-.11.11-.17.28-.18.52v.53c0,.08,0,.14.01.19,0,.05.03.09.05.11.03.03.06.05.11.06.05.01.11.02.18.02h1.1v-1.08ZM8.54,31.07h.41v.42h-.41v-.42ZM9.17,31.07h.41v.42h-.41v-.42Z"/>
  <path class="cls-1" d="M12.53,34.29h-.46c-.17,0-.31-.04-.41-.13-.1.08-.24.13-.41.13h-.51v-.4h.39c.07,0,.12,0,.16-.01.04,0,.08-.02.1-.05.02-.02.04-.06.05-.1.01-.04.02-.09.02-.16v-1.38h.41v1.38c0,.07,0,.12.02.16.01.04.03.07.05.1.02.02.06.04.1.05.04,0,.1.01.16.01h.34v.4ZM11.17,34.7h.41v.42h-.41v-.42ZM11.81,34.7h.41v.42h-.41v-.42Z"/>
  <path class="cls-1" d="M12.51,33.89h2.19v-.87c0-.12-.02-.23-.07-.32-.04-.09-.1-.16-.18-.21s-.16-.09-.26-.1c-.1-.02-.21-.01-.33.01-.08.02-.17.04-.26.07-.09.03-.19.07-.27.1-.09.03-.17.07-.24.1-.07.03-.12.06-.16.08l-.17-.4c.16-.09.33-.18.52-.24.19-.07.38-.12.57-.14.18-.02.35-.02.51.02.16.03.29.1.41.18.11.09.21.2.27.33.07.13.1.29.1.46v.93h.56v.4h-3.19v-.4Z"/>
  <path class="cls-1" d="M15.66,33.89h.41v-1.12h-.19v-.41h.6v.3c.06-.06.13-.12.21-.18.08-.06.16-.11.25-.16.09-.05.17-.09.26-.13.09-.04.18-.08.26-.11.08-.03.16-.06.23-.08.07-.02.13-.04.18-.05.12-.02.24-.03.37-.02.13,0,.25.02.37.04.11.02.2.06.29.12.09.06.17.12.23.21s.11.18.15.28c.04.1.06.21.06.33,0,.07,0,.13,0,.18,0,.05,0,.08,0,.12,0,.03,0,.06,0,.09s0,.05,0,.08c0,.03,0,.07,0,.11,0,.05,0,.1,0,.17,0,.08,0,.16-.03.22h.59v.4h-4.25v-.4ZM18.45,32.38c-.14-.03-.29-.03-.44,0-.15.03-.3.08-.45.14-.14.06-.28.14-.41.22-.13.08-.24.16-.34.24-.1.08-.17.14-.23.2-.06.05-.08.09-.08.09v.62h2.21c.08,0,.14-.02.18-.07.04-.04.06-.1.06-.18,0-.07,0-.12,0-.16,0-.04,0-.07,0-.1,0-.03,0-.05,0-.07,0-.02,0-.05,0-.07,0-.03,0-.06,0-.1,0-.04,0-.09,0-.16,0-.17-.05-.3-.13-.4s-.2-.16-.36-.19"/>
  <path class="cls-1" d="M19.88,33.89h.23c.07,0,.12,0,.16-.01.04,0,.08-.02.1-.05.03-.02.04-.06.05-.1.01-.04.02-.09.02-.16v-2.56h-.19v-.41h.6v3.06c0,.2-.06.36-.17.46-.11.11-.26.16-.45.16h-.36v-.4Z"/>
  <polygon class="cls-1" points="22.01 34.29 21.61 34.29 21.61 31 21.42 31 21.42 30.6 22.01 30.6 22.01 34.29"/>
  <path class="cls-1" d="M24.56,32.2c-.09.12-.16.24-.22.38-.05.13-.09.28-.11.45-.03.27.02.49.15.64.13.15.32.23.6.24h2.65c.06,0,.12,0,.16-.01.04,0,.08-.02.1-.05.02-.02.04-.06.05-.1.01-.04.02-.09.02-.16v-1.22h-.19v-.41h.6v1.72c0,.2-.06.36-.17.46-.11.11-.26.16-.45.16h-2.9c-.14,0-.27-.02-.38-.07-.12-.04-.22-.1-.31-.18-.09-.08-.16-.17-.22-.28-.06-.11-.09-.24-.12-.38-.02-.11-.02-.21-.02-.32,0-.11.01-.22.03-.32.03-.15.07-.29.13-.42.06-.13.13-.25.22-.37l.35.25ZM25.67,31.53h.41v.42h-.41v-.42ZM26.31,31.53h.41v.42h-.41v-.42Z"/>
  <path class="cls-1" d="M30.13,34.29h-.57c-.2,0-.35-.06-.45-.16-.11-.11-.16-.26-.16-.46v-3.07h.6v.41h-.19v2.57c0,.07,0,.12.02.16,0,.04.03.07.05.1.02.02.06.04.1.05.04,0,.1.01.16.01h.44v.4Z"/>
  <path class="cls-1" d="M30.1,33.89h.41v-1.12h-.19v-.41h.6v.3c.06-.06.13-.12.21-.18.08-.06.16-.11.25-.16.09-.05.17-.09.26-.13.09-.04.18-.08.26-.11.08-.03.16-.06.23-.08.07-.02.13-.04.18-.05.12-.02.24-.03.37-.02.13,0,.25.02.37.04.11.02.2.06.29.12.09.06.17.12.23.21s.11.18.15.28c.04.1.06.21.06.33,0,.07,0,.13,0,.18,0,.05,0,.08,0,.12,0,.03,0,.06,0,.09s0,.05,0,.08c0,.03,0,.07,0,.11,0,.05,0,.1,0,.17,0,.08,0,.16-.02.22h.59v.4h-4.25v-.4ZM32.89,32.38c-.14-.03-.29-.03-.44,0-.15.03-.3.08-.45.14-.14.06-.28.14-.41.22-.13.08-.24.16-.34.24-.1.08-.18.14-.23.2-.06.05-.08.09-.08.09v.62h2.21c.08,0,.14-.02.18-.07.04-.04.06-.1.06-.18,0-.07,0-.12,0-.16,0-.04,0-.07,0-.1,0-.03,0-.05,0-.07,0-.02,0-.05,0-.07,0-.03,0-.06,0-.1,0-.04,0-.09,0-.16,0-.17-.05-.3-.13-.4-.08-.09-.2-.16-.35-.19"/>
  <path class="cls-1" d="M34.32,33.89h.41v-1.12h-.19v-.41h.6v.3c.06-.06.13-.12.21-.18.08-.06.16-.11.25-.16.09-.05.17-.09.26-.13.09-.04.18-.08.26-.11.08-.03.16-.06.23-.08.07-.02.13-.04.18-.05.12-.02.24-.03.37-.02.13,0,.25.02.37.04.11.02.2.06.29.12.09.06.17.12.23.21s.11.18.15.28c.04.1.06.21.06.33,0,.07,0,.13,0,.18,0,.05,0,.08,0,.12,0,.03,0,.06,0,.09s0,.05,0,.08c0,.03,0,.07,0,.11,0,.05,0,.1,0,.17,0,.08,0,.16-.02.22h.59v.4h-4.25v-.4ZM37.11,32.38c-.14-.03-.29-.03-.44,0-.15.03-.3.08-.45.14-.14.06-.28.14-.41.22-.13.08-.24.16-.34.24-.1.08-.18.14-.23.2-.06.05-.08.09-.08.09v.62h2.21c.08,0,.14-.02.18-.07.04-.04.06-.1.06-.18,0-.07,0-.12,0-.16,0-.04,0-.07,0-.1,0-.03,0-.05,0-.07,0-.02,0-.05,0-.07,0-.03,0-.06,0-.1,0-.04,0-.09,0-.16,0-.17-.05-.3-.13-.4-.08-.09-.2-.16-.35-.19"/>
  <path class="cls-1" d="M38.55,33.89h2.19v-.87c0-.12-.02-.23-.07-.32-.04-.09-.1-.16-.18-.21-.07-.05-.16-.09-.26-.1-.1-.02-.21-.01-.33.01-.08.02-.17.04-.26.07s-.19.07-.27.1c-.09.04-.17.07-.24.1-.07.03-.12.06-.16.08l-.17-.4c.16-.1.33-.18.52-.25.19-.07.38-.12.57-.14.18-.02.35-.02.51.02.15.04.29.1.4.19.12.09.21.2.27.33.07.14.1.29.11.46v.93h.56v.4h-3.18v-.4ZM39.38,31.07h.41v.42h-.41v-.42Z"/>
  <path class="cls-1" d="M43.5,34.29h-.46c-.17,0-.31-.04-.41-.13-.1.08-.24.13-.41.13h-.51v-.4h.39c.07,0,.12,0,.16-.01.04,0,.08-.02.1-.05.02-.02.04-.06.05-.1.01-.04.02-.09.02-.16v-1.38h.41v1.38c0,.07,0,.12.02.16.01.04.03.07.05.1.03.02.06.04.1.05.04,0,.1.01.16.01h.34v.4ZM42.12,31.07h.41v.42h-.41v-.42ZM42.76,31.07h.41v.42h-.41v-.42Z"/>
  <path class="cls-1" d="M45.06,34.29h-.39c-.17,0-.31-.04-.41-.13-.1.08-.24.13-.41.13h-.38v-.4h.25c.07,0,.12,0,.16-.01.04,0,.08-.02.1-.05.02-.02.04-.06.05-.1.01-.04.02-.09.02-.16v-2.97h.41v2.97c0,.07,0,.12.02.16.01.04.03.07.05.1.02.02.06.04.1.05.04,0,.1.01.16.01h.26v.4Z"/>
  <path class="cls-1" d="M45.04,33.89h.23c.07,0,.12,0,.16-.01.04,0,.08-.02.1-.05.03-.02.04-.06.05-.1.01-.04.02-.09.02-.16v-2.56h-.19v-.41h.6v3.06c0,.2-.06.36-.17.46-.11.11-.26.16-.45.16h-.36v-.4Z"/>
  <path class="cls-1" d="M50.11,32.35v1.55h.56v.4h-2.15c-.43,0-.65-.2-.68-.59,0-.07,0-.14,0-.23s0-.18,0-.28c0-.09,0-.19.01-.28,0-.09.01-.17.02-.23.03-.18.09-.33.2-.45.11-.12.25-.21.43-.26.22-.06.43-.07.63-.03.2.04.4.14.58.29v-.28h.6v.4h-.19ZM49.71,32.81s-.02-.08-.07-.13c-.05-.05-.11-.1-.18-.15-.07-.05-.16-.09-.25-.13-.09-.04-.18-.06-.27-.07-.23-.01-.39.03-.5.14-.11.11-.17.28-.18.52v.53c0,.08,0,.14.01.19,0,.05.03.09.05.11.03.03.06.05.11.06.05.01.11.02.18.02h1.1v-1.08ZM48.45,31.07h.41v.42h-.41v-.42ZM49.08,31.07h.41v.42h-.41v-.42Z"/>
  <path class="cls-1" d="M50.64,33.89h.77c.06,0,.12,0,.16-.01.04,0,.07-.02.1-.05.03-.02.04-.06.05-.1.01-.04.02-.09.02-.16v-1.22h-.19v-.41h.6v1.72c0,.2-.06.36-.16.46-.11.11-.26.16-.45.16h-.9v-.4ZM50.96,34.7h.41v.42h-.41v-.42ZM51.59,34.7h.41v.42h-.41v-.42Z"/>
  <path class="cls-1" d="M52.84,32.49v-.54h1.62c.25,0,.43.06.55.17.11.11.17.29.17.54v1.63h-2.46v-.4h2.05v-1.16c0-.08,0-.14-.02-.19-.01-.05-.03-.09-.06-.11-.03-.03-.06-.04-.11-.05-.05,0-.11-.01-.19-.01h-1.14v.12h-.42Z"/>
  <path class="cls-1" d="M57.62,34.29h-1.19c-.43,0-.65-.2-.68-.59,0-.06,0-.14,0-.23s0-.18,0-.28c0-.09,0-.19.01-.28,0-.09.01-.17.02-.23.03-.18.09-.33.2-.45.1-.12.25-.21.43-.26.22-.06.43-.07.63-.03.2.04.39.14.58.29v-.28h.59v.4h-.19v1.55h.56v.4h-.56v.36c0,.17-.04.32-.1.46-.06.13-.15.24-.26.33-.11.09-.24.15-.4.19-.15.04-.32.05-.5.03-.08,0-.16-.02-.24-.04-.07-.02-.15-.04-.23-.06l.04-.42s.06.02.12.03c.05.01.11.02.17.04.06.01.12.02.18.03.06,0,.1.01.13.01.22,0,.38-.06.49-.16.11-.1.17-.26.19-.48v-.32ZM57.62,32.81s-.02-.08-.07-.13c-.05-.05-.11-.1-.18-.15-.07-.05-.16-.09-.25-.13-.09-.04-.18-.06-.27-.07-.23-.01-.4.03-.5.14-.11.11-.17.28-.18.52v.52c0,.08,0,.14.01.19,0,.05.03.09.05.11.02.03.06.05.11.06.05.01.11.02.18.02h1.1v-1.09Z"/>
  <path class="cls-1" d="M61.42,33.89v.4h-2.87v-.4h.84c-.37-.52-.57-.86-.59-1-.02-.09-.02-.17-.02-.24,0-.07,0-.13.02-.19.01-.06.04-.11.06-.15.03-.05.06-.09.1-.13.16-.16.42-.24.8-.24h.37c.37,0,.64.08.8.24.04.04.08.08.11.13.03.05.06.1.07.16.02.06.02.12.02.19,0,.07-.02.14-.04.23-.02.07-.08.19-.17.36-.09.17-.23.38-.42.64h.93ZM60.68,32.79c.02-.09,0-.17-.06-.24-.06-.06-.14-.11-.24-.14-.02,0-.05-.01-.08-.02-.03,0-.06-.01-.1-.02-.04,0-.09,0-.15,0-.06,0-.13,0-.22,0-.1,0-.2.02-.3.05-.1.03-.18.08-.25.15-.03.03-.05.07-.06.11,0,.04,0,.08,0,.13,0,.05.07.16.19.34.12.18.29.44.53.76h.02c.47-.65.71-1.01.73-1.1"/>
  <path class="cls-1" d="M65.61,34.29h-.35c-.17,0-.32-.05-.42-.14-.06.05-.14.08-.23.1-.09.02-.2.03-.32.03h-2.89v-.4h.42v-1.12h-.19v-.41h.6v1.52h.99v-1.72h.42v1.72h.79s.09-.02.11-.04c.02-.03.05-.06.06-.1.01-.04.02-.08.02-.13,0-.05,0-.1,0-.15v-1.52h.42v1.63c0,.07,0,.12.02.16,0,.04.03.07.05.1.03.02.06.04.1.05.04,0,.1.01.16.01h.23v.4Z"/>
  <path class="cls-1" d="M65.58,33.89h.23c.06,0,.12,0,.16-.01.04,0,.08-.02.1-.05.03-.02.04-.06.05-.1,0-.04.02-.09.02-.16v-2.56h-.19v-.41h.6v3.06c0,.2-.06.36-.17.46-.11.11-.26.16-.45.16h-.36v-.4Z"/>
  <polygon class="cls-1" points="67.7 34.29 67.3 34.29 67.3 31 67.12 31 67.12 30.6 67.7 30.6 67.7 34.29"/>
  <path class="cls-1" d="M71.8,32.35v1.55h.56v.4h-2.15c-.43,0-.65-.2-.68-.59,0-.07,0-.14,0-.23s0-.18,0-.28c0-.09,0-.19.01-.28,0-.09.01-.17.02-.23.03-.18.09-.33.2-.45.1-.12.25-.21.43-.26.22-.06.43-.07.63-.03.2.04.39.14.58.29v-.28h.59v.4h-.19ZM71.4,32.81s-.02-.08-.07-.13c-.05-.05-.11-.1-.18-.15-.07-.05-.16-.09-.25-.13-.09-.04-.18-.06-.27-.07-.23-.01-.4.03-.5.14-.11.11-.17.28-.18.52v.53c0,.08,0,.14.01.19,0,.05.03.09.05.11.03.03.06.05.11.06.05.01.11.02.18.02h1.1v-1.08ZM70.14,31.07h.41v.42h-.41v-.42ZM70.77,31.07h.41v.42h-.41v-.42Z"/>
  <path class="cls-1" d="M73.93,34.29h-.39c-.17,0-.31-.05-.41-.13-.1.08-.24.13-.41.13h-.38v-.4h.26c.07,0,.12,0,.16-.01.04,0,.08-.02.1-.05.03-.02.04-.06.05-.1,0-.04.02-.09.02-.16v-1.38h.41v1.38c0,.07,0,.12.02.16,0,.04.03.07.05.1.03.02.06.04.1.05.04,0,.1.01.16.01h.26v.4ZM72.97,31.07c0,.08.03.14.08.18.05.04.1.07.17.07h.35v.17h-.88v-.17h.16c-.05-.07-.07-.15-.07-.25v-.08c0-.07.01-.13.03-.18.02-.05.06-.1.1-.14.04-.04.09-.07.15-.09.06-.02.12-.03.18-.03.05,0,.1,0,.15.01.05,0,.1.02.15.04v.25h-.18v-.1s-.04-.01-.06-.01c-.02,0-.04,0-.05,0-.08,0-.15.02-.2.07-.05.05-.07.12-.08.21v.05Z"/>
  <path class="cls-1" d="M75.7,34.29h-.46c-.17,0-.31-.04-.41-.13-.1.08-.24.13-.41.13h-.51v-.4h.39c.06,0,.12,0,.16-.01.04,0,.08-.02.1-.05.03-.02.04-.06.05-.1,0-.04.02-.09.02-.16v-1.38h.41v1.38c0,.07,0,.12.02.16,0,.04.03.07.05.1.03.02.06.04.1.05.04,0,.1.01.16.01h.34v.4ZM74.34,34.7h.41v.42h-.41v-.42ZM74.97,34.7h.41v.42h-.41v-.42Z"/>
  <path class="cls-1" d="M78.15,31.56c.18-.02.35-.02.51.02.15.03.29.1.4.18.12.09.21.2.27.33.07.14.1.29.11.46v1.34h.55v.4h-4.32v-.4h.34c-.02-.06-.03-.12-.03-.19,0-.13,0-.26,0-.39s.02-.26.04-.39c.03-.18.09-.33.2-.45s.25-.21.43-.26c.18-.05.35-.06.51-.05l-.09-.21c.16-.1.33-.18.52-.25.19-.07.38-.12.57-.14M77.85,33.04s-.02-.08-.07-.13c-.05-.05-.11-.1-.18-.15-.08-.05-.16-.09-.25-.13-.09-.04-.18-.06-.27-.07-.23-.01-.39.03-.5.14-.11.11-.17.28-.18.52,0,.04,0,.09,0,.15s0,.1,0,.15c0,.08,0,.14.01.19,0,.05.02.08.05.11.02.03.06.05.1.06.04.01.1.02.17.02h1.12v-.85ZM78.25,33.89h.76v-1.28c0-.12-.02-.23-.07-.32s-.1-.16-.18-.21c-.07-.05-.16-.09-.26-.1-.1-.02-.21-.01-.33.01-.05.01-.11.03-.17.04-.06.02-.12.04-.18.06-.06.02-.12.04-.18.07-.06.02-.12.05-.17.07.14.05.26.13.38.23.05.04.1.08.15.12.05.04.09.08.13.13.04.05.07.1.09.15.02.05.04.11.04.17v.87Z"/>
  <path class="cls-1" d="M79.96,33.89h.23c.07,0,.12,0,.16-.01.04,0,.08-.02.1-.05.03-.02.04-.06.05-.1,0-.04.02-.09.02-.16v-2.56h-.19v-.41h.6v3.06c0,.2-.06.36-.17.46-.11.11-.26.16-.45.16h-.36v-.4Z"/>
  <polygon class="cls-1" points="82.08 34.29 81.68 34.29 81.68 31 81.49 31 81.49 30.6 82.08 30.6 82.08 34.29"/>
</svg>