<?xml version="1.0" encoding="UTF-8"?>
<svg id="Layer_1" data-name="Layer 1" xmlns="http://www.w3.org/2000/svg" viewBox="0 0 90 45">
  <defs>
    <style>
      .cls-1, .cls-2 {
        fill: #fff;
      }

      .cls-2 {
        fill-rule: evenodd;
      }
    </style>
  </defs>
  <path class="cls-1" d="M8.18,9.47s.03-.05.02-.07c0-.01-.02-.03-.03-.04-.02,0-.04.03-.06.07l.02.02s.03.03.05.04c0,0,0,0,0-.02M8.01,9.56c-.04.06-.07.12-.07.18.06.03.13,0,.14-.1-.03-.04-.05-.07-.07-.08ZM7.97,9.91h-.02s-.02-.01-.02-.01c0,0,0,.02,0,.03v.03s.02,0,.03-.01v-.02s.01-.01.01-.01ZM7.76,9.88h-.02c-.08-.01-.16.04-.23.1h.02s.07.02.11.02c.04,0,.08,0,.11,0-.02-.05,0-.09,0-.13ZM7.43,9.34l.06.11c.06.1.16.2.28.24.02-.02.04-.05.06-.09.01-.03.02-.05.03-.08,0-.02.02-.04.03-.06-.03-.04-.07-.06-.14-.07-.08-.02-.17-.02-.24-.03h-.08s.33-.56.33-.56l.02.15s0,.04,0,.07c0,.02,0,.04,0,.05,0,.03,0,.05.02.07.04.1.07.15.19.16.11-.08.08-.12.04-.16-.02-.02-.04-.03-.06-.05-.02-.02-.04-.04-.07-.06-.04-.04-.09-.09-.1-.15l-.04-.15.12.09c.13.09.21.18.31.29.26.17.19.34.08.48-.02.03-.05.07-.08.1-.03.03-.05.07-.07.1-.03.06-.05.13-.02.19l.02.05-.06.02c-.09.03-.19.04-.27.05-.06.02-.12,0-.17,0-.06,0-.12,0-.18,0-.06,0-.12,0-.17.02l-.07.02v-.07c0-.11.02-.22.06-.32.03-.1.08-.21.11-.3l.04-.12ZM8.17,10.02c.01-.18.14-.4.25-.51l.05-.05.04.06s.04.07.07.1c.02.04.05.08.07.12.04.09.03.2-.07.3-.07.03-.14.03-.19.04-.05,0-.11,0-.15,0h-.06s0-.06,0-.06ZM7.04,9.51c.07-.4.35-.67.62-.82l.03-.02.06.08-.02.03c-.31.38-.49.76-.56,1.21v.03s-.11,0-.11,0c0,0-.02-.11-.03-.2,0-.09-.01-.22,0-.31ZM9.43,8.09s.01-.01.02-.03c.05-.04.05-.06.04-.09,0-.02-.01-.04-.02-.06v-.02s-.08.05-.11.09l.02.04s.03.05.04.07c0,0,0,.01.01.01ZM9.22,8.1c-.07.06-.14.13-.15.2.07.08.18.04.22-.07-.02-.06-.04-.11-.07-.13ZM9.08,8.51l-.06-.05s-.01.03-.02.04c0,.02,0,.03-.01.04.02,0,.05,0,.07,0l.02-.02h.01ZM8.79,8.56c0-.07.02-.13.06-.17-.01,0-.03-.01-.04-.02-.1-.04-.21,0-.31.05v.02s.02,0,.03.01c.04.02.08.04.12.05.05.01.1.03.14.04ZM8.63,7.82c.03.14.13.29.26.38.04-.02.07-.05.11-.09.02-.03.04-.06.07-.08.02-.02.03-.04.05-.06-.02-.06-.07-.1-.14-.14-.09-.05-.19-.07-.27-.11l-.08-.04.52-.49-.02.15s0,.05-.02.08c0,.02-.01.04-.02.06,0,.04-.01.06,0,.1.02.13.04.21.18.25.17-.07.14-.12.1-.2-.03-.05-.07-.11-.11-.16-.04-.06-.07-.12-.07-.2v-.15s.1.12.1.12c.12.15.19.27.27.44.25.27.11.44-.06.57-.04.03-.08.06-.12.09-.04.03-.08.06-.11.1-.06.07-.1.14-.09.23v.06s-.05,0-.05,0c-.12,0-.23,0-.33-.03-.07,0-.14-.03-.2-.06-.07-.02-.14-.04-.2-.06-.07-.02-.14-.03-.21-.03h-.07s.02-.07.02-.07c.03-.12.09-.24.17-.35.07-.11.15-.22.23-.32l.07-.1.03.12ZM9.27,8.7c.07-.2.28-.42.45-.5l.06-.03.02.07s.03.09.05.14c.02.05.03.1.04.16.01.12-.02.23-.17.31-.09.01-.16,0-.23-.02-.06-.02-.13-.04-.18-.05h-.06s.02-.07.02-.07ZM8.12,7.76c.2-.44.61-.67.97-.75h.03s.04.08.04.08l-.03.02c-.48.35-.81.74-1.03,1.24v.03s-.11-.03-.11-.03c0,0,0-.12.03-.24.02-.11.05-.25.1-.36ZM11.15,7.04v.05s0,.07.01.1c0,.01,0,.02,0,.02,0,0,.02,0,.06-.01.07-.01.09-.04.1-.08,0-.03,0-.06,0-.08v-.04s-.11.01-.18.05ZM10.94,7.1c-.11.02-.23.07-.29.15.04.13.19.16.3.05.01-.08.01-.15-.01-.19ZM10.44,7.47s.06.04.09.04h.03s.02-.02.03-.03l-.05-.11s-.03.03-.05.04c-.02.02-.03.03-.05.05ZM10.25,7.41v-.02c.02-.09.09-.13.16-.15-.01-.02-.03-.03-.04-.05-.09-.1-.23-.12-.38-.11l-.04.02s.03.03.05.05c.03.04.06.08.1.12.05.05.1.09.16.14ZM10.45,6.5c-.04.18-.01.39.08.55.05,0,.11-.01.17-.04.04-.02.08-.04.11-.06.03-.02.06-.03.1-.04.01-.08-.02-.16-.08-.24-.03-.05-.08-.09-.11-.13-.04-.04-.08-.09-.11-.13l-.05-.07.77-.24-.08.13s-.04.05-.06.07c-.02.02-.04.04-.05.06-.03.03-.05.07-.05.11-.05.15-.07.25.07.37.22.02.23-.06.23-.17,0-.07-.02-.15-.03-.23,0-.08-.01-.17.02-.24l.07-.14.04.15c.05.22.06.39.06.61.12.41-.1.52-.35.57-.06.01-.12.02-.18.04-.06.01-.11.03-.17.05-.1.04-.18.1-.22.2l-.02.06-.05-.02c-.13-.05-.24-.13-.34-.21-.07-.03-.13-.1-.18-.16-.06-.06-.12-.12-.19-.17-.07-.05-.13-.1-.21-.14l-.06-.03.05-.05c.1-.11.23-.21.36-.29.13-.08.28-.15.41-.22l.11-.06-.03.12ZM10.69,7.79c.17-.17.51-.3.73-.3h.07s-.01.07-.01.07c0,.05-.01.11-.02.17,0,.06-.02.13-.04.19-.05.13-.14.23-.34.24-.09-.03-.16-.08-.22-.14-.06-.05-.12-.11-.17-.14l-.05-.04.05-.05ZM9.94,6.18c.44-.36,1-.39,1.42-.29h.03s0,.11,0,.11h-.03c-.7.13-1.25.38-1.75.79l-.03.02-.08-.07s.07-.12.15-.23c.08-.11.18-.24.29-.33ZM18.3,9.48s.03-.03.05-.05v-.02s-.01-.07-.03-.08c-.02.03-.03.04-.04.05-.01.02-.01.03,0,.05.01.02.02.03.02.04ZM18.54,9.74c0-.05-.03-.12-.07-.18-.02.01-.04.04-.07.08,0,.09.08.13.14.1ZM18.51,9.92v.02s.03,0,.04.01v-.03s0-.02,0-.02h-.04s0,.02,0,.02ZM18.84,10.01s.07-.01.11-.02h.02c-.07-.07-.15-.12-.23-.11h-.02s.03.09.01.13c.04,0,.07,0,.11,0ZM18.72,8.8l.33.54-.08.02c-.07.01-.16.01-.24.03-.06.01-.11.03-.14.07,0,.02.02.04.03.06.01.03.02.06.03.08.02.04.04.07.06.09.12-.04.22-.14.28-.24l.05-.1.05.11c.04.1.08.2.11.3.03.11.06.22.06.32v.07s-.07-.02-.07-.02c-.06-.01-.12-.02-.17-.02-.06,0-.12,0-.18,0-.05,0-.12.02-.17,0-.09,0-.18-.01-.27-.05l-.06-.02.02-.05c.03-.07.01-.13-.02-.19-.02-.03-.04-.07-.07-.1-.03-.03-.05-.07-.08-.1-.11-.14-.18-.31.08-.48.1-.12.18-.2.31-.29l.12-.09-.04.15c-.02.06-.06.11-.1.15-.02.02-.04.04-.07.06-.02.02-.04.03-.06.05-.05.05-.07.08.04.16.12,0,.15-.06.18-.15.02-.03.03-.06.03-.09,0-.02,0-.04,0-.05,0-.02,0-.04,0-.07l.02-.15ZM18.01,9.47l.05.05c.12.11.24.33.25.51v.06s-.06,0-.06,0c-.04,0-.1,0-.15,0-.06,0-.12,0-.17-.02-.12-.11-.13-.22-.09-.31.02-.04.04-.08.07-.12.02-.03.05-.07.07-.1l.04-.06ZM19.31,10.03v-.03c-.08-.44-.25-.83-.56-1.21l-.02-.03.06-.08.03.02c.27.14.55.42.62.82.02.1.01.22,0,.31,0,.1-.03.2-.03.2h-.1ZM16.94,7.88v.02s-.03.04-.04.06c0,.03,0,.05.02.07.02.02.03.03.03.04.01,0,.01,0,.02,0,.01-.02.03-.04.04-.07l.02-.03s-.07-.08-.1-.09ZM17.34,8.3c-.02-.07-.08-.15-.15-.2-.03.02-.05.07-.07.13.04.12.15.15.22.07ZM17.32,8.51s0,.01.02.02l.02.02s.04,0,.07,0c0-.01-.01-.03-.01-.04,0-.01-.01-.02-.02-.04l-.07.04ZM17.76,8.52s.08-.04.12-.05c.01,0,.03-.01.04-.01v-.02c-.12-.06-.23-.09-.33-.05-.01,0-.02,0-.04.02.04.04.07.1.06.16.05,0,.1-.02.14-.04ZM17.31,7.58s.01-.08,0-.11c0-.02-.01-.04-.02-.06,0-.02-.01-.05-.02-.08l-.02-.15.52.49-.08.04c-.08.04-.18.06-.27.11-.07.04-.12.08-.14.14.02.02.04.04.05.06.02.03.04.06.07.08.04.04.07.08.11.09.13-.09.22-.24.26-.38l.03-.12.07.1c.07.1.16.21.23.32.07.11.13.23.17.35l.02.07h-.07c-.07,0-.14.02-.21.03-.07.02-.14.04-.21.06-.06.03-.13.06-.2.05-.1.02-.21.04-.33.03h-.06s0-.06,0-.06c0-.09-.03-.16-.09-.23-.03-.03-.07-.06-.11-.1-.04-.03-.08-.06-.12-.09-.17-.13-.3-.3-.06-.57.08-.17.14-.29.27-.44l.1-.12v.15c0,.07-.03.14-.07.2-.04.05-.08.11-.11.16-.04.07-.06.13.1.2.14-.04.16-.12.18-.24h0ZM16.63,8.16l.06.03c.17.09.38.31.45.5l.02.06h-.06c-.05.02-.11.04-.18.06-.06.02-.14.03-.2.03-.17-.09-.2-.2-.19-.32,0-.05.02-.11.04-.16.02-.05.03-.09.05-.14l.02-.07ZM18.32,8.38v-.03c-.24-.5-.56-.89-1.04-1.24l-.03-.02.04-.09h.03c.36.09.77.32.97.76.05.11.08.25.1.36.02.11.03.24.03.24l-.1.03ZM14.82,7v.04s0,.06,0,.08c0,.04.03.07.07.07.05.03.07.03.07.03,0-.01.01-.02.01-.03,0-.03,0-.06,0-.09v-.05c-.07-.04-.13-.06-.18-.06ZM15.49,7.24c-.06-.08-.18-.12-.29-.15-.03.04-.03.11-.01.19.11.11.26.09.3-.05ZM15.56,7.49s.02,0,.03.01h.03s.06,0,.09-.03c-.02-.01-.03-.03-.05-.05-.02-.01-.04-.03-.05-.04l-.06.1h0ZM15.78,7.2s-.03.03-.04.05c.06.02.13.07.16.14v.02c.06-.04.11-.09.15-.13.03-.04.06-.08.1-.12.01-.02.03-.03.05-.05l-.04-.02c-.14,0-.29.02-.38.11ZM15.08,6.49c0-.06-.03-.09-.06-.13-.02-.02-.03-.04-.05-.06-.02-.02-.04-.04-.06-.07l-.08-.13.77.24-.05.07s-.07.08-.11.13c-.04.04-.08.09-.11.13-.06.08-.1.16-.08.24.03.01.07.03.1.04.04.02.08.04.11.06.06.03.12.05.17.04.1-.17.12-.38.08-.55l-.03-.12.11.06c.13.07.27.14.41.22.13.08.26.18.36.29l.05.05-.06.03c-.07.04-.14.09-.21.14-.07.05-.13.11-.19.17-.05.06-.11.13-.18.16-.1.08-.21.15-.34.21l-.05.02-.02-.06c-.04-.11-.12-.17-.22-.2-.05-.02-.11-.03-.17-.05-.06-.01-.12-.02-.18-.04-.24-.05-.47-.15-.35-.57,0-.22,0-.38.06-.61l.04-.15.07.14c.04.07.03.16.02.24,0,.08-.03.16-.03.23,0,.11,0,.19.23.17.14-.13.12-.23.07-.36ZM14.66,7.49h.07c.22,0,.56.13.73.3l.05.05-.05.04s-.11.09-.17.14c-.06.05-.13.11-.2.13-.22,0-.31-.11-.36-.24-.02-.06-.03-.13-.04-.19,0-.06-.01-.12-.02-.17v-.07ZM16.57,6.81l-.03-.02c-.5-.41-1.05-.67-1.75-.79h-.03s0-.1,0-.1h.03c.42-.11.98-.07,1.42.29.11.09.21.22.29.33.08.11.15.23.15.23l-.08.07ZM6.07,34.31s-.02.03-.02.09c0,.07.02.15.03.2.1.2.26.33.45.44.1.06.2.12.29.17.09.06.19.12.27.19.04,0,.08.02.11.04.03.02.07.04.1.06.05.03.09.06.13.06.02-.07.04-.15.05-.24.01-.09.02-.18.03-.26-.24-.12-.48-.23-.72-.35-.25-.12-.49-.25-.72-.4ZM6.51,32.85c-.02-.07-.08-.13-.16-.18-.05-.03-.1-.06-.15-.09-.05-.03-.1-.07-.15-.11-1.58-1.29-3.03-2.94-3.78-4.79-.09,0-.19-.02-.29-.03-.09,0-.17.01-.23.05.75,2.23,2.64,4.07,4.61,5.47.03,0,.04-.02.05-.09,0-.02,0-.04,0-.06,0-.02,0-.05.02-.07.01-.03.03-.07.07-.09ZM2.42,21.97c-.01-.12.02-.25.07-.38.04-.13.1-.27.14-.4.06-.24.04-.4-.31-.43l-.1.03c-.6,1.75-.52,3.77-.08,5.6.02,0,.05,0,.07-.01.04-.01.09-.03.13-.04.07-.02.16-.05.25-.06-.28-1.38-.5-2.87-.16-4.3ZM2.84,19.16c-.11.2-.21.41-.29.63.07.02.13.04.2.06.07.02.13.05.2.09.12-.2.23-.41.33-.63.11-.22.21-.45.32-.67-.11-.1-.25-.14-.38-.12-.13.21-.26.42-.38.64ZM3.22,26.15s-.03-.08-.03-.13c-.26-1.05-.32-1.98-.28-3.14-.1-.05-.21-.08-.31-.05-.12,1.2.05,2.52.41,3.6.04,0,.09,0,.14,0,.06,0,.11,0,.15-.02.02-.05.01-.09-.01-.15-.02-.04-.04-.07-.05-.11ZM2.71,27.62c-.09,0-.1.04-.1.08,0,.06.02.13.05.17.12.21.22.43.33.64.1.19.21.38.34.56.08-.04.17-.07.25-.09.08-.02.16-.04.24-.06-.24-.43-.49-.84-.69-1.29-.09-.11-.28-.06-.41,0ZM3.58,20.16c.16-.37.35-.74.54-1.1-.05-.1-.16-.13-.29-.14-.52.89-.87,1.84-1.07,2.87l.24.07c.07-.02.1-.09.11-.19,0-.06.01-.11.02-.17,0-.06.02-.11.05-.17.09-.41.24-.8.41-1.18ZM5.23,29.85c-.27-.38-.52-.73-.75-1.08-.24-.36-.45-.72-.64-1.12-.09-.11-.24-.12-.39-.09.05.17.11.32.19.47.09.17.19.33.29.5.32.58.66,1.06,1.05,1.52.04,0,.08-.04.13-.08.03-.03.05-.06.08-.08.01-.01.03-.03.04-.04ZM4.75,16.69c-.2.15-.37.33-.53.52-.15.18-.29.36-.43.54.06.03.11.07.17.1.06.04.12.07.18.09.29-.37.65-.72.96-1.07-.02-.02-.04-.04-.05-.07-.03-.03-.06-.07-.09-.09-.06-.05-.12-.07-.2-.04ZM4.71,30.1c-.18-.09-.43-.1-.59.02.71.95,1.64,1.73,2.59,2.41.02-.03.04-.06.06-.08.04-.04.08-.08.11-.12.07-.08.1-.13.08-.2-.76-.53-1.61-1.25-2.25-2.03ZM5.52,16.82c-.09.11-.19.22-.3.33-.11.11-.22.21-.33.32-.21.2-.41.41-.55.65l.29.2c.83-1,1.81-2.01,2.87-2.74,0-.06-.03-.15-.1-.21-.34.15-.65.37-.96.62-.31.26-.61.55-.91.82ZM5.83,15.79s-.09.06-.14.09c-.07.05-.13.1-.17.18l.24.17c.25-.21.52-.42.77-.62-.08-.02-.15-.02-.24,0-.11.03-.23.07-.34.09-.04.03-.09.06-.13.09ZM7.31,31.65s.02-.04.04-.05c-.22-.17-.44-.38-.67-.56-.24-.19-.49-.34-.76-.36-.07.06-.11.11-.11.16.41.4.86.71,1.32,1.02.07.01.09-.02.12-.09,0-.02.02-.04.02-.06,0-.02.02-.04.03-.06ZM5.75,33.58s-.02.05-.04.07c.02.07.08.14.15.19.09.07.19.12.27.17.21.11.41.24.62.36.19.11.38.22.58.3.05-.06.15-.12.24-.16.01-.03.02-.06.03-.08-.57-.36-1.14-.66-1.72-.99-.06-.02-.08,0-.1.05-.02.03-.03.06-.04.09ZM6.61,33.29c.01.05.05.1.1.15.1-.01.31.03.54.07.15.03.31.07.48.1-.31-.18-.62-.35-.93-.53-.06-.02-.08,0-.1.05-.02.03-.03.06-.04.09,0,.02-.02.05-.04.07ZM7.28,32.58s-.02.03-.02.09c0,.07.02.15.03.2l.02.03c.34.12.87.29,1.18.32-.19-.09-.38-.18-.56-.28-.22-.11-.44-.23-.64-.36ZM24.45,26.61s.1.03.14.04c.04,0,.07,0,.1,0,.26-.79.48-1.88-.11-2.54-.03-.03-.06-.02-.07,0-.06.88-.21,1.61-.33,2.48.1-.02.19,0,.26.03ZM24.86,27.3c-.02-.06-.04-.08-.08-.07-.18.41-.32.86-.47,1.28.03,0,.05,0,.08.01.05.01.09.03.14.04.08.03.14.05.2.03.06-.17.11-.34.15-.51.04-.18.07-.36.06-.55-.02-.04-.03-.08-.04-.11,0-.04-.02-.08-.03-.12ZM19.98,32.46s-.1.08-.15.11c-.05.03-.1.06-.15.09-.08.06-.14.11-.16.18.03.03.05.06.07.09,0,.02.01.04.02.07,0,.02,0,.04,0,.06,0,.07.02.09.05.09,1.97-1.4,3.86-3.24,4.61-5.47-.06-.04-.14-.05-.23-.05-.1,0-.2.02-.29.03-.75,1.85-2.2,3.5-3.78,4.79ZM23.92,29.43c-.09,0-.16.03-.21.11-.18.31-.42.6-.66.88-.12.14-.24.28-.35.42-.09.12-.18.24-.26.36.06.03.11.07.15.12.03.03.05.06.08.09.02.02.03.03.04.04.64-.5,1.15-1.2,1.57-1.86.04-.05-.01-.14-.06-.14-.06,0-.1-.02-.15-.03-.05,0-.09-.01-.14,0ZM23.55,21.58c.04.13.08.27.07.38.34,1.43.11,2.92-.16,4.3.09,0,.17.03.25.06.05.02.09.03.13.04.02,0,.05.01.07.01.43-1.83.52-3.85-.08-5.6l-.1-.03c-.35.03-.37.19-.3.43.03.13.09.27.14.4ZM22.82,18.53c-.13-.02-.27.02-.38.12.11.22.21.45.32.67.1.22.21.43.33.63.06-.04.13-.07.2-.09.06-.02.13-.04.2-.06-.07-.22-.17-.43-.29-.63-.12-.22-.25-.43-.38-.64ZM22.82,26.15s-.04.07-.05.11c-.03.06-.04.11-.01.15.04.01.09.02.15.02.05,0,.1,0,.14,0,.36-1.08.53-2.39.41-3.6-.1-.03-.21,0-.31.05.03,1.16-.03,2.09-.28,3.14,0,.05-.02.09-.03.13ZM23.36,27.63c-.16-.07-.35-.11-.43,0-.2.45-.46.86-.69,1.29.08.02.16.04.24.06.09.02.17.05.25.09.13-.18.24-.37.34-.56.11-.21.21-.43.33-.64.02-.04.05-.11.05-.17,0-.05-.02-.07-.08-.07ZM23.34,31.38c0-.07,0-.12-.03-.15l-.54.57s.02.08.08.14c.03.03.06.07.09.11.02.02.03.05.05.07.07-.04.11-.11.16-.18.03-.05.05-.1.08-.15.02-.05.05-.1.08-.14.01-.08.03-.18.03-.26ZM22.46,20.16c.17.38.31.77.41,1.18.03.05.04.11.05.17,0,.06.01.12.02.17.02.1.04.16.11.19l.24-.07c-.2-1.02-.55-1.98-1.07-2.87-.14.01-.25.04-.29.14.18.36.37.73.54,1.1ZM20.53,18.11s.03.07.04.1c.01.04.02.07.03.11.01.08,0,.17-.05.26-.18.11-.15.18-.11.29.01.03.03.06.04.09.01.03.02.07.03.11.01.08,0,.16-.06.25-.26.32-.54.29-.82.19-.13-.05-.27-.12-.4-.18-.1-.05-.2-.08-.29-.11l3.01,8.23c.09-.13.15-.28.2-.43.07-.19.13-.37.21-.56,1.06-2.99.31-6.39-1.9-8.66-.03.1.01.19.06.3ZM21.56,28.77c-.23.35-.48.7-.75,1.08.01.01.03.03.04.04.02.03.05.06.08.08.04.05.08.08.13.08.39-.46.72-.95,1.05-1.52.1-.17.2-.33.29-.5.08-.15.15-.31.19-.47-.15-.03-.3-.01-.39.09-.18.39-.4.76-.64,1.12ZM22.48,32.59c-.07,0-.11-.05-.14-.08-.02-.02-.03-.05-.05-.07,0-.01-.02-.02-.02-.03-.14.05-.26.13-.38.24-.11.1-.21.2-.31.3.02.02.04.05.06.08.01.02.02.05.03.07,0,.02.01.04.02.07.02.07.04.12.08.14l.66-.56c0-.07.02-.11.05-.15ZM21.29,16.69c-.08-.03-.14,0-.2.04-.03.02-.06.06-.09.09-.02.02-.04.04-.05.07.3.34.67.7.96,1.07.06-.02.12-.05.18-.09.06-.03.11-.07.17-.1-.14-.18-.28-.36-.43-.54-.16-.19-.33-.37-.53-.52ZM19.16,32.33s.08.08.11.12c.02.03.04.05.06.08.94-.69,1.88-1.46,2.59-2.41-.16-.12-.41-.11-.59-.02-.63.77-1.49,1.5-2.25,2.03-.02.07.01.12.08.2ZM21.64,28s.04-.05.05-.09c.02-.04.04-.09.06-.13-.03-.02-.07-.02-.1,0-.02.08-.03.17,0,.23ZM20.51,16.82c-.3-.27-.6-.56-.91-.82-.3-.25-.62-.47-.96-.62-.06.05-.11.14-.1.21,1.06.72,2.04,1.74,2.87,2.74l.29-.2c-.15-.23-.34-.44-.55-.65-.11-.11-.22-.22-.33-.32-.11-.11-.21-.22-.31-.33ZM17.78,22.72c-.05-.13-.1-.28-.14-.43-.04-.16-.09-.33-.15-.48-.11-.27-.26-.48-.56-.53l.41,1.76c.03.15.05.3.06.45.03-.29.15-.56.38-.77ZM16.58,27.48c1.47-.02,3.27.04,4.86.06.02-.02.04-.02.06-.03.01,0,.03,0,.04,0h.03s-2.16-5.99-2.16-5.99c-.25-.69-.48-1.4-.77-2.07-.09.03-.18.1-.27.17-.05.04-.11.09-.16.13-.05.04-.1.07-.15.1-.02.1.02.19.08.28.07.11.17.21.24.32.09.22.2.43.3.64.1.21.19.43.23.65l.02.08h-.08c-.08-.02-.16-.05-.23-.08-.07-.03-.14-.08-.21-.11-.12-.06-.23-.11-.35-.1.11.35.24.69.39,1.01.05.02.09.03.14.03.06.01.12.02.18.03.12.02.25.05.36.14.38.28.6.68.54,1.19l.32-.05c.22.03.27.26.29.39v.03c-.1.17-.24.24-.39.28-.07.02-.14.04-.22.06-.06.02-.13.03-.18.05-.1.12-.22.19-.36.21-.02.05-.06.08-.1.09-.02,0-.05.01-.07.01-.02,0-.04,0-.07,0-.09,0-.12,0-.14.06v.05s-.06,0-.06,0c-.13-.02-.25.04-.38.1-.07.03-.14.07-.21.09-.08.02-.16.04-.25.03-.12-.07-.33-.2-.25-.42l.02-.03c.28-.11.24-.17.17-.27-.05-.07-.12-.14-.19-.23-.07-.09-.14-.21-.18-.35v-.02c0,1.23-.38,2.42-.85,3.48ZM21.48,28.24l-1.04.03h1.04s0-.02,0-.03ZM21.41,27.99c.04-.22-.14-.26-.38-.21l-.02.2s.09.05.17.05c.08,0,.16-.02.23-.03ZM16.04,28.52c-.1,0-.16.05-.18.12,1.49.01,2.9.07,4.46.1.09-.05.19-.06.29-.06.1,0,.21.02.32.03.18.02.3,0,.36-.14l-5.25-.06ZM20.74,33.68s-.04-.06-.1-.05c-.58.33-1.15.63-1.72.99,0,.05.03.09.06.15.02.03.04.07.05.1,0,.02.01.03.02.05.23-.08.44-.19.65-.31.23-.14.45-.28.69-.41.08-.05.18-.1.27-.17.08-.06.13-.12.15-.19-.01-.02-.03-.05-.04-.07-.01-.03-.02-.06-.04-.09ZM20.78,27.89c0-.09-.06-.11-.17-.11-.09,0-.2.02-.28.03,0,.01,0,.02,0,.03,0,.03,0,.06,0,.09,0,.04,0,.07.02.08.05,0,.11,0,.16,0,.06,0,.13.01.18.01.09,0,.13-.01.09-.14ZM20.49,29.21c-.01.09-.01.16.01.22,0,.07,0,.12,0,.18,0,.03,0,.05,0,.06.08-.04.13-.15.09-.31v-.05s.03-.02.03-.02c.08-.04.13-.12.11-.22-.03-.09-.14-.12-.22-.09,0,.03,0,.06,0,.09,0,.04-.01.09-.02.14ZM20.08,15.7c-.11-.02-.22-.07-.34-.09-.08-.02-.16-.03-.24,0,.24.2.52.41.77.62l.24-.17c-.04-.07-.1-.13-.17-.18-.04-.03-.09-.06-.14-.09-.04-.03-.09-.06-.13-.09ZM19.7,35.88c.27-.08.55-.18.8-.29l.02-.15h-.1c-.15.07-.31.14-.46.24-.09.06-.18.13-.27.2ZM19.71,35.4c.1-.06.2-.11.29-.18.19-.12.35-.25.45-.44,0-.05.02-.13.03-.2,0-.05,0-.08-.02-.09-.23.15-.47.28-.72.4-.24.12-.48.23-.72.35.01.09.02.18.03.26.01.09.03.17.05.24.04,0,.08-.03.13-.06.03-.02.06-.05.1-.07.03-.02.07-.03.11-.04.09-.07.18-.13.27-.19ZM19.18,18.45c.33.09.66.16,1,.19.18-.05.21-.35.05-.43h-1.06s0,.08,0,.12c0,.05,0,.08.01.11ZM19.64,17.59c-.19.04-.39.1-.58.15,0,.03.01.05.02.08.01.03.02.06.04.08.16-.01.36,0,.57,0s.39-.02.54-.1c0-.02.01-.04.02-.06,0-.02.02-.05.03-.07.01-.03.01-.05-.02-.07-.2-.07-.4-.06-.61-.03ZM19.6,19.18c.19.07.38.12.56.11.13-.03.13-.23-.02-.34l-1.01-.25c-.05.06-.06.14-.07.24.18.08.35.16.53.23ZM18.72,31.65s.02.04.03.06c0,.02.02.04.02.06.03.07.05.1.12.09.46-.31.91-.62,1.32-1.02,0-.05-.03-.1-.11-.16-.27.02-.52.17-.76.36-.23.18-.45.39-.67.56.02.02.03.03.04.05ZM19.96,29s-.06.07-.06.14c0,.04,0,.08,0,.11,0,.04,0,.07,0,.11.02.05.1.06.21.06.06-.04.06-.08.06-.13,0-.03-.01-.07-.01-.11,0-.03,0-.07,0-.11-.05-.06-.12-.08-.2-.07ZM19.91,29.7s.02.1.02.15c0,.06,0,.12.01.17.01.1.04.16.1.18.18-.09.19-.35.09-.51-.02,0-.03,0-.05-.01-.03,0-.05-.01-.08-.01-.04,0-.07.01-.09.04ZM20.06,17.21l.02.04h.02s-.02-.03-.04-.04ZM20.11,27.9c.02-.11-.01-.12-.1-.12-.05,0-.1,0-.15.01-.03,0-.08,0-.12-.01-.05.04-.07.13-.04.21l.4.03s.01-.01.01-.03c0-.01,0-.02,0-.04v-.06ZM19.36,24.34l.06.1c.05-.02.11-.04.16-.05.07-.02.14-.03.21-.05.11-.03.18-.08.2-.18-.19-.06-.42.04-.63.18ZM18.83,17.42c.05.08.12.1.2.05.08-.04.16-.06.24-.08.08-.02.16-.03.24-.05.14-.04.22-.09.23-.21-.32-.13-.66.07-.92.3ZM19.5,29.04s-.05,0-.08,0c-.02,0-.04,0-.06,0-.04.04-.05.1-.05.18,0,.09.02.18.03.25,0,.02.02.02.05.02.02,0,.04,0,.06,0,.02,0,.04,0,.07,0,.05-.02.06-.06.06-.13,0-.04,0-.09-.01-.13,0-.04,0-.09,0-.13,0-.03-.03-.04-.06-.05ZM19.36,29.69s-.02.02-.02.03c0,.01,0,.02-.01.03,0,0,0,.02,0,.03,0,.04.01.08.02.13,0,.05.01.09.03.12.02.05.06.09.16.08.04-.03.06-.08.05-.15,0-.04,0-.08,0-.12,0-.03,0-.07,0-.1-.05-.04-.11-.06-.2-.05ZM18.34,37.09s0,.06.02.1v.05c.26-.1.49-.23.72-.39l.24-.3c-.1.06-.21.12-.31.18-.19.11-.38.2-.59.27-.08.02-.09.06-.08.1ZM18.83,15.12s.1.04.15.05c.12-.11.23-.05.31,0,.02.01.04.03.06.04.02.01.04.02.05.03-.05-.06-.1-.12-.15-.19-.06-.09-.12-.18-.17-.28-.1,0-.18.1-.26.22-.05.07-.03.1,0,.12ZM18.45,24.66s.02.04.03.06c.03.05.06.07.1.06-.02-.03-.03-.06-.04-.09-.02-.05-.03-.1-.04-.15-.03-.09-.05-.14-.12-.15,0,0-.01,0-.02.02,0,.02-.01.05-.01.06.03.04.05.09.07.13.01.02.02.05.03.07ZM17.95,22c-.1-.24-.19-.48-.24-.75v-.05c.18-.14.35-.09.48-.02.07.03.13.07.2.09.03.01.05.02.07.02-.2-.42-.41-.83-.71-1.2-.17.08-.33.18-.49.27-.17.1-.33.19-.51.26v.13c0,.11.05.16.13.2.05.02.1.04.14.05.05.02.1.04.15.07.3.19.47.47.59.78.12.3.19.63.3.92l.02.05-.05.02c-.34.17-.47.52-.44.9.06.29.16.6.44.75.02,0,.04.01.07.02.03,0,.05.01.08.01.04,0,.05,0,.06-.04-.03-.07-.08-.13-.13-.2-.05-.07-.11-.15-.15-.22-.1-.16-.16-.34-.08-.56.06-.16.23-.36.4-.42.3-.09.64,0,.81.27.05.1.07.19.07.28,0,.08-.02.16-.03.25.01.02.02.04.03.06.01.03.03.05.05.08.03.04.06.06.1.06.23-.2.13-.57.03-.83-.21-.37-.63-.46-1.04-.53l-.04-.02c-.09-.25-.2-.47-.3-.71ZM19.3,27.79s-.08,0-.11,0c-.03,0-.07,0-.11-.03-.05,0-.05,0-.05.05,0,.03,0,.07,0,.1,0,.02,0,.05,0,.08.04.02.09.03.15.03.04,0,.08,0,.12,0,.03,0,.07,0,.1,0,.01-.01.02-.03.02-.07,0-.03,0-.05,0-.08,0-.02,0-.04,0-.06-.03-.02-.07-.02-.13-.02ZM19.28,30.69s-.05.02-.08.03c-.02,0-.03,0-.05.01,0,.02,0,.03,0,.05,0,0,0,.02,0,.02.02,0,.03,0,.05-.02.03-.01.06-.02.08-.04.03-.02.06-.04.08-.07-.02,0-.05,0-.08,0ZM19.06,24.2c-.04-.08-.08-.12-.17-.09.03.19.13.37.24.51.03.02.06.02.08,0,.02-.02.03-.06,0-.09-.04-.05-.06-.11-.08-.16-.02-.05-.04-.11-.07-.16ZM18.15,36.78s.03.02.04.03c.01.01.02.02.03.04.3-.1.61-.22.87-.4-.35.05-.68.16-1,.29,0,.01,0,.01.03.03l.03.02ZM19.06,33.39s.02.07.04.09c0-.08-.02-.14-.07-.19.01.03.02.07.03.1ZM18.97,29.01s-.04,0-.07,0c-.03,0-.05,0-.08,0-.06.02-.08.07-.08.15,0,.04,0,.09.01.14,0,.04,0,.08,0,.12.05.04.11.06.19.05.06-.01.07-.05.07-.12,0-.04,0-.08-.01-.12,0-.04,0-.09,0-.14.01-.05,0-.06-.03-.06ZM18.78,29.67v.45s.04.04.07.04c.02,0,.04,0,.06,0h.05s.06-.1.05-.18c0-.04,0-.09,0-.14,0-.04,0-.09,0-.13-.03-.06-.13-.08-.23-.05ZM18.13,14.29s.05.04.08.06c.09.07.18.14.27.2.15.11.28.15.41.06-.24-.17-.48-.3-.75-.32ZM18.62,24.22s.03.09.04.14c.02.06.04.12.06.17.04.1.1.18.18.23-.03-.09-.06-.18-.1-.27-.04-.1-.08-.19-.14-.29-.02,0-.03,0-.05.02ZM18.72,30.71l-.02.2.2.02s.02-.04.02-.08c0-.03,0-.05,0-.08,0-.01,0-.02,0-.04l-.19-.02ZM18.93,18.23s0,0-.01,0c-.01,0-.02,0-.04,0-.07.02-.16.09-.23.15.09.04.17.06.26.02.04-.12.03-.16.02-.17ZM18.23,18.7l-.03.03c.08.02.15.04.22.06.09.03.18.07.27.1.07-.08.11-.15.13-.24l-.22-.07c-.12-.06-.2-.04-.27.01-.04.03-.08.06-.11.1ZM18.5,17.62s-.07.06-.1.09c-.05.05-.08.08-.09.12.08.03.18.06.27.07.09.01.16,0,.22-.02-.03-.15-.1-.27-.23-.33-.02.02-.05.05-.07.07ZM18.35,27.85c-.05.13,0,.15.04.16.03,0,.07.01.12.01.05,0,.09,0,.13,0,.13.02.15-.05.15-.21-.06,0-.12-.02-.18-.03-.07-.01-.13-.02-.21-.01-.03,0-.05.04-.05.08ZM17.97,14.45c.2.21.42.37.65.52,0-.01.01-.02.02-.03,0-.02,0-.03,0-.04l-.67-.44ZM18.16,18.06c-.11,0-.21.02-.28.11.02,0,.04.01.07.02.04.02.09.04.13.05.08.03.15.05.23.05.02-.02.05-.04.07-.06.03-.02.06-.04.09-.06.03-.02.05-.04.07-.07-.12-.02-.25-.05-.38-.06ZM17.92,19.31c.06,0,.12.01.17.02.05,0,.1.02.15.03.08-.04.21-.15.26-.25.03-.06.07-.13-.17-.11-.3-.1-.5,0-.67.23.07.04.16.05.25.07ZM18.43,30.69s-.07,0-.11.01c-.03,0-.06,0-.09,0-.02.03-.02.05-.01.08,0,.04.02.07.03.11h.08s.08,0,.11-.01c.04-.01.07-.03.05-.12,0-.08-.02-.08-.07-.08ZM18.22,17.3h.17s-.07-.06-.12-.05c-.01.01-.02.02-.03.03l-.02.02ZM18.23,28.98c-.07.04-.08.09-.07.18,0,.05.02.1.03.15,0,.04.01.09,0,.14,0,0,.02.01.05.01.02,0,.05,0,.07,0,.02,0,.05,0,.07,0,.05-.02.06-.06.06-.14,0-.05,0-.09-.01-.14,0-.04,0-.08,0-.13-.05-.06-.12-.07-.21-.07ZM18.36,30.15c.09-.11.09-.25.08-.41-.04-.06-.15-.06-.25-.03v.36c.05.05.11.1.17.09ZM18.02,24.83c-.09.04-.16.09-.2.17,0,.03.03.05.07.05.05,0,.11,0,.15-.02.04-.02.09-.04.14-.06.05-.02.1-.04.13-.07.04-.03.07-.06,0-.15-.1.02-.2.04-.29.08ZM17.78,17.71c.07.04.15.06.24.06.02-.02.05-.04.08-.06.03-.02.06-.04.09-.07.05-.04.06-.06.05-.09-.17-.06-.37.02-.47.16ZM18.08,37.37s.06-.03.07-.06c0-.02,0-.04,0-.06,0-.02,0-.04,0-.05,0-.07-.03-.13-.07-.19-.02-.03-.05-.06-.08-.09-.02-.02-.05-.05-.07-.07-.03,0-.06,0-.09.02-.03.02-.07.04-.1.06-.05.14-.14.25-.23.34-.05.05-.11.1-.17.14.02,0,.04-.01.06-.02.08-.03.17-.06.25-.09h.04c.12.07.26.12.38.06ZM17.7,17.08s-.08.06-.09.1c.02,0,.04,0,.06.01.03.01.07.02.1.04.06.02.11.04.18.03.08-.04.16-.11.18-.18-.06-.07-.14-.11-.23-.13-.03.03-.06.05-.08.07-.04.02-.07.04-.11.06ZM18.09,27.78c-.06-.02-.13-.02-.2,0-.04,0-.08.02-.13.03-.03,0-.05.01-.08.01v.15h.04s.07.01.11.02c.08,0,.15.02.21.01.08,0,.15-.02.04-.21ZM17.56,18.65s.1.02.15.03c.04,0,.09.02.12.03.09-.06.18-.13.22-.21l-.21-.1c-.14-.04-.3.02-.42.16.01.03.05.05.14.08ZM17.76,30.72v.16s.03.02.07.02c.03,0,.05,0,.08,0,.02,0,.05,0,.08,0,.02,0,.03-.02.03-.05,0-.02,0-.05,0-.07,0-.02,0-.04,0-.06-.05-.04-.15-.03-.25,0ZM17.77,19.51c-.21-.09-.4.02-.53.2l.24.08c.09.04.18.01.27-.04.04-.03.08-.07.12-.11.02-.02.04-.04.06-.06l-.15-.07ZM17.6,29.83s-.01.1-.01.14c0,.09.01.14.08.17.04.03.05.03.07.01.02-.01.03-.02.05-.04.01,0,.02-.02.03-.02.01-.09.04-.22.04-.33,0-.1-.02-.16-.07-.19l-.19.13s0,.08,0,.12ZM17.72,29.47h.03c.09-.03.11-.09.1-.19-.01-.1-.06-.2-.07-.29-.07-.02-.14-.02-.17,0,0,.05,0,.1,0,.14,0,.06-.02.12-.02.18,0,.11.02.18.13.2v-.05ZM17.31,18.09s.07,0,.1.01c.06,0,.11,0,.15,0,.07-.01.12-.04.13-.14-.15-.03-.3-.01-.39.13ZM17.56,17.41c-.07-.01-.13-.01-.18,0-.03.02-.06.04-.09.06-.03.02-.06.04-.09.06-.03.02-.06.04-.08.06.06.01.12.02.18.03.07.01.14.02.22.01.02-.03.04-.05.07-.07.03-.02.06-.04.09-.06.04-.03.06-.05.07-.07-.06-.01-.11-.03-.17-.04ZM17.43,16.85c.05.01.1.02.15.03.04-.02.1-.07.12-.1h0s-.02-.02-.07-.03c-.11-.06-.23-.02-.3.07.03.01.06.02.09.03ZM17.46,18.83c-.12-.07-.21-.04-.29.03-.04.04-.09.08-.13.13l-.03.04s.08.01.12.02c.08.02.17.04.25.05.13.02.22,0,.27-.17l-.18-.1ZM17.3,30.68s-.02.03-.02.07c0,.03,0,.05,0,.08,0,.02,0,.04,0,.06.02.01.04.02.08.02.13.04.21-.04.17-.16-.02-.05-.05-.05-.08-.06-.02,0-.05,0-.08,0-.03,0-.05,0-.08,0ZM17.04,27.98s.02.06.09.05c.26,0,.35-.07.31-.24-.14-.03-.3-.04-.4,0,0,.02,0,.05,0,.08,0,.04,0,.08,0,.1ZM17.33,17.03c-.13-.07-.27-.02-.35.08.02,0,.05,0,.07.01.05.01.1.03.15.04.09.02.15,0,.19-.07,0-.02-.03-.05-.07-.06ZM17.23,18.28c-.08-.01-.18,0-.26,0-.02.03-.05.05-.07.07-.03.02-.06.05-.09.07-.04.03-.06.05-.08.07.14.02.28.04.41.07.04-.05.09-.08.13-.12.02-.02.05-.04.07-.06.01-.01.02-.02.03-.03-.03-.04-.08-.06-.15-.07ZM16.54,19.77c.27-.05.51-.2.73-.41-.25-.12-.57-.14-.85-.04.02.08.03.16.05.23.02.08.04.15.08.21ZM16.64,20.17c.01.06.03.12.05.17.21-.07.4-.18.55-.35-.09-.02-.19-.03-.29-.03-.11,0-.22.01-.34.03,0,.06.02.12.03.18ZM17.03,30.1s.03.04.06.04c.02,0,.04,0,.06,0h.05c.08-.09.09-.22.09-.38-.06-.05-.13-.05-.24-.05-.04.04-.05.09-.05.16,0,.08.02.16.04.23ZM16.78,16.65s.07.03.11.03c.06.01.12.02.18.04.02,0,.04-.02.06-.03.03-.01.05-.03.07-.05.03-.03.05-.06.05-.09-.14-.1-.33-.04-.47.1ZM15.51,21.64h-.06c.04.36,0,.74.05,1.07.55.53,1.13,1.06,1.66,1.6.06-.03.08-.09.08-.19,0-.06,0-.12-.01-.18,0-.05,0-.11.03-.16-.07-.95-.94-1.65-1.74-2.13ZM17.19,29.52c.1-.12.08-.36.02-.5-.09-.06-.13-.02-.16.02-.04.06-.05.16-.06.25.01.17.06.28.19.23ZM17.16,17.9s0,0,0-.01c0,0,0-.02-.05-.05-.17-.07-.37,0-.49.13h.02s.07.04.1.05c.06.03.11.05.17.03.03-.03.07-.05.11-.07.02-.01.04-.02.06-.03.02-.01.04-.02.05-.03.01,0,.02-.02.03-.02ZM16.7,17.32s-.06.03-.09.04c-.04.02-.08.03-.11.06-.04.03-.08.06-.11.09l.4.08.27-.19s-.05-.05-.11-.06c-.04,0-.09,0-.13,0-.04,0-.08,0-.12-.02ZM16.09,23.71c-.2-.19-.41-.39-.59-.59h-.07c-.06.29-.16.59-.23.9l1.58,2.29c.05-.06.08-.13.11-.21.03-.1.06-.21.08-.3.18-.59,0-1.06-.32-1.48-.16-.21-.36-.41-.56-.61ZM16.95,30.86s.04,0,.06,0c.01-.15-.06-.23-.19-.19-.09.02-.11.08-.11.2.03.03.07.03.13.01.04,0,.07-.02.11-.03ZM16.29,18.89s.03.08.05.12c.01.03.02.05.03.08.21-.02.4-.17.54-.34-.09-.03-.17-.03-.26-.03-.11,0-.22.02-.36.01-.04.05-.03.09,0,.16ZM15.37,20.39h-.08c.01.13.02.27.03.41.01.14.03.28.06.4.51.32,1.01.62,1.5.95-.03-.41-.24-.74-.53-1.02-.15-.14-.31-.28-.48-.4-.17-.12-.34-.23-.5-.34ZM16.24,16.97s-.06.05-.08.08c.14.05.3.09.42.06.09-.02.2-.12.25-.22-.15-.05-.3-.08-.43-.04-.03.03-.05.05-.08.06-.03.02-.06.04-.09.06ZM16.43,27.77c-.08.06-.14.14-.16.22l.37.03c.13.02.18-.06.16-.23-.04-.03-.09-.03-.16-.03-.04,0-.08,0-.12,0-.03,0-.07,0-.1,0ZM16.31,16.34l-.25.22s.1.03.15.05c.07.02.14.02.21,0l.32-.2s-.06-.05-.14-.05c-.05,0-.1,0-.15-.01-.04,0-.09,0-.12-.01ZM16.64,29.72c-.05,0-.12,0-.17.01v.33s.08.05.16.04c.05-.01.07-.04.08-.1,0-.03,0-.07,0-.1,0-.04,0-.08,0-.11,0-.04-.02-.06-.08-.07ZM16.16,18.22s-.04.06-.02.12c.01.04.03.08.04.12,0,.02.02.05.02.07.18-.02.33-.11.46-.26-.05-.04-.11-.05-.19-.04-.05,0-.11,0-.16,0-.05,0-.1,0-.15,0ZM16.43,29.45s.01.03.04.04c.02,0,.04,0,.06.01.02,0,.03,0,.05.01.09-.02.12-.11.1-.21-.01-.2-.04-.35-.21-.32-.06.04-.08.1-.08.18,0,.09.03.19.03.29ZM15.99,17.91c.01.06.03.1.06.14.17-.05.34-.13.46-.26-.16-.07-.38-.11-.55-.04,0,.02,0,.04.01.06,0,.03.01.07.02.1ZM15.16,19.66c.03.12.07.24.13.35.22.08.44.18.65.29.18.09.37.19.56.27-.04-.28-.17-.57-.42-.74-.18-.08-.35-.2-.53-.3-.15-.08-.3-.16-.45-.19.02.11.04.22.06.32ZM16.5,30.88c0-.16-.03-.24-.17-.21-.05,0-.07.02-.08.06-.01.04-.01.09-.01.14.06.04.17.03.26,0ZM15.87,17.5c.15-.03.29-.1.39-.2-.15-.07-.33-.1-.47-.04,0,.04.02.09.03.13.01.04.03.08.05.11ZM16,25.98c-.12-.29-.29-.57-.46-.85-.17-.27-.34-.53-.49-.78-.06.02-.1.08-.13.19-.02.06-.04.13-.06.2-.02.07-.05.13-.09.19-.02.04-.05.08-.09.12-.03.04-.06.08-.1.12-.06.07-.11.13-.14.19.47.9.82,1.84,1.21,2.76.07-.02.12-.07.17-.13.03-.04.06-.08.09-.12.03-.04.05-.09.08-.13.34-.59.26-1.18.01-1.76ZM15.01,18.93c.21.07.41.17.61.26.18.08.35.15.53.2-.06-.28-.25-.47-.48-.61-.13-.08-.28-.14-.42-.2-.12-.05-.25-.09-.36-.14,0,.16.06.34.13.5ZM15.11,16.42c-.2-.13-.45-.21-.68-.19-.02.26.12.35.33.41.11.04.24.06.36.1.11.04.21.09.29.17.02,0,.03-.01.05-.01-.05-.06-.1-.13-.14-.2-.03-.05-.06-.1-.1-.15-.03-.05-.07-.09-.11-.13ZM15.62,16.92s.08.05.11.09c.06-.03.14-.06.2-.1.06-.03.11-.06.15-.1-.14-.05-.3-.07-.44-.04l-.02.15ZM15.85,29.41c0,.07.07.1.19.11.04-.08.04-.15.04-.21,0-.08-.01-.16,0-.27-.06-.05-.14-.07-.2-.04l-.02.42ZM15.87,29.82s0,.07,0,.1c0,.03,0,.06,0,.09.02.07.08.08.18.07.03-.03.05-.06.05-.11,0-.06,0-.13,0-.19-.02-.06-.09-.07-.2-.07-.02.02-.03.06-.03.11ZM15.54,16.57c.09-.04.19-.07.27-.12.07-.04.12-.08.17-.13-.19-.03-.39-.04-.55.01.02.1.05.19.11.24ZM15.71,30.84c.09.06.19.08.26.04.06-.11-.05-.25-.25-.19-.02,0-.02.02-.02.05,0,.02,0,.04,0,.06,0,.01,0,.02,0,.03ZM15.81,18.29c-.28-.32-.71-.47-1.08-.57,0,.05,0,.1.02.15.01.07.03.14.04.22.2.07.4.16.6.25.18.08.35.14.52.18-.01-.02-.02-.04-.03-.05-.01-.02-.03-.05-.04-.07-.01-.03-.02-.06-.02-.09ZM14.69,17.36c.34.14.67.32,1.03.44-.09-.51-.66-.82-1.15-.92,0,.02.01.04.02.07.01.05.02.11.02.16.01.1.03.18.08.25ZM15.32,29.71s-.04,0-.04.05c0,.03,0,.06,0,.09,0,.03,0,.06,0,.09.03.1.08.15.16.15.09,0,.15-.11.11-.24-.01-.04-.04-.07-.08-.09-.02-.01-.05-.02-.08-.03-.03,0-.05-.01-.08-.02ZM15.4,29.04c-.14.06-.14.25-.11.46l.21.02s.03-.11.03-.18c0-.04,0-.09,0-.13,0-.04,0-.08,0-.12-.03-.04-.08-.06-.13-.04ZM15.23,30.8c.01.08.03.11.1.1.08.01.08,0,.09-.04,0-.02,0-.05,0-.09v-.02s-.19.05-.19.05ZM13.7,20.88c.53.45,1.07.91,1.58,1.35.02-.79-.8-1.4-1.49-1.71-.03.03-.04.08-.05.15,0,.04,0,.08-.02.12,0,.03,0,.06-.02.09ZM13.9,20.27c.1.05.22.1.33.14.11.05.21.1.29.19.07.03.13.06.19.1.06.04.12.08.18.13.09.07.18.13.27.16-.06-.32-.19-.61-.46-.81-.17-.08-.34-.17-.52-.25-.16-.07-.31-.13-.46-.16-.1.28.01.4.19.5ZM13.56,21.19s-.04.1-.05.14c-.01.03-.03.07-.05.1.58.72,1.05,1.51,1.58,2.24.25-.49.1-.93-.21-1.33-.16-.22-.36-.42-.56-.62-.2-.2-.41-.39-.58-.58-.08-.05-.1-.02-.14.05ZM14.13,19.63c.1.02.21.06.28.13.18.09.38.19.56.22-.06-.19-.2-.35-.38-.47-.31-.17-.63-.33-.94-.31-.09.25,0,.32.17.36.1.03.21.04.31.07ZM13.32,26.3s0-.02-.01-.03c-.12.13-.12.4-.09.63.02.05.03.11.04.16,0,.03.01.05.02.06.07-.06.11-.16.12-.28.02-.14.01-.3.01-.43h0s-.07-.07-.09-.1ZM13.88,25.83c-.12.1-.25.2-.41.26,0,.03,0,.06.02.1,0,.03.02.06.02.08,0,.03,0,.06,0,.09h.02s0,.04,0,.04c.15.91.48,1.75.67,2.63.05,0,.1-.02.15-.05.07-.03.13-.07.2-.11.29-.23.45-.5.42-.88-.16-.85-.41-1.65-.74-2.43-.06.03-.11.06-.16.1-.07.05-.13.1-.19.16ZM14.71,29.83s-.01.03-.02.04c0,0,0,.02-.01.03.03.15.06.23.19.19.03,0,.05-.03.06-.06.01-.04.01-.08.01-.13-.04-.07-.12-.11-.2-.1-.01,0-.02.02-.03.04ZM14.85,29.32h-.03s-.02,0-.03,0c-.01,0-.03-.01-.05-.02-.05.01-.07.05-.09.14.01.14.05.21.19.16.05,0,.06-.02.06-.02,0,0,0,0,0-.01,0,0,0-.02,0-.03,0-.03-.02-.07-.02-.1,0-.03,0-.07,0-.11,0,0-.01,0-.03,0ZM14.66,30.78c-.01.09.07.15.19.13.03,0,.04-.03.04-.08,0-.03,0-.06-.01-.09,0-.02-.01-.04-.01-.05-.1-.04-.21,0-.2.09ZM13.61,18.65c0,.07,0,.12.02.17.23.07.45.17.66.28.11.05.22.11.32.16.08.04.16.07.24.1-.03-.26-.25-.45-.49-.58-.13-.06-.27-.13-.41-.18-.12-.05-.23-.08-.33-.09,0,.04,0,.1,0,.15ZM13.92,17.92c-.14-.07-.28-.12-.41-.14,0,.06,0,.13,0,.19,0,.07.03.13.07.18.11.02.21.05.31.1.1.04.2.09.3.14.18.09.34.17.51.2-.01-.07-.05-.13-.09-.2-.03-.04-.07-.08-.1-.12-.03-.04-.07-.07-.1-.1-.16-.07-.32-.16-.49-.24ZM13.17,21.76s-.06.07-.1.1c-.02.03-.05.05-.07.08.44,1.04.88,2.07,1.32,3.11.29-.25.39-.66.37-1.09-.1-.43-.32-.82-.57-1.2-.25-.37-.54-.73-.78-1.11-.05.02-.1.06-.16.11ZM13.46,17.46c.1.03.19.06.28.1.1.04.2.09.3.14.17.09.33.17.5.21-.03-.25-.18-.38-.4-.47-.12-.05-.25-.09-.38-.13-.11-.03-.22-.07-.31-.11-.01.07,0,.18,0,.26ZM13.38,16.86s.11.07.19.08c.04,0,.09.01.13.02.04,0,.09.02.13.04.06.01.12.03.18.06.06.03.11.06.17.09.09.05.17.08.25.08-.02-.25-.17-.42-.37-.53-.11-.06-.24-.11-.36-.14-.11-.03-.22-.06-.32-.08-.02.1,0,.26.01.38ZM14.15,30.71s0,.06,0,.1c0,.03,0,.06.01.08.15.08.26-.05.19-.18-.02,0-.03,0-.05,0-.02,0-.05,0-.07,0-.03,0-.06,0-.08.01ZM14.16,29.89s-.03.06-.04.1c0,.01.01.03.02.05,0,.02.02.04.02.05.01.02.02.03.06.01.11.01.15-.06.13-.18,0-.03-.03-.05-.07-.04h-.03c-.06-.02-.07,0-.09,0ZM14.09,29.48s0,.01,0,.03c0,.01,0,.02.01.03,0,.01,0,.03,0,.04,0,.03,0,.05-.03.07,0,0,0,.01.02.02.03.01.07.01.11,0,.09.02.1-.01.1-.06,0-.05-.02-.12-.04-.16-.03,0-.07,0-.1,0-.04,0-.07,0-.09.02ZM13.3,16.19s0,.02,0,.03c.2,0,.38.05.54.12.14.06.28.12.42.17-.01-.15-.12-.25-.25-.37-.14,0-.26-.02-.38-.02-.11,0-.22,0-.33.03,0,.02,0,.03,0,.05ZM12.6,22.22s-.04.03-.06.04c.23,1.18.5,2.34.9,3.54.31-.21.5-.54.45-.93-.29-.95-.69-1.84-1.09-2.74-.04,0-.09.02-.13.04-.03.01-.05.03-.08.05ZM13.67,30.17c.08-.05.1-.13.07-.21-.05-.01-.12-.03-.16-.02-.04,0-.07.02-.05.1.04.1.07.15.14.13ZM13.53,30.72v.17s0,.01.03.01c.02,0,.04,0,.06,0,.02,0,.04,0,.07,0,.05,0,.06-.01.07-.04,0-.02,0-.05,0-.08,0-.02,0-.04,0-.06-.05-.04-.14-.03-.23,0ZM13.23,28.61c.13.02.28,0,.4-.02.05,0,.08-.03.1-.07,0-.04,0-.06-.03-.07-.09.02-.19.05-.29.1-.06.02-.11.05-.17.07ZM13.52,29.47l-.02.27s.01.03.04.03c.02,0,.05,0,.07,0,.02,0,.05,0,.07,0,.03,0,.03-.02.03-.05,0-.02,0-.05,0-.07,0-.02,0-.05,0-.07-.04-.08-.13-.13-.19-.11ZM13.43,27.88s.09-.03.12-.06h-.03s-.06.05-.09.06ZM13.01,27.39s-.04,0-.06,0c0,.02,0,.04.01.06,0,.02.02.03.02.05,0,.02.02.04.02.06.06.11.16.21.29.16.14-.03.19-.17.16-.33-.01-.04-.02-.05-.05-.04-.08.11-.2.1-.28.08-.04,0-.09-.02-.13-.03ZM12.88,25.2c-.02.15-.04.3-.05.45-.02.28,0,.53.22.74,0,0,.01,0,.02-.03,0-.02,0-.05.02-.07,0-.02.02-.05.04-.08.09-.19.06-.38,0-.57-.03-.1-.07-.21-.11-.31-.03-.1-.06-.21-.07-.31-.01-.02-.02-.05-.03-.07v-.02c0,.09-.01.19-.02.28ZM13.06,30.7s-.05,0-.08,0c-.02,0-.05,0-.07,0-.01,0-.01.02-.01.04,0,.02,0,.04,0,.06,0,.02,0,.04,0,.07,0,.03.01.03.05.03.03,0,.06,0,.09,0,.02,0,.05,0,.08,0,.01-.01.02-.03.01-.06,0-.02,0-.05,0-.07,0-.02,0-.04,0-.06-.01-.01-.03-.02-.07-.02ZM12.88,29.59s0,.06,0,.1c0,.03,0,.06,0,.09l.16.02s.04-.03.05-.06c.01-.04.01-.08.01-.13-.02-.04-.07-.07-.13-.09-.08,0-.09.04-.1.08ZM13.03,29.99s-.05,0-.08,0c-.02,0-.04,0-.06,0-.02.01-.02.02-.02.03.01.07.06.1.13.11l.03-.02s.03-.02.05-.04c.02-.02.03-.04.03-.06-.01-.02-.03-.03-.08-.03ZM12.94,26.56s-.04-.07-.06-.1c-.03-.04-.06-.06-.09-.07-.01.18.02.35.08.52.03.03.05.06.06.08.02.03.04.06.06.09.03.04.05.06.08.06,0-.03,0-.05-.01-.08-.01-.04-.03-.09-.04-.13-.03-.08-.05-.18-.03-.3-.01-.02-.03-.05-.05-.08ZM9.75,19.98c-.58-.02-1.16,0-1.68-.01-.17.26-.17.58-.08.86-.21.87-.59,1.65-.76,2.51.03.1.1.13.21.15.12.02.26.02.37.04l.03.02c.12.23.31.33.52.43.05.03.11.05.16.08.06.03.11.06.16.1.11.07.2.17.29.3v.05c-.12.26-.34.59-.65.71,0,.08-.03.17-.05.25-.03.09-.06.18-.08.27-.04.18-.06.34.04.5.23.36.55.55.92.66.18.05.38.09.57.11.2.02.4.04.59.05.23.02.44-.02.64-.07.1-.03.2-.05.29-.08.1-.02.19-.05.27-.05h.03s.03.09.03.09l-.03.02c-.16.1-.33.18-.51.25-.16.06-.32.12-.47.19.01.08,0,.16,0,.23,0,.08-.03.17-.03.24-.01.14,0,.24.16.32.3.16.61.35.93.49.3.13.6.23.92.24-.02-2.29-.04-4.16-.32-6.35-.05-.41-.06-.87-.15-1.29-.09-.41-.27-.77-.67-1.01-.5-.2-1.07-.27-1.65-.3ZM11.41,19.78s-.08.04-.12.05c-.05.03-.1.05-.14.09.08.04.17.07.25.1.11.04.21.07.31.11.07-.02.13-.05.2-.08.05-.03.11-.06.16-.09-.15-.14-.35-.2-.58-.23-.03.02-.07.04-.1.06ZM11.27,19.17c-.05.02-.09.04-.12.07.02,0,.03.02.05.03.03.02.06.05.09.07.06.05.11.08.16.1.2.08.38-.01.53-.15-.13-.12-.29-.2-.47-.19-.04.02-.08.03-.12.04-.04.01-.08.02-.12.03ZM10.89,17.31s.05.05.1.07c.03.02.07.03.1.05.02.01.05.03.07.04.03-.01.07-.03.11-.04.04-.01.09-.02.13-.04.07-.02.12-.05.14-.1-.2-.13-.42-.09-.65,0ZM10.93,18.22s-.07.03-.1.05c-.04.02-.08.03-.12.05-.05.02-.09.04-.11.07.02,0,.04.02.06.03.04.02.08.05.11.08.07.05.13.07.22.03l.35-.16s-.09-.05-.15-.07c-.05-.01-.09-.03-.14-.04-.04-.01-.08-.02-.11-.04ZM11.06,17.71s-.06.03-.09.04c-.03.01-.07.02-.1.04-.04.02-.07.03-.08.06.02,0,.03.02.05.03.03.02.05.03.07.05.04.03.08.04.13.02.03-.02.05-.03.08-.04.03,0,.05-.02.08-.03.03-.02.06-.03.08-.06-.07-.05-.15-.09-.22-.1ZM11.23,19.57s-.02-.02-.03-.03c-.01,0-.02-.02-.03-.04-.22-.18-.46-.17-.72-.07.08.11.23.2.36.28.13.02.3-.05.43-.14h0ZM10.83,18.78c-.16.02-.31.05-.43.12l.03.03s.06.05.1.08c.06.04.12.07.18.06.09-.02.18-.04.26-.06.06-.02.12-.04.17-.07-.03-.03-.07-.05-.12-.08-.07-.03-.14-.05-.2-.08ZM10.66,16.19s.03.01.04.02c.02,0,.04.02.06.04.05.02.11,0,.17-.03.02,0,.03-.02.05-.03h-.32ZM10.81,16.49s-.08.05-.12.06c-.04.02-.09.03-.13.05-.06.02-.1.04-.13.07.18.06.37,0,.54-.1-.02-.02-.04-.03-.06-.04-.03-.02-.06-.04-.1-.04ZM10.53,16.94c-.08.02-.16.07-.24.1.02.03.05.06.09.09.03.02.07.03.1.04.03.01.06.02.09.04.08-.02.16-.03.23-.05.06-.02.11-.04.15-.08l-.18-.11c-.07-.06-.16-.06-.25-.03ZM10.1,17.55s.02,0,.03,0h.04s.03.02.05.03c.02.01.05.03.07.06.18.05.38,0,.53-.1l-.06-.05c-.1-.08-.21-.08-.33-.05-.11.03-.22.07-.32.1ZM9.98,18.05s.06.04.08.06c.05.03.1.06.15.09.09.02.17,0,.26-.04.08-.03.15-.07.23-.11-.07-.07-.19-.13-.31-.16-.14.04-.29.09-.41.17ZM10.12,16.35s-.08.06-.1.13c.19.04.38.02.51-.09l-.2-.12s-.07.02-.1.03c-.04.01-.08.03-.11.04ZM9.84,18.56l.13.09c.09.06.19.06.3.03.08-.02.16-.05.24-.09-.1-.08-.2-.13-.32-.18-.13.04-.26.08-.36.14ZM9.87,19.6s-.07.04-.11.06c-.03.02-.05.03-.07.05h.71s-.1-.07-.15-.1c-.09-.05-.19-.09-.3-.07-.03.02-.06.04-.09.06ZM9.66,19.05l-.05.04s.06.04.09.06c.05.04.1.08.15.12.19.05.39,0,.55-.09l-.33-.23c-.1-.05-.19-.03-.28.02-.05.02-.09.06-.14.09ZM10.01,16.7c-.11.02-.21.04-.28.09.01,0,.03.02.04.03.03.02.06.05.1.07.06.04.12.06.2.03l.21-.1s-.04-.05-.08-.06c-.03-.01-.07-.02-.1-.03-.03,0-.06-.02-.09-.04ZM9.83,17.12c-.06.03-.13.05-.19.08-.05.02-.09.04-.13.07.08.09.17.13.29.11.04-.02.08-.04.12-.05.04-.01.08-.02.12-.03.06-.02.09-.04.11-.06-.1-.06-.21-.09-.33-.11ZM9.71,16.19s-.04.02-.06.03l.14.02c.05-.02.12-.04.17-.06.03-.01.05-.02.07-.04-.07-.04-.19-.03-.28,0-.01.02-.03.03-.05.05ZM9.77,17.64s-.07-.01-.1-.02c-.03.02-.07.03-.1.04-.04.01-.07.03-.11.04-.05.02-.09.04-.12.07.09.07.2.11.32.13.07-.01.14-.04.2-.07.05-.03.1-.06.15-.09-.03-.04-.07-.06-.12-.08-.03-.01-.07-.02-.11-.03ZM9.29,18.21s-.09.04-.13.07c0,.01.02.02.04.03.02.01.04.02.06.04.02,0,.04.02.06.03.22.03.42-.02.56-.13l-.1-.07c-.12-.06-.22-.06-.32-.03-.05.01-.1.03-.16.06ZM9.71,16.54c-.06-.06-.16-.1-.26-.13-.12.03-.22.12-.27.24.19.03.39-.02.53-.11ZM9.06,18.76s-.07.05-.09.08c.25.11.53.06.73-.08-.14-.1-.32-.14-.47-.12-.02.02-.05.04-.08.06-.03.02-.06.04-.09.07ZM9.66,19.43c-.18-.16-.43-.21-.7-.23-.06.16-.1.33-.06.48.27-.01.57-.05.75-.25ZM8.98,16.96s-.04.06-.05.08c-.02.04-.03.07-.02.11.24-.01.47-.04.62-.17-.05-.05-.13-.07-.21-.08-.1-.01-.2,0-.29,0,0,.02-.02.04-.03.06ZM8.79,17.36l-.08.27c.06.03.13.03.21.02.05,0,.1-.02.15-.03.05,0,.1-.02.14-.02.02-.02.05-.03.08-.04.03-.01.06-.02.09-.03.04-.02.05-.03.06-.06-.21-.09-.43-.17-.64-.11ZM9.2,18c-.14-.12-.38-.14-.58-.12-.05.08-.08.18-.07.23.2.06.45,0,.65-.11ZM8.54,18.71s.06-.02.1-.03c.04-.01.07-.02.11-.02.37-.05.27-.13.22-.17-.11-.09-.34-.16-.46-.14-.08.09-.09.21-.08.37.04.01.08,0,.13,0ZM8.25,14.61s-.07.06-.11.09c.03-.01.06-.03.08-.04.02-.01.05-.02.08-.03.08-.06.18-.12.26-.18.05-.03.09-.07.13-.11-.09.03-.17.07-.26.13-.06.04-.12.09-.18.14ZM8.35,19.12c-.05.07-.08.16-.1.25-.01.05-.02.11-.03.16,0,.05-.02.1-.04.15.02.05.06.06.13.06.04,0,.09,0,.13,0,.04,0,.08,0,.12,0,.12-.09.17-.25.16-.45-.02-.07-.07-.11-.15-.13-.04-.01-.08-.02-.13-.03-.04,0-.07-.01-.11-.02ZM7.88,14.42s.01.02.02.03c.15-.01.27-.07.4-.13.09-.05.17-.09.26-.14-.24-.01-.49.08-.69.23,0,0,0,0,0,.01ZM8.01,24.21s-.02.05-.03.07v.05c.07.06.19.09.32.09.1,0,.2,0,.28,0l-.04-.03s-.1-.08-.15-.12c-.1-.07-.2-.12-.31-.14-.04.02-.06.05-.08.08ZM8.05,24.63c-.06.03-.1.09-.09.16.04.13.17.22.32.19.07-.05.15-.1.23-.16.06-.05.1-.1.12-.16-.07-.03-.15-.04-.24-.03-.11,0-.22.01-.33,0ZM7.65,19.46s0,.02,0,.03c.04.02.08.04.12.07.04.03.07.05.11.07.06.03.1.04.15,0l.1-.57c-.1-.08-.15-.04-.22.06-.04.06-.08.13-.12.19-.04.06-.08.11-.14.15ZM7.57,14.59c0,.07-.02.13-.06.17-.04.04-.08.08-.12.11-.02.01-.04.03-.06.05-.02.01-.03.03-.05.04-.01.02-.02.03-.03.05.03,0,.06,0,.08-.01.02,0,.04-.02.07-.04.02-.02.05-.03.07-.05.09-.07.22-.15.37-.06.06-.02.08-.03.08-.05,0,0,0-.02,0-.03,0-.01-.02-.02-.03-.04-.04-.04-.08-.08-.12-.13-.03-.03-.06-.07-.08-.11-.05,0-.09.04-.12.1ZM12.73,13.1c0,.21.17.37.37.37s.37-.17.37-.37-.17-.37-.37-.37-.37.17-.37.37ZM11.42,13.1c0,.21.17.37.37.37s.37-.17.37-.37-.17-.37-.37-.37-.37.17-.37.37ZM10.11,13.1c0,.21.17.37.37.37s.37-.17.37-.37-.17-.37-.37-.37-.37.17-.37.37ZM15.34,13.1c0,.21.17.37.37.37s.37-.17.37-.37-.17-.37-.37-.37-.37.17-.37.37ZM14.03,13.1c0,.21.17.37.37.37s.37-.17.37-.37-.17-.37-.37-.37-.37.17-.37.37ZM14.93,13.56c0,.08.06.14.14.14s.14-.06.14-.14-.06-.14-.14-.14-.14.06-.14.14ZM13.62,13.56c0,.08.06.14.14.14s.14-.06.14-.14-.06-.14-.14-.14-.14.06-.14.14ZM12.31,13.56c0,.08.06.14.14.14s.14-.06.14-.14-.06-.14-.14-.14-.14.06-.14.14ZM11,13.56c0,.08.06.14.14.14s.14-.06.14-.14-.06-.14-.14-.14-.14.06-.14.14ZM16.11,14.04h-.23v.95h.23v-.95ZM15.59,14.04h-.23v.95h.23v-.95ZM15.06,14.04h-.23v.95h.23v-.95ZM14.53,14.04h-.23v.95h.23v-.95ZM12.95,14.04h-.23v.95h.23v-.95ZM12.42,14.04h-.23v.95h.23v-.95ZM11.89,14.04h-.23v.95h.23v-.95ZM11.36,14.04h-.23v.95h.23v-.95ZM10.84,14.04h-.23v.95h.23v-.95ZM10.31,14.04h-.23v.95h.23v-.95ZM14,14.04h-.23v.95h.23v-.95ZM13.48,14.04h-.23v.95h.23v-.95ZM15.6,15.39h-.53v.56h.53v-.56ZM16.19,15.38h-.07v.53h.07v-.53ZM15.89,15.38h-.07v.53h.07v-.53ZM14.26,15.39h-.53v.56h.53v-.56ZM14.85,15.38h-.07v.53h.07v-.53ZM14.55,15.38h-.07v.53h.07v-.53ZM12.91,15.39h-.53v.56h.53v-.56ZM13.5,15.38h-.07v.53h.07v-.53ZM13.2,15.38h-.07v.53h.07v-.53ZM11.57,15.42h-.53v.56h.53v-.56ZM12.16,15.41h-.07v.53h.07v-.53ZM11.86,15.41h-.07v.53h.07v-.53ZM10.79,15.41h-.07v.53h.07v-.53ZM10.49,15.41h-.07v.53h.07v-.53ZM17.31,14.93c.17.06.35.12.52.19.03-.04.07-.08.1-.12.03-.04.05-.07.06-.11-.16-.09-.32-.21-.49-.28-.17-.08-.35-.11-.54-.02l-.15.12c.16.09.34.16.51.22ZM10.2,15.96v-.56h-.2c.08.28-.03.44-.18.56h.38ZM25.85,24.04s-.05.02-.08.03c-.02,0-.05.01-.07.02-.09.02-.14.03-.16.11.09.14.25.17.45.16.06-.07.04-.12,0-.18-.03-.04-.06-.08-.09-.13v-.02s-.03.02-.05.02ZM25.98,25.44l-.32,1.28s.05.03.08.05c.03.03.07.06.1.09.05.04.09.07.12.07.01-.45.07-.91.05-1.34-.01-.02-.02-.05-.02-.07,0-.02,0-.04,0-.06h0ZM25.62,24.9c-.02.08-.04.17-.07.24-.01.06-.03.11-.06.17-.02.05-.05.11-.07.16-.03.07-.05.13-.05.19.29-.32.54-.68.6-1.11-.17-.07-.24,0-.29.11-.01.03-.03.07-.04.11-.01.04-.02.08-.03.13ZM25.59,27.52s.08-.06.11-.09c.04-.03.07-.06.1-.09.05-.06.1-.12.12-.2-.18-.17-.42-.23-.69-.24-.05.03-.07.09-.07.18,0,.09.02.19.03.26.2.1.19.24.16.37,0,.03-.02.06-.02.09v.02c.06-.12.16-.21.26-.29ZM25.08,29.21s.09-.07.14-.09c.04-.05.08-.09.12-.13.05-.04.1-.09.14-.13.07-.07.12-.13.15-.2-.03,0-.05,0-.07-.02-.02,0-.04-.01-.06-.02h-.02s-.65.77-.65.77c.03,0,.07-.02.13-.07.04-.04.08-.08.12-.11ZM24.73,29.35h0c.03-.2.17-.37.3-.52.06-.07.13-.15.18-.23.04-.06.08-.12.1-.18h-.09c-.2.31-.39.6-.51.92,0,0,.02,0,.02,0ZM25.84,28.02s-.02.02-.04.04c-.05.05-.13.14-.26.09-.07.05-.12.09-.13.14l.04.08c.03.07.08.09.14.1.03,0,.07.01.11.02.03,0,.06.01.09.02.08-.05.07-.12.06-.22,0-.03,0-.06-.01-.09,0-.03,0-.06,0-.09,0-.03,0-.05.02-.08ZM25.43,26.09c-.1.2-.17.4-.16.62h.14c.09-.22.15-.44.2-.66.03-.12.06-.24.09-.36.01-.04.02-.09.04-.13-.1.17-.22.35-.31.53ZM25.7,23.34c-.01-.06-.05-.08-.14-.08-.05,0-.1,0-.14.01-.05,0-.1,0-.15,0-.21.02-.3.04-.33.08-.01.02-.01.03,0,.05,0,.02.02.04.03.06.02.03.05.07.09.11.04.04.07.08.11.12.05.06.11.12.15.19.02-.03.05-.06.08-.08.05-.05.11-.09.16-.13.1-.09.17-.17.15-.31ZM25.45,23.06s.08,0,.12-.01h.06c-.09-.47-.26-.9-.5-1.33.01.18.04.35.07.53.05.25.09.5.1.76.02.04.07.05.14.05ZM25.51,24.43s-.01-.01-.02-.02c-.02-.02-.02-.02-.04-.02-.12.2-.12.44-.09.7.03-.07.05-.14.07-.22.04-.13.08-.27.12-.4,0,0-.01-.02-.02-.03l-.02-.03ZM25.01,30.18c-.06.09-.12.17-.18.25-.11.15-.22.3-.28.46.01.01.02.02.03.04.02.02.03.04.05.06.03.03.05.04.07.04.22-.36.44-.71.42-1.05-.04.07-.08.15-.12.21ZM24.2,30.69s.05.03.08.04c.04.02.07.03.11,0l.7-.93.03.02v-.03s-.03-.09-.03-.09c-.36.22-.67.6-.92.96l.03.02ZM24.88,23.19l.23-.09c-.03-.48-.13-.94-.22-1.4-.06.19-.08.4-.08.62,0,.28.03.56.04.82,0,0,.01.02.02.03v.02s.01,0,.01,0ZM24.38,20.14c0,.11,0,.22.01.32.01.12.03.23.04.34.03.23.06.46.03.7v.03s-.1,0-.1,0v-.03c-.11-.39-.15-.84-.21-1.23-.04-.04-.03-.09-.02-.11h0c-.06-.06-.13-.08-.18-.06.02.26.07.5.14.74.07.24.15.48.23.72.03,0,.06,0,.09,0,.02,0,.04,0,.06,0l.07-.26c0-.22.03-.45.04-.67,0-.2,0-.39-.06-.56-.06,0-.11.02-.15.05ZM23.91,31.38c-.07.07-.12.13-.14.18.17-.14.37-.17.56-.19.31-.07.26-.17.17-.26-.11-.12-.33-.23-.45-.27-.19.04-.18.28-.14.5v.04ZM24.13,19.46c-.93-1.59-2.44-3.23-4.05-4.16,1.57,1.07,3.01,2.65,3.91,4.25l-.02.22c-.04.06-.05.09-.04.11,0,0,0,.01.02.02,0,0,.02,0,.04.01.04,0,.09.01.14.02.05,0,.1,0,.14.02.14,0,.18-.03.19-.05,0,0,0-.01,0-.03,0-.02-.02-.03-.03-.05-.02-.03-.04-.05-.07-.08-.03-.03-.06-.06-.09-.09-.06-.06-.12-.12-.15-.18ZM24.32,31.75c-.06,0-.11,0-.17,0-.1,0-.18,0-.25.05.03.14.12.24.25.35.12.03.14-.01.15-.13,0-.07.01-.14.03-.21,0-.02,0-.04.02-.06h-.02ZM23.79,32.06s0-.05-.02-.08c-.01-.02-.02-.04-.04-.07-.32.19-.62.51-.82.83l.87-.68ZM24.07,32.31c-.05-.05-.12-.09-.19-.11l-.95.68s.01.03.02.05c.44-.04.8-.31,1.13-.61ZM20.68,35.92s0,0,0-.02c0-.01-.01-.02-.02-.03,0-.01-.02-.02-.03-.04,0-.01-.02-.02-.03-.04-.26.08-.52.17-.73.28l.78-.15s.03,0,.03,0h0ZM21.89,34.55s0,.08,0,.11c0,.05,0,.09.02.12.54-.35,1.12-.95,1.42-1.48l-1.43,1.16s0,.06,0,.09ZM21.68,34.15s.03.02.04.04c.02.01.03.03.04.05.21-.12.4-.27.59-.42.17-.14.34-.28.51-.41-.46.13-.89.34-1.29.64,0,.03.02.06.06.09l.04.03ZM21.57,34.32c-.05-.08-.11-.14-.2-.15-.1.06-.16.13-.21.22-.03.05-.05.1-.07.15-.02.05-.04.1-.05.16-.05.06-.1.09-.15.12-.04.03-.09.05-.14.08-.05.03-.1.07-.12.11.13-.02.25-.07.36-.14.09-.02.14,0,.19,0,.05.01.09.03.14.04.09.03.17.05.27.03.09,0,.11-.05.12-.11.01-.07,0-.16.01-.24-.03-.04-.05-.08-.07-.13-.03-.05-.05-.1-.08-.14ZM2.56,32.39c.3.53.88,1.13,1.42,1.48.01-.03.02-.07.02-.12,0-.04,0-.08,0-.11,0-.03,0-.06,0-.09l-1.43-1.16ZM4.12,33.33l-.62-.54c0-.11-.02-.13-.04-.14-.15-.06-.29-.11-.44-.16.17.14.34.28.51.42.19.15.38.3.59.42ZM7.44,36.33c-.21-.06-.4-.16-.59-.27-.1-.06-.21-.12-.31-.18l.25.3c.22.16.45.29.7.39v-.05s.03-.07.03-.1c0-.04,0-.08-.08-.1ZM7.78,36.08c-.32-.13-.65-.24-1-.29.26.18.56.3.87.4,0-.02.02-.03.03-.04.01-.01.03-.02.04-.03l.03-.02s.03-.02.03-.03ZM8.52,36.76c-.06-.05-.11-.09-.17-.14-.1-.09-.18-.2-.23-.34-.03-.02-.07-.04-.1-.06-.03-.01-.06-.02-.09-.02-.02.02-.05.05-.07.07-.03.03-.05.06-.08.09-.05.06-.07.12-.07.19,0,.01,0,.03,0,.05,0,.02,0,.04,0,.06,0,.03.02.05.05.06.13.06.27.02.38-.05h.04c.1.02.18.06.26.09.02,0,.04.01.06.02ZM4.62,34.31s.01.04.02.06c.02.07.02.14.03.21.01.12.03.16.15.13.12-.11.22-.21.25-.35-.07-.05-.15-.05-.25-.05-.06,0-.11,0-.17,0h-.02ZM5.23,34.48s-.02.04-.04.07c-.01.03-.02.05-.02.08l.87.68c-.2-.32-.5-.64-.82-.83ZM4.9,34.88c.33.3.69.57,1.13.61,0-.02,0-.03.02-.04l-.95-.68c-.08.02-.14.06-.19.11ZM.59,24.43c-.17.46-.18,1.12-.08,1.64.03-.01.05-.03.08-.06.02-.02.05-.05.07-.07.02-.02.04-.04.06-.05l-.13-1.45ZM.95,25.82s.04,0,.05,0c.03,0,.06,0,.1.02.04,0,.07,0,.09,0-.06-.43-.19-.84-.38-1.21.02.19.03.38.05.57.02.22.05.43.1.64ZM1.15,27.04s0-.08-.01-.13c0-.05-.02-.09-.03-.14,0-.05-.02-.1-.02-.15.03-.07.05-.11.07-.16.02-.04.04-.09.05-.13.03-.09.03-.17.01-.27-.06-.05-.13-.05-.21-.04-.09.02-.18.05-.27.07,0,.01-.02.02-.03.03-.01.01-.03.03-.04.04-.03.03-.06.06-.08.08-.03.05-.04.08,0,.14.05.09.11.12.19.16.04.02.08.04.12.06.04.03.08.06.11.1.03.13.07.24.13.33ZM.5,26.77s0,.03,0,.05c-.01.06-.04.12-.06.18-.04.1-.04.14.06.16.14-.04.26-.08.33-.18-.04-.06-.1-.1-.18-.13-.05-.02-.09-.04-.14-.07h0ZM.92,27.14s-.04.02-.05.04c-.02.02-.04.03-.05.06l.42.87c-.04-.33-.15-.69-.33-.96ZM.5,27.33c.14.37.33.73.66.93,0,0,.02-.02.03-.02l-.5-.92c-.07-.01-.13,0-.19.01ZM.88,28.46c0,.5.24,1.13.52,1.59.02-.02.04-.05.06-.09.01-.03.03-.06.04-.1,0-.02.02-.05.03-.07l-.65-1.33ZM1.72,29.66s.03-.02.05-.02c.03,0,.06-.01.1-.02.05,0,.07-.02.08-.04-.21-.39-.49-.73-.81-1.01.09.17.17.35.26.52.1.2.2.39.32.57ZM2.36,30.74s-.03-.08-.06-.12c-.03-.04-.05-.08-.08-.12-.03-.04-.05-.09-.07-.14,0-.07,0-.13.01-.18,0-.05,0-.1,0-.15,0-.09-.03-.18-.09-.26-.07-.02-.14,0-.22.04-.04.03-.08.06-.12.09-.04.03-.07.05-.11.08-.01.03-.03.07-.04.1-.02.03-.03.07-.04.1-.02.06-.01.09.05.13.08.06.15.08.24.09.05,0,.09,0,.14.02.05,0,.1.03.15.06.08.11.15.2.25.27ZM1.72,30.7s0,.03,0,.05c0,.06-.01.13-.02.19-.01.11,0,.14.1.14.13-.07.24-.14.29-.25-.05-.06-.12-.08-.21-.09-.05-.01-.1-.02-.15-.03h-.01ZM2.71,32.03s0-.04,0-.06l-.67-.76c-.07,0-.13.02-.19.06.23.33.49.64.86.77ZM2.67,19.02c-.06-.03-.13-.01-.2.02-.06.24-.11.47-.16.68-.06.23-.12.44-.2.63v.03s-.11-.02-.11-.02v-.03c0-.24.05-.47.11-.69.03-.11.06-.22.08-.34.02-.1.04-.21.05-.32-.04-.04-.09-.06-.14-.07-.07.16-.11.35-.13.55-.02.22-.02.45-.04.67l.04.27s.04,0,.06,0c.03,0,.06.01.09.02.11-.23.22-.46.32-.69.1-.23.18-.46.23-.72ZM2.69,18.45c.89-1.21,2.11-2.34,3.43-3.19-1.39.76-2.65,1.91-3.55,3.07-.04.05-.11.11-.17.16-.03.03-.06.05-.1.08-.03.03-.06.05-.08.07-.02.02-.03.03-.04.05,0,.01,0,.02,0,.03,0,.02.05.05.18.07.04,0,.09,0,.14,0,.05,0,.1,0,.14,0,.02,0,.03,0,.04,0,0,0,.02,0,.02-.01,0-.01,0-.04-.02-.1v-.22ZM1.62,20.93c-.27.33-.47.86-.54,1.31.02,0,.05-.01.08-.02.03-.01.05-.03.08-.04.02,0,.04-.02.06-.03l.32-1.22ZM1.52,22.17s.03,0,.04.01c.03.01.05.03.08.04.03.02.05.02.07.02.08-.37.09-.73.05-1.09-.04.15-.08.3-.12.45-.05.18-.09.37-.11.56ZM1.03,22.73l.09-.07.03.03s.06.07.09.1c.03.04.06.08.08.14-.01.11-.01.21,0,.3,0-.03.02-.06.02-.09,0-.04.01-.08.02-.13,0-.04.02-.09.03-.13.05-.05.08-.08.11-.11.03-.03.06-.06.08-.1.05-.06.08-.13.09-.22-.03-.05-.09-.08-.16-.09-.08-.01-.17-.01-.24-.02,0,0-.02.01-.03.02-.02,0-.03.02-.05.02-.03.02-.06.03-.09.04-.04.03-.06.05-.04.11,0,.04.02.06.03.09l.02.04-.1.05-.02-.03-.02.02s-.04.04-.07.06c-.02.02-.04.04-.06.05-.07.06-.08.08-.02.14.12.03.23.04.32,0,0-.03,0-.06-.02-.08,0-.02-.02-.04-.03-.05-.01-.02-.03-.04-.04-.06l-.02-.03ZM1.11,23.14s-.04,0-.05.02l-.04.81c.1-.26.16-.57.14-.84-.02,0-.03,0-.05,0ZM.76,23.1c-.04.34-.05.69.11.99,0,0,.01,0,.02,0v-.92s-.08-.06-.13-.07ZM12.99,28.29s.09.07.12.08c.05-.01.1-.02.15-.03.05,0,.11,0,.16-.02.1-.01.19-.03.26-.08,0-.05-.02-.09-.04-.11-.05.05-.13.07-.2.08-.08.01-.17,0-.25,0-.09,0-.17.01-.25.02,0,0,.01.02.04.05ZM13.27,28.1s-.06,0-.09,0h.02s.05,0,.07,0ZM4.2,33.62s-.02.04-.04.06c0,.08,0,.17.01.24.01.06.03.1.11.11.11.03.19,0,.28-.03.05-.02.09-.03.14-.04.05-.01.11-.02.17-.01.13.08.25.13.38.15-.03-.04-.07-.07-.12-.11-.04-.03-.09-.06-.14-.08-.05-.03-.09-.06-.13-.1-.03-.07-.05-.13-.07-.18-.02-.05-.04-.1-.07-.15-.05-.09-.12-.16-.21-.22-.04,0-.08.02-.11.04-.02.03-.05.07-.09.09-.03.04-.06.09-.08.14-.01.03-.03.06-.04.08ZM4.45,32.93c-.1-.1-.2-.2-.31-.3-.12-.1-.25-.19-.38-.24,0,0-.01.02-.02.03-.02.02-.03.05-.05.07-.02.03-.05.07-.1.08.27.12.54.28.79.46.02-.04.04-.08.07-.11ZM3.05,32.12s.03-.05.05-.07c.03-.04.06-.07.09-.11.06-.06.08-.1.08-.14l-.54-.57c-.04.06-.04.16-.02.28.03.07.05.13.07.2.05.08.09.17.14.25.04.06.08.11.14.15ZM2.63,31.69c-.01-.06-.02-.1-.03-.15-.09-.22-.22-.41-.38-.56-.02.02-.03.03-.04.05-.02.02-.03.04-.03.07l.48.6ZM11.74,16.16v-.04s-.04,0-.04,0l-.02.16h-.04s-.08,0-.11-.02c-.03-.01-.05-.03-.08-.05-.04-.02-.07-.04-.12-.02-.02.03-.05.05-.08.07-.03.02-.06.03-.09.05-.04.02-.07.04-.08.07.08.05.18.06.28.06.12,0,.23-.03.34-.04h.06s0,.42,0,.42l-.09-.05c-.22-.13-.45-.09-.63.11.1.07.2.08.31.07.14-.01.28-.06.4-.08h.11c-.04-.24-.07-.47-.11-.7ZM13.01,16.1h-.11.11ZM13.49,20.48l-.07.04s-.08.02-.11.01c-.03,0-.06-.01-.09-.02-.06-.02-.09-.02-.12,0-.05.05-.09.11-.11.16.1.08.21.06.33,0h.03s.06.06.06.06l-.02.03s-.08.08-.12.11c-.02.02-.04.04-.07.05-.02.02-.04.04-.06.06-.07.08-.1.14-.06.22l.03.04-.04.03s-.04.03-.06.06c-.02.02-.05.05-.07.07-.05.04-.12.09-.2.09h-.05v-.05c-.31-1.5-.59-3.02-.84-4.56l-.22.22.23.16c.05.07.06.21-.05.27h-.03c-.06-.01-.11,0-.18.02-.03.01-.07.03-.1.05-.02,0-.04.02-.06.03h.01s.01.03.02.03c.12.06.23.09.33.02h.03c.1,0,.13.07.14.12,0,.02,0,.04,0,.06,0,.02,0,.02,0,.03l.03.03-.03.04c-.08.11-.18.08-.24.05-.03-.01-.06-.03-.09-.04-.02,0-.04-.01-.06,0-.03.01-.06.03-.1.04-.03.01-.07.02-.1.03-.05.02-.09.04-.11.07.11.1.26.14.43.12.01,0,.03,0,.05-.02.02-.01.05-.02.08-.03.05-.02.14-.03.19.06v.03c-.01.11-.09.13-.14.15h-.04s-.01.01-.02.02c0,0,0,0,.01,0,.01,0,.03,0,.04.01h.05c.07.03.16.07.16.2v.04c-.1.07-.17.06-.23.03-.03-.02-.05-.04-.08-.05l-.03-.02s-.02-.01-.02-.02c-.16-.06-.34,0-.48.09l.24.15c.07.02.15,0,.25-.03.05-.02.1-.03.15-.04.05-.01.11-.02.16-.01h.05s0,.05,0,.05c0,.1-.06.14-.11.16-.02,0-.03,0-.05.02l.26.22c.11.15.04.25-.04.31-.02.01-.04.03-.06.04-.02.01-.04.02-.06.03l-.04.02.02.02s.06.04.1.06c.07.04.14.09.18.18.05.58.24,1.11.29,1.68,0,.03.02.07.04.09.01.02.02.02.05,0,.38-.15.62-.56.8-.92,0-.08.01-.16.01-.23ZM13.24,18.73h-.02s-.1,0-.13-.02c-.04-.01-.07-.03-.11-.05-.07-.03-.12-.03-.17.01-.03.05-.07.07-.1.09h-.02s-.01.02-.01.02c.01.04.04.07.08.09.03.01.05.02.08.03.03,0,.05.02.08.02.1-.01.19-.05.26-.12l.07-.07ZM13.02,16.15c0,.07-.03.12-.07.15-.02.01-.03.03-.05.04l.16.21-.04.04s-.06.06-.1.09c-.02.02-.03.04-.04.05.01.01.02.02.04.03.02.02.05.03.07.05.06.04.1.1.05.2-.02.08,0,.12.04.16,0,.01.02.03.02.04,0,.01.02.03.02.05,0,.04,0,.08-.03.13-.02.02-.04.04-.05.06-.02.01-.03.03-.04.04-.01.01-.02.02-.02.03.1.05.25.19.18.34-.01.05-.04.09-.07.11-.02.01-.03.03-.05.04,0,.01.02.02.03.03.01.01.03.02.04.04.02.01.03.03.04.04.06.06.1.15.06.28l-.09.09.2.21h-.06v.13s0,.03,0,.04c0,.01,0,.02-.01.04,0,.02-.02.05-.03.07,0,.03,0,.05.04.07h.04s-.03.12-.03.12h-.04c-.16-.06-.32-.09-.41,0,.04.07.08.14.13.19.05.04.09.05.15-.01,0,0,.02-.02.03-.03.01-.01.02-.02.03-.04.02-.02.06-.06.11-.07h.03s.04.08.04.08l-.02.02c-.09.07-.08.11-.08.13,0,.02.02.03.04.05.01.01.02.02.03.03l.04.03c.1.09.22.21,0,.37l.09.07c.03.07.02.13,0,.18,0,.02-.02.04-.03.06,0,.02-.02.03-.03.05-.03.05-.04.07.04.12l.07.04c.01-.43-.02-.85-.06-1.26-.06-.5-.14-1-.21-1.51-.04-.26-.05-.54-.08-.83-.02-.25-.05-.49-.12-.71ZM12.98,20.14s-.02.02-.02.02c.02.02.05.03.09.05.04.01.08.02.11.04.05-.03.1-.07.11-.11-.06-.04-.13-.06-.22-.05,0,.01-.02.02-.03.03-.01.01-.03.02-.04.03ZM13.25,19.71s-.03-.03-.05-.03c-.02-.01-.05-.03-.07-.04-.04-.02-.07-.03-.11-.02-.02.02-.04.03-.06.04-.02.01-.04.02-.07.04-.02,0-.03.02-.03.03.02,0,.03.01.04.02.03.01.06.03.09.04.04.02.08.03.13.02.01-.02.03-.04.05-.05.01,0,.02-.01.03-.02h.03s.01-.02.01-.02ZM12.97,18.25c-.16-.06-.31-.06-.4.06l.2.11c.1.03.2-.04.2-.17ZM12.6,17.84s.06.04.08.07c.05.04.09.05.14.03.19-.06.15-.12.12-.15-.05-.06-.17-.11-.25-.11-.05.03-.11.08-.14.13.02,0,.03.02.05.03ZM12.76,20.83s0,.03,0,.05c0,.02,0,.03-.01.05.01.03.02.05.02.08,0,.03,0,.06,0,.09,0,0,0,.01,0,.02,0,0,.02,0,.03,0,.1-.06.15-.13.18-.24l-.03-.02s-.05-.02-.08-.03c-.04,0-.07-.01-.11,0ZM12.66,20.38s.02.07.03.1c0,.03,0,.07,0,.11,0,.01.02.01.03.01.01,0,.03,0,.05-.01.02,0,.04-.02.07-.03.06-.02.12-.09.14-.15-.03-.03-.07-.05-.12-.06-.05-.02-.11-.03-.16-.04-.04.01-.04.03-.03.07ZM12.71,17.04c.05-.03.1-.07.11-.11,0,0,0-.01,0-.01,0,0-.02-.02-.07-.02-.11-.06-.21,0-.28.11.08.05.17.07.24.03ZM12.58,20.04v.04h.12c.17-.03.14-.09.12-.12-.04-.06-.14-.11-.23-.08-.02.02-.03.05-.03.09,0,.02,0,.05.01.07ZM12.43,16.6h.02s.02.01.03.01c.02,0,.03.02.05.04.11.04.21-.01.21-.11-.1-.03-.22,0-.31.06ZM12.48,16.25s.02.01.03.02c.09.04.2.04.25-.02-.1-.02-.21-.03-.29,0h0ZM12.5,19.43l-.02.11s0,.04.02.06c0,.02.01.04.02.05,0,.01.02.03.07,0,.02-.02.05-.03.07-.05.02-.01.05-.03.07-.04.03-.02.05-.04.05-.07-.07-.07-.17-.08-.28-.07ZM12.46,18.96s-.05,0-.06.02c.01.03.02.05.02.08,0,.03,0,.06,0,.09,0,.04.01.05.04.04.08,0,.17-.06.21-.13l-.06-.04s-.06-.01-.08-.02c-.03-.01-.06-.02-.08-.03ZM12.34,18.47c0,.07,0,.16.03.22.1-.02.19-.06.24-.12-.02-.01-.03-.02-.05-.03-.03-.02-.06-.04-.09-.05-.05-.02-.09-.03-.13-.01ZM12.54,18.06c-.08-.07-.21-.11-.31-.1-.02.07,0,.16.05.23.1-.01.19-.06.26-.13ZM12.17,17.61c0,.1.07.14.13.11.02-.02.04-.03.06-.04.02,0,.04-.02.06-.03.02-.01.03-.02.03-.04-.07-.07-.18-.09-.28,0ZM12.2,16.93c.12-.03.16-.06.16-.07,0,0,0,0,0-.02,0,0-.01-.02-.03-.03-.07-.06-.21-.1-.28-.09-.02,0-.02.01-.02.03,0,.02,0,.03,0,.05,0,.02,0,.04,0,.06,0,.06.09.1.16.06ZM11.97,16.35s0,.09,0,.12c0,.03.02.05.05.05.03,0,.06-.01.09-.02.03,0,.06-.02.1-.03.04-.02.08-.03.1-.06-.09-.09-.24-.13-.35-.06ZM12.11,17.16v.14s.02.01.03.02c.01,0,.02,0,.03,0h.03s.05-.03.05-.03c.02-.01.03-.02.05-.03.01-.01.03-.03.03-.05-.08-.04-.15-.07-.22-.04ZM8.65,19.01c.08.04.12.05.17-.02-.06-.04-.12-.05-.19-.04-.03,0-.06,0-.09,0,.04.02.08.04.12.06ZM13.37,34.25c.09.08.2.08.31.05.06-.02.12-.04.18-.06.06-.02.12-.04.18-.04h.07s-.01.07-.01.07c-.02.11-.09.14-.15.17-.01,0-.03.01-.04.02-.01,0-.02.01-.03.02-.02,0-.03.02-.04.04,0,.02,0,.04.02.06,0,.01.01.02.02.04l.03.04s.07.1.07.17c.15.03.23.13.3.22.02.02.04.05.06.07.02.02.04.04.06.06.03.03.06.05.1.07.28-.39.29-1.06.09-1.5-.08.03-.14.07-.21.12-.04.03-.08.07-.12.1-.04.03-.09.07-.14.1-.22.11-.48.18-.75.19ZM12.74,34.82s-.09-.03-.13-.06l-.04-.04.04-.04c.05-.05.06-.07.06-.08,0,0,0-.01-.01-.02,0,0-.02-.02-.03-.03-.02-.01-.04-.03-.05-.04-.02-.01-.04-.03-.06-.05-.04-.04-.08-.09-.08-.16v-.15s.1.11.1.11c.1.1.22.11.36.08.07-.01.15-.04.22-.06.04,0,.07-.02.11-.03-.28,0-.55-.07-.77-.19-.06-.02-.12-.05-.17-.09-.05-.04-.1-.08-.14-.12-.08-.07-.15-.13-.24-.15-.2.27-.22.67-.17,1.05.03.05.05.11.07.17.02.06.04.12.06.17.04.09.08.16.14.21.18-.28.51-.41.8-.48-.02,0-.03,0-.05,0ZM14.19,38.25s.01.01.02.02c.02.02.05.05.07.07.03.03.05.06.07.1.01.03.02.07.03.1,0,.03.01.06.02.09v.02c.27-.25.41-.68.19-.98-.03.02-.06.09-.11.19-.06.12-.13.28-.26.37-.01,0-.02,0-.02.01ZM14.32,36.18c-.17-.02-.35-.06-.52-.07-.1,0-.2,0-.29.02.13.02.26.03.39.05.18.02.35.04.51.08-.01-.01-.02-.02-.04-.04l-.03-.02h-.02ZM14.06,35.27s-.04-.02-.06-.03c-.03-.01-.05-.02-.08-.02-.03,0-.04,0-.05.01.07.08.08.19.08.28,0,.05,0,.1,0,.15,0,.04,0,.09,0,.13.03.06.08.09.16.1.04,0,.09,0,.13,0,.03,0,.06,0,.08,0v-.03s-.07-.1-.09-.15c-.02-.06-.04-.12-.05-.18-.03-.11-.05-.2-.12-.27ZM14.12,36.47s-.06-.03-.08-.03c-.05-.01-.08,0-.11.02-.02.33.04.63.05.94,0,.07-.02.15-.03.22-.02.07-.03.13-.05.2-.02.1-.04.19-.02.28.23-.16.33-.38.36-.65.02-.15.01-.31,0-.47-.01-.16-.03-.32-.04-.48-.02-.01-.04-.02-.06-.03ZM13.27,35.19c-.11,0-.2.04-.25.12-.05.14-.02.37.05.55.09.02.19.02.3,0,.1-.01.21-.04.31-.05,0-.1.03-.22.03-.33,0-.12-.03-.22-.11-.27-.05,0-.1-.01-.15-.02-.06,0-.11-.01-.17,0ZM12.61,36.31s-.08.03-.11.05c-.05.03-.07.05-.08.07.1,0,.2,0,.3-.01.12,0,.25.01.36.1l.02.04c-.03.27,0,.5.02.74.03.24.06.47.06.73,0,.03.03.04.06.04.12-.49.11-1.18.03-1.72-.15-.11-.36-.15-.55-.09-.03.01-.07.03-.11.05ZM12.4,35.4c-.11.11-.14.3-.13.46,0,.03.02.04.05.05.02,0,.04,0,.06.01.02,0,.04,0,.06,0,.03-.01.04-.03.04-.06,0-.02,0-.05,0-.07,0-.02,0-.05,0-.07-.03-.14.03-.25.09-.34.03-.04.07-.09.1-.13l.02-.02c-.12.02-.22.08-.31.17ZM12.47,36.15s-.06,0-.09.02c-.09.02-.18.05-.27.07-.04.05-.09.1-.09.15.08.02.17-.02.28-.1.06-.04.11-.09.17-.14ZM12.4,37.63s.04.09.05.13c.02.05.04.1.06.15.03.06.06.09.1.1-.14-.4-.14-.91-.1-1.31h-.08c-.11.12-.13.26-.11.43.02.18.07.36.08.51ZM6.19,18.98h.03c.09.03.17.02.26,0,.09-.02.19-.05.28-.09.19-.06.39-.13.62-.09l.25-.21.02.09c.02.09-.01.17-.05.23-.02.03-.04.06-.07.09-.02.03-.04.05-.06.08-.06.08-.09.14.04.22.2-.12.35-.32.39-.54v-.26h.04s.04-.02.05-.02h.03s.08-.13.08-.13l.03.16s.02.09.02.13c0,.04.01.08.03.12.02.05.04.1.09.13.01,0,.02.01.04.02l-.03-.02v-.04c-.01-.96.33-1.84.94-2.58.05-.07.12-.13.19-.18.05-.04.11-.07.16-.11v-.71h.31v-.06c-.02-.38,0-.8,0-1.22,0-.42-.01-.83-.09-1.22-.04-.05-.1-.08-.17-.09-.08-.02-.17-.02-.24-.04h-.04s0-.05,0-.05c0-.09-.01-.22.03-.32.04-.12.15-.18.32-.14.1,0,.23.02.36.01.11,0,.21-.04.26-.14.02-.27-.1-.48-.26-.68-.17-.21-.38-.39-.55-.59l-.64-.5c-.05-.04-.06-.09-.04-.13,0-.02.02-.03.03-.04,0,0,.01-.02.02-.02l.03-.04.04.02c.45.19.8.5,1.11.85.31.34.59.73.89,1.09.1.13.26.14.38.05.1-.08.12-.18.11-.29,0-.06-.02-.13-.03-.19-.01-.06-.02-.13-.02-.19-.33-.8-.76-1.59-1.4-2.23l-.02-.03c0-.15.19-.2.27-.1.86.88,1.31,1.97,1.74,3.03.06.09.17.13.24.09.06-.07.08-.16.07-.26,0-.11-.02-.23-.04-.33-.16-1.08-.41-2.19-.87-3.17v-.03s.06-.06.06-.06l.03.02c.37.31.54.77.67,1.22.11.41.24.82.34,1.23.1.41.19.83.22,1.26.06.05.12.07.2.06.11-.11.14-.25.14-.41,0-.09,0-.18,0-.27,0-.09,0-.18.03-.26-.03-.92.06-2.16.02-3,.04-.08.08-.09.12-.09.01,0,.03,0,.04,0,.01,0,.02,0,.02,0l.07-.02v.07c.09,1.14-.04,2.74.12,3.88.08.1.17.16.25.12l.12-.14c.11-1.29.39-2.52.85-3.67v-.04h.1s.04,0,.06,0c.04,0,.09.03.11.09v.03c-.18.57-.38,1.14-.51,1.74-.13.59-.18,1.2-.07,1.82.05.09.13.16.22.15.07-.08.09-.18.1-.3,0-.07.01-.13.02-.2,0-.07.02-.13.05-.2.24-.94.82-1.77,1.48-2.48l.03-.04.04.03s.01,0,.03.01c.02,0,.03.01.05.02.04.02.08.05.09.12v.04c-.74.81-1.37,1.74-1.31,2.85.03.03.05.05.07.08.03.03.05.05.07.07.04.03.09.05.17.03.31-.37.6-.8.93-1.19.34-.4.72-.77,1.19-.99h.05c.08.06.09.13.09.19v.04c-.18.12-.34.24-.49.36-.15.12-.3.25-.43.38-.26.27-.46.57-.55.94,0,.11.08.22.17.25l.63-.04.04.56h-.04c-.09.04-.19.06-.27.1-.08.03-.14.08-.19.16v3.2c.09.07.2.1.32.14.06.02.13.04.19.06.07.02.13.05.19.08.45.24.91.5,1.32.87.08-.02.16-.06.23-.09.09-.04.17-.09.26-.13.14-.07.29-.14.45-.18-.86-.83-1.77-1.48-2.8-1.8-.06-.05-.07-.11-.07-.15,0-.02,0-.04,0-.06,0-.02,0-.03,0-.04v-.04s0-.04,0-.04c.06-.55.02-1.06.03-1.6v-.09s.08.04.08.04c2.68,1.44,5.65,3.21,7.42,5.93,1.67,2.51,2.32,5.51,2.07,8.63-.59,4.19-3.81,8.08-7.66,9.84-.22.11-.44.2-.67.27-.23.07-.46.13-.69.21-.45.15-.87.34-1.2.76-.12.1-.24.17-.37.22-.12.05-.25.09-.38.14-.25.09-.48.19-.66.43-.8.53-1.98.52-2.78.05-.14-.1-.28-.2-.42-.29-.14-.08-.28-.15-.44-.19-.18-.08-.33-.19-.48-.31-.14-.12-.28-.26-.42-.39-.28-.26-.55-.49-.88-.55-1.57-.61-3.05-1.45-4.41-2.56,0,0-.09-.08-.3-.24-1-.78-1.76-1.78-2.49-2.75-.69-.83-1.1-1.84-1.48-2.76-.73-1.98-.66-4.35-.29-6.39.38-1.91.93-3.56,2.31-5.38.99-1.31,2.2-2.22,3.44-2.91,1.24-.7,2.5-1.18,3.59-1.65l.07-.03v.08c.07.54,0,1.17.06,1.78v.05s-.04.01-.04.01c-2.69.69-5.19,3.08-5.86,5.81-.89,3.07-.21,6.45,2.07,8.72,1.18,1.04,2.5,1.84,3.8,2.51l.08.04-.06.06c-.1.09-.22.09-.32.06-.05-.01-.1-.03-.16-.06-.05-.02-.1-.04-.15-.06-.18-.07-.31-.1-.39.2-.04.11,0,.14.08.18.05.02.11.03.16.05.06.02.12.04.16.08l.08.07-.1.03c-.11.04-.27-.04-.41-.13-.16-.1-.33-.23-.51-.34-.38-.25-.63-.35-.72-.14,0,.02,0,.09.02.16.02.08.05.15.11.18l1.08.77c.05.03.1.05.16.08l.04.02v.04c-.02.1-.03.2-.05.3-.01.1-.03.2-.07.3l-.02.02.08.1c.21.25.47.5.75.66l.03.29-.09-.05c-.3-.18-.56-.42-.78-.68v-.3c-.11.01-.18-.02-.24-.06h-.05c.06.03.12.07.19.11l.03.04c0,.1-.04.18-.07.24-.02.03-.03.06-.05.09-.01.03-.02.06-.02.08h0s.02.03.02.03c.01.09-.02.14-.06.18,0,0-.02.02-.03.03l-.03.03s-.03.03-.04.04c-.01.04-.03.07-.04.09-.02.03-.03.06-.04.08,0,.01-.01.02-.02.03,0,0,0,.01-.01.01,0,0-.01,0-.02,0-.02,0-.05,0-.05-.04,0,0,0-.02,0-.03,0-.02.01-.05.02-.09,0-.05.03-.09.05-.12l.03-.07c0-.06-.03-.05-.04-.04l-.2.27v-.17s.02-.06.03-.08c0,0,.01-.02.02-.02l.02-.02s.02-.02.01-.04c0-.01-.01-.02-.02-.03h-.01s0,0-.02,0c-.02.01-.04.03-.05.05,0,0-.02.02-.04.02-.02,0-.05.01-.08-.02h0s-.02,0-.03,0c-.05,0-.12.03-.19.06-.02.03-.04.07-.05.1-.02.04-.03.07-.03.1v.03s.02.03.03.05c0,0,.01.01.02.02.02,0,.04,0,.06,0,0,0,0,0,.01,0v-.03s.11.02.11.02v.03s0,.07.02.08h.02s.02,0,.03,0c.02,0,.03,0,.03-.03l.02-.03.1.04v.04s0,.01,0,.02c.01,0,.02.02.03.03,0,0,.01,0,.02.02l.17-.03v.06s.04.05.08.07c.02,0,.05.01.07.02.03,0,.06.02.09.04l.08.05-.08.04s-.23.12-.45.24c-.11.06-.22.12-.31.17,0,.02.01.03.02.05,0,.01.01.03.02.04.01.02.03.04.05.05.06.01.12.03.16.05.04.01.06.02.09.01.07-.1.15-.03.18,0l.03.03s.01.01.02.02c.26-.03.41.16.5.32.05.08.08.17.1.23.02.05.03.08.03.1l.08.13c.06.07.89,1.03,1.69,1.69-.04-.04-.07-.08-.11-.12l-.04-.05.06-.03c.09-.05.2-.11.3-.18.1-.07.2-.15.27-.25l.13-.16-.03.21s-.01.1-.02.15c0,.05-.02.1-.04.15-.03.08-.07.15-.15.2.02.01.03.03.04.05.02.02.03.04.04.06l.04.06c.04.07.08.11.14.13.05-.1.06-.22.06-.36,0-.08,0-.16,0-.23,0-.08,0-.16.03-.23.05-.17.14-.29.25-.4.05-.05.11-.1.17-.15.04-.04.09-.08.13-.12,0-.01,0-.02-.01-.04,0-.02,0-.04-.01-.07,0-.03-.01-.04-.03-.05-.08.03-.16.09-.23.16-.02.03-.04.05-.07.07-.04.04-.07.08-.11.12-.03.04-.07.07-.1.1,0,.06-.05.19-.19.13l-.03-.03c-.02-.12.06-.2.13-.25.04-.03.08-.05.12-.08.04-.03.08-.05.11-.08.02-.02.04-.04.06-.06h0c.03-.06.06-.09.09-.13.03-.03.07-.06.1-.09.06-.05.09-.09.11-.14-.05-.06-.11-.11-.17-.15-.04-.02-.08-.05-.11-.07-.04-.03-.08-.06-.11-.1v-.05c.02-.06.08-.1.13-.12.05-.02.1-.04.15-.06.08-.04.1-.06.07-.11-.04,0-.09,0-.13.02-.06.01-.12.03-.18.05-.12.03-.26.04-.38-.08l-.07-.07.09-.03c.05-.02.11-.02.17-.03.06,0,.12,0,.17-.01.08,0,.15-.02.21-.06-.04-.01-.07-.02-.11-.03-.07-.02-.14-.03-.22-.05-.14-.03-.29-.07-.43-.14-.06-.01-.08-.05-.1-.09,0-.01-.01-.03-.02-.05,0-.01-.01-.02-.01-.03l-.09-.12.15.03c.13.03.26.08.39.13.13.04.25.07.38.06h.03s.05.06.06.08l.02.03s.01.02.02.02c.02.02.03.03.05.02.09-.11.05-.18-.03-.28-.04-.05-.09-.11-.14-.16-.04-.06-.08-.13-.09-.21-.15-.48-.23-1.24.18-1.65l.05-.02c.12.04.2.12.28.19.04.04.07.07.11.1.04.03.08.06.11.07.39.23.92.38,1.36.2.3-.13.58-.31.83-.55l.04-.04.04.05c.39.46.28,1.25.09,1.77-.04.06-.08.11-.11.16-.04.05-.07.1-.09.14-.05.09-.07.18-.02.29.1.09.24.13.39.14.08,0,.16,0,.24,0,.08,0,.16-.02.24-.02h.1s-.05.08-.05.08c-.03.06-.11.2-.23.21-.07.04-.14.04-.2.04-.03,0-.07-.01-.1-.02-.03,0-.06-.02-.09-.03-.1-.03-.16-.04-.21,0,.1.09.19.15.31.15h.08l-.03.08c-.02.06-.08.11-.13.14-.05.03-.1.06-.15.09-.08.05-.11.08-.07.16.12.02.19.08.26.15.03.03.06.07.1.1.03.03.07.06.11.08.07.03.13.07.19.11.06.04.11.09.16.13l.04.03-.03.04s-.06.07-.09.09c-.03.02-.07.03-.1.04l-.08.03v-.08c0-.12-.08-.21-.22-.31-.07-.05-.14-.09-.21-.13-.05-.03-.11-.07-.15-.1-.02.04-.02.1,0,.14.31.16.46.41.55.67.09.26.13.54.21.79,0,0,.02,0,.03-.02.01-.01.03-.03.04-.04,0,0,.01-.01.02-.02-.04-.12.03-.17.09-.2l.04-.02s.02-.01.03-.02c-.16-.09-.29-.23-.29-.46v-.09l.08.04s.09.06.13.1c.04.04.08.09.12.13.08.09.17.18.27.23l.08.04-.68.52c-.17-.02-.31-.02-.46,0-.15,0-.31.02-.46.04-.32.03-.65.06-.99.03h-.03s-.01-.1-.01-.1h.03c.07-.03.15-.04.22-.04.07,0,.15,0,.22,0,.14,0,.25,0,.34-.06,0-.11-.02-.21-.09-.27-.12.04-.24.08-.36.13-.12.05-.24.12-.33.21l-.05.05-.04-.06c-.09-.12-.21-.15-.36-.18-.08-.01-.15-.02-.23-.04-.07-.02-.14-.05-.21-.1-.01,0-.02,0-.04.01,0,0-.02.02-.03.03l-.02.02s-.02.02-.02.02l-.03.02-.07-.08.02-.03c.07-.08.05-.14-.03-.22-.04-.05-.09-.09-.13-.14-.05-.05-.09-.11-.11-.19,0-.03-.01-.06-.02-.1,0-.02,0-.05,0-.07-.18.2-.21.52-.12.78.04.14.09.17.22.22.04,0,.06,0,.07,0,0,0,.02-.01.03-.02.01,0,.02-.02.04-.03l.07-.06.02.09c.01.06.11.08.31.07.09,0,.18,0,.27,0,.08,0,.17.01.22.06l.15.12-.19-.02c-.43-.04-.91.02-1.36,0-.3-.01-.59-.07-.84-.22.18.14.36.25.52.32,1.23.06,2.57.06,3.79-.11,1.13-.42,2-1.63,2.63-2.6.06-.04.11-.06.16-.07.05-.02.09-.03.14-.05.07-.03.13-.07.17-.13-.01-.04-.02-.07-.02-.11,0-.04,0-.09,0-.13,0-.07-.01-.12-.04-.16l-.33.07v-.08c.02-.08.07-.14.13-.18.05-.04.12-.07.18-.1.1-.06.15-.1.05-.25-.02-.02-.03-.04-.04-.06,0-.02-.02-.04-.03-.06-.01-.02-.02-.03-.05-.03h-.03s-.04-.09-.04-.09l.03-.02c.66-.43,1.35-.8,2.03-1.23.67-.42,1.32-.88,1.91-1.5.03-.1-.08-.21-.22-.31h-.1c-1.14,1.03-2.35,1.88-3.67,2.45h-.03s-.06-.06-.06-.06l.02-.02c.07-.08.16-.14.25-.18.09-.04.18-.08.27-.12.15-.08.24-.16.18-.37-.02-.12-.13-.17-.19-.11-.09.06-.18.11-.27.16-.09.05-.19.09-.3.1h-.04s-.05-.09-.05-.13c0-.03,0-.06,0-.09v-.03c.14-.07.26-.13.37-.19.1-.05.2-.11.3-.17-.03-.16-.1-.3-.23-.42l-.59.33c-.14,0-.17-.14-.17-.2v-.03c.07-.06.15-.1.23-.14.07-.03.15-.06.22-.1.13-.07.2-.14.16-.29-.15-.23-.29-.16-.48-.04-.05.03-.1.06-.15.09-.05.03-.11.06-.16.07-.12.04-.24.02-.36-.08l-.06-.06.08-.04c.29-.13.58-.29.87-.46.28-.17.56-.35.83-.53,0-.02-.04-.04-.07-.05-1.99,0-3.96-.02-5.86.02h-.04s-.02-.03-.02-.03c-.06-.14-.09-.39-.03-.57v-.04h7.06l.15-.15c-.06-.07-.14-.1-.19-.09-.11.15-.33.09-.43.06-.04-.03-.08-.03-.13-.03-.05,0-.11.02-.16.03-.11.02-.24.05-.35-.05-.03.01-.05.03-.08.04-.05.02-.09.04-.14.05-.1.02-.2.02-.3-.05-.03-.01-.07-.02-.13,0-.06,0-.12.03-.17.04-.11.03-.25.04-.36-.07-.17.12-.34.1-.49.07-.08-.02-.16-.04-.25-.05-.08-.01-.16,0-.25.01h-.05s-.02-.03-.02-.03c-.04-.07-.06-.07-.1-.05-.03.01-.06.04-.09.05-.03.02-.08.04-.12.05-.06,0-.12-.01-.18-.03-.05-.01-.11-.03-.16-.04-.1-.02-.18-.02-.25.06l-.04.02c-.06-.02-.12-.03-.17-.05-.05-.01-.09-.03-.14-.03-.08-.01-.16,0-.24.07l-.04.03-.04-.04c-.11-.11-.22-.08-.36-.03-.04.01-.07.03-.11.04-.04.01-.08.02-.12.02-.08,0-.16-.02-.23-.09-.11.02-.22.06-.34.07-.12.02-.25.01-.37-.06-.1.1-.22.11-.33.09-.12-.02-.24-.07-.33-.08l-.04-.02c-.03-.07-.02-.13-.01-.17,0-.05.02-.09.03-.13,0-.03,0-.05,0-.06-.01-.01-.04-.03-.11-.03h-.08s.03-.08.03-.08c.08-.2.17-.45.08-.59-.41-.04-.77-.17-1.12-.34-.35-.17-.69-.38-1.03-.57-.1-.16-.08-.32-.06-.46,0-.07.02-.14.02-.22,0-.07,0-.13-.02-.19l-.09-.09c-.87-.05-1.94-.22-2.27-1.19-.02-.11,0-.22.03-.33.02-.11.06-.22.07-.32.03-.21.01-.38-.22-.5-.06-.08-.07-.15-.07-.21,0-.03.01-.06.02-.09,0-.03.02-.05.03-.08.03-.1.04-.15-.04-.22l-.02-.04c0-.06.02-.1.04-.15.02-.04.03-.08.05-.12.03-.07.04-.13,0-.19-.04-.05-.1-.08-.16-.1-.07-.02-.14-.03-.21-.05-.15-.03-.32-.08-.4-.29-.01-.41.1-.77.23-1.11.06-.17.13-.34.2-.52.06-.17.12-.34.16-.52.07-.12.09-.23.09-.34,0-.12-.02-.24-.03-.35-.03-.23-.04-.48.17-.7,0-.06-.04-.09-.11-.12-.04-.02-.09-.03-.13-.06-.05-.02-.09-.06-.12-.11l-.27-.43c-.16-.05-.35-.05-.53-.05-.1,0-.19,0-.28,0-.09,0-.17,0-.24-.03h-.04s.02-.11.02-.11h.01ZM10.15,20.61c.22.05.44.1.67.14.22.04.45.05.7.04h.04s.01.11.01.11h-.04c-.25.05-.5.04-.74.02-.24-.03-.48-.07-.72-.12-.48-.09-.94-.17-1.44-.06l-.08.02v-.08c.02-.07.06-.1.1-.12.02,0,.03-.01.05-.02.01,0,.02-.01.03-.02.54-.09.99,0,1.43.1ZM8.52,21.35s.02-.02.02-.02c.42-.31.82-.3,1.21-.22.19.04.38.11.57.17.19.06.37.11.56.14.18-.02.37-.03.56-.01h.03s0,.1,0,.1h-.03c-.19.05-.38.05-.56.02-.38.05-.75.17-1.11.22-.37.05-.74.04-1.1-.18l-.21-.03c-.04-.09-.02-.14.01-.17,0,0,.01-.01.02-.02h.02ZM9.66,21.51c.07.02.14.01.22-.01.06-.02.13-.04.19-.07l-.14-.08c-.14-.08-.23.01-.27.16ZM9.45,21.44s.04-.04.03-.13c-.01-.02-.05-.03-.1-.02,0,.03.01.05.02.08.01.03.02.05.04.07ZM9.01,21.52s.04,0,.05,0c0-.05-.01-.11-.04-.13-.09.02-.12.06-.11.09.02,0,.03.01.04.02.02,0,.04.02.06.03ZM8.62,23.66l.08-.13c.08-.13.14-.26.11-.31v-.03s.07-.06.07-.06c.18.18.06.43-.12.48l-.14.04ZM8.25,23.35c-.09.02-.17,0-.22-.08l-.05-.08.47-.05-.21.21ZM6.48,18.9c-.1.02-.19.05-.29.08h-.01s-.01,0-.01,0c-.1.04-.2.09-.3.13l-.14.06.07-.14c.05-.09.16-.14.26-.18.08-.03.16-.05.23-.07-.09-.08-.22-.1-.34-.05l-.32.16v-.11c.02-.06.08-.09.11-.11.04-.02.09-.04.14-.06.05-.02.09-.04.12-.05-.05,0-.09.02-.14.04-.08.04-.16.09-.25.13l-.03.02-.06-.08.02-.02c.11-.11.29-.19.46-.26.18-.07.36-.13.52-.2.1-.03.2-.09.3-.16.11-.07.23-.15.34-.2.24-.12.51-.18.76.05.04.08.08.14.11.2.03.06.05.13.05.21v.03l-.1.02v-.03c-.07-.16-.2-.35-.36-.39-.16-.03-.25,0-.34.05-.11.06-.23.14-.42.24-.08.04-.15.08-.23.11-.07.03-.14.05-.21.08-.11.04-.18.08-.22.14.02.01.03.02.05.03.03.02.07.04.1.06.06.04.13.1.16.19l.02.06h-.06ZM17.01,31.74c.12-.05.23-.12.35-.18.23-.12.48-.25.77-.27h.03s.03.09.03.09l-1.22.67c-.14.03-.25-.01-.34-.09l-.09-.08.12-.02c.13-.02.24-.07.36-.12ZM17.58,34.57s.04-.05.07-.07c.05-.05.12-.11.22-.1h.08s-.04.08-.04.08c-.17.29-.51.57-.86.67l-.06.02v-.06c-.04-.2.08-.28.2-.33.06-.02.12-.04.18-.07.06-.02.1-.05.14-.09.04-.02.06-.03.08-.05ZM17.53,35.04s.05-.05.08-.08c.05-.05.11-.11.2-.14l.09-.02-.03.09c-.06.21-.2.35-.37.45-.16.09-.34.16-.49.24l-.06.03-.02-.06c-.06-.2.07-.27.19-.31.06-.02.12-.03.18-.06.06-.02.1-.04.12-.08.05-.03.07-.05.09-.07ZM17.75,33.9l.1-.02-.03.1c-.11.35-.46.59-.77.72l-.05.02-.02-.05c-.1-.21,0-.31.13-.37.06-.03.12-.05.18-.07.06-.02.1-.05.12-.08.1-.11.24-.22.35-.24ZM17.83,35.38l-.04.12c-.13.36-.57.53-.95.54h-.05s0-.05,0-.05c-.03-.2.08-.28.21-.32.06-.02.12-.03.18-.04.06-.01.11-.02.15-.04l.51-.22ZM16.81,33.93l.04-.03c.21-.15.49-.36.65-.58l.05-.02c.09.03.11.11.11.16,0,.06-.02.12-.04.17-.16.23-.34.46-.58.62h-.05c-.07-.03-.1-.1-.11-.15,0-.03-.01-.05-.02-.08,0-.02-.01-.04-.02-.06l-.02-.04ZM17.6,35.92l.05.08c-.26.29-.63.37-.99.41h-.07s0-.06,0-.06c0-.2.17-.23.3-.25.07,0,.14,0,.2-.01.06,0,.11-.02.15-.04l.35-.12ZM17.53,31.29l.16-.03-.11.12c-.04.05-.09.08-.14.09-.04.01-.08.02-.12.04l-.08.03v-.09c0-.11.08-.15.14-.16.03,0,.06,0,.09,0h.03s.01,0,.02,0ZM17.42,36.3l.03-.02.07.07-.02.03c-.11.16-.27.23-.45.27-.17.04-.35.06-.52.09h-.07s0-.22,0-.22h.04c.16-.05.33-.06.49-.09.16-.03.3-.06.43-.14ZM17.07,32.93s.02-.07.03-.09c.03-.08.1-.14.22-.06.11.15.06.28,0,.39-.03.05-.07.1-.1.15-.03.05-.06.1-.08.14l-.33.37-.04-.04c-.2-.17-.11-.33,0-.45.05-.06.12-.11.17-.17.05-.06.08-.11.09-.16.02-.04.03-.06.04-.09ZM17.34,36.69l-.06.13c-.09.2-.28.25-.46.26-.09,0-.18,0-.27,0-.09,0-.17,0-.24.03h-.03c-.09-.04-.12-.09-.11-.16.01-.05.06-.09.09-.11h.03c.31.04.65.01.91-.1l.13-.06ZM16.78,31.4l-.1-.04.09-.06c.13-.09.2-.03.24.05.01.03.02.06.04.1.01.03.03.04.04.05l.05.03-.08.14c-.16,0-.19-.08-.21-.15,0-.01,0-.03-.01-.04,0-.01,0-.02-.01-.03,0-.02-.02-.03-.04-.04ZM15.94,37.3c.06-.16.2-.16.32-.14.06.01.12.03.18.04.06.02.1.03.14.03l.42-.03-.03.08c-.03.1-.14.15-.21.18-.13.05-.27.04-.4,0-.13-.03-.26-.07-.38-.09h-.07s.03-.08.03-.08ZM16.83,32.37v-.03s.11.02.11.02v.03c.03.38-.12.69-.31.97l-.04.05-.2-.18.03-.04c.09-.13.16-.27.23-.41.07-.14.13-.28.19-.41ZM16.53,34.82c.06-.1.11-.2.17-.31l.11-.19v.22c-.02.48-.43.85-.83.99l-.12.04.04-.12c.04-.11.13-.17.21-.23.04-.02.08-.05.12-.08.04-.03.07-.06.1-.09.08-.07.14-.16.19-.25ZM16.26,35.49c.06-.02.1-.04.13-.08l.41-.25-.03.13c-.05.19-.19.3-.34.38-.15.07-.32.12-.45.19h-.23s0-.05,0-.05c.01-.21.17-.25.31-.28.06-.01.13-.02.2-.04ZM16.61,31.26v.06s.02.06.04.11c.02.04.04.09.05.14.03.08.06.21-.07.26l-.07.03v-.07c-.02-.07-.05-.13-.1-.2-.05-.07-.1-.13-.15-.2l-.05-.08.35-.04ZM16.23,37.48c.15.03.29.07.42.11l.09.02-.16.19c-.32-.04-.6-.14-.82-.27l-.17-.11h.2c.14,0,.29.02.44.06ZM15.95,34.88l.04-.02c.18-.07.27-.2.33-.35.07-.16.11-.34.18-.5v-.03s.11.02.11.02v.03c-.04.47-.17.87-.54,1.15l-.04.03-.03-.04s-.04-.1-.04-.14c0-.02,0-.04,0-.06,0-.02,0-.03,0-.04v-.04ZM15.74,35.9c.31-.01.59-.07.84-.16l.12-.04-.04.12c-.08.2-.26.27-.44.3-.18.03-.38.01-.54.02h-.06s0-.06,0-.06c0-.05.03-.08.05-.1,0-.01.02-.02.03-.03,0,0,.01-.01.02-.02l.03-.02ZM16.13,32.82c.17-.21.23-.48.28-.74v-.08s.09.04.09.04c.16.1.16.25.12.39-.02.07-.04.14-.06.21-.02.07-.03.13-.03.18l-.13.29h-.05c-.05-.02-.12-.05-.16-.09-.05-.04-.09-.11-.05-.2h0ZM15.41,36.25s.03-.02.04-.04c.01-.01.02-.02.03-.03l.03-.04.04.03c.1.07.22.09.37.09.14,0,.29-.02.42-.04h.09s-.03.08-.03.08c-.05.12-.15.15-.25.17-.05,0-.1.02-.14.02-.05,0-.09.02-.12.03-.17.02-.38-.02-.53-.1l-.04-.02v-.04c.02-.06.05-.09.08-.12ZM16.18,33.32l.1.15c.12.18.12.38.07.56-.02.09-.06.18-.09.27-.04.08-.08.17-.11.24-.04.04-.05.06-.06.09,0,.02-.01.03-.02.05,0,.02-.01.04-.02.06l-.06.11-.05-.12s-.03-.07-.05-.11c-.02-.05-.03-.11-.01-.18.27-.26.29-.59.3-.94v-.18ZM15.56,37.57h.04c.12.07.24.14.35.22.11.07.23.14.33.18l.08.04-.19.16c-.26-.08-.48-.2-.67-.39l-.02-.03s0-.05,0-.07c0-.03,0-.08.06-.11ZM16.09,32.78c-.05.08-.11.08-.16.05-.04-.02-.08-.06-.1-.09v-.05c.12-.23.22-.46.21-.71v-.03s.1-.02.1-.02v.03c.14.32.05.58-.05.83ZM15.05,36.65c.08-.17.2-.17.31-.14.05.02.1.04.14.06.05.02.08.03.11.03l.52-.03v.04c.06.13-.08.2-.13.21-.08,0-.15,0-.23,0-.08,0-.16.01-.24.01-.16,0-.34-.02-.47-.14l-.02-.05ZM15.83,33.03l.09.04c.1.05.12.14.14.22,0,.04,0,.08.01.12,0,.04,0,.07.02.09,0,.31-.07.58-.17.83l-.03.08-.06-.05c-.14-.12-.12-.25-.07-.36.02-.05.05-.1.07-.15.02-.05.04-.09.04-.13l-.04-.7ZM15.63,31.8l.05-.02c.1-.05.15,0,.18.07,0,.02,0,.05.02.07,0,.02.01.03.02.04v.03c0,.13.02.26,0,.37-.01.12-.05.24-.16.31l-.05.03-.03-.05c-.04-.07-.04-.14-.04-.22,0-.07.02-.14.03-.21.03-.14.05-.26,0-.36l-.02-.05ZM15.07,36.81c.08.02.16.05.24.08.16.06.31.11.47.11h.12s-.14.19-.14.19c-.4.03-.72-.12-.97-.32l-.13-.1h.16c.09,0,.17,0,.25.03ZM15.79,31.26v.04l.07-.02c.16-.06.27-.02.32.09.02.05.03.1.04.15,0,.05.01.1.02.15v.09s-.07-.03-.07-.03c-.11-.04-.16-.13-.19-.19,0-.02-.02-.03-.03-.05,0-.01-.02-.03-.03-.04-.02-.03-.04-.04-.07-.06l-.06-.03v.32l-.34-.36.34-.05ZM15.46,32.83l-.09-.11h.14c.09.02.13.08.15.14,0,.02.01.05.02.07,0,.02.01.04.02.05.07.3.13.63.07.95v.08s-.08-.04-.08-.04c-.28-.16-.25-.39-.19-.6.01-.05.03-.1.04-.15.01-.05.02-.1.02-.14,0-.09-.01-.17-.08-.25ZM15.46,35.38c-.19.1-.38.17-.57.2h-.03s-.03-.09-.03-.09l.03-.02c.29-.15.57-.29.84-.47l.08-.05v.1c.01.13-.06.19-.13.23-.03.02-.07.03-.11.05-.03.02-.06.03-.08.05ZM15.22,34.88s.08-.06.1-.09l.35-.41.03.1s.02.04.02.07c0,.03.01.06,0,.1l-.53.54-.23.12-.02-.06c-.05-.14.05-.23.13-.28.04-.03.09-.05.14-.08ZM14.84,35.61s.08,0,.13.02c.04,0,.08.02.12.02.19-.01.37-.07.53-.17l.07-.04v.08c.04.22-.17.31-.29.34-.25.11-.58.06-.81-.05l-.07-.03.05-.06c.08-.09.17-.12.26-.11ZM15.42,33.93l.05.08c.08.12.07.25.03.36-.02.05-.04.11-.07.16-.03.05-.05.1-.08.14-.04.03-.05.05-.06.06,0,0-.01.02-.02.02l-.02.03s-.06.09-.12.13l-.09.06v-.53c.09-.07.14-.13.19-.2.05-.07.09-.15.14-.22l.05-.08ZM15.34,31.71v-.04s.09-.05.09-.05l.02.04s.03.07.03.1c.06.22.07.55-.06.72l-.07.09-.03-.11c-.04-.13-.01-.26.01-.38.01-.06.03-.11.04-.17,0-.05.01-.1,0-.14,0-.03-.02-.05-.03-.07ZM15.16,32.76l.09-.06.02.03c.14.17.23.47.12.8l-.02.06-.06-.03c-.2-.1-.18-.26-.14-.4.02-.06.04-.13.04-.2,0-.06,0-.12-.03-.17l-.02-.03ZM14.99,31.27h.43v.26h-.06c-.07-.01-.11-.04-.14-.08-.01-.01-.03-.03-.04-.04-.01-.01-.03-.03-.04-.04l-.14-.1ZM15.08,33.86s0-.01,0-.02v-.03s.07-.14.17-.04l.02.04c-.02.07-.03.13-.04.2-.02.07-.04.14-.09.2l-.03.04-.04-.03c-.06-.04-.1-.17-.07-.27l-.31-.51.07-.07.29.2v.3s.02-.01.02-.02ZM15.13,31.62v.04c.07.21.13.46.07.7v.04h-.17v-.05c-.02-.13,0-.25,0-.36,0-.11.01-.21,0-.3v-.04s.1-.02.1-.02ZM14.83,32.52l-.02-.18.12.14c.09.11.13.25.14.38.01.13,0,.27.01.38v.07s-.06,0-.06,0c-.1-.01-.17-.06-.24-.14v-.03c0-.11.02-.22.03-.32.01-.1.02-.2.01-.29ZM14.99,31.46c-.13.13-.28,0-.28-.11.02-.08.07-.1.11-.11.02,0,.03,0,.05,0,.01,0,.02,0,.03,0l.12-.03-.05.11v.02s.02.01.02.02c0,0,.01.02.02.03.01.03,0,.06,0,.09ZM14.67,31.92s-.05-.08-.08-.12c-.02-.04-.05-.1-.02-.15l.02-.06.06.03c.2.12.31.39.31.64v.05h-.05c-.06.01-.1-.02-.12-.05-.02-.03-.04-.08-.05-.12-.01-.04-.02-.08-.03-.12-.01-.04-.02-.07-.04-.09ZM14.2,31.24c.07-.05.14-.04.2-.02.03,0,.05.02.08.03.02,0,.04.02.06.02l.17.02-.14.09s0,.01,0,.02v.02s-.02.11-.11.11c-.07-.04-.11-.06-.15-.08-.04-.03-.09-.06-.12-.12l-.03-.05.05-.03ZM14.32,5.7h-.03c-.73-.21-1.43-.22-2.23-.02h-.03s-.04-.08-.04-.08l.03-.02c.4-.3,1-.52,1.63-.35.15.04.33.13.46.21.14.08.26.17.26.17l-.04.09ZM12.6,6.07c-.03-.06-.07-.09-.12-.11-.03-.01-.05-.02-.08-.03-.03-.01-.06-.03-.09-.05l-.13-.09.89-.1-.02.08c-.03.11-.09.25-.12.38-.03.12-.03.22.03.3.09,0,.19,0,.27,0,.08,0,.15,0,.21-.04.02-.22-.05-.46-.18-.64l-.07-.1h.12c.17.02.36.03.54.05.18.02.36.06.51.14l.06.03-.04.06c-.06.08-.11.16-.15.25-.04.09-.08.18-.12.27-.02.09-.06.19-.12.25-.07.13-.15.26-.26.38l-.04.04-.04-.04c-.09-.1-.21-.12-.34-.12-.07,0-.13.02-.2.03-.07.01-.14.03-.21.05-.28.06-.56.06-.62-.43-.1-.23-.18-.4-.22-.67l-.03-.15.12.1c.07.06.11.15.14.24.03.09.04.18.07.26.04.12.1.2.33.07.09-.2.02-.31-.09-.43ZM13.9,6.68c.04-.07.07-.15.1-.23.02-.06.03-.12.05-.17,0-.03.02-.06.03-.08h-.07c-.16.05-.3.15-.35.29,0,.02-.02.05-.02.08.08,0,.18,0,.24.07v.03s.02,0,.02,0ZM13.57,6.91s.03,0,.04,0c.01,0,.03,0,.04,0,.03-.02.06-.06.09-.1-.03,0-.06-.02-.09-.03-.03,0-.06-.01-.08-.03l-.02.16s.01,0,.02,0ZM13.39,6.67c-.1-.06-.26-.05-.39-.02-.01.06.02.14.08.22.18.07.34-.03.31-.2ZM12.78,6.69c-.1,0-.18,0-.23.04l.02.05s.03.06.05.09c.03.04.06.06.12.05.07,0,.09,0,.1,0,0,0,0,0,0-.01,0,0,0-.02,0-.03,0-.03-.02-.07-.04-.11l-.02-.05h0ZM12.63,7.33l.06-.03c.24-.1.65-.13.91-.03l.06.02-.03.06c-.03.06-.07.15-.11.23-.04.08-.09.17-.15.23-.23.09-.37.03-.48-.08-.05-.05-.09-.12-.13-.18-.04-.06-.07-.12-.1-.17l-.04-.06ZM12.52,30.7v.03c0,.06-.01.11-.02.16,0,.04,0,.08.01.12,0,.04,0,.09,0,.13,0,.1-.06.18-.19.2l-.09.02.02-.08c.03-.13.09-.26.12-.39,0-.06,0-.13.03-.19l.02-.03.09.03ZM12.27,30.15c.02-.06.04-.13.09-.17l.14-.12-.04.17c-.02.07-.04.14-.05.22-.01.07-.01.14.01.2v.04c-.03.06-.08.07-.11.07-.02,0-.05,0-.08,0h-.03c-.1-.08-.05-.15,0-.18l.02-.02s.01,0,.02-.01c.02-.08.03-.14.05-.19ZM12.32,29.3l.09-.04v.09c-.01.06-.03.12-.05.17-.02.05-.04.09-.05.14,0,.04,0,.09-.02.12v.03s-.11-.02-.11-.02v-.03s0-.09.02-.12c0-.03,0-.06,0-.09,0-.03,0-.07.01-.1.01-.06.04-.13.12-.17ZM12.06,30.28v-.4l.09.08c.12.1.03.2,0,.23l-.1.1ZM11.94,31.03c.03-.12.05-.25.08-.37v-.03s.11,0,.11,0v.03c.03.22,0,.47,0,.73v.05s-.04.01-.04.01c-.06.01-.2.01-.29-.03l-.07-.03.05-.06c.08-.09.12-.2.15-.32ZM12.13,29.32s-.03.06-.04.11c0,.05-.02.09-.02.14-.02.09-.05.2-.16.23l-.11.02.04-.1c.03-.07.05-.16.07-.25.03-.08.06-.18.14-.23l.18-.1-.1.18ZM11.71,30.21l.2-.3.09.04v.03c-.03.06-.05.13-.07.2-.02.06-.03.13-.02.2v.04c-.12.07-.25.02-.31-.02-.05-.1,0-.14.03-.17.02,0,.04-.02.05-.02h.02ZM11.77,29.69v.04s-.11,0-.11,0v-.04c-.02-.15.04-.42.15-.53l.02-.02.08.06-.02.03c-.07.14-.12.29-.14.46ZM11.83,31.63l.09.05-.31.87-.05-.15c-.05-.15-.02-.29.04-.41.03-.06.07-.11.1-.17.04-.05.08-.1.11-.16l.02-.03ZM11.33,31.27l.06-.06c.17-.19.23-.41.31-.66v-.04s.12.02.12.02v.04c-.02.13-.06.26-.08.39-.03.13-.05.25-.04.36v.06s-.06,0-.06,0c-.06,0-.1-.02-.13-.04-.02,0-.03-.02-.05-.03-.01,0-.03-.01-.04-.02l-.08-.03ZM11.62,30.11h-.04s-.02-.03-.02-.03c-.05-.08-.03-.21.06-.28l.04-.03.03.04c.12.14,0,.27-.08.29ZM11.66,32.59v.04c0,.06,0,.12.03.19.02.07.05.15.07.21.04.15.01.3-.23.33h-.04s-.02-.04-.02-.04c-.05-.13-.04-.26-.01-.38.03-.11.07-.23.09-.34v-.04s.12.02.12.02ZM10.76,37.06h.05c.15,0,.29-.05.42-.12.07-.03.14-.07.2-.1.07-.03.14-.06.21-.07l.2-.03-.15.13c-.11.09-.21.19-.32.27-.11.08-.23.16-.37.19h-.04s-.03-.03-.05-.04c-.02-.01-.04-.02-.06-.03-.05-.02-.1-.07-.09-.16v-.05ZM11.34,33.97c-.18-.17.11-.45.25-.52l.16-.08-.36.65-.05-.05ZM11.19,31.43h.5l-.07.09c-.06.08-.23.07-.3.01l-.13-.1ZM11.13,30.23l.02.1c.01.07,0,.13-.02.19-.02.06-.05.12-.07.18-.04.1-.06.19-.04.29.07-.04.11-.11.15-.2.03-.05.05-.11.08-.17.03-.06.07-.12.13-.18l.11-.11v.15c-.01.06-.02.12-.04.18-.01.06-.03.11-.05.17-.03.11-.06.22-.06.35v.07s-.07-.01-.07-.01c-.09-.02-.17-.04-.25-.08l.03.11c.04.14.03.24-.08.32l-.05.04-.03-.06s0-.11,0-.15c.01-.05.03-.1.05-.14l.03-.13h-.01c-.09-.05-.18-.09-.27-.13l-.11-.04.1-.06c.1-.06.16-.15.21-.26.03-.06.05-.11.07-.17.02-.06.05-.12.09-.17l.06-.1s-.04-.03-.05-.04l-.07-.07.1-.02c.08-.02.13-.07.18-.14.02-.03.05-.07.07-.11.02-.04.04-.08.06-.11l.06-.12h-.06s0-.03,0-.03c-.01-.09.01-.17.03-.24.01-.03.02-.07.03-.1,0-.03.01-.06.01-.1v-.04h.11s0,.03,0,.03c.01.08-.01.16-.03.23-.01.03-.02.07-.03.1,0,.03-.01.07-.01.1v.04h-.04s.03.14.03.14c.01.05,0,.09,0,.14-.01.04-.03.07-.05.11-.03.07-.05.13-.03.21v.04s-.02.02-.02.02c-.09.06-.19.03-.26-.02ZM10.48,36.85h-.03s.02-.11.02-.11h.03c.29-.03.53-.08.74-.22l.31.12-.08.06c-.25.17-.65.29-.98.15ZM11.1,32.46c.04-.12.07-.26.1-.4.04-.14.08-.28.17-.39l.02-.03.09.04-.12.78c-.03.06-.08.07-.12.07-.03,0-.06,0-.08,0h-.08l.02-.07ZM11.48,35.18l.13.32-.1-.02c-.23-.05-.65-.26-.75-.58l-.05-.16.14.1c.11.08.26.2.39.31.02,0,.04.01.06.02.02,0,.04.02.06.03.03.01.03.01.04,0h.01s-.03-.04-.03-.04c-.16-.14-.49-.45-.5-.75v-.03s.09-.02.09-.02v.03c.04.05.08.1.13.16.05.05.1.11.15.16.1.11.2.24.23.4v.08ZM11.39,29.02l-.03.03s-.05.06-.06.09c-.02.04-.03.07-.04.11-.01.04-.03.08-.05.12-.02.04-.05.08-.09.11l-.03.02-.07-.07.02-.03c.04-.07.07-.15.11-.23.04-.08.08-.16.14-.21l.03-.02.07.08ZM11.1,33.34c-.01-.19.01-.44.09-.62v-.03s.11.02.11.02v.03c-.01.18.02.47.09.69l-.08.13c-.13.03-.17-.04-.17-.1,0-.02,0-.04,0-.06,0,0,0-.01,0-.01l-.02-.03ZM11.32,34.58l-.02.16-.08-.14c-.09-.17-.19-.38-.15-.58l.02-.09.07.06c.18.15.18.44.16.59ZM11.07,29.94v-.05c-.04-.08.02-.31.18-.26l.04.03c.04.13-.05.26-.17.27h-.05ZM10.26,36.49l-.17-.06.17-.05c.2-.06.47-.12.8-.14h.11s-.05.09-.05.09c-.15.26-.58.26-.86.17ZM11.25,28.8l-.07.1s-.04.07-.06.11c-.02.04-.04.08-.06.13-.04.08-.08.17-.15.23l-.03.02-.07-.09.03-.02s.04-.05.06-.09c.02-.04.03-.09.04-.14.02-.09.06-.22.19-.23h.12ZM10.42,29.98l.18-.11c.06-.04.14-.1.21-.17.04-.03.07-.07.11-.1.04-.03.07-.06.1-.08l.03-.02.07.08-.03.03c-.12.12-.17.26-.18.41v.03c-.11.05-.17,0-.21-.03-.02-.01-.03-.03-.05-.04,0,0-.01,0-.02,0h-.21ZM11.04,32.21c0,.07,0,.14,0,.21,0,.07-.01.14-.03.22l-.05.2-.06-.2c-.08-.27-.14-.67.11-.87l.02-.02.08.06v.03c-.07.12-.07.25-.07.38ZM11,33.3c.01.14.03.26.1.36l.02.03s-.05.06-.06.08c-.01.02-.02.03-.03.05-.02.04-.04.08-.09.11l-.07.06-.02-.08c-.1-.34-.1-.68,0-1.02v-.03s.1,0,.1,0v.03c.03.13.03.27.04.41ZM10.13,37.99l.08-.05c.1-.06.21-.11.33-.17.11-.06.21-.11.29-.19l.04-.02c.24.06.31.18.13.28-.05.03-.12.06-.18.09-.06.03-.1.05-.12.07l-.03.02s-.07,0-.1.01c-.04,0-.07.02-.11.03-.08.02-.16.03-.25-.03l-.08-.05ZM10,35.9c.28.02.6.06.91.12h.05v.18h-.07c-.15-.03-.32-.03-.47-.05-.16-.02-.32-.05-.46-.15l-.17-.12.21.02ZM10.75,28.77l.04-.2.07.2c.03.09-.02.17-.06.22-.02.07-.04.14-.04.22v.09l-.08-.03c-.09-.04-.13-.11-.09-.18.01-.03.03-.05.05-.08.02-.02.04-.04.05-.06.02-.06.04-.12.05-.16ZM10.34,30.75c.07-.09.15-.17.21-.26.06-.09.11-.17.12-.27v-.04h.11v.04c.02.13-.02.24-.06.34-.02.05-.04.1-.05.15-.01.05-.02.1-.02.15v.03c-.07.06-.15.04-.19.02-.04-.02-.09-.06-.11-.09l-.04-.04.03-.04ZM10.8,31.29c-.08.07-.14.16-.2.25-.03.05-.06.09-.09.13-.03.04-.07.09-.1.12l-.03.03-.08-.07.02-.03c.12-.17.19-.35.25-.55l.02-.06.28.12-.06.06ZM10.61,33.48c.02.09.06.17.09.26.06.18.12.37.06.57l-.03.12-.07-.1c-.2-.3-.26-.74-.19-1.11v-.04s.12.01.12.01v.04c0,.08,0,.17.03.25ZM10.86,37.53l-.08.03c-.14.05-.27.11-.41.15-.15.04-.3.05-.47,0h-.03s.01-.11.01-.11h.03c.06-.01.13-.04.2-.08.07-.04.15-.08.22-.12.15-.07.33-.11.47.07l.05.06ZM10.29,35.55c.15.07.29.13.45.18h.04v.18h-.07c-.34-.09-.68-.26-.93-.49l-.03-.02.06-.09h.03c.15.09.3.16.45.23ZM10.53,32.85c-.05-.28-.05-.74.13-1l.02-.03.09.03v.03c-.05.35-.05.54,0,.89v.04s-.07.05-.09.05c-.02,0-.04,0-.07.02l-.06.02v-.06ZM10.53,28.59l.09.03v.03c0,.06-.03.11-.06.16-.01.05-.03.1-.05.15-.02.05-.05.11-.09.15l-.07.08-.03-.1c-.02-.07,0-.13.04-.18.03-.04.06-.09.09-.14.01-.05.03-.1.05-.14l.02-.03ZM9.74,34.84v-.04s.09-.04.09-.04l.02.03c.16.29.49.53.8.66h.03s-.02.11-.02.11h-.03c-.35-.03-.75-.33-.87-.72ZM10.63,34.48l-.02.36-.09-.09c-.29-.3-.32-.77-.33-1.14v-.04s.11-.01.11-.01v.04c.07.33.15.63.34.88ZM10.57,34.96l.02.04s0,.03,0,.05c0,.02,0,.04.01.05.01.04.03.1-.03.16l-.04.04-.04-.04c-.35-.32-.62-.72-.61-1.17v-.03s.1-.02.1-.02v.03c.13.3.33.65.59.89ZM10.18,30.39c.06-.06.12-.12.16-.18l.07-.18.1.03v.04c-.02.06-.04.12-.07.17-.05.15-.11.3-.16.46l-.02.07-.31-.17.05-.05s.06-.06.09-.09c.03-.03.06-.06.09-.09ZM10.5,37.27c-.24.11-.61.17-.89.06h-.03s.02-.11.02-.11h.03c.21,0,.43-.09.62-.21l.04-.02.3.25-.08.04ZM10.01,28.88c.07-.07.12-.14.16-.21.05-.08.09-.16.14-.23l.02-.03.09.04v.03s-.04.08-.06.12c-.02.04-.03.07-.05.11-.03.07-.06.14-.06.21v.07s-.07-.02-.07-.02c-.02,0-.03,0-.05,0-.04,0-.08-.01-.11-.07v-.03ZM10.34,30.95s.03.02.05.03c0,0,.01,0,.01,0l.08.02-.05.07c-.06.08-.14.16-.21.25-.07.09-.12.17-.14.27v.04s-.12-.02-.12-.02v-.04c.02-.05.04-.1.06-.15.02-.05.04-.09.06-.14.04-.09.08-.18.09-.28.06-.09.13-.08.17-.06ZM10.44,33.03l-.16.2-.03-.09c-.13-.36-.17-.75-.02-1.11l.08-.2.03.21c.03.27.03.68.1.98ZM10.19,29.89l.13-.07c-.06-.02-.12-.07-.15-.11l-.03-.04.04-.03c.05-.05.12-.09.17-.14.05-.05.08-.1.09-.15v-.04s.12.01.12.01v.04s-.02.08-.03.11c-.01.03-.03.07-.04.1-.03.07-.05.13-.05.2v.06h-.06s-.03,0-.04,0l-.07.14c-.05.1-.11.19-.17.28-.06.09-.11.18-.13.27v.04s-.05,0-.05,0c-.08.01-.25-.05-.2-.19.13-.08.19-.16.26-.25.03-.05.06-.09.1-.13.03-.04.07-.08.12-.1ZM10.22,28.26l.04.1-.03.02s-.08.05-.11.09c-.02.02-.03.04-.04.06-.01.02-.03.05-.04.07-.05.08-.11.2-.25.18h-.12s.08-.1.08-.1c.03-.03.06-.06.09-.1.03-.04.06-.08.09-.12.06-.08.14-.16.25-.19h.04ZM9.33,37.03l-.19-.08.2-.03c.23-.03.48-.12.71-.22l.13-.06-.06.14c-.14.31-.53.37-.8.25ZM9.74,29.4l.06-.02c.06-.02.11-.08.16-.15.03-.03.05-.07.07-.09.02-.03.05-.06.09-.07l.15-.04-.09.13c-.04.05-.09.11-.14.17-.04.06-.06.11-.06.18v.05s-.04.01-.04.01c-.05.01-.1.01-.13-.03-.01-.01-.02-.03-.03-.04,0-.01-.01-.02-.02-.04l-.03-.06ZM10.16,33.22c.02.05,0,.1-.01.13,0,.01-.01.02-.02.03,0,0,0,.01,0,.02l-.03.14-.07-.12c-.18-.32-.27-.79-.21-1.17v-.04s.11,0,.11,0v.04c.03.32.11.67.25.97ZM5.99,29.25l.03.02c1.25,1.06,2.66,1.86,4.08,2.51l.05.02v.05c-.04.09-.12.12-.2.13-.08,0-.16-.02-.2-.03-.66-.37-1.33-.72-1.98-1.13-.65-.41-1.27-.88-1.83-1.46l-.03-.03.07-.08ZM9.83,30.8l.02-.06.32.15-.08.06c-.17.13-.34.29-.38.47v.06s-.07-.01-.07-.01c-.05-.01-.1-.03-.14-.07l-.04-.04.04-.04c.15-.16.26-.33.33-.51ZM9.99,36.6c-.13.08-.27.1-.41.1s-.27-.02-.41-.03h-.04s0-.11,0-.11h.04c.22-.04.47-.13.7-.18h.04s.14.19.14.19l-.05.03ZM9.42,30.23c.08-.06.16-.15.23-.25.04-.05.07-.1.11-.15.04-.05.07-.1.12-.13l.02-.02.08.06v.03c-.06.1-.13.2-.19.3-.05.1-.09.19-.09.29v.03c-.07.06-.14.04-.18.02-.04-.02-.08-.06-.1-.08l-.05-.05.06-.04ZM9.72,33.06c.07.15.14.3.24.43l-.05.28-.07-.09c-.22-.28-.46-.65-.4-1.07v-.03s.1,0,.1,0v.03c.06.15.12.3.18.46ZM9.82,36.26c-.24.09-.63.11-.87-.03l-.03-.02.03-.09h.03c.21.01.5-.02.72-.09h.04s.15.2.15.2l-.07.02ZM9.27,29.11l.09-.02s.1-.04.15-.09c.05-.05.11-.11.16-.16l.03-.03.08.07-.02.03s-.04.05-.06.08c-.02.03-.04.05-.05.08-.03.06-.05.12-.05.18v.11l-.09-.07s-.02-.01-.03-.02c-.01,0-.03-.02-.04-.03-.03-.02-.07-.04-.1-.08l-.06-.07ZM9.75,33.79l-.03.36-.08-.08c-.27-.27-.54-.67-.49-1.09v-.03s.1,0,.1,0v.03c.09.29.25.61.5.82ZM9.74,30.65l-.07.07s-.07.08-.1.12c-.03.05-.06.1-.1.14-.06.1-.14.19-.24.25l-.03.02-.06-.09.03-.02s.07-.08.1-.13c.03-.06.05-.12.08-.18.05-.11.13-.25.3-.21l.1.02ZM9.09,30.15l.61-.75v.18c-.02.1-.09.18-.15.26-.03.04-.06.07-.09.11-.03.04-.05.07-.06.1l-.07.2c-.07.04-.12.01-.14,0-.01,0-.02-.02-.03-.03,0,0-.01-.01-.02-.02l-.05-.03ZM8.91,35.76c.1.03.21.03.34.03s.27,0,.42,0h.05v.17h-.05c-.12,0-.26.04-.4.04s-.3-.03-.41-.14l-.14-.15.2.05ZM9.18,28.98l-.02-.1.43-.14.05.08-.16.14h-.3ZM9.61,34.19l-.02.38-.08-.06c-.29-.21-.59-.55-.61-.95v-.19s.1.16.1.16c.17.22.38.51.61.67ZM8.81,35.29c.12.05.25.08.38.11.13.03.27.05.4.08h.04v.18h-.06c-.12-.03-.29-.03-.44-.05-.15-.03-.31-.08-.39-.23l-.08-.15.16.07ZM9.5,35.05h.04s.08.25.08.25h-.08c-.29,0-.63-.19-.88-.4l-.02-.25.09.04c.14.07.26.15.39.22.13.07.25.12.39.14ZM9.36,29.31l.08.06-.41.72-.05-.02s-.07-.03-.1-.04c-.04-.02-.07-.04-.1-.08l-.03-.04.6-.6ZM9.17,30.37s.05.01.07.02c.01,0,.03.02.05.03.02,0,.02.01.03.01l.07.02-.03.06s-.06.1-.09.14c-.03.04-.07.09-.11.13-.07.09-.14.17-.16.25l-.02.06-.28-.1.07-.06c.14-.14.31-.31.35-.49,0-.03.03-.06.07-.07ZM8.3,29.63s-.06-.05-.09-.07l-.11-.07.13-.03c.29-.07.55-.17.81-.33l.03-.02.07.07-.02.03c-.1.14-.24.3-.37.45l-.06.18h-.05c-.1-.03-.17-.08-.24-.13-.03-.03-.06-.05-.09-.08ZM8.96,30.22l.1.02-.07.07c-.08.08-.16.17-.25.25-.08.08-.17.17-.26.23l-.03.02-.07-.07.02-.03c.11-.14.24-.32.3-.49.05-.09.12-.08.17-.06.02,0,.04.02.06.03.02,0,.03.01.03.02ZM9.09,29.05h-.1c-.09.02-.19.07-.31.13-.12.06-.25.14-.37.19-.26.1-.54.11-.74-.26l-.04-.08,1.46-.09s.05,0,.07,0h.04s0,.11,0,.11ZM8.42,29.97l.11.03v.04c-.06.22-.22.4-.37.55l-.11-.03.02-.04s.05-.09.08-.13c.03-.04.07-.08.1-.13.07-.08.13-.16.16-.25v-.04ZM8.05,29.69h.04c.11-.03.22.09.21.2v.03c-.18.13-.31.26-.44.42l-.02.03-.09-.05.02-.03s.05-.09.07-.13c.03-.04.06-.08.09-.13.06-.09.1-.18.12-.29v-.04ZM7.99,29.61v.04c-.2.15-.37.33-.54.45l-.03.02-.07-.08.03-.03c.16-.15.31-.31.36-.48v-.04h.05c.06,0,.16.01.2.12ZM7.07,29.91l-.11-.04.1-.06c.17-.11.31-.31.43-.49l.03-.05.05.03c.18.11.08.21,0,.27-.04.03-.08.05-.12.09-.04.03-.06.06-.07.08l-.03.04s-.04.02-.05.03c0,0-.01.02-.02.02,0,0-.01.02-.02.03-.04.05-.09.09-.19.05ZM7.36,29.12l.1.03-.08.07c-.09.07-.19.14-.29.2-.1.06-.21.12-.31.18l-.16.11.08-.18c.03-.08.08-.12.14-.16.05-.03.1-.07.16-.11.04-.02.09-.07.15-.1.06-.03.14-.06.21-.04ZM7.24,18.44h.06c.05,0,.13,0,.13,0l-.14.1c-.09.07-.18.06-.25.06-.03,0-.07,0-.1,0-.03,0-.06,0-.09.01h-.03s-.05-.08-.05-.08l.03-.02s.06-.05.09-.09c.02-.02.04-.04.05-.06.02-.02.04-.04.06-.06.09-.07.2-.13.34-.06.05.07.04.13,0,.16-.02.01-.03.02-.05.02-.01,0-.03,0-.05.01ZM7.21,28.97v.11s-.03,0-.03,0c-.07.01-.12.03-.18.05-.06.02-.11.05-.17.07-.13.04-.28.07-.51.06h-.07s.02-.07.02-.07c.03-.09.11-.12.18-.14.03-.01.07-.02.1-.03.03-.01.06-.02.09-.04h.57ZM11.93,32.53c0-.74.6-1.34,1.34-1.34s1.34.6,1.34,1.34-.6,1.34-1.34,1.34-1.34-.6-1.34-1.34Z"/>
  <path class="cls-2" d="M31.95,27.9h-1.79v1.31h1.93c.31,0,.53-.05.68-.16.15-.11.22-.27.22-.49,0-.24-.08-.42-.23-.52-.15-.1-.42-.15-.81-.15M31.82,30.28h-1.66v1.64h1.63c.51,0,.86-.06,1.05-.19.19-.12.29-.33.29-.63s-.1-.49-.31-.63c-.21-.13-.54-.19-.99-.19ZM36.94,28.62s.02-.06.03-.09c0-.03.01-.06.01-.08,0-.07-.02-.13-.07-.18-.05-.05-.11-.09-.2-.12v-.15h1.61v.15c-.09.04-.16.07-.19.11-.04.04-.06.09-.06.15,0,.02,0,.05,0,.08,0,.03.02.07.04.13l1.53,3.59c.1.22.17.37.24.43.06.07.14.12.24.15v.15h-1.63v-.15c.09-.03.16-.07.19-.11.04-.04.06-.09.06-.15,0-.03,0-.05,0-.08,0-.03-.02-.07-.04-.12l-.26-.62h-1.93l-.24.62c-.02.05-.03.09-.04.12,0,.03,0,.06,0,.08,0,.06.02.11.05.15.04.04.1.07.19.11v.15h-1.46v-.15c.17-.06.31-.23.43-.51.01-.03.02-.06.03-.07l1.48-3.59ZM37.47,29.41l-.65,1.58h1.32l-.67-1.58ZM44.86,31.15v-2.66c0-.11-.02-.19-.05-.24-.04-.05-.1-.08-.19-.1v-.15h1.35v.15c-.09.02-.15.06-.19.1-.03.04-.05.12-.05.24v3.97c0,.11.02.19.05.23.03.04.09.07.19.1v.15h-1.52v-.15c.06-.02.11-.04.14-.07.04-.03.05-.06.05-.1,0-.02,0-.05-.02-.07,0-.02-.03-.05-.04-.07l-2.42-2.83v2.81c0,.11.02.19.05.23.03.05.1.08.19.1v.15h-1.34v-.15c.09-.02.15-.06.19-.1.03-.04.05-.12.05-.23v-3.98c0-.11-.02-.19-.05-.23-.03-.04-.09-.07-.19-.1v-.15h1.62v.15c-.06.02-.1.05-.13.07-.03.03-.04.06-.04.1,0,.02,0,.04.01.06,0,.02.03.05.06.09l2.29,2.7ZM50.73,32.8c-.18.09-.36.15-.54.19-.18.04-.37.06-.56.06-.71,0-1.29-.25-1.76-.74-.46-.49-.7-1.11-.7-1.85s.23-1.35.69-1.84c.46-.49,1.05-.73,1.76-.73s1.32.24,1.79.74c.47.49.7,1.11.7,1.86,0,.32-.05.63-.16.92-.11.29-.28.58-.5.85l.44.55s.05.07.08.09c.02.02.05.02.07.02.02,0,.04,0,.06-.02.02,0,.06-.03.1-.05l.08.09-.94,1-.07-.09s.04-.08.05-.11c.01-.03.02-.06.02-.07,0-.02,0-.04-.02-.06-.01-.02-.04-.06-.07-.11l-.51-.7ZM50.15,31.97c-.14-.21-.27-.37-.4-.48-.13-.11-.26-.19-.4-.23v-.09c.1-.07.18-.12.26-.15.08-.03.15-.05.22-.05.23,0,.52.14.87.41.04.03.07.05.08.07.1-.2.18-.38.22-.53.05-.16.07-.32.07-.48,0-.47-.13-.84-.4-1.13-.26-.29-.61-.43-1.04-.43s-.77.14-1.03.43c-.26.29-.4.66-.4,1.13,0,.49.14.88.41,1.17.27.29.63.44,1.09.44.05,0,.1,0,.16-.02.06-.01.15-.03.28-.07ZM56.88,28.48c0-.11-.01-.19-.05-.23-.03-.04-.09-.07-.19-.1v-.15h1.49v.15c-.1.02-.16.05-.19.09-.03.04-.05.12-.05.24v2.61c0,.71-.17,1.21-.5,1.51-.33.29-.89.44-1.67.44s-1.32-.15-1.65-.45c-.33-.3-.49-.8-.49-1.5v-2.61c0-.11-.02-.19-.05-.23-.03-.05-.1-.08-.19-.1v-.15h1.48v.15c-.09.02-.15.06-.19.1-.03.04-.05.12-.05.23v2.4c0,.44.09.75.26.94.18.19.47.28.88.28s.7-.1.88-.29c.18-.19.27-.52.27-.98v-2.34ZM63.48,28c.1,0,.17-.02.2-.05.03-.03.06-.1.08-.21h.13v1.54h-.13c-.02-.11-.05-.19-.08-.22-.04-.04-.1-.06-.2-.06h-2.56v.99h1.57c.1,0,.17-.02.2-.05.03-.04.06-.11.08-.22h.13s0,1.41,0,1.41h-.13c-.02-.11-.05-.18-.08-.22-.04-.04-.1-.06-.2-.06h-1.57v1.11h2.66c.1,0,.17-.02.2-.05.03-.03.06-.11.09-.23h.12v1.55h-.12c-.02-.11-.05-.19-.09-.23-.04-.04-.1-.06-.2-.06h-3.91v-.15c.09-.02.16-.06.19-.1.03-.04.05-.12.05-.23v-3.98c0-.11-.02-.19-.05-.23-.03-.05-.1-.08-.19-.1v-.15h3.81ZM68.7,32.94v-.15c.1-.03.17-.07.2-.11.03-.04.05-.12.05-.22v-5.05c0-.11-.02-.19-.05-.23-.03-.04-.1-.08-.19-.1v-.15h1.92v.15c-.06.01-.1.04-.14.08-.03.04-.05.1-.05.16,0,.03.01.08.04.14.01.03.02.05.03.07l1.36,3.17,1.44-3.17c.03-.05.04-.09.05-.13,0-.03.01-.06.01-.09,0-.06-.01-.11-.04-.14-.03-.03-.08-.06-.15-.09v-.15h1.87v.15c-.1.03-.17.07-.2.11-.03.04-.05.12-.05.22v5.05c0,.11.02.19.05.23.03.05.1.08.19.1v.15h-1.53v-.15c.1-.02.16-.06.19-.1.03-.04.05-.12.05-.23v-3.85l-1.96,4.29-1.87-4.29v3.85c0,.12.01.19.05.23.03.04.09.07.19.1v.15h-1.45ZM77.92,32.46c0,.11.02.19.05.23.03.05.1.08.19.1v.15h-1.48v-.15c.09-.02.15-.06.19-.1.03-.04.05-.12.05-.23v-3.98c0-.11-.02-.19-.05-.23-.03-.04-.09-.07-.19-.1v-.15h1.48v.15c-.09.02-.16.06-.19.1-.03.04-.05.12-.05.23v3.98ZM79.52,32.57l.45-1.23.15.07s0,.02,0,.03c0,.03,0,.06,0,.07,0,.12.17.26.51.4.34.15.69.22,1.04.22s.65-.06.86-.17c.21-.12.32-.27.32-.46,0-.27-.36-.43-1.07-.48-.28-.02-.51-.03-.67-.05-.49-.05-.86-.19-1.1-.43-.24-.23-.36-.56-.36-.97,0-.5.18-.91.54-1.22s.84-.46,1.44-.46c.41,0,.82.09,1.23.28.07.03.11.04.12.04.04,0,.12.04.24.11.12.08.22.11.28.11.01,0,.03,0,.06-.02.03-.02.06-.04.08-.06l.11.06-.51,1.24-.14-.09s0,0,0-.02c0,0,0-.02,0-.04,0-.15-.16-.3-.48-.46-.32-.16-.65-.25-.99-.25-.32,0-.57.05-.77.15-.19.1-.29.23-.29.39,0,.25.28.39.84.43.42.02.77.07,1.03.12.46.1.8.27,1.03.52.23.25.34.56.34.95,0,.5-.2.9-.59,1.22-.39.31-.91.47-1.54.47s-1.17-.15-1.71-.44c-.1-.06-.17-.08-.19-.08-.03,0-.05.01-.07.02-.01.01-.03.03-.04.07l-.14-.04ZM87.62,28.89h-1.16v1.12h1.2c.37,0,.64-.05.82-.14.18-.09.26-.24.26-.44s-.09-.33-.26-.42c-.17-.09-.46-.13-.86-.13ZM86.45,32.46c0,.11.02.19.05.23.03.05.1.08.19.1v.15h-1.48v-.15c.09-.02.15-.06.19-.1.03-.04.05-.12.05-.23v-3.98c0-.11-.02-.19-.05-.23-.03-.04-.09-.07-.19-.1v-.15h2.78c.56,0,.98.13,1.29.38.31.25.46.6.46,1.05,0,.38-.1.69-.29.93-.2.24-.48.41-.87.52l.81,1.34c.07.11.14.21.23.29.08.08.21.18.37.28v.15h-1.76v-.15c.07-.02.12-.04.16-.07.04-.03.05-.07.05-.12,0-.01-.01-.05-.04-.11-.03-.06-.05-.12-.08-.17l-.82-1.39h-1.06v1.53ZM28.8,32.94v-.15c.1-.03.17-.07.2-.11.03-.04.05-.12.05-.22v-5.05c0-.11-.02-.19-.05-.23-.03-.04-.1-.08-.19-.1v-.15h3.44c.57,0,1.02.14,1.34.41.32.27.48.65.48,1.13,0,.28-.06.52-.17.72-.11.21-.29.38-.52.52.29.17.51.38.64.62.14.24.21.53.21.86,0,.56-.18.99-.55,1.3-.37.31-.88.46-1.55.46h-3.32Z"/>
  <path class="cls-2" d="M79.61,15.84l.94,1.02-.94,1.02-.94-1.02.94-1.02ZM89.77,12.19l-.32.74-7.39,2.41.27-.69,7.44-2.46ZM76.81,13.43s-.55.54-.61.59c-.06.05-.2,0-.16-.06.57-1.15,1.19-1.31,1.19-1.31,0,0,2.2-.26,2.03.03-1.22,2.1-2.53,2.18-2.83,2.21-.3.03-.68-.22-.54-.24,1.88-.24,2.39-1.24,2.39-1.24l-1.47.02ZM58.78,13.54s-.26-.17-.21.82c.02.43.1,1.26-.29,1.43-.05.02-.31-.03-.42-.69-.04-.27-.34-1.14-.61-.71-.1.16-.12-.09-.11-.18.01-.1.11-.46.33-.46.37,0,.59.77.65.94.06.16.17.55.17.55l.03-1.23s.05-.94.5-1.01c.26-.04.62.68.35.93-.07.06-.12-.22-.19-.29-.1-.1-.17-.09-.17-.09ZM36.45,13.71c-.04.08.18,2-.38,2.15-.21.06-.29-.53-.35-.71-.06-.17-.55-1.3-.83-.69-.08.17-.14-.03-.11-.15,0,0,.15-.84.66-.34.41.4.65,1.34.65,1.34,0,0,.1-.15.06-1.33,0-.07.03-.41.12-.59.11-.23.3-.46.56-.43.15.02.61.28.25,1.08-.04.1-.1,0-.1-.16,0-.16-.26-.73-.55-.18ZM46.28,14.43s-.54.55-.59.6c-.06.05-.2.01-.17-.06.55-1.16,1.16-1.33,1.16-1.33,0,0,2.19-.29,2.03,0-1.18,2.12-2.49,2.22-2.79,2.26-.3.04-.68-.21-.54-.23,1.88-.27,2.37-1.28,2.37-1.28l-1.47.04ZM61.16,20.04c-.03.29-.77,1.36-.77,1.36,0,0-.33.41-.78.17l-1.61-.9s-1.95,2.86-9.53,1.04c-.01,0-.58,1.05-.58,1.05l-.36.07.66-1.25s-.33-.3-.53-.67c0,0-4.29,2.6-9.97.09-.08-.13.44,1.82-5.85,2.95l-3.17-.97s7.36-1.73,8.54-2.86c.06-.06-.35-1.39-.35-1.39l.74-1.4s-.05,1.03.56,1.62c.62.61,3.23,1.31,5.93,1.07,2.85-.42,3.35-.69,4.54-1.92.27-.27.15.01.15.01l-.3.89s.02.56.61.69c.26.06,2.55-2.27,2.55-2.27,0,0,1.12-.98,2.35-.48.68.27,1.18.81,1.11,2.33-.02.34-.99,1.11-.99,1.11,0,0,2.36,0,3.68-1.08.26-.21.88-2.18,2.09-2.15.17,0,1.45,1.16,1.27,2.88ZM49.91,19.95s2.57.79,4.46-.3c.18-.1-.19-1.57-2.02-1.56-.54,0-1.63,1-2.44,1.85ZM60.15,19.48s-.07-1.06-1.3-1.14c-.11,0-.2.3-.2.3l1.5.83ZM69.98,13.28c.11,0-.69.7-.69.7,0,0-1.61.15-1.63.45-.01.21.44.19,1.37.14.21-.01.73.5.11,1.16-.2.21-1.19,1.22-2.97.77-.08-.02-.18-.32-.18-.32,0,0,1.8-.05,2.57-.52.27-.16.08-.37-.14-.36-.22.01-1.55.45-1.67-.14-.05-.26.55-1.91,3.22-1.89ZM89.48,16.86c.03.09.66,1.21.49,2.45-.22,1.65-1.9,2.24-2.24,2.24-1.72,0-1.47-1.53-1.65-1.33-1.93,2.12-7.67,2.01-8.77,1.94-4.84-.3-5.39-2.81-5.39-2.81-.42.54-1.13,1.31-2.22,1.94-.71.36-2.65.99-4.2.61-1.39-.34-1.91-1.2-2.01-1.54-.7-2.37,1.26-4.93,1.26-4.93-1.77,3.15.1,4.13,1.46,4.41.55.11,1.71-.02,1.98-.08,2.74-.66,3.46-1.87,3.46-1.87-.12-1.73-.36-5.64-.36-5.64l1.13-1.87c-.03,2.44-.03,6.06.34,7.25.7,2.26,5.29,2.48,5.29,2.48,7.06.5,8.59-2.42,8.78-2.58.29-.24.33.07.33.07,0,0-.4.93-.39.95.91,1.57,2.33.46,2.33.46l-.45-.82s.79-1.41.83-1.33ZM87.07,22.24l.94,1.02-.94,1.02-.94-1.02.94-1.02Z"/>
</svg>