<?xml version="1.0" encoding="UTF-8"?>
<svg id="Layer_1" data-name="Layer 1" xmlns="http://www.w3.org/2000/svg" viewBox="0 0 90 45">
  <defs>
    <style>
      .cls-1 {
        fill: #fff;
      }
    </style>
  </defs>
  <path class="cls-1" d="M58.12,35.25c-1.24.15-3.12.39-3.58.52-.46.13-.91.42-1.11,1.11-.13.45-.37,2.34-.52,3.58,2.13-1.29,3.92-3.08,5.21-5.21M45.01,42.65c2.68,0,5.21-.69,7.4-1.91-.14-1.21-.41-3.38-.55-3.87-.2-.69-.65-.98-1.11-1.11-.69-.19-4.7-.65-4.7-.65v-.28s4-.46,4.7-.65c.46-.13.91-.42,1.11-1.11.19-.65.61-4.33.66-4.72-2.74.51-4.63,1.77-6.99,2.98-2.51,1.28-4.95,2.2-8.14,2.2-2.81,0-5.3-.91-7.12-2.03,1.81,6.43,7.72,11.15,14.74,11.15M29.95,9.66h1.64v-1.28h.58c1.53,0,2.49-.79,2.49-2.16,0-1.51-1.03-2.05-2.72-2.05-.65,0-1.44.05-2,.11v5.37ZM35.32,9.66h1.64v-2.11h1.71v2.11h1.64v-5.37h-1.64v2.14h-1.71v-2.14h-1.64v5.37ZM41.52,9.66h1.64v-5.37h-1.64v5.37ZM44.37,9.66h2.97l.25-1.08h-1.57v-4.29h-1.64v5.37ZM48.17,9.66h1.64v-5.37h-1.64v5.37ZM51.05,9.66h1.64v-1.28h.58c1.53,0,2.49-.79,2.49-2.16,0-1.51-1.03-2.05-2.72-2.05-.65,0-1.44.05-2,.11v5.37ZM45.01,12.04c-1.3,0-2.55.16-3.76.46.06.54.25,2.03.34,2.35.11.38.36.54.61.61.38.1,2.54.35,2.54.35v.15s-2.16.26-2.54.36c-.26.07-.51.23-.61.61-.09.3-.26,1.67-.33,2.26,1.28.17,2.64.33,2.64.33v.28s-4,.46-4.69.65c-.46.13-.91.42-1.11,1.11-.18.64-.58,4.11-.64,4.63,2.82-.51,5.23-1.97,7.04-2.85,2.57-1.24,4.93-2.26,8.15-2.26,2.8,0,5.26.9,7.07,2.01-1.84-6.39-7.73-11.06-14.71-11.06M58.82,8.18c0,.34-.25.52-.85.52-.54,0-1.37-.18-1.87-.43l.18,1.24c.49.18,1.17.27,1.71.27,1.37,0,2.49-.45,2.49-1.8,0-1.8-2.58-1.46-2.58-2.32,0-.29.29-.43.76-.43.52,0,1.08.11,1.46.27l-.13-1.17c-.43-.09-.81-.16-1.5-.16-1.33,0-2.23.52-2.23,1.62,0,1.89,2.56,1.51,2.56,2.38M52.78,28.31c.03.31.47,4.1.66,4.77.2.69.65.98,1.11,1.11.49.14,2.66.41,3.87.55.93-1.68,1.55-3.56,1.79-5.56-1.69-.68-3.63-1.03-5.22-1.03-.81,0-1.54.06-2.21.16M35.41,18.88c.46-.13.91-.42,1.11-1.11.13-.44.36-2.25.51-3.49-2.08,1.27-3.83,3.03-5.1,5.11,1.24-.15,3.04-.38,3.48-.51M29.82,25.43c1.68.67,3.6,1,5.19,1,.75,0,1.47-.07,2.15-.18-.06-.55-.46-4.05-.64-4.68-.2-.69-.65-.98-1.11-1.11-.48-.13-2.57-.4-3.79-.54-.93,1.67-1.56,3.53-1.8,5.51M40.71,16.94c-.11-.38-.36-.54-.61-.61-.3-.08-1.71-.26-2.29-.33.11.8.22,1.52.29,1.77.2.69.65.98,1.11,1.11.26.07,1.01.18,1.83.3-.07-.61-.24-1.94-.32-2.23M40.71,14.85c.09-.3.26-1.71.33-2.29-1.23.33-2.4.81-3.49,1.41.06.51.14,1.18.23,1.81.56-.07,2.01-.24,2.32-.32.26-.07.51-.23.61-.61M29.81,29.24c1.94,1.23,4.63,1.84,6.89,1.84,3.42,0,5.48-1.02,7.74-2.14,3.1-1.55,5.67-3.18,9.72-3.16,2.45.01,4.61.65,6.16,1.48,0-.64-.05-1.28-.13-1.9-1.93-1.22-4.62-1.85-6.87-1.85-3.42,0-5.47,1.05-7.73,2.17-2.9,1.44-5.67,3.17-9.7,3.17-2.45,0-4.63-.66-6.19-1.49h0c0,.63.04,1.28.12,1.89M62.66.97v26.36c0,9.73-7.92,17.67-17.66,17.67s-17.66-7.93-17.66-17.67V.97c2.3-.28,9.67-.97,17.66-.97s15.29.64,17.66.97M49.18,37.98c-.08-.3-.28-1.98-.28-1.98h-.12s-.19,1.68-.28,1.98c-.08.3-.28.42-.48.48-.3.08-1.98.28-1.98.28v.12s1.68.2,1.98.28c.2.05.39.18.48.48.09.3.28,1.98.28,1.98h.12s.2-1.68.28-1.98c.09-.3.28-.42.48-.48.3-.08,1.98-.28,1.98-.28v-.12s-1.68-.2-1.98-.28c-.2-.05-.39-.18-.48-.48M54.23,6.25c0-.67-.38-1.06-1.19-1.06-.08,0-.17,0-.27,0v2.22h.27c.85,0,1.19-.47,1.19-1.17M31.94,7.42h-.27v-2.22c.1,0,.19,0,.27,0,.81,0,1.19.38,1.19,1.06s-.34,1.17-1.19,1.17"/>
</svg>