<?xml version="1.0" encoding="UTF-8"?>
<svg id="Layer_1" data-name="Layer 1" xmlns="http://www.w3.org/2000/svg" viewBox="0 0 90 45">
  <defs>
    <style>
      .cls-1 {
        fill: #fff;
      }
    </style>
  </defs>
  <polygon class="cls-1" points="5.95 29.43 6.31 29.82 6.71 29.43 6.31 29.05 5.95 29.43"/>
  <polygon class="cls-1" points="6.71 29.43 7.12 29.82 7.48 29.43 7.12 29.05 6.71 29.43"/>
  <path class="cls-1" d="M20.44,28.03h-1.32c-.05,0-.08,0-.13-.03-.05,0-.1-.03-.15-.05-.05-.03-.08-.05-.13-.08-.03-.03-.05-.05-.05-.1v-2.08h-.55v1.8c0,.18-.03.33-.08.4s-.18.13-.35.13h-1.17c-.08-.1-.15-.23-.18-.4-.03-.15-.05-.33-.08-.5s-.05-.35-.08-.53c-.03-.18-.1-.33-.2-.48-.1-.15-.23-.25-.4-.35-.18-.1-.4-.13-.67-.13-.18,0-.35.03-.48.05s-.25.08-.33.1l-.05.43c.08-.03.23-.08.35-.1s.28-.05.43-.05c.18,0,.33.03.45.1.1.08.2.15.25.25.05.1.1.23.12.38.03.13.05.28.05.43.03.15.05.28.08.43.03.15.08.28.15.38h-2.66c-.05,0-.08,0-.13-.03-.05,0-.1-.03-.15-.05-.05-.03-.08-.05-.1-.08-.03-.03-.05-.05-.05-.1v-.45c0-.25-.03-.45-.08-.65-.05-.2-.15-.38-.28-.53-.13-.15-.33-.25-.55-.33-.23-.07-.53-.13-.89-.13-.13,0-.28,0-.43.03-.15.03-.33.03-.48.05-.15.02-.3.05-.45.07-.15.03-.28.05-.35.08v-2.16h-.55v4.23h-1.34c-.05,0-.08,0-.13-.03-.05,0-.1-.03-.15-.05-.05-.03-.08-.05-.13-.08-.03-.03-.05-.05-.05-.1v-2.08h-.55v1.8c0,.18-.03.33-.08.4-.05.08-.18.13-.35.13h-.92c-.05,0-.08,0-.13-.03-.05,0-.1-.03-.15-.05-.05-.03-.08-.05-.1-.08-.03-.03-.05-.05-.05-.1v-.45c0-.25-.03-.45-.08-.65-.05-.2-.13-.38-.28-.53-.13-.15-.33-.25-.55-.33-.23-.08-.53-.13-.89-.13-.13,0-.28,0-.43.03s-.3.03-.48.05c-.15.03-.3.05-.45.07-.15.03-.28.05-.35.08v-2.16h-.5v4.23H.08l-.08.45h3.83c.23,0,.4-.03.5-.1.13-.05.2-.13.25-.2.08.1.15.18.25.23.1.05.2.05.33.05h.99c.23,0,.4-.03.5-.1.13-.05.2-.13.25-.2.08.1.15.18.25.23s.2.05.33.05h4.48c.23,0,.4-.03.5-.1.13-.05.2-.13.25-.2.08.1.15.18.25.23s.2.05.33.05h4.47c.23,0,.4-.03.5-.1.13-.05.2-.13.25-.2.08.1.15.18.25.23s.2.05.33.05h1.82v-4.51h-.55v4.26h.09ZM4.15,27.5c0,.18-.03.33-.08.4-.05.08-.18.13-.35.13H1.24v-1.67c.1-.03.2-.05.33-.08.13-.03.25-.05.4-.08.15-.03.28-.05.43-.05.15-.03.28-.03.4-.03.28,0,.5.03.67.08.18.05.33.13.43.25.1.1.18.25.23.4.05.18.05.35.05.58v.06h-.01ZM12.31,27.5c0,.18-.03.33-.08.4-.05.08-.18.13-.35.13h-2.48v-1.67c.1-.03.2-.05.33-.08.13-.03.25-.05.4-.08.15-.03.28-.05.43-.05.15-.03.28-.03.4-.03.28,0,.5.03.67.08.18.05.33.13.43.25.1.1.18.25.23.4.05.18.05.35.05.58v.06h-.01Z"/>
  <rect class="cls-1" x="22.22" y="23.77" width=".55" height="4.7"/>
  <path class="cls-1" d="M25.64,25.67c-.33,0-.58.03-.79.1-.23.07-.4.18-.55.3s-.25.28-.3.45c-.08.18-.1.38-.1.58,0,.15.03.3.05.45.05.18.13.33.23.45.13.15.28.25.48.35s.48.13.82.13h.38c-.03.25-.08.43-.2.55-.13.1-.3.18-.58.18h-.79v.43h.79c.25,0,.48-.03.65-.1.18-.05.3-.15.4-.28.1-.13.18-.25.2-.43.05-.18.05-.35.05-.55v-2.54c-.13,0-.28-.03-.4-.03-.09-.05-.2-.05-.33-.05M25.88,28.03h-.35c-.18,0-.33-.03-.45-.05-.13-.03-.25-.08-.35-.15s-.18-.18-.23-.3c-.05-.13-.08-.28-.08-.45,0-.23.05-.43.13-.55.08-.13.18-.23.3-.3.13-.08.25-.1.4-.13.15-.03.28-.03.4-.03h.23v1.96Z"/>
  <path class="cls-1" d="M31.25,26.14c-.13-.13-.3-.23-.55-.3-.23-.07-.53-.1-.89-.1h-.55l-.08.43h.6c.3,0,.53.03.69.1.18.05.3.15.38.25.08.1.15.23.15.38.03.15.03.3.03.48v.69h-2.18v.43h2.74v-1.27c0-.23-.03-.43-.08-.63-.03-.18-.13-.33-.25-.45"/>
  <path class="cls-1" d="M43.93,25.67c-.28,0-.5.03-.69.1-.2.07-.38.18-.5.28-.13.13-.23.25-.3.43-.08.18-.1.35-.1.55,0,.15.03.3.05.48.03.18.1.35.18.53h-1.24c-.05,0-.08,0-.13-.03-.05,0-.1-.03-.15-.05-.05-.03-.08-.05-.13-.08-.03-.03-.05-.05-.05-.1v-2.08h-.55v1.8c0,.18-.03.33-.08.4s-.18.13-.35.13h-.75c-.05,0-.08,0-.15-.03-.05,0-.1-.03-.15-.05-.05-.03-.08-.05-.1-.08s-.05-.05-.05-.1v-.49c0-.25-.03-.45-.08-.65-.05-.2-.15-.38-.28-.53-.13-.15-.33-.25-.55-.33-.23-.08-.53-.13-.89-.13-.13,0-.28,0-.43.03s-.3.03-.48.05c-.15.03-.3.05-.45.07-.15.03-.28.05-.35.08v-.23h-.55v2.31h-1.27c-.2,0-.33-.05-.38-.13-.05-.1-.08-.23-.08-.4v-3.68h-.55v3.81c0,.33.08.55.25.69.18.15.4.2.67.2h4.51c.23,0,.4-.03.5-.1.13-.05.2-.13.25-.2.08.1.15.18.25.23.1.05.2.05.33.05h.83c.23,0,.4-.03.5-.1.1-.05.2-.13.25-.2.08.1.15.18.25.23.1.05.2.05.33.05h3.53v-2.71c-.15,0-.28-.03-.45-.03-.01.01-.21.01-.41.01M38.19,27.5c0,.18-.02.33-.07.4-.05.08-.18.13-.35.13h-2.48v-1.67c.1-.03.2-.05.33-.08.13-.03.25-.05.4-.08.15-.03.28-.05.43-.05s.28-.03.4-.03c.28,0,.5.03.67.08.18.05.33.13.43.25.1.1.18.25.23.4.05.18.05.35.05.58v.06ZM44.37,28.03h-1.22c-.13-.28-.2-.5-.2-.67-.03-.15-.03-.28-.03-.35,0-.33.1-.58.3-.69.2-.13.5-.2.89-.2h.25v1.91Z"/>
  <polygon class="cls-1" points="48.75 28.03 47.56 28.03 47.56 24.92 47.01 24.92 47.01 28.03 45.69 28.03 45.69 28.47 49.31 28.47 49.31 23.77 48.75 23.77 48.75 28.03"/>
  <rect class="cls-1" x="50.55" y="23.77" width=".55" height="4.7"/>
  <path class="cls-1" d="M55.92,26.11c-.13-.13-.25-.25-.43-.33-.18-.07-.38-.13-.6-.13s-.43.05-.6.13c-.18.08-.33.2-.43.33-.13.13-.2.3-.25.48-.05.18-.1.35-.1.55,0,.15.03.33.07.48.05.18.13.33.25.45.1.13.25.25.43.33.17.1.38.13.63.13s.45-.05.63-.13c.17-.08.32-.2.42-.33.1-.13.2-.28.25-.45.05-.18.08-.33.08-.48,0-.2-.03-.38-.08-.55-.05-.2-.15-.35-.27-.48M55.67,27.48c-.03.1-.08.2-.15.3-.08.1-.15.15-.25.2-.1.05-.22.08-.35.08-.15,0-.25-.03-.36-.08-.1-.05-.17-.13-.25-.2-.07-.08-.13-.18-.15-.3-.03-.1-.05-.23-.05-.35,0-.15.03-.28.05-.4.05-.13.1-.23.15-.33.08-.1.15-.18.25-.23.1-.05.23-.08.36-.08s.25.03.35.08.17.13.25.23c.07.1.13.2.15.33.02.13.05.25.05.4,0,.13-.03.25-.05.35"/>
  <path class="cls-1" d="M57.54,28.38c0,.28-.05.48-.15.6-.1.13-.27.2-.55.2h-.08v.45h.13c.25,0,.43-.03.61-.1.15-.07.27-.15.37-.25.1-.1.15-.25.18-.4.03-.15.05-.33.05-.5v-2.66h-.55v2.66Z"/>
  <rect class="cls-1" x="59.17" y="23.77" width=".55" height="4.7"/>
  <path class="cls-1" d="M61.06,28.38c0,.28-.05.48-.15.6-.1.13-.28.2-.55.2h-.07v.45h.13c.25,0,.42-.03.6-.1.15-.07.28-.15.38-.25.1-.1.15-.25.17-.4.03-.15.05-.33.05-.5v-2.66h-.55v2.66Z"/>
  <path class="cls-1" d="M64.57,25.7c-.15-.03-.28-.03-.38-.03-.33,0-.58.03-.79.1-.21.07-.4.18-.55.3s-.25.28-.3.45c-.07.18-.1.38-.1.58,0,.15.03.3.05.45.05.18.13.33.22.45.13.15.28.25.48.35.2.1.48.13.82.13h.38c0,.25-.07.43-.2.55-.13.1-.3.18-.58.18h-.79v.43h.79c.25,0,.48-.03.65-.1.18-.05.3-.15.4-.28.1-.13.18-.25.2-.43.05-.18.05-.35.05-.55v-2.54c-.05-.03-.2-.05-.35-.05M64.44,28.03h-.35c-.18,0-.33-.03-.46-.05-.13-.03-.25-.08-.35-.15s-.18-.18-.22-.3c-.05-.13-.08-.28-.08-.45,0-.23.05-.43.13-.55.08-.13.18-.23.3-.3.13-.08.25-.1.4-.13s.28-.03.4-.03h.22v1.96Z"/>
  <rect class="cls-1" x="39.95" y="24.37" width=".55" height=".55" transform="translate(-5.65 35.65) rotate(-44.98)"/>
  <rect class="cls-1" x="40.72" y="24.36" width=".55" height=".55" transform="translate(-5.42 36.19) rotate(-44.98)"/>
  <polygon class="cls-1" points="18.4 24.64 18.02 24.25 17.63 24.64 18.02 25.02 18.4 24.64"/>
  <rect class="cls-1" x="14.87" y="24.36" width=".55" height=".55" transform="translate(-12.99 17.95) rotate(-45.06)"/>
  <polygon class="cls-1" points="19.2 24.64 18.8 24.25 18.4 24.64 18.8 25.02 19.2 24.64"/>
  <polygon class="cls-1" points="44.16 24.64 43.76 24.25 43.36 24.64 43.76 25.02 44.16 24.64"/>
  <rect class="cls-1" x="44.27" y="24.37" width=".55" height=".55" transform="translate(-4.36 38.77) rotate(-45.06)"/>
  <polygon class="cls-1" points="54.12 24.65 54.51 24.26 54.91 24.65 54.51 25.04 54.12 24.65"/>
  <polygon class="cls-1" points="55.69 24.64 55.29 24.25 54.9 24.64 55.29 25.02 55.69 24.64"/>
  <polygon class="cls-1" points="60.95 24.64 61.34 24.25 61.73 24.64 61.34 25.03 60.95 24.64"/>
  <polygon class="cls-1" points=".5 31.81 1.27 33.43 2.02 31.81 2.48 31.81 2.48 34.57 2.03 34.57 2.03 32.63 1.44 33.9 1.07 33.9 .48 32.63 .48 34.57 .03 34.57 .03 31.81 .5 31.81"/>
  <rect class="cls-1" x="3.09" y="31.81" width=".48" height="2.76"/>
  <polygon class="cls-1" points="4.61 31.81 5.8 33.77 5.8 31.81 6.24 31.81 6.24 34.57 5.82 34.57 4.63 32.6 4.63 34.57 4.18 34.57 4.18 31.81 4.61 31.81"/>
  <rect class="cls-1" x="6.84" y="31.81" width=".48" height="2.76"/>
  <path class="cls-1" d="M8.61,34.6c-.15,0-.3,0-.45-.03-.15-.03-.28-.05-.38-.1l.08-.38c.1.03.23.05.35.08.13.03.25.03.38.03.23,0,.38-.03.45-.1.1-.08.13-.18.13-.33,0-.05,0-.1-.03-.15,0-.05-.03-.08-.05-.13-.03-.03-.08-.05-.13-.08-.05-.03-.13-.05-.2-.05l-.3-.05c-.23-.03-.4-.1-.5-.25-.13-.13-.18-.3-.18-.5v-.05c0-.28.1-.48.25-.6.18-.13.43-.2.79-.2.15,0,.28,0,.38.03.13.03.25.05.35.1l-.08.38c-.1-.03-.18-.05-.3-.08-.1-.03-.23-.03-.35-.03-.2,0-.35.03-.45.1-.1.05-.15.18-.15.3s.03.2.1.25c.05.05.15.1.3.13l.3.05c.1.03.2.05.28.08.08.03.15.08.23.13.08.05.1.13.15.23.03.1.05.2.05.33v.05c.03.58-.33.85-1.02.85"/>
  <polygon class="cls-1" points="12.18 31.81 12.13 32.21 11.31 32.21 11.31 34.57 10.84 34.57 10.84 32.21 9.96 32.21 10.01 31.81 12.18 31.81"/>
  <path class="cls-1" d="M14.54,32.7c0,.2-.05.35-.13.48-.1.13-.23.23-.4.28l.63,1.12h-.53l-.58-1.07h-.48v1.07h-.48v-2.76h1.12c.15,0,.28.03.38.08.1.05.2.1.25.18.08.08.13.15.15.25.03.1.05.2.05.33v.06h.01ZM13.08,33.11h.53c.15,0,.28-.03.35-.1.08-.08.13-.18.13-.33v-.05c0-.3-.15-.43-.45-.43h-.55v.9Z"/>
  <polygon class="cls-1" points="15.94 33.06 16.56 31.81 17.05 31.81 16.16 33.46 16.16 34.57 15.69 34.57 15.69 33.46 14.8 31.81 15.31 31.81 15.94 33.06"/>
  <path class="cls-1" d="M19.46,31.76c.23,0,.4.03.55.1.15.08.25.15.35.28.08.13.15.25.18.4.03.15.05.33.05.53v.33c0,.2-.03.38-.05.53-.03.15-.1.3-.18.4-.08.1-.2.2-.35.25-.15.08-.33.1-.55.1s-.4-.03-.55-.1c-.15-.05-.25-.15-.35-.28-.08-.13-.15-.25-.18-.4-.03-.15-.05-.33-.05-.53v-.33c0-.2.03-.38.05-.53.03-.15.1-.3.18-.4.08-.13.2-.2.35-.25.16-.08.33-.1.55-.1M19.46,34.22c.1,0,.18,0,.28-.03.08-.03.15-.08.2-.13.05-.08.1-.15.13-.28.03-.13.05-.25.05-.43v-.35c0-.18-.03-.33-.05-.45-.03-.13-.05-.2-.1-.28-.05-.08-.13-.1-.2-.13-.08-.03-.18-.03-.28-.03s-.18,0-.28.03c-.08.03-.15.08-.2.13-.05.08-.1.15-.13.28-.03.13-.05.25-.05.45v.35c0,.18.03.33.05.43.03.1.08.2.13.28.05.08.13.1.2.13.05.03.15.03.25.03"/>
  <polygon class="cls-1" points="22.83 31.81 22.78 32.21 21.61 32.21 21.61 33.03 22.65 33.03 22.6 33.43 21.61 33.43 21.61 34.57 21.11 34.57 21.11 31.81 22.83 31.81"/>
  <polygon class="cls-1" points="25.98 31.81 25.93 32.21 24.68 32.21 24.68 32.95 25.85 32.95 25.81 33.36 24.68 33.36 24.68 34.17 25.98 34.17 25.93 34.57 24.22 34.57 24.22 31.81 25.98 31.81"/>
  <path class="cls-1" d="M27.52,34.6c-.23,0-.43-.03-.58-.08-.15-.05-.28-.13-.35-.23-.1-.1-.15-.23-.18-.4-.03-.15-.05-.35-.05-.55v-.29c0-.2.03-.38.05-.53.05-.15.1-.3.2-.4.1-.1.23-.2.38-.25.15-.08.35-.1.58-.1.1,0,.23,0,.33.03s.2.05.28.08l-.08.38c-.05-.03-.13-.03-.2-.05s-.18-.03-.25-.03c-.13,0-.25.03-.35.05-.1.03-.18.08-.23.13-.05.08-.1.15-.13.28-.03.13-.05.28-.05.45v.28c0,.18,0,.33.02.45.03.13.08.2.13.28.05.08.15.1.23.13.1.03.23.03.38.03.08,0,.15,0,.25-.03.1,0,.18-.03.28-.05l-.08.4c-.08.03-.18.05-.28.05-.13-.01-.2-.01-.3-.01"/>
  <path class="cls-1" d="M29.64,31.76c.23,0,.4.03.55.1.15.08.25.15.35.28.08.13.15.25.18.4.03.15.05.33.05.53v.33c0,.2-.03.38-.05.53-.03.15-.1.3-.18.4-.08.1-.2.2-.35.25-.15.08-.33.1-.55.1s-.4-.03-.55-.1c-.15-.05-.25-.15-.35-.28-.08-.13-.15-.25-.18-.4-.03-.15-.05-.33-.05-.53v-.33c0-.2.03-.38.05-.53.03-.15.1-.3.18-.4.07-.13.2-.2.35-.25.15-.08.33-.1.55-.1M29.64,34.22c.1,0,.18,0,.25-.03.08-.03.15-.08.2-.13.05-.08.1-.15.13-.28.03-.13.05-.25.05-.43v-.35c0-.18,0-.33-.03-.45-.03-.13-.08-.2-.13-.28-.05-.08-.13-.1-.2-.13-.08-.03-.18-.03-.28-.03s-.2,0-.28.03-.15.08-.2.13c-.05.08-.1.15-.13.28-.03.13-.05.25-.05.45v.35c0,.18.03.33.05.43.03.1.08.2.13.28.05.08.13.1.2.13.08.03.18.03.28.03"/>
  <polygon class="cls-1" points="31.7 31.81 32.89 33.77 32.89 31.81 33.34 31.81 33.34 34.57 32.92 34.57 31.72 32.6 31.72 34.57 31.27 34.57 31.27 31.81 31.7 31.81"/>
  <path class="cls-1" d="M35.01,31.76c.23,0,.4.03.55.1.15.08.25.15.35.28.08.13.15.25.18.4.03.15.05.33.05.53v.33c0,.2-.03.38-.05.53-.03.15-.1.3-.18.4-.08.1-.2.2-.35.25-.15.08-.33.1-.55.1s-.4-.03-.55-.1c-.15-.05-.25-.15-.35-.28-.08-.13-.15-.25-.18-.4-.03-.15-.05-.33-.05-.53v-.33c0-.2.03-.38.05-.53.03-.15.1-.3.18-.4.08-.13.2-.2.35-.25.15-.08.33-.1.55-.1M35.01,34.22c.1,0,.18,0,.25-.03.08-.03.15-.08.2-.13.05-.08.1-.15.13-.28.03-.13.05-.25.05-.43v-.35c0-.18-.03-.33-.03-.45-.03-.13-.08-.2-.1-.28-.05-.08-.13-.1-.2-.13-.08-.03-.18-.03-.28-.03s-.18,0-.28.03c-.08.03-.15.08-.2.13-.05.08-.1.15-.13.28-.02.13-.05.25-.05.45v.35c0,.18,0,.33.05.43.03.1.08.2.13.28.05.08.13.1.2.13.05.03.15.03.25.03"/>
  <polygon class="cls-1" points="37.12 31.81 37.89 33.43 38.61 31.81 39.1 31.81 39.1 34.57 38.64 34.57 38.64 32.63 38.06 33.9 37.7 33.9 37.09 32.63 37.09 34.57 36.64 34.57 36.64 31.81 37.12 31.81"/>
  <polygon class="cls-1" points="40.67 33.06 41.3 31.81 41.81 31.81 40.9 33.46 40.9 34.57 40.42 34.57 40.42 33.46 39.53 31.81 40.06 31.81 40.67 33.06"/>
  <path class="cls-1" d="M47.21,33.56v1.02h-.48v-2.76h1.09c.15,0,.28.03.38.08.1.05.2.1.25.18.08.08.13.15.15.25.03.1.05.2.05.33v.1c0,.28-.08.48-.23.63-.15.15-.38.23-.67.23h-.55v-.04ZM47.21,33.16h.48c.15,0,.28-.03.35-.1.08-.08.13-.18.13-.33v-.1c0-.15-.03-.25-.1-.33-.08-.08-.18-.13-.35-.13h-.5v.98Z"/>
  <polygon class="cls-1" points="49.61 31.81 49.61 34.17 50.82 34.17 50.77 34.57 49.1 34.57 49.1 31.81 49.61 31.81"/>
  <path class="cls-1" d="M52.81,33.85h-.97l-.23.72h-.48l.94-2.76h.53l.97,2.76h-.5l-.26-.72ZM51.97,33.46h.72l-.38-1.17-.34,1.17Z"/>
  <polygon class="cls-1" points="54.4 31.81 55.59 33.77 55.59 31.81 56.05 31.81 56.05 34.57 55.62 34.57 54.42 32.6 54.42 34.57 53.97 34.57 53.97 31.81 54.4 31.81"/>
  <polygon class="cls-1" points="57.09 31.81 58.28 33.77 58.28 31.81 58.7 31.81 58.7 34.57 58.28 34.57 57.09 32.6 57.09 34.57 56.63 34.57 56.63 31.81 57.09 31.81"/>
  <rect class="cls-1" x="59.29" y="31.81" width=".5" height="2.76"/>
  <polygon class="cls-1" points="60.81 31.81 62 33.77 62 31.81 62.46 31.81 62.46 34.57 62.03 34.57 60.84 32.6 60.84 34.57 60.39 34.57 60.39 31.81 60.81 31.81"/>
  <path class="cls-1" d="M64.29,32.19c-.15,0-.28.03-.38.05-.1.03-.2.08-.25.15-.07.08-.13.15-.15.28-.03.13-.05.28-.05.45v.25c0,.18.02.33.05.43.03.13.08.2.13.28.05.08.13.1.22.13.1.03.2.05.36.05h.15c.05,0,.1,0,.15-.03v-.74h-.4l.05-.38h.79v1.42c-.1.03-.2.08-.38.08-.15.03-.3.03-.48.03-.25,0-.45-.03-.6-.1-.15-.05-.28-.15-.35-.25-.08-.1-.15-.25-.18-.4-.03-.15-.05-.33-.05-.53v-.3c0-.2.03-.38.05-.53.05-.15.1-.3.2-.4.1-.13.23-.2.38-.28.18-.08.38-.1.63-.1.13,0,.25,0,.38.03.13.03.23.05.3.08l-.07.38c-.08-.03-.15-.05-.25-.05-.04.03-.14.03-.24.03"/>
  <path class="cls-1" d="M44.06,34.57c-.13,0-.25,0-.38-.03-.13-.03-.25-.05-.35-.13-.1-.05-.2-.15-.28-.25-.08-.1-.1-.25-.1-.4,0-.1.03-.2.05-.3.03-.08.08-.15.15-.23.05-.05.13-.1.2-.15.03,0,.03-.03.05-.03-.05-.03-.1-.05-.15-.1-.05-.05-.1-.13-.13-.2-.03-.08-.05-.18-.05-.3s.03-.25.1-.35c.05-.1.13-.18.23-.23.1-.05.2-.1.3-.13.1-.03.2-.05.3-.05.08,0,.18,0,.25.03.08,0,.15.03.25.05l.08.03-.08.38-.05-.03c-.08-.03-.13-.03-.2-.05-.08,0-.13-.03-.2-.03s-.13,0-.2.03c-.07.03-.13.03-.18.08-.05.03-.08.08-.13.13-.03.05-.05.1-.05.18s.03.15.05.2c.05.05.1.1.15.13.08.03.12.05.23.05.08,0,.15.03.23.03h.38v-.5h.48v.5h.48l-.08.38h-.41v1.27h-.94v.04ZM44.18,33.31h-.25c-.08,0-.18.03-.25.05-.08.03-.13.08-.18.13s-.08.13-.08.23.03.18.08.25c.05.05.13.1.2.13.08.03.18.05.25.05h.6v-.87h-.38v.04Z"/>
  <g>
    <path class="cls-1" d="M71.05,25.93l-.42-.43,6.29-6.29c.05-.05.05-.13,0-.15l-5.06-5.1.42-.43,5.07,5.07c.27.28.27.74,0,1.02l-6.3,6.3Z"/>
    <path class="cls-1" d="M74.41,18.68h-6.86v-.6h6.23l-1.62-1.62.42-.43,2.06,2.06c.1.1.13.25.07.38-.04.11-.16.21-.31.21"/>
    <path class="cls-1" d="M72.59,22.23l-.42-.43,1.62-1.62h-4.23v-.6h4.87c.15,0,.27.08.32.23.05.13.03.28-.07.38l-2.09,2.05Z"/>
    <path class="cls-1" d="M78.52,18.17c-.18,0-.38-.08-.5-.2l-6.29-6.29.42-.43,6.29,6.27c.05.05.13.05.15,0l5.07-5.07.42.43-5.08,5.07c-.13.15-.29.23-.49.23"/>
    <path class="cls-1" d="M79.31,15.36c-.05,0-.1,0-.13-.03-.13-.05-.22-.18-.22-.33v-6.87h.6v6.24l1.62-1.62.43.43-2.06,2.06c-.04.06-.14.11-.24.11"/>
    <path class="cls-1" d="M77.71,15.36c-.1,0-.17-.03-.25-.1l-2.06-2.06.42-.43,1.62,1.62v-4.23h.6v4.87c0,.15-.07.28-.22.33h-.12"/>
    <path class="cls-1" d="M84.75,24.72l-5.07-5.07c-.28-.28-.28-.74,0-1.02l6.29-6.32.43.43-6.29,6.29c-.05.05-.05.13,0,.15l5.07,5.07-.43.46Z"/>
    <path class="cls-1" d="M84.43,22.23l-2.06-2.06c-.1-.1-.13-.25-.07-.38.05-.13.18-.23.32-.23h6.89v.6h-6.24l1.62,1.62-.47.44Z"/>
    <path class="cls-1" d="M87.49,18.68h-4.87c-.15,0-.27-.08-.32-.23-.05-.13-.03-.28.07-.38l2.06-2.06.42.43-1.62,1.62h4.23v.63h.02Z"/>
    <path class="cls-1" d="M84.91,27.01l-6.29-6.29s-.05-.03-.07-.03c-.03,0-.05,0-.08.03l-5.07,5.07-.43-.43,5.07-5.07c.13-.13.32-.2.5-.2.2,0,.38.07.5.2l6.29,6.29-.43.43Z"/>
    <path class="cls-1" d="M77.97,35.54c.08-.08.13-.18.1-.28,0-.1-.05-.2-.15-.28l-6.04-4.87-.38.48,5.82,4.7-1.57,1.57h.86l1.34-1.32Z"/>
    <path class="cls-1" d="M79.69,35.29l5.85-4.7-.38-.48-6.04,4.87c-.07.08-.13.18-.15.28,0,.1.03.2.1.28l1.32,1.32h.87l-1.57-1.57Z"/>
    <path class="cls-1" d="M77.46,32.63l-10.01-8.09-.38.48,10.34,8.34c.07.05.17.1.25.1.07,0,.17-.03.25-.08.13-.08.17-.23.17-.35v-10.02h-.6v9.63h-.03Z"/>
    <path class="cls-1" d="M89.6,24.57l-10.01,8.09v-9.64h-.6v10.05c0,.15.05.28.17.35.08.05.15.08.25.08s.18-.03.25-.1l10.34-8.34-.4-.48Z"/>
  </g>
</svg>