<?xml version="1.0" encoding="UTF-8"?>
<svg id="Layer_1" data-name="Layer 1" xmlns="http://www.w3.org/2000/svg" viewBox="0 0 90 45">
  <defs>
    <style>
      .cls-1 {
        fill: #fff;
      }
    </style>
  </defs>
  <g>
    <g>
      <g>
        <g>
          <g>
            <path class="cls-1" d="M81.42,33.03s-.05,0-.07-.02c-.07-.04-.1-.13-.06-.21.37-.67.48-1.29.33-1.84-.02.11-.06.23-.11.33-.13.27-.35.48-.63.58s-.59.09-.86-.04c-.46-.21-.67-.77-.45-1.23.09-.19.24-.33.43-.4.19-.07.4-.06.59.03.32.15.47.54.32.86-.04.08-.13.11-.2.07-.08-.04-.11-.13-.07-.2.08-.17,0-.38-.17-.45-.11-.05-.24-.06-.36-.01-.12.04-.21.13-.26.24-.14.31,0,.68.3.82.41.19.89.01,1.08-.4.12-.26.13-.54.03-.81-.03-.08-.07-.16-.12-.23-.23-.25-.44-.37-.44-.37-.07-.04-.1-.13-.06-.2.04-.07.13-.1.2-.07.23.11.43.27.56.48.47.54.94,1.53.14,2.98-.03.05-.08.08-.13.08Z"/>
            <path class="cls-1" d="M79.58,34.67s-.08-.02-.11-.05c-.03-.04-.05-.08-.04-.13.08-.43.27-1.2.69-1.58.2-.18.46-.27.78-.27.23,0,.43.05.57.09.06.02.1.06.11.12.06.33.09.94-.33,1.31h0c-.42.37-1.21.48-1.64.51h-.01ZM80.9,32.95c-.24,0-.43.06-.57.19-.3.27-.47.84-.55,1.21.58-.06,1.03-.21,1.26-.41.28-.25.28-.66.25-.94-.11-.03-.24-.05-.39-.05ZM81.14,34.05h0Z"/>
            <path class="cls-1" d="M77.83,31.92c-.08,0-.15-.07-.15-.15v-1.83c0-.08.07-.15.15-.15s.15.07.15.15v1.83c0,.08-.07.15-.15.15Z"/>
            <path class="cls-1" d="M77.8,34.67s-.08-.01-.11-.05c-1.08-1.08-1.38-3.41-.2-4.59.03-.03.06-.06.09-.09-.77-.53-1.78-.61-2.64-.18-.08.04-.17,0-.21-.07s0-.17.07-.21c.99-.49,2.15-.38,3.02.25.87-.64,2.03-.75,3.02-.25.08.04.11.13.07.21s-.13.11-.21.07c-.86-.43-1.87-.35-2.64.18.03.03.06.06.09.09,1.16,1.16.83,3.5-.27,4.59-.03.03-.07.05-.11.05ZM77.83,30.14s-.08.07-.12.11c-.47.47-.71,1.23-.66,2.07.05.75.32,1.48.75,1.97.43-.5.73-1.22.79-1.98.07-.84-.16-1.6-.63-2.07-.04-.04-.08-.08-.12-.11Z"/>
            <path class="cls-1" d="M74.24,33.03c-.05,0-.11-.03-.13-.08-.8-1.45-.33-2.44.14-2.98.14-.21.33-.38.56-.48.07-.03.16,0,.2.07.04.07.01.16-.06.2-.02.01-.22.13-.43.35-.21.3-.26.7-.1,1.06.19.41.67.59,1.08.4.31-.14.45-.51.3-.82-.05-.11-.15-.2-.26-.24-.12-.04-.24-.04-.36.01-.17.08-.25.28-.17.45.04.08,0,.17-.07.2-.08.04-.17,0-.2-.07-.15-.32,0-.71.32-.86.19-.09.4-.1.59-.03.19.07.35.21.43.4.21.46.01,1.02-.45,1.23-.27.13-.58.14-.86.04s-.51-.31-.63-.58c-.05-.11-.09-.22-.11-.34-.12.47-.09,1.08.33,1.84.04.07.01.17-.06.21-.03.02-.05.02-.08.02Z"/>
            <path class="cls-1" d="M76.08,34.67h0c-.43-.03-1.23-.13-1.64-.51h0c-.42-.38-.39-.98-.33-1.31,0-.06.05-.1.11-.12.13-.04.34-.09.57-.09.32,0,.58.09.78.27.42.38.61,1.15.69,1.58,0,.05,0,.09-.04.13-.03.03-.07.05-.11.05ZM74.63,33.93c.23.21.68.35,1.26.41-.08-.37-.25-.94-.55-1.21-.14-.13-.33-.19-.57-.19-.14,0-.28.02-.39.05-.03.28-.03.69.25.94h0Z"/>
            <path class="cls-1" d="M77.83,31.92c-.08,0-.15-.07-.15-.15v-1.83c0-.08.07-.15.15-.15s.15.07.15.15v1.83c0,.08-.07.15-.15.15Z"/>
          </g>
          <g>
            <path class="cls-1" d="M74.88,15.53s-.04,0-.06-.01c-.24-.11-.43-.28-.56-.48-.47-.54-.95-1.53-.14-2.98.04-.07.13-.1.21-.06.07.04.1.13.06.21-.42.76-.46,1.37-.33,1.84.02-.11.05-.23.11-.34.13-.27.35-.48.63-.58s.59-.09.86.04c.22.1.39.29.48.52.09.23.07.48-.03.71-.09.19-.24.33-.43.4-.19.07-.4.06-.59-.02-.32-.15-.47-.54-.32-.86.04-.08.13-.11.2-.07.08.04.11.13.07.2-.08.17,0,.38.17.45.11.05.24.06.36.01.12-.04.21-.13.26-.24.07-.15.08-.32.02-.48-.06-.16-.17-.28-.32-.35-.2-.09-.42-.1-.62-.03s-.37.22-.46.42c-.17.36-.11.76.1,1.06.21.22.4.34.43.35.07.04.1.13.06.2-.03.06-.08.09-.14.09Z"/>
            <path class="cls-1" d="M74.77,12.36c-.23,0-.43-.05-.57-.09-.06-.02-.1-.06-.11-.12-.06-.33-.09-.94.33-1.31h0c.42-.37,1.21-.48,1.64-.51.05,0,.09.02.12.05.03.04.05.08.04.13-.08.43-.27,1.2-.69,1.58-.2.18-.46.27-.78.27ZM74.38,12.01c.11.03.24.05.39.05.24,0,.43-.06.57-.19.3-.27.47-.84.55-1.21-.58.06-1.03.21-1.26.41-.27.25-.28.66-.25.94Z"/>
            <path class="cls-1" d="M77.83,15.22c-.08,0-.15-.07-.15-.15v-1.83c0-.08.07-.15.15-.15s.15.07.15.15v1.83c0,.08-.07.15-.15.15Z"/>
            <path class="cls-1" d="M79.55,15.82c-.61,0-1.21-.19-1.72-.56-.87.64-2.03.75-3.02.25-.08-.04-.11-.13-.07-.21s.13-.11.21-.07c.86.43,1.87.35,2.64-.18-.03-.03-.06-.06-.09-.09-1.16-1.16-.83-3.5.27-4.59.06-.06.16-.06.22,0,1.08,1.08,1.38,3.41.2,4.59-.03.03-.06.06-.09.09.77.53,1.78.61,2.64.18.08-.04.17,0,.21.07.04.08,0,.17-.07.21-.41.21-.86.31-1.3.31ZM77.87,10.71c-.43.5-.73,1.22-.79,1.98-.07.84.16,1.6.63,2.07.04.04.08.08.12.11.04-.04.08-.08.12-.11.47-.47.71-1.23.66-2.07-.04-.76-.32-1.48-.75-1.97Z"/>
            <path class="cls-1" d="M80.79,15.53c-.05,0-.11-.03-.14-.08-.04-.07-.01-.16.06-.2.02-.01.22-.13.43-.35.05-.08.1-.16.13-.25.1-.27.08-.55-.03-.81-.19-.41-.67-.59-1.08-.4-.31.14-.45.51-.3.82.05.11.15.2.26.24.12.04.24.04.36-.01.08-.04.15-.11.18-.19.03-.09.03-.18-.01-.26-.04-.08,0-.17.07-.2s.17,0,.2.07c.07.16.08.33.02.5-.06.16-.18.29-.34.37-.19.09-.4.1-.59.02-.19-.07-.35-.21-.43-.4-.21-.46-.01-1.02.45-1.23.27-.13.58-.14.86-.04s.51.31.63.58c.05.11.09.22.11.34.12-.47.09-1.08-.33-1.84-.04-.07-.01-.17.06-.21.07-.04.17-.01.21.06.8,1.45.33,2.44-.14,2.98-.14.21-.33.38-.56.48-.02,0-.04.01-.06.01Z"/>
            <path class="cls-1" d="M80.9,12.36c-.32,0-.58-.09-.78-.27-.42-.38-.61-1.15-.69-1.58,0-.05,0-.09.04-.13.03-.04.08-.05.12-.05.43.03,1.23.13,1.64.51h0c.42.38.39.98.33,1.31,0,.06-.05.1-.11.12-.13.04-.34.08-.57.08ZM79.77,10.66c.08.37.25.94.55,1.21.14.13.33.19.57.19.14,0,.28-.02.39-.05.03-.28.03-.69-.25-.94-.23-.21-.68-.35-1.26-.41Z"/>
            <path class="cls-1" d="M77.83,15.22c-.08,0-.15-.07-.15-.15v-1.83c0-.08.07-.15.15-.15s.15.07.15.15v1.83c0,.08-.07.15-.15.15Z"/>
          </g>
        </g>
        <g>
          <g>
            <path class="cls-1" d="M68.87,26.65c-.43,0-.92-.12-1.49-.43-.07-.04-.1-.13-.06-.21.04-.07.13-.1.21-.06.76.42,1.37.46,1.84.33-.11-.02-.23-.06-.34-.11-.27-.13-.48-.35-.58-.63s-.09-.59.04-.86c.1-.22.29-.39.52-.48.23-.09.48-.07.71.03.39.18.55.64.38,1.03-.15.32-.54.47-.86.32-.08-.04-.11-.13-.07-.2.04-.08.13-.11.2-.07.17.08.38,0,.45-.17.11-.23,0-.51-.23-.62-.31-.14-.68,0-.82.3-.09.2-.1.42-.03.62.07.2.22.37.42.46.26.12.54.13.81.03.09-.03.17-.08.25-.13.22-.21.34-.41.35-.43.04-.07.13-.1.2-.06.07.04.1.13.07.2-.11.23-.28.43-.48.56-.33.28-.82.57-1.49.57Z"/>
            <path class="cls-1" d="M67.11,26.27c-.31,0-.68-.07-.94-.37h0c-.37-.42-.48-1.21-.51-1.64,0-.05.02-.09.05-.12.04-.03.08-.05.13-.04.43.08,1.2.27,1.58.69.18.2.27.46.27.78,0,.23-.05.43-.09.57-.02.06-.06.1-.12.11-.1.02-.23.03-.37.03ZM66.4,25.7c.25.28.66.28.94.25.03-.11.05-.24.05-.39,0-.24-.06-.43-.19-.57-.27-.3-.84-.47-1.21-.55.06.58.21,1.03.41,1.26Z"/>
            <path class="cls-1" d="M70.4,22.65h-1.83c-.08,0-.15-.07-.15-.15s.07-.15.15-.15h1.83c.08,0,.15.07.15.15s-.07.15-.15.15Z"/>
            <path class="cls-1" d="M70.71,25.6s-.05,0-.07-.02c-.08-.04-.11-.13-.07-.21.43-.86.35-1.87-.18-2.64-.03.03-.06.06-.09.09-1.16,1.16-3.5.83-4.59-.27-.06-.06-.06-.16,0-.22,1.08-1.08,3.41-1.38,4.59-.2.03.03.06.06.09.09.53-.77.61-1.78.18-2.64-.04-.08,0-.17.07-.21s.17,0,.21.07c.49.99.38,2.15-.25,3.02.64.87.75,2.03.25,3.02-.03.05-.08.08-.14.08ZM66.04,22.47c.5.43,1.22.73,1.98.79.84.07,1.6-.16,2.07-.63.04-.04.08-.08.11-.12-.04-.04-.07-.08-.11-.12-.47-.47-1.23-.71-2.07-.66-.75.04-1.48.32-1.97.75Z"/>
            <path class="cls-1" d="M69.34,20.85c-.11,0-.21-.02-.32-.06-.23-.09-.42-.26-.52-.48-.13-.27-.14-.58-.04-.86.1-.28.31-.51.58-.63.11-.05.22-.09.34-.11-.47-.12-1.08-.09-1.84.33-.07.04-.17.01-.21-.06-.04-.07-.01-.17.06-.21,1.45-.8,2.44-.33,2.98.14.21.14.38.33.48.56.03.07,0,.16-.07.2s-.16.01-.2-.06c-.01-.02-.13-.22-.35-.43-.08-.05-.16-.1-.25-.13-.27-.1-.55-.08-.81.03-.2.09-.35.26-.42.46s-.06.43.03.62c.07.15.19.27.35.32.16.06.32.05.48-.02.11-.05.2-.15.24-.26.04-.12.04-.24-.01-.36-.04-.08-.11-.15-.19-.18s-.18-.03-.26.01c-.08.04-.17,0-.2-.07s0-.17.07-.2c.16-.07.33-.08.5-.02s.29.18.37.34c.09.19.1.4.03.59-.07.19-.21.35-.4.43-.13.05-.26.08-.4.08Z"/>
            <path class="cls-1" d="M65.82,20.9s-.07-.01-.1-.04c-.04-.03-.05-.08-.05-.12.03-.43.13-1.23.51-1.64h0c.38-.42.98-.39,1.31-.33.06,0,.1.05.12.11.04.13.09.34.09.57,0,.32-.09.58-.27.78-.38.42-1.15.61-1.58.69,0,0-.02,0-.03,0ZM66.4,19.3c-.21.23-.35.68-.41,1.26.37-.08.94-.25,1.21-.55.13-.14.19-.33.19-.57,0-.14-.02-.28-.05-.39-.28-.03-.69-.03-.94.25h0Z"/>
            <path class="cls-1" d="M70.4,22.65h-1.83c-.08,0-.15-.07-.15-.15s.07-.15.15-.15h1.83c.08,0,.15.07.15.15s-.07.15-.15.15Z"/>
          </g>
          <g>
            <path class="cls-1" d="M86.33,20.85c-.13,0-.27-.03-.39-.09-.39-.18-.55-.64-.38-1.03.15-.32.54-.47.86-.32.08.04.11.13.07.2-.04.08-.13.11-.2.07-.17-.08-.38,0-.45.17-.11.23,0,.51.23.62.15.07.32.08.48.02s.28-.17.35-.32c.19-.41.01-.89-.4-1.08-.36-.17-.76-.11-1.06.1-.22.21-.34.4-.35.43-.04.07-.13.1-.2.06-.07-.04-.1-.13-.07-.2.11-.24.28-.43.48-.56.54-.47,1.53-.95,2.98-.14.07.04.1.13.06.21-.04.07-.13.1-.21.06-.76-.42-1.37-.46-1.84-.33.11.02.23.05.34.11.56.26.8.93.54,1.49-.1.22-.29.39-.52.48-.11.04-.22.06-.32.06Z"/>
            <path class="cls-1" d="M89.85,20.9s-.02,0-.03,0c-.43-.08-1.2-.27-1.58-.69-.18-.2-.27-.46-.27-.78,0-.23.05-.43.09-.57.02-.06.06-.1.12-.11.33-.06.94-.09,1.31.33h0c.37.42.48,1.21.51,1.64,0,.05-.02.09-.05.12-.03.03-.07.04-.1.04ZM88.33,19.05c-.03.11-.05.24-.05.39,0,.24.06.43.19.57.27.3.84.47,1.21.55-.06-.58-.21-1.03-.41-1.26h0c-.25-.28-.66-.28-.94-.25Z"/>
            <path class="cls-1" d="M87.1,22.65h-1.83c-.08,0-.15-.07-.15-.15s.07-.15.15-.15h1.83c.08,0,.15.07.15.15s-.07.15-.15.15Z"/>
            <path class="cls-1" d="M84.96,25.6c-.06,0-.11-.03-.14-.08-.49-.99-.38-2.15.25-3.02-.64-.87-.75-2.03-.25-3.02.04-.08.13-.11.21-.07s.11.13.07.21c-.43.86-.35,1.87.18,2.64.03-.03.06-.06.09-.09,1.16-1.16,3.5-.83,4.59.27.06.06.06.16,0,.22-1.08,1.08-3.41,1.38-4.59.2-.03-.03-.06-.06-.09-.09-.53.77-.61,1.78-.18,2.64.04.08,0,.17-.07.21-.02.01-.05.02-.07.02ZM85.47,22.5s.07.08.11.12c.47.47,1.23.71,2.07.66.75-.05,1.48-.32,1.97-.75-.5-.43-1.22-.73-1.98-.79-.84-.07-1.6.16-2.07.63-.04.04-.08.08-.11.12Z"/>
            <path class="cls-1" d="M86.79,26.65c-.67,0-1.16-.29-1.49-.57-.21-.14-.38-.33-.48-.56-.03-.07,0-.16.07-.2.07-.04.16-.01.2.06.01.02.13.22.35.43.3.21.7.26,1.06.1.41-.19.59-.67.4-1.08-.07-.15-.19-.27-.35-.32-.16-.06-.32-.05-.48.02-.23.11-.33.39-.23.62.08.17.28.25.45.17.08-.04.17,0,.2.07s0,.17-.07.2c-.32.15-.71,0-.86-.32-.18-.39-.01-.85.38-1.03.22-.11.48-.11.71-.03.23.09.42.26.52.48.13.27.14.58.04.86-.1.28-.31.51-.58.63-.11.05-.22.09-.34.11.47.12,1.08.09,1.84-.33.07-.04.17-.01.21.06.04.07.01.17-.06.21-.57.32-1.06.44-1.49.44Z"/>
            <path class="cls-1" d="M88.55,26.27c-.14,0-.27-.01-.37-.03-.06,0-.1-.05-.12-.11-.04-.13-.09-.34-.09-.57,0-.32.09-.58.27-.78.38-.42,1.15-.61,1.58-.69.05,0,.09,0,.13.04.04.03.05.08.05.12-.03.43-.13,1.23-.51,1.64h0c-.26.29-.63.37-.94.37ZM88.33,25.95c.28.03.69.03.94-.25.21-.23.35-.68.41-1.26-.37.08-.94.25-1.21.55-.13.14-.19.33-.19.57,0,.14.02.28.05.39ZM89.38,25.8h0Z"/>
            <path class="cls-1" d="M87.1,22.65h-1.83c-.08,0-.15-.07-.15-.15s.07-.15.15-.15h1.83c.08,0,.15.07.15.15s-.07.15-.15.15Z"/>
          </g>
        </g>
      </g>
      <g>
        <g>
          <g>
            <path class="cls-1" d="M82.87,17.62h0s-.08-.02-.11-.05l-.17-.19c-.34-.38-.72-.97-.64-1.61,0,0,0,0,0-.01v-.03c.05-.28.19-.55.34-.85.13-.26.27-.52.34-.79.05-.2.09-.43.1-.67l.04-.62c0-.06.05-.12.11-.14.06-.02.13,0,.17.05l.38.49c.2.25.37.51.5.76.71,1.33.34,2.22-.1,2.73-.04.05-.09.1-.13.15h0s0,.01,0,.02h0c-.19.19-.39.38-.51.51l-.18.18s-.07.05-.11.05ZM82.26,15.8s0,0,0,0c-.07.53.27,1.03.56,1.37l.06.07.06-.06c.13-.13.33-.33.53-.52h0s.08-.1.12-.15c.38-.44.69-1.21.06-2.39-.13-.24-.29-.48-.47-.72l-.13-.17v.22c-.03.26-.07.5-.13.73-.08.3-.22.58-.36.85-.14.27-.27.53-.3.75v.02Z"/>
            <path class="cls-1" d="M84.4,18.4c-.6,0-1.14-.39-1.43-.65l-.19-.17s-.05-.07-.05-.11.02-.08.05-.11l.18-.18c.19-.19.36-.36.5-.51h0s0-.01,0-.02h0c.05-.06.11-.1.15-.14.51-.44,1.4-.81,2.72-.1.25.14.51.31.77.51l.49.38c.05.04.07.11.05.17s-.07.1-.14.11l-.62.04c-.24.01-.46.05-.67.1-.26.07-.52.2-.77.33h0c-.29.16-.57.3-.85.34-.07.01-.14.02-.21.02ZM83.1,17.46l.07.06c.28.25.84.65,1.39.56.23-.04.49-.17.76-.3h0c.27-.14.54-.28.84-.36.22-.06.47-.1.72-.11h.22s-.17-.15-.17-.15c-.24-.19-.49-.35-.73-.48-.65-.35-1.58-.61-2.38.06-.05.04-.09.08-.15.13h0c-.14.16-.31.34-.51.53l-.06.06Z"/>
            <path class="cls-1" d="M86.07,16.59s-.04,0-.06-.01c-.08-.03-.11-.12-.08-.2.6-1.45.26-2.11.24-2.14l-.02-.04-.04-.02s-.7-.36-2.14.24c-.08.03-.17,0-.2-.08-.03-.08,0-.17.08-.2,1.55-.65,2.32-.27,2.41-.23l.08.05s.05.04.06.06l.05.08c.05.08.42.85-.23,2.41-.03.06-.08.09-.14.09Z"/>
            <path class="cls-1" d="M83.45,17.05s-.08-.01-.11-.05c-.06-.06-.06-.16,0-.22l1.77-1.77c.06-.06.16-.06.22,0s.06.16,0,.22l-1.77,1.77s-.07.05-.11.05Z"/>
            <path class="cls-1" d="M86.11,13.38s-.05,0-.07-.02h0s-.83-.4-1.79-.11c-.04.01-.09,0-.13-.02-.04-.03-.06-.07-.07-.11,0-.04-.12-1.09-1.41-1.5-.08-.03-.13-.11-.1-.19.03-.08.11-.13.19-.1,1.18.37,1.5,1.22,1.59,1.59,1.01-.24,1.82.15,1.85.17.08.04.11.13.07.21-.03.05-.08.09-.14.09Z"/>
            <path class="cls-1" d="M88.85,17.79c-.06,0-.13-.04-.15-.11-.41-1.29-1.46-1.41-1.5-1.41-.05,0-.09-.03-.11-.07-.03-.04-.03-.09-.02-.13.29-.96-.1-1.78-.11-1.79-.04-.08,0-.17.07-.2.08-.04.17,0,.2.07.02.04.41.85.17,1.85.37.09,1.22.42,1.59,1.59.03.08-.02.17-.1.19-.01,0-.03,0-.05,0Z"/>
          </g>
          <g>
            <path class="cls-1" d="M72.75,32.33s-.09-.02-.12-.06l-.38-.49c-.2-.25-.37-.51-.5-.76-.71-1.33-.34-2.22.1-2.73.04-.05.09-.1.13-.15h0s0-.01,0-.02h0c.2-.19.39-.38.51-.51l.18-.18s.07-.05.11-.05c.04,0,.08.02.11.05l.17.19c.34.38.72.97.64,1.61,0,0,0,0,0,.01v.03c-.05.28-.19.55-.34.85-.13.25-.26.52-.34.79-.05.2-.09.43-.1.67l-.04.62c0,.06-.05.12-.11.14-.01,0-.03,0-.05,0ZM72.2,28.35h0s-.08.1-.12.14c-.38.44-.69,1.21-.06,2.39.13.24.29.48.47.72l.13.17v-.22c.03-.26.07-.5.13-.73.08-.3.22-.58.36-.85.14-.27.27-.53.3-.75v-.02s0,0,0,0c.07-.53-.27-1.03-.56-1.37l-.06-.07-.06.06c-.13.13-.33.33-.53.52h0Z"/>
            <path class="cls-1" d="M70.71,28.99c-.4,0-.86-.11-1.4-.4-.25-.14-.51-.31-.77-.51l-.49-.38c-.05-.04-.07-.11-.05-.17.02-.06.07-.1.14-.11l.62-.04c.24-.01.46-.05.67-.1.26-.07.52-.2.78-.33h0c.29-.16.57-.3.85-.34.68-.11,1.32.35,1.64.63l.19.17s.05.07.05.11-.02.08-.05.11l-.18.18c-.19.19-.36.36-.5.51h0s0,.01,0,.02h0c-.05.06-.11.1-.15.14-.31.26-.75.5-1.33.5ZM68.56,27.71l.17.13c.24.19.49.35.73.48.65.35,1.58.61,2.38-.06.04-.04.09-.08.15-.13h0c.14-.16.31-.34.51-.53l.06-.06-.07-.06c-.28-.25-.84-.65-1.39-.56-.23.04-.49.17-.76.31h0c-.27.14-.54.28-.84.36-.22.06-.47.1-.72.11h-.22Z"/>
            <path class="cls-1" d="M70.19,31.25c-.47,0-.73-.12-.77-.15l-.08-.05s-.05-.04-.06-.06l-.05-.08c-.05-.08-.42-.85.23-2.41.03-.08.12-.11.2-.08s.11.12.08.2c-.6,1.45-.26,2.11-.24,2.14l.02.04.04.02s.7.36,2.14-.24c.08-.03.17,0,.2.08.03.08,0,.17-.08.2-.7.29-1.24.38-1.63.38Z"/>
            <path class="cls-1" d="M70.45,30.03s-.08-.01-.11-.05c-.06-.06-.06-.16,0-.22l1.77-1.77c.06-.06.16-.06.22,0s.06.16,0,.22l-1.77,1.77s-.07.05-.11.05Z"/>
            <path class="cls-1" d="M72.98,33.67s-.03,0-.05,0c-1.18-.37-1.5-1.22-1.59-1.59-1.01.24-1.82-.15-1.85-.17-.08-.04-.11-.13-.07-.21.04-.08.13-.11.2-.07,0,0,.83.4,1.79.11.04-.01.09,0,.13.02.04.03.06.07.07.11,0,.04.12,1.09,1.41,1.5.08.03.13.11.1.19-.02.06-.08.11-.14.11Z"/>
            <path class="cls-1" d="M68.57,30.93c-.06,0-.11-.03-.14-.09-.02-.04-.41-.85-.17-1.85-.37-.09-1.22-.42-1.59-1.59-.03-.08.02-.17.1-.19.08-.03.17.02.19.1.41,1.3,1.49,1.41,1.5,1.41.05,0,.09.03.11.07.03.04.03.09.02.13-.29.97.1,1.78.11,1.79.04.08,0,.17-.07.21-.02,0-.05.01-.07.01Z"/>
          </g>
        </g>
        <g>
          <g>
            <path class="cls-1" d="M71.28,18.4c-.06,0-.12,0-.18-.01,0,0,0,0-.01,0h-.03c-.28-.05-.55-.19-.85-.34-.26-.13-.52-.27-.79-.34-.2-.05-.43-.09-.67-.1l-.62-.04c-.06,0-.12-.05-.14-.11-.02-.06,0-.13.05-.17l.49-.38c.25-.2.51-.37.76-.5,1.33-.71,2.22-.34,2.73.1.05.04.1.09.15.13h0s0,.01,0,.02h0c.18.2.37.39.5.52l.18.18s.05.07.05.11c0,.04-.02.08-.05.11l-.19.17c-.34.31-.86.65-1.43.65ZM71.13,18.08s0,0,0,0c.53.07,1.03-.27,1.37-.56l.07-.06-.06-.06c-.13-.13-.33-.33-.52-.53h0s-.09-.09-.14-.13c-.44-.38-1.21-.69-2.39-.06-.24.13-.48.29-.72.47l-.17.13h.22c.26.03.5.07.73.13.3.08.58.22.85.36.27.14.53.27.75.3h.02Z"/>
            <path class="cls-1" d="M72.8,17.61s-.08-.02-.11-.05l-.18-.18c-.19-.19-.36-.36-.51-.5h0s0-.01,0-.02h0c-.05-.06-.1-.11-.14-.16-.44-.51-.81-1.4-.1-2.72.14-.25.31-.51.51-.77l.38-.49c.04-.05.11-.07.17-.05.06.02.1.07.11.14l.04.62c.01.24.05.46.1.67.07.26.2.52.33.77h0c.15.3.29.58.33.86.11.68-.35,1.32-.63,1.64l-.17.19s-.07.05-.11.05c0,0,0,0,0,0ZM72.21,16.65h0c.15.14.33.32.52.51l.06.06.06-.07c.25-.28.65-.84.56-1.39-.04-.23-.17-.49-.3-.76h0c-.14-.28-.27-.55-.35-.85-.06-.22-.1-.47-.11-.72v-.22s-.15.17-.15.17c-.19.24-.35.49-.48.73-.35.65-.61,1.58.06,2.38.04.04.08.09.13.15h0Z"/>
            <path class="cls-1" d="M69.61,16.59c-.06,0-.12-.04-.14-.09-.65-1.55-.27-2.32-.23-2.41l.05-.08s.04-.05.06-.06l.08-.05c.08-.05.85-.42,2.41.23.08.03.11.12.08.2s-.12.11-.2.08c-1.45-.6-2.11-.26-2.14-.24l-.04.02-.02.04s-.36.7.24,2.14c.03.08,0,.17-.08.2-.02,0-.04.01-.06.01Z"/>
            <path class="cls-1" d="M72.23,17.04s-.08-.01-.11-.05l-1.77-1.77c-.06-.06-.06-.16,0-.22s.16-.06.22,0l1.77,1.77c.06.06.06.16,0,.22-.03.03-.07.05-.11.05Z"/>
            <path class="cls-1" d="M66.82,17.8s-.03,0-.05,0c-.08-.03-.13-.11-.1-.19.37-1.18,1.22-1.5,1.59-1.59-.24-1.01.15-1.82.17-1.85.04-.08.13-.11.21-.07.08.04.11.13.07.2h0s-.4.83-.11,1.79c.01.04,0,.09-.02.13-.03.04-.07.06-.11.07-.04,0-1.09.12-1.5,1.41-.02.07-.08.11-.15.11Z"/>
            <path class="cls-1" d="M69.55,13.39c-.06,0-.11-.03-.14-.09-.04-.08,0-.17.07-.2.04-.02.85-.41,1.85-.17.09-.37.42-1.22,1.59-1.59.08-.03.17.02.19.1.03.08-.02.17-.1.19-1.29.41-1.41,1.46-1.41,1.5,0,.05-.03.09-.07.11s-.09.03-.13.02c-.96-.29-1.78.1-1.79.11-.02,0-.05.01-.07.01Z"/>
          </g>
          <g>
            <path class="cls-1" d="M84.95,28.99c-.58,0-1.02-.24-1.33-.5-.05-.04-.1-.09-.15-.13h0s0-.01,0-.02h0c-.18-.2-.37-.39-.5-.52l-.18-.18s-.05-.07-.05-.11c0-.04.02-.08.05-.11l.19-.17c.38-.34.97-.72,1.61-.64,0,0,0,0,.01,0h.03c.28.05.55.19.85.34.26.13.52.27.79.34.2.05.43.09.67.1l.62.04c.06,0,.12.05.14.11.02.06,0,.13-.05.17l-.49.38c-.25.2-.51.37-.76.5-.54.29-1.01.4-1.4.4ZM83.68,28.13h0s.09.09.14.13c.44.38,1.21.69,2.39.06.24-.13.48-.29.72-.47l.17-.13h-.22c-.26-.03-.5-.07-.72-.13-.3-.08-.58-.22-.85-.36-.27-.14-.53-.27-.75-.3h-.02s0,0,0,0c-.53-.07-1.03.27-1.37.56l-.07.06.06.06c.13.13.33.33.52.53h0Z"/>
            <path class="cls-1" d="M82.92,32.34s-.03,0-.05,0c-.06-.02-.1-.07-.11-.14l-.04-.62c-.01-.24-.05-.46-.1-.67-.07-.26-.2-.52-.33-.77h0c-.15-.3-.29-.58-.33-.86-.11-.68.35-1.32.63-1.64l.17-.19s.07-.05.11-.05c.04,0,.08.02.11.05l.18.18c.19.19.36.36.51.5h0s0,.01,0,.02h0c.05.06.1.11.14.16.44.51.81,1.4.1,2.72-.14.25-.31.51-.51.77l-.38.49s-.07.06-.12.06ZM82.87,27.77l-.06.07c-.25.28-.65.84-.56,1.39.04.23.17.49.31.76h0c.14.27.27.55.35.84.06.22.1.47.11.72v.22s.15-.17.15-.17c.19-.24.35-.49.48-.73.35-.65.61-1.58-.06-2.38-.04-.05-.08-.09-.13-.15h0c-.15-.15-.33-.32-.52-.52l-.06-.06Z"/>
            <path class="cls-1" d="M85.47,31.25c-.39,0-.93-.08-1.63-.38-.08-.03-.11-.12-.08-.2s.12-.11.2-.08c1.45.6,2.11.26,2.14.24l.04-.02.02-.04s.36-.7-.24-2.14c-.03-.08,0-.17.08-.2.08-.03.17,0,.2.08.65,1.55.27,2.32.23,2.41l-.04.08s-.04.05-.06.06l-.08.05s-.3.15-.77.15Z"/>
            <path class="cls-1" d="M85.21,30.04s-.08-.01-.11-.05l-1.77-1.77c-.06-.06-.06-.16,0-.22s.16-.06.22,0l1.77,1.77c.06.06.06.16,0,.22-.03.03-.07.05-.11.05Z"/>
            <path class="cls-1" d="M87.1,30.93s-.05,0-.07-.02c-.08-.04-.11-.13-.07-.2h0s.4-.83.11-1.79c-.01-.04,0-.09.02-.13.03-.04.07-.06.11-.07.04,0,1.09-.12,1.5-1.41.03-.08.11-.13.19-.1.08.03.13.11.1.19-.37,1.18-1.22,1.5-1.59,1.59.24,1.01-.15,1.82-.17,1.85-.03.05-.08.09-.14.09Z"/>
            <path class="cls-1" d="M82.7,33.67c-.06,0-.13-.04-.15-.11-.03-.08.02-.17.1-.19,1.29-.41,1.41-1.46,1.41-1.5,0-.05.03-.09.07-.11.04-.03.09-.03.13-.02.96.29,1.78-.1,1.79-.11.08-.04.17,0,.2.07.04.08,0,.17-.07.2-.04.02-.85.41-1.85.17-.09.37-.42,1.22-1.59,1.59-.01,0-.03,0-.05,0Z"/>
          </g>
        </g>
      </g>
    </g>
    <g>
      <path class="cls-1" d="M79.18,17.27c-.34,0-.69-.13-.95-.39-.06-.06-.06-.16,0-.22s.16-.06.22,0c.4.4,1.06.4,1.46,0,.06-.06.16-.06.22,0s.06.16,0,.22c-.26.26-.6.39-.95.39Z"/>
      <path class="cls-1" d="M76.6,17.27c-.34,0-.69-.13-.95-.39-.06-.06-.06-.16,0-.22s.16-.06.22,0c.4.4,1.06.4,1.46,0,.06-.06.16-.06.22,0s.06.16,0,.22c-.26.26-.6.39-.95.39Z"/>
      <path class="cls-1" d="M80.44,18.41c-.34,0-.69-.13-.95-.39-.06-.06-.06-.16,0-.22s.16-.06.22,0c.4.4,1.06.4,1.46,0,.06-.06.16-.06.22,0s.06.16,0,.22c-.26.26-.6.39-.95.39Z"/>
      <path class="cls-1" d="M77.89,18.41c-.34,0-.69-.13-.95-.39-.06-.06-.06-.16,0-.22s.16-.06.22,0c.4.4,1.06.4,1.46,0,.06-.06.16-.06.22,0s.06.16,0,.22c-.26.26-.6.39-.95.39Z"/>
      <path class="cls-1" d="M75.33,18.41c-.34,0-.69-.13-.95-.39-.06-.06-.06-.16,0-.22s.16-.06.22,0c.4.4,1.06.4,1.46,0,.06-.06.16-.06.22,0s.06.16,0,.22c-.26.26-.6.39-.95.39Z"/>
      <path class="cls-1" d="M81.74,19.55c-.34,0-.69-.13-.95-.39-.06-.06-.06-.16,0-.22s.16-.06.22,0c.4.4,1.06.4,1.46,0,.06-.06.16-.06.22,0s.06.16,0,.22c-.26.26-.6.39-.95.39Z"/>
      <path class="cls-1" d="M74.06,19.55c-.34,0-.69-.13-.95-.39-.06-.06-.06-.16,0-.22s.16-.06.22,0c.4.4,1.06.4,1.46,0,.06-.06.16-.06.22,0s.06.16,0,.22c-.26.26-.6.39-.95.39Z"/>
      <path class="cls-1" d="M82.91,20.67c-.34,0-.69-.13-.95-.39-.06-.06-.06-.16,0-.22s.16-.06.22,0c.4.4,1.06.4,1.46,0,.06-.06.16-.06.22,0s.06.16,0,.22c-.26.26-.6.39-.95.39Z"/>
      <path class="cls-1" d="M72.76,20.67c-.34,0-.69-.13-.95-.39-.06-.06-.06-.16,0-.22s.16-.06.22,0c.4.4,1.06.4,1.46,0,.06-.06.16-.06.22,0s.06.16,0,.22c-.26.26-.6.39-.95.39Z"/>
      <path class="cls-1" d="M81.74,21.8c-.34,0-.69-.13-.95-.39-.06-.06-.06-.16,0-.22s.16-.06.22,0c.4.4,1.06.4,1.46,0,.06-.06.16-.06.22,0s.06.16,0,.22c-.26.26-.61.39-.95.39Z"/>
      <path class="cls-1" d="M74.06,21.8c-.34,0-.69-.13-.95-.39-.06-.06-.06-.16,0-.22s.16-.06.22,0c.4.4,1.06.4,1.46,0,.06-.06.16-.06.22,0s.06.16,0,.22c-.26.26-.6.39-.95.39Z"/>
      <path class="cls-1" d="M82.91,22.91c-.34,0-.69-.13-.95-.39-.06-.06-.06-.16,0-.22s.16-.06.22,0c.4.4,1.06.4,1.46,0,.06-.06.16-.06.22,0s.06.16,0,.22c-.26.26-.6.39-.95.39Z"/>
      <path class="cls-1" d="M72.76,22.91c-.34,0-.69-.13-.95-.39-.06-.06-.06-.16,0-.22s.16-.06.22,0c.4.4,1.06.4,1.46,0,.06-.06.16-.06.22,0s.06.16,0,.22c-.26.26-.6.39-.95.39Z"/>
      <path class="cls-1" d="M81.74,26.16c-.34,0-.69-.13-.95-.39-.06-.06-.06-.16,0-.22s.16-.06.22,0c.4.4,1.06.4,1.46,0,.06-.06.16-.06.22,0s.06.16,0,.22c-.26.26-.6.39-.95.39Z"/>
      <path class="cls-1" d="M74.06,26.16c-.34,0-.69-.13-.95-.39-.06-.06-.06-.16,0-.22s.16-.06.22,0c.4.4,1.06.4,1.46,0,.06-.06.16-.06.22,0s.06.16,0,.22c-.26.26-.6.39-.95.39Z"/>
      <path class="cls-1" d="M76.6,26.16c-.34,0-.69-.13-.95-.39-.06-.06-.06-.16,0-.22s.16-.06.22,0c.4.4,1.06.4,1.46,0,.06-.06.16-.06.22,0s.06.16,0,.22c-.26.26-.6.39-.95.39Z"/>
      <path class="cls-1" d="M79.18,26.16c-.34,0-.69-.13-.95-.39-.06-.06-.06-.16,0-.22s.16-.06.22,0c.4.4,1.06.4,1.46,0,.06-.06.16-.06.22,0s.06.16,0,.22c-.26.26-.6.39-.95.39Z"/>
      <path class="cls-1" d="M76.6,28.38c-.34,0-.69-.13-.95-.39-.06-.06-.06-.16,0-.22s.16-.06.22,0c.4.4,1.06.4,1.46,0,.06-.06.16-.06.22,0s.06.16,0,.22c-.26.26-.6.39-.95.39Z"/>
      <path class="cls-1" d="M79.18,28.38c-.34,0-.69-.13-.95-.39-.06-.06-.06-.16,0-.22s.16-.06.22,0c.4.4,1.06.4,1.46,0,.06-.06.16-.06.22,0s.06.16,0,.22c-.26.26-.6.39-.95.39Z"/>
      <path class="cls-1" d="M82.91,25.07c-.34,0-.69-.13-.95-.39-.06-.06-.06-.16,0-.22s.16-.06.22,0c.4.4,1.06.4,1.46,0,.06-.06.16-.06.22,0s.06.16,0,.22c-.26.26-.6.39-.95.39Z"/>
      <path class="cls-1" d="M75.35,25.06c-.35,0-.7-.13-.96-.39-.06-.06-.06-.16,0-.22s.16-.06.22,0c.4.4,1.09.4,1.5,0,.06-.06.16-.06.22,0s.06.16,0,.22c-.26.27-.62.4-.97.4Z"/>
      <path class="cls-1" d="M72.76,25.07c-.34,0-.69-.13-.95-.39-.06-.06-.06-.16,0-.22s.16-.06.22,0c.4.4,1.06.4,1.46,0,.06-.06.16-.06.22,0s.06.16,0,.22c-.26.26-.6.39-.95.39Z"/>
      <path class="cls-1" d="M80.48,25.06c-.34,0-.68-.13-.94-.4-.06-.06-.06-.16,0-.22s.16-.06.22,0c.4.4,1.04.41,1.44,0,.06-.06.16-.06.22,0s.06.16,0,.22c-.26.26-.59.39-.93.39Z"/>
      <path class="cls-1" d="M75.33,27.26c-.34,0-.69-.13-.95-.39-.06-.06-.06-.16,0-.22s.16-.06.22,0c.4.4,1.06.4,1.46,0,.06-.06.16-.06.22,0s.06.16,0,.22c-.26.26-.6.39-.95.39Z"/>
      <path class="cls-1" d="M77.89,27.26c-.34,0-.69-.13-.95-.39-.06-.06-.06-.16,0-.22s.16-.06.22,0c.4.4,1.06.4,1.46,0,.06-.06.16-.06.22,0s.06.16,0,.22c-.26.26-.6.39-.95.39Z"/>
      <path class="cls-1" d="M80.44,27.26c-.34,0-.69-.13-.95-.39-.06-.06-.06-.16,0-.22s.16-.06.22,0c.4.4,1.06.4,1.46,0,.06-.06.16-.06.22,0s.06.16,0,.22c-.26.26-.6.39-.95.39Z"/>
    </g>
    <path class="cls-1" d="M76.7,25.55s-.05,0-.08-.02c-.07-.04-.09-.14-.05-.21.7-1.13,1.39-1.54,1.92-1.78.67-.3,1.46-.26,2.09-.15-.59-.29-1.12-.39-1.64-.33-.82.09-1.65.6-2.62,1.61-.06.06-.16.06-.22,0-.06-.06-.06-.16,0-.22,1.02-1.07,1.91-1.61,2.81-1.71.85-.09,1.74.21,2.79.96.06.05.08.13.05.2-.04.07-.12.1-.19.07-.02,0-1.75-.7-2.94-.16-.52.24-1.13.62-1.79,1.67-.03.05-.08.07-.13.07Z"/>
    <g>
      <path class="cls-1" d="M79.15,25.55c-.05,0-.1-.03-.13-.07-.39-.63-.77-1.06-1.18-1.33-.07-.05-.09-.14-.04-.21.05-.07.14-.09.21-.04.45.3.86.76,1.27,1.43.05.07.02.17-.05.21-.02.02-.05.02-.08.02Z"/>
      <path class="cls-1" d="M74.24,23.98c-.05,0-.11-.03-.13-.08-.04-.07-.02-.15.05-.2,1.48-1.05,2.63-1.24,3.84-.64.08.04.11.13.07.21s-.13.11-.21.07c-.83-.41-1.64-.41-2.58.05.79-.14,1.47-.11,2,.11.08.03.12.12.08.2-.03.08-.12.12-.2.08-1.18-.48-2.85.18-2.87.19-.02,0-.04.01-.06.01Z"/>
      <path class="cls-1" d="M79.65,24.71s-.08-.02-.11-.05c-.35-.37-.68-.66-1-.9-.07-.05-.08-.15-.03-.21.05-.07.15-.08.21-.03.33.25.67.56,1.04.94.06.06.06.16,0,.22-.03.03-.07.04-.11.04Z"/>
    </g>
    <path class="cls-1" d="M77.92,20.71c-.05,0-.1-.03-.13-.08-.47-.8-1.56-1.13-2.3-.7-.07.04-.17.02-.21-.05-.04-.07-.02-.17.05-.21.89-.52,2.17-.14,2.72.81.04.07.02.17-.05.21-.03.01-.05.02-.08.02Z"/>
    <path class="cls-1" d="M75.59,21.17s-.05,0-.07-.02c-.07-.04-.1-.13-.06-.21.25-.44.65-.75,1.12-.88.46-.12.97-.05,1.41.21.07.04.1.13.06.21-.04.07-.13.1-.21.06-.38-.21-.8-.28-1.19-.18-.39.1-.72.36-.93.73-.03.05-.08.08-.13.08Z"/>
    <path class="cls-1" d="M77.93,20.86h0c-.09,0-.15-.07-.15-.15,0-.45-.12-.83-.36-1.09-.24-.27-.6-.42-1.02-.42-.08,0-.15-.07-.15-.15,0-.08.07-.15.15-.15h0c.51,0,.95.18,1.25.52.29.32.44.77.44,1.3,0,.08-.07.15-.15.15Z"/>
    <path class="cls-1" d="M76.24,22.41c-.08,0-.15-.06-.15-.15-.04-1.07.78-1.98,1.83-2.02.08,0,.16.06.16.15,0,.08-.06.16-.15.16-.88.04-1.57.8-1.53,1.7,0,.08-.06.16-.15.16h0Z"/>
    <path class="cls-1" d="M77.94,20.71s-.05,0-.08-.02c-.07-.04-.1-.14-.05-.21.56-.95,1.83-1.33,2.72-.81.07.04.1.14.05.21-.04.07-.14.1-.21.05-.74-.43-1.84-.1-2.3.7-.03.05-.08.08-.13.08Z"/>
    <path class="cls-1" d="M80.26,21.17c-.05,0-.11-.03-.13-.08-.21-.37-.54-.63-.93-.73-.39-.1-.81-.04-1.19.18-.07.04-.17.02-.21-.06s-.02-.17.06-.21c.45-.25.95-.33,1.41-.21.47.12.87.43,1.12.88.04.07.02.17-.06.21-.02.01-.05.02-.07.02Z"/>
    <path class="cls-1" d="M77.93,20.86c-.08,0-.15-.07-.15-.15,0-1.1.65-1.81,1.69-1.82h0c.08,0,.15.07.15.15s-.07.15-.15.15c-.86,0-1.39.59-1.38,1.51,0,.08-.07.15-.15.15t0,0Z"/>
    <path class="cls-1" d="M79.62,22.41h0c-.08,0-.15-.07-.15-.16.02-.43-.13-.85-.42-1.17-.29-.32-.69-.51-1.11-.53-.08,0-.15-.07-.15-.16,0-.08.07-.15.16-.15.51.02.98.24,1.33.63.34.38.52.88.5,1.39,0,.08-.07.15-.15.15Z"/>
    <path class="cls-1" d="M77.93,22.92c-.08,0-.15-.07-.15-.15v-2.99c0-.08.07-.15.15-.15s.15.07.15.15v2.99c0,.08-.07.15-.15.15Z"/>
  </g>
  <g>
    <g>
      <path class="cls-1" d="M1.13,18.46c.13,0,.24.1.24.23,0,.14-.11.24-.24.24s-.24-.1-.24-.24c0-.13.11-.23.24-.23Z"/>
      <path class="cls-1" d="M16.97,18.5h-.15v1.78c0,.19-.07.29-.26.31h-.03c-.35,0-.48-.12-.48-.43,0-.5-.29-.91-.83-.91-.5,0-.8.4-.8.84,0,.37-.11.5-.49.5h-.92c-.35,0-.4-.12-.42-.42v-1.35c0-.21-.11-.32-.32-.32h-.15v1.78c0,.19-.07.29-.27.32h-.96c0-.26-.05-.54-.13-.7-.17-.36-.55-.59-.95-.59h-4.64l.88-.63c.05-.04.07-.1.07-.16s-.01-.11-.04-.14l-.11-.15-1.32.92s-.01.01-.02.02c-.08.08-.08.21-.03.31l.06.1c.05.08.14.14.23.14h4.93c.12,0,.26.01.4.16.19.19.22.4.22.71H3.66c-.31,0-.42-.13-.43-.42v-.53c0-.21-.11-.32-.32-.32h-.15v.96c0,.19-.07.29-.27.31h-.8v-.36c0-.48-.23-.99-.81-.99-.54,0-.83.41-.83.91,0,.74.67.84,1.18.85.25,0,1.31,0,1.31,0,.23,0,.4-.08.52-.2.14.12.05.19.99.19h7.79c.26,0,.44-.06.58-.19.14.13.28.2.54.2h1.05c.29,0,.51-.08.66-.24.15.15.35.24.6.24s.43-.09.57-.23c.15.15.36.23.63.23h0s.15,0,.15,0c.48-.02.71-.32.71-.7v-1.48c0-.21-.11-.32-.33-.32ZM1.27,20.58c-.27,0-.82.06-.82-.49,0-.3.13-.51.39-.51.4,0,.44.35.44.7,0,.1,0,.2,0,.3ZM15.21,20.65c-.26,0-.39-.21-.39-.5,0-.35.13-.56.43-.56.25,0,.38.21.38.5,0,.35-.12.56-.42.56Z"/>
      <path class="cls-1" d="M.43,18.46c.14,0,.24.1.24.23,0,.14-.11.24-.24.24-.13,0-.23-.1-.23-.24,0-.13.1-.23.23-.23Z"/>
      <path class="cls-1" d="M2.47,21.32c.13,0,.24.11.24.24,0,.14-.11.24-.24.24s-.24-.1-.24-.24c0-.13.11-.24.24-.24Z"/>
      <path class="cls-1" d="M3.14,21.32c.13,0,.24.11.24.24,0,.14-.12.24-.24.24s-.24-.1-.24-.24c0-.13.11-.24.24-.24Z"/>
      <path class="cls-1" d="M18.23,21h-.19c-.14,0-.29-.1-.29-.32v-2.18h.21c.12,0,.26.1.26.24v2.26Z"/>
      <path class="cls-1" d="M23.75,18.5h-.15v1.78c0,.19-.07.29-.27.31h-.03c-.35,0-.4-.12-.42-.42v-1.35c0-.21-.11-.32-.32-.32h-.15v1.78c0,.19-.07.29-.27.32h-1.03v-.36c0-.39-.15-.79-.51-.94h0c-.09-.03-.19-.05-.3-.05-.54,0-.83.41-.83.91,0,.74.67.84,1.18.85.25-.01,1.57,0,1.54,0h0c.23-.02.39-.08.51-.19.14.13.28.19.52.19h.01s.13,0,.13,0c.48-.02.71-.32.71-.7v-1.48c0-.21-.11-.32-.33-.32ZM20.7,20.58c-.27,0-.82.06-.82-.49,0-.3.13-.51.39-.51.4,0,.44.35.44.7,0,.1,0,.2,0,.3Z"/>
      <path class="cls-1" d="M24.75,18.5c.12,0,.26.1.26.24v2.26h-.19c-.14,0-.29-.1-.29-.32v-2.18h.21Z"/>
      <path class="cls-1" d="M27.49,21h0c-.23,0-.36-.02-.51-.17-.08.08-.17.17-.31.17h-.98c-.15,0-.23-.12-.23-.25v-.17h1.14c0-.52-.36-.75-.37-.76-.14-.09-.27-.12-.41-.12-.06,0-.13,0-.2.02l.08-.13c.09-.14.2-.23.38-.23.05,0,.11,0,.18.03,0,0,.27.07.44.27.05.06.21.25.29.56.1.31.12.38.49.38h3.89c.2-.02.27-.12.27-.31v-.96h.15c.22,0,.32.11.32.32v.53c.02.29.12.42.43.42h.83c-.07-.13-.1-.28-.1-.44,0-.5.29-.91.83-.91.29,0,.63.14.69.49,0,.06-.01.12-.04.19l-.06.14c-.13-.41-.48-.48-.62-.48-.25,0-.38.22-.38.51,0,.24.06.4.19.49h1.06v.19c0,.1-.1.23-.24.23h-2.17c-.26,0-.46-.07-.6-.2-.17.16-.39.2-.73.2"/>
      <path class="cls-1" d="M31.88,21.3c.13,0,.24.1.24.24s-.11.23-.24.23-.24-.1-.24-.23c0-.14.1-.24.24-.24Z"/>
    </g>
    <g>
      <path class="cls-1" d="M45.94,22.31c-.13,0-.24-.11-.24-.24s.11-.23.24-.23.24.1.24.23c0,.13-.11.24-.24.24Z"/>
      <path class="cls-1" d="M45.26,22.31c-.13,0-.24-.11-.24-.24s.1-.23.24-.23.24.1.24.23-.11.24-.24.24Z"/>
      <path class="cls-1" d="M47.48,20.89v-1.33c-.7,0-.81.18-.82.99,0,.58-.11,1-1.03,1-.45,0-1.06-.16-1.06-1.01,0-.43.21-.77.46-.77h.3s-.33.18-.33.67c0,.39.1.72.58.72h.15c.93.01.34-.97.73-1.59.19-.29.53-.43,1.04-.43h.39v1.35h8.41c0-.3-.03-.52-.22-.71-.15-.15-.28-.16-.4-.16h-5.89c-.1,0-.19-.05-.23-.14l-.06-.1c-.06-.1-.05-.23.03-.31,0,0,.02-.01.02-.02l1.32-.92.11.14s.04.09.04.14-.02.12-.07.16l-.88.63h5.59c.4,0,.78.22.95.58.08.16.13.45.13.71v.41h-9.26Z"/>
      <path class="cls-1" d="M58.25,20.89v.16c0,.29-.23.56-.58.56-.2,0-.34-.09-.34-.25v-.17c.07.01.15.02.17.02.34,0,.29-.28.29-.73v-1.28h.18c.23,0,.31.1.31.33v.94s2.54,0,2.54,0c.19-.02.26-.12.26-.31v-.96h.15c.21,0,.32.11.32.33v.66c0,.39-.23.69-.7.7h-2.6Z"/>
      <path class="cls-1" d="M60.87,18.43c.13,0,.24.1.24.24s-.11.24-.24.24-.24-.1-.24-.24c0-.13.11-.24.24-.24Z"/>
      <path class="cls-1" d="M61.79,18.67c0,.13-.12.24-.24.24s-.23-.1-.23-.24.1-.24.23-.24.24.1.24.24Z"/>
      <path class="cls-1" d="M37.82,18.97c.14,0,.24.1.24.24s-.11.24-.24.24-.24-.11-.24-.24.1-.24.24-.24Z"/>
      <path class="cls-1" d="M42.33,20.49c.19-.02.26-.12.26-.31v-.96h.15c.21,0,.32.11.32.33v.66c0,.39-.23.69-.7.7h-3.07c-.11,0-.25,0-.37-.07-.12.42-.41.84-1.15.87-.74.03-1.25-.46-1.21-1.18.02-.36.16-.68.46-.68h.19c-.17.15-.23.43-.23.62,0,.56.34.82.73.82.48,0,.81-.26.81-1.14v-.93h.15c.22,0,.32.12.32.33v.6s0,.14,0,.26c.07.06.19.09.37.09h2.97Z"/>
      <path class="cls-1" d="M42.64,21.21c.13,0,.24.1.24.24,0,.14-.12.24-.24.24s-.23-.1-.23-.24c0-.13.1-.24.23-.24Z"/>
    </g>
  </g>
  <g>
    <path class="cls-1" d="M29.01,15.87h.19c.25-.02.45-.1.58-.24.15.15.35.24.6.24.5,0,.8-.4.8-.85,0-.5-.29-.91-.83-.91-.49,0-.8.4-.8.84,0,.37-.11.51-.49.51h-.23c-.07-.61-.38-1.34-1.1-1.34-.6,0-.84.24-.84.52v.16c.18-.17.51-.26.75-.26.5,0,.7.66.76.93h-6.6c-.35,0-.48-.12-.48-.43,0-.5-.29-.91-.83-.91-.5,0-.8.4-.8.84,0,.34-.1.48-.41.5-.26-.02-.35-.15-.37-.41v-.56c0-.22-.11-.32-.32-.32h-.15v.99c0,.19-.07.29-.27.31h-.53v-.36c0-.48-.23-.99-.81-.99-.54,0-.83.41-.83.91,0,.74.67.84,1.18.85.25-.01.98,0,.96,0h.07c.23,0,.4-.08.52-.2.11.1.26.17.43.18.05,0,.14,0,.19,0,.25,0,.44-.09.58-.23.14.15.35.24.6.24.24,0,.43-.09.56-.23.15.16.36.23.65.23h7.29ZM30.38,14.46c.25,0,.38.21.38.51,0,.35-.12.56-.42.56-.26,0-.39-.21-.39-.5,0-.35.13-.56.42-.56ZM20.52,14.46c.25,0,.38.21.38.51,0,.35-.12.56-.42.56-.26,0-.39-.21-.39-.5,0-.35.13-.56.43-.56ZM16.78,14.46c.4,0,.44.35.44.7,0,.1,0,.21,0,.3-.27,0-.82.06-.82-.49,0-.3.13-.51.38-.51ZM16.15,13.58c0-.13.1-.23.23-.23.14,0,.24.1.24.23,0,.14-.11.24-.24.24-.13,0-.23-.1-.23-.24ZM16.84,13.58c0-.13.11-.23.24-.23s.24.1.24.23c0,.14-.11.24-.24.24s-.24-.1-.24-.24ZM18.14,16.67c-.13,0-.24-.1-.24-.24,0-.13.11-.24.24-.24s.24.11.24.24c0,.14-.11.24-.24.24ZM18.82,16.19c.13,0,.24.11.24.24,0,.14-.12.24-.24.24s-.24-.1-.24-.24c0-.13.11-.24.24-.24ZM33.45,15.87v.16c0,.29-.23.56-.58.56-.2,0-.34-.09-.34-.25v-.17c.07.01.15.02.17.02.34,0,.29-.28.29-.73v-1.3h.18c.23,0,.31.1.31.33v.96s1.95,0,1.95,0c.19-.02.26-.12.26-.31v-.98h.15c.21,0,.32.11.32.33v.68c0,.39-.23.69-.7.7h-2.01ZM36.22,16.44c0,.13-.11.24-.24.24s-.24-.11-.24-.24.11-.24.24-.24c.13,0,.24.1.24.24ZM35.53,16.44c0,.13-.11.24-.24.24s-.24-.11-.24-.24.11-.24.24-.24c.13,0,.24.1.24.24ZM47.43,15.87c.47-.02.7-.32.7-.7v-.68c0-.22-.11-.33-.32-.33h-.15v.98c0,.19-.07.29-.26.31h-1.02s0-.08,0-.12c0-.7-.25-1.2-.93-1.22-.79-.02-1.46.69-1.61.87v-1.43c0-.22-.09-.31-.32-.31h-.09c0,.14,0,2.11,0,2.11l-.09.1h-5.06v-.31c0-.45-.18-.99-.81-.99-.54,0-.83.41-.83.91,0,.74.67.79,1.18.8-.1.2-.36.34-.91.36v.15c0,.11.11.2.29.2.72,0,1-.4,1.07-.7h9.18ZM45.37,14.46c.54.03.6.51.6.85,0,.05,0,.1,0,.14h-2.13c.29-.32.84-.98,1.53-1ZM37.43,14.51c.51,0,.42.53.44.95-.06,0-.13,0-.21,0-.28,0-.61.02-.61-.45,0-.29.13-.5.38-.5ZM47.89,13.58c0-.13.1-.24.23-.24s.24.1.24.24-.12.24-.24.24-.23-.1-.23-.24ZM47.21,13.58c0-.13.11-.24.24-.24s.24.1.24.24-.11.24-.24.24-.24-.1-.24-.24ZM50.65,15.87c.25-.01,6.59,0,6.59,0,.23,0,.4-.08.52-.2.12.11.29.17.5.19h.22c.23,0,.4-.07.52-.19.13.11.3.17.52.19h.6c.53,0,.68-.04.82-.11.15.12.35.12.76.12.09-.22.1-.55.1-.62,0-.7-.29-1.5-1.22-1.5-.6,0-.67.21-.67.48v.16c.18-.17.34-.23.58-.23.68,0,.89.58.89,1.03,0,.09,0,.19-.03.26h-.3v-.27c0-.36-.16-.75-.61-.75-.34,0-.61.21-.61.59,0,.12.04.27.17.42h-.39c-.31,0-.42-.13-.43-.42v-.55c0-.22-.11-.32-.32-.32h-.15v.98c0,.19-.07.29-.27.31h-.05c-.32,0-.42-.13-.43-.42v-.55c0-.22-.11-.32-.32-.32h-.15v.98c0,.19-.07.29-.27.31h-6.09v-.36c0-.48-.23-.99-.81-.99-.54,0-.83.41-.83.91,0,.74.68.84,1.18.85ZM60.41,14.75c.33,0,.29.43.29.71-.56,0-.55-.34-.55-.37,0-.2.09-.34.26-.34ZM50.27,14.46c.4,0,.44.35.44.7,0,.1,0,.21,0,.3-.27,0-.82.06-.82-.49,0-.3.13-.51.38-.51ZM50.32,13.58c0-.13.11-.23.24-.23s.24.1.24.23c0,.14-.11.24-.24.24s-.24-.1-.24-.24ZM49.63,13.58c0-.13.1-.23.23-.23.14,0,.24.1.24.23,0,.14-.11.24-.24.24-.13,0-.23-.1-.23-.24ZM58.42,16.19c.13,0,.24.11.24.24,0,.14-.11.24-.24.24s-.24-.1-.24-.24c0-.13.11-.24.24-.24ZM59.09,16.19c.13,0,.24.11.24.24,0,.14-.12.24-.24.24s-.24-.1-.24-.24c0-.13.11-.24.24-.24ZM57.3,13.83v-.14h.13s0-.07,0-.11c0-.17.12-.36.33-.36.13,0,.22.06.28.2h0s-.12.18-.12.18v-.03c-.05-.09-.1-.13-.18-.12-.05,0-.08.06-.08.13,0,.06.02.1.03.11h.37v.26h-.62c-.07,0-.12-.06-.12-.11Z"/>
    <g>
      <path class="cls-1" d="M1.54,14.27c-.54,0-.83.41-.83.91,0,.12.02.26.02.41,0,.26-.06.51-.39.51H.05v.12c0,.19.1.29.33.29h.05c.49,0,.6-.42.7-.58.12.07.25.1.39.1.54,0,.84-.4.84-.91,0-.45-.3-.86-.8-.86ZM1.54,15.69c-.29,0-.42-.21-.42-.56,0-.3.13-.51.39-.51.29,0,.42.21.42.56,0,.3-.12.51-.39.51Z"/>
      <path class="cls-1" d="M11.39,15.74v-.12h.47v-2.2h.22c.12,0,.26.1.26.24v1.97h.45c.2-.02.27-.12.27-.31v-1.9h.15c.22,0,.33.11.33.33v1.59c0,.39-.23.69-.7.7h-1.09c-.25,0-.35-.1-.35-.29Z"/>
      <path class="cls-1" d="M14.07,15.71v-2.29h.21c.12,0,.26.1.26.24v2.37h-.19c-.14,0-.28-.1-.28-.32Z"/>
      <path class="cls-1" d="M11.69,16.8h.13s0-.07,0-.11c0-.17.12-.36.33-.36.13,0,.22.06.28.2h0s-.12.18-.12.18v-.03c-.05-.09-.1-.13-.18-.12-.05,0-.08.06-.08.13,0,.06.02.1.03.11h.37v.26h-.62c-.07,0-.12-.06-.12-.11v-.14h0Z"/>
      <path class="cls-1" d="M10.27,14.27c-.49,0-.8.4-.8.84,0,.37-.11.51-.49.51H3.42c-.17-.02-.24-.1-.26-.24v-1.72c0-.15-.14-.24-.26-.24h-.21v1.91c0,.39.23.69.71.7h5.74c.25-.02.44-.1.58-.24.15.15.35.24.6.24.5,0,.8-.4.8-.85,0-.5-.29-.91-.83-.91ZM10.27,15.68c-.26,0-.39-.21-.39-.5,0-.35.13-.56.42-.56.25,0,.38.21.38.5,0,.35-.12.56-.42.56Z"/>
    </g>
  </g>
  <path class="cls-1" d="M.4,26.4c-.15,0-.31-.11-.31-.34v-2.22h.23c.13,0,.28.11.28.27v2.29h-.2ZM3.71,26.4c-.26,0-.36-.12-.36-.35v-.74c0-.32-.15-.45-.35-.45-.2,0-.33.14-.33.4v1.15h-.13c-.21,0-.35-.12-.35-.35v-.74c0-.32-.15-.45-.36-.45-.19,0-.33.15-.33.41v1.13h-.13c-.2,0-.35-.13-.35-.35v-.75c0-.52.28-.88.86-.88.25,0,.45.11.59.3.11-.18.32-.3.55-.3.44,0,.8.27.8.82v1.16h-.12ZM5.02,26.43h-.1c-.46,0-.78-.26-.78-.61s.25-.6.96-.6h.17v-.03c0-.27-.13-.35-.41-.35-.35,0-.54.13-.61.22h-.02v-.15c0-.22.19-.47.7-.47.43,0,.82.2.82.86v.44c0,.41-.3.69-.73.69ZM5.27,25.56h-.17c-.37,0-.47.08-.47.24,0,.15.12.24.33.24s.31-.1.31-.3v-.18h0ZM8.74,26.4c-.26,0-.36-.12-.36-.35v-.74c0-.32-.15-.45-.35-.45-.2,0-.33.14-.33.4v1.15h-.13c-.21,0-.35-.12-.35-.35v-.74c0-.32-.15-.45-.36-.45-.19,0-.33.15-.33.41v1.13h-.13c-.2,0-.35-.13-.35-.35v-.75c0-.52.28-.88.86-.88.25,0,.45.11.59.3.11-.18.32-.3.55-.3.44,0,.8.27.8.82v1.16h-.12ZM11.64,24.29h-.47v2.11h-.2c-.18,0-.31-.11-.31-.34v-1.77h-.74v-.17c0-.12.1-.28.31-.28h1.72v.16c0,.12-.14.29-.31.29ZM12.67,26.44c-.48,0-.85-.31-.85-.88v-1.1h.09c.27,0,.4.12.4.34v.7c0,.36.17.5.39.5.2,0,.34-.14.34-.46v-1.08h.09c.28,0,.4.12.4.34v.72c0,.6-.29.91-.84.91ZM15.01,24.94c-.07-.03-.15-.06-.28-.06-.21,0-.33.12-.33.41v1.1h-.13c-.21,0-.35-.11-.35-.31v-.89c0-.38.2-.75.71-.75.29,0,.4.17.4.31v.17h-.02ZM15.71,24.15v1.15c.19-.24.37-.49.59-.7.11-.11.23-.13.38-.13h.27v.02c-.14.11-.58.62-.78.87.16.19.31.39.48.56s.26.21.37.25c-.05.15-.13.24-.32.24-.11,0-.23-.05-.32-.14-.25-.25-.46-.54-.67-.82v.94h-.15c-.22.01-.33-.11-.33-.34v-2.23h.15c.24,0,.33.13.33.32ZM17.46,24.33c-.15,0-.28-.13-.28-.28s.12-.28.28-.28.29.12.29.28-.13.28-.29.28ZM17.8,26.41c-.37,0-.57-.21-.57-.6v-1.3h.14c.21,0,.34.11.34.36v.9c0,.2.08.26.29.26h.09v.1c0,.21-.08.29-.29.29ZM20.08,26.44c-.49,0-.91-.4-.91-.98v-1.76h.17c.19,0,.32.11.32.33v.69c.1-.14.26-.29.52-.29.49,0,.87.4.87.97,0,.58-.38,1.04-.96,1.04ZM20.08,24.85c-.24,0-.43.24-.43.54,0,.44.19.62.47.62.24,0,.41-.23.41-.54,0-.47-.17-.62-.46-.62ZM21.65,24.33c-.15,0-.28-.13-.28-.28s.12-.28.28-.28.29.12.29.28-.13.28-.29.28ZM21.99,26.41c-.37,0-.57-.21-.57-.6v-1.3h.14c.21,0,.34.11.34.36v.9c0,.2.08.26.29.26h.09v.1c0,.21-.08.29-.29.29ZM24.02,26.4c-.21,0-.35-.14-.35-.31v-.76c0-.32-.15-.47-.39-.47-.2,0-.35.16-.35.43v1.11h-.14c-.2,0-.34-.14-.34-.31v-.83c0-.4.27-.82.87-.82.45,0,.83.31.83.85v1.12h-.13ZM27.28,26.4c-.21,0-.33-.12-.34-.25-.03-.17-.04-.3-.07-.41h-1.03c-.05.22-.1.44-.13.65h-.2c-.17,0-.23-.09-.23-.25,0-.37.48-1.88.87-2.31h.21c.2,0,.34.11.42.24.23.41.62,1.52.72,2.32h-.21ZM26.35,24.31c-.15.27-.31.67-.4,1.03h.79c-.08-.36-.26-.79-.39-1.03ZM28.59,26.44c-.49,0-.91-.4-.91-.98v-1.76h.17c.19,0,.32.11.32.33v.69c.1-.14.26-.29.52-.29.49,0,.87.4.87.97,0,.58-.38,1.04-.96,1.04ZM28.59,24.85c-.24,0-.43.24-.43.54,0,.44.19.62.47.62.24,0,.41-.23.41-.54,0-.47-.17-.62-.46-.62ZM30.65,26.44c-.51,0-.89-.44-.89-.97,0-.63.31-1.04.87-1.04.19,0,.4.14.48.31v-1.03h.15c.23,0,.33.13.33.33v1.48c0,.56-.26.93-.93.93ZM30.63,24.83c-.25,0-.4.24-.4.55,0,.4.21.66.48.66s.39-.2.39-.55c0-.48-.21-.66-.47-.66ZM32.84,26.44c-.48,0-.85-.31-.85-.88v-1.1h.09c.27,0,.4.12.4.34v.7c0,.36.17.5.39.5.2,0,.34-.14.34-.46v-1.08h.09c.28,0,.4.12.4.34v.72c0,.6-.29.91-.84.91ZM34.73,26.41c-.4,0-.61-.21-.61-.6v-1.99h.14c.24,0,.34.14.34.32v1.62c0,.2.1.26.33.26h.13v.1c0,.21-.11.29-.32.29ZM35.8,26.41c-.4,0-.61-.21-.61-.6v-1.99h.14c.24,0,.34.14.34.32v1.62c0,.2.1.26.33.26h.13v.1c0,.21-.11.29-.32.29ZM37.01,26.43h-.1c-.46,0-.78-.26-.78-.61s.25-.6.96-.6h.17v-.03c0-.27-.13-.35-.41-.35-.35,0-.54.13-.61.22h-.02v-.15c0-.22.19-.47.7-.47.43,0,.82.2.82.86v.44c0,.41-.3.69-.73.69ZM37.26,25.56h-.17c-.37,0-.47.08-.47.24,0,.15.12.24.33.24s.31-.1.31-.3v-.18ZM39.61,26.4c-.2,0-.33-.11-.33-.32v-.78c0-.31-.17-.44-.38-.44-.15,0-.35.11-.35.45v1.09h-.16c-.23,0-.33-.12-.33-.32v-2.25h.15c.23,0,.34.13.34.31v.55c.07-.11.23-.26.42-.26.5,0,.79.3.79.84v1.13h-.16ZM42.61,26.46c-.17,0-.31-.06-.37-.22l-.19-.46c-.11-.28-.23-.3-.36-.32-.11-.02-.35-.03-.4-.03v1.03h-.17c-.23,0-.35-.14-.35-.34v-2.14c.11-.04.61-.09.8-.09h.29c.51,0,.84.31.84.73,0,.35-.23.64-.53.68.14.06.26.21.32.36l.2.48c.06.15.13.22.16.26-.06.06-.11.08-.25.08ZM41.65,24.3s-.31,0-.37.03v.68c.11.02.37.02.51.02.21,0,.39-.12.39-.34,0-.31-.16-.38-.38-.38h-.15ZM43.82,24.47c.58,0,.91.47.91.98,0,.58-.33,1.04-.95,1.04-.58,0-.91-.46-.91-.97,0-.58.33-1.04.95-1.04ZM43.78,24.9c-.28,0-.42.23-.42.55,0,.38.14.61.46.61.28,0,.41-.22.41-.54,0-.39-.14-.62-.46-.62ZM45.33,27.06c-.18,0-.34-.12-.34-.3v-.09l.27-.02c.17,0,.23-.07.34-.35-.25-.38-.62-1.34-.69-1.79h.26c.13,0,.26.09.28.22.07.37.21.77.38,1.11.16-.36.33-.94.37-1.34h.21c.15,0,.23.07.23.22,0,.2-.34,1.08-.43,1.29-.36.84-.54,1.04-.89,1.04ZM47.68,26.47h-.1c-.46,0-.78-.26-.78-.61s.25-.6.96-.6h.17v-.03c0-.27-.13-.35-.41-.35-.35,0-.54.13-.61.22h-.02v-.15c0-.22.19-.47.7-.47.43,0,.82.2.82.86v.44c0,.41-.3.69-.73.69ZM47.94,25.6h-.17c-.37,0-.47.08-.47.24,0,.15.12.24.33.24s.31-.1.31-.3v-.18ZM49.35,26.46c-.4,0-.61-.21-.61-.6v-1.99h.14c.24,0,.34.14.34.32v1.62c0,.2.1.26.33.26h.13v.1c0,.21-.11.29-.32.29ZM52.57,26.44c-.2,0-.42-.06-.74-.68l-.47-.91c-.07-.14-.13-.24-.17-.3v1.89h-.2c-.15,0-.31-.11-.31-.34v-2.23h.26c.33,0,.56.18.73.52l.45.9c.05.11.12.26.15.34v-1.77h.23c.13,0,.28.13.28.3v2.26h-.2ZM54.03,26.47h-.1c-.46,0-.78-.26-.78-.61s.25-.6.96-.6h.17v-.03c0-.27-.13-.35-.41-.35-.35,0-.54.13-.61.22h-.02v-.15c0-.22.19-.47.7-.47.43,0,.82.2.82.86v.44c0,.41-.3.69-.73.69ZM54.29,25.6h-.17c-.37,0-.47.08-.47.24,0,.15.12.24.33.24s.31-.1.31-.3v-.18ZM55.47,24.08h.11v.43h.67v.2c0,.1-.09.22-.29.22h-.38v.76c0,.25.11.34.3.34.15,0,.27-.02.34-.07h.02v.17c0,.2-.15.32-.43.32-.48,0-.72-.26-.72-.71v-1.16c0-.26.18-.51.36-.51ZM57.52,26.48c-.48,0-.85-.31-.85-.88v-1.1h.09c.27,0,.4.12.4.34v.7c0,.36.17.5.39.5.2,0,.34-.14.34-.46v-1.08h.09c.28,0,.4.12.4.34v.72c0,.6-.29.91-.84.91ZM59.87,24.98c-.07-.03-.15-.06-.28-.06-.21,0-.33.12-.33.41v1.1h-.13c-.21,0-.35-.11-.35-.31v-.89c0-.38.2-.75.71-.75.29,0,.4.17.4.31v.17h-.02ZM60.92,25.68h-.32c.04.24.26.4.54.4.2,0,.44-.04.59-.18h.02v.15c0,.25-.17.43-.7.43-.48,0-.95-.38-.95-.97,0-.64.39-1.04.94-1.04.4,0,.78.29.78.75,0,.35-.27.47-.91.47ZM61.01,24.87c-.23,0-.39.19-.4.41v.06h.21c.46,0,.56-.05.56-.19,0-.19-.14-.29-.37-.29ZM15.96,31.28h-.22c-.43,0-.71-.17-.71-.56v-1.93c.12-.05.44-.1.63-.1h.26c.59,0,1.21.4,1.21,1.25,0,.78-.51,1.34-1.18,1.34ZM15.85,29.13h-.11c-.06,0-.2.03-.2.03v1.47c0,.15.07.22.26.22h.09c.42,0,.72-.36.72-.82,0-.57-.32-.89-.76-.89ZM18.14,30.51h-.32c.04.24.26.4.54.4.2,0,.44-.04.59-.18h.02v.15c0,.25-.17.43-.7.43-.48,0-.95-.38-.95-.97,0-.64.39-1.04.94-1.04.4,0,.78.29.78.75,0,.35-.27.47-.91.47ZM18.23,29.69c-.23,0-.39.19-.4.41v.06h.21c.46,0,.56-.05.56-.19,0-.19-.14-.29-.37-.29ZM20.11,31.28h-.09c-.14,0-.22-.05-.32-.19-.26-.4-.59-1.24-.63-1.76h.26c.16,0,.26.13.29.23.06.36.17.73.37,1.13.18-.36.35-.87.42-1.36h.2c.16,0,.23.07.23.23,0,.13-.3,1.14-.72,1.72ZM21.66,30.51h-.32c.04.24.26.4.54.4.2,0,.44-.04.59-.18h.02v.15c0,.25-.17.43-.7.43-.48,0-.95-.38-.95-.97,0-.64.39-1.04.94-1.04.4,0,.78.29.78.75,0,.35-.27.47-.91.47ZM21.75,29.69c-.23,0-.39.19-.4.41v.06h.21c.46,0,.56-.05.56-.19,0-.19-.15-.29-.37-.29ZM23.5,31.28c-.4,0-.61-.21-.61-.6v-1.99h.14c.24,0,.34.14.34.32v1.62c0,.2.1.26.33.26h.13v.1c0,.21-.11.29-.32.29ZM24.78,29.29c.58,0,.91.47.91.98,0,.58-.33,1.04-.95,1.04-.58,0-.91-.46-.91-.97,0-.58.33-1.04.95-1.04ZM24.74,29.72c-.28,0-.42.23-.42.55,0,.38.14.61.46.61.28,0,.41-.22.41-.54,0-.39-.14-.62-.46-.62ZM26.97,31.31c-.21,0-.39-.12-.48-.28v.85h-.15c-.17,0-.34-.13-.34-.33v-1.16c0-.64.29-1.08.96-1.08.52,0,.88.47.88.95,0,.61-.31,1.06-.87,1.06ZM26.89,29.72c-.26,0-.41.23-.41.56,0,.39.19.6.48.6.23,0,.39-.21.39-.51,0-.45-.15-.65-.45-.65ZM30.83,31.26c-.26,0-.36-.12-.36-.35v-.74c0-.32-.15-.45-.35-.45-.2,0-.33.14-.33.4v1.15h-.13c-.21,0-.35-.12-.35-.35v-.74c0-.32-.15-.45-.36-.45-.19,0-.33.15-.33.41v1.13h-.13c-.2,0-.35-.13-.35-.35v-.75c0-.52.28-.88.86-.88.25,0,.45.11.59.3.11-.18.32-.3.55-.3.44,0,.8.27.8.82v1.16h-.12ZM32.07,30.51h-.32c.04.24.26.4.54.4.2,0,.44-.04.59-.18h.02v.15c0,.25-.17.43-.7.43-.48,0-.95-.38-.95-.97,0-.64.39-1.04.94-1.04.4,0,.78.29.78.75,0,.35-.27.47-.91.47ZM32.16,29.69c-.23,0-.39.19-.4.41v.06h.21c.46,0,.56-.05.56-.19,0-.19-.14-.29-.37-.29ZM34.84,31.26c-.21,0-.35-.14-.35-.31v-.76c0-.32-.15-.47-.39-.47-.2,0-.35.16-.35.43v1.11h-.14c-.2,0-.34-.14-.34-.31v-.83c0-.4.27-.82.87-.82.45,0,.83.31.83.85v1.12h-.13ZM35.72,28.9h.11v.43h.67v.2c0,.1-.09.22-.29.22h-.38v.76c0,.25.11.34.3.34.15,0,.27-.02.34-.07h.02v.17c0,.2-.15.32-.43.32-.48,0-.72-.26-.72-.71v-1.16c0-.26.18-.51.36-.51ZM39.42,31.26c-.21,0-.33-.12-.34-.25-.03-.17-.04-.3-.07-.41h-1.03c-.05.22-.1.44-.13.65h-.2c-.17,0-.23-.09-.23-.25,0-.37.48-1.88.87-2.31h.21c.2,0,.34.11.42.24.23.41.62,1.52.72,2.32h-.21ZM38.49,29.17c-.15.27-.31.67-.4,1.03h.79c-.08-.36-.26-.79-.39-1.03ZM40.62,31.31c-.48,0-.85-.31-.85-.88v-1.1h.09c.27,0,.4.12.4.34v.7c0,.36.17.5.39.5.2,0,.34-.14.34-.46v-1.08h.09c.28,0,.4.12.4.34v.72c0,.6-.29.91-.84.91ZM42.26,28.9h.11v.43h.67v.2c0,.1-.09.22-.29.22h-.38v.76c0,.25.11.34.3.34.15,0,.27-.02.34-.07h.02v.17c0,.2-.15.32-.43.32-.48,0-.72-.26-.72-.71v-1.16c0-.26.18-.51.36-.51ZM44.8,31.26c-.2,0-.33-.11-.33-.32v-.78c0-.31-.17-.44-.38-.44-.15,0-.35.11-.35.45v1.09h-.16c-.23,0-.33-.12-.33-.32v-2.25h.15c.23,0,.34.13.34.31v.55c.07-.11.23-.26.42-.26.5,0,.79.3.79.84v1.13h-.16ZM46.22,29.29c.58,0,.91.47.91.98,0,.58-.33,1.04-.95,1.04-.58,0-.91-.46-.91-.97,0-.58.33-1.04.95-1.04ZM46.18,29.72c-.28,0-.42.23-.42.55,0,.38.14.61.46.61.28,0,.41-.22.41-.54,0-.39-.14-.62-.46-.62ZM48.53,29.8c-.07-.03-.15-.06-.28-.06-.21,0-.33.12-.33.41v1.1h-.13c-.21,0-.35-.11-.35-.31v-.89c0-.38.2-.75.71-.75.29,0,.4.17.4.31v.17h-.02ZM49.03,29.2c-.15,0-.28-.13-.28-.28s.12-.28.28-.28.29.12.29.28c0,.15-.13.28-.29.28ZM49.37,31.28c-.37,0-.57-.21-.57-.6v-1.3h.14c.21,0,.34.11.34.36v.9c0,.2.08.26.29.26h.09v.1c0,.21-.08.29-.29.29ZM1.79,30.44c-.06-.15-.18-.3-.32-.36.3-.04.53-.33.53-.68,0-.43-.33-.73-.84-.73h-.5c-.19,0-.55.05-.66.09v2.14c0,.2.12.34.35.34h.17v-1.03c.05,0,.14.02.26.03.13.02.46.04.57.32l.19.46c.07.16.21.22.38.22.14,0,.19-.02.25-.08-.03-.05-.09-.11-.16-.26l-.21-.48ZM1.09,29.83c-.14,0-.47,0-.58-.02v-.68c.06-.02.18-.03.23-.03h.36c.23,0,.38.07.38.38,0,.22-.18.34-.39.34ZM4.11,30.02c0-.46-.38-.75-.78-.75-.55,0-1.01.4-1.01,1.04,0,.59.54.97,1.02.97.53,0,.7-.19.7-.43v-.15h-.02c-.15.14-.39.18-.59.18-.28,0-.57-.15-.61-.4h.39c.64,0,.91-.11.91-.47ZM2.82,30.15v-.06c.01-.22.24-.41.47-.41s.37.1.37.29c0,.14-.17.19-.63.19h-.21ZM5.3,30.09c-.33-.05-.39-.09-.39-.19,0-.12.09-.21.39-.21.23,0,.45.08.55.18h.02v-.18c0-.19-.18-.41-.62-.41-.49,0-.82.31-.82.67,0,.29.2.46.6.51.33.05.4.1.4.21,0,.14-.11.21-.35.21-.23,0-.47-.09-.58-.18h-.02v.22c0,.2.26.38.62.38.52,0,.8-.24.8-.65,0-.3-.21-.48-.62-.54ZM8.04,30.02c0-.46-.38-.75-.78-.75-.55,0-1.01.4-1.01,1.04,0,.59.54.97,1.02.97.53,0,.7-.19.7-.43v-.15h-.02c-.15.14-.39.18-.59.18-.28,0-.57-.15-.61-.4h.39c.64,0,.91-.11.91-.47ZM6.75,30.15v-.06c.01-.22.24-.41.47-.41s.37.1.37.29c0,.14-.1.19-.56.19h-.28ZM9.12,29.3c-.51,0-.71.37-.71.75v.89c0,.2.14.31.35.31h.13v-1.1c0-.29.12-.41.33-.41.13,0,.21.03.28.06h.02v-.17c0-.14-.11-.31-.4-.31ZM11.54,29.32h-.2c-.07.48-.31.99-.49,1.36-.2-.4-.38-.77-.44-1.13-.02-.1-.12-.23-.29-.23h-.26c.04.52.37,1.36.63,1.76.09.14.25.19.39.19h.16c.42-.58.72-1.59.72-1.72,0-.16-.06-.23-.23-.23ZM13.72,30.02c0-.46-.37-.75-.78-.75-.55,0-.94.4-.94,1.04,0,.59.47.97.95.97.53,0,.7-.19.7-.43v-.15h-.02c-.15.14-.39.18-.59.18-.28,0-.5-.15-.54-.4h.32c.64,0,.91-.11.91-.47ZM12.5,30.15v-.06c.01-.22.17-.41.4-.41s.37.1.37.29c0,.14-.1.19-.56.19h-.21ZM51.32,29.53c.12.49.43,1.28.65,1.61-.11.28-.17.34-.34.35l-.27.02v.09c0,.18.16.3.34.3.35,0,.54-.2.89-1.04.09-.21.43-1.09.43-1.29,0-.16-.07-.22-.23-.22h-.21c-.04.4-.22.98-.37,1.34-.17-.34-.32-.74-.38-1.11-.03-.14-.15-.22-.28-.22h-.26l.04.18ZM51.04,29.35h-.74v-.43h-.11c-.18,0-.36.26-.36.51v1.16c0,.45.23.71.72.71.28,0,.5-.12.5-.32v-.17h-.02c-.07.05-.26.07-.42.07-.19,0-.3-.1-.3-.34v-.76h.38c.2,0,.36-.13.36-.22v-.2Z"/>
</svg>