<?xml version="1.0" encoding="UTF-8"?>
<svg id="Layer_1" data-name="Layer 1" xmlns="http://www.w3.org/2000/svg" viewBox="0 0 90 45">
  <defs>
    <style>
      .cls-1 {
        fill: #fff;
      }
    </style>
  </defs>
  <g>
    <path class="cls-1" d="M66.82,21.76c.09.18-.16.38-.08.58,0,.13.12.15.23.16.24-.07.53-.12.64-.38.03-.11-.02-.2-.07-.29-.22-.28-.46.12-.72-.08Z"/>
    <path class="cls-1" d="M56.11,36.88c.12.04.22.13.24.24.13-.09,0,.11.08.13.11-.06.13-.17.14-.28-.08-.23-.38,0-.46-.09Z"/>
    <path class="cls-1" d="M80.83,28.21c.1,0-.02-.1.09-.07,0-.01,0-.03-.02-.05l.05-.02c-.03-.07.06-.16.03-.27-.15-.27-.13-.54-.11-.84-.05,0-.06-.07-.13-.05-.05.13-.15.24-.18.37-.11.21.14.3.2.45.02.15-.13.39.08.47Z"/>
    <path class="cls-1" d="M73.95,20.97l-.05.06c-.16-.01-.09.17-.12.27.04.04.09.08.1.12.17.02.35.14.49-.04.03-.1.11-.19.06-.31-.07-.25-.31-.07-.48-.1Z"/>
    <path class="cls-1" d="M69.08,15.03c-.23-.02-.38-.23-.55-.38v-.03c-.16-.32-.05-1.01-.66-.96-.04.03-.08.11-.14.1-.3.41.2.78.03,1.19-.08.12-.21.24-.37.27,0,.11-.18.15-.2.26-.03.12-.08.31.02.41.07.05.1-.04.15-.05.1,0,.21-.07.3,0,.1-.02.15.07.2.12.08.11-.01.22-.02.33-.13.21-.38.24-.59.35-.1.07-.2.17-.16.31,0,.11.11.11.18.08.34-.22.49-.55.83-.73.22,0,.36-.1.51.1.15.02.25-.06.38-.1.2-.13.37-.32.37-.56-.01-.26-.07-.54-.28-.7ZM68.58,15.25c0,.15-.2.11-.2.26.01.12.05.28-.05.37-.05.05-.09.13-.17.13-.1-.02-.24.02-.28-.1-.1-.34.19-.59.34-.87.09-.05.17-.16.29-.11.09.1.08.2.07.32Z"/>
    <path class="cls-1" d="M79.48,11.73c-.13.07-.06.27-.25.25-.07-.03-.14-.03-.17-.11-.08-.23.24-.35.33-.56-.02-.17-.23-.23-.35-.26l-.35.21c-.2.41-.46-.12-.51.14-.12.21.25.08.18.26.15.18,0,.44.07.63.09.01.16.1.26.1.12.22.38.08.57.12.24-.2.05-.61.44-.76,0-.05.09-.13,0-.16-.09.02-.16.06-.22.13Z"/>
    <path class="cls-1" d="M63.21,16.59c-.22.12-.2.36-.19.57.02.09.15.12.21.05,0-.21.22-.46-.01-.62Z"/>
    <path class="cls-1" d="M89.99,7.95c-.07-.23-.22-.45-.42-.62-.48-.47-1.21-.19-1.8-.18-.29-.04-.49.1-.71.22-.12.05-.23.09-.35.12-.01,0-.02,0-.04,0-.22.04-.44-.04-.63.07-.52.37-1.24.25-1.74.64-.31.24-.6.49-.97.59-.09-.01-.15.04-.23.05-.57.3-1.18.53-1.77.78-.37.04-.67.25-1.02.36-.2-.02-.39.07-.56.21,0,0,0,0,0,.01-.08.02-.11.08-.18.16-.24.12-.59.02-.88,0-.21.16-.51.09-.75.18-.52.29-1.14.22-1.76.29l-.02-.03c-.26,0-.45.01-.73-.02l-.49-.15c-.26-.04-.39-.33-.55-.5-.16-.09-.29-.21-.39-.33,0-.03.03-.05-.02-.03-.25-.32-.35-.72-.47-1.11-.26-.4-.47-.83-.57-1.31-.11-.96-.29-1.9-.94-2.64-.18-.15-.43-.13-.66-.17-.03-.01-.06-.02-.09-.02-.08-.03-.16-.05-.25-.03-.3.11-.55.34-.79.55-.24.21-.41.46-.53.74,0,0,0,0-.01.01,0,0,0,.01,0,.02-.09.21-.15.44-.2.66-.06.17.01.36-.01.53-.05.07-.08.14-.11.22-.15.22-.38.4-.49.64-.07.2.06.43-.05.58-.26.36-.36.77-.5,1.16-.34.47-.08,1.17-.63,1.55-.13.2-.13.47-.16.69-.06.07-.13.13-.2.19-.07,0-.13.03-.18.1-.02.03-.02.06-.02.08-.09.09-.18.17-.24.27-.06.05-.13.09-.19.12-.03,0-.06.02-.09.04-.07.03-.12.07-.16.11-.08.06-.16.12-.21.21-.36.04-.68.22-.9.53-.44.17-.93.19-1.38.35-.42.23-.94.31-1.44.19-.39.07-.79.11-1.19.13-.3-.05-.61-.03-.92-.01-.43,0-.95.1-1.39.04-.35-.08-.78-.04-1.16.01-.76.27-1.67.32-2.47.41-.3.03-.57-.02-.8.16-.21.21-.46.37-.6.64-.02.12-.02.28.05.39.11.32.46.41.72.55.29.51.91.41,1.28.81.68.25,1.39.42,2.1.59.63-.04,1.07.48,1.7.39l.38.29c.19.31.55.48.85.66.56.2,1.14.3,1.69.52.13,0,.26.03.38.08.4-.03.73.18,1,.44.14.14.35.21.44.38.05.42-.33.69-.36,1.09-.53.52-.64,1.22-.88,1.86-.12.57-.65.98-.66,1.59-.04.27-.26.47-.38.71-.29.6-.77,1.13-1.19,1.66-.18.61-.81.96-1.13,1.49-.03.06-.05.12-.08.18-.04.06-.07.12-.09.19-.14.27-.3.53-.54.77-.43.67-1.22,1.22-1.49,1.97-.14.28-.41.48-.59.72-.23.54-.43,1.08-.84,1.54-.19.25-.16.6-.32.87-.17.24-.26.52-.37.78-.14.17-.18.38-.27.57-.13.19-.34.36-.4.58-.06.34-.3.62-.31.96-.29.65-.26,1.5.21,2.06.18.09.36.17.55.22.37.41.7-.17,1.14.05.18-.02.28-.29.5-.2.4-.12.74-.37,1.06-.66.43-.22.72-.63.92-1.02-.02-.37.44-.38.59-.67.51-.25.81-.75,1.15-1.16.19-.28.47-.49.54-.83.29-.27.67-.52.75-.91-.09-.3.21-.4.39-.54.44-.73,1.11-1.3,1.7-1.98.13-.11.14-.28.13-.42l.26-.22c.56-.68,1.32-1.24,1.67-2.04.18-.11.39-.14.52-.31.28-.31.56-.6.73-.93.13-.57.75-.87,1.07-1.35.62-.41,1.02-1.02,1.34-1.62.09-.19.15-.39.34-.53.22-.07.42-.21.62-.33.02,0,.04,0,.05.02.04-.02.06-.06.09-.1.01,0,.02-.01.03-.02.19-.02.35-.08.52-.12.41.02.56-.62,1-.39.09-.05.17-.11.28-.13.06.17.27.09.37.13.13.29.49.29.77.34.12.09.23.17.37.22.32.28.74.29,1.03.64,0,.03.02.06.06.08,0,0,.01,0,.02,0,.11.04.22.07.31.11.36.36.84.62,1.09,1.06.16.05.31.12.42.24.36.55.96.8,1.39,1.3.19.44.62.86,1.01,1.2.43.41.64.92,1.06,1.32.59.4.84.98,1.31,1.48.18.26.48.4.63.66.23.16.3.41.48.59.33.09.49.43.78.6.36.24.76.42,1.22.42.32-.15.68-.21,1.06-.21.47-.05.81-.5,1-.87.11-.22.03-.5.26-.66.11-.25.11-.57,0-.82.04-.5-.43-.8-.43-1.29.04-.58-.13-1.1-.56-1.51-.08-.31-.28-.61-.54-.86-.34-.35-.31-.9-.75-1.16-.05-.21-.17-.42-.38-.54-.09-.34-.31-.63-.51-.94-.08-.34-.44-.56-.64-.83-.53-.51-.75-1.16-1.27-1.67-.16-.11-.36-.17-.5-.33-.18-.32-.4-.65-.63-.96-.28-.16-.37-.46-.45-.73-.3-.29-.33-.68-.56-.99-.16-.43-.75-.32-.81-.8-.11-.21-.34-.21-.51-.35-.01-.03.02-.04.03-.08l-.07-.56c.05-.11.02-.2-.01-.31.11-.15.34-.28.27-.49-.09-.31.33-.35.45-.57.13-.38.55-.36.78-.68.2-.3.46-.55.78-.71.26-.38.73-.41,1.01-.81h.02c.45-.55,1.1-.65,1.65-.97.2-.2.32-.42.54-.6.37-.15.72-.38,1.02-.68.65-.43,1.4-.63,2.01-1.17.23-.3.63-.4.88-.68.13-.6.89-.61,1.17-1.15.11-.49.62-.85.52-1.4ZM70.65,7.97c-.07,0-.14,0-.17-.06-.02-.09.03-.18.11-.25h.15c0,.11.05.28-.09.31ZM69.84,5.85c.21-.09.32-.31.37-.51.1-.15.26-.41.48-.37.08.18-.05.4-.17.56v.05s-.02.02-.03.03h.01c-.05.07-.11.15-.15.23,0,.24.37.3.22.59-.02.14-.21.21-.27.35.03.26-.09.5-.13.76-.09.15-.33.07-.36-.09-.12-.25.19-.44,0-.65-.12-.21-.1-.47,0-.68-.04-.09-.04-.19.03-.28ZM56.96,16.64c-.1-.09-.19-.22-.29-.31,0-.04-.06-.09-.02-.13.13-.08.26-.19.44-.13.15.07.05.28.11.4-.06.07-.13.2-.23.16ZM58.72,31.51c.08.02.14-.1.21-.01.01.14.19.31.04.45-.09-.04-.2-.06-.28-.15-.03-.09-.01-.2.03-.29ZM56.34,39.22c-.36-.02-.74-.19-.9-.52-.09-.2-.16-.46.01-.64.09,0,.17-.05.26-.01.17.09-.03.36.21.4.27.11.73.13.72.54-.02.14-.18.2-.3.23ZM58.61,35.03c-.13.02-.27.08-.32.16-.16.08-.16.3-.34.39-.15.04-.21.2-.24.31,0,.24.07.5-.18.62-.1.03-.24.03-.27.16-.14.33.09.77-.31.98-.38.08-.7.83-1.08.28-.13-.21-.28-.54-.11-.8.07-.15.24-.12.33-.23-.12-.09-.23-.19-.27-.33,0-.15.01-.29.12-.39.15-.13.37-.15.55-.09.42-.17.2-.7.58-.91.18-.08.33-.21.39-.41-.1-.29-.44-.58-.19-.9.09-.08.25-.07.33-.19.1-.03.23,0,.29.09.05.13-.12.25.03.35.02.03.08.02.12.02.1-.06.12-.17.09-.24-.11-.16-.17-.36-.14-.57l.23-.29c0-.16-.03-.35.15-.43.12,0,.27,0,.35.13,0,.17-.06.31-.14.45-.11.15-.05.32.02.47h0s.01.03.01.03c.05.3.38.45.39.8.04.25-.21.4-.38.56ZM59.05,33.43c-.05.07-.1.12-.18.17-.05.02-.16-.01-.2-.08-.06-.1.01-.2.06-.28.07-.08.17-.21.27-.11.08.07.1.21.05.3ZM62.01,31.84c-.23.28-.64.17-.89.39-.11.06-.23.09-.37.07-.23-.11-.5-.61-.79-.23-.19.07-.48.09-.64-.07-.21-.15-.24-.36-.28-.57,0-.32.27-.54.55-.68.11-.24.04-.66.4-.72.03-.01.09.02.1-.03.13,0,.27,0,.33.1.16,0,.27.13.42.02.09-.04.14-.12.23-.15.1,0,.21.07.25.17,0,.05.08.1,0,.15-.02.27.01.57.19.78,0,.14.17.13.26.19.11.07.27.13.31.28.04.11.01.22-.08.3ZM62.13,30.19c-.15.02-.18-.2-.33-.22-.09,0-.18-.08-.22-.16,0-.1.1-.16.18-.22.16.02.38-.07.48.12.03.18.09.35-.11.47ZM62.55,30.39c-.07.09-.13-.03-.19-.04-.02-.06-.04-.13-.04-.2.07-.08.13.02.18.03.05.06.08.14.05.21ZM64.54,26.37s-.07,0-.08-.03c0-.13-.06-.31.05-.39.1-.01.19-.06.26.05-.02.15-.07.31-.23.37ZM65.29,25.57c-.12.17-.31.22-.49.21-.08-.03-.17-.05-.28-.05-.19.21-.14.53-.45.66-.23.11-.37-.14-.58-.05-.13.03-.22.17-.37.12-.07.04,0,.1,0,.14-.06.32-.3.64-.61.8-.08.1-.21.2-.16.33.15.15.23-.13.35-.17.09-.01.18-.03.26.01.19.22-.1.38-.15.56.02.23.02.48-.13.67,0,.16.05.32.19.41.3.05.18.42.46.47.04.09.15.02.22.02.12-.03.26-.12.38-.03.19.16.03.47.14.66,0,.1-.01.18-.1.22-.1.19-.35.04-.49.14-.1.05-.26.11-.4.06l-.11-.13c-.06-.25-.25-.51-.51-.61-.13-.14-.14-.37-.35-.47-.3-.1-.66-.14-.94.05-.12.05-.28,0-.38-.06-.09-.13-.08-.31,0-.44.06-.11.18-.16.29-.17.21,0,.45.23.63,0,.16-.22-.11-.4-.15-.61-.08-.18,0-.36.11-.5.12-.11.35-.14.38-.35-.02-.17-.05-.35.06-.49.27-.18.38-.51.65-.67.06.03.15,0,.21-.03.05-.3.33-.46.57-.61.15-.21.29-.44.46-.65.22-.06.34-.3.37-.51-.02-.1-.02-.16,0-.26.12-.11.22-.27.4-.2.3-.03.28.29.37.47.03.15-.09.29.02.44.12.17.15.41.1.61ZM69.43,25.67c-.1.07-.16.19-.29.17-.09-.06-.21-.06-.33-.06-.1.11-.22.23-.36.17-.02-.06,0-.11-.07-.17-.01-.19.29-.31.15-.51-.02-.11.03-.2.12-.24.16-.03.26.13.42.09.23.14.42-.33.58.02.02.21-.18.34-.23.52ZM83.61,33.32c-.03-.16.03-.26.16-.32.06-.04.12.02.15.06.03.09,0,.2-.05.27-.09.03-.18.06-.26-.01ZM84.97,31.52c.11-.13.21-.37.4-.33.17.09.21.28.23.45,0,.17-.14.33-.04.49,0,.09-.01.18-.07.27-.09.1-.26.16-.36.06-.05-.3-.43-.61-.15-.93ZM83.14,28.64c.15-.08.25.04.27.17,0,.07.01.17-.07.19-.12,0-.19-.11-.22-.21.01-.05-.03-.12.03-.15ZM82.26,26.35c0,.09-.02.19-.13.24-.1.02-.16-.08-.19-.14,0-.09.06-.14.11-.21.09-.04.2,0,.22.11ZM79.85,25.05c-.02-.17.16-.25.13-.42.07-.2.34-.05.39-.28.03-.17-.11-.4.04-.55.13-.09.29-.18.43-.13.08.1.18.19.14.34-.18.17.09.31,0,.5.07.02.13-.05.2-.06.05-.09.07-.25.21-.27.23.09.36.31.6.34.06.07.1.18.06.26-.06.1-.14.16-.21.27-.2.1.02.18-.08.33.02.11-.11.14-.17.18-.11.04-.17-.05-.19-.13.03-.09.04-.21.11-.28-.23-.05-.21.4-.51.22-.17-.05-.14-.24-.17-.39.04-.12.04-.25.12-.35-.09.02-.29.02-.31.18.04.05.01.14.09.2,0,.16-.08.33.06.46,0,.16.28.13.25.32.09.21.08.07.35.16.13,0,.22.3.3.4.04.14.14.36-.03.48,0,.11.06.19.14.27.13-.03.28-.06.4.03.08.14.06.36-.04.49,0,0-.01.23.1.27.03.03.08,0,.11-.02.12-.12.05-.26.14-.39.04-.1,0-.1.25-.1.09.04.09.15.1.23,0,.17-.26.28-.11.47.24.18.36.45.28.74.05.07.06.18.16.22.1,0,.2.04.23.12.11.09-.02.28.13.35.07-.03.17-.07.25-.02.21.26-.25.67.17.87.18.07.36.08.52.21.28.46-.04,1.08.11,1.62.09.21.15.57.47.58.35,0,.36-.18.7-.13l.15.19c.01.06,0,.17-.04.24-.09.12-.18.14-.3.21.07.16.44.15.26.38-.11.17-.34.2-.51.15-.16.12-.34.28-.55.19-.11,0-.16-.09-.22-.18,0-.07-.05-.13-.12-.14-.16-.06-.47.09-.5-.17,0-.04.01-.11.04-.15.08-.04.16-.1.21-.18,0-.07,0-.17-.07-.23-.15-.17-.45-.08-.53-.34,0-.08-.05-.17-.12-.22-.18-.22-.47-.4-.63-.64-.03-.19.25-.33.1-.52.03-.42-.61-.41-.49-.86-.03-.04.05-.11-.01-.16-.01-.04-.08-.05-.12-.07-.18.09.04.27-.08.4-.06.05-.17.08-.25.03-.11-.12-.19-.28-.13-.47,0-.04.07-.1,0-.14-.11.03-.28.1-.37-.01-.22-.2-.05-.58-.38-.7-.14-.14-.39-.07-.48-.31-.12-.2.08-.49-.12-.65-.16,0-.25.24-.45.13-.13-.12-.01-.27.01-.4.05-.1.2-.14.18-.26-.04-.05-.11-.04-.13-.09-.22.16-.12.52-.45.52-.15-.01-.25-.08-.34-.19-.02-.05-.03-.12-.09-.14-.27-.06-.62.08-.81-.17-.18-.26.12-.69-.25-.83-.23-.09-.48.21-.62-.08-.09-.33.17-.83-.32-.96-.18-.11-.45-.24-.49-.48-.19-.27-.29.22-.51.12-.09-.07-.09-.17-.13-.25-.06-.24.49-.26.18-.48-.26-.07-.38.18-.63.12-.26-.12-.18-.53-.54-.48l-.1-.08s-.03,0-.04,0c-.11-.15-.07-.38-.27-.51-.36-.02-.78.11-.93-.27-.06-.08-.14-.08-.23-.12-.07.02-.14.1-.18.16-.14-.01-.32.09-.43-.04-.09-.04-.15-.22-.28-.13-.05.05-.14,0-.19.04-.16.15-.35.5-.63.4-.16.12-.29.37-.5.42-.4-.15-.59.26-.94.27-.27.06-.48-.13-.68-.24-.39-.01-.63.31-.86.56-.17.15-.49.06-.57.34-.08.2-.07.44-.3.56-.22.08-.36-.16-.57-.07-.16.16-.3.44-.59.36-.11-.07-.1-.21-.08-.32.05-.4.67-.88.13-1.21-.16.02-.29-.04-.37-.17-.14-.27.35-.52,0-.74-.12-.01-.22.06-.26.14-.03.17-.1.38-.26.48-.2.08-.33-.07-.48-.15-.21-.09-.55-.04-.63-.32,0-.39.09-.83.5-1.02.23-.11.66-.16.62-.47-.1-.09-.21.04-.34.04-.42-.15-.11-.64-.32-.92-.55-.32.02-.91-.43-1.27-.1-.14-.06-.33-.15-.47-.23-.16-.51-.34-.6-.61-.09-.1-.23-.06-.34-.03-.27.23-.68.21-1,.1-.13-.07-.31-.1-.38-.26-.03-.21-.17-.38-.32-.54-.1,0-.08-.09-.13-.13-.06-.22.15-.37.26-.54-.01-.05-.03-.08-.08-.11-.15.06-.25.25-.25.39-.08.14-.26.17-.43.22-.11-.01-.22-.03-.3-.09-.07-.12-.14-.29-.28-.35-.29-.05-.7-.11-1,.04-.39.18-.63-.18-1-.15-.26-.26-.46-.65-.91-.56-.27-.07-.45-.3-.64-.5.05-.21-.02-.42-.08-.61,0-.09.04-.16.1-.22.09-.07.21,0,.32,0,.21.07.04.5.39.33.14-.07.3-.11.47-.07.25.11.45.31.63.53.27-.01.57-.32.79-.05.08.06.15.16.24.06.17-.08.35-.3.55-.18.07.06.13.15.05.22-.05.11-.25.13-.25.28.05.05.11.11.16.05.15-.08.27-.2.45-.22.16-.16.32-.35.32-.6.05-.18.25-.26.4-.31.25-.05.38.15.54.31.23-.05.23-.39.49-.41.11.05.28,0,.34.12.03.07.03.16.02.22-.06.07-.09.13-.16.18l.03.02s.04-.01.06-.01c.03.03.04.08.08.1.02-.03.07-.03.09,0,0,.03.03.04.05.06.31-.05.36-.41.55-.62.32-.26.71-.04,1.1-.07.06-.04.13-.08.16-.14-.1-.14-.3-.3-.17-.48.16-.18.51-.13.56-.43.15-.11.29-.26.47-.32.13-.21.22-.43.39-.63-.07-.33.15-.57.29-.83.2-.17.5.04.69-.15.36-.26.16-.75.49-1.02.1-.13.29-.19.33-.37-.12-.32-.06-.66.18-.91-.17-.43.08-.82.3-1.15.24-.55.28-1.19.75-1.64.08.02.13.08.16.15.05.27-.4.44-.13.72.08.3-.35.42-.3.69-.05.18.06.4-.07.59-.06.27-.34.56-.11.83.12.05.17-.06.21-.13-.03-.28-.08-.61.11-.84.11-.21.57-.24.33-.56-.05-.1-.15-.2-.08-.32.11-.24.47-.02.52-.32.09-.15.11-.33.28-.41.08.02.15.06.18.15-.1.26-.04.58.17.78,0,.04.08.06.04.1.07.15.02.25-.05.39-.08.1-.16.2-.1.34.01.14.06.31.22.37.09.01.07.09.15.15.13-.01.08-.2.22-.18.11-.03.2.04.26.13.01.09-.01.16-.05.23-.06.06-.17.12-.27.12-.08.11-.22.12-.27.23-.03.13-.03.28-.18.34.02.05-.05.05-.07.07-.15.05-.16-.17-.3-.1h-.01c-.19.09.05.26-.04.41,0,.1-.15.16-.15.28.12.11.28.15.36.27.21.31-.39.64.07.81.09.13.02.34,0,.51.12.05.1.18.11.26-.02.07-.03.14-.09.2-.07-.02-.14-.03-.18-.1-.03-.08.22-.16.02-.21-.05.12-.12.25-.04.38l.1.1c.13-.08.25-.17.39-.13.09.02.13.18.23.12.17-.23.39-.56.74-.53.11-.05.28-.02.4.02.12.07.14.21.2.31-.12.27-.09.59.09.82.07.31-.22.5-.27.78-.07.09-.18.12-.29.12-.18,0-.38-.11-.46-.27,0-.07,0-.11-.02-.18.02,0,.03-.02.04-.03.05-.16-.06-.26-.05-.4-.15-.08-.2-.33-.4-.29-.1.16-.25.29-.26.48-.11.03-.14.25-.31.15-.07-.11-.19-.04-.29-.06-.13.09-.14.26-.1.41.08.17.16.36.18.58.02.21-.27.26-.3.44-.17.27-.45.45-.71.57-.14.1-.05.24-.02.36.31.3-.04.78.31,1.08.22.22.48-.02.67-.02.17-.04.43-.08.54.07.14.09.08.25.05.37-.12.27-.47.25-.45.57v.36c.23.31.15.7,0,1.01.01.11-.04.25.08.33.04.02.08.05.13.03.04-.04.12-.1.09-.15.09-.05.02-.15,0-.21-.08-.07-.01-.18,0-.25.03-.08.11-.16.19-.17.1-.03.19.04.23.12.11.3-.37.64-.01.89.01.03.05.02.07.02.16-.14,0-.37.15-.51.05-.14.2-.24.34-.29.14,0,.29.05.36-.11.03-.18.23-.22.38-.27.15.09.23.23.29.38.3.13.57-.28.84-.01.11,0,.13.15.24.17.36.06.46-.4.8-.44.21-.12.41.2.55-.08.1.01.17-.08.27-.02.1.05.17.14.16.25,0,.36-.73.39-.46.82-.04.11.14.09.13.2.21.15.05.41,0,.6-.11.04-.12.18-.09.28.02.08.08.14.14.19.24.04.39-.21.62-.08.14.08.11.25.09.36-.14.28-.79.42-.42.8.22.07.29-.22.44-.31.06-.05.13-.1.23-.08.33.14.55.05.6.33.11.2.08.46.31.59.66.38.94.48,1.47,1.09l.54.07c.07.28.23.5.21.82.11.2.3.12.46.12.37-.1.1-.03.17-.36-.16-.14-.27-.32-.26-.54.11-.02.02-.14.07-.19ZM70.65,19.48c-.01-.07.02-.11.07-.14.12.22.4.3.4.57-.03.12-.17.12-.25.21-.13,0-.18-.16-.26-.21.03-.14-.07-.31.03-.43ZM73.51,15.05c-.04.07-.1.13-.19.15-.09.07-.17.19-.3.13-.03.08-.16.1-.23.05.05-.16.05-.36.26-.43.15.05.29-.09.43,0l-.04.06s.05.03.08.05ZM73.85,20.01s-.12-.1-.01-.15c.1.04.24.08.24.2,0,.12-.06.22-.15.29-.06,0-.17.02-.17-.07.02-.1.15-.15.1-.27ZM75.65,18.04c-.04.05-.1.13-.19.14-.09.08-.17.2-.3.13-.03.08-.16.09-.23.04.05-.16.05-.36.26-.43.15.04.28-.09.43,0l-.05.05s.05.04.08.06ZM74.9,19.6c-.11.16-.19.34-.38.41-.08.02-.08-.09-.17-.07,0-.2.08-.35,0-.54.05-.18.25-.27.35-.43-.08-.15.05-.3.16-.4.14-.04.25.05.3.17.04.08-.04.17-.01.24-.1.09-.32.2-.28.35.13.07.06.18.03.27ZM75.17,19.09c.1.04.14.15.08.23-.09.1-.23,0-.25-.07.07-.05.07-.15.17-.15ZM75.25,13.61c-.1.18-.38.27-.46.03-.13-.22.12-.35.22-.48.08-.08.12.07.19.08.07.11.08.25.05.37ZM74.92,16.82l-.05.06s.06.03.08.05c-.05.07-.1.14-.19.16-.09.06-.17.19-.3.12-.03.08-.15.09-.22.04.05-.16.05-.36.26-.43.14.05.28-.09.43,0ZM78.79,17.16c-.04.06-.1.13-.19.14-.09.08-.17.19-.3.13-.04.08-.16.09-.23.05.05-.15.05-.36.25-.44.15.05.29-.09.43,0l-.04.05s.05.03.08.07ZM78.11,22.1c.1-.02.23.02.32.08.08.07.11.19.09.29-.03.03-.05.08-.02.12.08.06.23.09.24.21.06.18-.14.34.06.49.03.13.13.26.09.41-.16.11-.25.36-.51.24-.26-.05-.53-.34-.79-.12-.09.03-.18,0-.26-.04-.16-.24.15-.39.16-.62-.04-.03-.06-.09-.11-.09-.14.08-.23.27-.41.25-.11-.03-.15-.12-.2-.21,0-.29.16-.57-.17-.75,0-.07-.05-.17-.02-.22,0-.04.02-.08.05-.11.25-.14.39.13.63.09.23-.05.31-.38.59-.26.15.02.11.2.24.23ZM79.11,24.11c.08,0,.1.13.2.1.09-.06.19-.18.32-.11.04.08.1.18.05.29-.06.07-.08.27-.22.22-.13.02-.25-.08-.3-.18.03-.08-.05-.11-.09-.17-.13.01-.05.39-.31.25-.12-.09-.2-.24-.33-.32.02-.15.21-.09.29-.2.19-.07.22.31.39.13ZM87.73,9.83c-.08.11.09.32-.08.35-.07.13-.22.18-.36.21l-.08-.03c-.17,0-.41,0-.49.16.01.03-.03.04-.02.07.13,0,.17-.15.32-.17.05.02.13.05.16.11.03.18-.2.22-.32.28-.23.12-.25-.21-.47-.1-.07-.06-.1-.15-.2-.17-.07-.01-.14.02-.15.08.01.16.06.31-.05.45-.19.12-.4.18-.61.25-.1,0-.21,0-.27-.08-.04-.06-.03-.16-.01-.22.03-.04.13-.07.1-.13-.05-.03-.1.03-.15.05-.05.24-.38.25-.48.46h.01c-.1.05-.07.17-.09.26.06.12,0,.24-.06.36-.08.06-.17.1-.27.11-.11-.04-.21-.02-.32-.08-.04-.06.02-.24-.13-.19-.08.04-.17.07-.27.04-.12-.07-.19-.23-.33-.27-.15-.01-.26.15-.39.08-.19.05-.21.36-.45.32-.07-.06-.16,0-.22-.01-.05.06-.13.09-.21.1-.04-.07-.04-.14-.06-.22.1-.06.25-.1.28-.21.17-.02.16.15.31.13.05-.02.03-.08.02-.11-.13-.02-.16-.21-.32-.14-.2.15-.46.36-.43.61-.1.25-.42.15-.61.28.02.14.2.24.15.38-.22.32-.72-.01-.98.24-.32.11-.12.62-.6.47-.08.06-.19.13-.22.22.11-.03.17.07.25.11.02.04-.02.1-.05.15-.05.05-.13.07-.21.04-.09-.09.11-.15,0-.23-.05.08-.19.16-.15.26-.03.06-.06.14-.03.21.06.13.13-.03.22.03.12.02.31-.05.35.11.02.09,0,.15.01.23-.04.12-.19.08-.27.18-.08-.05-.12.05-.18.08.06.2-.16.3-.26.44-.1,0-.17-.05-.26-.09-.06-.08-.01-.19,0-.28.05-.07.13-.08.18-.15-.05-.11.14-.25-.08-.27-.03-.06-.07-.13-.12-.18-.15.06-.38.03-.39.23-.1.03-.11.17-.23.1-.1-.05-.11-.18-.08-.27.17-.11-.1-.23.08-.34.08.01.14,0,.19-.06,0-.04-.01-.09.02-.12-.13-.09-.27-.19-.21-.35,0-.19.39-.18.29-.41-.07-.09-.3-.14-.23-.28.03-.04,0-.1-.04-.13-.06.03-.18-.02-.22.05.06.11.08.25-.02.35-.06.05-.16.05-.24.08-.21-.01-.32-.2-.42-.34-.08-.19.25-.55-.16-.62-.21-.05-.36.04-.49.19-.01.21-.18.34-.34.49-.1.03-.26.04-.32-.06-.05-.08-.13-.16-.18-.25-.39-.03-.73.14-.94.44-.06.08-.05.19-.08.29-.14.19-.28.38-.33.61.11.14.1.29,0,.45-.05.08-.11.19-.23.2-.12.02-.18-.08-.29-.06-.11-.04-.33-.09-.46-.01-.13-.04-.27.08-.34-.05-.1-.21.31-.24.17-.39.02-.12-.17-.15-.23-.26-.21-.22-.28-.53-.6-.65-.15-.12-.32-.2-.5-.25-.3.04-.54.21-.79.37-.09,0-.19-.05-.22-.13-.01-.13.14-.19.12-.33.09-.1.22-.2.31-.32.08-.11.22-.08.3-.14-.02-.13-.09-.23,0-.35.07-.08.2-.08.29-.05.17.03.08.27.29.24.04.16.25.14.37.24.14,0,.19-.15.29-.23.05-.21.37-.16.45-.36.05-.09.16-.17.28-.17.15.08.13.25.15.36-.02.17-.09.32-.06.52.04.09.15.02.21.06.07-.05.17-.11.25-.09.14.08.03.33.27.3.32-.32.59-.72,1.08-.8.08-.03.12-.08.16-.14-.01-.08-.08-.13-.14-.19-.16.04-.36.03-.41.18,0,.03,0,.08-.05.08-.05.13-.18.17-.3.23-.1,0-.17-.02-.23-.07,0-.03,0-.05-.03-.07h-.09c-.04-.11-.15-.12-.16-.23-.15-.06,0-.19-.12-.28,0-.12.06-.3-.07-.38-.17-.04-.35-.14-.43-.28-.04-.13.04-.23.16-.29.11.02.25.04.29.15.09.11-.06.25.09.33.14,0,.39-.13.47.08.1.1,0,.24-.03.34-.01.05.03.08.06.13.16.02.1-.16.18-.23.08-.16.26-.01.36-.08.24-.16.54-.25.83-.13.44.07.87-.03,1.29-.06.14.05.27-.04.4-.07.2-.1.42-.19.63-.17.27-.11.56.04.86.04.37.13.72-.11,1.1-.12.05.04.1.04.17.06.17-.15.4-.19.6-.29.17-.04.3.31.47.06.17,0,.19-.19.36-.22.09-.11.2-.24.33-.31.14,0,.29-.03.38.08.09-.12.29-.13.34-.27.13-.19.32-.38.55-.52.25-.2.66.09.8-.27,0-.13.1-.21.22-.25.5-.1,1.03-.13,1.41-.49.18-.06.41-.02.57-.1.22-.03.26-.03.37.01.16.08.14.23.14.36-.09.11-.23.25-.15.38.05.02.13,0,.16-.06.03-.06.05-.13.14-.14.08.02.12-.05.18-.08.3.02.31.29.44.47.06.21-.02.42-.19.58ZM87.88,7.72c-.09.07-.17.2-.3.12-.03.09-.16.1-.23.04.05-.15.05-.36.25-.43.15.05.29-.09.43,0v.03s-.02.02-.04.02c.03,0,.06.04.08.06-.04.06-.1.13-.19.15Z"/>
    <path class="cls-1" d="M85.94,8.77c-.19.19-.38.47-.67.5v.05s-.01.05-.03.04c-.24-.16-.31.11-.49.21-.09.03-.24.03-.24.13-.04.12.11.05.16.07.22-.17.53-.15.79-.19.2,0,.34-.1.51-.14.05-.14.2-.05.27-.18.18-.03.28-.24.37-.37.05-.18-.02-.38-.16-.49-.26-.02-.35.2-.52.36Z"/>
    <path class="cls-1" d="M64.34,17.63c-.1-.05-.13-.16-.26-.16-.3-.03-.32.31-.45.47-.16.07-.15.24-.3.31l-.03.25c.04.11.17.09.26.14.2-.24.53-.24.79-.29.18-.07.47-.1.48-.35-.03-.25-.32-.28-.49-.38Z"/>
  </g>
  <path class="cls-1" d="M35.92,23.44s.64-.03.66-.73c0,0,0-1.59-1.48-1.59,0,0-1.46-.07-2.42,1.71-.84,0-1.78,0-1.91-.03,0,0-.09-.84-.73-.75,0,0-1.03.32-.29,1.25,0,0,.08.1.29.18,0,0,.62,1.06-.36,1.59,0,0-1.01.63-.98-1.61,0,0,.05-5.92-.13-7.29,0,0-.07-.75-.89-1.17,0,0-.34-.21-.37.23l-.04,9.25s-.05.76.57,1.13c0,0,1.57,1.34,2.95-.4,0,0,.49-.79.12-1.75h1.54c-.04.14-.06.3-.09.48,0,0-.25,2.16,1.89,2.08,0,0,1.41,0,2.07-1.54,0,0,.13-.58-.41-.09,0,0-.81,1.3-1.84.59,0,0-.54-.51-.39-1.53h2.23M34.12,22.22s.6-.82,1.1-.63c0,0,.68.29.31,1.04,0,0,.03.29-1.48.2,0,0-.08,0-.22,0,.08-.19.17-.4.28-.61Z"/>
  <path class="cls-1" d="M43.07,14.91c-.27-.02-1.13,0-1.15,1.1l.03,6.34c-.22.63-1.04,2.33-2.27,2.73,0,0-1.54.5-1.29-1.38,0,0,.05-1.04.91-1.95,0,0,.68-.6.7.32v.29s-.37.14-.21.5c0,0,.29.76.7.48,0,0,.13-.13.16-.31.09-.4.19-1.21-.34-1.69,0,0-1.33-1.06-2.86.93,0,0-1.48,2.51.64,3.42,0,0,2.12.81,3.86-1.87v1.83s-.09.16.37.11c0,0,.7.03.79-.43v-1.3c.05.11.2.2.44.26,0,0,.64.24,1.37-.1.59.35.49,1.24.49,1.24.06.58,0,7.98.02,9.05.02,1.07,1,1.49,1,1.49.39.23.36-.22.36-.22l-.14-9.57c-.01-1.56-.79-2.09-1.28-2.28.12-.09.29-.21.4-.34,0,0,1.51-1.54-.49-2.54,0,0-1-.41-2.18.65v-6.66c.02-.11-.06-.1-.06-.1M43.97,23.47s-.41,0-.66.13c-.08.05-.14.12-.18.18v-1.21c.43-.39.87-.67,1.22-.67,0,0,.8-.04.82.78,0,0,0,.92-1.2.79Z"/>
  <path class="cls-1" d="M25.93,24.71c-.08-.54,0-8.44,0-8.44,0,0,0-.66-.49-1.06,0,0-.42-.46-.63-.03,0,0,0,3.51.01,6.51h-.01s-1.8-1.25-3.46.6c0,0-.89,1.03-.65,2.12-.2.21-.58.59-.72.21,0,0-.18-1.08-.82-1.12,0,0-.29-.14-.88.64,0,0-.27.34-.3-.24,0,0,.03-1.18-.88-1.09,0,0-.48-.06-1.48,1.45,0,0-.55.58-.64-.15,0,0,.04-2.3-1-1.39,0,0-.86.93-1.49,1.66,0,0-.42.36-.48-.31,0,0,0-2.65-.79-2.65,0,0-.73-.24-1.33,2.42,0,0-.11,1.6-1.3,1.37,0,0-2.14-.38-4.35-.5.08-.14.16-.3.23-.48,0,0,.63-1.45.6-3.48,0,0-.06-10.28-.43-11.34,0,0-.17-.63-.63-.39,0,0-.76-.06-.64,4.57,0,0,.09,7.17.19,8.76,0,0,.17,1.56-.27,2.32-1.06-.01-2.04-.03-2.8.28,0,0-1.07.59-.03,1.03,0,0,1.74.42,2.99-.42.76.21,2.32.39,5.44.57,1.11.07,1.33-.93,1.33-.93.5-1.26.61-.25.61-.25-.03,1.25.42,1.34.42,1.34.52.39,1.76-1.15,1.76-1.15.74-1.12.74-.48.74-.48-.06,1.12.6,1.36.6,1.36.82.3,1.69-1.18,1.69-1.18.67-1.15.76-.63.76-.63-.03.72.03,1.44.03,1.44.24,1.12,1.52-.35,1.52-.35.36-.58.42-.34.42-.34.21.88.82.88.82.88.53.02,1.04-.61,1.28-.95.08.13.16.25.27.38,0,0,1.09,1.3,2.58.39,0,0,.56-.41,1.13-1.23.01.43.01.8.02,1.06,0,0,.15.83.89.24,0,0,.17-.07.22-.51,0,0,0-.14-.04-.49M23.98,24.26c-1.52,1.3-1.94-.05-1.94-.05-.21-1.9,1.87-2.12,1.87-2.12.37-.05.68.11.9.28.01.25.01.5.01.75-.49.94-.85,1.14-.85,1.14Z"/>
  <path class="cls-1" d="M15.67,29.4s6.43-.27,18.47,0c0,0,.82,0,1.18.51,0,0-4.4.18-18.62.79,0,0-2.82-.06-1.85-.99,0,0,.27-.24.81-.31"/>
</svg>