<?xml version="1.0" encoding="UTF-8"?>
<svg id="Layer_1" data-name="Layer 1" xmlns="http://www.w3.org/2000/svg" viewBox="0 0 90 45">
  <defs>
    <style>
      .cls-1 {
        fill: #fff;
        fill-rule: evenodd;
      }
    </style>
  </defs>
  <path class="cls-1" d="M.28,29.11v-2.71c1.54.49,2.9.73,4.09.73,1.64,0,2.46-.43,2.46-1.3,0-.32-.12-.59-.36-.81-.24-.23-.87-.56-1.88-.97-1.8-.74-2.98-1.37-3.53-1.9-.71-.69-1.06-1.56-1.06-2.61,0-1.36.52-2.39,1.55-3.1,1.02-.7,2.35-1.05,3.99-1.05.9,0,2.21.17,3.92.5v2.6c-1.27-.51-2.45-.76-3.55-.76-1.54,0-2.31.42-2.31,1.27,0,.32.15.57.46.77.26.16.97.5,2.13,1.03,1.67.74,2.79,1.39,3.34,1.94.66.65.99,1.49.99,2.53,0,1.48-.65,2.62-1.94,3.4-1.05.63-2.4.95-4.07.95-1.41,0-2.82-.17-4.25-.5H.28Z"/>
  <polygon class="cls-1" points="12.7 15.63 12.7 15.63 16.52 15.63 16.52 29.33 12.7 29.33 12.7 15.63"/>
  <polygon class="cls-1" points="20.04 29.33 20.04 15.63 29.85 15.63 29.85 18.11 23.73 18.11 23.73 21.2 29.06 21.2 29.06 23.46 23.73 23.46 23.73 26.72 30.01 26.72 30.01 29.33 20.04 29.33 20.04 29.33"/>
  <polygon class="cls-1" points="32.51 29.33 32.51 15.63 37.48 15.63 40.92 24.38 44.46 15.63 49.17 15.63 49.17 29.33 45.55 29.33 45.55 19.63 41.53 29.47 39.15 29.47 35.21 19.63 35.21 29.33 32.51 29.33 32.51 29.33"/>
  <polygon class="cls-1" points="52.69 29.33 52.69 15.63 62.51 15.63 62.51 18.11 56.38 18.11 56.38 21.2 61.71 21.2 61.71 23.46 56.38 23.46 56.38 26.72 62.67 26.72 62.67 29.33 52.69 29.33 52.69 29.33"/>
  <polygon class="cls-1" points="65.18 29.33 65.18 15.63 69.62 15.63 74.33 24.8 74.33 15.63 77.03 15.63 77.03 29.33 72.71 29.33 67.88 20.04 67.88 29.33 65.18 29.33 65.18 29.33"/>
  <path class="cls-1" d="M79.74,29.11v-2.71c1.53.49,2.89.73,4.09.73,1.64,0,2.46-.43,2.46-1.3,0-.32-.12-.59-.35-.81-.24-.23-.87-.56-1.88-.97-1.8-.74-2.98-1.37-3.53-1.9-.71-.68-1.06-1.56-1.06-2.62,0-1.35.52-2.38,1.55-3.09,1.02-.7,2.35-1.05,3.99-1.05.92,0,2.12.15,3.58.44l.34.06v2.6c-1.27-.51-2.46-.76-3.56-.76-1.53,0-2.3.42-2.3,1.27,0,.32.15.57.46.77.25.16.96.5,2.14,1.03,1.66.74,2.77,1.39,3.33,1.94.66.65.99,1.49.99,2.53,0,1.48-.64,2.62-1.93,3.4-1.05.63-2.41.95-4.08.95-1.41,0-2.83-.17-4.25-.5h0Z"/>
</svg>