<?xml version="1.0" encoding="UTF-8"?>
<svg id="Layer_1" data-name="Layer 1" xmlns="http://www.w3.org/2000/svg" viewBox="0 0 90 45">
  <defs>
    <style>
      .cls-1 {
        fill: #fff;
      }
    </style>
  </defs>
  <path class="cls-1" d="M23.98,29.02c-.28-.55-.68-.83-1.22-.83-.22,0-.43.05-.62.15-.19.1-.36.24-.5.41-.14.17-.25.38-.33.62-.08.24-.12.49-.12.76,0,.47.13.84.39,1.11.26.26.61.4,1.06.4.21,0,.4-.03.58-.09.18-.06.34-.15.48-.26v.72c0,.14-.23.24-.68.31-.45.07-8.18.1-9.07.1h-.24c-.34,0-.58-.06-.73-.19-.15-.13-.22-.34-.22-.63l.04-3.49-.81.14v.63c-.83.17-1.47.44-1.94.81-.46.37-.69.82-.69,1.35,0,.22.04.42.13.59.09.18.21.32.36.44.15.12.33.21.53.27.2.06.42.09.65.09.39,0,.73-.08,1.02-.25.12.78.67,1.16,1.66,1.16h.24c.36,0,7.74,0,8.01-.02.27-.01.52-.03.73-.06s.4-.06.55-.1c.16-.04.3-.09.43-.15.27-.12.46-.3.57-.54.11-.24.16-.58.16-1.04,0-1.07-.14-1.88-.42-2.43M23.25,30.78c-.17.05-.34.07-.52.07-.29,0-.51-.07-.66-.2-.15-.13-.23-.32-.23-.58,0-.29.09-.53.26-.73.17-.2.39-.29.64-.29.27,0,.48.12.63.36.15.24.24.63.29,1.16-.1.08-.24.15-.41.2M11.16,31.53c-.14,0-.28-.01-.42-.04-.13-.02-.25-.06-.35-.11-.1-.05-.18-.12-.24-.2-.06-.08-.09-.18-.09-.31,0-.15.05-.29.16-.42.1-.13.25-.24.43-.34.18-.1.39-.18.62-.25.23-.06.47-.11.73-.14l.02,1.66c-.25.1-.53.14-.86.14"/>
  <polygon class="cls-1" points="36.53 27.81 35.89 27.16 35.25 27.81 35.89 28.46 36.53 27.81"/>
  <polygon class="cls-1" points="38.03 27.81 37.39 27.16 36.76 27.81 37.39 28.46 38.03 27.81"/>
  <polygon class="cls-1" points="48.53 27.65 47.89 27 47.26 27.65 47.89 28.3 48.53 27.65"/>
  <polygon class="cls-1" points="48.65 29.63 49.28 28.98 48.65 28.33 48.01 28.98 48.65 29.63"/>
  <polygon class="cls-1" points="47.78 28.98 47.14 28.33 46.51 28.98 47.14 29.63 47.78 28.98"/>
  <path class="cls-1" d="M57.5,26.84l.03,5.05c0,.1-.03.18-.11.25-.07.07-.16.12-.28.16-.11.04-.24.07-.39.09-.14.02-7.33.02-7.49.02-.82,0-1.22-.21-1.22-.64,0-.06.01-.2.04-.44.03-.24.06-.5.09-.79l-.7-.08c-.01.09-.03.19-.04.31-.01.12-.03.23-.05.35-.02.12-.04.23-.06.34-.02.11-.04.21-.05.28-.05.24-.19.41-.4.52-.22.1-7.59.15-8.05.15h0c-.21,0-.4,0-.59,0-.18,0-.36-.02-.51-.03.36-.34.53-.76.53-1.26,0-.25-.04-.49-.13-.72-.09-.22-.2-.42-.35-.58-.15-.16-.32-.29-.51-.39-.19-.1-.4-.14-.62-.14s-.43.05-.62.14c-.2.1-.37.23-.51.39-.15.16-.26.36-.35.58-.09.22-.13.46-.13.72,0,.51.18.93.53,1.26-.16.01-.34.02-.53.03-.19,0-7.43,0-7.63,0-.34,0-.58-.06-.72-.19-.15-.13-.22-.34-.22-.63l.04-4.89-.81.14.04,5.06c.01.96.57,1.44,1.68,1.44.38,0,7.82-.03,8.19-.09.37-.06.72-.15,1.05-.27.33.12.68.21,1.05.27.37.06.75.09,1.13.09.43,0,7.86-.06,8.17-.18.31-.12.54-.29.67-.51.27.46.8.69,1.6.69.26,0,7.54-.03,7.77-.08.23-.05.44-.14.62-.26.18-.12.33-.28.44-.47.11-.2.17-.44.17-.73l.04-5.11-.81.14ZM36.64,32.17c-.63-.21-.95-.55-.95-1.02,0-.14.02-.27.07-.38.05-.12.11-.22.2-.31.09-.09.19-.16.3-.21.12-.05.24-.07.37-.07s.25.02.37.07c.12.05.22.12.3.21.09.09.15.19.2.31.05.12.07.24.07.38,0,.47-.31.81-.95,1.02"/>
  <polygon class="cls-1" points="59.66 33.35 59.61 26.84 60.42 26.7 60.37 33.35 59.66 33.35"/>
  <path class="cls-1" d="M66.96,31.8c0,.5-.16.89-.47,1.18-.32.29-.75.44-1.3.44-.58,0-1.02-.14-1.33-.43-.3-.28-.45-.7-.45-1.23,0-.34.05-.65.14-.95.1-.3.23-.56.39-.79.16-.23.35-.41.57-.54.21-.13.44-.2.68-.2s.48.06.69.2c.22.13.4.31.56.54.16.23.28.49.38.8.09.31.14.63.14.98M64.43,28.46l-.64-.65.64-.65.64.65-.64.65ZM66.26,31.89c0-.24-.03-.46-.08-.66-.05-.2-.12-.38-.22-.53-.1-.15-.21-.26-.34-.35-.13-.08-.27-.12-.43-.12-.14,0-.28.03-.42.11s-.25.17-.35.29c-.09.12-.17.27-.23.43-.06.16-.09.34-.09.53,0,.3.09.52.28.68.18.16.45.23.8.23.14,0,.28-.02.41-.05.13-.03.24-.08.34-.13.1-.06.17-.12.23-.2.06-.07.09-.15.09-.23M65.93,28.46l-.64-.65.64-.65.64.65-.64.65Z"/>
  <path class="cls-1" d="M66.67,34.59c.37-.14.71-.3,1.03-.47.32-.18.59-.37.82-.56.23-.2.41-.39.54-.59.13-.2.2-.38.2-.56,0-.11-.02-.25-.07-.42-.05-.17-.11-.36-.2-.56-.09-.2-.19-.41-.3-.64-.12-.22-.24-.43-.37-.64l.74-.41c.29.39.51.81.68,1.28.17.47.25.9.25,1.31,0,.65-.25,1.24-.74,1.78-.5.54-1.19.97-2.09,1.3l-.47-.81Z"/>
  <polygon class="cls-1" points="71.4 33.35 71.34 26.84 72.16 26.7 72.11 33.35 71.4 33.35"/>
  <path class="cls-1" d="M72.67,34.59c.37-.14.71-.29,1.03-.47.32-.18.59-.36.82-.56.23-.2.41-.39.54-.59.13-.2.2-.38.2-.56,0-.11-.02-.25-.07-.42-.05-.17-.12-.36-.2-.56-.09-.2-.19-.41-.3-.63-.12-.22-.24-.43-.37-.64l.74-.41c.29.39.51.81.68,1.28.17.47.25.9.25,1.31,0,.65-.25,1.24-.74,1.78-.49.54-1.19.97-2.09,1.3l-.47-.81ZM74.55,28.91l-.64-.65.64-.65.64.65-.64.65ZM22.89,26.91l-.64-.65.64-.65.64.65-.64.65Z"/>
  <path class="cls-1" d="M77.32,34.56c1.48-.21,2.34-.74,2.56-1.62-.14.1-.3.18-.48.24-.18.06-.38.08-.58.08-.45,0-.82-.16-1.09-.47-.27-.32-.41-.73-.41-1.25,0-.29.04-.56.12-.8.08-.24.2-.46.34-.63.14-.18.32-.32.51-.42.2-.1.41-.15.65-.15.54,0,.95.24,1.25.73.3.48.45,1.17.45,2.05,0,.41-.07.79-.21,1.14-.14.35-.34.66-.6.93-.26.27-.57.49-.93.67-.36.17-.77.29-1.21.36l-.37-.85ZM78.96,32.43c.19,0,.38-.03.56-.08.18-.06.32-.12.43-.21-.03-.54-.13-.96-.3-1.26-.18-.29-.42-.44-.73-.44-.27,0-.49.1-.65.3-.17.2-.25.46-.25.78,0,.29.08.51.25.67.17.16.4.24.69.24"/>
  <polygon class="cls-1" points="9.64 37.01 10.47 37.01 12.32 40.16 14.16 37.01 14.97 37.01 15.25 43.07 14.4 43.07 14.2 38.42 12.49 41.28 12.06 41.28 10.38 38.46 10.17 43.07 9.36 43.07 9.64 37.01"/>
  <path class="cls-1" d="M16.74,36.98l.65.65-.65.65-.65-.65.65-.65ZM16.33,38.85h.82v4.23h-.82v-4.23Z"/>
  <path class="cls-1" d="M18.31,43.07v-3.96c0-.06,0-.15-.01-.27h.78l.03.64c.05-.07.12-.15.2-.24.08-.09.18-.17.29-.24.11-.07.25-.13.4-.18.16-.05.33-.07.52-.07.55,0,.96.16,1.22.48.27.32.4.76.4,1.31v2.54h-.82v-2.47c0-.39-.08-.68-.25-.87-.17-.18-.41-.28-.72-.28-.24,0-.43.05-.59.15-.16.1-.28.22-.38.38-.09.16-.16.33-.2.53-.04.2-.06.4-.06.6v1.96h-.82Z"/>
  <path class="cls-1" d="M23.54,36.98l.65.65-.65.65-.65-.65.65-.65ZM23.14,38.85h.82v4.23h-.82v-4.23Z"/>
  <path class="cls-1" d="M25.31,42.01c.15.15.33.27.54.36.21.09.46.14.73.14s.5-.05.68-.13c.18-.09.27-.23.27-.41,0-.1-.02-.18-.06-.25-.04-.07-.11-.13-.2-.19-.09-.05-.22-.1-.37-.15-.15-.05-.35-.1-.58-.15-.16-.04-.33-.08-.48-.14-.16-.06-.3-.14-.43-.24-.13-.1-.23-.22-.31-.36-.08-.14-.12-.31-.12-.51s.05-.39.14-.54c.09-.16.22-.28.38-.39.16-.1.33-.19.53-.24.2-.06.4-.08.61-.08.36,0,.66.05.92.14.26.09.48.23.68.4l-.44.56c-.13-.12-.29-.21-.48-.29-.19-.08-.41-.12-.67-.12s-.47.04-.62.13c-.16.08-.24.22-.24.42,0,.18.11.32.31.4.21.09.48.17.82.25.2.05.39.1.56.17.17.06.32.15.46.25.13.1.23.22.31.37.08.14.11.32.11.53s-.05.4-.15.56c-.1.16-.23.29-.39.4-.16.11-.35.19-.56.25-.21.05-.43.08-.66.08-.8,0-1.4-.22-1.8-.65l.5-.55Z"/>
  <path class="cls-1" d="M29.68,39.53h-.76v-.68h.76v-1.38h.82v1.38h1.23v.68h-1.23v2.08c0,.34.05.57.16.7.11.13.26.19.45.19.16,0,.29-.03.39-.07.1-.05.21-.12.31-.22l.37.5c-.18.17-.36.29-.54.37-.18.08-.4.11-.66.11-.45,0-.77-.12-.98-.36-.21-.24-.31-.62-.31-1.14v-2.16Z"/>
  <path class="cls-1" d="M32.88,43.07v-3.96c0-.05,0-.14-.01-.26h.78l.03.68c.05-.07.11-.15.19-.24.08-.09.17-.17.29-.24.11-.07.24-.13.39-.19.15-.05.32-.08.51-.08.09,0,.17,0,.25.02.08.01.15.03.21.05l-.18.76c-.11-.04-.25-.06-.42-.06s-.34.03-.48.1c-.15.07-.28.16-.39.28-.11.12-.2.25-.26.41-.06.16-.1.32-.1.5v2.23h-.82Z"/>
  <path class="cls-1" d="M36.34,44.11c.06.05.13.1.21.15.08.04.17.06.29.06.1,0,.18-.02.25-.06.07-.04.13-.11.19-.2.06-.09.11-.19.16-.32.05-.12.11-.27.18-.43l.11-.27-1.89-4.19h.94l1.36,3.19,1.2-3.19h.89l-1.69,4.12c-.08.19-.16.41-.24.64-.08.23-.18.45-.3.66-.12.21-.27.38-.44.52-.18.14-.4.21-.66.21-.21,0-.39-.03-.53-.09-.15-.06-.27-.14-.38-.23l.37-.57Z"/>
  <path class="cls-1" d="M44.24,43.2c-.33,0-.63-.06-.9-.18-.27-.12-.51-.28-.7-.49-.2-.21-.35-.44-.46-.71-.11-.27-.17-.56-.17-.87s.06-.6.17-.87c.11-.27.27-.51.46-.71.2-.21.43-.37.7-.49.27-.12.57-.18.9-.18s.62.06.89.18c.27.12.51.28.71.49.2.21.35.44.47.71.11.27.17.56.17.87s-.06.6-.17.87c-.11.27-.27.51-.47.71-.2.21-.44.37-.71.49-.27.12-.57.18-.89.18M44.24,42.49c.22,0,.41-.04.59-.13.18-.09.32-.2.44-.35s.21-.31.28-.49c.06-.18.1-.37.1-.57s-.03-.37-.1-.56c-.06-.18-.16-.35-.28-.49-.13-.15-.27-.26-.45-.35-.17-.09-.37-.13-.58-.13s-.41.04-.59.13c-.18.09-.32.2-.44.35-.12.14-.21.31-.28.49-.06.18-.1.37-.1.57s.03.38.1.56.16.35.28.49c.12.15.27.26.44.35.17.09.37.13.58.13"/>
  <path class="cls-1" d="M47.72,39.53h-.76v-.68h.76v-.35c0-.28.04-.53.12-.74.08-.21.19-.38.33-.51.14-.13.29-.23.47-.29.17-.06.36-.1.55-.1.22,0,.44.03.66.1.21.07.41.19.59.36l-.41.53c-.22-.19-.46-.28-.72-.28-.24,0-.43.08-.57.23-.14.15-.21.41-.21.78v.27h1.21v.68h-1.21v3.54h-.82v-3.54Z"/>
  <path class="cls-1" d="M57.59,42.01c-.07.11-.17.23-.31.37-.14.14-.31.27-.51.39-.2.13-.43.23-.69.31-.26.09-.55.13-.86.13-.45,0-.86-.08-1.23-.24-.37-.16-.68-.38-.95-.66-.27-.28-.47-.61-.62-1-.15-.38-.22-.8-.22-1.26s.07-.86.22-1.24c.15-.39.35-.73.62-1.02.27-.29.58-.52.96-.69.37-.17.79-.25,1.24-.25.32,0,.61.04.86.12.25.08.48.18.66.29.19.12.35.25.49.39.14.14.25.27.33.4l-.62.53c-.07-.1-.16-.21-.26-.32-.1-.11-.22-.21-.36-.31-.14-.09-.3-.17-.48-.23-.18-.06-.39-.09-.63-.09-.33,0-.63.06-.89.19-.26.13-.48.3-.67.52-.18.22-.33.47-.42.76-.1.29-.14.6-.14.93s.05.63.15.92c.1.29.24.54.42.75.18.21.4.38.66.5.26.12.55.18.87.18.27,0,.51-.03.7-.1.2-.07.36-.15.5-.25.14-.1.25-.2.34-.3.09-.1.16-.18.22-.25l.61.51Z"/>
  <path class="cls-1" d="M58.44,38.85h.82v2.48c0,.4.08.69.25.87.16.18.4.27.71.27.24,0,.43-.05.59-.15s.28-.22.38-.38c.1-.15.16-.33.2-.53.04-.2.06-.4.06-.6v-1.96h.82v3.97c0,.09,0,.17,0,.26h-.78l-.03-.63c-.05.07-.12.15-.2.24-.08.08-.18.16-.29.23s-.25.13-.4.18c-.15.05-.32.07-.51.07-.55,0-.96-.16-1.22-.48-.26-.32-.39-.75-.39-1.3v-2.54Z"/>
  <rect class="cls-1" x="63.37" y="37.01" width=".82" height="6.06"/>
  <path class="cls-1" d="M65.67,39.53h-.76v-.68h.76v-1.38h.81v1.38h1.23v.68h-1.23v2.08c0,.34.05.57.16.7.11.13.26.19.45.19.16,0,.29-.03.39-.07.1-.05.21-.12.31-.22l.37.5c-.18.17-.36.29-.54.37-.18.08-.4.11-.66.11-.45,0-.77-.12-.98-.36-.21-.24-.31-.62-.31-1.14v-2.16Z"/>
  <path class="cls-1" d="M68.67,38.85h.82v2.48c0,.4.08.69.24.87.16.18.4.27.71.27.24,0,.43-.05.59-.15s.28-.22.38-.38c.1-.15.16-.33.2-.53.04-.2.06-.4.06-.6v-1.96h.82v3.97c0,.09,0,.17,0,.26h-.78l-.03-.63c-.05.07-.12.15-.2.24-.08.08-.18.16-.29.23-.12.07-.25.13-.4.18-.15.05-.32.07-.51.07-.55,0-.96-.16-1.22-.48-.26-.32-.39-.75-.39-1.3v-2.54Z"/>
  <path class="cls-1" d="M73.61,43.07v-3.96c0-.05,0-.14-.01-.26h.78l.03.68c.05-.07.11-.15.19-.24.08-.09.17-.17.29-.24.11-.07.24-.13.39-.19.15-.05.32-.08.51-.08.09,0,.17,0,.25.02.08.01.15.03.21.05l-.18.76c-.11-.04-.25-.06-.42-.06s-.34.03-.48.1c-.15.07-.28.16-.39.28-.11.12-.2.25-.26.41-.06.16-.09.32-.09.5v2.23h-.82Z"/>
  <path class="cls-1" d="M80.53,42.45c-.05.06-.12.13-.22.21-.1.08-.22.17-.38.25-.16.08-.34.15-.55.2-.21.06-.44.09-.71.09-.33,0-.62-.05-.9-.16-.27-.11-.51-.26-.7-.46-.19-.2-.34-.44-.45-.72-.11-.28-.16-.59-.16-.93,0-.31.05-.6.15-.87.1-.27.25-.5.43-.7.19-.2.41-.35.67-.47.26-.12.54-.17.85-.17.36,0,.67.07.94.21.26.14.47.32.64.55.17.23.29.49.37.79s.12.61.12.93h-3.33c0,.19.05.36.12.52.08.16.18.29.3.41.13.11.27.21.44.27s.33.1.52.1c.36,0,.65-.06.88-.18.23-.12.4-.24.5-.35l.46.49ZM79.8,40.59c-.02-.33-.14-.61-.34-.84-.21-.23-.5-.35-.87-.35-.19,0-.37.03-.52.1-.15.07-.29.16-.4.26-.11.11-.19.24-.25.38-.06.14-.09.29-.1.44h2.49Z"/>
  <path class="cls-1" d="M65.83,2.78c-.44,6.05.1,12.07-.05,18.18-.03,1.12.11,2.32.03,3.45,0,.13-.05.23-.25.24-.28-.03-.55-.05-.83,0-.09-.81-.06-1.43-.13-2.13-.16-1.52-.07-2.76-.08-4.41-.02-2.83-.26-5.72-.05-8.55.07-1.01.08-2.66.03-3.67-.05-1.03-.11-1.79-.04-3.1.49-.06.95-.06,1.38,0"/>
  <path class="cls-1" d="M15.71,1.07c.49.05.71.2.75.75.06.83-.06,1.29.02,2.1.29,2.71-.34,5.45-.05,8.16.15,1.43,0,2.72.06,4.16.08,2.14-.02,4.56-.07,7.07h-6.65c-.23-.33-.19-2-.12-2.43.06-.38.06-.77.06-1.15-.01-1.58.08-2.98.07-4.55,0-.92-.02-1.85-.17-2.77-.13-.81.07-2.22-.05-3.03-.15-1.02-.23-7.09-.18-8.26,0,0,5.55-.11,6.33-.04"/>
  <path class="cls-1" d="M27.9,2.49c-.38-.14-.32.31-.32.55,0,.22,0,.36,0,.65,0,.58.04,2.18.05,2.76.01.97.07,1.81.06,2.58-.03,1.44-.04,2.87.02,4.31.15,3.57-.03,7.16.08,10.71,0,.31.2.39.48.47l.41.07c-.01-3.04.23-6.24.03-9.27-.08-1.27-.03-2.53-.04-3.8,0-1.22,0-2.44.01-3.65.01-.74,0-1.48-.02-2.22-.03-.92.02-2.67-.23-2.92-.15-.15-.29-.14-.54-.23"/>
  <path class="cls-1" d="M21.33,22.08c.4,0,.33-.31.32-.55,0-.22.05-.36.05-.66.01-.59-.03-2.2-.03-2.78,0-.98-.06-1.83-.04-2.6.04-1.45.05-2.9,0-4.35-.13-3.61.06-7.22-.03-10.8,0-.31-.21-.33-.56-.34l-.48.02c0,3.07.03,6.34.08,9.6.02,1.28,0,2.27,0,3.56,0,1.23.02,2.21.02,3.43,0,.65-.03,1.37-.04,2.27,0,.92-.05,2.67.16,2.94.15.19.29.24.54.24"/>
  <path class="cls-1" d="M30.09,23.96c-.37-.05-.42-.21-.41-.64.04-1.26-.04-3.94-.18-5.58-.12-1.49-.09-3,.1-4.47.13-1.02-.05-1.78-.06-3.04,0-1.66.09-2.96.09-4.08,0-.69-.03-1.38-.06-2.07-.03-.64-.02-2.06-.02-2.22.11-.04.49-.03.59-.02.35.04.53.08.78.2.15.66.1,2.04.11,2.82,0,.45-.03,2.33,0,2.78.05.75.02,1.51.03,2.26,0,.96.06,1.92.06,2.88,0,1.22-.1,2.43-.13,3.65-.06,2.25.23,5.15.2,7.02,0,.37.04.58-.36.58,0,0-.38-.05-.75-.09"/>
  <path class="cls-1" d="M63.77,22.93c.08-.93-.13-2.37-.13-3.12,0-.44-.05-2.26-.02-2.69.05-.73.01-1.46.01-2.19,0-.93.05-1.86.04-2.79-.01-1.18-.13-2.36-.17-3.53-.09-2.45.27-5.72.13-7.45-.62-.13-1.37-.17-2.2-.15-.21,1.37-.15,2.74-.13,4.41.02,1.08-.08,2.34-.06,3.94.02,1.22.33,2.68.2,3.67-.18,1.42-.21,2.89-.07,4.33.2,2.06.13,5.43.15,5.47l2.24.12Z"/>
  <path class="cls-1" d="M70.25,22.98c.1-2.54.08-4.08.13-6.27.03-1.55-.22-3.51-.19-5.14.05-2.99.09-4.01-.15-6.79-.05-.62.04-1.8.01-2.43-.02-.42-.03-.96-.05-1.38,0,0,2.04.44,3.63.11,2.53-.53,6.71.02,6.71.02.25.43.28,1.42.27,1.66-.05,1.83-.08,1.19-.02,3.02.06,1.73-.26,3.25-.26,5.69,0,1.6.24,2.66.3,3.72.06,1.1-.13,2.02-.06,3.76.04,1.07.02,3.89.04,4.15,0,0-7.53.04-9.14-.15-.85-.1-1.22.03-1.22.03"/>
  <path class="cls-1" d="M56.47.06c.04,3.79.08,8,.26,11.42.06,1.14.03,2.57.07,3.88.02.58-.08,1.74-.13,2.51-.04.62-.02,1.25,0,1.87.02.66.03,2.05-.03,2.08-.39-.06-.79-.06-1.23,0-.14-.51-.05-.99-.04-1.52.08-4.55-.24-7.87-.16-12.07.02-1.36-.02-3.22-.13-4.57-.09-1.17-.05-2.5.09-3.66.45,0,.88.01,1.29.06"/>
  <path class="cls-1" d="M69.11.26c.12,1.96.03,3.24.06,4.93.03,1.48.2,2.74.11,4.43-.08,1.46.07,2.93.1,4.4.03,1.43.06,2.85.07,4.28.03,1.1.05,2.11.05,3.21,0,.19-.02.58-.02.77,0,0-.39-.07-.77-.04-.96.09-1.69-.03-1.97-.08-.24-.05-.04-3.91-.03-4.27.03-1.45.03-2.9.02-4.35,0-1.47-.14-3.02-.17-4.49-.03-1.48.05-2.87.01-4.35-.04-1.5-.08-2.77-.12-4.26,0-.31.28-.46.76-.33.64.18,1.31-.03,1.89.15"/>
  <path class="cls-1" d="M18.98,2.1c.44.06.78.48.78.98.01.72,0,1.35-.02,1.97-.02.7-.04,1.38-.03,2.14.04,3.09.17,6.05.03,9.26-.12,2.71.13,5.36.1,7.85-.82-.05-1.8-.12-2.6-.16.23-4.59.08-8.94.03-13.72-.03-2.69.41-4.79.04-8.37.58-.06,1.13-.03,1.66.05"/>
  <path class="cls-1" d="M54.4,12.3c-.06-1.64-.05-4.73.08-6.37.14-1.83-.31-4.59-1.32-4.53-.88-.05-1.84.05-2.72.09-.71.04-1.61.04-2.32.1-1.21.1-1.34-.06-2.56-.05-1.52,0-2.82.12-4.34.13-1.47,0-3.1-.04-4.57-.15-1.44-.11-2.97-.31-4.39-.27-.21,0-.32.94-.36,2.07-.04,1.1-.11,3.47-.02,4.61.67-.82,1.51-1.14,2.33-1.22.66-.06,1.43-.1,2.14.01.07.01-.47-.5-.91-.85-.25-.2-.53-.4-.84-.45-.39-.06-.79-.02-1.18-.04.28-.25.78-.88,2.01-.71.66.09,1.77,1.24,2.17.93.44-.35.27-1.72.86-1.87.48-.12.8,1.71,1.02,2.11.54-.69,1.34-1.18,2.21-1.28.45-.05,1.85.11,2.04.78,0,0-1.78-.32-2.88,1.27,1.57-.62,3.15-.42,4.47.61.37.28.61.58.85.92.35.48.31.7.31.98-.58-.12-1.12-1.12-2.12-1.42-.84-.26-1.74-.21-2.58.05,1.9.31,4.54,2.85,3.63,4.93-.29.67-.38.22-.48-.34-.12-.67-.31-1.06-.63-1.49-.28-.38-.57-.72-.92-1.05-.3-.29-1.24-.7-1.68-.68,1.23.34,2.01,2.79,2.12,3.05.25.63.25,1.36.27,2.03.01.39.04,1.74-.45,1.87,0,0,.08-3.27-2.23-5.14.6,1.06.65,2.35.58,3.53-.04.66-.14,1.2-.43,1.8-.06.13-.31.73-.4.75-.31.07-.15-1.83-.19-2.16-.06-.41-.8-3.22-1.59-2.53-.4.35-.2,1.93-.15,2.63.06.86.16,2.12.18,2.98.03,1.79.08,3.05.31,4.85,2.05-1.11,11.08-5.74,12.36-1.92,0,.12-.07.03-.07.03h0c-.88-1.32-3.29-.64-4.49-.27-2.14.66-4.19,1.71-6.14,2.82,3.19,0,8.11,0,11.76,0,.84,0,1.51-.7,1.48-1.54-.02-.62-.04-1.36-.04-2.16,0-.9.05-1.88.07-2.78.05-1.8-.19-2.87-.25-4.66M36.5,14.18c-.13.47-.28,1.25-.31,1.46-.02.2-.19,1.32-.19,1.32-.08-.04-.11-.13-.15-.21-.45-1.03-.36-2.66-.36-2.67.16-2.56,1.07-3.25,1.07-3.24-.41-.24-1.24.73-1.67,1.34-.58.81-.48,1.37-.55,2.64-.31-.06-.62-.58-.64-.96-.1-1.99.77-3.82,1.73-4.57.11-.09-1.1.14-1.32.23-.78.32-1.34.88-1.73,1.63-.81,1.58-.29,3.46-.4,5.18-.07.99.08,1.97.07,2.97,0,.75-.2.89.55.96.3.03.59.07.88.14,1.77.38,3.18,1.19,4.42,2.49.2-2.3.22-4.42.22-6.73,0-.91.15-2.87-.46-3.65-.62-.79-1.04,1.16-1.19,1.68M32.17,20.9c-.04.89.01,1.61.03,2.66.88-.06,1.4.02,2.27.07.84.05,1.73-.04,2.57.07-1.29-1.4-2.93-2.63-4.88-2.8M33.61,8.57c.32-.21,1.6-.87,1.76-.86-.93-.36-2.04-.27-2.86.25-.79.51-.53,1.9-.63,2.79.4-.8.99-1.69,1.73-2.19"/>
  <path class="cls-1" d="M59.95,1.81c.12.02.21.12.21.24.06,2.49.11,4.73.28,7.3.06,1.02.12,2.53-.03,3.72-.19,1.58.21,2.85.09,4.44-.15,2.09.16,3.81.04,5.9l-2.59.06c-.21,0-.41-.19-.38-.7.03-.5-.01-2.65-.01-4.27s.21-3.12.04-4.92c-.09-.89.12-1.83.07-2.72-.09-1.61-.14-3.02-.18-4.64-.02-.95,0-2.42-.03-3.36-.02-.65.12-1.13.48-1.3.41-.18,1.54.18,2.01.24"/>
  <path class="cls-1" d="M22.54,20.88c-.03.6-.04.81-.04,1.04,0,.15.13.18.26.24.08.04.78.19,1.01.24.2.04.48.07.68.07.67-.01,1.34.22,2.01.16.02,0,.04-.01.06-.02.06-.03.24-.12.29-.5.08-.57-.08-1.07,0-2.11.09-1.04.01-3.86.02-4.54.04-5.13-.25-5.22-.12-9.18.05-1.4,0-1.86-.14-3.32-.04-.39-.22-1.37-.13-2.04.03-.25-.12-.46-.36-.47-1.11-.06-3.44.12-3.44.12-.12.52-.15,1.01-.12,1.71.02.48-.07,1.28-.07,1.77,0,.55-.04,1.09-.01,1.64.07,1.47.11,2.93.06,4.4-.11,3.71.21,5.87.07,9.52l-.03,1.29Z"/>
</svg>