<?xml version="1.0" encoding="UTF-8"?>
<svg xmlns="http://www.w3.org/2000/svg" xmlns:xlink="http://www.w3.org/1999/xlink" viewBox="0 0 90 45">
  <defs>
    <style>
      .cls-1 {
        fill: #fff;
      }

      .cls-2 {
        clip-path: url(#clippath-1);
      }

      .cls-3 {
        mix-blend-mode: multiply;
        opacity: .4;
      }

      .cls-4 {
        isolation: isolate;
      }

      .cls-5 {
        clip-path: url(#clippath-5);
      }

      .cls-6 {
        clip-path: url(#clippath-3);
      }

      .cls-7 {
        clip-path: url(#clippath);
      }
    </style>
    <clipPath id="clippath">
      <path class="cls-1" d="M5.2,23.13c0-4.7,3.83-8.53,8.53-8.53s8.53,3.83,8.53,8.53-3.83,8.53-8.53,8.53-8.53-3.83-8.53-8.53M4.41,23.18c0,5.14,4.18,9.32,9.32,9.32s9.32-4.18,9.32-9.32-4.18-9.32-9.32-9.32-9.32,4.18-9.32,9.32"/>
    </clipPath>
    <clipPath id="clippath-1">
      <polygon class="cls-1" points="13.08 14.32 13.73 25.32 14.21 14.32 13.08 14.32"/>
    </clipPath>
    <clipPath id="clippath-3">
      <path class="cls-1" d="M13.6,13.63l.3.73c2.26-1.2,4.91-1.33,7.28-.33,4.32,1.81,6.36,6.8,4.55,11.12-1.01,2.4-3.06,4.35-5.5,5.13-.18.24-.42.48-.69.77,3.11-.53,5.79-2.63,7.03-5.58,1.99-4.74-.25-10.21-4.99-12.19-1.16-.49-2.38-.73-3.6-.73-1.5,0-3,.37-4.37,1.09"/>
    </clipPath>
    <clipPath id="clippath-5">
      <path class="cls-1" d="M8.44,22.08s1.52-6.82,7.13-8.41l-.2-.76c-4.05,1.14-6.84,4.96-6.93,9.16"/>
    </clipPath>
  </defs>
  <g class="cls-4">
    <g id="Layer_1" data-name="Layer 1">
      <g>
        <g>
          <path class="cls-1" d="M88.63,19.11c.08.12.27.25.48.25s.45-.13.45-.48c0-.23-.12-.61-.37-.61-.32,0-.56.85-.56.85M89.16,19.77c-.32,0-.55-.19-.68-.37-.15.29-.44.29-.58.29h-.1v-.42h.1c.25,0,.3-.2.43-.56.26-.69.51-.9.86-.9.48,0,.81.55.81,1.07,0,.48-.31.9-.84.9M87.88,19.26v.42h-.38c-.16,0-.28-.08-.35-.15v.26c0,.57-.29.93-.81.93-.17,0-.38-.05-.54-.15l.14-.4c.06.04.19.14.41.14.31,0,.34-.29.34-.53v-1.87h.47v.86c0,.24.03.47.35.47h.38ZM84,17.72c.12,0,.84.09,1.24.59.27.34.28.82.28,1.09,0,.06,0,.22-.03.27h-2.24v-.42h1.8c0-.15,0-.49-.19-.69-.29-.35-.77-.45-1.12-.45-.07,0-.13,0-.17,0l-.12-.55,2.02-1.43.14.44-1.62,1.13ZM82.03,17.27l.34-.32.34.31-.33.32-.34-.31ZM83.35,19.26v.42h-.38c-.16,0-.28-.08-.35-.15v.26c0,.57-.29.93-.81.93-.17,0-.38-.05-.54-.15l.14-.4c.06.04.19.14.41.14.31,0,.34-.29.34-.53v-1.87h.47v.86c0,.24.03.47.35.47h.38ZM79.96,19.68h-.47v-3.65h.47v3.65ZM78.63,16.03v2.77c0,.51-.23.88-.76.88h-.15v-.42h.12c.27,0,.32-.18.32-.55v-2.68h.47ZM76.7,17.07l.32-.34.36.3-.32.33-.36-.29ZM75.92,19.26h.32c.33,0,.39-.16.39-.4v-.94h.47v.99c0,.25.11.34.33.34h.44v.42h-.49c-.23,0-.38-.11-.46-.25-.03.07-.15.25-.43.25h-.56v-.42ZM75.9,17.07l.32-.34.35.3-.31.33-.36-.29ZM72.89,19.26h1.92c0-.37-.42-.9-1.15-.9-.16,0-.28.03-.39.06l.03-.44c.12-.04.32-.06.44-.06.87,0,1.53.7,1.53,1.33h.74v.42h-3.11v-.42ZM70.03,19.26h1.8c0-.15,0-.49-.19-.69-.29-.35-.77-.45-1.12-.45-.07,0-.13,0-.17,0l-.12-.55,2.02-1.43.14.44-1.62,1.13c.12,0,.84.09,1.24.59.23.28.27.68.28.94h.77v.42h-3.03v-.42ZM68.78,20.46l.32-.33.36.3-.31.33-.36-.3ZM68.21,19.26h.32c.33,0,.39-.16.39-.4v-.94h.47v.99c0,.25.11.34.33.34h.44v.42h-.49c-.23,0-.38-.11-.46-.25-.03.07-.15.25-.43.25h-.56v-.42ZM67.98,20.46l.32-.33.36.3-.32.33-.36-.3ZM66.18,19.02c.17.25.42.29.54.29.27,0,.41-.25.41-.47s-.07-.64-.34-.64c-.3,0-.61.82-.61.82M65.92,21.31h-.46v-1.18c0-.47.04-.78.31-1.33.27-.55.54-1.06.99-1.06.48,0,.85.54.85,1.09,0,.11-.02.21-.04.3.02.04.09.14.21.14h.57v.42h-.52c-.21,0-.35-.07-.44-.21-.16.18-.38.27-.61.27-.36,0-.58-.18-.73-.4-.06.1-.12.24-.12.61v1.36ZM63.8,19.68h-.47v-3.65h.47v3.65ZM62.47,16.03v2.77c0,.51-.23.88-.76.88h-.15v-.42h.12c.27,0,.32-.18.32-.55v-2.68h.47ZM61.65,19.26v.42h-.38c-.16,0-.28-.08-.35-.15v.26c0,.57-.29.93-.81.93-.17,0-.38-.05-.54-.15l.14-.4c.06.04.19.14.41.14.31,0,.34-.29.34-.53v-1.87h.47v.86c0,.24.03.47.35.47h.38ZM58.5,20.46l.32-.33.36.3-.31.33-.36-.3ZM57.94,19.26h.78v-1.33h.47v1.76h-1.25v-.42ZM57.7,20.46l.32-.33.36.3-.32.33-.36-.3ZM57.23,16.03v2.77c0,.23.04.46.39.46h.48v.42h-.52c-.55,0-.81-.39-.81-.88v-2.77h.47ZM55.52,19.26c.03-.1.05-.23.05-.31,0-.33-.23-.57-.53-.57-.45,0-.84.47-1.07.88h1.55ZM54.09,17.55l-.35-.29.31-.34.36.3-.32.33ZM52.62,19.68v-.42h.5v-1h.45v.91c.33-.69.96-1.25,1.53-1.25.3,0,.95.22.95,1.01,0,.43-.19.76-.19.75h-3.24ZM51.05,21.86l.32-.33.35.29-.31.34-.36-.3ZM50.24,21.86l.32-.33.36.29-.32.34-.36-.3ZM52.36,19.68c-.37,0-.57-.19-.64-.22l-.04.06c.33.19.72.47.72.81,0,.42-.54.93-1.51.93-.9,0-1.56-.48-1.56-1.31v-.41l.47-.16v.43c0,.86.64,1.01,1.14,1.01.58,0,.99-.27.99-.49s-.36-.47-.87-.75l.38-.7s.57.37.94.37h.36v.42h-.39ZM47.78,19.68h-.47v-3.65h.47v3.65ZM46.45,16.03v2.77c0,.51-.23.88-.76.88h-.15v-.42h.12c.27,0,.32-.18.32-.55v-2.68h.47ZM41.96,19.68v-.42h.11c.22,0,.27-.15.27-.45v-.68h.47v.82c0,.25.19.31.32.31.25,0,.27-.2.27-.43v-.7h.47v.86c0,.11.07.28.29.28.29,0,.29-.26.29-.4v-.74h.47v.96c0,.08.08.18.32.18h.43v.42h-.45c-.11,0-.27-.03-.38-.24-.09.2-.28.26-.53.26-.29,0-.44-.17-.51-.32-.1.17-.25.32-.57.32-.28,0-.46-.22-.49-.32-.09.28-.36.3-.47.3h-.31ZM40.47,19.21c.07-.05.46-.5.46-.7,0-.16-.27-.27-.46-.27-.24,0-.39.08-.51.19,0,0,.33.34.51.78M42.11,19.26v.42h-2.9v-.42h.82c-.04-.09-.19-.41-.53-.65v-.37c.11-.11.45-.42,1.01-.42.33,0,.89.19.89.66,0,.27-.2.56-.43.78h1.14ZM37.94,19.26h.2v-.98s-.09-.04-.16-.04c-.32,0-.54.22-.54.54,0,.4.33.48.5.48M37.41,20.25c.09.06.22.13.37.13.25,0,.35-.15.35-.47v-.23h-.17c-.6,0-.99-.34-.99-.88,0-.63.48-.98,1.05-.98.23,0,.41.06.59.15v1.29h.7v.42h-.7v.22c0,.56-.24.88-.77.88-.22,0-.46-.07-.6-.17l.18-.37ZM36.12,17.4c.07.22.26,1.07.26,1.52,0,.51-.37.78-1.03.78-.52,0-.65-.13-.69-.17,0-.06.07-.42.08-.46h0c.07.07.27.2.62.2.4,0,.57-.14.57-.44s-.15-.85-.27-1.27l.46-.15ZM32.45,21.15l.32-.33.35.29-.31.34-.36-.3ZM31.64,21.15l.32-.33.36.29-.32.34-.36-.3ZM34.01,19.64c0,.27-.4.93-1.53.93-.79,0-1.48-.47-1.48-1.22v-.65l.47-.11v.66c0,.51.45.89,1.06.89.66,0,.97-.35.97-.47,0-.3-.96-.51-.96-.95,0-.56.68-.9,1.27-.9.1,0,.15,0,.2.02l-.07.43s-.11,0-.14,0c-.34,0-.76.15-.76.42s.96.46.96.96"/>
          <path class="cls-1" d="M89.85,24.08s0,.07,0,.09c0,.02,0,.04,0,.06,0,.01-.01.02-.02.03s-.02.01-.03.01-.03,0-.05-.01c-.02,0-.04-.01-.06-.02-.02,0-.05-.01-.08-.02-.03,0-.06,0-.1,0-.04,0-.08,0-.12.02-.04.02-.08.04-.12.08-.04.04-.09.09-.14.15-.05.06-.1.14-.16.23v1.45s0,.02,0,.03c0,0-.02.02-.03.02-.01,0-.04.01-.06.01-.03,0-.06,0-.1,0s-.07,0-.1,0c-.03,0-.05,0-.06-.01-.02,0-.03-.01-.03-.02,0,0,0-.02,0-.03v-2.21s0-.02,0-.03c0,0,.01-.02.03-.02.01,0,.03-.01.06-.01.02,0,.05,0,.09,0s.07,0,.09,0c.02,0,.04,0,.06.01.01,0,.02.02.03.02,0,0,0,.02,0,.03v.32c.06-.09.12-.16.17-.22.05-.06.1-.1.15-.13.05-.03.09-.05.14-.07.05-.01.09-.02.14-.02.02,0,.05,0,.07,0,.03,0,.06,0,.08.01.03,0,.06.01.08.02.02,0,.04.02.05.02,0,0,.02.02.02.02,0,0,0,.02,0,.03,0,.01,0,.03,0,.05,0,.02,0,.05,0,.09M87.64,24.82c0-.21-.04-.38-.14-.5-.1-.12-.25-.18-.44-.18-.1,0-.19.02-.26.06-.08.04-.14.09-.19.15-.05.06-.09.13-.12.22-.03.08-.04.17-.05.26h1.2ZM88.05,24.94c0,.06-.02.11-.05.14-.03.03-.07.04-.11.04h-1.45c0,.12.01.23.04.33.02.1.07.18.12.25.06.07.13.12.22.16.09.04.2.06.34.06.11,0,.2,0,.28-.03.08-.02.15-.04.21-.06.06-.02.11-.04.15-.06s.07-.03.09-.03c.01,0,.02,0,.03,0,0,0,.02.01.02.03s0,.03.01.05c0,.02,0,.05,0,.07,0,.02,0,.04,0,.06,0,.02,0,.03,0,.04,0,.01,0,.02-.01.03,0,0-.01.02-.02.03,0,0-.04.02-.08.04-.04.02-.1.04-.17.06-.07.02-.15.04-.24.05-.09.02-.19.02-.3.02-.18,0-.34-.03-.48-.08-.14-.05-.25-.13-.34-.23-.09-.1-.16-.22-.21-.38-.05-.15-.07-.33-.07-.52s.02-.36.07-.51c.05-.15.12-.28.21-.38.09-.11.2-.19.33-.24.13-.06.28-.08.44-.08.17,0,.32.03.44.08.12.06.22.13.3.22.08.09.14.2.17.33.04.13.06.26.06.41v.07ZM85.79,25.98s0,.08,0,.11c0,.03-.02.05-.03.06-.01.01-.03.03-.06.04-.03.01-.06.02-.09.03-.03,0-.07.01-.11.02-.04,0-.08,0-.11,0-.11,0-.21-.02-.29-.05-.08-.03-.15-.08-.2-.14-.05-.06-.09-.14-.11-.23-.02-.09-.04-.2-.04-.33v-1.29h-.31s-.04-.01-.06-.04c-.01-.03-.02-.07-.02-.13,0-.03,0-.06,0-.08,0-.02,0-.04.02-.05,0-.01.02-.02.03-.03.01,0,.02,0,.04,0h.31v-.52s0-.02,0-.03c0,0,.02-.02.03-.03.02,0,.04-.01.06-.02.03,0,.06,0,.1,0s.07,0,.1,0c.03,0,.05,0,.06.02.01,0,.03.02.03.03,0,0,0,.02,0,.03v.52h.57s.02,0,.03,0c0,0,.02.02.03.03,0,.01.01.03.02.05,0,.02,0,.05,0,.08,0,.06,0,.1-.02.13-.01.03-.03.04-.06.04h-.57v1.23c0,.15.02.27.07.34.04.08.13.12.24.12.04,0,.07,0,.1-.01.03,0,.06-.02.08-.02.02,0,.04-.02.06-.02.02,0,.03-.01.04-.01,0,0,.02,0,.02,0,0,0,.01.01.02.02,0,.01,0,.03.01.05,0,.02,0,.04,0,.07M84.05,26.14s0,.02,0,.03c0,0-.02.02-.03.02-.01,0-.04.01-.06.01-.03,0-.06,0-.1,0s-.07,0-.1,0c-.03,0-.05,0-.06-.01-.01,0-.03-.01-.03-.02,0,0,0-.02,0-.03v-1.29c0-.13,0-.23-.03-.3-.02-.08-.05-.14-.09-.2-.04-.06-.09-.1-.15-.13-.06-.03-.13-.04-.21-.04-.1,0-.2.04-.3.11-.1.07-.21.18-.32.32v1.54s0,.02,0,.03c0,0-.02.02-.03.02-.01,0-.04.01-.06.01-.03,0-.06,0-.1,0s-.07,0-.1,0c-.03,0-.05,0-.06-.01-.02,0-.03-.01-.03-.02,0,0,0-.02,0-.03v-2.21s0-.02,0-.03c0,0,.01-.02.03-.02.01,0,.03-.01.06-.01.02,0,.05,0,.09,0s.07,0,.09,0c.02,0,.04,0,.06.01.01,0,.02.02.03.02,0,0,0,.02,0,.03v.29c.12-.14.25-.24.37-.31.12-.06.25-.1.37-.1.15,0,.27.03.37.07.1.05.18.12.24.2.06.08.11.18.13.29.03.11.04.25.04.4v1.35ZM81.23,24.82c0-.21-.04-.38-.14-.5-.1-.12-.25-.18-.44-.18-.1,0-.19.02-.26.06-.08.04-.14.09-.19.15-.05.06-.09.13-.12.22-.03.08-.04.17-.05.26h1.2ZM81.64,24.94c0,.06-.02.11-.05.14-.03.03-.07.04-.11.04h-1.45c0,.12.01.23.04.33.02.1.07.18.12.25.06.07.13.12.22.16.09.04.2.06.34.06.11,0,.2,0,.28-.03.08-.02.15-.04.21-.06.06-.02.11-.04.15-.06.04-.02.07-.03.09-.03.01,0,.02,0,.03,0,0,0,.02.01.02.03,0,.01,0,.03.01.05,0,.02,0,.05,0,.07,0,.02,0,.04,0,.06,0,.02,0,.03,0,.04,0,.01,0,.02-.01.03,0,0-.01.02-.02.03,0,0-.04.02-.08.04-.04.02-.1.04-.17.06-.07.02-.15.04-.24.05-.09.02-.19.02-.3.02-.18,0-.34-.03-.48-.08-.14-.05-.25-.13-.34-.23-.09-.1-.16-.22-.21-.38-.05-.15-.07-.33-.07-.52s.02-.36.07-.51c.05-.15.12-.28.21-.38.09-.11.2-.19.33-.24.13-.06.28-.08.44-.08.17,0,.32.03.44.08.12.06.22.13.3.22.08.09.14.2.17.33.04.13.06.26.06.41v.07ZM79.34,25.76s0,.05,0,.07c0,.02,0,.04,0,.05,0,.01,0,.03-.02.04s-.02.03-.03.04c-.02.02-.05.04-.1.07-.05.03-.12.07-.19.1-.08.03-.17.06-.27.08-.1.02-.21.03-.33.03-.21,0-.39-.03-.56-.1-.17-.07-.31-.17-.42-.3-.12-.13-.21-.3-.27-.5-.06-.2-.09-.42-.09-.68s.03-.5.1-.7c.07-.21.16-.38.29-.52.12-.14.27-.25.44-.33.17-.08.36-.11.57-.11.09,0,.18,0,.27.03.09.02.17.04.24.06.07.03.14.06.2.09s.1.06.12.08c.02.02.04.04.04.05,0,.01.01.02.02.04,0,.02,0,.03,0,.06,0,.02,0,.05,0,.08,0,.03,0,.06,0,.08,0,.02,0,.04-.01.06,0,.02-.01.03-.02.03,0,0-.02.01-.03.01-.02,0-.05-.02-.1-.05-.04-.03-.09-.07-.16-.11-.06-.04-.14-.07-.24-.11-.09-.03-.2-.05-.33-.05-.14,0-.27.03-.39.08-.12.06-.21.14-.3.25-.08.11-.15.24-.19.4-.05.16-.07.34-.07.54s.02.38.07.53c.04.15.11.28.19.39.08.1.18.18.3.24.12.05.25.08.4.08.13,0,.24-.02.33-.05.09-.03.17-.07.24-.1.07-.04.12-.07.16-.1.04-.03.08-.05.1-.05.01,0,.02,0,.03,0,0,0,.01.01.02.03,0,.01,0,.03.01.06,0,.02,0,.06,0,.09M75.51,26.14s0,.02,0,.03c0,0-.02.02-.03.02-.01,0-.04.01-.06.01-.03,0-.06,0-.1,0s-.07,0-.1,0c-.03,0-.05,0-.06-.01-.01,0-.03-.01-.03-.02,0,0,0-.02,0-.03v-1.29c0-.13,0-.23-.03-.3-.02-.08-.05-.14-.09-.2-.04-.06-.09-.1-.15-.13-.06-.03-.13-.04-.21-.04-.1,0-.2.04-.3.11-.1.07-.21.18-.32.32v1.54s0,.02,0,.03c0,0-.02.02-.03.02-.01,0-.04.01-.06.01-.03,0-.06,0-.1,0s-.07,0-.1,0c-.03,0-.05,0-.06-.01-.02,0-.03-.01-.03-.02,0,0,0-.02,0-.03v-2.21s0-.02,0-.03c0,0,.01-.02.03-.02.01,0,.03-.01.06-.01.02,0,.05,0,.09,0s.07,0,.09,0c.02,0,.04,0,.06.01.01,0,.02.02.03.02,0,0,0,.02,0,.03v.29c.12-.14.25-.24.37-.31.12-.06.25-.1.37-.1.15,0,.27.03.37.07.1.05.18.12.24.2.06.08.11.18.13.29.03.11.04.25.04.4v1.35ZM72.69,25.04c0-.12-.01-.23-.03-.34-.02-.11-.06-.2-.11-.28-.05-.08-.12-.14-.21-.19-.09-.05-.2-.07-.33-.07-.12,0-.22.02-.31.06-.09.04-.16.1-.21.18-.06.08-.1.17-.12.28-.03.11-.04.22-.04.35s.01.23.03.34c.02.11.06.2.11.28.05.08.12.14.21.19.09.05.2.07.33.07.12,0,.22-.02.31-.06.09-.04.16-.1.22-.18.06-.08.1-.17.12-.27.03-.11.04-.22.04-.35M73.11,25.02c0,.18-.02.35-.07.5-.05.15-.12.28-.21.39-.09.11-.21.19-.35.26-.14.06-.31.09-.49.09s-.34-.03-.47-.08c-.13-.05-.25-.13-.34-.24-.09-.1-.16-.23-.2-.37-.04-.15-.07-.31-.07-.5s.02-.35.07-.5c.05-.15.12-.28.21-.39s.21-.19.35-.25c.14-.06.3-.09.49-.09s.34.03.47.08c.13.05.25.13.34.24.09.1.16.23.2.37.04.15.07.31.07.5M70.46,23.19c0,.09-.02.16-.05.19-.04.03-.1.05-.2.05s-.16-.02-.19-.05c-.04-.03-.05-.1-.05-.19s.02-.16.05-.19c.04-.03.1-.05.2-.05s.16.02.19.05c.04.03.05.1.05.19M70.29,23.87s.08.01.1.03c.02.02.03.05.03.1v2.14s0,.02,0,.03c0,0-.02.02-.03.02-.02,0-.04.01-.06.01-.03,0-.06,0-.1,0-.04,0-.07,0-.1,0-.03,0-.05,0-.06-.01-.02,0-.03-.01-.03-.02,0,0,0-.02,0-.03v-1.93h-1.14v1.23c0,.15.02.27.07.34.04.08.13.12.24.12.04,0,.07,0,.1-.01.03,0,.06-.02.08-.02.02,0,.04-.02.06-.02.02,0,.03-.01.04-.01,0,0,.02,0,.02,0,0,0,.01.01.02.02,0,.01,0,.03.01.05,0,.02,0,.04,0,.07,0,.05,0,.08,0,.11,0,.03-.02.05-.03.06-.01.01-.03.03-.06.04s-.06.02-.09.03c-.03,0-.07.01-.11.02-.04,0-.08,0-.11,0-.11,0-.21-.02-.29-.05-.08-.03-.15-.08-.2-.14-.05-.06-.09-.14-.11-.23-.02-.09-.04-.2-.04-.33v-1.29h-.31s-.04-.01-.06-.04c-.01-.03-.02-.07-.02-.13,0-.03,0-.06,0-.08,0-.02,0-.04.02-.05,0-.01.02-.02.03-.03.01,0,.02,0,.04,0h.31v-.52s0-.02,0-.03c0,0,.02-.02.03-.03.02,0,.04-.01.06-.02.03,0,.06,0,.1,0s.07,0,.1,0c.03,0,.05,0,.06.02.01,0,.03.02.03.03,0,0,0,.02,0,.03v.52h1.42ZM67.37,25.14h-.35c-.11,0-.21,0-.29.03-.08.02-.15.05-.2.08-.05.04-.09.08-.12.13-.03.05-.04.11-.04.18,0,.11.04.21.11.27.07.07.17.1.31.1.11,0,.2-.03.3-.08.09-.05.19-.14.29-.25v-.47ZM67.77,26.14s0,.03-.02.04c-.01,0-.03.02-.05.02-.02,0-.06,0-.1,0s-.08,0-.1,0c-.03,0-.04-.01-.06-.02-.01,0-.02-.02-.02-.04v-.22c-.1.1-.2.18-.32.24-.12.06-.24.09-.38.09-.12,0-.22-.02-.31-.05-.09-.03-.17-.07-.24-.13-.07-.06-.12-.13-.15-.21-.04-.08-.06-.18-.06-.28,0-.12.03-.23.08-.32.05-.09.12-.17.22-.23s.21-.11.35-.14c.14-.03.29-.05.46-.05h.3v-.17c0-.08,0-.16-.03-.23-.02-.07-.05-.12-.09-.16-.04-.04-.09-.08-.16-.1-.06-.02-.14-.03-.24-.03-.1,0-.19.01-.27.04-.08.02-.15.05-.21.08-.06.03-.11.05-.15.08-.04.02-.07.04-.09.04-.01,0-.02,0-.03,0,0,0-.02-.02-.03-.03,0-.01-.01-.03-.02-.05,0-.02,0-.04,0-.07,0-.04,0-.07,0-.1,0-.02.02-.05.04-.07.02-.02.06-.05.11-.07.05-.03.12-.05.19-.08.07-.02.15-.04.23-.06.08-.02.17-.02.25-.02.16,0,.29.02.4.05s.2.09.27.16c.07.07.12.16.15.26.03.1.05.22.05.36v1.49ZM65.85,24.08s0,.07,0,.09c0,.02,0,.04,0,.06,0,.01-.01.02-.02.03,0,0-.02.01-.03.01s-.03,0-.05-.01-.04-.01-.06-.02c-.02,0-.05-.01-.08-.02-.03,0-.06,0-.1,0-.04,0-.08,0-.12.02-.04.02-.08.04-.12.08-.04.04-.09.09-.14.15-.05.06-.1.14-.16.23v1.45s0,.02,0,.03c0,0-.02.02-.03.02-.01,0-.04.01-.06.01-.03,0-.06,0-.1,0s-.07,0-.1,0c-.03,0-.05,0-.06-.01-.02,0-.03-.01-.03-.02,0,0,0-.02,0-.03v-2.21s0-.02,0-.03c0,0,.01-.02.03-.02.01,0,.03-.01.06-.01.02,0,.05,0,.09,0s.07,0,.09,0c.02,0,.04,0,.06.01.01,0,.02.02.03.02,0,0,0,.02,0,.03v.32c.06-.09.12-.16.17-.22.05-.06.1-.1.15-.13.05-.03.09-.05.14-.07.05-.01.09-.02.14-.02.02,0,.05,0,.07,0,.03,0,.06,0,.08.01.03,0,.06.01.08.02.02,0,.04.02.05.02,0,0,.02.02.02.02,0,0,0,.02,0,.03,0,.01,0,.03,0,.05,0,.02,0,.05,0,.09M64.13,25.98s0,.08,0,.11c0,.03-.02.05-.03.06-.01.01-.03.03-.06.04-.03.01-.06.02-.09.03-.03,0-.07.01-.11.02-.04,0-.08,0-.11,0-.11,0-.21-.02-.29-.05-.08-.03-.15-.08-.2-.14-.05-.06-.09-.14-.11-.23-.02-.09-.04-.2-.04-.33v-1.29h-.31s-.04-.01-.06-.04c-.01-.03-.02-.07-.02-.13,0-.03,0-.06,0-.08,0-.02,0-.04.02-.05,0-.01.02-.02.03-.03s.02,0,.04,0h.31v-.52s0-.02,0-.03c0,0,.02-.02.03-.03.02,0,.04-.01.06-.02.03,0,.06,0,.1,0s.07,0,.1,0c.03,0,.05,0,.06.02.01,0,.03.02.03.03,0,0,0,.02,0,.03v.52h.57s.02,0,.03,0c0,0,.02.02.03.03,0,.01.01.03.02.05,0,.02,0,.05,0,.08,0,.06,0,.1-.02.13-.01.03-.03.04-.06.04h-.57v1.23c0,.15.02.27.07.34.04.08.13.12.24.12.04,0,.07,0,.1-.01.03,0,.06-.02.08-.02.02,0,.04-.02.06-.02.02,0,.03-.01.04-.01,0,0,.02,0,.02,0,0,0,.01.01.02.02,0,.01,0,.03.01.05,0,.02,0,.04,0,.07M62.34,26.14s0,.02,0,.03c0,0-.02.02-.03.02-.01,0-.04.01-.06.01-.03,0-.06,0-.1,0s-.07,0-.1,0c-.03,0-.05,0-.06-.01-.02,0-.03-.01-.03-.02,0,0,0-.02,0-.03v-2.21s0-.02,0-.03c0,0,.02-.02.03-.02.02,0,.04-.01.06-.01.03,0,.06,0,.1,0s.07,0,.1,0c.03,0,.05,0,.06.01.01,0,.03.01.03.02,0,0,0,.02,0,.03v2.21ZM62.38,23.19c0,.09-.02.16-.05.19-.04.03-.1.05-.2.05s-.16-.02-.19-.05c-.04-.03-.05-.1-.05-.19s.02-.16.05-.19c.04-.03.1-.05.2-.05s.16.02.19.05c.04.03.05.1.05.19M61.01,25.06c0-.11,0-.22-.03-.33-.02-.11-.05-.2-.09-.28s-.1-.15-.17-.2c-.07-.05-.16-.07-.26-.07-.05,0-.1,0-.16.02-.05.01-.1.04-.16.07-.05.03-.11.08-.16.13-.06.05-.12.12-.18.2v.88c.11.14.22.24.32.31.1.07.21.11.32.11.1,0,.19-.02.26-.07.07-.05.13-.11.18-.19.05-.08.08-.17.1-.27.02-.1.03-.2.03-.31M61.42,25.01c0,.19-.02.36-.06.52-.04.15-.1.28-.18.39-.08.11-.18.19-.3.25-.12.06-.25.09-.4.09-.07,0-.14,0-.19-.02-.06-.01-.12-.04-.18-.07-.06-.03-.11-.07-.17-.12-.06-.05-.12-.1-.18-.17v.27s0,.02,0,.03c0,0-.02.02-.03.02-.01,0-.03.01-.06.01-.02,0-.05,0-.08,0s-.06,0-.08,0c-.02,0-.04,0-.06-.01-.01,0-.02-.01-.03-.02s0-.02,0-.03v-3.27s0-.02,0-.03c0,0,.02-.02.03-.02.02,0,.04-.01.06-.01.03,0,.06,0,.1,0s.07,0,.1,0c.03,0,.05,0,.06.01.01,0,.03.01.03.02,0,0,0,.02,0,.03v1.32c.07-.07.13-.12.19-.17.06-.05.12-.08.18-.11.06-.03.12-.05.18-.06.06-.01.12-.02.19-.02.16,0,.3.03.41.1.11.06.21.15.28.26.07.11.12.23.16.38.03.14.05.3.05.46M59.03,24.08s0,.07,0,.09c0,.02,0,.04,0,.06,0,.01-.01.02-.02.03,0,0-.02.01-.03.01s-.03,0-.05-.01c-.02,0-.04-.01-.06-.02-.02,0-.05-.01-.08-.02-.03,0-.06,0-.1,0-.04,0-.08,0-.12.02-.04.02-.08.04-.12.08-.04.04-.09.09-.14.15-.05.06-.1.14-.16.23v1.45s0,.02,0,.03c0,0-.02.02-.03.02-.01,0-.04.01-.06.01-.03,0-.06,0-.1,0s-.07,0-.1,0c-.03,0-.05,0-.06-.01-.02,0-.03-.01-.03-.02,0,0,0-.02,0-.03v-2.21s0-.02,0-.03c0,0,.01-.02.03-.02.01,0,.03-.01.06-.01.02,0,.05,0,.09,0s.07,0,.09,0c.02,0,.04,0,.06.01.01,0,.02.02.03.02,0,0,0,.02,0,.03v.32c.06-.09.12-.16.17-.22.05-.06.1-.1.15-.13.05-.03.09-.05.14-.07.05-.01.09-.02.14-.02.02,0,.05,0,.07,0,.03,0,.06,0,.08.01.03,0,.06.01.08.02.02,0,.04.02.05.02,0,0,.02.02.02.02,0,0,0,.02,0,.03,0,.01,0,.03,0,.05,0,.02,0,.05,0,.09M56,23.45h0l-.55,1.58h1.1l-.55-1.58ZM57.36,26.05s.02.06.02.09c0,.02,0,.04-.02.05-.01.01-.03.02-.06.02-.03,0-.07,0-.12,0s-.09,0-.12,0c-.03,0-.05,0-.07-.01-.02,0-.03-.01-.03-.02,0,0-.01-.02-.02-.04l-.27-.77h-1.32l-.26.76s-.01.03-.02.04c0,.01-.02.02-.04.03-.02,0-.04.01-.07.02-.03,0-.07,0-.11,0s-.09,0-.12,0c-.03,0-.05-.01-.06-.02-.01-.01-.02-.03-.02-.05,0-.02,0-.05.02-.09l1.06-2.95s.02-.03.03-.04.03-.02.05-.03c.02,0,.05-.01.08-.01.03,0,.07,0,.12,0,.05,0,.1,0,.13,0,.03,0,.06,0,.08.01.02,0,.04.02.05.03.01.01.02.03.03.05l1.06,2.95ZM53.47,25.98s0,.08,0,.11c0,.03-.02.05-.03.06-.01.01-.03.03-.06.04s-.06.02-.09.03c-.03,0-.07.01-.11.02-.04,0-.08,0-.11,0-.11,0-.21-.02-.29-.05-.08-.03-.15-.08-.2-.14-.05-.06-.09-.14-.11-.23-.02-.09-.04-.2-.04-.33v-1.29h-.31s-.04-.01-.06-.04c-.01-.03-.02-.07-.02-.13,0-.03,0-.06,0-.08,0-.02,0-.04.02-.05,0-.01.02-.02.03-.03.01,0,.02,0,.04,0h.31v-.52s0-.02,0-.03c0,0,.02-.02.03-.03.02,0,.04-.01.06-.02.03,0,.06,0,.1,0s.07,0,.1,0c.03,0,.05,0,.06.02.01,0,.03.02.03.03,0,0,0,.02,0,.03v.52h.57s.02,0,.03,0c0,0,.02.02.03.03,0,.01.01.03.02.05,0,.02,0,.05,0,.08,0,.06,0,.1-.02.13-.01.03-.03.04-.06.04h-.57v1.23c0,.15.02.27.07.34.04.08.13.12.24.12.04,0,.07,0,.1-.01.03,0,.06-.02.08-.02.02,0,.04-.02.06-.02.02,0,.03-.01.04-.01,0,0,.02,0,.02,0,0,0,.01.01.02.02,0,.01,0,.03.01.05,0,.02,0,.04,0,.07M51.97,24.08s0,.07,0,.09c0,.02,0,.04,0,.06,0,.01-.01.02-.02.03s-.02.01-.03.01-.03,0-.05-.01-.04-.01-.06-.02c-.02,0-.05-.01-.08-.02-.03,0-.06,0-.1,0-.04,0-.08,0-.12.02-.04.02-.08.04-.12.08-.04.04-.09.09-.14.15-.05.06-.1.14-.16.23v1.45s0,.02,0,.03c0,0-.02.02-.03.02-.01,0-.04.01-.06.01-.03,0-.06,0-.1,0s-.07,0-.1,0c-.03,0-.05,0-.06-.01-.02,0-.03-.01-.03-.02,0,0,0-.02,0-.03v-2.21s0-.02,0-.03c0,0,.01-.02.03-.02s.03-.01.06-.01c.02,0,.05,0,.09,0s.07,0,.09,0c.02,0,.04,0,.06.01s.02.02.03.02c0,0,0,.02,0,.03v.32c.06-.09.12-.16.17-.22.05-.06.1-.1.15-.13.05-.03.09-.05.14-.07.05-.01.09-.02.14-.02.02,0,.05,0,.07,0,.03,0,.06,0,.08.01.03,0,.06.01.08.02.02,0,.04.02.05.02,0,0,.02.02.02.02,0,0,0,.02,0,.03,0,.01,0,.03,0,.05,0,.02,0,.05,0,.09M49.76,25.04c0-.12-.01-.23-.03-.34-.02-.11-.06-.2-.11-.28-.05-.08-.12-.14-.21-.19-.09-.05-.2-.07-.33-.07-.12,0-.22.02-.31.06-.09.04-.16.1-.21.18-.06.08-.1.17-.12.28-.03.11-.04.22-.04.35s.01.23.03.34c.02.11.06.2.11.28.05.08.12.14.21.19.09.05.2.07.33.07.12,0,.22-.02.31-.06.09-.04.16-.1.22-.18.06-.08.1-.17.12-.27.03-.11.04-.22.04-.35M50.18,25.02c0,.18-.02.35-.07.5-.05.15-.12.28-.21.39-.09.11-.21.19-.35.26-.14.06-.31.09-.49.09s-.34-.03-.47-.08c-.13-.05-.25-.13-.34-.24-.09-.1-.16-.23-.2-.37-.04-.15-.07-.31-.07-.5s.02-.35.07-.5.12-.28.21-.39c.09-.11.21-.19.35-.25.14-.06.3-.09.49-.09s.34.03.47.08c.13.05.25.13.34.24.09.1.16.23.2.37.05.15.07.31.07.5M47.21,25.05c0-.11,0-.22-.03-.33-.02-.11-.05-.2-.09-.28-.04-.08-.1-.15-.17-.2-.07-.05-.16-.07-.26-.07-.05,0-.1,0-.16.02-.05.02-.1.04-.16.07-.05.03-.11.08-.17.13-.06.05-.12.12-.18.2v.88c.11.14.22.24.32.31.1.07.21.11.32.11.1,0,.19-.02.26-.07.07-.05.13-.11.18-.2.05-.08.08-.17.1-.27.02-.1.03-.2.03-.31M47.62,25.01c0,.19-.02.37-.06.52-.04.15-.1.28-.18.39-.08.11-.18.19-.3.25-.12.06-.26.09-.41.09-.07,0-.13,0-.18-.02-.06-.01-.11-.03-.16-.06-.05-.03-.11-.06-.16-.11-.05-.04-.11-.09-.17-.15v1.1s0,.02,0,.03c0,0-.02.02-.03.02-.01,0-.04.01-.06.01-.03,0-.06,0-.1,0s-.07,0-.1,0c-.03,0-.05,0-.06-.01-.02,0-.03-.01-.03-.02s0-.02,0-.03v-3.08s0-.03,0-.04c0,0,.01-.02.03-.02.01,0,.03-.01.06-.01.02,0,.05,0,.08,0s.06,0,.08,0c.02,0,.04,0,.06.01.01,0,.02.01.03.02,0,0,0,.02,0,.04v.3c.07-.07.13-.13.19-.18.06-.05.12-.09.19-.13.06-.03.13-.06.19-.08.07-.02.14-.03.21-.03.16,0,.3.03.41.09.11.06.2.15.28.25.07.11.12.23.16.38.03.14.05.29.05.45M45.14,25.31c0,.15-.03.28-.08.4-.05.12-.13.21-.23.3-.1.08-.21.14-.34.18-.13.04-.27.06-.43.06-.11,0-.2,0-.3-.03s-.17-.04-.24-.07c-.07-.03-.13-.05-.18-.08-.05-.03-.08-.05-.1-.07s-.03-.04-.04-.07c0-.03-.01-.07-.01-.12,0-.04,0-.07,0-.09,0-.02,0-.04.01-.06,0-.01.01-.02.02-.03,0,0,.02,0,.03,0,.02,0,.06.01.1.04.04.03.1.06.16.09.07.03.14.06.24.09s.2.04.32.04c.09,0,.18-.01.25-.04.08-.02.14-.06.2-.1.05-.04.1-.1.13-.17.03-.07.04-.14.04-.22,0-.09-.02-.17-.06-.23-.04-.06-.09-.12-.16-.17-.07-.05-.14-.09-.23-.13-.09-.04-.17-.08-.26-.12-.09-.04-.18-.09-.26-.14-.08-.05-.16-.11-.23-.18-.07-.07-.12-.15-.16-.24-.04-.09-.06-.2-.06-.33s.02-.25.07-.35c.05-.1.12-.19.2-.26.09-.07.19-.12.31-.16.12-.04.25-.06.38-.06.07,0,.14,0,.21.02.07.01.14.03.2.05.06.02.12.04.17.07.05.03.08.05.1.06.02.02.03.03.03.04,0,0,0,.02.01.03,0,.01,0,.03,0,.05,0,.02,0,.05,0,.08s0,.06,0,.08c0,.02,0,.04-.01.06,0,.02-.01.03-.02.03,0,0-.02.01-.03.01-.02,0-.05-.01-.08-.03-.04-.02-.09-.05-.14-.08-.06-.03-.12-.05-.2-.08-.08-.02-.16-.04-.26-.04-.09,0-.17.01-.23.04-.07.02-.12.06-.16.09-.04.04-.07.09-.1.14-.02.05-.03.11-.03.17,0,.09.02.16.06.23.04.06.1.12.16.17.07.05.15.09.23.13.09.04.17.08.26.12.09.04.18.09.26.14.09.05.16.11.23.18.07.07.12.15.16.24.04.09.06.2.06.33M41.71,26.14s0,.02,0,.03c0,0-.02.02-.03.02-.01,0-.04.01-.06.01-.03,0-.06,0-.1,0s-.07,0-.1,0c-.03,0-.05,0-.06-.01-.02,0-.03-.01-.03-.02,0,0,0-.02,0-.03v-2.21s0-.02,0-.03c0,0,.02-.02.03-.02s.04-.01.06-.01c.03,0,.06,0,.1,0s.07,0,.1,0c.03,0,.05,0,.06.01.01,0,.03.01.03.02,0,0,0,.02,0,.03v2.21ZM41.76,23.19c0,.09-.02.16-.05.19-.04.03-.1.05-.2.05s-.16-.02-.19-.05c-.04-.03-.05-.1-.05-.19s.02-.16.05-.19c.04-.03.1-.05.2-.05s.16.02.19.05c.04.03.05.1.05.19M40.25,24.59c-.11-.14-.22-.24-.32-.31-.1-.07-.21-.11-.32-.11-.1,0-.19.02-.26.07-.07.05-.13.11-.18.19-.05.08-.08.17-.1.27-.02.1-.03.2-.03.31,0,.11,0,.22.03.33.02.11.05.2.09.28.04.08.1.15.17.2.07.05.16.07.26.07.05,0,.11,0,.16-.02.05-.01.1-.04.15-.07s.11-.08.16-.13c.06-.05.12-.12.18-.2v-.88ZM40.66,26.14s0,.02,0,.03-.02.02-.03.02c-.01,0-.03.01-.06.01-.02,0-.05,0-.08,0-.03,0-.06,0-.09,0-.02,0-.04,0-.06-.01-.01,0-.03-.01-.03-.02,0,0,0-.02,0-.03v-.29c-.12.13-.24.22-.36.29-.13.07-.26.11-.41.11-.16,0-.3-.03-.41-.09-.11-.06-.21-.15-.28-.25-.07-.11-.12-.23-.16-.38-.03-.14-.05-.3-.05-.46,0-.19.02-.36.06-.51.04-.15.1-.28.18-.39.08-.11.18-.19.3-.25.12-.06.26-.09.41-.09.13,0,.25.03.35.08.11.06.21.14.32.25v-1.28s0-.02,0-.03c0-.01.02-.02.03-.02.02,0,.04-.01.06-.01.03,0,.06,0,.1,0s.07,0,.1,0c.03,0,.05,0,.06.01.01,0,.03.01.03.02,0,.01.01.02.01.03v3.26ZM38.12,26.14s0,.02,0,.03c0,0-.02.02-.03.02-.01,0-.03.01-.06.01-.02,0-.05,0-.09,0-.04,0-.07,0-.09,0-.02,0-.04,0-.06-.01-.01,0-.02-.01-.03-.02,0,0,0-.02,0-.03v-.29c-.13.14-.25.24-.37.3-.12.06-.25.1-.37.1-.15,0-.27-.02-.37-.07-.1-.05-.18-.12-.24-.2-.06-.08-.11-.18-.13-.29-.03-.11-.04-.25-.04-.41v-1.34s0-.02,0-.03c0,0,.02-.02.03-.02.02,0,.04-.01.06-.01.03,0,.06,0,.1,0s.07,0,.1,0c.03,0,.05,0,.06.01.02,0,.03.02.03.02,0,0,0,.02,0,.03v1.28c0,.13,0,.23.03.31.02.08.05.14.09.2.04.05.09.1.15.13.06.03.13.05.21.05.1,0,.2-.04.3-.11.1-.07.21-.18.32-.32v-1.54s0-.02,0-.03c0,0,.02-.02.03-.02.02,0,.04-.01.06-.01.03,0,.06,0,.1,0s.07,0,.1,0c.03,0,.05,0,.06.01.01,0,.03.02.03.02,0,0,.01.02.01.03v2.21ZM35.19,25.14h-.35c-.11,0-.21,0-.29.03-.08.02-.15.05-.2.08-.05.04-.09.08-.12.13-.03.05-.04.11-.04.18,0,.11.04.21.11.27.07.07.17.1.31.1.11,0,.2-.03.3-.08s.19-.14.29-.25v-.47ZM35.59,26.14s0,.03-.02.04c-.01,0-.03.02-.05.02-.02,0-.06,0-.1,0s-.08,0-.1,0c-.03,0-.04-.01-.06-.02-.01,0-.02-.02-.02-.04v-.22c-.1.1-.2.18-.32.24-.12.06-.24.09-.38.09-.12,0-.22-.02-.31-.05-.09-.03-.17-.07-.24-.13-.07-.06-.12-.13-.15-.21-.04-.08-.06-.18-.06-.28,0-.12.03-.23.08-.32.05-.09.12-.17.22-.23.09-.06.21-.11.35-.14.14-.03.29-.05.46-.05h.3v-.17c0-.08,0-.16-.03-.23-.02-.07-.05-.12-.09-.16-.04-.04-.09-.08-.16-.1-.06-.02-.14-.03-.24-.03-.1,0-.19.01-.27.04s-.15.05-.21.08c-.06.03-.11.05-.15.08-.04.02-.07.04-.09.04-.01,0-.02,0-.03,0,0,0-.02-.02-.03-.03,0-.01-.01-.03-.02-.05,0-.02,0-.04,0-.07,0-.04,0-.07,0-.1,0-.02.02-.05.04-.07.02-.02.06-.05.11-.07.05-.03.12-.05.19-.08.07-.02.15-.04.23-.06.08-.02.17-.02.25-.02.16,0,.29.02.4.05.11.04.2.09.27.16.07.07.12.16.15.26.03.1.05.22.05.36v1.49ZM33.47,25.31c0,.15-.03.28-.08.4-.05.12-.13.21-.23.3-.1.08-.21.14-.34.18-.13.04-.27.06-.43.06-.11,0-.2,0-.3-.03s-.17-.04-.24-.07c-.07-.03-.13-.05-.18-.08-.05-.03-.08-.05-.1-.07-.02-.02-.03-.04-.04-.07,0-.03-.01-.07-.01-.12,0-.04,0-.07,0-.09,0-.02,0-.04.01-.06,0-.01.01-.02.02-.03,0,0,.02,0,.03,0,.02,0,.06.01.1.04.04.03.1.06.16.09.07.03.14.06.24.09.09.03.2.04.32.04.09,0,.18-.01.25-.04.08-.02.14-.06.2-.1.05-.04.1-.1.13-.17.03-.07.04-.14.04-.22,0-.09-.02-.17-.06-.23-.04-.06-.09-.12-.16-.17-.07-.05-.14-.09-.23-.13-.09-.04-.17-.08-.26-.12-.09-.04-.18-.09-.26-.14s-.16-.11-.23-.18c-.07-.07-.12-.15-.16-.24-.04-.09-.06-.2-.06-.33s.02-.25.07-.35c.05-.1.12-.19.2-.26.09-.07.19-.12.31-.16.12-.04.25-.06.38-.06.07,0,.14,0,.21.02s.14.03.2.05c.06.02.12.04.17.07.05.03.08.05.1.06s.03.03.03.04c0,0,0,.02.01.03,0,.01,0,.03,0,.05,0,.02,0,.05,0,.08s0,.06,0,.08c0,.02,0,.04-.01.06,0,.02-.01.03-.02.03,0,0-.02.01-.03.01-.02,0-.05-.01-.08-.03-.04-.02-.09-.05-.14-.08-.06-.03-.12-.05-.2-.08-.08-.02-.16-.04-.26-.04-.09,0-.17.01-.23.04-.07.02-.12.06-.16.09-.04.04-.07.09-.1.14-.02.05-.03.11-.03.17,0,.09.02.16.06.23.04.06.1.12.16.17.07.05.14.09.23.13.09.04.17.08.26.12.09.04.18.09.26.14.09.05.16.11.23.18s.12.15.16.24c.04.09.06.2.06.33"/>
        </g>
        <g>
          <path class="cls-1" d="M5.2,23.13c0-4.7,3.83-8.53,8.53-8.53s8.53,3.83,8.53,8.53-3.83,8.53-8.53,8.53-8.53-3.83-8.53-8.53M4.41,23.18c0,5.14,4.18,9.32,9.32,9.32s9.32-4.18,9.32-9.32-4.18-9.32-9.32-9.32-9.32,4.18-9.32,9.32"/>
          <g class="cls-7">
            <rect class="cls-1" x="4.41" y="13.86" width="18.65" height="18.65"/>
          </g>
        </g>
        <g>
          <polygon class="cls-1" points="13.08 14.32 13.73 25.32 14.21 14.32 13.08 14.32"/>
          <g class="cls-2">
            <rect class="cls-1" x="12.88" y="14.3" width="1.52" height="11.04" transform="translate(-.68 .49) rotate(-2)"/>
          </g>
        </g>
        <path class="cls-1" d="M11.72,13.67c5.83,1.8,7.21,7.57,7.21,7.57-.34-3.91-3.28-7.26-6.9-8.32l-.31.75Z"/>
        <g>
          <path class="cls-1" d="M13.6,13.63l.3.73c2.26-1.2,4.91-1.33,7.28-.33,4.32,1.81,6.36,6.8,4.55,11.12-1.01,2.4-3.06,4.35-5.5,5.13-.18.24-.42.48-.69.77,3.11-.53,5.79-2.63,7.03-5.58,1.99-4.74-.25-10.21-4.99-12.19-1.16-.49-2.38-.73-3.6-.73-1.5,0-3,.37-4.37,1.09"/>
          <g class="cls-6">
            <rect class="cls-1" x="9.24" y="9.96" width="23.66" height="23.66" transform="translate(-9.23 21.28) rotate(-45)"/>
          </g>
        </g>
        <path class="cls-1" d="M5.76,13.26C1.02,15.25-1.22,20.72.77,25.45c1.28,3.06,4.12,5.2,7.37,5.63-.37-.33-.55-.47-.8-.75-2.54-.73-4.68-2.73-5.72-5.2-1.81-4.32.23-9.31,4.55-11.12,2.36-.99,5.01-.87,7.28.33l.3-.73c-1.37-.73-2.87-1.09-4.37-1.09-1.22,0-2.44.24-3.6.73"/>
        <g>
          <path class="cls-1" d="M18.75,24.86s-2.28.34-5.02,1.51c.28.12.57.25.86.39l4.15-1.9ZM12.87,26.76c-1.39.66-2.85,1.54-4.15,2.69l5.02-2.29-.86-.39Z"/>
          <path class="cls-1" d="M8.72,24.86l4.15,1.9.86.39,5.02,2.29c-1.3-1.15-2.76-2.03-4.15-2.69-.29-.14-.58-.27-.86-.39-2.74-1.17-5.02-1.51-5.02-1.51"/>
        </g>
        <g>
          <path class="cls-1" d="M8.44,22.08s1.52-6.82,7.13-8.41l-.2-.76c-4.05,1.14-6.84,4.96-6.93,9.16"/>
          <g class="cls-5">
            <rect class="cls-1" x="6.25" y="11.74" width="11.52" height="11.52" transform="translate(-8.86 13.62) rotate(-45)"/>
          </g>
        </g>
        <g class="cls-3">
          <path class="cls-1" d="M21.53,13.22c-1.16-.49-2.38-.73-3.6-.73-1.37,0-2.74.31-4.01.91-.07.03-.14.07-.21.11-.03.01-.05.02-.08.04-.53-.27-1.08-.5-1.65-.67h0c-.87-.25-1.76-.39-2.66-.39-1.22,0-2.44.24-3.6.73C.98,15.21-1.26,20.68.72,25.41c1.28,3.06,4.12,5.2,7.37,5.63-.37-.33-.55-.47-.8-.75-2.54-.73-4.68-2.73-5.72-5.2-1.81-4.32.23-9.31,4.55-11.12,1.79-.75,3.75-.86,5.58-.35.26.08.52.17.76.27-4.56.61-8.09,4.52-8.09,9.24,0,5.14,4.18,9.32,9.32,9.32s9.32-4.18,9.32-9.32c0-4.77-3.6-8.71-8.22-9.26.04-.02.08-.03.12-.05.06-.02.11-.04.17-.06.11-.04.21-.07.32-.1,1.87-.56,3.88-.47,5.72.3,4.32,1.81,6.36,6.8,4.55,11.12-1.01,2.4-3.06,4.35-5.5,5.13-.18.24-.42.48-.69.77,3.11-.53,5.79-2.63,7.03-5.58,1.99-4.74-.25-10.21-4.99-12.19ZM22.22,23.09c0,4.7-3.83,8.53-8.53,8.53s-8.53-3.83-8.53-8.53c0-4.06,2.86-7.47,6.67-8.32-2.07,1.78-3.36,4.44-3.43,7.27,0,0,1.06-4.74,4.66-7.23l.63,10.48.46-10.53c3.76,2.37,4.73,6.44,4.73,6.44-.22-2.56-1.56-4.87-3.47-6.47,3.88.8,6.81,4.24,6.81,8.36Z"/>
          <path class="cls-1" d="M13.69,26.33c.06.03.12.06.18.08-.06-.03-.12-.06-.18-.08-2.74-1.17-5.02-1.51-5.02-1.51l4.15,1.9c-1.39.66-2.85,1.54-4.15,2.69l5.02-2.29-.35-.16.35.16,5.02,2.29c-1.3-1.15-2.76-2.03-4.15-2.69l4.15-1.9s-2.28.34-5.02,1.51Z"/>
        </g>
      </g>
    </g>
  </g>
</svg>