<?xml version="1.0" encoding="UTF-8"?>
<svg id="Layer_1" data-name="Layer 1" xmlns="http://www.w3.org/2000/svg" viewBox="0 0 90 45">
  <defs>
    <style>
      .cls-1 {
        fill: #fff;
      }
    </style>
  </defs>
  <path class="cls-1" d="M59.99,3.56c-4.65-.43-9.62-1.15-14.99-3.56l6.54,5.37c16.49,1.16,26.76,4.35,26.76,7.94s-10.26,6.78-26.76,7.94l-6.54,5.37c5.38-2.41,10.34-3.13,14.99-3.56,15.65-1.45,26.76-5.48,26.76-9.75s-11.11-8.3-26.76-9.75ZM59.93,22.35c-3.49.32-7.2.82-11.13,2.06l3.02-2.48c7.97-.57,14.71-1.63,19.49-3.07.68-.2,1.32-.42,1.91-.63h0s.03-.01.05-.02c.24-.09.47-.18.69-.27,3.6-1.42,8.67-3.97,11.54-6.04.36.48.54.95.54,1.41,0,3.21-9.15,7.48-26.12,9.05Z"/>
  <path class="cls-1" d="M3.25,13.31c0,4.27,11.11,8.3,26.76,9.75,4.65.43,9.62,1.15,14.99,3.56l-6.54-5.37c-16.49-1.16-26.76-4.35-26.76-7.94,0-3.59,10.26-6.78,26.76-7.94L45,0c-5.38,2.41-10.34,3.13-14.99,3.56C14.36,5.01,3.25,9.04,3.25,13.31ZM3.96,13.31c0-.45.18-.92.54-1.41,2.88,2.07,7.94,4.62,11.54,6.04.22.09.46.18.69.27.02,0,.03.01.05.02h0c.59.22,1.23.43,1.91.63,4.79,1.44,11.52,2.5,19.49,3.07l3.02,2.48c-3.93-1.25-7.64-1.74-11.13-2.06C13.11,20.78,3.96,16.52,3.96,13.31Z"/>
  <g>
    <path class="cls-1" d="M4.96,45c-2.49,0-4.51-2.02-4.51-4.51v-7.7h19.09v1.78H2.23v5.92c0,1.5,1.22,2.73,2.73,2.73h14.58v1.78H4.96Z"/>
    <path class="cls-1" d="M28.29,45c-2.48,0-4.51-2.02-4.51-4.51v-7.7h19.09v1.78h-17.31v3.43h11.35v1.78h-11.35v.71c0,1.5,1.22,2.73,2.73,2.73h14.58v1.78h-14.58Z"/>
    <path class="cls-1" d="M58.03,45h-6.4c-2.48,0-4.51-2.02-4.51-4.51v-7.7h19.09v1.78h-17.31v3.43h11.35v1.78h-11.35v.71c0,1.5,1.22,2.73,2.73,2.73h14.58v1.78h-8.18"/>
    <path class="cls-1" d="M87.77,45v-2.58c0-1.5-1.22-2.73-2.73-2.73h-12.8v5.31h-1.78v-12.21h19.09v2.37c0,1.26-.52,2.43-1.45,3.3l-.35.32.35.32c.92.85,1.45,2.06,1.45,3.3v2.58h-1.78ZM72.24,37.89h12.8c1.5,0,2.73-1.22,2.73-2.73v-.59h-15.53v3.32Z"/>
  </g>
</svg>