<?xml version="1.0" encoding="UTF-8"?>
<svg id="Layer_1" data-name="Layer 1" xmlns="http://www.w3.org/2000/svg" viewBox="0 0 90 45">
  <defs>
    <style>
      .cls-1 {
        fill: #fff;
      }
    </style>
  </defs>
  <path class="cls-1" d="M35.44,15.01c0-.12-.02-.27-.1-.37l1.85-1.85c.17.1.35.15.54.15s.39-.05.54-.15c.17-.1.32-.22.39-.39s.15-.35.15-.54-.05-.39-.15-.54c-.1-.17-.25-.3-.39-.39-.17-.1-.37-.15-.54-.15-.2,0-.37.05-.54.15l-1.85-1.85c.1-.17.12-.39.07-.59s-.17-.37-.32-.49c-.17-.12-.37-.17-.57-.17s-.39.1-.54.25c-.15.15-.22.32-.25.54,0,.2.05.39.17.57.12.17.3.27.49.32.2.05.39,0,.59-.07l1.85,1.85c-.1.17-.17.37-.17.57s.05.39.17.57l-1.85,1.85c-.12-.05-.25-.1-.37-.1-.17,0-.32.05-.47.15-.15.1-.25.22-.3.37-.07.15-.07.32-.05.49s.12.32.22.42c.12.12.27.2.42.22.17.02.32,0,.49-.05.15-.07.27-.17.37-.3.1-.15.15-.3.15-.47"/>
  <path class="cls-1" d="M33.12,11.85l1.21,1.21v-2.44l-1.21,1.21v.02Z"/>
  <path class="cls-1" d="M54.59,15.01c0-.12.02-.27.1-.37l-1.85-1.85c-.17.1-.35.15-.54.15s-.39-.05-.54-.15c-.17-.1-.32-.22-.42-.39s-.15-.35-.15-.54.05-.39.15-.54c.1-.17.25-.3.42-.39s.37-.15.54-.15c.2,0,.37.05.54.15l1.85-1.85c-.1-.17-.12-.39-.07-.59s.17-.37.32-.49c.17-.12.37-.17.57-.17s.39.1.54.25c.15.15.22.32.25.54,0,.2-.05.39-.17.57-.12.17-.3.27-.49.32-.2.05-.39,0-.59-.07l-1.85,1.85c.1.17.17.37.17.57s-.05.39-.17.57l1.85,1.85c.12-.05.25-.1.37-.1.17,0,.32.05.47.15.15.1.25.22.3.37.07.15.07.32.05.49s-.12.32-.22.42c-.12.12-.27.2-.42.22-.17.02-.32,0-.49-.05-.15-.07-.27-.17-.37-.3-.1-.15-.15-.3-.15-.47"/>
  <path class="cls-1" d="M56.89,11.85l-1.21,1.21v-2.44l1.21,1.21v.02Z"/>
  <path class="cls-1" d="M40.47,20.86c-.1-.1-.2-.17-.35-.2v-2.62c.2-.05.37-.15.49-.27.15-.12.25-.3.3-.49s.05-.37,0-.57-.15-.35-.27-.49c-.15-.15-.3-.22-.49-.27s-.39-.05-.57,0c-.2.05-.35.15-.49.3-.12.15-.22.32-.27.49h-2.64c-.05-.12-.1-.25-.2-.32-.12-.12-.27-.2-.42-.22-.17-.02-.32,0-.49.05-.15.07-.27.17-.37.3-.1.15-.15.3-.15.47s.05.32.15.47c.1.15.22.25.37.3.15.07.32.07.49.05.17-.02.32-.12.42-.22s.17-.2.2-.35h2.64c.05.2.15.37.27.52.15.15.32.25.52.27v2.62c-.12.05-.25.1-.35.2-.12.12-.2.27-.22.42-.02.17,0,.32.05.49.07.15.17.27.3.37.15.1.3.15.47.15s.32-.05.47-.15c.15-.1.25-.22.3-.37.07-.15.07-.32.05-.49s-.12-.32-.22-.42"/>
  <path class="cls-1" d="M36.6,20.24h1.73l-1.73-1.73v1.73Z"/>
  <path class="cls-1" d="M54.03,7.33c-.1-.1-.17-.2-.2-.32h-2.64c-.05.2-.15.37-.27.49-.12.15-.3.25-.49.3s-.39.05-.57,0c-.2-.05-.37-.15-.49-.27-.15-.15-.22-.3-.27-.49-.05-.2-.05-.39,0-.57.05-.2.15-.35.3-.49.15-.12.32-.22.49-.27v-2.62c-.12-.05-.25-.1-.35-.2-.12-.12-.2-.27-.22-.42-.02-.17,0-.32.05-.49.07-.15.17-.27.3-.37.15-.1.3-.15.47-.15s.32.05.47.15c.15.1.25.22.3.37.07.15.07.32.05.49s-.12.32-.22.42-.2.17-.35.2v2.62c.2.05.37.15.52.27.15.15.25.32.27.52h2.64c.05-.12.1-.25.2-.32.12-.12.27-.2.42-.22.17-.02.32,0,.49.05.15.07.27.17.37.3.1.15.15.3.15.47s-.05.32-.15.47c-.1.15-.22.25-.37.3-.15.07-.32.07-.49.05-.17-.02-.32-.12-.42-.22"/>
  <path class="cls-1" d="M53.41,3.46v1.73l-1.73-1.73h1.73Z"/>
  <path class="cls-1" d="M36.01,7.33c.1-.1.17-.2.2-.32h2.64c.05.2.15.37.27.49.12.15.3.25.49.3s.39.05.57,0c.2-.05.37-.15.49-.27.15-.15.25-.3.27-.49.05-.2.05-.39,0-.57-.05-.2-.15-.35-.3-.49-.15-.12-.32-.22-.49-.27v-2.62c.12-.05.25-.1.35-.2.12-.12.2-.27.22-.42.02-.17,0-.32-.05-.49-.07-.15-.17-.27-.3-.37-.15-.1-.3-.15-.47-.15s-.32.05-.47.15c-.15.1-.25.22-.3.37-.07.15-.07.32-.05.49s.12.32.22.42.2.17.35.2v2.62c-.2.05-.37.15-.52.27s-.25.32-.27.52h-2.64c-.05-.12-.1-.25-.2-.32-.12-.12-.27-.2-.42-.22-.17-.02-.32,0-.49.05-.15.07-.27.17-.37.3-.1.15-.15.3-.15.47s.05.32.15.47c.1.15.22.25.37.3.15.07.32.07.49.05.17-.02.32-.12.42-.22"/>
  <path class="cls-1" d="M36.6,3.46v1.73l1.73-1.73h-1.73Z"/>
  <path class="cls-1" d="M49.53,20.86c.1-.1.2-.17.35-.2v-2.62c-.2-.05-.37-.15-.49-.27-.15-.12-.25-.3-.3-.49s-.05-.37,0-.57.15-.35.27-.49c.15-.15.3-.22.49-.27s.39-.05.57,0,.35.15.49.3.22.32.27.49h2.64c.05-.12.1-.25.2-.32.12-.12.27-.2.42-.22.17-.02.32,0,.49.05.15.07.27.17.37.3.1.15.15.3.15.47s-.05.32-.15.47c-.1.15-.22.25-.37.3-.15.07-.32.07-.49.05-.17-.02-.32-.12-.42-.22s-.17-.2-.2-.35h-2.64c-.05.2-.15.37-.27.52-.15.15-.32.25-.52.27v2.62c.12.05.25.1.35.2.12.12.2.27.22.42.02.17,0,.32-.05.49-.07.15-.17.27-.3.37-.15.1-.3.15-.47.15s-.32-.05-.47-.15c-.15-.1-.25-.22-.3-.37-.07-.15-.07-.32-.05-.49s.12-.32.22-.42"/>
  <path class="cls-1" d="M53.41,20.24h-1.73l1.73-1.73v1.73Z"/>
  <path class="cls-1" d="M48.18,21.43c-.12,0-.27.02-.37.1l-1.85-1.85c.1-.17.15-.35.17-.54,0-.2-.05-.39-.15-.54-.1-.17-.22-.32-.39-.39-.17-.1-.35-.15-.54-.15s-.39.05-.54.15c-.17.1-.3.25-.39.39-.1.17-.15.37-.15.54,0,.2.05.37.17.54l-1.85,1.85c-.17-.1-.39-.12-.59-.07-.2.05-.37.17-.49.32-.12.17-.17.37-.17.57s.1.39.25.54.32.22.54.25c.2,0,.39-.05.57-.15.17-.12.27-.3.32-.49s0-.39-.07-.59l1.85-1.85c.17.1.37.17.57.17s.39-.05.57-.17l1.85,1.85c-.05.12-.1.25-.1.37,0,.17.05.32.15.47.1.15.22.25.37.3.15.07.32.07.49.05.17-.02.32-.12.42-.22.12-.12.2-.27.22-.42.02-.17,0-.32-.05-.49-.07-.15-.17-.27-.3-.37-.15-.1-.3-.15-.47-.15"/>
  <path class="cls-1" d="M45.02,23.72l1.23-1.21h-2.44l1.23,1.21h-.02Z"/>
  <path class="cls-1" d="M48.18,2.3c-.12,0-.27-.02-.37-.1l-1.85,1.85c.1.17.15.35.17.54s-.05.39-.15.54c-.1.17-.22.32-.39.39-.17.1-.35.15-.54.15s-.39-.05-.54-.15c-.17-.1-.3-.25-.39-.39-.1-.17-.15-.37-.15-.54s.05-.37.17-.54l-1.85-1.85c-.17.1-.39.12-.59.07-.2-.05-.37-.17-.49-.32-.12-.17-.17-.37-.17-.57s.1-.39.25-.54c.15-.15.32-.22.54-.25.2,0,.39.05.57.15.17.12.27.3.32.49s0,.39-.07.59l1.85,1.85c.17-.1.37-.17.57-.17s.39.05.57.17l1.85-1.85c-.05-.12-.1-.25-.1-.37,0-.17.05-.32.15-.47.1-.15.22-.25.37-.3.15-.07.32-.07.49-.05s.32.12.42.22c.12.12.2.27.22.42.02.17,0,.32-.05.49-.07.15-.17.27-.3.37-.15.1-.3.15-.47.15"/>
  <path class="cls-1" d="M45.02,0l1.23,1.21h-2.44l1.23-1.21h-.02Z"/>
  <path class="cls-1" d="M44.69,11.03l.32.79.32-.79c.07-.17.12-.37.17-.54.3-1.06.22-2.2-.17-3.21l-.3-.79-.32.79c-.25.59-.37,1.23-.37,1.88s.12,1.28.37,1.9"/>
  <path class="cls-1" d="M44.23,11.48l.79.35-.35-.79c-.07-.17-.17-.35-.27-.52-.54-.96-1.38-1.7-2.42-2.15l-.77-.32.32.77c.25.59.62,1.14,1.09,1.58.47.47.99.81,1.6,1.09"/>
  <path class="cls-1" d="M44.23,12.14l.79-.32-.79-.32c-.17-.07-.37-.12-.54-.17-1.06-.3-2.2-.22-3.23.17l-.79.3.79.32c.59.25,1.23.37,1.88.37s1.28-.12,1.9-.37"/>
  <path class="cls-1" d="M44.67,12.61l.35-.79-.79.35c-.17.07-.35.17-.52.27-.96.54-1.7,1.38-2.15,2.39l-.35.77.77-.32c.59-.25,1.14-.62,1.58-1.06.47-.47.81-.99,1.09-1.58"/>
  <path class="cls-1" d="M45.31,12.61l-.32-.79-.32.79c-.07.17-.12.37-.17.54-.3,1.06-.22,2.2.17,3.21l.3.79.32-.79c.25-.59.37-1.23.37-1.88s-.12-1.28-.37-1.9"/>
  <path class="cls-1" d="M45.78,12.17l-.79-.35.35.79c.07.17.17.35.27.52.54.96,1.38,1.7,2.42,2.15l.77.32-.32-.77c-.25-.59-.62-1.14-1.09-1.58-.47-.47-.99-.81-1.6-1.09h0Z"/>
  <path class="cls-1" d="M45.81,11.53l-.79.32.79.32c.17.07.37.12.54.17,1.06.3,2.2.22,3.23-.17l.79-.3-.79-.32c-.59-.25-1.23-.37-1.88-.37s-1.28.12-1.9.37"/>
  <path class="cls-1" d="M45.36,11.06l-.35.79.79-.35c.17-.07.35-.17.52-.27.96-.54,1.7-1.38,2.15-2.39l.32-.77-.77.32c-.59.25-1.14.62-1.58,1.06-.47.47-.81.99-1.09,1.58"/>
  <path class="cls-1" d="M33.12,42.16h0c-.22-.15-.47-.3-.69-.42-.25-.15-.47-.27-.67-.39-.17-.1-.35-.25-.49-.39-.05-.05-.1-.1-.12-.17s-.05-.12-.05-.2,0-.17.02-.25.07-.15.12-.22c.25-.2.64-.2,1.06,0,.25.12.47.3.64.49l.12.15.42-.77-.12-.07c-.2-.12-.42-.22-.67-.27-.44-.12-.89-.12-1.33,0-.2.05-.37.12-.54.22-.15.1-.3.22-.39.39-.1.2-.17.42-.15.64,0,.22.1.44.25.62.15.2.35.35.54.49.22.15.44.3.69.39.22.12.44.25.67.39.17.12.35.27.49.44.12.15.17.32.17.52,0,.12,0,.22-.07.32-.05.1-.12.2-.2.27-.1.07-.2.12-.3.15-.35.12-.77.05-1.18-.15-.3-.15-.54-.39-.69-.67l-.12-.2-.49.79v.05s.07.07.07.07c.27.17.57.3.89.39.32.1.64.15.99.15.25,0,.47-.02.72-.07.22-.05.42-.15.62-.27.17-.12.32-.3.42-.49.12-.22.17-.47.17-.72s-.07-.49-.25-.69c-.15-.2-.35-.37-.54-.52v-.02Z"/>
  <path class="cls-1" d="M38.7,40.38c0-.15.02-.3.05-.44,0-.05.02-.1.05-.12l.22-.25h-1.58l.2.25h0s.05.07.05.12c.02.15.05.3.05.44v1.63h-2.17v-1.63c0-.15.02-.3.05-.44,0-.05.02-.1.05-.12l.22-.25h-1.58l.2.25h0s.05.07.05.12c.02.15.05.3.05.44v3.7c0,.15-.02.3-.05.44,0,.05-.02.07-.05.12h0l-.22.25h1.58l-.2-.25h0s-.05-.07-.05-.12c-.02-.15-.05-.3-.05-.44v-1.6h2.17v1.6c0,.15-.02.3-.05.44,0,.05-.02.07-.05.12l-.22.25h1.58l-.2-.25s-.05-.07-.05-.12c-.02-.15-.05-.3-.05-.44v-3.68"/>
  <path class="cls-1" d="M43.11,39.82s.05.07.05.12c.02.15.05.3.05.44v2.91l-2.67-3.7h0s-1.09-.02-1.09-.02l.2.25h0s.05.07.05.12c.02.15.05.3.05.44v3.68c0,.15-.02.3-.05.44,0,.05-.02.1-.05.12l-.22.25h1.06l-.17-.25s-.05-.07-.05-.12c-.02-.15-.05-.3-.05-.44v-3.43l3.09,4.25h.37v-4.52c0-.15.02-.3.05-.44,0-.05.02-.1.05-.12l.17-.25h-1.04l.17.25.02.02Z"/>
  <path class="cls-1" d="M24.08,44.63c-.1-.05-.22-.1-.32-.17-.17-.1-.32-.22-.47-.35-.17-.15-.32-.3-.49-.44-.15-.15-.3-.32-.44-.47-.12-.12-.22-.27-.3-.42-.05-.07-.1-.15-.1-.25v-.05s0-.02.05-.05c.07-.07.17-.12.25-.17.1-.07.22-.12.35-.2s.27-.17.37-.27c.12-.1.22-.25.3-.37.1-.17.12-.35.12-.54,0-.17-.05-.35-.12-.49-.07-.17-.2-.32-.35-.42-.17-.12-.37-.22-.59-.27-.27-.07-.54-.1-.81-.1h-2.22l.2.25h0s.05.07.05.12c.02.15.05.3.05.44v3.7c0,.15-.02.3-.05.44,0,.05-.02.07-.05.12h0l-.22.25h1.58l-.2-.25h0s-.05-.07-.05-.12c-.02-.15-.05-.3-.05-.44v-4.15h.99c.32,0,.54.1.72.27.17.22.25.49.25.77,0,.2-.05.39-.15.57-.1.15-.22.3-.35.42l-.37.35c-.07.05-.12.12-.17.22-.05.07-.05.17-.05.27,0,.17.05.35.12.52.07.2.2.37.32.57s.27.39.44.57c.17.17.35.35.52.49h.05s1.85.02,1.85.02l-.64-.3h0v-.07Z"/>
  <path class="cls-1" d="M28.75,40.24c-.25-.22-.52-.39-.84-.49-.62-.22-1.28-.22-1.9,0-.32.1-.59.27-.84.49-.25.25-.44.52-.59.84-.3.74-.3,1.58,0,2.32.15.32.35.59.59.84.25.22.52.39.84.49.62.22,1.28.22,1.9,0,.32-.1.59-.27.84-.49.25-.25.44-.52.59-.84.3-.74.3-1.58,0-2.32-.15-.32-.35-.59-.59-.84M28.62,43.07c-.05.3-.15.57-.32.81-.12.2-.32.37-.52.49-.17.1-.39.15-.59.17-.2,0-.42-.02-.62-.12-.2-.07-.37-.2-.52-.35-.17-.17-.32-.39-.44-.62-.15-.3-.22-.59-.27-.91-.07-.37-.07-.77,0-1.14.05-.3.15-.57.32-.81.12-.2.32-.37.52-.49.2-.1.42-.17.64-.17.2,0,.37.05.57.12s.37.2.52.37c.17.2.32.39.44.62.15.3.22.59.3.91.07.37.07.74,0,1.14l-.02-.02Z"/>
  <path class="cls-1" d="M48.69,42.51h.54c.1,0,.17,0,.27.02.05,0,.07.05.12.07.02.02.05.07.05.12v.77c0,.15-.02.3-.07.42s-.15.25-.27.32c-.12.1-.25.17-.37.2-.15.05-.3.07-.47.07-.25,0-.52-.07-.74-.2s-.42-.3-.59-.52c-.17-.22-.32-.47-.42-.74s-.17-.57-.22-.86c-.02-.27-.02-.57,0-.86.05-.25.12-.52.27-.74.12-.22.32-.39.54-.49.27-.12.54-.2.84-.2.27,0,.54.07.77.17.27.12.52.32.72.54l.12.15.44-.72-.12-.07c-.27-.15-.54-.27-.86-.35-.64-.17-1.31-.15-1.93.05-.32.1-.64.27-.89.49-.27.22-.47.52-.62.84-.15.37-.25.77-.22,1.18,0,.37.07.77.22,1.11.15.32.35.59.59.84.25.22.54.42.86.54s.67.17,1.01.17c.37,0,.74-.07,1.11-.2.39-.15.74-.37,1.06-.64l.05-.05v-.96c0-.25.02-.49.07-.72v-.17s-1.88,0-1.88,0v.39Z"/>
  <path class="cls-1" d="M70.51,40.43c-.15-.27-.39-.49-.69-.62-.37-.17-.79-.25-1.21-.25h-2.17l.2.25h0s.05.07.05.12c.02.15.05.3.05.44v3.68c0,.15-.02.3-.05.44,0,.05-.02.1-.05.12l-.22.25h1.58l-.22-.25s-.05-.07-.05-.12c-.02-.15-.05-.3-.05-.44v-4.17h.96c.25,0,.47.05.67.17.17.1.3.27.39.44.1.2.12.39.12.62,0,.25-.07.47-.17.69-.12.25-.3.44-.49.62-.22.17-.47.35-.72.49l-.64.39.74-.12c.37-.07.72-.2,1.04-.42.3-.17.57-.42.79-.72.2-.25.3-.54.35-.84.05-.3,0-.57-.15-.84l-.05.05Z"/>
  <path class="cls-1" d="M65.31,39.82h0s.05.07.05.12c.02.15.05.3.05.44v2.72c0,.2-.05.39-.12.57s-.2.3-.32.42c-.15.12-.3.2-.47.27-.32.12-.69.12-1.04,0-.15-.05-.3-.12-.42-.25s-.22-.27-.3-.42c-.07-.2-.12-.39-.12-.59v-2.72c0-.15.02-.3.05-.42,0-.05.02-.1.05-.12l.17-.25h-1.48l.17.25s.05.07.05.12c.02.15.05.3.05.44v2.72c0,.27.05.54.17.79.1.22.27.42.47.57.2.15.42.27.64.35.47.15.99.15,1.46,0,.25-.07.44-.2.64-.35.2-.17.37-.37.49-.62.1-.25.17-.49.15-.77v-2.72c0-.15.02-.3.05-.44,0-.05.02-.1.05-.12l.17-.25h-1.04l.2.25h.17Z"/>
  <path class="cls-1" d="M60.27,40.24c-.25-.22-.52-.39-.84-.49-.62-.22-1.28-.22-1.9,0-.32.1-.59.27-.84.49-.25.25-.44.52-.59.84-.3.74-.3,1.58,0,2.32.15.32.35.59.59.84.25.22.52.39.84.49.62.22,1.28.22,1.9,0,.32-.1.59-.27.84-.49.25-.25.44-.52.59-.84.3-.74.3-1.58,0-2.32-.15-.32-.35-.59-.59-.84M60.12,43.07c-.05.3-.15.57-.32.81-.12.2-.32.37-.52.49-.17.1-.39.15-.59.17-.2,0-.42-.02-.62-.12-.2-.07-.37-.2-.52-.35-.17-.17-.32-.39-.44-.62-.15-.3-.22-.59-.27-.91-.07-.37-.07-.77,0-1.14.05-.3.15-.57.32-.81.12-.2.32-.37.52-.49.2-.1.42-.17.64-.17.2,0,.37.05.54.12.2.07.37.2.52.37.17.17.32.39.44.62.15.3.25.59.3.91.07.37.07.74,0,1.14"/>
  <path class="cls-1" d="M55.78,44.63c-.1-.05-.22-.1-.32-.17-.17-.1-.32-.22-.47-.35-.17-.15-.32-.3-.49-.44-.15-.15-.3-.32-.42-.47-.12-.12-.22-.27-.3-.42-.05-.07-.1-.15-.1-.25v-.05s0-.02.05-.05c.07-.07.17-.12.25-.17.12-.07.22-.12.35-.2s.27-.17.37-.27c.12-.1.22-.25.3-.37.1-.17.12-.35.12-.54,0-.17-.05-.35-.12-.52-.07-.15-.2-.3-.35-.39-.17-.12-.37-.22-.59-.27-.27-.07-.54-.1-.81-.1h-2.22l.2.25h0s.05.07.05.12c.02.15.05.3.05.44v3.7c0,.15-.02.3-.05.44,0,.05-.02.07-.05.12l-.22.25h1.58l-.2-.25s-.05-.07-.05-.12c-.02-.15-.05-.3-.05-.44v-4.15h.99c.32,0,.54.1.72.27.17.22.25.49.25.77,0,.2-.05.39-.15.57-.1.15-.22.3-.35.42l-.37.35c-.07.05-.12.12-.17.22-.05.07-.05.17-.05.25,0,.17.05.35.12.52.07.2.2.37.3.57.12.2.27.39.44.57s.35.35.52.49h.05s1.85.02,1.85.02l-.64-.3v-.05Z"/>
  <path class="cls-1" d="M53.14,37.5c-.47,0-.91-.1-1.33-.3l-.15-.07.05-.12c.57.05.32.05,1.23.05,1.26,0,1.14-1.01,1.14-1.01h-1.21s-1.65,0-1.65-1.95,1.01-2.1,2.02-2.1,1.7.69,1.7,1.63v1.9h.17c.35,0,.72-.25.72-.94v-.81c0-1.06.77-1.8,1.85-1.8s1.88.52,1.88,1.97v.64c0,.69.25.94.94.94h3.95c-.22-.32-.37-.79-.54-1.26-.3-.91-.59-1.85-1.41-1.85s-1.36.72-1.75,1.38l-.3.49.05-1.48c.74-.62,1.51-.81,1.97-.81,1.68,0,2.07,1.28,2.39,2.3.25.77.39,1.23.86,1.23h.37c.35,0,.72-.25.72-.94v-.81c0-1.06.77-1.8,1.85-1.8s1.88.67,1.88,2.1-.91,2.1-1.75,2.1c-.27,0-.54-.05-.79-.15-.25-.1-.47-.25-.67-.44-.12.15-.27.25-.44.35-.17.07-.37.12-.54.12h-6.07c-.62,0-1.06-.17-1.31-.49-.15.2-.35.35-.57.47-.22.1-.47.15-.72.15s-.49-.05-.74-.15c-.22-.1-.44-.25-.62-.42-.12.15-.27.25-.44.32s-.37.12-.54.12h-.44c0,1.01-.74,1.43-1.8,1.43M68.74,32.41c-.67,0-.96.47-.99,1.6v.74c0,.22-.07.42-.17.62.22.15.64.37,1.04.37.15,0,.27-.02.39-.1.12-.05.25-.15.32-.25.22-.3.35-.74.35-1.33,0-1.09-.49-1.65-.96-1.65M57.73,32.41c-.67,0-.96.47-.99,1.58v.74c0,.22-.07.42-.17.62.3.2.64.32,1.01.35.15,0,.3-.02.42-.1.12-.05.25-.15.35-.25.25-.3.35-.72.35-1.31,0-1.14-.49-1.63-.96-1.63M53.14,32.41c-.49,0-.99.57-.99,1.65s.49,1.51.96,1.51h.99v-1.73c0-.89-.37-1.41-.96-1.41v-.02ZM62.81,37.42c-.1,0-.2-.02-.27-.07s-.15-.12-.2-.22-.05-.2-.02-.3c0-.1.07-.2.12-.25.07-.07.15-.12.25-.15.1,0,.2,0,.3.02.1.05.17.1.22.17s.07.17.07.27c0,.12-.05.25-.15.35-.1.1-.22.15-.35.15l.02.02ZM45.88,36.06c-.79,0-1.26-.54-1.28-1.46v-2c-1.53,0-1.78,1.06-1.78,1.68s.25,1.14,1.16,1.14h.15v.25h-.39c-1.36,0-1.63-.72-1.63-1.36,0-.89.72-2.15,2.67-2.15h.67v2.52c0,.69.37.94.72.94h1.58c-.39-.37-.62-.91-.62-1.53,0-1.31,1.01-2,1.95-2s1.68.47,1.68.47l-.27.77-.15-.2c-.25-.35-.74-.69-1.26-.69s-1.06.52-1.06,1.46.49,1.73,1.38,1.73h.86c.54,0,.57,0,.67-.05s.2-.1.27-.17l-.1.72h-5.16l-.05-.05ZM44.84,31.77c-.12,0-.27-.05-.35-.15-.1-.1-.15-.22-.15-.35s.05-.27.15-.35c.1-.1.22-.15.35-.15s.27.05.35.15c.1.1.15.22.15.35s-.05.27-.15.35c-.1.1-.22.15-.35.15ZM43.34,31.77c-.1,0-.2-.02-.27-.07s-.15-.12-.2-.22-.05-.2-.02-.3c0-.1.07-.2.12-.25.07-.07.15-.12.25-.15.1,0,.2,0,.3.02.1.05.17.1.22.17s.07.17.07.27c0,.12-.05.27-.15.35-.1.1-.22.15-.35.15l.02.02Z"/>
  <path class="cls-1" d="M38.94,32.11s.07.1.1.15c.05.07.07.12.12.2,0,.02,0,.07.02.1,0,.1.02.2.05.27v3.11c0,.81-.2,1.14-.67,1.14s-.77-.1-.77-.1l-.12.27.15.07c.27.12.59.2.89.2.89,0,1.41-.59,1.41-1.56v-3.06c0-.15,0-.3.05-.44.05-.12.1-.22.15-.35h-1.38Z"/>
  <path class="cls-1" d="M37.49,35.57v-1.9c0-.94-.72-1.63-1.7-1.63s-2.02.72-2.02,2.1c0,1.95,1.65,1.95,1.65,1.95h1.21s.12.99-1.14,1.01c-.94,0-.67,0-1.23-.05l-.05.12.15.07c.42.2.89.3,1.33.3,1.09,0,1.8-.42,1.8-1.43v-.54ZM35.64,35.57c-.47,0-.96-.39-.96-1.51s.49-1.65.99-1.65.94.52.94,1.41v1.73h-.99l.02.02Z"/>
  <path class="cls-1" d="M29.02,31.77c.1,0,.2-.02.27-.07.07-.05.15-.12.2-.22.05-.1.05-.2.02-.3,0-.1-.07-.2-.12-.25-.07-.07-.15-.12-.25-.15-.1,0-.2,0-.3.02-.1.05-.17.1-.22.17-.05.07-.07.17-.1.27,0,.12.05.25.15.35s.22.15.35.15v.02Z"/>
  <path class="cls-1" d="M30.01,31.28c0,.1.02.2.07.27.05.07.12.15.22.17.1.05.2.05.3.02.1,0,.17-.07.25-.12.07-.07.12-.15.15-.25s0-.2-.02-.3c-.05-.1-.1-.17-.17-.22-.07-.05-.17-.07-.27-.07-.12,0-.25.05-.35.15-.1.1-.15.22-.15.35h-.02Z"/>
  <path class="cls-1" d="M29.76,30.66c.1,0,.2-.02.27-.07.07-.05.15-.12.2-.22.05-.1.05-.2.02-.3,0-.1-.07-.2-.12-.25-.07-.07-.15-.12-.25-.15-.1,0-.2,0-.3.02-.1.05-.17.1-.22.17-.05.07-.07.17-.07.27,0,.07,0,.12.02.2,0,.05.05.12.1.17.05.05.1.07.17.1.05.02.12.05.2.05h-.02Z"/>
  <path class="cls-1" d="M22.03,32.36c.1,0,.2-.02.27-.07.07-.05.15-.12.2-.22.05-.1.05-.2.02-.3,0-.1-.07-.2-.12-.25-.07-.07-.15-.12-.25-.15-.1,0-.2,0-.3.02-.1.02-.17.1-.22.17-.05.07-.07.17-.1.27,0,.12.05.25.15.35s.22.15.35.15v.02Z"/>
  <path class="cls-1" d="M31.78,32.44c.02.07.05.15.05.2.02.2.05.42.05.62v1.48c0,.69-.37.94-.72.94s-.94-.42-.96-1.16v-1.26c0-.15,0-.27.05-.42.05-.12.1-.22.15-.35h-1.41s.12.17.12.2c.1.17.15.37.15.57,0,.25.02.52.02.81v.64c0,.69-.37.94-.72.94s-.94-.42-.96-1.33c0-.42,0-.84.05-1.23.02-.1.07-.2.15-.3h-1.38l.15.22c.1.17.15.37.12.57,0,.17,0,.37.02.54v.57c0,.77-.62,1.11-1.18,1.11s-1.11-.3-1.18-.94v-.44c0-.35,0-.69.02-1.04,0-.12,0-.25.07-.37l.1-.2h-1.38c.05.07.1.15.15.22.15.25.15.64.15.91v1.31c0,1.21-.57,1.8-1.73,1.8s-2.05-.77-2.05-1.8c0-1.6,1.58-1.6,1.58-1.6l-.67-.77c-.81.39-1.33,1.26-1.33,2.27s1.04,2.32,2.52,2.32,2.32-.64,2.52-1.83c.35.39.94.57,1.48.57s1.38-.27,1.68-.84c.15.22.35.42.57.54s.49.2.77.2c.25,0,.49-.05.72-.2.22-.12.39-.32.49-.54.15.22.35.42.57.54s.49.2.77.2c.64,0,1.36-.42,1.36-1.38v-1.85c0-.17,0-.35.05-.49.05-.1.1-.22.15-.32h-1.38s.07.1.1.15c.02.05.07.12.1.17"/>
</svg>