<?xml version="1.0" encoding="UTF-8"?>
<svg id="Layer_1" data-name="Layer 1" xmlns="http://www.w3.org/2000/svg" viewBox="0 0 90 45">
  <defs>
    <style>
      .cls-1 {
        fill: #fff;
      }
    </style>
  </defs>
  <path class="cls-1" d="M88.52,10.18c.81,0,1.48-.65,1.48-1.48s-.66-1.48-1.48-1.48-1.48.64-1.48,1.48.66,1.48,1.48,1.48M88.52,7.51c.65,0,1.17.51,1.17,1.18s-.52,1.19-1.17,1.19-1.18-.53-1.18-1.19.52-1.18,1.18-1.18"/>
  <path class="cls-1" d="M88.23,9.47v-.61h.37l.3.61h.32l-.34-.66c.16-.08.27-.21.27-.44,0-.32-.23-.47-.48-.47h-.48c-.16,0-.24.08-.24.21v1.35h.28ZM88.24,8.14h.41c.12,0,.21.08.21.23s-.1.24-.24.24h-.39v-.46h.01Z"/>
  <path class="cls-1" d="M32.94,10.15c3.1,0,3.48,3.19,3.48,3.19l3.68-.87c-.02-.09-.66-5.6-7.16-5.6-4.02,0-7.78,2.46-7.78,8.73s3.95,8.62,8.05,8.62c2.79,0,4.75-.93,5.44-1.32.89-.52,1.39-1.02,1.39-2.1v-3.84c0-1-.66-1.61-1.75-1.61h-5.05v2.84h3.17v2.21s-1.12.75-3.08.75c-2.07,0-4.24-1.25-4.24-5.55s1.88-5.45,3.84-5.45"/>
  <path class="cls-1" d="M49.31,6.85c-1.54,0-2.48.66-2.93,2.03l-5,15.13h3.95c.28,0,.61-.17.8-.36l4.76-4.71c.1-.1.07-.15-.05-.15h-.64c-.27,0-.52.07-.75.2l-3.2,1.84,3.04-10.27s3.62,12.44,3.91,13.44h4.07l-4.93-15.15c-.42-1.26-1.46-1.99-3.03-1.99"/>
  <path class="cls-1" d="M65.67,10.1c3.1,0,3.5,3.41,3.5,3.41l3.68-.78s-.55-5.87-7.19-5.87c-4.02,0-7.78,2.39-7.78,8.66s3.73,8.71,7.76,8.71c6.5,0,7.21-5.73,7.21-5.73l-3.68-.8s-.29,3.3-3.46,3.3c-1.96,0-3.86-1.25-3.86-5.49-.01-4.19,1.86-5.42,3.82-5.42"/>
  <path class="cls-1" d="M81.72,6.85c-1.54,0-2.48.66-2.94,2.03l-5,15.13h3.95c.28,0,.61-.17.8-.36l4.76-4.71c.1-.1.07-.15-.05-.15h-.64c-.27,0-.53.07-.75.2l-3.2,1.84,3.04-10.27s3.62,12.44,3.91,13.44h4.08l-4.93-15.15c-.42-1.26-1.45-1.99-3.03-1.99"/>
  <path class="cls-1" d="M23.96,23.8c-1.99-.65-3.55-2.34-3.9-4.83l-.93-6.66c-.44-3.1-2.71-5.2-5.37-5.26H.1c-.06,0-.1.04-.1.1s.02.11.06.11c1.99.65,3.55,2.35,3.9,4.85l.93,6.66c.44,3.09,2.71,5.2,5.37,5.27h13.65c.06,0,.1-.06.1-.12,0-.06-.02-.1-.06-.12ZM9.5,13.35c.23-.23.52-.42.79-.6.34-.21.69-.42,1.06-.59.1-.05.21-.1.32-.15-.62-.36-1.37-.65-1.91-.83-.01,0-.02-.02-.02-.03s0-.01.01-.01c.17-.17.37-.28.62-.26.21.02.43.08.64.12.24.06.46.12.7.2.14.05.26.09.39.14.02.01.05.01.07.02.08-.74.3-1.28.57-1.28s.5.54.57,1.28c.02-.01.04-.02.07-.02.12-.04.26-.1.39-.14.23-.08.46-.14.7-.2.21-.06.43-.11.64-.12.25-.02.45.09.62.26h.01s0,.04-.02.04c-.54.18-1.3.47-1.91.83.1.05.21.09.32.15.37.17.72.37,1.06.59.27.17.55.37.79.6.23.21.27.5.24.8t-.01.02s-.03.02-.05.01c-.62-.37-1.63-.81-2.42-1.07-.1-.03-.25-.08-.39-.11-.08,2.75-.34,4.89-.61,4.89s-.53-2.14-.59-4.89c-.14.03-.28.08-.39.11-.79.26-1.8.7-2.42,1.07-.01.01-.03.01-.05-.01,0-.01-.01-.01-.01-.02-.03-.29.01-.57.24-.8ZM12.06,18.86l-.78.29-1.61-.86c-.06-.03-.06-.06.01-.06h.62c.09-.01.2,0,.27.03l1.49.59ZM9.78,21.2h-2.43c-.07,0-.07-.02-.01-.05l7.46-2.84c.07-.03.19-.05.26-.05h.62c.07,0,.07.02.01.06l-5.11,2.71c-.3.16-.5.16-.79.16ZM18.09,21.2h-2.43c-.29,0-.48,0-.79-.16l-1.67-.88.96-.51,3.93,1.5c.07.02.07.05,0,.05Z"/>
  <path class="cls-1" d="M25.69,35.66c0-.97.51-1.62,1.3-1.62.52,0,.82.3,1,.66l-.43.19c-.11-.23-.3-.41-.57-.41-.45,0-.75.45-.75,1.16s.3,1.16.75,1.16c.24,0,.43-.11.53-.23v-.56h-.66v-.45h1.16v1.24c-.25.29-.59.48-1.03.48-.78,0-1.3-.66-1.3-1.63"/>
  <path class="cls-1" d="M28.5,36.09c0-.65.37-1.19.98-1.19s.96.52.96,1.21v.14h-1.45c.02.37.23.65.6.65.18,0,.38-.09.52-.25l.23.28c-.19.23-.48.35-.79.35-.63.01-1.04-.47-1.04-1.18M29.48,35.28c-.36,0-.48.36-.51.63h1c0-.28-.12-.63-.5-.63"/>
  <path class="cls-1" d="M32.23,37.23v-1.54c0-.27-.12-.36-.33-.36s-.38.16-.46.32v1.6h-.47v-2.26h.47v.3c.12-.18.38-.36.66-.36.42,0,.6.23.6.62v1.71h-.47v-.02h0Z"/>
  <path class="cls-1" d="M33.24,36.09c0-.65.37-1.19.98-1.19s.96.52.96,1.21v.14h-1.45c.02.37.23.65.6.65.18,0,.38-.09.52-.25l.23.28c-.19.23-.48.35-.79.35-.64.01-1.04-.47-1.04-1.18M34.22,35.28c-.36,0-.48.36-.51.63h1c0-.28-.14-.63-.5-.63"/>
  <path class="cls-1" d="M35.7,37.23v-2.26h.47v.34c.14-.21.37-.38.63-.38v.46s-.08-.01-.12-.01c-.19,0-.42.15-.51.32v1.55h-.47Z"/>
  <path class="cls-1" d="M38.44,37.23v-.23c-.14.19-.37.28-.61.28-.37,0-.7-.27-.7-.75s.33-.73.7-.73c.24,0,.47.09.61.27v-.33c0-.27-.16-.43-.45-.43-.2,0-.39.08-.57.26l-.18-.33c.24-.23.54-.33.83-.33.48,0,.83.23.83.78v1.55h-.46v-.02h0ZM38.44,36.71v-.34c-.09-.16-.26-.25-.43-.25-.25,0-.39.18-.39.42s.15.43.39.43c.16-.01.34-.1.43-.26"/>
  <rect class="cls-1" x="39.56" y="34.1" width=".47" height="3.13"/>
  <path class="cls-1" d="M43.47,37.23l-.17-.62h-1.04l-.17.62h-.57l.95-3.13h.63l.95,3.13h-.57ZM42.78,34.65l-.42,1.5h.82l-.41-1.5Z"/>
  <path class="cls-1" d="M45.66,37.23v-.3c-.12.19-.37.36-.66.36-.41,0-.6-.21-.6-.61v-1.71h.47v1.55c0,.26.12.36.33.36s.37-.15.46-.3v-1.6h.47v2.26h-.47Z"/>
  <path class="cls-1" d="M46.88,36.72v-1.35h-.3v-.41h.3v-.62h.47v.62h.38v.41h-.38v1.25c0,.16.06.25.18.25.08,0,.15-.03.18-.08l.11.35c-.09.08-.21.14-.42.14-.36.01-.53-.18-.53-.55"/>
  <path class="cls-1" d="M49.51,37.23v-1.55c0-.26-.12-.36-.34-.36-.2,0-.37.16-.46.32v1.6h-.47v-3.13h.47v1.17c.12-.18.38-.36.66-.36.41,0,.6.21.6.61v1.71h-.46Z"/>
  <path class="cls-1" d="M50.51,36.09c0-.64.34-1.19.99-1.19s.99.55.99,1.19-.34,1.19-.99,1.19-.99-.55-.99-1.19M52.01,36.09c0-.41-.16-.78-.51-.78s-.51.36-.51.78.16.78.51.78.51-.36.51-.78"/>
  <path class="cls-1" d="M53.03,37.23v-2.26h.47v.34c.14-.21.37-.38.63-.38v.46s-.08-.01-.12-.01c-.19,0-.42.15-.51.32v1.55h-.47Z"/>
  <path class="cls-1" d="M54.53,34.38c0-.17.14-.29.3-.29.16,0,.29.14.29.29s-.14.29-.29.29c-.17,0-.3-.12-.3-.29M54.59,34.96h.47v2.26h-.47v-2.26Z"/>
  <path class="cls-1" d="M55.8,36.72v-1.35h-.29v-.41h.3v-.62h.47v.62h.38v.41h-.38v1.25c0,.16.06.25.18.25.08,0,.15-.03.18-.08l.11.35c-.09.08-.21.14-.42.14-.37.01-.54-.18-.54-.55"/>
  <path class="cls-1" d="M57.14,37.7s.11.03.15.03c.12,0,.21-.04.26-.19l.09-.27-.77-2.31h.51l.51,1.7.52-1.7h.51l-.9,2.69c-.12.38-.35.5-.68.5-.07,0-.19-.01-.26-.03l.07-.42Z"/>
  <path class="cls-1" d="M60.27,36.09c0-.64.34-1.19.99-1.19s.99.55.99,1.19-.34,1.19-.99,1.19-.99-.55-.99-1.19M61.77,36.09c0-.41-.16-.78-.51-.78s-.51.36-.51.78.16.78.51.78.51-.36.51-.78"/>
  <path class="cls-1" d="M62.9,37.23v-1.86h-.29v-.41h.29v-.21c0-.44.25-.7.64-.7.17,0,.34.05.46.16l-.16.33c-.07-.06-.12-.09-.21-.09-.17,0-.26.11-.26.3v.21h.38v.41h-.38v1.86h-.47Z"/>
  <path class="cls-1" d="M65.21,35.66c0-.95.5-1.62,1.3-1.62.55,0,.83.34,1,.69l-.44.19c-.11-.25-.3-.42-.56-.42-.46,0-.75.48-.75,1.16s.29,1.16.75,1.16c.27,0,.47-.2.56-.46l.44.19c-.16.36-.45.73-1,.73-.8,0-1.3-.68-1.3-1.62"/>
  <path class="cls-1" d="M67.92,34.38c0-.17.14-.29.3-.29.16,0,.29.14.29.29s-.14.29-.29.29c-.17,0-.3-.12-.3-.29M67.99,34.96h.47v2.26h-.47v-2.26Z"/>
  <polygon class="cls-1" points="69.6 37.23 68.85 34.96 69.35 34.96 69.86 36.68 70.37 34.96 70.87 34.96 70.11 37.23 69.6 37.23"/>
  <path class="cls-1" d="M71.19,34.38c0-.17.14-.29.3-.29.16,0,.29.14.29.29s-.14.29-.29.29c-.17,0-.3-.12-.3-.29M71.25,34.96h.47v2.26h-.47v-2.26Z"/>
  <rect class="cls-1" x="72.38" y="34.1" width=".47" height="3.13"/>
  <path class="cls-1" d="M76.29,37.23l-.17-.62h-1.04l-.17.62h-.56l.95-3.13h.63l.95,3.13h-.59ZM75.59,34.65l-.42,1.5h.82l-.41-1.5Z"/>
  <polygon class="cls-1" points="77.65 37.23 76.9 34.96 77.41 34.96 77.91 36.68 78.42 34.96 78.93 34.96 78.17 37.23 77.65 37.23"/>
  <path class="cls-1" d="M79.24,34.38c0-.17.14-.29.3-.29.16,0,.29.14.29.29s-.14.29-.29.29-.3-.12-.3-.29M79.31,34.96h.47v2.26h-.47v-2.26Z"/>
  <path class="cls-1" d="M81.62,37.23v-.23c-.14.19-.37.28-.61.28-.37,0-.7-.27-.7-.75s.34-.73.7-.73c.24,0,.47.09.61.27v-.33c0-.27-.16-.43-.45-.43-.2,0-.39.08-.57.26l-.18-.33c.24-.23.54-.33.84-.33.48,0,.83.23.83.78v1.55h-.47v-.02h0ZM81.62,36.71v-.34c-.09-.16-.26-.25-.43-.25-.25,0-.39.18-.39.42s.15.43.39.43c.17-.01.34-.1.43-.26"/>
  <path class="cls-1" d="M82.84,36.72v-1.35h-.29v-.41h.29v-.62h.47v.62h.38v.41h-.38v1.25c0,.16.06.25.18.25.08,0,.15-.03.18-.08l.11.35c-.09.08-.21.14-.42.14-.36.01-.53-.18-.53-.55"/>
  <path class="cls-1" d="M84.12,34.38c0-.17.14-.29.29-.29s.29.14.29.29-.14.29-.29.29c-.15,0-.29-.12-.29-.29M84.19,34.96h.47v2.26h-.47v-2.26Z"/>
  <path class="cls-1" d="M85.2,36.09c0-.64.34-1.19.99-1.19s.99.55.99,1.19-.34,1.19-.99,1.19-.99-.55-.99-1.19M86.69,36.09c0-.41-.16-.78-.51-.78s-.51.36-.51.78.16.78.51.78.51-.36.51-.78"/>
  <path class="cls-1" d="M88.99,37.23v-1.54c0-.27-.12-.36-.33-.36s-.38.16-.46.32v1.6h-.47v-2.26h.47v.3c.12-.18.38-.36.66-.36.42,0,.6.23.6.62v1.71h-.47v-.02Z"/>
  <path class="cls-1" d="M59.37,28.53c.16,0,.28-.12.28-.28s-.12-.28-.28-.28-.28.12-.28.28.12.28.28.28"/>
  <path class="cls-1" d="M60.27,28.53c.16,0,.28-.12.28-.28s-.12-.28-.28-.28-.28.12-.28.28.12.28.28.28"/>
  <path class="cls-1" d="M75.49,28.53c.16,0,.28-.12.28-.28s-.12-.28-.28-.28-.28.12-.28.28.12.28.28.28"/>
  <path class="cls-1" d="M76.39,28.53c.16,0,.28-.12.28-.28s-.12-.28-.28-.28-.28.12-.28.28.14.28.28.28"/>
  <path class="cls-1" d="M81.93,29.21l-.05-.36c-.2.03-.65.17-.7-.14-.02-.16.09-.32.25-.35.12-.02.26.02.37.07l.11-.35c-.26-.08-.54-.11-.77.06-.25.17-.34.53-.18.79-.23.01-.41.01-.41.01v.27c.27.01.53.02.8.02.05,0,.37-.01.56-.02"/>
  <path class="cls-1" d="M48.12,32.11c-.16,0-.28.12-.28.28s.12.28.28.28.28-.12.28-.28c0-.15-.12-.28-.28-.28"/>
  <path class="cls-1" d="M49.02,32.11c-.16,0-.28.12-.28.28s.12.28.28.28.28-.12.28-.28c0-.15-.12-.28-.28-.28"/>
  <path class="cls-1" d="M82.41,32.11c-.16,0-.28.12-.28.28s.12.28.28.28.28-.12.28-.28c0-.15-.12-.28-.28-.28"/>
  <path class="cls-1" d="M83.31,32.11c-.16,0-.28.12-.28.28s.12.28.28.28.28-.12.28-.28c0-.15-.12-.28-.28-.28"/>
  <path class="cls-1" d="M26.89,32.79c-.16,0-.28.12-.28.28s.12.28.28.28.28-.12.28-.28-.12-.28-.28-.28"/>
  <path class="cls-1" d="M27.79,32.79c-.16,0-.28.12-.28.28s.12.28.28.28.28-.12.28-.28-.12-.28-.28-.28"/>
  <path class="cls-1" d="M42.76,29.64c.16,0,.28-.12.28-.28s-.12-.28-.28-.28-.28.12-.28.28.12.28.28.28"/>
  <path class="cls-1" d="M29.95,29.1c.16,0,.28-.12.28-.28s-.12-.28-.28-.28-.28.12-.28.28.12.28.28.28"/>
  <rect class="cls-1" x="88.94" y="28.09" width=".48" height="3.45"/>
  <rect class="cls-1" x="72.62" y="28.09" width=".48" height="3.45"/>
  <rect class="cls-1" x="44.8" y="28.09" width=".48" height="3.45"/>
  <path class="cls-1" d="M87.67,30.83c0,.18-.15.33-.33.33h-1.35s.02-.02.02-.03c.1-.14.21-.38.11-.73-.06-.21-.25-.88-.72-.89h-.01c-.55,0-.9.93-.96,1.12-.03.11-.09.3-.14.53h-1.19c.05-.1.07-.21.07-.33v-1.18h-.48v1.18c0,.18-.15.33-.33.33h-.29c-.18,0-.33-.15-.33-.33v-1.18h-.48v1.18c0,.18-.15.33-.33.33h-4.12c-.18,0-.33-.15-.33-.33v-1.79h-.48v.23c-.14.05-.39.12-.66.25-.57.26-.89.57-.97.92-.03.18.01.34.12.46.07.08.33.28,1.01.28.16,0,.34-.01.55-.03.12.29.42.5.74.5h4.12c.23,0,.43-.09.57-.24.15.15.35.24.57.24h.29c.21,0,.42-.09.56-.23v.23h1.34c.01.45.16.9.66,1.12.14.06.28.08.43.08.38,0,.75-.18.9-.48.07-.12.14-.41-.1-.72h1.18c.45,0,.81-.36.81-.81v-2.74h-.48v2.76h0ZM74.85,30.58s-.01-.01,0-.03c.06-.29.65-.6,1.15-.75v.89c-.47.05-1.04.02-1.15-.1M84.9,30.78c.17-.5.42-.79.5-.79h0s.12.04.27.53c.04.17,0,.26-.03.3-.14.17-.47.26-.83.29.03-.1.07-.21.1-.34M85.83,32.15c-.07.15-.42.28-.72.16-.25-.1-.37-.34-.37-.69.26-.02.53-.07.75-.15l-.09.17c.32.19.48.38.43.51"/>
  <rect class="cls-1" x="39.08" y="28.09" width=".48" height="3.45"/>
  <path class="cls-1" d="M37.81,30.83c0,.18-.15.33-.33.33h-.96s.01-.03.02-.06c.15-.37.06-.82-.07-1.08-.17-.36-.47-.57-.8-.57h0c-.33,0-.63.21-.81.59-.09.18-.15.35-.2.51-.15.44-.21.62-.7.62h-.46c-.11-1.17-1.19-1.75-1.24-1.78l-.23.43s.87.46.98,1.34h-1.51v.48h2.47c.35,0,.59-.09.74-.23.24.16.6.23.91.23.18,0,.34-.02.45-.07.02-.01.06-.02.08-.03v.1h1.32c.45,0,.81-.36.81-.81v-2.74h-.48v2.75h0ZM36.1,30.93c-.03.1-.1.16-.19.19-.2.08-.72.01-.91-.1.04-.11.09-.23.12-.34.04-.15.1-.29.17-.44.1-.19.24-.32.38-.32h0c.14,0,.27.11.36.3.09.19.15.48.07.7"/>
  <path class="cls-1" d="M64.48,29.46h0c-.34,0-.64.21-.82.59-.09.18-.15.35-.19.5-.15.44-.21.62-.7.62h-1.97c-.18,0-.33-.15-.33-.33v-1.79h-.48v.23c-.14.04-.39.12-.66.25-.57.26-.89.57-.97.92-.03.18.01.34.12.46.07.08.33.28,1.01.28.16,0,.34-.01.55-.03.12.29.42.5.74.5h1.97c.35,0,.59-.09.74-.23.36.24,1.06.28,1.36.16.21-.08.38-.25.46-.47.15-.37.06-.82-.07-1.08-.15-.35-.45-.56-.78-.56M58.83,30.58s-.01-.01,0-.03c.06-.29.65-.6,1.15-.75v.89c-.47.05-1.02.02-1.15-.1M64.89,30.93c-.03.1-.1.16-.19.19-.2.08-.72.01-.91-.1.05-.11.09-.23.12-.34.05-.15.1-.29.17-.44.1-.19.24-.32.38-.32h0c.14,0,.27.11.36.3.1.19.16.48.07.7"/>
  <path class="cls-1" d="M56.43,30.83c0,.18-.15.33-.33.33h-.29c-.18,0-.33-.15-.33-.33v-2.74h-.48v2.74c0,.18-.15.33-.33.33h-.7c-.01-.48-.1-1.08-.5-1.42-.46-.38-1.09-.15-1.53.14-.26.16-.5.36-.72.57v-2.37h-.48v3.06h-1.98c.04-.1.07-.21.07-.33v-1.18h-.48v1.18c0,.18-.15.33-.33.33h-1.03c-.18,0-.33-.15-.33-.33v-1.18h-.51v1.88c0,.37-.3.68-.68.68v.48c.62,0,1.14-.5,1.16-1.12.1.04.21.07.33.07h1.02c.17,0,.32-.05.44-.14v.14h6.22c.23,0,.43-.09.57-.24.15.15.35.24.57.24h.29c.45,0,.81-.36.81-.81v-2.74h-.48v2.75h.01ZM51.22,30.99c.2-.19.42-.37.65-.53.26-.18.55-.36.87-.41.14-.02.28-.02.38.07.1.07.16.18.2.28.1.24.14.51.15.77h-2.26v-.18h.01Z"/>
  <path class="cls-1" d="M30.45,30.83c0,.18-.15.33-.33.33h-.21c-.19,0-.35-.15-.35-.33v-.64c0-.2-.08-.37-.23-.48-.17-.14-.39-.17-.64-.11-.45.1-.78.48-.78.9v1.1c0,.14-.12.21-.23.26-.32.14-.87.09-1.19-.24-.32-.3-.36-.79-.12-1.41l-.45-.17c-.42,1.08-.02,1.67.24,1.93.32.3.75.44,1.14.44.21,0,.42-.04.59-.11.33-.14.52-.39.52-.7v-1.1c0-.19.17-.37.41-.43.11-.02.2,0,.24.02.01.01.05.03.05.11v.64c0,.44.38.81.83.81h.21c.45,0,.81-.36.81-.81v-1.18h-.48v1.17h-.01Z"/>
  <path class="cls-1" d="M43.58,31.6c0,.14-.12.21-.23.26-.32.14-.87.09-1.21-.24-.32-.3-.36-.79-.12-1.41l-.45-.17c-.42,1.08-.02,1.67.24,1.93.32.3.75.44,1.14.44.21,0,.42-.04.59-.11.33-.14.52-.39.52-.7v-1.94h-.48v1.94h.01Z"/>
  <path class="cls-1" d="M71.35,30.83c0,.18-.15.33-.33.33h-.18c-.47.01-.88-.03-1.21-.11l.03-.03c.1-.09.62-.55.54-1.03-.02-.16-.14-.36-.46-.48h-.02s-.02-.01-.02-.01c-.43-.06-.88-.06-1.31-.01h-.04c-.27.11-.37.28-.39.42-.09.42.34.89.53,1.08.03.03.06.06.09.08-.27.07-.56.09-.9.09h-.71c-.18,0-.33-.15-.33-.33v-2.74h-.48v2.74c0,.45.36.81.81.81h.71c.56,0,1.01-.05,1.45-.26.45.18,1.03.26,1.73.26h.17c.45,0,.81-.36.81-.81v-2.74h-.48v2.75h-.01ZM69.36,30.65c-.09.08-.18.15-.27.19-.11-.06-.2-.12-.28-.2-.27-.27-.42-.53-.39-.63,0-.01.03-.03.06-.05.38-.03.75-.03,1.14.01.06.02.11.06.12.1.02.14-.15.38-.37.57"/>
</svg>