<?xml version="1.0" encoding="UTF-8"?>
<svg id="Layer_1" xmlns="http://www.w3.org/2000/svg" version="1.1" viewBox="0 0 80.77 58.98">
  <!-- Generator: Adobe Illustrator 29.0.0, SVG Export Plug-In . SVG Version: 2.1.0 Build 186)  -->
  <defs>
    <style>
      .st0 {
        fill: #fff;
      }
    </style>
  </defs>
  <path class="st0" d="M20.85,58.98c-.32,0-.65-.07-.95-.23-1.04-.53-1.46-1.8-.93-2.84,6.54-12.89,5.48-21.18,4.54-28.48-.27-2.07-.52-4.02-.57-5.96-.04-1.17.88-2.14,2.05-2.18,1.17-.04,2.14.88,2.18,2.05.05,1.73.29,3.59.54,5.55.96,7.52,2.16,16.88-4.96,30.93-.37.74-1.12,1.16-1.89,1.16Z"/>
  <path class="st0" d="M38.66,58.98c-1.11,0-2.04-.87-2.11-1.99-.16-2.64.06-5.48.29-8.47.27-3.43.55-6.98.2-10.21-.12-1.16.72-2.2,1.88-2.33,1.16-.12,2.2.72,2.33,1.88.09.88.15,1.77.17,2.67,2.84-3.37,7-5.39,12.74-6.39,1.15-.2,2.25.57,2.45,1.72.2,1.15-.57,2.25-1.72,2.45-8.57,1.5-13.63,5.03-14.12,18.63-.04,1.13-.96,2.03-2.09,2.04,0,0-.02,0-.03,0Z"/>
  <path class="st0" d="M56.95,58.98c-2.02,0-3.82-.7-5.24-2.07-2.32-2.24-3.19-5.94-2.21-9.43,1-3.57,3.66-6.08,7.29-6.89,1.86-.42,5.23-.75,6.9,1.69,1.18,1.72.98,4.12-.55,6.42-1.67,2.5-4.88,4.71-8.81,4.83.1.12.2.23.31.34.98.94,2.38,1.13,4.17.56,1.11-.36,2.3.26,2.66,1.37.36,1.11-.26,2.3-1.37,2.66-1.09.35-2.15.52-3.15.52ZM53.43,49.28c2.63.21,4.72-1.08,5.86-2.48.88-1.07.98-1.91.92-2.12-.09-.06-.71-.36-2.49.04-2.83.63-3.81,2.72-4.14,3.9-.06.22-.11.43-.14.65Z"/>
  <path class="st0" d="M73.26,58.98c-2.02,0-3.82-.7-5.24-2.07-2.32-2.24-3.19-5.94-2.21-9.43,1-3.57,3.66-6.08,7.29-6.89,1.86-.42,5.23-.75,6.9,1.69,1.18,1.72.98,4.12-.55,6.42-1.66,2.5-4.88,4.71-8.8,4.83.09.12.2.23.31.34.98.94,2.38,1.13,4.17.56,1.11-.36,2.3.26,2.66,1.37s-.25,2.3-1.37,2.66c-1.09.35-2.15.52-3.15.52ZM69.74,49.28c2.63.21,4.72-1.08,5.86-2.48.88-1.07.98-1.91.92-2.12-.09-.06-.71-.36-2.49.04-2.83.63-3.81,2.72-4.14,3.9-.06.22-.11.43-.14.65Z"/>
  <path class="st0" d="M2.12,36.07c-.55,0-1.1-.21-1.52-.64-.81-.84-.8-2.18.04-2.99,6.66-6.49,20.73-5.74,32.02-5.14,3.61.19,7.02.38,9.58.27,2.67-.11,12.02-.7,20.19-3.84,7.34-2.82,11.25-6.67,11.61-11.45.14-1.94-.53-3.42-2.13-4.67-5.58-4.36-20.23-3.86-26.04-1.94-5.75,1.91-9.01,4.38-8.95,6.8.03,1.22.44,2.12,1.25,2.75,1.18.92,3.17,1.2,5.18.74,1.14-.26,2.27.45,2.54,1.59.26,1.14-.45,2.27-1.59,2.53-3.26.75-6.52.18-8.71-1.52-1.82-1.41-2.83-3.48-2.89-5.98-.15-5.74,6.36-9.11,11.85-10.93,6.34-2.1,22.68-3.09,29.98,2.62,2.7,2.11,4,4.99,3.74,8.33-.49,6.46-5.44,11.68-14.32,15.08-8.53,3.28-17.9,3.97-21.54,4.12-2.76.11-6.26-.08-9.98-.27-9.92-.53-23.51-1.26-28.85,3.94-.41.4-.95.6-1.48.6Z"/>
  <g>
    <path class="st0" d="M22.14,13.01l-2.96-2.96c-.54-.54-.54-1.41,0-1.94l2.72-2.72c.54-.54,1.41-.54,1.94,0l2.96,2.96c.54.54.54,1.41,0,1.94l-2.71,2.72c-.54.54-1.41.54-1.94,0"/>
    <path class="st0" d="M15.38,13.01l-2.96-2.96c-.54-.54-.54-1.41,0-1.94l2.72-2.72c.54-.54,1.41-.54,1.94,0l2.96,2.96c.54.54.54,1.41,0,1.94l-2.72,2.72c-.54.54-1.41.54-1.94,0"/>
  </g>
</svg>