<?xml version="1.0" encoding="UTF-8"?>
<svg id="Layer_1" xmlns="http://www.w3.org/2000/svg" version="1.1" viewBox="0 0 155.09 34.77">
  <!-- Generator: Adobe Illustrator 29.0.0, SVG Export Plug-In . SVG Version: 2.1.0 Build 186)  -->
  <defs>
    <style>
      .st0, .st1 {
        fill: #fff;
      }

      .st1 {
        fill-rule: evenodd;
      }
    </style>
  </defs>
  <g>
    <path class="st0" d="M40.96,34.51c-.21.1-.68.26-1.28.26-1.35,0-2.22-.91-2.22-2.29s.94-2.38,2.4-2.38c.48,0,.9.12,1.12.24l-.18.62c-.19-.1-.5-.21-.94-.21-1.02,0-1.58.77-1.58,1.7,0,1.03.66,1.67,1.55,1.67.46,0,.77-.11,1-.21l.14.61Z"/>
    <path class="st0" d="M47.8,34.77c-1.2,0-2.14-.88-2.14-2.3,0-1.49.99-2.37,2.21-2.37s2.15.93,2.15,2.29c0,1.66-1.15,2.38-2.21,2.38h0ZM47.83,34.16c.77,0,1.36-.73,1.36-1.74,0-.76-.38-1.71-1.34-1.71s-1.37.88-1.37,1.73c0,.98.55,1.71,1.34,1.71h0Z"/>
    <path class="st0" d="M55.18,31.41c0-.47-.02-.84-.04-1.21h.71l.04.72h.03c.25-.42.66-.82,1.41-.82.6,0,1.06.37,1.25.89h.02c.14-.26.32-.44.51-.58.27-.2.55-.31.98-.31.6,0,1.47.39,1.47,1.94v2.63h-.79v-2.53c0-.87-.32-1.37-.97-1.37-.47,0-.82.34-.97.73-.04.12-.06.27-.06.41v2.77h-.79v-2.67c0-.72-.31-1.23-.93-1.23-.5,0-.88.41-1.01.81-.05.12-.06.26-.06.4v2.69h-.79v-3.25Z"/>
    <path class="st0" d="M67,31.41c0-.47-.02-.84-.04-1.21h.71l.04.72h.03c.25-.42.66-.82,1.41-.82.6,0,1.06.37,1.25.89h.02c.14-.26.32-.44.51-.58.27-.2.55-.31.98-.31.6,0,1.48.39,1.48,1.94v2.63h-.79v-2.53c0-.87-.32-1.37-.97-1.37-.47,0-.82.34-.97.73-.04.12-.06.27-.06.41v2.77h-.79v-2.67c0-.72-.31-1.23-.93-1.23-.5,0-.88.41-1.01.81-.05.12-.06.26-.06.4v2.69h-.79v-3.25Z"/>
    <path class="st0" d="M82.55,33.45c0,.46,0,.87.04,1.22h-.72l-.05-.73h-.02c-.2.36-.68.83-1.48.83-.7,0-1.54-.4-1.54-1.95v-2.61h.81v2.46c0,.85.27,1.43,1,1.43.54,0,.92-.38,1.07-.75.05-.11.07-.26.07-.41v-2.73h.81v3.25Z"/>
    <path class="st0" d="M88.02,31.41c0-.47,0-.84-.04-1.21h.72l.05.73h.02c.22-.41.74-.83,1.48-.83.62,0,1.58.37,1.58,1.9v2.66h-.81v-2.57c0-.72-.27-1.33-1.03-1.33-.52,0-.94.38-1.09.83-.04.1-.06.25-.06.38v2.69h-.81v-3.25Z"/>
    <path class="st0" d="M97.66,29.39c-.3,0-.51-.24-.51-.53s.21-.52.53-.52.52.23.52.52-.2.53-.53.53h0ZM97.28,34.67v-4.46h.81v4.46h-.81Z"/>
    <path class="st0" d="M106.74,34.51c-.21.1-.68.26-1.28.26-1.35,0-2.22-.91-2.22-2.29s.94-2.38,2.4-2.38c.48,0,.9.12,1.12.24l-.18.62c-.19-.1-.5-.21-.94-.21-1.02,0-1.58.77-1.58,1.7,0,1.03.66,1.67,1.55,1.67.46,0,.77-.11,1-.21l.14.61Z"/>
    <path class="st0" d="M114.97,33.6c0,.39.02.77.06,1.07h-.73l-.07-.56h-.03c-.24.35-.73.66-1.37.66-.9,0-1.36-.64-1.36-1.28,0-1.08.96-1.67,2.68-1.66v-.09c0-.37-.1-1.04-1.01-1.03-.42,0-.86.12-1.17.33l-.18-.54c.37-.23.91-.39,1.48-.39,1.37,0,1.71.93,1.71,1.83v1.67ZM114.18,32.39c-.88-.02-1.89.14-1.89,1.01,0,.53.35.77.76.77.59,0,.97-.37,1.1-.75.03-.08.04-.18.04-.26v-.77Z"/>
    <path class="st0" d="M121.35,29.14v1.07h1.16v.62h-1.16v2.41c0,.55.16.87.61.87.22,0,.35-.02.47-.06l.04.62c-.16.05-.41.11-.72.11-.38,0-.68-.13-.88-.34-.22-.25-.31-.65-.31-1.17v-2.43h-.69v-.62h.69v-.82l.79-.25Z"/>
    <path class="st0" d="M127.94,29.39c-.3,0-.51-.24-.51-.53s.21-.52.53-.52.52.23.52.52-.2.53-.53.53h0ZM127.56,34.67v-4.46h.81v4.46h-.81Z"/>
    <path class="st0" d="M135.67,34.77c-1.2,0-2.14-.88-2.14-2.3,0-1.49.99-2.37,2.21-2.37s2.15.93,2.15,2.29c0,1.66-1.15,2.38-2.21,2.38h0ZM135.7,34.16c.77,0,1.36-.73,1.36-1.74,0-.76-.38-1.71-1.34-1.71s-1.36.88-1.36,1.73c0,.98.55,1.71,1.34,1.71h0Z"/>
    <path class="st0" d="M143.05,31.41c0-.47,0-.84-.04-1.21h.72l.05.73h.02c.22-.41.74-.83,1.48-.83.62,0,1.58.37,1.58,1.9v2.66h-.81v-2.57c0-.72-.27-1.33-1.03-1.33-.52,0-.94.38-1.09.83-.04.1-.06.25-.06.38v2.69h-.81v-3.25Z"/>
    <path class="st0" d="M152.19,33.85c.25.15.67.31,1.08.31.58,0,.86-.29.86-.66s-.23-.6-.82-.82c-.81-.3-1.19-.73-1.19-1.26,0-.72.59-1.31,1.54-1.31.45,0,.85.12,1.09.28l-.19.58c-.18-.1-.5-.26-.91-.26-.48,0-.74.28-.74.61,0,.38.26.54.84.77.77.29,1.17.67,1.17,1.35,0,.79-.62,1.35-1.66,1.35-.49,0-.94-.13-1.25-.31l.19-.61Z"/>
  </g>
  <path class="st0" d="M41.57,8.93c-1.29.05-2.28.34-2.97.88-.73.57-1.1,1.57-1.1,2.96l-.04,5.32c0,1.62.24,2.96.7,3.96.46,1,1.08,1.8,1.82,2.36.75.57,1.6.97,2.53,1.18,1.9.44,3.75.44,5.65,0,.93-.22,1.78-.61,2.53-1.18.75-.57,1.36-1.36,1.84-2.36.48-1,.72-2.34.72-3.96l-.04-5.84c0-.78,0-1.39.02-1.86.01-.48.03-.87.06-1.15,0-.11.02-.21.03-.3-1.29.05-2.29.35-2.99.88-.74.57-1.11,1.56-1.11,2.95l-.04,5.32c0,1.08-.11,1.97-.32,2.64-.22.69-.51,1.24-.89,1.62-.38.39-.81.67-1.28.81-.89.27-1.83.27-2.72,0-.47-.14-.9-.41-1.28-.81-.37-.39-.67-.93-.89-1.62-.21-.67-.32-1.56-.32-2.64l-.04-5.84c0-.78,0-1.39.02-1.86.01-.48.03-.87.06-1.15,0-.11.02-.21.03-.3"/>
  <path class="st0" d="M62.46,11.04c.46,0,.92.07,1.38.2.48.14.92.42,1.32.82.38.4.7.95.93,1.64.22.67.34,1.57.34,2.65l-.04,5.32c0,1.36.37,2.35,1.11,2.94.7.55,1.7.85,2.99.9,0-.09-.02-.19-.03-.3-.02-.28-.05-.67-.08-1.14-.03-.48-.04-1.09-.04-1.86v-5.84c0-1.09.11-1.98.34-2.65.23-.68.53-1.23.9-1.63.38-.41.81-.69,1.28-.83.89-.27,1.82-.27,2.74,0,.48.14.92.42,1.32.82.38.4.7.95.92,1.64.22.67.34,1.56.34,2.65l-.04,5.32c0,1.36.37,2.35,1.1,2.94.69.55,1.68.85,2.97.9,0-.09-.02-.19-.03-.3-.02-.28-.04-.67-.06-1.15-.01-.47-.02-1.08-.02-1.85v-5.84c0-1.63-.24-2.97-.7-3.99-.46-1.01-1.08-1.81-1.82-2.38-.75-.57-1.6-.96-2.52-1.16-2.01-.43-3.97-.41-5.88.06-.97.24-1.85.69-2.61,1.36l-.22.19-.22-.19c-.76-.66-1.64-1.12-2.61-1.36-1.91-.46-3.88-.49-5.86-.06-.91.2-1.75.59-2.49,1.16-.73.57-1.34,1.37-1.8,2.38-.47,1.02-.7,2.36-.7,3.99l-.04,5.32c0,1.36.37,2.35,1.11,2.94.7.55,1.7.85,2.99.9,0-.09-.02-.19-.03-.3-.03-.28-.05-.67-.06-1.15-.01-.47-.02-1.08-.02-1.85v-5.84c0-1.09.11-1.98.32-2.64.22-.69.51-1.24.89-1.64.38-.41.81-.69,1.28-.83.45-.13.9-.2,1.36-.2"/>
  <path class="st0" d="M87.55,0c-1.29.05-2.28.35-2.97.88-.73.57-1.1,1.56-1.1,2.96v13.38c0,1.21.21,2.35.64,3.4.42,1.05,1,1.97,1.72,2.74.72.77,1.58,1.39,2.55,1.85.97.45,2.03.68,3.15.68,1.23,0,2.35-.23,3.35-.68,1-.46,1.85-1.08,2.55-1.84.69-.79,1.24-1.72,1.63-2.77.38-1.05.58-2.19.58-3.37s-.21-2.38-.64-3.41c-.42-1.04-1.02-1.96-1.76-2.76-.72-.77-1.58-1.39-2.55-1.85-.97-.45-2.03-.68-3.15-.68-1.37,0-2.6.28-3.65.83l-.49.26v-1.58c0-.53,0-1.11.02-1.74.01-.63.02-1.22.02-1.78v-1.19c0-.78,0-1.38.02-1.85.01-.48.03-.87.06-1.15,0-.11.02-.21.03-.3M91.55,23.32c-.36,0-.79-.08-1.26-.24-.49-.17-.96-.48-1.4-.93-.43-.45-.8-1.08-1.09-1.89-.29-.8-.43-1.83-.43-3.07s.15-2.27.43-3.07c.29-.81.66-1.44,1.09-1.89.44-.45.91-.76,1.4-.93.47-.16.89-.24,1.26-.24s.79.08,1.26.24c.49.17.96.48,1.39.93.44.45.8,1.08,1.09,1.89.29.8.44,1.84.44,3.07s-.14,2.27-.44,3.07c-.29.81-.66,1.44-1.09,1.89-.44.45-.91.76-1.4.93-.47.16-.9.24-1.26.24"/>
  <path class="st0" d="M108.51,8.92c-.92,0-1.87.1-2.81.31-.91.2-1.75.59-2.48,1.16-.73.57-1.34,1.37-1.8,2.38-.47,1.02-.7,2.36-.7,3.98v4.9c0,1.39.37,2.38,1.11,2.95.7.54,1.69.83,2.95.88-.01-.09-.02-.19-.03-.31-.03-.28-.05-.66-.06-1.13-.01-.45-.02-1.05-.02-1.84v-5.47c0-1.09.11-1.97.34-2.63.23-.67.53-1.2.89-1.58.36-.38.78-.65,1.25-.8.44-.14.88-.24,1.33-.3.56-.07.96-.24,1.19-.52.25-.3.39-.61.44-.92.06-.34.05-.7-.02-1.09h-1.57Z"/>
  <path class="st0" d="M117.1,8.51c-1.23,0-2.35.23-3.34.68-1,.46-1.85,1.08-2.55,1.84-.69.79-1.23,1.72-1.61,2.77-.37,1.05-.57,2.2-.57,3.41s.22,2.35.63,3.4c.42,1.05,1,1.97,1.72,2.74.74.79,1.61,1.42,2.59,1.86.97.44,2.02.67,3.12.67,1.27,0,2.48-.25,3.57-.74,1.05-.47,1.98-1.13,2.76-1.95-.23-.33-.46-.57-.69-.71-.47-.3-1.05-.28-1.65-.05-.34.13-.7.25-1.08.38-.38.13-.83.25-1.32.35-.5.1-1.03.16-1.58.16-.33,0-.71-.06-1.11-.18-.42-.12-.84-.37-1.26-.73-.4-.35-.77-.83-1.09-1.43-.32-.6-.54-1.39-.64-2.33l-.05-.46.45.09c.24.05.7.13,1.4.24.67.11,1.47.16,2.38.16.58,0,1.28-.07,2.07-.2.78-.13,1.53-.37,2.22-.72.68-.34,1.28-.82,1.77-1.42.48-.57.72-1.35.72-2.29s-.22-1.84-.67-2.53c-.45-.71-1.02-1.29-1.7-1.72-.69-.44-1.45-.77-2.26-.97-.81-.21-1.56-.31-2.24-.31M116.42,16.39h0c-.46,0-.93-.03-1.39-.11-.77-.12-1.34-.24-1.76-.37l-.28-.09.04-.29c.13-.89.36-1.64.68-2.22.32-.59.69-1.06,1.08-1.38.4-.33.81-.56,1.23-.69.4-.12.75-.19,1.04-.22.12,0,.23,0,.33,0,.96,0,1.72.23,2.27.69.63.53.92,1.17.86,1.91-.06.93-.42,1.62-1.08,2.03-.61.38-1.31.61-2.11.69-.31.03-.62.05-.92.05"/>
  <path class="st0" d="M125.29,0c.01.1.02.22.03.34.03.28.04.65.06,1.13.01.47.03,1.07.06,1.83v18.37c0,.59.09,1.16.27,1.7.17.53.44,1,.79,1.38.35.39.8.7,1.33.91.52.22,1.15.29,1.87.22.72-.04,1.24-.24,1.55-.59.34-.37.57-.77.68-1.17.09-.31.14-.65.15-1.01-.06.03-.13.06-.2.08-.25.09-.5.14-.75.14-.11,0-.22,0-.33-.03-.38-.06-.71-.26-.99-.59-.28-.33-.42-.83-.42-1.52V3.84c0-1.36-.37-2.35-1.11-2.94-.7-.55-1.7-.85-2.99-.9"/>
  <path class="st0" d="M133.01,0c.01.1.02.22.03.34.03.28.04.65.06,1.13.01.47.03,1.07.06,1.83v18.37c0,.59.09,1.16.27,1.7.17.53.44,1,.79,1.38.35.39.8.7,1.33.91.52.22,1.15.29,1.87.22.72-.04,1.24-.24,1.55-.59.34-.37.57-.77.68-1.17.09-.31.14-.65.15-1.01-.06.03-.13.06-.2.08-.25.09-.49.14-.75.14-.11,0-.22,0-.33-.03-.38-.06-.71-.26-.99-.59-.28-.33-.42-.83-.42-1.52V3.84c0-1.36-.37-2.35-1.12-2.94-.7-.55-1.7-.85-2.99-.9"/>
  <path class="st0" d="M147.36,15.29c-.9,0-1.77.1-2.59.31-.81.2-1.56.51-2.2.92-.67.44-1.18.97-1.5,1.57-.38.61-.56,1.38-.56,2.29v.23c.02.98.26,1.82.7,2.49.31.55.69,1,1.13,1.33.45.34.95.63,1.5.84.53.24,1.08.41,1.62.49.56.08,1.1.13,1.61.13h.49c.13,0,.26-.01.4-.03,1.1-.12,2.09-.43,2.96-.9.87-.48,1.63-1.11,2.26-1.88,1.28-1.56,1.92-3.64,1.92-6.15v-.3c-.05-2.44-.77-4.43-2.13-5.91-.66-.69-1.46-1.24-2.37-1.63-.91-.39-1.93-.6-3.03-.6h-.32c-.06,0-.15.01-.25.03h-.04c-1.16.08-2.24.35-3.21.82-.94.45-1.77,1.05-2.48,1.79.18.32.4.55.64.69.5.23,1.14.22,1.78.06.34-.08.68-.19,1.02-.31.36-.13.73-.24,1.09-.33.37-.09.74-.15,1.11-.18h.44c.4,0,.76.03,1.07.1.32.07.61.18.89.31.73.39,1.27,1.02,1.63,1.87.26.63.44,1.36.52,2.17l.05.51-.49-.15c-1.14-.37-2.36-.55-3.63-.55M146.99,23.36c-.71,0-1.27-.1-1.7-.29-.44-.2-.78-.45-1.01-.74-.25-.27-.43-.6-.51-.94-.08-.32-.12-.62-.12-.9,0-.17.01-.3.04-.41.03-.24.09-.47.17-.68.09-.22.21-.42.36-.6.36-.47.9-.82,1.59-1.05.29-.11.62-.18.97-.22.74-.09,1.57-.08,2.36.02.42.05.79.1,1.12.15h.04c.17.06.31.09.43.12.12.02.23.05.32.07.04,0,.09.02.13.03h.27v.34c0,.45-.05.94-.16,1.46-.11.54-.31,1.07-.6,1.57-.13.26-.29.51-.48.74-.2.24-.44.45-.73.62-.55.39-1.22.62-1.98.65-.12.02-.28.04-.5.04"/>
  <path class="st1" d="M25.5,20.53c-3.65-1.51-8.11-2-8.11-2,0,0,2.5,2.65,4.06,6.36,1.64,3.88,2.35,8.81,2.35,8.81,0,0,1.19-3.35,3.47-5.62,2.16-2.14,5.41-3.21,5.41-3.21,0,0-3.2-2.69-7.19-4.34"/>
  <path class="st1" d="M32.95,11.4s-4.16.33-8.14,1.96c-3.64,1.49-7.14,4.28-7.14,4.28,0,0,3.64.14,7.36,1.68,3.9,1.61,7.89,4.63,7.89,4.63,0,0-1.53-3.23-1.52-6.44,0-3.05,1.55-6.09,1.55-6.09"/>
  <path class="st1" d="M23.61,1.69s-2.69,3.19-4.33,7.16c-1.51,3.64-1.98,8.09-1.98,8.09,0,0,2.65-2.48,6.36-4.04,3.88-1.63,8.83-2.34,8.83-2.34,0,0-3.37-1.19-5.64-3.47-2.16-2.16-3.23-5.4-3.23-5.4"/>
  <path class="st1" d="M10.15,1.1s.36,4.15,2,8.13c1.51,3.64,4.32,7.14,4.32,7.14,0,0,.12-3.63,1.64-7.33,1.59-3.88,4.58-7.84,4.58-7.84,0,0-3.22,1.51-6.44,1.48-3.05-.02-6.1-1.58-6.1-1.58"/>
  <path class="st1" d="M.37,10.27s3.19,2.7,7.17,4.36c3.64,1.52,8.11,2.03,8.11,2.03,0,0-2.48-2.66-4.03-6.37-1.62-3.88-2.31-8.82-2.31-8.82,0,0-1.21,3.35-3.5,5.6C3.63,9.22.37,10.27.37,10.27"/>
  <path class="st1" d="M0,23.76s4.16-.34,8.14-1.97c3.64-1.49,7.15-4.28,7.15-4.28,0,0-3.63-.13-7.34-1.67C4.05,14.23.07,11.22.07,11.22c0,0,1.51,3.23,1.49,6.45-.02,3.04-1.57,6.09-1.57,6.09"/>
  <path class="st1" d="M9.38,33.68s2.68-3.19,4.33-7.17c1.5-3.64,1.98-8.1,1.98-8.1,0,0-2.65,2.49-6.35,4.04-3.88,1.63-8.81,2.32-8.81,2.32,0,0,3.36,1.21,5.63,3.49,2.15,2.17,3.22,5.42,3.22,5.42"/>
  <path class="st1" d="M22.94,33.98s-.41-4.15-2.1-8.12c-1.55-3.63-4.4-7.09-4.4-7.09,0,0-.07,3.63-1.54,7.36-1.54,3.91-4.49,7.92-4.49,7.92,0,0,3.2-1.55,6.42-1.57,3.05-.02,6.12,1.5,6.12,1.5"/>
</svg>