<?xml version="1.0" encoding="utf-8"?>
<!-- Generator: Adobe Illustrator 27.5.0, SVG Export Plug-In . SVG Version: 6.00 Build 0)  -->
<svg version="1.1" id="Layer_1" xmlns="http://www.w3.org/2000/svg" xmlns:xlink="http://www.w3.org/1999/xlink" x="0px" y="0px"
	 viewBox="0 0 700 100" style="enable-background:new 0 0 700 100;" xml:space="preserve">
<style type="text/css">
	.st0{fill:#FFFFFF;}
	.st1{enable-background:new    ;}
</style>
<g>
	<g>
		<g>
			<path class="st0" d="M50.74,99.99c-9.07,0-18.13,0.02-27.2,0c-11.04-0.04-20.37-7.4-22.89-18.1c-0.38-1.6-0.56-3.3-0.58-4.94
				C0.02,59.13-0.04,41.31,0.04,23.51c0.1-13.04,10.4-23.36,23.44-23.44c18.07-0.1,635-0.1,653.06-0.02
				c12.1,0.06,21.75,8.5,23.23,20.2c0.34,2.72,0.2,5.5,0.2,8.24c0,16-0.02,32-0.06,48.02c-0.04,13.08-10.2,23.3-23.29,23.38
				c-8.99,0.06-616.87,0.02-625.86,0.02C50.74,99.93,50.74,99.97,50.74,99.99z M3.95,49.87H3.93c0,4.42,0,8.84,0,13.24
				c0,4.5-0.04,8.98,0,13.48c0.1,11.06,8.73,19.68,19.83,19.7c17.91,0.02,634.72,0.02,652.62-0.06c11.16-0.04,19.75-8.58,19.79-19.7
				c0.08-17.6,0.1-35.2,0.08-52.8c-0.02-11.32-8.67-19.98-20.01-20.02C658.39,3.65,41.67,3.67,23.82,3.75
				c-2.14,0-4.37,0.4-6.39,1.06C9.34,7.39,4.03,14.63,3.97,23.13C3.89,32.05,3.95,40.95,3.95,49.87z"/>
		</g>
	</g>
</g>
<g class="st1">
	<path class="st0" d="M207.99,60.63c1.12,0.72,3.73,1.84,6.48,1.84c5.08,0,6.66-3.24,6.61-5.67c-0.04-4.09-3.73-5.85-7.56-5.85
		h-2.21v-2.97h2.21c2.88,0,6.52-1.48,6.52-4.95c0-2.34-1.48-4.41-5.13-4.41c-2.34,0-4.59,1.04-5.85,1.93l-1.04-2.88
		c1.53-1.12,4.5-2.25,7.65-2.25c5.76,0,8.37,3.42,8.37,6.97c0,3.02-1.8,5.58-5.4,6.88v0.09c3.6,0.72,6.52,3.42,6.52,7.51
		c0,4.68-3.65,8.77-10.66,8.77c-3.28,0-6.16-1.04-7.6-1.98L207.99,60.63z"/>
	<path class="st0" d="M234.49,35.25c2.38-0.36,5.22-0.63,8.32-0.63c5.62,0,9.63,1.3,12.28,3.78c2.7,2.47,4.27,5.98,4.27,10.89
		c0,4.95-1.53,9-4.36,11.79c-2.83,2.83-7.51,4.36-13.41,4.36c-2.79,0-5.13-0.13-7.11-0.36V35.25H234.49z M238.4,62.07
		c0.99,0.18,2.43,0.22,3.96,0.22c8.37,0,12.91-4.68,12.91-12.87c0.04-7.16-4-11.7-12.28-11.7c-2.02,0-3.55,0.18-4.59,0.41
		L238.4,62.07L238.4,62.07z"/>
	<path class="st0" d="M295.64,50.96h-11.79v10.93h13.14v3.29h-17.05V34.85h16.38v3.29h-12.46v9.58h11.79v3.24H295.64z"/>
	<path class="st0" d="M305.05,34.85h3.91v27.04h12.96v3.29h-16.87V34.85z"/>
	<path class="st0" d="M344.96,50.96h-11.79v10.93h13.14v3.29h-17.05V34.85h16.38v3.29h-12.46v9.58h11.79v3.24H344.96z"/>
	<path class="st0" d="M379.93,51.86c-0.23-4.23-0.5-9.31-0.45-13.09h-0.13c-1.04,3.55-2.29,7.33-3.83,11.52L370.17,65h-2.97
		l-4.9-14.44c-1.44-4.28-2.66-8.19-3.51-11.79h-0.09c-0.09,3.78-0.32,8.87-0.58,13.41l-0.81,13h-3.73l2.11-30.33h5l5.17,14.67
		c1.26,3.73,2.29,7.06,3.06,10.21h0.14c0.76-3.06,1.84-6.39,3.19-10.21l5.4-14.67h4.99l1.89,30.33h-3.83L379.93,51.86z"/>
	<path class="st0" d="M409.22,50.96h-11.79v10.93h13.14v3.29h-17.05V34.85h16.38v3.29h-12.46v9.58h11.79v3.24H409.22z"/>
	<path class="st0" d="M418.63,65.18V34.85h4.28l9.72,15.34c2.25,3.55,4,6.75,5.45,9.85l0.09-0.04c-0.36-4.05-0.45-7.74-0.45-12.46
		V34.85h3.69v30.33h-3.96l-9.63-15.39c-2.12-3.38-4.14-6.84-5.67-10.12l-0.13,0.04c0.22,3.82,0.32,7.47,0.32,12.51v12.96H418.63z"/>
	<path class="st0" d="M456.97,38.18h-9.22v-3.33h22.45v3.33h-9.27v27h-3.96L456.97,38.18L456.97,38.18z"/>
	<path class="st0" d="M475.73,60.41c1.75,1.08,4.32,1.98,7.02,1.98c4,0,6.34-2.12,6.34-5.17c0-2.83-1.62-4.46-5.71-6.03
		c-4.95-1.75-8.01-4.32-8.01-8.59c0-4.72,3.91-8.24,9.81-8.24c3.1,0,5.35,0.72,6.7,1.49l-1.08,3.2c-0.99-0.54-3.01-1.44-5.76-1.44
		c-4.14,0-5.71,2.47-5.71,4.54c0,2.83,1.85,4.23,6.03,5.85c5.13,1.98,7.74,4.45,7.74,8.91c0,4.68-3.46,8.73-10.62,8.73
		c-2.92,0-6.12-0.86-7.74-1.94L475.73,60.41z"/>
</g>
</svg>
