<?xml version="1.0" encoding="utf-8"?>
<!-- Generator: Adobe Illustrator 27.5.0, SVG Export Plug-In . SVG Version: 6.00 Build 0)  -->
<svg version="1.1" id="Layer_1" xmlns="http://www.w3.org/2000/svg" xmlns:xlink="http://www.w3.org/1999/xlink" x="0px" y="0px"
	 viewBox="0 0 57.8 56.38" style="enable-background:new 0 0 57.8 56.38;" xml:space="preserve">
<style type="text/css">
	.st0{fill:#F5B9A5;}
</style>
<g>
	<g>
		<path class="st0" d="M46.91,56.38H10.89C4.88,56.38,0,51.5,0,45.49v-34.6C0,4.88,4.88,0,10.89,0h36.02
			C52.91,0,57.8,4.88,57.8,10.89v34.6C57.8,51.5,52.91,56.38,46.91,56.38 M10.89,1.12c-5.39,0-9.77,4.38-9.77,9.77v34.6
			c0,5.38,4.38,9.77,9.77,9.77h36.02c5.38,0,9.77-4.38,9.77-9.77v-34.6c0-5.38-4.38-9.77-9.77-9.77H10.89z"/>
	</g>
	<g>
		<path class="st0" d="M9.33,35.64c0.9,0.54,3.1,1.44,5.33,1.44c3.38,0,4.75-1.91,4.72-3.74c0-2.77-2.59-3.96-5.29-3.96h-2.05v-3.24
			h1.98c2.05,0,4.64-0.94,4.64-3.28c0-1.58-1.19-2.92-3.74-2.92c-1.91,0-3.82,0.83-4.79,1.48l-1.01-3.2c1.33-0.94,3.92-1.8,6.73-1.8
			c4.82,0,7.31,2.66,7.31,5.72c0,2.45-1.44,4.46-4.32,5.47v0.07c2.84,0.5,5.15,2.66,5.15,5.83c0,3.96-3.31,7.09-9.11,7.09
			c-2.84,0-5.29-0.79-6.55-1.62L9.33,35.64z"/>
		<path class="st0" d="M28.74,16.28c1.94-0.32,4.43-0.5,7.06-0.5c4.54,0,7.67,0.94,9.9,2.81c2.34,1.91,3.78,4.79,3.78,8.93
			c0,4.32-1.48,7.56-3.78,9.65c-2.41,2.2-6.26,3.31-10.98,3.31c-2.59,0-4.54-0.14-5.98-0.32V16.28z M33.17,36.83
			c0.61,0.11,1.55,0.11,2.45,0.11c5.76,0.04,9.18-3.13,9.18-9.29c0.04-5.36-3.06-8.42-8.6-8.42c-1.4,0-2.41,0.11-3.02,0.25V36.83z"
			/>
	</g>
</g>
</svg>
