<?xml version="1.0" encoding="utf-8"?>
<!-- Generator: Adobe Illustrator 27.5.0, SVG Export Plug-In . SVG Version: 6.00 Build 0)  -->
<svg version="1.1" id="Layer_1" xmlns="http://www.w3.org/2000/svg" xmlns:xlink="http://www.w3.org/1999/xlink" x="0px" y="0px"
	 viewBox="0 0 277.43 56.38" style="enable-background:new 0 0 277.43 56.38;" xml:space="preserve">
<style type="text/css">
	.st0{fill:#F5B9A5;}
</style>
<g>
	<g>
		<path class="st0" d="M260.29,27.2c1.2,0,1.63,0,1.75-0.05c0-0.17,0.05-0.28,0.05-0.4c0-1.27-0.61-3.64-3.07-3.64
			c-2.27,0-3.24,1.98-3.47,4.09H260.29z M255.5,30.43c0.05,3.19,1.56,5.34,5.15,5.34c1.39,0,2.6-0.19,3.85-0.73
			c0.17-0.07,0.28-0.05,0.28,0.17v2.95c0,0.24-0.07,0.35-0.24,0.47c-1.25,0.61-2.81,0.9-4.75,0.9c-6.23,0-8.57-4.6-8.57-9.73
			c0-5.57,2.88-10.13,7.96-10.13c5.15,0,6.94,4.32,6.94,7.84c0,1.13-0.07,2.06-0.19,2.5c-0.05,0.19-0.12,0.26-0.31,0.31
			c-0.47,0.07-1.86,0.16-3.94,0.16h-6.19V30.43z M242.84,28.02c-0.66-2.62-2.27-8.34-2.86-11.1h-0.05c-0.5,2.76-1.79,7.44-2.76,11.1
			H242.84z M236.2,31.85l-1.87,7.06c-0.05,0.19-0.12,0.26-0.35,0.26h-3.47c-0.24,0-0.28-0.07-0.24-0.35l6.71-23.45
			c0.12-0.42,0.19-0.76,0.24-1.94c0-0.17,0.07-0.24,0.19-0.24h4.96c0.17,0,0.24,0.05,0.28,0.24l7.51,25.43
			c0.05,0.19,0,0.31-0.19,0.31h-3.9c-0.19,0-0.31-0.07-0.35-0.24l-1.94-7.08H236.2z"/>
		<path class="st0" d="M266.54,56.38h-36.02c-6.01,0-10.89-4.88-10.89-10.89v-34.6c0-6.01,4.88-10.89,10.89-10.89h36.02
			c6,0,10.89,4.88,10.89,10.89v34.6C277.43,51.5,272.55,56.38,266.54,56.38 M230.52,1.12c-5.39,0-9.77,4.38-9.77,9.77v34.6
			c0,5.38,4.38,9.77,9.77,9.77h36.02c5.39,0,9.77-4.38,9.77-9.77v-34.6c0-5.38-4.38-9.77-9.77-9.77H230.52z"/>
	</g>
	<g>
		<path class="st0" d="M182.83,23.52c-0.35-0.17-0.83-0.24-1.4-0.24c-3.04,0-5.18,2.34-5.18,6.23c0,4.44,2.17,6.23,4.89,6.23
			c0.59,0,1.2-0.07,1.68-0.28V23.52z M181.59,19.67c0.5,0,0.78,0,1.25,0.05v-6.28c0-0.17,0.11-0.24,0.24-0.24h3.83
			c0.19,0,0.24,0.07,0.24,0.19v22.08c0,0.66,0,1.49,0.11,2.38c0,0.17-0.04,0.19-0.22,0.28c-2.03,0.97-4.18,1.4-6.18,1.4
			c-5.22,0-8.96-3.23-8.96-9.83C171.87,24.06,175.6,19.67,181.59,19.67 M167.72,38.86c0,0.24-0.05,0.31-0.31,0.31h-3.63
			c-0.24,0-0.31-0.11-0.31-0.31V13.51c0-0.24,0.11-0.31,0.31-0.31h3.67c0.19,0,0.28,0.07,0.28,0.28v25.38H167.72z"/>
		<path class="st0" d="M193.33,56.38h-36.02c-6.01,0-10.89-4.88-10.89-10.89v-34.6c0-6.01,4.88-10.89,10.89-10.89h36.02
			c6.01,0,10.89,4.88,10.89,10.89v34.6C204.22,51.5,199.34,56.38,193.33,56.38 M157.31,1.12c-5.39,0-9.77,4.38-9.77,9.77v34.6
			c0,5.38,4.38,9.77,9.77,9.77h36.02c5.39,0,9.77-4.38,9.77-9.77v-34.6c0-5.38-4.38-9.77-9.77-9.77H157.31z"/>
	</g>
	<g>
		<path class="st0" d="M110.89,20.26c0-0.19,0.07-0.28,0.28-0.28h3.71c0.19,0,0.28,0.07,0.28,0.28V38.9c0,0.19-0.05,0.28-0.28,0.28
			h-3.67c-0.24,0-0.31-0.11-0.31-0.31V20.26H110.89z M110.63,14.89c0-1.51,1.07-2.41,2.41-2.41c1.44,0,2.41,0.96,2.41,2.41
			c0,1.56-1.01,2.41-2.45,2.41C111.63,17.31,110.63,16.46,110.63,14.89 M100.01,28.03c-0.66-2.62-2.22-8.33-2.82-11.1h-0.04
			c-0.5,2.76-1.75,7.43-2.74,11.1H100.01z M93.45,31.85l-1.86,7.08c-0.04,0.19-0.11,0.24-0.35,0.24h-3.47
			c-0.24,0-0.28-0.07-0.24-0.35l6.71-23.47c0.11-0.42,0.19-0.81,0.24-1.96c0-0.17,0.07-0.24,0.19-0.24h4.96
			c0.17,0,0.24,0.04,0.28,0.24l7.51,25.48c0.05,0.19,0,0.31-0.19,0.31h-3.92c-0.19,0-0.31-0.05-0.35-0.22l-1.94-7.11H93.45z"/>
		<path class="st0" d="M120.12,56.38H84.1c-6.01,0-10.89-4.88-10.89-10.89v-34.6C73.21,4.88,78.09,0,84.1,0h36.02
			c6.01,0,10.89,4.88,10.89,10.89v34.6C131.01,51.5,126.12,56.38,120.12,56.38 M84.1,1.12c-5.39,0-9.77,4.38-9.77,9.77v34.6
			c0,5.38,4.38,9.77,9.77,9.77h36.02c5.39,0,9.77-4.38,9.77-9.77v-34.6c0-5.38-4.38-9.77-9.77-9.77H84.1z"/>
	</g>
	<g>
		<path class="st0" d="M38.78,23.24c-1.86,0-2.5,0.94-2.5,1.73c0,0.85,0.42,1.44,2.93,2.74c3.7,1.8,4.86,3.52,4.86,6.04
			c0,3.78-2.88,5.81-6.78,5.81c-2.06,0-3.83-0.42-4.84-1.01c-0.17-0.07-0.19-0.19-0.19-0.38v-3.49c0-0.24,0.11-0.31,0.28-0.19
			c1.49,0.97,3.19,1.4,4.75,1.4c1.86,0,2.65-0.78,2.65-1.84c0-0.85-0.55-1.6-2.93-2.84c-3.35-1.6-4.75-3.23-4.75-5.95
			c0-3.04,2.39-5.58,6.52-5.58c2.03,0,3.45,0.31,4.22,0.66c0.19,0.11,0.24,0.31,0.24,0.48v3.24c0,0.19-0.11,0.31-0.35,0.24
			C41.85,23.64,40.31,23.24,38.78,23.24 M18.47,26.04c0.55,0.05,0.97,0.05,1.91,0.05c2.76,0,5.36-0.97,5.36-4.72
			c0-3-1.86-4.51-5.01-4.51c-0.94,0-1.84,0.04-2.27,0.07L18.47,26.04z M14.26,13.51c0-0.17,0.33-0.28,0.52-0.28
			c1.51-0.07,3.76-0.11,6.09-0.11c6.54,0,9.1,3.59,9.1,8.17c0,6-4.35,8.57-9.69,8.57c-0.9,0-1.2-0.05-1.84-0.05v9.06
			c0,0.19-0.07,0.28-0.28,0.28h-3.61c-0.19,0-0.28-0.07-0.28-0.28V13.51z"/>
		<path class="st0" d="M46.91,56.38H10.89C4.88,56.38,0,51.5,0,45.49v-34.6C0,4.88,4.88,0,10.89,0h36.02
			C52.91,0,57.8,4.88,57.8,10.89v34.6C57.8,51.5,52.91,56.38,46.91,56.38 M10.89,1.12c-5.39,0-9.77,4.38-9.77,9.77v34.6
			c0,5.38,4.38,9.77,9.77,9.77h36.02c5.38,0,9.77-4.38,9.77-9.77v-34.6c0-5.38-4.38-9.77-9.77-9.77H10.89z"/>
	</g>
</g>
</svg>
