<?xml version="1.0" encoding="utf-8"?>
<!-- Generator: Adobe Illustrator 27.5.0, SVG Export Plug-In . SVG Version: 6.00 Build 0)  -->
<svg version="1.1" id="Layer_1" xmlns="http://www.w3.org/2000/svg" xmlns:xlink="http://www.w3.org/1999/xlink" x="0px" y="0px"
	 viewBox="0 0 349.47 50" style="enable-background:new 0 0 349.47 50;" xml:space="preserve">
<style type="text/css">
	.st0{fill:#FFFFFF;}
</style>
<g>
	<g>
		<g>
			<path class="st0" d="M25.32,50c-4.53,0-9.05,0.01-13.58,0c-5.51-0.02-10.17-3.7-11.43-9.05c-0.19-0.8-0.28-1.65-0.29-2.47
				c-0.02-8.91-0.05-17.82-0.01-26.72C0.06,5.24,5.2,0.08,11.71,0.04c9.02-0.05,317.03-0.05,326.05-0.01
				c6.04,0.03,10.86,4.25,11.6,10.1c0.17,1.36,0.1,2.75,0.1,4.12c0,8-0.01,16-0.03,24.01c-0.02,6.54-5.09,11.65-11.63,11.69
				c-4.49,0.03-307.98,0.01-312.47,0.01C25.32,49.97,25.32,49.99,25.32,50z M1.96,24.94c0,0-0.01,0-0.01,0c0,2.21,0,4.42,0,6.62
				c0,2.25-0.02,4.49,0,6.74c0.05,5.53,4.36,9.84,9.9,9.85c8.94,0.01,316.89,0.01,325.83-0.03c5.57-0.02,9.86-4.29,9.88-9.85
				c0.04-8.8,0.05-17.6,0.04-26.4c-0.01-5.66-4.33-9.99-9.99-10.01C328.7,1.83,20.79,1.84,11.88,1.88c-1.07,0-2.18,0.2-3.19,0.53
				C4.65,3.7,2,7.32,1.97,11.57C1.93,16.03,1.96,20.48,1.96,24.94z"/>
		</g>
		<g>
			<path class="st0" d="M28.19,23.66c0.67,0.45,1.16,0.73,1.61,1.09c1.01,0.81,1.62,1.86,1.65,3.16c0.02,0.72-0.01,1.46-0.15,2.16
				c-0.43,2.1-1.72,3.48-3.8,4.03c-0.83,0.22-1.71,0.38-2.57,0.39c-2.89,0.04-5.79,0.01-8.68,0c-0.21,0-0.43-0.04-0.78-0.07
				c-0.04-0.57-0.1-1.13-0.1-1.69c-0.01-3.36,0-6.73,0.01-10.09c0-2.53,0-5.07,0.01-7.6c0-0.36,0.03-0.71,0.06-1.18
				c0.43-0.04,0.81-0.11,1.19-0.11c2.61-0.01,5.21-0.04,7.81,0.02c1,0.02,2.03,0.16,2.98,0.46c1.93,0.61,3.04,1.97,3.32,4.01
				c0.29,2.12-0.24,3.87-2.08,5.1C28.54,23.42,28.43,23.5,28.19,23.66z M19.67,30.96c1.81,0.01,3.46,0.16,5.11-0.12
				c0.21-0.04,0.43-0.09,0.63-0.16c1.22-0.43,1.85-1.31,1.82-2.53c-0.03-1.25-0.65-2.08-1.92-2.45c-0.44-0.13-0.92-0.2-1.38-0.21
				c-1.16-0.03-2.31-0.01-3.47,0c-0.24,0-0.48,0.07-0.79,0.11C19.67,27.37,19.67,29.08,19.67,30.96z M19.69,22.04
				c1.12,0,2.09,0.02,3.06-0.01c0.68-0.02,1.39-0.03,2.04-0.19c1.37-0.33,2.06-1.53,1.79-2.91c-0.2-1.01-0.86-1.56-1.84-1.75
				c-1.61-0.33-3.24-0.21-4.86-0.09c-0.06,0-0.11,0.09-0.2,0.16C19.69,18.77,19.69,20.31,19.69,22.04z"/>
		</g>
		<g>
			<path class="st0" d="M47.33,28.09c-3.41,0.06-6.83-0.03-10.22,0.04c-0.16,1.49,0.86,2.92,2.25,3.27c1.25,0.31,2.4,0.06,3.32-0.84
				c0.55-0.53,1.13-0.71,1.85-0.68c0.89,0.04,1.78,0.02,2.81,0.03c-0.09,0.42-0.1,0.71-0.2,0.95c-0.45,1.06-1.15,1.91-2.11,2.55
				c-2.47,1.63-6.41,2.28-9.35-0.06c-1.35-1.08-2.21-2.48-2.62-4.14c-0.78-3.19,0.24-6.9,3.18-8.8c2.21-1.43,6.61-1.7,9.09,0.76
				c1.1,1.09,1.73,2.41,1.99,3.9C47.48,26.01,47.64,26.98,47.33,28.09z M43.04,25.25c-0.2-1.68-1.46-2.73-3.13-2.66
				c-1.59,0.07-2.78,1.18-2.83,2.64C37.95,25.47,41.87,25.5,43.04,25.25z"/>
		</g>
		<g>
			<path class="st0" d="M54.6,36.09l8.37-21.75h2.04l-8.4,21.75H54.6z"/>
			<path class="st0" d="M70.48,28.53l-2.1,6.36h-2.7l6.87-20.22h3.15l6.9,20.22H79.8l-2.16-6.36H70.48z M77.1,26.49l-1.98-5.82
				c-0.45-1.32-0.75-2.52-1.05-3.69h-0.06c-0.3,1.2-0.63,2.43-1.02,3.66l-1.98,5.85H77.1z"/>
			<path class="st0" d="M85.38,13.59h2.64v9.06h0.06c0.42-0.75,1.08-1.41,1.89-1.86c0.78-0.45,1.71-0.75,2.7-0.75
				c1.95,0,5.07,1.2,5.07,6.21v8.64H95.1v-8.34c0-2.34-0.87-4.32-3.36-4.32c-1.71,0-3.06,1.2-3.54,2.64
				c-0.15,0.36-0.18,0.75-0.18,1.26v8.76h-2.64V13.59z"/>
			<path class="st0" d="M102.03,24.3c0-1.5-0.03-2.73-0.12-3.93h2.31l0.12,2.34h0.09c0.81-1.38,2.16-2.67,4.56-2.67
				c1.98,0,3.48,1.2,4.11,2.91h0.06c0.45-0.81,1.02-1.44,1.62-1.89c0.87-0.66,1.83-1.02,3.21-1.02c1.92,0,4.77,1.26,4.77,6.3v8.55
				h-2.58v-8.22c0-2.79-1.02-4.47-3.15-4.47c-1.5,0-2.67,1.11-3.12,2.4c-0.12,0.36-0.21,0.84-0.21,1.32v8.97h-2.58v-8.7
				c0-2.31-1.02-3.99-3.03-3.99c-1.65,0-2.85,1.32-3.27,2.64c-0.15,0.39-0.21,0.84-0.21,1.29v8.76h-2.58V24.3z"/>
			<path class="st0" d="M128.53,28.11c0.06,3.57,2.34,5.04,4.98,5.04c1.89,0,3.03-0.33,4.02-0.75l0.45,1.89
				c-0.93,0.42-2.52,0.9-4.83,0.9c-4.47,0-7.14-2.94-7.14-7.32c0-4.38,2.58-7.83,6.81-7.83c4.74,0,6,4.17,6,6.84
				c0,0.54-0.06,0.96-0.09,1.23H128.53z M136.27,26.22c0.03-1.68-0.69-4.29-3.66-4.29c-2.67,0-3.84,2.46-4.05,4.29H136.27z"/>
			<path class="st0" d="M154.62,13.59v17.55c0,1.29,0.03,2.76,0.12,3.75h-2.37l-0.12-2.52h-0.06c-0.81,1.62-2.58,2.85-4.95,2.85
				c-3.51,0-6.21-2.97-6.21-7.38c-0.03-4.83,2.97-7.8,6.51-7.8c2.22,0,3.72,1.05,4.38,2.22h0.06v-8.67H154.62z M151.98,26.28
				c0-0.33-0.03-0.78-0.12-1.11c-0.39-1.68-1.83-3.06-3.81-3.06c-2.73,0-4.35,2.4-4.35,5.61c0,2.94,1.44,5.37,4.29,5.37
				c1.77,0,3.39-1.17,3.87-3.15c0.09-0.36,0.12-0.72,0.12-1.14V26.28z"/>
			<path class="st0" d="M176.13,26.01c-0.15-2.82-0.33-6.21-0.3-8.73h-0.09c-0.69,2.37-1.53,4.89-2.55,7.68l-3.57,9.81h-1.98
				l-3.27-9.63c-0.96-2.85-1.77-5.46-2.34-7.86h-0.06c-0.06,2.52-0.21,5.91-0.39,8.94l-0.54,8.67h-2.49l1.41-20.22h3.33l3.45,9.78
				c0.84,2.49,1.53,4.71,2.04,6.81h0.09c0.51-2.04,1.23-4.26,2.13-6.81l3.6-9.78h3.33l1.26,20.22h-2.55L176.13,26.01z"/>
			<path class="st0" d="M196.44,27.51c0,5.37-3.72,7.71-7.23,7.71c-3.93,0-6.96-2.88-6.96-7.47c0-4.86,3.18-7.71,7.2-7.71
				C193.63,20.04,196.44,23.07,196.44,27.51z M184.93,27.66c0,3.18,1.83,5.58,4.41,5.58c2.52,0,4.41-2.37,4.41-5.64
				c0-2.46-1.23-5.58-4.35-5.58C186.28,22.02,184.93,24.9,184.93,27.66z"/>
			<path class="st0" d="M199.77,13.59h2.64v9.06h0.06c0.42-0.75,1.08-1.41,1.89-1.86c0.78-0.45,1.71-0.75,2.7-0.75
				c1.95,0,5.07,1.2,5.07,6.21v8.64h-2.64v-8.34c0-2.34-0.87-4.32-3.36-4.32c-1.71,0-3.06,1.2-3.54,2.64
				c-0.15,0.36-0.18,0.75-0.18,1.26v8.76h-2.64V13.59z"/>
			<path class="st0" d="M216.06,32.19c0.78,0.51,2.16,1.05,3.48,1.05c1.92,0,2.82-0.96,2.82-2.16c0-1.26-0.75-1.95-2.7-2.67
				c-2.61-0.93-3.84-2.37-3.84-4.11c0-2.34,1.89-4.26,5.01-4.26c1.47,0,2.76,0.42,3.57,0.9l-0.66,1.92
				c-0.57-0.36-1.62-0.84-2.97-0.84c-1.56,0-2.43,0.9-2.43,1.98c0,1.2,0.87,1.74,2.76,2.46c2.52,0.96,3.81,2.22,3.81,4.38
				c0,2.55-1.98,4.35-5.43,4.35c-1.59,0-3.06-0.39-4.08-0.99L216.06,32.19z"/>
			<path class="st0" d="M231.25,16.29c0.03,0.9-0.63,1.62-1.68,1.62c-0.93,0-1.59-0.72-1.59-1.62c0-0.93,0.69-1.65,1.65-1.65
				C230.62,14.64,231.25,15.36,231.25,16.29z M228.31,34.89V20.37h2.64v14.52H228.31z"/>
			<path class="st0" d="M235.32,24.3c0-1.5-0.03-2.73-0.12-3.93h2.34l0.15,2.4h0.06c0.72-1.38,2.4-2.73,4.8-2.73
				c2.01,0,5.13,1.2,5.13,6.18v8.67h-2.64v-8.37c0-2.34-0.87-4.29-3.36-4.29c-1.74,0-3.09,1.23-3.54,2.7
				c-0.12,0.33-0.18,0.78-0.18,1.23v8.73h-2.64V24.3z"/>
			<path class="st0" d="M269.35,24.57c0,6.96-4.23,10.65-9.39,10.65c-5.34,0-9.09-4.14-9.09-10.26c0-6.42,3.99-10.62,9.39-10.62
				C265.77,14.34,269.35,18.57,269.35,24.57z M253.66,24.9c0,4.32,2.34,8.19,6.45,8.19c4.14,0,6.48-3.81,6.48-8.4
				c0-4.02-2.1-8.22-6.45-8.22C255.81,16.47,253.66,20.46,253.66,24.9z"/>
			<path class="st0" d="M291.3,16.17c-0.66-0.42-1.74-0.78-2.94-0.78c-2.79,0-3.63,1.95-3.63,4.26v0.72h8.46v14.52h-2.64V22.38
				h-5.79v12.51h-2.64V22.38H276v12.51h-2.61V22.38h-2.04v-2.01h2.04v-0.54c0-1.83,0.48-3.6,1.74-4.83c0.84-0.87,2.1-1.41,3.72-1.41
				c0.99,0,2.01,0.36,2.55,0.63l-0.72,1.95c-0.45-0.24-1.14-0.51-1.83-0.51c-0.84,0-1.44,0.3-1.89,0.78
				c-0.72,0.78-0.96,2.1-0.96,3.36v0.57h6.12v-0.78c0-3.84,2.28-6.33,6.36-6.33c1.32,0,2.82,0.39,3.6,0.93L291.3,16.17z"/>
			<path class="st0" d="M307.92,34.35c-0.69,0.36-2.22,0.84-4.17,0.84c-4.38,0-7.23-2.97-7.23-7.41c0-4.47,3.06-7.71,7.8-7.71
				c1.56,0,2.94,0.39,3.66,0.75l-0.6,2.04c-0.63-0.36-1.62-0.69-3.06-0.69c-3.33,0-5.13,2.46-5.13,5.49c0,3.36,2.16,5.43,5.04,5.43
				c1.5,0,2.49-0.39,3.24-0.72L307.92,34.35z"/>
			<path class="st0" d="M313.96,16.29c0.03,0.9-0.63,1.62-1.68,1.62c-0.93,0-1.59-0.72-1.59-1.62c0-0.93,0.69-1.65,1.65-1.65
				C313.33,14.64,313.96,15.36,313.96,16.29z M311.02,34.89V20.37h2.64v14.52H311.02z"/>
			<path class="st0" d="M326.07,34.89l-0.21-1.83h-0.09c-0.81,1.14-2.37,2.16-4.44,2.16c-2.94,0-4.44-2.07-4.44-4.17
				c0-3.51,3.12-5.43,8.73-5.4v-0.3c0-1.2-0.33-3.36-3.3-3.36c-1.35,0-2.76,0.42-3.78,1.08l-0.6-1.74c1.2-0.78,2.94-1.29,4.77-1.29
				c4.44,0,5.52,3.03,5.52,5.94v5.43c0,1.26,0.06,2.49,0.24,3.48H326.07z M325.69,27.48c-2.88-0.06-6.15,0.45-6.15,3.27
				c0,1.71,1.14,2.52,2.49,2.52c1.89,0,3.09-1.2,3.51-2.43c0.09-0.27,0.15-0.57,0.15-0.84V27.48z"/>
			<path class="st0" d="M332.49,13.59h2.64v21.3h-2.64V13.59z"/>
		</g>
		<g>
			<path class="st0" d="M35.01,17.15c0-0.77,0-1.47,0-2.15c0.92-0.29,9.02-0.32,10.13-0.04c0,0.68,0,1.39,0,2.08
				C44.31,17.36,36.75,17.45,35.01,17.15z"/>
		</g>
	</g>
</g>
</svg>
