<?xml version="1.0" encoding="utf-8"?>
<!-- Generator: Adobe Illustrator 27.5.0, SVG Export Plug-In . SVG Version: 6.00 Build 0)  -->
<svg version="1.1" id="Layer_1" xmlns="http://www.w3.org/2000/svg" xmlns:xlink="http://www.w3.org/1999/xlink" x="0px" y="0px"
	 viewBox="0 0 57.8 56.4" style="enable-background:new 0 0 57.8 56.4;" xml:space="preserve">
<style type="text/css">
	.st0{fill:#F5B9A5;}
</style>
<g>
	<g>
		<path class="st0" d="M46.9,56.4h-36C4.9,56.4,0,51.5,0,45.5V10.9C0,4.9,4.9,0,10.9,0h36c6,0,10.9,4.9,10.9,10.9v34.6
			C57.8,51.5,52.9,56.4,46.9,56.4 M10.9,1.1c-5.4,0-9.8,4.4-9.8,9.8v34.6c0,5.4,4.4,9.8,9.8,9.8h36c5.4,0,9.8-4.4,9.8-9.8V10.9
			c0-5.4-4.4-9.8-9.8-9.8C46.9,1.1,10.9,1.1,10.9,1.1z"/>
	</g>
	<g>
		<path class="st0" d="M13.7,16.4c1.4-0.3,4-0.5,6.4-0.5c3.3,0,5.3,0.4,6.9,1.5c1.5,0.9,2.5,2.5,2.5,4.5c0,2.2-1.4,4.3-4,5.2v0.1
			c2.6,0.6,4.9,2.7,4.9,6c0,2.2-0.9,3.8-2.3,5c-1.7,1.5-4.6,2.3-9,2.3c-2.5,0-4.3-0.2-5.4-0.3C13.7,40.2,13.7,16.4,13.7,16.4z
			 M18.1,25.9h2.3c3.1,0,4.8-1.4,4.8-3.5c0-2.3-1.7-3.3-4.5-3.3c-1.3,0-2,0.1-2.5,0.2C18.1,19.3,18.1,25.9,18.1,25.9z M18.1,37.1
			c0.6,0.1,1.3,0.1,2.3,0.1c2.8,0,5.4-1.1,5.4-4.1c0-2.8-2.5-4-5.5-4h-2.2L18.1,37.1L18.1,37.1z"/>
		<path class="st0" d="M34.3,28.4c0-2.4,0-4.1-0.1-5.6H38l0.1,3.4h0.1c0.9-2.5,2.9-3.7,4.8-3.7c0.4,0,0.7,0,1,0.1v4.2
			c-0.4-0.1-0.8-0.1-1.3-0.1c-2.1,0-3.6,1.4-4,3.4c-0.1,0.4-0.1,0.9-0.1,1.4v9.1h-4.4L34.3,28.4L34.3,28.4z"/>
	</g>
</g>
</svg>
