<?xml version="1.0" encoding="utf-8"?>
<!-- Generator: Adobe Illustrator 27.5.0, SVG Export Plug-In . SVG Version: 6.00 Build 0)  -->
<svg version="1.1" id="Layer_1" xmlns="http://www.w3.org/2000/svg" xmlns:xlink="http://www.w3.org/1999/xlink" x="0px" y="0px"
	 viewBox="0 0 57.8 56.38" style="enable-background:new 0 0 57.8 56.38;" xml:space="preserve">
<style type="text/css">
	.st0{fill:#F5B9A5;}
</style>
<g>
	<g>
		<path class="st0" d="M46.91,56.38H10.89C4.88,56.38,0,51.5,0,45.49v-34.6C0,4.88,4.88,0,10.89,0h36.02
			C52.91,0,57.8,4.88,57.8,10.89v34.6C57.8,51.5,52.91,56.38,46.91,56.38 M10.89,1.12c-5.39,0-9.77,4.38-9.77,9.77v34.6
			c0,5.38,4.38,9.77,9.77,9.77h36.02c5.38,0,9.77-4.38,9.77-9.77v-34.6c0-5.38-4.38-9.77-9.77-9.77H10.89z"/>
	</g>
	<g>
		<path class="st0" d="M13.71,16.35c1.4-0.29,3.96-0.5,6.44-0.5c3.28,0,5.29,0.4,6.95,1.55c1.51,0.9,2.52,2.48,2.52,4.54
			c0,2.23-1.4,4.28-4.03,5.25v0.07c2.56,0.65,4.9,2.66,4.9,6.01c0,2.16-0.94,3.85-2.34,5c-1.73,1.51-4.57,2.27-9,2.27
			c-2.45,0-4.32-0.18-5.44-0.32V16.35z M18.1,25.92h2.27c3.06,0,4.79-1.44,4.79-3.49c0-2.27-1.73-3.31-4.54-3.31
			c-1.3,0-2.05,0.07-2.52,0.18V25.92z M18.1,37.08c0.58,0.07,1.33,0.11,2.34,0.11c2.84,0,5.36-1.08,5.36-4.07
			c0-2.81-2.45-3.96-5.51-3.96h-2.2V37.08z"/>
		<path class="st0" d="M34.26,28.41c0-2.38-0.04-4.07-0.14-5.65h3.85l0.14,3.35h0.14c0.86-2.48,2.92-3.74,4.79-3.74
			c0.43,0,0.68,0.04,1.04,0.11v4.17c-0.36-0.07-0.76-0.14-1.3-0.14c-2.12,0-3.56,1.37-3.96,3.35c-0.07,0.4-0.14,0.86-0.14,1.37v9.07
			h-4.43V28.41z"/>
	</g>
</g>
</svg>
