<?xml version="1.0" encoding="utf-8"?>
<!-- Generator: Adobe Illustrator 27.5.0, SVG Export Plug-In . SVG Version: 6.00 Build 0)  -->
<svg version="1.1" id="Layer_1" xmlns="http://www.w3.org/2000/svg" xmlns:xlink="http://www.w3.org/1999/xlink" x="0px" y="0px"
	 viewBox="0 0 700 100" style="enable-background:new 0 0 700 100;" xml:space="preserve">
<style type="text/css">
	.st0{fill:#FFFFFF;}
	.st1{enable-background:new    ;}
</style>
<g>
	<g>
		<g>
			<path class="st0" d="M50.74,99.99c-9.07,0-18.13,0.02-27.2,0c-11.04-0.04-20.37-7.4-22.89-18.1c-0.38-1.6-0.56-3.3-0.58-4.94
				C0.02,59.13-0.04,41.31,0.04,23.51c0.1-13.04,10.4-23.36,23.44-23.44c18.07-0.1,635-0.1,653.06-0.02
				c12.1,0.06,21.75,8.5,23.23,20.2c0.34,2.72,0.2,5.5,0.2,8.24c0,16-0.02,32-0.06,48.02c-0.04,13.08-10.2,23.3-23.29,23.38
				c-8.99,0.06-616.87,0.02-625.86,0.02C50.74,99.93,50.74,99.97,50.74,99.99z M3.95,49.87H3.93c0,4.42,0,8.84,0,13.24
				c0,4.5-0.04,8.98,0,13.48c0.1,11.06,8.73,19.68,19.83,19.7c17.91,0.02,634.72,0.02,652.62-0.06c11.16-0.04,19.75-8.58,19.79-19.7
				c0.08-17.6,0.1-35.2,0.08-52.8c-0.02-11.32-8.67-19.98-20.01-20.02C658.39,3.65,41.67,3.67,23.82,3.75
				c-2.14,0-4.37,0.4-6.39,1.06C9.34,7.39,4.03,14.63,3.97,23.13C3.89,32.05,3.95,40.95,3.95,49.87z"/>
		</g>
	</g>
</g>
<g class="st1">
	<path class="st0" d="M239.91,35.22c1.71-0.36,4.41-0.63,7.15-0.63c3.91,0,6.43,0.67,8.32,2.21c1.57,1.17,2.52,2.97,2.52,5.35
		c0,2.92-1.93,5.49-5.13,6.66v0.09c2.88,0.72,6.25,3.1,6.25,7.6c0,2.61-1.03,4.59-2.56,6.08c-2.11,1.93-5.53,2.83-10.48,2.83
		c-2.7,0-4.77-0.18-6.07-0.36V35.22L239.91,35.22z M243.83,47.65h3.56c4.14,0,6.57-2.16,6.57-5.08c0-3.55-2.7-4.95-6.66-4.95
		c-1.8,0-2.83,0.13-3.47,0.27V47.65z M243.83,62.19c0.77,0.13,1.89,0.18,3.29,0.18c4.05,0,7.78-1.48,7.78-5.89
		c0-4.14-3.55-5.85-7.83-5.85h-3.24L243.83,62.19L243.83,62.19z"/>
	<path class="st0" d="M267.27,35.22c1.98-0.41,4.81-0.63,7.51-0.63c4.19,0,6.88,0.76,8.77,2.47c1.53,1.35,2.39,3.42,2.39,5.76
		c0,4-2.52,6.66-5.71,7.74v0.13c2.34,0.81,3.73,2.97,4.45,6.12c0.99,4.23,1.71,7.15,2.34,8.32h-4.05c-0.49-0.85-1.17-3.46-2.02-7.25
		c-0.9-4.18-2.52-5.76-6.07-5.89h-3.69v13.14h-3.91V35.22H267.27z M271.19,49.04h4c4.19,0,6.84-2.29,6.84-5.76
		c0-3.92-2.83-5.62-6.97-5.67c-1.89,0-3.24,0.18-3.87,0.36V49.04z"/>
	<path class="st0" d="M299.58,55.61l-3.15,9.54h-4.05l10.3-30.33h4.72l10.35,30.33h-4.19l-3.24-9.54H299.58z M309.52,52.56
		l-2.97-8.73c-0.67-1.98-1.12-3.78-1.57-5.54h-0.09c-0.45,1.8-0.94,3.65-1.53,5.49l-2.97,8.77L309.52,52.56L309.52,52.56z"/>
	<path class="st0" d="M325.18,65.15V34.83h4.27l9.72,15.34c2.25,3.55,4,6.75,5.44,9.85l0.09-0.04c-0.36-4.05-0.45-7.74-0.45-12.46
		V34.83h3.69v30.33h-3.96l-9.63-15.39c-2.12-3.38-4.14-6.84-5.67-10.12l-0.13,0.04c0.22,3.82,0.31,7.47,0.31,12.51v12.96H325.18z"/>
	<path class="st0" d="M357.77,35.22c2.38-0.36,5.22-0.63,8.32-0.63c5.62,0,9.63,1.3,12.28,3.78c2.7,2.47,4.28,5.98,4.28,10.89
		c0,4.95-1.53,9-4.37,11.79c-2.83,2.83-7.51,4.36-13.41,4.36c-2.79,0-5.13-0.13-7.11-0.36L357.77,35.22L357.77,35.22z M361.68,62.04
		c0.99,0.18,2.43,0.22,3.96,0.22c8.37,0,12.92-4.68,12.92-12.87c0.04-7.16-4-11.7-12.29-11.7c-2.02,0-3.55,0.18-4.59,0.41V62.04z"/>
	<path class="st0" d="M394.62,34.83v30.33h-3.91V34.83H394.62z"/>
	<path class="st0" d="M404.43,65.15V34.83h4.27l9.72,15.34c2.25,3.55,4,6.75,5.44,9.85l0.09-0.04c-0.36-4.05-0.45-7.74-0.45-12.46
		V34.83h3.69v30.33h-3.96l-9.63-15.39c-2.12-3.38-4.14-6.84-5.67-10.12l-0.13,0.04c0.22,3.82,0.31,7.47,0.31,12.51v12.96H404.43z"/>
	<path class="st0" d="M460.09,63.81c-1.75,0.63-5.22,1.67-9.31,1.67c-4.59,0-8.37-1.17-11.34-4c-2.61-2.52-4.23-6.57-4.23-11.29
		c0.04-9.04,6.25-15.66,16.42-15.66c3.51,0,6.25,0.76,7.56,1.39l-0.95,3.2c-1.62-0.72-3.64-1.31-6.71-1.31
		c-7.38,0-12.19,4.59-12.19,12.2c0,7.69,4.63,12.24,11.7,12.24c2.56,0,4.32-0.36,5.22-0.81v-9.04h-6.17v-3.15h9.99v14.56H460.09z"/>
</g>
</svg>
