<?xml version="1.0" encoding="utf-8"?>
<!-- Generator: Adobe Illustrator 27.5.0, SVG Export Plug-In . SVG Version: 6.00 Build 0)  -->
<svg version="1.1" id="Layer_1" xmlns="http://www.w3.org/2000/svg" xmlns:xlink="http://www.w3.org/1999/xlink" x="0px" y="0px"
	 viewBox="0 0 700 100" style="enable-background:new 0 0 700 100;" xml:space="preserve">
<style type="text/css">
	.st0{fill:#FFFFFF;}
	.st1{enable-background:new    ;}
</style>
<g>
	<g>
		<g>
			<path class="st0" d="M50.74,99.99c-9.07,0-18.13,0.02-27.2,0c-11.04-0.04-20.37-7.4-22.89-18.1c-0.38-1.6-0.56-3.3-0.58-4.94
				C0.02,59.13-0.04,41.31,0.04,23.51c0.1-13.04,10.4-23.36,23.44-23.44c18.07-0.1,635-0.1,653.06-0.02
				c12.1,0.06,21.75,8.5,23.23,20.2c0.34,2.72,0.2,5.5,0.2,8.24c0,16-0.02,32-0.06,48.02c-0.04,13.08-10.2,23.3-23.29,23.38
				c-8.99,0.06-616.87,0.02-625.86,0.02C50.74,99.93,50.74,99.97,50.74,99.99z M3.95,49.87H3.93c0,4.42,0,8.84,0,13.24
				c0,4.5-0.04,8.98,0,13.48c0.1,11.06,8.73,19.68,19.83,19.7c17.91,0.02,634.72,0.02,652.62-0.06c11.16-0.04,19.75-8.58,19.79-19.7
				c0.08-17.6,0.1-35.2,0.08-52.8c-0.02-11.32-8.67-19.98-20.01-20.02C658.39,3.65,41.67,3.67,23.82,3.75
				c-2.14,0-4.37,0.4-6.39,1.06C9.34,7.39,4.03,14.63,3.97,23.13C3.89,32.05,3.95,40.95,3.95,49.87z"/>
		</g>
	</g>
</g>
<g class="st1">
	<path class="st0" d="M174.56,64.18c-1.44,0.72-4.32,1.44-8.01,1.44c-8.55,0-14.98-5.4-14.98-15.34c0-9.49,6.43-15.93,15.84-15.93
		c3.78,0,6.16,0.81,7.2,1.35l-0.95,3.19c-1.48-0.72-3.6-1.26-6.12-1.26c-7.11,0-11.83,4.54-11.83,12.51
		c0,7.42,4.27,12.19,11.65,12.19c2.39,0,4.81-0.5,6.39-1.26L174.56,64.18z"/>
	<path class="st0" d="M207.41,49.69c0,10.44-6.34,15.97-14.08,15.97c-8.01,0-13.63-6.21-13.63-15.39c0-9.63,5.98-15.93,14.08-15.93
		C202.06,34.34,207.41,40.69,207.41,49.69z M183.88,50.18c0,6.48,3.51,12.28,9.67,12.28c6.21,0,9.72-5.71,9.72-12.6
		c0-6.03-3.15-12.33-9.67-12.33C187.12,37.54,183.88,43.52,183.88,50.18z"/>
	<path class="st0" d="M241.03,51.85c-0.23-4.23-0.5-9.31-0.45-13.09h-0.13c-1.04,3.55-2.29,7.33-3.83,11.52l-5.35,14.71h-2.97
		l-4.9-14.44c-1.44-4.28-2.65-8.19-3.51-11.79h-0.09c-0.09,3.78-0.31,8.87-0.58,13.41l-0.81,13h-3.73l2.11-30.33h5l5.17,14.67
		c1.26,3.73,2.29,7.06,3.06,10.21h0.14c0.76-3.06,1.84-6.39,3.19-10.21l5.4-14.67h4.99l1.89,30.33h-3.83L241.03,51.85z"/>
	<path class="st0" d="M254.62,35.2c1.89-0.32,4.36-0.58,7.51-0.58c3.87,0,6.7,0.9,8.5,2.52c1.67,1.44,2.66,3.65,2.66,6.34
		c0,2.75-0.81,4.91-2.34,6.48c-2.07,2.2-5.44,3.33-9.27,3.33c-1.17,0-2.25-0.04-3.15-0.27v12.15h-3.91L254.62,35.2L254.62,35.2z
		 M258.53,49.82c0.85,0.23,1.94,0.32,3.24,0.32c4.72,0,7.6-2.29,7.6-6.48c0-4-2.83-5.94-7.15-5.94c-1.71,0-3.01,0.14-3.69,0.32
		V49.82z"/>
	<path class="st0" d="M282.65,55.63l-3.15,9.54h-4.05l10.3-30.33h4.72l10.35,30.33h-4.19l-3.24-9.54H282.65z M292.59,52.57
		l-2.97-8.73c-0.67-1.98-1.12-3.78-1.57-5.54h-0.09c-0.45,1.8-0.94,3.65-1.53,5.49l-2.97,8.77L292.59,52.57L292.59,52.57z"/>
	<path class="st0" d="M308.26,65.17V34.84h4.27l9.72,15.34c2.25,3.55,4,6.75,5.44,9.85l0.09-0.04c-0.36-4.05-0.45-7.74-0.45-12.46
		V34.84h3.69v30.33h-3.96l-9.63-15.39c-2.12-3.38-4.14-6.84-5.67-10.12l-0.13,0.04c0.22,3.82,0.31,7.47,0.31,12.51v12.96H308.26z"/>
	<path class="st0" d="M347.27,65.17V52.3l-9.58-17.46h4.45l4.27,8.37c1.17,2.29,2.07,4.14,3.02,6.25h0.09
		c0.85-1.98,1.89-3.96,3.06-6.25l4.36-8.37h4.46l-10.17,17.41v12.91L347.27,65.17L347.27,65.17z"/>
	<path class="st0" d="M380.34,35.2c1.89-0.32,4.37-0.58,7.51-0.58c3.87,0,6.71,0.9,8.5,2.52c1.67,1.44,2.66,3.65,2.66,6.34
		c0,2.75-0.81,4.91-2.34,6.48c-2.07,2.2-5.45,3.33-9.27,3.33c-1.17,0-2.25-0.04-3.15-0.27v12.15h-3.92L380.34,35.2L380.34,35.2z
		 M384.26,49.82c0.85,0.23,1.93,0.32,3.24,0.32c4.72,0,7.6-2.29,7.6-6.48c0-4-2.83-5.94-7.16-5.94c-1.71,0-3.01,0.14-3.69,0.32
		v11.78H384.26z"/>
	<path class="st0" d="M407.25,35.24c1.98-0.41,4.81-0.63,7.51-0.63c4.18,0,6.88,0.76,8.77,2.47c1.53,1.35,2.38,3.42,2.38,5.76
		c0,4-2.52,6.66-5.71,7.74v0.13c2.34,0.81,3.74,2.97,4.46,6.12c0.99,4.23,1.71,7.15,2.34,8.32h-4.05c-0.5-0.85-1.17-3.46-2.03-7.25
		c-0.9-4.18-2.52-5.76-6.07-5.89h-3.69v13.14h-3.91V35.24z M411.17,49.06h4c4.19,0,6.84-2.29,6.84-5.76c0-3.92-2.83-5.62-6.97-5.67
		c-1.89,0-3.24,0.18-3.87,0.36V49.06z"/>
	<path class="st0" d="M460.49,49.69c0,10.44-6.34,15.97-14.08,15.97c-8.01,0-13.63-6.21-13.63-15.39c0-9.63,5.98-15.93,14.08-15.93
		C455.13,34.34,460.49,40.69,460.49,49.69z M436.95,50.18c0,6.48,3.51,12.28,9.67,12.28c6.21,0,9.72-5.71,9.72-12.6
		c0-6.03-3.15-12.33-9.67-12.33C440.19,37.54,436.95,43.52,436.95,50.18z"/>
	<path class="st0" d="M468.54,34.84h16.33v3.29h-12.42v10.08h11.47v3.24h-11.47v13.72h-3.92V34.84H468.54z"/>
	<path class="st0" d="M497.34,34.84v30.33h-3.92V34.84H497.34z"/>
	<path class="st0" d="M507.15,34.84h3.92v27.04h12.96v3.29h-16.87V34.84H507.15z"/>
	<path class="st0" d="M547.07,50.95h-11.79v10.93h13.14v3.29h-17.05V34.84h16.38v3.29H535.3v9.58h11.79v3.24H547.07z"/>
</g>
</svg>
