<?xml version="1.0" encoding="utf-8"?>
<!-- Generator: Adobe Illustrator 27.5.0, SVG Export Plug-In . SVG Version: 6.00 Build 0)  -->
<svg version="1.1" id="Layer_1" xmlns="http://www.w3.org/2000/svg" xmlns:xlink="http://www.w3.org/1999/xlink" x="0px" y="0px"
	 viewBox="0 0 57.8 56.4" style="enable-background:new 0 0 57.8 56.4;" xml:space="preserve">
<style type="text/css">
	.st0{fill:#FFFFFF;}
</style>
<g>
	<g>
		<path class="st0" d="M46.9,56.4h-36C4.9,56.4,0,51.5,0,45.5V10.9C0,4.9,4.9,0,10.9,0h36c6,0,10.9,4.9,10.9,10.9v34.6
			C57.8,51.5,52.9,56.4,46.9,56.4 M10.9,1.1c-5.4,0-9.8,4.4-9.8,9.8v34.6c0,5.4,4.4,9.8,9.8,9.8h36c5.4,0,9.8-4.4,9.8-9.8V10.9
			c0-5.4-4.4-9.8-9.8-9.8C46.9,1.1,10.9,1.1,10.9,1.1z"/>
	</g>
	<g>
		<path class="st0" d="M27.8,36.2c-1,0.5-3.4,1.1-6.3,1.1c-7.7,0-12.4-4.8-12.4-12.2c0-8,5.5-12.8,13-12.8c2.9,0,5,0.6,5.9,1.1
			l-1,3.5c-1.1-0.5-2.7-0.9-4.8-0.9c-4.9,0-8.5,3.1-8.5,8.9c0,5.3,3.1,8.8,8.5,8.8c1.8,0,3.7-0.4,4.8-0.9L27.8,36.2z"/>
		<path class="st0" d="M31.3,25.3c0-2.3-0.1-4.2-0.1-5.8H35l0.2,2.7h0.1c1.3-2,3.3-3.1,6-3.1c4,0,7.4,3.5,7.4,8.9c0,6.3-4,9.4-8,9.4
			c-2.2,0-4-0.9-4.9-2.3h-0.1v9.1h-4.4C31.3,44.1,31.3,25.3,31.3,25.3z M35.7,29.6c0,0.4,0,0.8,0.1,1.2c0.4,1.8,2,3.1,3.9,3.1
			c2.8,0,4.5-2.3,4.5-5.8c0-3.1-1.5-5.6-4.3-5.6c-1.8,0-3.5,1.3-4,3.3c-0.1,0.4-0.2,0.8-0.2,1.1V29.6z"/>
	</g>
</g>
</svg>
