<?xml version="1.0" encoding="utf-8"?>
<!-- Generator: Adobe Illustrator 27.5.0, SVG Export Plug-In . SVG Version: 6.00 Build 0)  -->
<svg version="1.1" id="Layer_1" xmlns="http://www.w3.org/2000/svg" xmlns:xlink="http://www.w3.org/1999/xlink" x="0px" y="0px"
	 viewBox="0 0 57.8 56.38" style="enable-background:new 0 0 57.8 56.38;" xml:space="preserve">
<style type="text/css">
	.st0{fill:#F5B9A5;}
</style>
<g>
	<g>
		<path class="st0" d="M46.91,56.38H10.89C4.88,56.38,0,51.5,0,45.49v-34.6C0,4.88,4.88,0,10.89,0h36.02
			C52.91,0,57.8,4.88,57.8,10.89v34.6C57.8,51.5,52.91,56.38,46.91,56.38 M10.89,1.12c-5.39,0-9.77,4.38-9.77,9.77v34.6
			c0,5.38,4.38,9.77,9.77,9.77h36.02c5.38,0,9.77-4.38,9.77-9.77v-34.6c0-5.38-4.38-9.77-9.77-9.77H10.89z"/>
	</g>
	<g>
		<path class="st0" d="M27.76,36.24c-1.04,0.54-3.35,1.08-6.26,1.08c-7.7,0-12.38-4.82-12.38-12.2c0-7.99,5.54-12.81,12.96-12.81
			c2.92,0,5,0.61,5.9,1.08l-0.97,3.53c-1.15-0.5-2.74-0.94-4.75-0.94c-4.93,0-8.49,3.1-8.49,8.93c0,5.33,3.13,8.75,8.46,8.75
			c1.8,0,3.67-0.36,4.82-0.9L27.76,36.24z"/>
		<path class="st0" d="M31.26,25.26c0-2.3-0.07-4.18-0.14-5.83H35l0.22,2.7h0.07c1.3-1.98,3.35-3.1,6.01-3.1
			c4.03,0,7.38,3.46,7.38,8.93c0,6.33-4,9.39-7.99,9.39c-2.2,0-4.03-0.94-4.93-2.34h-0.07v9.07h-4.43V25.26z M35.69,29.61
			c0,0.43,0.04,0.83,0.14,1.22c0.43,1.8,2.02,3.1,3.89,3.1c2.81,0,4.46-2.34,4.46-5.8c0-3.09-1.51-5.62-4.35-5.62
			c-1.84,0-3.53,1.33-3.96,3.28c-0.11,0.36-0.18,0.76-0.18,1.12V29.61z"/>
	</g>
</g>
</svg>
