<?xml version="1.0" encoding="utf-8"?>
<!-- Generator: Adobe Illustrator 27.5.0, SVG Export Plug-In . SVG Version: 6.00 Build 0)  -->
<svg version="1.1" id="Layer_1" xmlns="http://www.w3.org/2000/svg" xmlns:xlink="http://www.w3.org/1999/xlink" x="0px" y="0px"
	 viewBox="0 0 700 100" style="enable-background:new 0 0 700 100;" xml:space="preserve">
<style type="text/css">
	.st0{fill:#FFFFFF;}
	.st1{enable-background:new    ;}
</style>
<g>
	<g>
		<g>
			<path class="st0" d="M50.7,99.75c-9.07,0-18.13,0.02-27.2,0c-11.04-0.04-20.37-7.4-22.89-18.1c-0.38-1.6-0.56-3.3-0.58-4.94
				C-0.02,58.89-0.08,41.07,0,23.27C0.1,10.23,10.4-0.09,23.44-0.17c18.07-0.1,635-0.1,653.06-0.02c12.1,0.06,21.75,8.5,23.23,20.2
				c0.34,2.72,0.2,5.5,0.2,8.24c0,16-0.02,32-0.06,48.02c-0.04,13.08-10.2,23.3-23.29,23.38c-8.99,0.06-616.87,0.02-625.86,0.02
				C50.7,99.69,50.7,99.73,50.7,99.75z M3.91,49.63H3.89c0,4.42,0,8.84,0,13.24c0,4.5-0.04,8.98,0,13.48
				c0.1,11.06,8.73,19.68,19.83,19.7c17.91,0.02,634.72,0.02,652.62-0.06c11.16-0.04,19.75-8.58,19.79-19.7
				c0.08-17.6,0.1-35.2,0.08-52.8c-0.02-11.32-8.67-19.98-20.01-20.02C658.35,3.41,41.63,3.43,23.78,3.51
				c-2.14,0-4.37,0.4-6.39,1.06C9.3,7.15,3.99,14.39,3.93,22.89C3.85,31.81,3.91,40.71,3.91,49.63z"/>
		</g>
	</g>
</g>
<g class="st1">
	<path class="st0" d="M119.5,50.95h-11.79v10.93h13.14v3.29H103.8V34.84h16.38v3.29h-12.46v9.58h11.79L119.5,50.95L119.5,50.95z"/>
	<path class="st0" d="M135.98,65.17l-9.9-30.33h4.23l4.73,14.94c1.3,4.09,2.43,7.78,3.24,11.34h0.09c0.85-3.51,2.12-7.33,3.46-11.29
		l5.13-14.98h4.19l-10.84,30.33L135.98,65.17L135.98,65.17z"/>
	<path class="st0" d="M173.1,50.95H161.3v10.93h13.14v3.29h-17.05V34.84h16.38v3.29h-12.46v9.58h11.79L173.1,50.95L173.1,50.95z"/>
	<path class="st0" d="M182.51,65.17V34.84h4.27l9.72,15.34c2.25,3.55,4,6.75,5.44,9.85l0.09-0.04c-0.36-4.05-0.45-7.74-0.45-12.46
		V34.84h3.69v30.33h-3.96l-9.63-15.39c-2.12-3.38-4.14-6.84-5.67-10.12l-0.13,0.04c0.22,3.82,0.31,7.47,0.31,12.51v12.96H182.51z"/>
	<path class="st0" d="M220.85,38.17h-9.22v-3.33h22.45v3.33h-9.27v27h-3.96L220.85,38.17L220.85,38.17z"/>
	<path class="st0" d="M271.91,65.17c-0.85-0.85-1.67-1.71-2.83-2.97c-2.61,2.43-5.53,3.46-8.86,3.46c-5.89,0-9.31-3.96-9.31-8.5
		c0-4.14,2.47-6.97,5.94-8.86v-0.14c-1.57-1.98-2.52-4.18-2.52-6.34c0-3.69,2.65-7.47,7.69-7.47c3.78,0,6.71,2.52,6.71,6.44
		c0,3.19-1.85,5.71-6.66,8.1v0.13c2.56,2.97,5.44,6.3,7.38,8.46c1.4-2.12,2.34-5.04,2.92-8.86h3.6c-0.81,4.77-2.11,8.55-4.36,11.2
		c1.62,1.71,3.19,3.42,4.99,5.35H271.91z M267.14,59.95c-1.8-1.98-5.17-5.67-8.55-9.54c-1.62,1.04-3.92,2.97-3.92,6.16
		c0,3.46,2.56,6.12,6.21,6.12C263.5,62.69,265.7,61.52,267.14,59.95z M257.92,41.45c0,2.16,0.99,3.82,2.29,5.44
		c3.06-1.75,5.04-3.38,5.04-5.94c0-1.84-1.04-3.92-3.51-3.92C259.22,37.04,257.92,39.11,257.92,41.45z"/>
	<path class="st0" d="M316.82,64.18c-1.44,0.72-4.32,1.44-8.01,1.44c-8.55,0-14.98-5.4-14.98-15.34c0-9.49,6.43-15.93,15.84-15.93
		c3.78,0,6.16,0.81,7.2,1.35l-0.95,3.19c-1.48-0.72-3.6-1.26-6.12-1.26c-7.11,0-11.83,4.54-11.83,12.51
		c0,7.42,4.27,12.19,11.65,12.19c2.39,0,4.81-0.5,6.39-1.26L316.82,64.18z"/>
	<path class="st0" d="M349.67,49.69c0,10.44-6.34,15.97-14.08,15.97c-8.01,0-13.63-6.21-13.63-15.39c0-9.63,5.98-15.93,14.08-15.93
		C344.32,34.34,349.67,40.69,349.67,49.69z M326.14,50.18c0,6.48,3.51,12.28,9.67,12.28c6.21,0,9.72-5.71,9.72-12.6
		c0-6.03-3.15-12.33-9.67-12.33C329.38,37.54,326.14,43.52,326.14,50.18z"/>
	<path class="st0" d="M357.73,65.17V34.84H362l9.72,15.34c2.25,3.55,4,6.75,5.44,9.85l0.09-0.04c-0.36-4.05-0.45-7.74-0.45-12.46
		V34.84h3.69v30.33h-3.96l-9.63-15.39c-2.12-3.38-4.14-6.84-5.67-10.12l-0.13,0.04c0.22,3.82,0.31,7.47,0.31,12.51v12.96H357.73z"/>
	<path class="st0" d="M390.31,34.84h16.33v3.29h-12.42v10.08h11.47v3.24h-11.47v13.72h-3.92V34.84H390.31z"/>
	<path class="st0" d="M430.9,50.95h-11.79v10.93h13.14v3.29h-17.05V34.84h16.38v3.29h-12.46v9.58h11.79v3.24H430.9z"/>
	<path class="st0" d="M440.3,35.24c1.98-0.41,4.82-0.63,7.51-0.63c4.18,0,6.88,0.76,8.77,2.47c1.53,1.35,2.38,3.42,2.38,5.76
		c0,4-2.52,6.66-5.71,7.74v0.13c2.34,0.81,3.74,2.97,4.46,6.12c0.99,4.23,1.71,7.15,2.34,8.32h-4.05c-0.5-0.85-1.17-3.46-2.02-7.25
		c-0.9-4.18-2.52-5.76-6.08-5.89h-3.69v13.14h-3.92L440.3,35.24L440.3,35.24z M444.22,49.06h4c4.18,0,6.84-2.29,6.84-5.76
		c0-3.92-2.83-5.62-6.97-5.67c-1.89,0-3.24,0.18-3.87,0.36V49.06z"/>
	<path class="st0" d="M483.19,50.95H471.4v10.93h13.14v3.29h-17.05V34.84h16.38v3.29h-12.46v9.58h11.79v3.24H483.19z"/>
	<path class="st0" d="M492.59,65.17V34.84h4.27l9.72,15.34c2.25,3.55,4,6.75,5.45,9.85l0.09-0.04c-0.36-4.05-0.45-7.74-0.45-12.46
		V34.84h3.69v30.33h-3.96l-9.63-15.39c-2.12-3.38-4.14-6.84-5.67-10.12l-0.13,0.04c0.22,3.82,0.31,7.47,0.31,12.51v12.96H492.59z"/>
	<path class="st0" d="M546.36,64.18c-1.44,0.72-4.32,1.44-8.01,1.44c-8.55,0-14.98-5.4-14.98-15.34c0-9.49,6.43-15.93,15.84-15.93
		c3.78,0,6.17,0.81,7.2,1.35l-0.95,3.19c-1.48-0.72-3.6-1.26-6.12-1.26c-7.11,0-11.83,4.54-11.83,12.51
		c0,7.42,4.27,12.19,11.65,12.19c2.38,0,4.82-0.5,6.39-1.26L546.36,64.18z"/>
	<path class="st0" d="M569.95,50.95h-11.79v10.93h13.14v3.29h-17.05V34.84h16.38v3.29h-12.46v9.58h11.79v3.24H569.95z"/>
	<path class="st0" d="M578.82,60.4c1.75,1.08,4.32,1.98,7.02,1.98c4,0,6.34-2.12,6.34-5.17c0-2.83-1.62-4.46-5.71-6.03
		c-4.95-1.75-8.01-4.32-8.01-8.59c0-4.72,3.92-8.24,9.81-8.24c3.11,0,5.36,0.72,6.71,1.49l-1.08,3.2c-0.99-0.54-3.01-1.44-5.76-1.44
		c-4.14,0-5.71,2.47-5.71,4.54c0,2.83,1.84,4.23,6.03,5.85c5.13,1.98,7.74,4.45,7.74,8.91c0,4.68-3.46,8.73-10.62,8.73
		c-2.92,0-6.12-0.86-7.74-1.94L578.82,60.4z"/>
</g>
</svg>
