<?xml version="1.0" encoding="utf-8"?>
<!-- Generator: Adobe Illustrator 27.5.0, SVG Export Plug-In . SVG Version: 6.00 Build 0)  -->
<svg version="1.1" id="Layer_1" xmlns="http://www.w3.org/2000/svg" xmlns:xlink="http://www.w3.org/1999/xlink" x="0px" y="0px"
	 viewBox="0 0 57.8 56.38" style="enable-background:new 0 0 57.8 56.38;" xml:space="preserve">
<style type="text/css">
	.st0{fill:#F5B9A5;}
</style>
<g>
	<g>
		<path class="st0" d="M46.91,56.38H10.89C4.88,56.38,0,51.5,0,45.49v-34.6C0,4.88,4.88,0,10.89,0h36.02
			C52.91,0,57.8,4.88,57.8,10.89v34.6C57.8,51.5,52.91,56.38,46.91,56.38 M10.89,1.12c-5.39,0-9.77,4.38-9.77,9.77v34.6
			c0,5.38,4.38,9.77,9.77,9.77h36.02c5.38,0,9.77-4.38,9.77-9.77v-34.6c0-5.38-4.38-9.77-9.77-9.77H10.89z"/>
	</g>
	<g>
		<path class="st0" d="M26.9,29.38h-9.14v7.13h10.22v3.64H13.33V15.88h14.11v3.64h-9.68v6.26h9.14V29.38z"/>
		<path class="st0" d="M44.43,39.6c-0.94,0.43-2.77,0.9-4.97,0.9c-5.47,0-9.04-3.49-9.04-8.93c0-5.25,3.6-9.36,9.75-9.36
			c1.62,0,3.28,0.36,4.28,0.83l-0.79,3.31c-0.72-0.32-1.76-0.68-3.35-0.68c-3.38,0-5.4,2.48-5.36,5.69c0,3.6,2.34,5.65,5.36,5.65
			c1.55,0,2.63-0.32,3.49-0.68L44.43,39.6z"/>
	</g>
</g>
</svg>
