<?xml version="1.0" encoding="utf-8"?>
<!-- Generator: Adobe Illustrator 27.5.0, SVG Export Plug-In . SVG Version: 6.00 Build 0)  -->
<svg version="1.1" id="Layer_1" xmlns="http://www.w3.org/2000/svg" xmlns:xlink="http://www.w3.org/1999/xlink" x="0px" y="0px"
	 viewBox="0 0 700 100" style="enable-background:new 0 0 700 100;" xml:space="preserve">
<style type="text/css">
	.st0{fill:#F5B9A5;}
	.st1{enable-background:new    ;}
</style>
<g>
	<g>
		<g>
			<path class="st0" d="M50.7,99.75c-9.07,0-18.13,0.02-27.2,0c-11.04-0.04-20.37-7.4-22.89-18.1c-0.38-1.6-0.56-3.3-0.58-4.94
				C-0.02,58.89-0.08,41.07,0,23.27C0.1,10.23,10.4-0.09,23.44-0.17c18.07-0.1,635-0.1,653.06-0.02c12.1,0.06,21.75,8.5,23.23,20.2
				c0.34,2.72,0.2,5.5,0.2,8.24c0,16-0.02,32-0.06,48.02c-0.04,13.08-10.2,23.3-23.29,23.38c-8.99,0.06-616.87,0.02-625.86,0.02
				C50.7,99.69,50.7,99.73,50.7,99.75z M3.91,49.63H3.89c0,4.42,0,8.84,0,13.24c0,4.5-0.04,8.98,0,13.48
				c0.1,11.06,8.73,19.68,19.83,19.7c17.91,0.02,634.72,0.02,652.62-0.06c11.16-0.04,19.75-8.58,19.79-19.7
				c0.08-17.6,0.1-35.2,0.08-52.8c-0.02-11.32-8.67-19.98-20.01-20.02C658.35,3.41,41.63,3.43,23.78,3.51
				c-2.14,0-4.37,0.4-6.39,1.06C9.3,7.15,3.99,14.39,3.93,22.89C3.85,31.81,3.91,40.71,3.91,49.63z"/>
		</g>
	</g>
</g>
<g class="st1">
	<path class="st0" d="M157.5,50.95h-11.79v10.93h13.14v3.29H141.8V34.84h16.38v3.29h-12.46v9.58h11.79L157.5,50.95L157.5,50.95z"/>
	<path class="st0" d="M166.91,35.24c2.38-0.36,5.22-0.63,8.32-0.63c5.62,0,9.63,1.3,12.28,3.78c2.7,2.47,4.28,5.98,4.28,10.89
		c0,4.95-1.53,9-4.37,11.79c-2.83,2.83-7.51,4.36-13.41,4.36c-2.79,0-5.13-0.13-7.11-0.36L166.91,35.24L166.91,35.24z M170.82,62.06
		c0.99,0.18,2.43,0.22,3.96,0.22c8.37,0,12.92-4.68,12.92-12.87c0.04-7.16-4-11.7-12.29-11.7c-2.02,0-3.55,0.18-4.59,0.41
		L170.82,62.06L170.82,62.06z"/>
	<path class="st0" d="M203.76,34.84v30.33h-3.91V34.84H203.76z"/>
	<path class="st0" d="M219.33,38.17h-9.22v-3.33h22.45v3.33h-9.27v27h-3.96L219.33,38.17L219.33,38.17z"/>
	<path class="st0" d="M263.61,49.69c0,10.44-6.34,15.97-14.08,15.97c-8.01,0-13.63-6.21-13.63-15.39c0-9.63,5.98-15.93,14.08-15.93
		C258.26,34.34,263.61,40.69,263.61,49.69z M240.08,50.18c0,6.48,3.51,12.28,9.67,12.28c6.21,0,9.72-5.71,9.72-12.6
		c0-6.03-3.15-12.33-9.67-12.33C243.32,37.54,240.08,43.52,240.08,50.18z"/>
	<path class="st0" d="M271.67,35.24c1.98-0.41,4.82-0.63,7.51-0.63c4.19,0,6.88,0.76,8.77,2.47c1.53,1.35,2.39,3.42,2.39,5.76
		c0,4-2.52,6.66-5.71,7.74v0.13c2.34,0.81,3.73,2.97,4.45,6.12c0.99,4.23,1.71,7.15,2.34,8.32h-4.05c-0.49-0.85-1.17-3.46-2.02-7.25
		c-0.9-4.18-2.52-5.76-6.08-5.89h-3.69v13.14h-3.92L271.67,35.24L271.67,35.24z M275.58,49.06h4c4.18,0,6.84-2.29,6.84-5.76
		c0-3.92-2.83-5.62-6.97-5.67c-1.89,0-3.24,0.18-3.87,0.36V49.06z"/>
	<path class="st0" d="M302.76,34.84v30.33h-3.92V34.84H302.76z"/>
	<path class="st0" d="M317.48,55.63l-3.15,9.54h-4.05l10.3-30.33h4.72l10.35,30.33h-4.18l-3.24-9.54H317.48z M327.42,52.57
		l-2.97-8.73c-0.67-1.98-1.12-3.78-1.57-5.54h-0.09c-0.45,1.8-0.94,3.65-1.53,5.49l-2.97,8.77L327.42,52.57L327.42,52.57z"/>
	<path class="st0" d="M343.08,34.84h3.91v27.04h12.96v3.29h-16.87V34.84z"/>
	<path class="st0" d="M379.8,35.24c2.38-0.36,5.22-0.63,8.32-0.63c5.62,0,9.63,1.3,12.28,3.78c2.7,2.47,4.28,5.98,4.28,10.89
		c0,4.95-1.53,9-4.37,11.79c-2.83,2.83-7.51,4.36-13.41,4.36c-2.79,0-5.13-0.13-7.11-0.36L379.8,35.24L379.8,35.24z M383.71,62.06
		c0.99,0.18,2.43,0.22,3.96,0.22c8.37,0,12.92-4.68,12.92-12.87c0.04-7.16-4-11.7-12.29-11.7c-2.02,0-3.55,0.18-4.59,0.41V62.06z"/>
	<path class="st0" d="M428.44,50.95h-11.79v10.93h13.14v3.29h-17.05V34.84h16.38v3.29h-12.46v9.58h11.79v3.24H428.44z"/>
	<path class="st0" d="M437.31,60.4c1.75,1.08,4.32,1.98,7.02,1.98c4,0,6.34-2.12,6.34-5.17c0-2.83-1.62-4.46-5.71-6.03
		c-4.95-1.75-8.01-4.32-8.01-8.59c0-4.72,3.92-8.24,9.81-8.24c3.11,0,5.35,0.72,6.71,1.49l-1.08,3.2c-0.99-0.54-3.01-1.44-5.76-1.44
		c-4.14,0-5.71,2.47-5.71,4.54c0,2.83,1.84,4.23,6.03,5.85c5.13,1.98,7.74,4.45,7.74,8.91c0,4.68-3.46,8.73-10.62,8.73
		c-2.92,0-6.12-0.86-7.74-1.94L437.31,60.4z"/>
	<path class="st0" d="M466.92,34.84v30.33h-3.91V34.84H466.92z"/>
	<path class="st0" d="M499.81,63.82c-1.75,0.63-5.22,1.67-9.31,1.67c-4.59,0-8.37-1.17-11.34-4c-2.61-2.52-4.23-6.57-4.23-11.29
		c0.04-9.04,6.25-15.66,16.42-15.66c3.51,0,6.25,0.76,7.56,1.39l-0.94,3.2c-1.62-0.72-3.65-1.31-6.71-1.31
		c-7.38,0-12.19,4.59-12.19,12.2c0,7.69,4.63,12.24,11.7,12.24c2.57,0,4.32-0.36,5.22-0.81v-9.04h-6.16v-3.15h9.99v14.56H499.81z"/>
	<path class="st0" d="M508.77,65.17V34.84h4.27l9.72,15.34c2.25,3.55,4,6.75,5.45,9.85l0.09-0.04c-0.36-4.05-0.45-7.74-0.45-12.46
		V34.84h3.69v30.33h-3.96l-9.63-15.39c-2.12-3.38-4.14-6.84-5.67-10.12l-0.13,0.04c0.22,3.82,0.31,7.47,0.31,12.51v12.96H508.77z"/>
	<path class="st0" d="M540.82,60.4c1.75,1.08,4.32,1.98,7.02,1.98c4,0,6.34-2.12,6.34-5.17c0-2.83-1.62-4.46-5.71-6.03
		c-4.95-1.75-8.01-4.32-8.01-8.59c0-4.72,3.92-8.24,9.81-8.24c3.11,0,5.36,0.72,6.71,1.49l-1.08,3.2c-0.99-0.54-3.01-1.44-5.76-1.44
		c-4.14,0-5.71,2.47-5.71,4.54c0,2.83,1.84,4.23,6.03,5.85c5.13,1.98,7.74,4.45,7.74,8.91c0,4.68-3.46,8.73-10.62,8.73
		c-2.92,0-6.12-0.86-7.74-1.94L540.82,60.4z"/>
</g>
</svg>
