<?xml version="1.0" encoding="utf-8"?>
<!-- Generator: Adobe Illustrator 27.5.0, SVG Export Plug-In . SVG Version: 6.00 Build 0)  -->
<svg version="1.1" id="Layer_1" xmlns="http://www.w3.org/2000/svg" xmlns:xlink="http://www.w3.org/1999/xlink" x="0px" y="0px"
	 viewBox="0 0 57.8 56.4" style="enable-background:new 0 0 57.8 56.4;" xml:space="preserve">
<style type="text/css">
	.st0{fill:#FFFFFF;}
</style>
<g>
	<g>
		<path class="st0" d="M46.9,56.4h-36C4.9,56.4,0,51.5,0,45.5V10.9C0,4.9,4.9,0,10.9,0h36c6,0,10.9,4.9,10.9,10.9v34.6
			C57.8,51.5,52.9,56.4,46.9,56.4 M10.9,1.1c-5.4,0-9.8,4.4-9.8,9.8v34.6c0,5.4,4.4,9.8,9.8,9.8h36c5.4,0,9.8-4.4,9.8-9.8V10.9
			c0-5.4-4.4-9.8-9.8-9.8C46.9,1.1,10.9,1.1,10.9,1.1z"/>
	</g>
	<g>
		<path class="st0" d="M25.2,30h-9.1v7.1h10.2v3.6H11.6V16.5h14.1v3.6h-9.7v6.3h9.1V30z"/>
		<path class="st0" d="M46,15.2v20.6c0,1.8,0.1,3.7,0.1,4.9h-4L42,38H42c-1,1.9-3.2,3.2-5.7,3.2c-4.2,0-7.5-3.6-7.5-9
			c0-5.9,3.6-9.4,7.9-9.4c2.4,0,4.1,1,4.9,2.3h0.1v-9.9L46,15.2L46,15.2z M41.6,30.5c0-0.4,0-0.8-0.1-1.1c-0.4-1.7-1.8-3.1-3.8-3.1
			c-2.8,0-4.4,2.5-4.4,5.8c0,3.2,1.6,5.5,4.4,5.5c1.8,0,3.4-1.2,3.8-3.1c0.1-0.4,0.1-0.8,0.1-1.3L41.6,30.5L41.6,30.5z"/>
	</g>
</g>
</svg>
