<?xml version="1.0" encoding="utf-8"?>
<!-- Generator: Adobe Illustrator 27.5.0, SVG Export Plug-In . SVG Version: 6.00 Build 0)  -->
<svg version="1.1" id="Layer_1" xmlns="http://www.w3.org/2000/svg" xmlns:xlink="http://www.w3.org/1999/xlink" x="0px" y="0px"
	 viewBox="0 0 57.8 56.38" style="enable-background:new 0 0 57.8 56.38;" xml:space="preserve">
<style type="text/css">
	.st0{fill:#F5B9A5;}
</style>
<g>
	<g>
		<path class="st0" d="M46.91,56.38H10.89C4.88,56.38,0,51.5,0,45.49v-34.6C0,4.88,4.88,0,10.89,0h36.02
			C52.91,0,57.8,4.88,57.8,10.89v34.6C57.8,51.5,52.91,56.38,46.91,56.38 M10.89,1.12c-5.39,0-9.77,4.38-9.77,9.77v34.6
			c0,5.38,4.38,9.77,9.77,9.77h36.02c5.38,0,9.77-4.38,9.77-9.77v-34.6c0-5.38-4.38-9.77-9.77-9.77H10.89z"/>
	</g>
	<g>
		<path class="st0" d="M25.21,30.01h-9.14v7.13h10.22v3.64H11.64V16.51h14.11v3.64h-9.68v6.26h9.14V30.01z"/>
		<path class="st0" d="M46.02,15.21v20.62c0,1.8,0.07,3.74,0.14,4.93H42.2L42.02,38h-0.07c-1.04,1.94-3.17,3.17-5.72,3.17
			c-4.18,0-7.49-3.56-7.49-8.96c-0.04-5.87,3.64-9.36,7.85-9.36c2.41,0,4.14,1.01,4.93,2.3h0.07v-9.93H46.02z M41.59,30.55
			c0-0.36-0.04-0.79-0.11-1.15c-0.4-1.73-1.8-3.13-3.82-3.13c-2.84,0-4.43,2.52-4.43,5.79c0,3.2,1.58,5.54,4.39,5.54
			c1.8,0,3.38-1.22,3.82-3.13c0.11-0.4,0.14-0.83,0.14-1.3V30.55z"/>
	</g>
</g>
</svg>
