<?xml version="1.0" encoding="utf-8"?>
<!-- Generator: Adobe Illustrator 27.5.0, SVG Export Plug-In . SVG Version: 6.00 Build 0)  -->
<svg version="1.1" id="Layer_1" xmlns="http://www.w3.org/2000/svg" xmlns:xlink="http://www.w3.org/1999/xlink" x="0px" y="0px"
	 viewBox="0 0 57.8 56.38" style="enable-background:new 0 0 57.8 56.38;" xml:space="preserve">
<style type="text/css">
	.st0{fill:#FFFFFF;}
</style>
<g>
	<path class="st0" d="M57.32,28.08c0,5.22,0.01,10.45,0,15.67c-0.01,3.07-1.16,5.75-3.17,8.01c-2.71,3.06-6.15,4.59-10.28,4.58
		c-10.08-0.02-20.16-0.02-30.24,0.04c-5.53,0.04-11.4-3.84-12.86-10.4c-0.23-1.03-0.3-2.11-0.3-3.16
		c-0.01-9.8-0.04-19.59,0.03-29.39C0.56,5.06,7.2,0.03,13.86,0.02c10.04-0.01,20.08-0.04,30.12,0c5.42,0.02,9.45,2.48,12.03,7.24
		c0.88,1.63,1.34,3.39,1.34,5.27c-0.02,5.18-0.01,10.37-0.01,15.55C57.33,28.08,57.33,28.08,57.32,28.08z M2.75,28.13
		c0,0-0.01,0-0.01,0c0,5.22-0.02,10.45,0.02,15.67c0.01,0.84,0.16,1.71,0.41,2.51c1.56,4.95,5.75,7.98,10.95,7.99
		c2.61,0,5.22,0,7.84-0.01c7.35-0.01,14.69,0.01,22.04-0.05c4.78-0.04,8.22-2.32,10.3-6.61c0.89-1.85,1-3.85,1-5.86
		c0-6.37,0-12.73,0-19.1c0-3.02,0.03-6.04,0.01-9.06c-0.03-3.67-1.35-6.77-4.26-9.1c-2.16-1.73-4.66-2.42-7.41-2.42
		C33.76,2.11,23.88,2.1,14,2.13c-1.01,0-2.05,0.12-3.03,0.37C6.34,3.68,2.82,7.81,2.76,12.7C2.69,17.85,2.75,22.99,2.75,28.13z"/>
	<path class="st0" d="M24.87,30.78c-2.04,0-3.85,0-5.8,0c-0.2-2.42-0.08-4.68-0.08-7.04c1.93-0.36,3.82-0.02,5.83-0.28
		c0.03-0.68,0.07-1.35,0.08-2.02c0.02-1.87-0.13-3.75,0.35-5.6c0.86-3.32,3.07-5.21,6.37-5.82c2.33-0.43,4.69-0.43,7.2-0.05
		c0.11,1.92,0.16,3.81-0.01,5.83c-0.71,0.03-1.35,0.04-1.99,0.1c-1.05,0.09-2.11,0.15-3.15,0.33c-0.97,0.16-1.51,0.89-1.55,1.81
		c-0.08,1.75-0.02,3.5-0.02,5.38c2.19,0.33,4.35-0.03,6.63,0.25c-0.04,0.51-0.05,0.97-0.11,1.43c-0.2,1.49-0.4,2.99-0.64,4.47
		c-0.17,1.06-0.24,1.11-1.34,1.14c-1.06,0.03-2.12,0.03-3.18,0.05c-0.4,0.01-0.8,0.05-1.33,0.09c-0.18,5.52,0,10.97-0.15,16.48
		c-0.42,0.07-0.72,0.16-1.03,0.16c-1.63,0.02-3.27,0.02-4.9,0.01c-1.11-0.01-1.15-0.05-1.16-1.21c-0.02-4.29-0.02-8.57-0.03-12.86
		C24.87,32.65,24.87,31.84,24.87,30.78z"/>
</g>
</svg>
