<?xml version="1.0" encoding="utf-8"?>
<!-- Generator: Adobe Illustrator 27.5.0, SVG Export Plug-In . SVG Version: 6.00 Build 0)  -->
<svg version="1.1" id="Layer_1" xmlns="http://www.w3.org/2000/svg" xmlns:xlink="http://www.w3.org/1999/xlink" x="0px" y="0px"
	 viewBox="0 0 57.8 56.4" style="enable-background:new 0 0 57.8 56.4;" xml:space="preserve">
<style type="text/css">
	.st0{fill:#F5B9A5;}
</style>
<g>
	<g>
		<path class="st0" d="M46.9,56.4h-36C4.9,56.4,0,51.5,0,45.5V10.9C0,4.9,4.9,0,10.9,0h36c6,0,10.9,4.9,10.9,10.9v34.6
			C57.8,51.5,52.9,56.4,46.9,56.4 M10.9,1.1c-5.4,0-9.8,4.4-9.8,9.8v34.6c0,5.4,4.4,9.8,9.8,9.8h36c5.4,0,9.8-4.4,9.8-9.8V10.9
			c0-5.4-4.4-9.8-9.8-9.8C46.9,1.1,10.9,1.1,10.9,1.1z"/>
	</g>
	<g>
		<path class="st0" d="M22.2,15.9v24.3h-4.4V15.9H22.2z"/>
		<path class="st0" d="M40,39.6c-0.9,0.4-2.8,0.9-5,0.9c-5.5,0-9-3.5-9-8.9c0-5.2,3.6-9.4,9.8-9.4c1.6,0,3.3,0.4,4.3,0.8l-0.8,3.3
			c-0.7-0.3-1.8-0.7-3.3-0.7c-3.4,0-5.4,2.5-5.4,5.7c0,3.6,2.3,5.6,5.4,5.6c1.5,0,2.6-0.3,3.5-0.7L40,39.6z"/>
	</g>
</g>
</svg>
