<?xml version="1.0" encoding="utf-8"?>
<!-- Generator: Adobe Illustrator 27.5.0, SVG Export Plug-In . SVG Version: 6.00 Build 0)  -->
<svg version="1.1" id="Layer_1" xmlns="http://www.w3.org/2000/svg" xmlns:xlink="http://www.w3.org/1999/xlink" x="0px" y="0px"
	 viewBox="0 0 210.85 209" style="enable-background:new 0 0 210.85 209;" xml:space="preserve">
<style type="text/css">
	.st0{fill:#FFFFFF;}
</style>
<g>
	<g>
		<path class="st0" d="M21.34,50.85c-0.28,0-0.57-0.08-0.82-0.24c-0.72-0.46-0.93-1.41-0.47-2.12
			c9.27-14.57,22.11-26.73,37.15-35.17C72.71,4.6,90.38,0,108.28,0c26.75,0,52.2,10.1,71.66,28.44c0.62,0.58,0.65,1.56,0.06,2.17
			c-0.58,0.62-1.56,0.65-2.17,0.06c-18.89-17.8-43.59-27.61-69.55-27.61c-17.37,0-34.52,4.47-49.57,12.92
			c-14.6,8.2-27.07,20-36.07,34.14C22.34,50.6,21.85,50.85,21.34,50.85z"/>
	</g>
	<g>
		<path class="st0" d="M108.28,209c-17.82,0-35.4-4.56-50.87-13.19c-14.99-8.37-27.82-20.43-37.11-34.88
			c-0.46-0.71-0.25-1.67,0.46-2.12c0.71-0.46,1.67-0.25,2.12,0.46c9.02,14.03,21.47,25.74,36.02,33.86
			c15,8.38,32.08,12.8,49.37,12.8c12.06,0,23.85-2.09,35.06-6.22c10.83-3.99,20.84-9.77,29.76-17.19
			c17.92-14.91,30.25-35.64,34.71-58.38c0.16-0.83,0.97-1.37,1.8-1.21c0.83,0.16,1.38,0.97,1.21,1.8
			c-4.6,23.43-17.29,44.79-35.76,60.15c-9.18,7.64-19.5,13.6-30.66,17.71C132.85,206.84,120.7,209,108.28,209z"/>
	</g>
	<g>
		<path class="st0" d="M45.54,110.28c0,1.54-0.77,2.31-2.31,2.31h-7.9c-1.65,0-2.47-0.77-2.47-2.31V89.7H12.68v20.58
			c0,1.54-0.77,2.31-2.31,2.31h-7.9c-1.65,0-2.47-0.77-2.47-2.31V59.31c0-1.38,0.82-2.07,2.47-2.07h7.9c1.54,0,2.31,0.69,2.31,2.07
			v20.1h20.18v-20.1c0-1.38,0.82-2.07,2.47-2.07h7.9c1.54,0,2.31,0.69,2.31,2.07V110.28z"/>
		<path class="st0" d="M91.72,94.01c0,0.9-0.21,1.52-0.64,1.83c-0.43,0.32-1.17,0.48-2.23,0.48H66.52c0.48,2.45,1.67,4.36,3.59,5.74
			c1.91,1.38,4.15,2.07,6.7,2.07c3.24,0,6.59-0.69,10.05-2.07c0.32-0.16,0.64-0.24,0.96-0.24c0.69,0,1.12,0.37,1.28,1.12
			c0.05,0.27,0.23,0.88,0.52,1.83c0.29,0.96,0.53,1.83,0.72,2.63c0.19,0.8,0.28,1.38,0.28,1.75c0,0.69-0.51,1.28-1.52,1.75
			c-3.99,1.81-8.8,2.71-14.44,2.71c-6.38,0-11.43-1.83-15.15-5.5c-3.72-3.67-5.58-8.69-5.58-15.07c0-6.17,1.9-11.13,5.7-14.88
			c3.8-3.75,8.79-5.62,14.96-5.62c5.1,0,9.22,1.7,12.36,5.1c3.19,3.4,4.79,8.51,4.79,15.31V94.01z M80,88.74
			c0-1.86-0.53-3.48-1.6-4.87c-1.06-1.38-2.58-2.07-4.55-2.07c-1.91,0-3.51,0.67-4.79,1.99c-1.28,1.33-2.07,2.98-2.39,4.95H80z"/>
		<path class="st0" d="M110.39,110.36c0,1.49-0.69,2.23-2.07,2.23h-7.74c-1.44,0-2.15-0.72-2.15-2.15V58.68
			c0-1.33,0.64-2.07,1.91-2.23l7.58-1.04h0.32h0.48c1.12,0,1.67,0.67,1.67,1.99V110.36z"/>
		<path class="st0" d="M131.92,110.36c0,1.49-0.69,2.23-2.07,2.23h-7.74c-1.44,0-2.15-0.72-2.15-2.15V58.68
			c0-1.33,0.64-2.07,1.91-2.23l7.58-1.04h0.32h0.48c1.12,0,1.67,0.67,1.67,1.99V110.36z"/>
		<path class="st0" d="M179.22,93.21c0,6.01-1.81,10.91-5.42,14.72c-3.62,3.8-8.59,5.7-14.92,5.7c-6.49,0-11.41-1.87-14.76-5.62
			c-3.35-3.75-5.02-8.73-5.02-14.95c0-6.01,1.81-10.91,5.42-14.72c3.62-3.8,8.59-5.7,14.92-5.7c6.49,0,11.41,1.87,14.76,5.62
			S179.22,86.99,179.22,93.21z M166.86,93.13c0-7.39-2.53-11.09-7.58-11.09c-5.21,0-7.82,3.64-7.82,10.93
			c0,7.5,2.52,11.25,7.58,11.25c2.76,0,4.76-1.04,5.98-3.11C166.25,99.03,166.86,96.38,166.86,93.13z"/>
	</g>
	<g>
		<path class="st0" d="M205.74,100.67c1.71,1.52,2.57,3.5,2.57,5.93c0,2.43-0.87,4.39-2.62,5.87c-1.75,1.48-3.72,2.22-5.93,2.22
			c-2.21,0-4.2-0.72-5.99-2.17c-1.79-1.44-2.68-3.38-2.68-5.81c0-2.51,0.87-4.52,2.62-6.04c1.75-1.52,3.76-2.28,6.04-2.28
			C202.03,98.39,204.03,99.15,205.74,100.67z M207.73,36.36l-1.48,56.09c0,1.6-0.76,2.39-2.28,2.39h-7.98
			c-1.67,0-2.51-0.87-2.51-2.62L192,36.36v-0.23c0-0.84,0.15-1.37,0.46-1.6c0.3-0.23,0.87-0.34,1.71-0.34h11.29
			c1.52,0,2.28,0.65,2.28,1.94V36.36z"/>
	</g>
	<g>
		<path class="st0" d="M14.32,147.92c0,0.19-0.03,0.31-0.09,0.36c-0.06,0.06-0.18,0.09-0.36,0.09H3.22c-0.37,0-0.55-0.21-0.55-0.62
			v-22.58c0-0.42,0.18-0.62,0.55-0.62h1.32c0.37,0,0.56,0.21,0.56,0.62v21.33h8.67c0.23,0,0.38,0.03,0.45,0.09
			c0.07,0.06,0.1,0.17,0.1,0.33V147.92z"/>
		<path class="st0" d="M29.51,139.15c0,0.39-0.06,0.65-0.17,0.76c-0.12,0.12-0.38,0.17-0.8,0.17h-3.05h-7.94
			c0,1.97,0.5,3.58,1.49,4.84c0.99,1.26,2.44,1.89,4.34,1.89c1.66,0,3.11-0.27,4.33-0.8c0.14-0.05,0.22-0.07,0.24-0.07
			c0.18,0,0.3,0.1,0.35,0.31l0.17,0.8c0.02,0.07,0.03,0.16,0.03,0.28c0,0.16-0.12,0.29-0.35,0.38c-1.36,0.65-3.03,0.97-4.99,0.97
			c-2.57,0-4.53-0.79-5.88-2.36c-1.35-1.57-2.03-3.69-2.03-6.35c0-2.47,0.71-4.54,2.13-6.19c1.42-1.65,3.31-2.48,5.67-2.48
			c1.99,0,3.56,0.68,4.72,2.03c1.16,1.35,1.73,3.07,1.73,5.15V139.15z M27.29,137.83c0-1.39-0.37-2.54-1.11-3.45
			c-0.74-0.91-1.8-1.37-3.19-1.37c-1.55,0-2.79,0.53-3.73,1.6c-0.94,1.06-1.49,2.37-1.65,3.92h9.64
			C27.28,138.36,27.29,138.13,27.29,137.83z"/>
		<path class="st0" d="M41.55,147.78c0,0.16-0.12,0.29-0.35,0.38c-0.95,0.35-1.9,0.52-2.84,0.52c-1.62,0-2.81-0.39-3.57-1.18
			c-0.44-0.46-0.72-1.02-0.85-1.66c-0.13-0.65-0.19-1.54-0.19-2.67v-9.88H31.7c-0.25,0-0.38-0.12-0.38-0.35V132
			c0-0.14,0.02-0.23,0.05-0.28c0.03-0.05,0.12-0.07,0.26-0.07h2.12v-4.06c0-0.37,0.15-0.58,0.45-0.62l1.21-0.17h0.03h0.1
			c0.28,0,0.42,0.19,0.42,0.55v4.3h4.2c0.25,0,0.38,0.13,0.38,0.38v0.9c0,0.23-0.14,0.35-0.42,0.35h-4.16v10.23
			c0,1.39,0.23,2.31,0.69,2.77c0.44,0.44,1.12,0.66,2.05,0.66c0.55,0,1.27-0.13,2.15-0.38c0.07-0.02,0.16-0.03,0.28-0.03
			c0.12,0,0.2,0.08,0.24,0.24l0.17,0.87V147.78z"/>
		<path class="st0" d="M49.42,126.04c0,0.86-0.24,1.73-0.71,2.62c-0.47,0.89-1.06,1.58-1.75,2.06c-0.19,0.12-0.32,0.17-0.42,0.17
			c-0.12,0-0.23-0.07-0.35-0.21l-0.17-0.21c-0.07-0.07-0.1-0.16-0.1-0.28c0-0.07,0.06-0.16,0.17-0.28c0.72-0.72,1.08-1.43,1.08-2.15
			c0-0.28-0.17-0.64-0.52-1.08c-0.35-0.44-0.52-0.81-0.52-1.11c0-0.44,0.15-0.81,0.45-1.11c0.3-0.3,0.68-0.45,1.14-0.45
			c0.51,0,0.92,0.2,1.23,0.61C49.26,125.04,49.42,125.51,49.42,126.04z"/>
		<path class="st0" d="M64.82,143.62c0,1.48-0.56,2.69-1.68,3.64c-1.12,0.95-2.61,1.42-4.46,1.42c-1.55,0-3.02-0.35-4.4-1.04
			c-0.21-0.12-0.31-0.22-0.31-0.31c0-0.07,0.01-0.13,0.03-0.17l0.42-1.08c0.05-0.14,0.12-0.21,0.21-0.21c0.07,0,0.13,0.01,0.17,0.03
			c1.39,0.69,2.72,1.04,3.99,1.04c1.18,0,2.12-0.27,2.81-0.81c0.69-0.54,1.04-1.29,1.04-2.24c0-0.74-0.25-1.35-0.75-1.82
			c-0.5-0.47-1.22-0.91-2.17-1.3l-2.08-0.83c-2.38-0.95-3.57-2.35-3.57-4.2c0-1.36,0.53-2.44,1.6-3.24c1.06-0.8,2.38-1.2,3.95-1.2
			c1.48,0,2.88,0.31,4.2,0.94c0.18,0.07,0.28,0.16,0.28,0.28c0,0.02-0.01,0.06-0.03,0.1l-0.35,0.97c-0.07,0.19-0.16,0.28-0.28,0.28
			c-0.02,0-0.1-0.02-0.24-0.07c-1.11-0.55-2.3-0.83-3.57-0.83c-0.99,0-1.79,0.23-2.38,0.69c-0.59,0.46-0.88,1.06-0.88,1.8
			c0,0.69,0.19,1.24,0.57,1.63c0.38,0.39,1,0.76,1.86,1.11l2.46,1.04C63.63,140.25,64.82,141.7,64.82,143.62z"/>
		<path class="st0" d="M96.17,131.97c0,0.09-0.01,0.16-0.03,0.21l-4.68,15.71c-0.09,0.32-0.32,0.49-0.69,0.49h-1.42
			c-0.39,0-0.62-0.16-0.69-0.49l-3.57-12.69l-3.54,12.69c-0.09,0.32-0.32,0.49-0.69,0.49h-1.39c-0.37,0-0.61-0.16-0.73-0.49
			l-4.68-15.68c0-0.02,0-0.06,0-0.1l-0.03-0.07c0-0.25,0.16-0.38,0.49-0.38h1.21c0.42,0,0.66,0.13,0.73,0.38l3.81,13.7h0.07
			l3.85-13.66c0.09-0.28,0.28-0.42,0.55-0.42h1.11c0.23,0,0.37,0.12,0.42,0.35l3.99,13.73h0.07l3.68-13.59
			c0.09-0.32,0.33-0.49,0.73-0.49h1.04C96.03,131.66,96.17,131.76,96.17,131.97z"/>
		<path class="st0" d="M113.44,139.98c0,2.52-0.69,4.6-2.06,6.24c-1.38,1.64-3.28,2.46-5.7,2.46c-2.5,0-4.37-0.8-5.62-2.41
			c-1.25-1.61-1.87-3.7-1.87-6.29c0-2.52,0.68-4.6,2.05-6.23c1.36-1.63,3.25-2.44,5.65-2.44c2.5,0,4.38,0.79,5.65,2.38
			C112.8,135.27,113.44,137.37,113.44,139.98z M111.15,140.05c0-1.96-0.42-3.63-1.27-4.99c-0.84-1.36-2.18-2.05-4.01-2.05
			c-0.99,0-1.86,0.2-2.58,0.61c-0.73,0.4-1.29,0.95-1.68,1.65c-0.39,0.69-0.68,1.43-0.87,2.2c-0.19,0.77-0.28,1.59-0.28,2.44
			c0,1.99,0.41,3.67,1.23,5.05c0.82,1.38,2.16,2.06,4.01,2.06c0.97,0,1.82-0.2,2.55-0.59c0.73-0.39,1.29-0.93,1.7-1.61
			c0.4-0.68,0.71-1.42,0.9-2.22C111.05,141.8,111.15,140.95,111.15,140.05z"/>
		<path class="st0" d="M124.57,131.8l-0.17,1.14c-0.05,0.19-0.14,0.28-0.28,0.28h-0.07c-0.46-0.09-0.83-0.14-1.11-0.14
			c-0.62,0-1.25,0.21-1.89,0.64c-0.64,0.43-1.19,0.99-1.65,1.68v12.35c0,0.42-0.19,0.62-0.55,0.62h-1.11
			c-0.37,0-0.56-0.21-0.56-0.62v-15.47c0-0.42,0.18-0.62,0.56-0.62h1.08c0.37,0,0.55,0.21,0.55,0.62l0.03,1.21
			c0.39-0.58,0.94-1.09,1.63-1.53c0.69-0.44,1.44-0.66,2.25-0.66c0.32,0,0.66,0.03,1.01,0.1c0.18,0.02,0.28,0.13,0.28,0.31V131.8z"
			/>
		<path class="st0" d="M138.89,148.1c0,0.19-0.16,0.28-0.49,0.28h-1.28c-0.42,0-0.74-0.16-0.97-0.49l-5.58-8.08l-1.01,1.04v6.9
			c0,0.42-0.19,0.62-0.55,0.62h-1.11c-0.37,0-0.56-0.21-0.56-0.62v-23.17c0-0.37,0.15-0.58,0.45-0.62l1.21-0.17h0.03h0.1
			c0.28,0,0.42,0.19,0.42,0.55v14.01h0.07l5.86-6.35c0.21-0.23,0.42-0.35,0.62-0.35h1.73c0.16,0,0.24,0.06,0.24,0.17
			c0,0.02-0.05,0.1-0.14,0.24l-5.79,6.24l6.55,9.33C138.83,147.78,138.89,147.93,138.89,148.1z"/>
		<path class="st0" d="M144.25,145.88c0.36,0.32,0.54,0.73,0.54,1.21c0,0.49-0.18,0.9-0.54,1.23c-0.36,0.33-0.78,0.5-1.27,0.5
			c-0.49,0-0.91-0.17-1.28-0.5c-0.37-0.33-0.55-0.75-0.55-1.23c0-0.51,0.18-0.92,0.54-1.23c0.36-0.31,0.79-0.47,1.3-0.47
			C143.47,145.39,143.89,145.55,144.25,145.88z"/>
		<path class="st0" d="M151.01,145.88c0.36,0.32,0.54,0.73,0.54,1.21c0,0.49-0.18,0.9-0.54,1.23c-0.36,0.33-0.78,0.5-1.27,0.5
			c-0.49,0-0.91-0.17-1.28-0.5c-0.37-0.33-0.55-0.75-0.55-1.23c0-0.51,0.18-0.92,0.54-1.23c0.36-0.31,0.79-0.47,1.3-0.47
			C150.23,145.39,150.65,145.55,151.01,145.88z"/>
		<path class="st0" d="M157.78,145.88c0.36,0.32,0.54,0.73,0.54,1.21c0,0.49-0.18,0.9-0.54,1.23c-0.36,0.33-0.78,0.5-1.27,0.5
			c-0.49,0-0.91-0.17-1.28-0.5c-0.37-0.33-0.55-0.75-0.55-1.23c0-0.51,0.18-0.92,0.54-1.23c0.36-0.31,0.79-0.47,1.3-0.47
			C156.99,145.39,157.42,145.55,157.78,145.88z"/>
	</g>
</g>
</svg>
