<?xml version="1.0" encoding="utf-8"?>
<!-- Generator: Adobe Illustrator 27.5.0, SVG Export Plug-In . SVG Version: 6.00 Build 0)  -->
<svg version="1.1" id="Layer_1" xmlns="http://www.w3.org/2000/svg" xmlns:xlink="http://www.w3.org/1999/xlink" x="0px" y="0px"
	 viewBox="0 0 57.8 56.38" style="enable-background:new 0 0 57.8 56.38;" xml:space="preserve">
<style type="text/css">
	.st0{fill:#FFFFFF;}
</style>
<g>
	<path class="st0" d="M29.02,0.01c5.14,0,10.29,0.02,15.43-0.01c6.35-0.03,12.9,5.26,12.9,13c0,10.04-0.02,20.08-0.03,30.12
		C57.31,50.4,51.49,56.3,44.2,56.34c-7.88,0.05-15.75,0.02-23.63,0.03c-2.33,0-4.65,0.02-6.98-0.01
		C7.45,56.29,2.31,52.22,0.87,46.27c-0.27-1.1-0.4-2.26-0.4-3.39c-0.02-8.2-0.01-16.41,0.02-24.61c0.01-2.28-0.07-4.58,0.18-6.84
		c0.6-5.33,4.57-9.74,9.79-10.99c1.21-0.29,2.5-0.4,3.75-0.41C19.14-0.02,24.08,0.01,29.02,0.01C29.02,0.01,29.02,0.01,29.02,0.01z
		 M28.76,54.24C28.76,54.24,28.76,54.24,28.76,54.24c5.02,0,10.04-0.01,15.06,0c6.51,0,11.37-4.84,11.38-11.38
		c0.02-6.2,0.02-12.41,0.02-18.61c0-3.76,0.03-7.51-0.02-11.26c-0.08-5.42-4.07-9.98-9.43-10.72c-1.69-0.23-3.42-0.2-5.13-0.21
		c-8.78-0.02-17.55-0.02-26.33,0c-3.95,0.01-7.23,1.47-9.61,4.72c-1.5,2.05-2.08,4.39-2.07,6.91c0.01,2.94,0.02,5.88,0.02,8.81
		C2.65,29.06,2.63,35.63,2.64,42.2c0,1.02-0.01,2.06,0.18,3.05c1.05,5.31,5.56,8.97,11,8.99C18.8,54.25,23.78,54.24,28.76,54.24z"/>
	<path class="st0" d="M8.73,27.96c0-2.9-0.01-5.79,0-8.69c0.02-4.79,2.87-8.93,7.37-10.51c1.21-0.43,2.54-0.68,3.82-0.7
		c6-0.07,11.99-0.05,17.99-0.02c5.22,0.03,9.67,3.56,10.82,8.61c0.23,1.02,0.28,2.1,0.29,3.16c0.03,5.43,0,10.85,0.02,16.28
		c0.02,5.42-2.88,9.68-7.87,11.3c-1.11,0.36-2.32,0.56-3.48,0.57c-5.92,0.05-11.83,0.05-17.75,0.01
		c-6.29-0.04-11.18-4.93-11.23-11.19c-0.02-2.94,0-5.87,0-8.81C8.72,27.96,8.73,27.96,8.73,27.96z M28.98,11.52
		C28.98,11.53,28.98,11.53,28.98,11.52c-2.94,0.01-5.87-0.04-8.81,0.02c-4.54,0.08-7.82,3.32-7.86,7.83
		c-0.06,5.79-0.05,11.58,0.02,17.37c0.01,1.07,0.27,2.21,0.71,3.19c1.35,3.03,3.87,4.4,7.11,4.51c1.63,0.05,3.26,0.01,4.89,0.01
		c4.16,0,8.32,0.05,12.48-0.02c4.63-0.07,7.88-3.26,7.92-7.74c0.05-5.75,0.04-11.5,0.02-17.25c0-1.53-0.35-2.99-1.21-4.3
		c-1.61-2.46-3.96-3.57-6.83-3.61C34.61,11.49,31.79,11.52,28.98,11.52z"/>
	<path class="st0" d="M28.94,17.9c5.85-0.01,10.64,4.64,10.58,10.43c-0.06,6.37-5.31,10.52-10.56,10.5
		c-5.94-0.02-10.64-4.59-10.62-10.52C18.36,22.26,23.48,17.74,28.94,17.9z M28.87,35.34c3.48,0.17,7.05-2.75,7.08-6.89
		c0.03-3.94-3.09-7.07-7.04-7.08c-3.89-0.01-7.01,3.08-7.03,6.96C21.86,32.16,25.01,35.32,28.87,35.34z"/>
	<path class="st0" d="M39.51,19.91c-1.45,0-2.52-1.06-2.54-2.53c-0.02-1.43,1.22-2.67,2.63-2.63c1.29,0.04,2.47,1.23,2.48,2.53
		C42.11,18.79,41.01,19.91,39.51,19.91z"/>
</g>
</svg>
