<?xml version="1.0" encoding="utf-8"?>
<!-- Generator: Adobe Illustrator 27.5.0, SVG Export Plug-In . SVG Version: 6.00 Build 0)  -->
<svg version="1.1" id="Layer_1" xmlns="http://www.w3.org/2000/svg" xmlns:xlink="http://www.w3.org/1999/xlink" x="0px" y="0px"
	 viewBox="0 0 57.8 56.38" style="enable-background:new 0 0 57.8 56.38;" xml:space="preserve">
<style type="text/css">
	.st0{fill:#F5B9A5;}
</style>
<g>
	<g>
		<path class="st0" d="M46.91,56.38H10.89C4.88,56.38,0,51.5,0,45.49v-34.6C0,4.88,4.88,0,10.89,0h36.02
			C52.91,0,57.8,4.88,57.8,10.89v34.6C57.8,51.5,52.91,56.38,46.91,56.38 M10.89,1.12c-5.39,0-9.77,4.38-9.77,9.77v34.6
			c0,5.38,4.38,9.77,9.77,9.77h36.02c5.38,0,9.77-4.38,9.77-9.77v-34.6c0-5.38-4.38-9.77-9.77-9.77H10.89z"/>
	</g>
	<g>
		<path class="st0" d="M11.24,16.06h4.39v11.16h0.11c0.58-0.94,1.19-1.8,1.76-2.63l6.34-8.53h5.47l-8.35,10.33l8.89,13.93h-5.18
			L17.79,29.2l-2.16,2.59v8.53h-4.39V16.06z"/>
		<path class="st0" d="M33.78,22.79l2.84,8.89c0.5,1.55,0.86,2.95,1.19,4.39h0.11c0.32-1.44,0.72-2.81,1.19-4.39l2.77-8.89h4.68
			l-6.7,17.53h-4.36l-6.52-17.53H33.78z"/>
	</g>
</g>
</svg>
