<?xml version="1.0" encoding="utf-8"?>
<!-- Generator: Adobe Illustrator 27.5.0, SVG Export Plug-In . SVG Version: 6.00 Build 0)  -->
<svg version="1.1" id="Layer_1" xmlns="http://www.w3.org/2000/svg" xmlns:xlink="http://www.w3.org/1999/xlink" x="0px" y="0px"
	 viewBox="0 0 700 100" style="enable-background:new 0 0 700 100;" xml:space="preserve">
<style type="text/css">
	.st0{fill:#FFFFFF;}
	.st1{enable-background:new    ;}
</style>
<g>
	<g>
		<g>
			<path class="st0" d="M50.74,99.99c-9.07,0-18.13,0.02-27.2,0c-11.04-0.04-20.37-7.4-22.89-18.1c-0.38-1.6-0.56-3.3-0.58-4.94
				C0.02,59.13-0.04,41.31,0.04,23.51c0.1-13.04,10.4-23.36,23.44-23.44c18.07-0.1,635-0.1,653.06-0.02
				c12.1,0.06,21.75,8.5,23.23,20.2c0.34,2.72,0.2,5.5,0.2,8.24c0,16-0.02,32-0.06,48.02c-0.04,13.08-10.2,23.3-23.29,23.38
				c-8.99,0.06-616.87,0.02-625.86,0.02C50.74,99.93,50.74,99.97,50.74,99.99z M3.95,49.87H3.93c0,4.42,0,8.84,0,13.24
				c0,4.5-0.04,8.98,0,13.48c0.1,11.06,8.73,19.68,19.83,19.7c17.91,0.02,634.72,0.02,652.62-0.06c11.16-0.04,19.75-8.58,19.79-19.7
				c0.08-17.6,0.1-35.2,0.08-52.8c-0.02-11.32-8.67-19.98-20.01-20.02C658.39,3.65,41.67,3.67,23.82,3.75
				c-2.14,0-4.37,0.4-6.39,1.06C9.34,7.39,4.03,14.63,3.97,23.13C3.89,32.05,3.95,40.95,3.95,49.87z"/>
		</g>
	</g>
</g>
<g class="st1">
	<path class="st0" d="M232.15,34.83h3.91v14.62h0.14c0.81-1.17,1.62-2.25,2.38-3.24l9.27-11.38h4.86L241.73,47.7l11.83,17.46h-4.63
		l-9.99-14.89l-2.88,3.33v11.56h-3.91V34.83z"/>
	<path class="st0" d="M275.21,50.94h-11.79v10.93h13.14v3.29h-17.05V34.83h16.38v3.29h-12.46v9.58h11.79v3.24H275.21z"/>
	<path class="st0" d="M291.5,65.17V52.29l-9.58-17.46h4.46l4.27,8.37c1.17,2.29,2.07,4.14,3.02,6.25h0.09
		c0.85-1.98,1.89-3.96,3.06-6.25l4.36-8.37h4.45l-10.17,17.41v12.91h-3.96V65.17z"/>
	<path class="st0" d="M329.62,65.17l-9.9-30.33h4.23l4.73,14.94c1.3,4.09,2.43,7.78,3.24,11.34h0.09c0.85-3.51,2.12-7.33,3.46-11.29
		l5.13-14.98h4.19l-10.84,30.33L329.62,65.17L329.62,65.17z"/>
	<path class="st0" d="M354.95,34.83v30.33h-3.91V34.83H354.95z"/>
	<path class="st0" d="M364.22,60.39c1.75,1.08,4.32,1.98,7.02,1.98c4,0,6.34-2.12,6.34-5.17c0-2.83-1.62-4.46-5.71-6.03
		c-4.95-1.75-8.01-4.32-8.01-8.59c0-4.72,3.91-8.24,9.81-8.24c3.1,0,5.35,0.72,6.7,1.49l-1.08,3.2c-0.99-0.54-3.01-1.44-5.76-1.44
		c-4.14,0-5.71,2.47-5.71,4.54c0,2.83,1.84,4.23,6.03,5.85c5.13,1.98,7.74,4.45,7.74,8.91c0,4.68-3.46,8.73-10.62,8.73
		c-2.92,0-6.12-0.86-7.74-1.94L364.22,60.39z"/>
	<path class="st0" d="M393.83,34.83v17.95c0,6.79,3.02,9.67,7.07,9.67c4.5,0,7.38-2.97,7.38-9.67V34.83h3.96v17.68
		c0,9.31-4.9,13.14-11.47,13.14c-6.21,0-10.89-3.55-10.89-12.96V34.83H393.83z"/>
	<path class="st0" d="M425.38,55.62l-3.15,9.54h-4.05l10.3-30.33h4.72l10.35,30.33h-4.18l-3.24-9.54H425.38z M435.32,52.57
		l-2.97-8.73c-0.67-1.98-1.12-3.78-1.57-5.54h-0.09c-0.45,1.8-0.94,3.65-1.53,5.49l-2.97,8.77h9.13V52.57z"/>
	<path class="st0" d="M450.98,34.83h3.91v27.04h12.96v3.29h-16.87V34.83z"/>
</g>
</svg>
