<?xml version="1.0" encoding="utf-8"?>
<!-- Generator: Adobe Illustrator 27.5.0, SVG Export Plug-In . SVG Version: 6.00 Build 0)  -->
<svg version="1.1" id="Layer_1" xmlns="http://www.w3.org/2000/svg" xmlns:xlink="http://www.w3.org/1999/xlink" x="0px" y="0px"
	 viewBox="0 0 57.8 56.4" style="enable-background:new 0 0 57.8 56.4;" xml:space="preserve">
<style type="text/css">
	.st0{fill:#FFFFFF;}
</style>
<g>
	<g>
		<path class="st0" d="M46.9,56.4h-36C4.9,56.4,0,51.5,0,45.5V10.9C0,4.9,4.9,0,10.9,0h36c6,0,10.9,4.9,10.9,10.9v34.6
			C57.8,51.5,52.9,56.4,46.9,56.4 M10.9,1.1c-5.4,0-9.8,4.4-9.8,9.8v34.6c0,5.4,4.4,9.8,9.8,9.8h36c5.4,0,9.8-4.4,9.8-9.8V10.9
			c0-5.4-4.4-9.8-9.8-9.8C46.9,1.1,10.9,1.1,10.9,1.1z"/>
	</g>
	<g>
		<path class="st0" d="M11.2,16.1h4.4v11.2h0.1c0.6-0.9,1.2-1.8,1.8-2.6l6.3-8.5h5.5L21,26.4l8.9,13.9h-5.2l-6.9-11.1l-2.2,2.6v8.5
			h-4.4C11.2,40.3,11.2,16.1,11.2,16.1z"/>
		<path class="st0" d="M33.8,22.8l2.8,8.9c0.5,1.5,0.9,3,1.2,4.4h0.1c0.3-1.4,0.7-2.8,1.2-4.4l2.8-8.9h4.7l-6.7,17.5h-4.4L29,22.8
			C29,22.8,33.8,22.8,33.8,22.8z"/>
	</g>
</g>
</svg>
