<?xml version="1.0" encoding="utf-8"?>
<!-- Generator: Adobe Illustrator 27.5.0, SVG Export Plug-In . SVG Version: 6.00 Build 0)  -->
<svg version="1.1" id="Layer_1" xmlns="http://www.w3.org/2000/svg" xmlns:xlink="http://www.w3.org/1999/xlink" x="0px" y="0px"
	 viewBox="0 0 57.8 56.38" style="enable-background:new 0 0 57.8 56.38;" xml:space="preserve">
<style type="text/css">
	.st0{fill:#FFFFFF;}
</style>
<g>
	<path class="st0" d="M29.04,0.02C34.06,0.02,39.08,0.1,44.1,0c5.82-0.12,11.49,4.02,12.85,10.04c0.23,1.03,0.38,2.1,0.38,3.15
		c0.02,9.92,0.05,19.84-0.02,29.76c-0.06,7.71-5.91,13.39-13.62,13.4c-9.92,0.01-19.84,0.03-29.77,0.02
		c-6.31,0-11.49-3.9-13.04-9.86c-0.31-1.21-0.43-2.5-0.43-3.75c-0.03-7.02,0-14.05,0.01-21.07c0-2.82-0.02-5.64,0.02-8.45
		C0.55,8.74,2.4,5.13,6.05,2.48c2.17-1.58,4.6-2.44,7.31-2.44c5.23,0,10.45,0,15.68,0C29.04,0.03,29.04,0.03,29.04,0.02z
		 M55.15,28.27c0.02,0,0.03,0,0.05,0c0-0.57,0-1.14,0-1.71c-0.01-4.65,0.06-9.31-0.05-13.96C55.03,7.09,50.56,2.17,44.32,2.08
		c-10.24-0.15-20.49-0.07-30.73,0c-3.15,0.02-5.87,1.28-8.04,3.61c-2.12,2.27-2.96,5.03-2.96,8.07c-0.02,8.04-0.04,16.07-0.04,24.11
		c0,2.12-0.06,4.25,0.11,6.36c0.44,5.53,5.15,9.97,10.69,10.01c10.33,0.06,20.65,0.06,30.98,0c5.83-0.03,10.64-4.72,10.79-10.54
		C55.25,38.55,55.15,33.41,55.15,28.27z"/>
	<path class="st0" d="M23.54,21.74c2.44,0,4.9,0,7.45,0c0.06,0.93,0.11,1.77,0.18,2.87c0.39-0.34,0.65-0.54,0.87-0.77
		c2.54-2.67,5.7-3.4,9.19-2.77c3.69,0.67,5.84,3.11,6.75,6.63c0.38,1.48,0.54,3.05,0.56,4.58c0.07,4.57,0.01,9.14,0,13.71
		c0,0.48-0.05,0.95-0.09,1.51c-2.69,0-5.28,0-7.97,0c-0.04-0.6-0.09-1.12-0.09-1.63c-0.01-4.2,0-8.41-0.01-12.61
		c0-0.65-0.07-1.3-0.2-1.94c-0.34-1.68-1.35-2.81-3.03-3.14c-1.79-0.36-3.4,0.04-4.61,1.55c-0.88,1.11-1.16,2.42-1.19,3.78
		c-0.05,2.65-0.03,5.3-0.03,7.96c0,1.59,0,3.18-0.01,4.77c0,0.4-0.07,0.79-0.11,1.27c-2.64,0-5.18,0-7.7,0
		C23.16,46.28,23.2,22.84,23.54,21.74z"/>
	<path class="st0" d="M9.87,47.5c0-8.57,0-17.07,0-25.74c2.67-0.21,5.29-0.07,8.04-0.06c0.05,0.59,0.14,1.06,0.13,1.53
		c0,7.71-0.01,15.41-0.03,23.12c0,1.17-0.09,1.26-1.25,1.26c-1.96,0.01-3.91,0.01-5.87,0C10.59,47.6,10.28,47.54,9.87,47.5z"/>
	<path class="st0" d="M18.61,13.37c0.02,2.55-2.06,4.63-4.66,4.67c-2.62,0.04-4.68-1.95-4.73-4.57c-0.05-2.61,2.06-4.72,4.72-4.72
		C16.58,8.74,18.59,10.73,18.61,13.37z"/>
</g>
</svg>
