<?xml version="1.0" encoding="utf-8"?>
<!-- Generator: Adobe Illustrator 27.5.0, SVG Export Plug-In . SVG Version: 6.00 Build 0)  -->
<svg version="1.1" id="Layer_1" xmlns="http://www.w3.org/2000/svg" xmlns:xlink="http://www.w3.org/1999/xlink" x="0px" y="0px"
	 viewBox="0 0 700 100" style="enable-background:new 0 0 700 100;" xml:space="preserve">
<style type="text/css">
	.st0{fill:#F5B9A5;}
	.st1{enable-background:new    ;}
</style>
<g>
	<g>
		<g>
			<path class="st0" d="M50.7,99.75c-9.07,0-18.13,0.02-27.2,0c-11.04-0.04-20.37-7.4-22.89-18.1c-0.38-1.6-0.56-3.3-0.58-4.94
				C-0.02,58.89-0.08,41.07,0,23.27C0.1,10.23,10.4-0.09,23.44-0.17c18.07-0.1,635-0.1,653.06-0.02c12.1,0.06,21.75,8.5,23.23,20.2
				c0.34,2.72,0.2,5.5,0.2,8.24c0,16-0.02,32-0.06,48.02c-0.04,13.08-10.2,23.3-23.29,23.38c-8.99,0.06-616.87,0.02-625.86,0.02
				C50.7,99.69,50.7,99.73,50.7,99.75z M3.91,49.63H3.89c0,4.42,0,8.84,0,13.24c0,4.5-0.04,8.98,0,13.48
				c0.1,11.06,8.73,19.68,19.83,19.7c17.91,0.02,634.72,0.02,652.62-0.06c11.16-0.04,19.75-8.58,19.79-19.7
				c0.08-17.6,0.1-35.2,0.08-52.8c-0.02-11.32-8.67-19.98-20.01-20.02C658.35,3.41,41.63,3.43,23.78,3.51
				c-2.14,0-4.37,0.4-6.39,1.06C9.3,7.15,3.99,14.39,3.93,22.89C3.85,31.81,3.91,40.71,3.91,49.63z"/>
		</g>
	</g>
</g>
<g class="st1">
	<path class="st0" d="M183.06,51.86c-0.23-4.23-0.5-9.31-0.45-13.09h-0.13c-1.04,3.55-2.29,7.33-3.83,11.52L173.3,65h-2.97
		l-4.9-14.44c-1.44-4.28-2.65-8.19-3.51-11.79h-0.09c-0.09,3.78-0.31,8.87-0.58,13.41l-0.81,13h-3.73l2.11-30.33h5l5.17,14.67
		c1.26,3.73,2.29,7.06,3.06,10.21h0.14c0.76-3.06,1.84-6.39,3.19-10.21l5.4-14.67h4.99l1.89,30.33h-3.83L183.06,51.86z"/>
	<path class="st0" d="M212.35,50.96h-11.79v10.93h13.14v3.29h-17.05V34.85h16.38v3.29h-12.46v9.58h11.79v3.24H212.35z"/>
	<path class="st0" d="M221.76,35.25c2.38-0.36,5.22-0.63,8.32-0.63c5.62,0,9.63,1.3,12.28,3.78c2.7,2.47,4.27,5.98,4.27,10.89
		c0,4.95-1.53,9-4.36,11.79c-2.83,2.83-7.51,4.36-13.41,4.36c-2.79,0-5.13-0.13-7.11-0.36L221.76,35.25L221.76,35.25z M225.67,62.07
		c0.99,0.18,2.43,0.22,3.96,0.22c8.37,0,12.91-4.68,12.91-12.87c0.04-7.16-4-11.7-12.28-11.7c-2.02,0-3.55,0.18-4.59,0.41V62.07
		L225.67,62.07z"/>
	<path class="st0" d="M258.61,34.85v30.33h-3.91V34.85H258.61z"/>
	<path class="st0" d="M289.61,64.19c-1.44,0.72-4.32,1.44-8.01,1.44c-8.55,0-14.98-5.4-14.98-15.34c0-9.49,6.43-15.93,15.84-15.93
		c3.78,0,6.16,0.81,7.2,1.35l-0.95,3.19c-1.48-0.72-3.6-1.26-6.12-1.26c-7.11,0-11.83,4.54-11.83,12.51
		c0,7.42,4.27,12.19,11.65,12.19c2.39,0,4.81-0.5,6.39-1.26L289.61,64.19z"/>
	<path class="st0" d="M302.57,55.64l-3.15,9.54h-4.05l10.3-30.33h4.72l10.35,30.33h-4.19l-3.24-9.54H302.57z M312.52,52.58
		l-2.97-8.73c-0.67-1.98-1.12-3.78-1.57-5.54h-0.09c-0.45,1.8-0.94,3.65-1.53,5.49l-2.97,8.77h9.13V52.58z"/>
	<path class="st0" d="M328.18,34.85h3.91v27.04h12.96v3.29h-16.87V34.85z"/>
	<path class="st0" d="M364.9,35.25c2.38-0.36,5.22-0.63,8.32-0.63c5.62,0,9.63,1.3,12.28,3.78c2.7,2.47,4.28,5.98,4.28,10.89
		c0,4.95-1.53,9-4.37,11.79c-2.83,2.83-7.51,4.36-13.41,4.36c-2.79,0-5.13-0.13-7.11-0.36L364.9,35.25L364.9,35.25z M368.81,62.07
		c0.99,0.18,2.43,0.22,3.96,0.22c8.37,0,12.92-4.68,12.92-12.87c0.04-7.16-4-11.7-12.29-11.7c-2.02,0-3.55,0.18-4.59,0.41V62.07z"/>
	<path class="st0" d="M413.54,50.96h-11.79v10.93h13.14v3.29h-17.05V34.85h16.38v3.29h-12.46v9.58h11.79v3.24H413.54z"/>
	<path class="st0" d="M422.41,60.41c1.75,1.08,4.32,1.98,7.02,1.98c4,0,6.34-2.12,6.34-5.17c0-2.83-1.62-4.46-5.71-6.03
		c-4.95-1.75-8.01-4.32-8.01-8.59c0-4.72,3.92-8.24,9.81-8.24c3.11,0,5.35,0.72,6.71,1.49l-1.08,3.2c-0.99-0.54-3.01-1.44-5.76-1.44
		c-4.14,0-5.71,2.47-5.71,4.54c0,2.83,1.84,4.23,6.03,5.85c5.13,1.98,7.74,4.45,7.74,8.91c0,4.68-3.46,8.73-10.62,8.73
		c-2.92,0-6.12-0.86-7.74-1.94L422.41,60.41z"/>
	<path class="st0" d="M452.02,34.85v30.33h-3.92V34.85H452.02z"/>
	<path class="st0" d="M484.91,63.83c-1.75,0.63-5.22,1.67-9.31,1.67c-4.59,0-8.37-1.17-11.34-4c-2.61-2.52-4.23-6.57-4.23-11.29
		c0.04-9.04,6.25-15.66,16.42-15.66c3.51,0,6.25,0.76,7.56,1.39l-0.94,3.2c-1.62-0.72-3.65-1.31-6.71-1.31
		c-7.38,0-12.19,4.59-12.19,12.2c0,7.69,4.63,12.24,11.7,12.24c2.57,0,4.32-0.36,5.22-0.81v-9.04h-6.17v-3.15h9.99V63.83z"/>
	<path class="st0" d="M493.87,65.18V34.85h4.28l9.72,15.34c2.25,3.55,4,6.75,5.44,9.85L513.4,60c-0.36-4.05-0.45-7.74-0.45-12.46
		V34.85h3.69v30.33h-3.96l-9.63-15.39c-2.12-3.38-4.14-6.84-5.67-10.12l-0.13,0.04c0.22,3.82,0.32,7.47,0.32,12.51v12.96H493.87z"/>
	<path class="st0" d="M525.91,60.41c1.75,1.08,4.32,1.98,7.02,1.98c4,0,6.34-2.12,6.34-5.17c0-2.83-1.62-4.46-5.71-6.03
		c-4.95-1.75-8.01-4.32-8.01-8.59c0-4.72,3.92-8.24,9.81-8.24c3.11,0,5.36,0.72,6.71,1.49l-1.08,3.2c-0.99-0.54-3.01-1.44-5.76-1.44
		c-4.14,0-5.71,2.47-5.71,4.54c0,2.83,1.84,4.23,6.03,5.85c5.13,1.98,7.74,4.45,7.74,8.91c0,4.68-3.46,8.73-10.62,8.73
		c-2.92,0-6.12-0.86-7.74-1.94L525.91,60.41z"/>
</g>
</svg>
