<?xml version="1.0" encoding="utf-8"?>
<!-- Generator: Adobe Illustrator 27.5.0, SVG Export Plug-In . SVG Version: 6.00 Build 0)  -->
<svg version="1.1" id="Layer_1" xmlns="http://www.w3.org/2000/svg" xmlns:xlink="http://www.w3.org/1999/xlink" x="0px" y="0px"
	 viewBox="0 0 57.8 56.4" style="enable-background:new 0 0 57.8 56.4;" xml:space="preserve">
<style type="text/css">
	.st0{fill:#F5B9A5;}
</style>
<g>
	<g>
		<path class="st0" d="M46.9,56.4h-36C4.9,56.4,0,51.5,0,45.5V10.9C0,4.9,4.9,0,10.9,0h36c6,0,10.9,4.9,10.9,10.9v34.6
			C57.8,51.5,52.9,56.4,46.9,56.4 M10.9,1.1c-5.4,0-9.8,4.4-9.8,9.8v34.6c0,5.4,4.4,9.8,9.8,9.8h36c5.4,0,9.8-4.4,9.8-9.8V10.9
			c0-5.4-4.4-9.8-9.8-9.8C46.9,1.1,10.9,1.1,10.9,1.1z"/>
	</g>
	<g>
		<path class="st0" d="M26.6,30.9c-0.1-3.1-0.3-6.9-0.3-10.2h-0.1c-0.8,3-1.8,6.2-2.9,9.3l-3.5,10.5h-3.4l-3.2-10.4
			c-0.9-3.1-1.8-6.4-2.4-9.4h-0.1c-0.1,3.2-0.2,7-0.4,10.3l-0.5,9.7H5.6l1.6-24.3H13l3.2,9.8c0.9,2.8,1.6,5.7,2.2,8.4h0.1
			c0.6-2.6,1.5-5.6,2.4-8.5l3.4-9.7H30l1.4,24.3h-4.3L26.6,30.9z"/>
		<path class="st0" d="M52.1,15.2v20.6c0,1.8,0.1,3.7,0.1,4.9h-4L48.1,38H48c-1,1.9-3.2,3.2-5.7,3.2c-4.2,0-7.5-3.6-7.5-9
			c0-5.9,3.6-9.4,7.8-9.4c2.4,0,4.1,1,4.9,2.3h0.1v-9.9L52.1,15.2L52.1,15.2z M47.7,30.5c0-0.4,0-0.8-0.1-1.1
			c-0.4-1.7-1.8-3.1-3.8-3.1c-2.8,0-4.4,2.5-4.4,5.8c0,3.2,1.6,5.5,4.4,5.5c1.8,0,3.4-1.2,3.8-3.1c0.1-0.4,0.1-0.8,0.1-1.3
			L47.7,30.5L47.7,30.5z"/>
	</g>
</g>
</svg>
