<?xml version="1.0" encoding="utf-8"?>
<!-- Generator: Adobe Illustrator 27.5.0, SVG Export Plug-In . SVG Version: 6.00 Build 0)  -->
<svg version="1.1" id="Layer_1" xmlns="http://www.w3.org/2000/svg" xmlns:xlink="http://www.w3.org/1999/xlink" x="0px" y="0px"
	 viewBox="0 0 57.8 56.38" style="enable-background:new 0 0 57.8 56.38;" xml:space="preserve">
<style type="text/css">
	.st0{fill:#F5B9A5;}
</style>
<g>
	<g>
		<path class="st0" d="M46.91,56.38H10.89C4.88,56.38,0,51.5,0,45.49v-34.6C0,4.88,4.88,0,10.89,0h36.02
			C52.91,0,57.8,4.88,57.8,10.89v34.6C57.8,51.5,52.91,56.38,46.91,56.38 M10.89,1.12c-5.39,0-9.77,4.38-9.77,9.77v34.6
			c0,5.38,4.38,9.77,9.77,9.77h36.02c5.38,0,9.77-4.38,9.77-9.77v-34.6c0-5.38-4.38-9.77-9.77-9.77H10.89z"/>
	</g>
	<g>
		<path class="st0" d="M26.65,30.87c-0.14-3.13-0.32-6.91-0.29-10.19h-0.11c-0.79,2.95-1.8,6.23-2.88,9.29l-3.53,10.51h-3.42
			l-3.24-10.37c-0.94-3.1-1.8-6.41-2.45-9.43h-0.07c-0.11,3.17-0.25,7.02-0.43,10.33l-0.54,9.75H5.55l1.62-24.26h5.83l3.17,9.75
			c0.86,2.84,1.62,5.72,2.23,8.42h0.11c0.65-2.63,1.48-5.62,2.41-8.46l3.35-9.72h5.76l1.4,24.26h-4.32L26.65,30.87z"/>
		<path class="st0" d="M52.1,15.21v20.62c0,1.8,0.07,3.74,0.14,4.93h-3.96L48.1,38h-0.07c-1.04,1.94-3.17,3.17-5.72,3.17
			c-4.18,0-7.49-3.56-7.49-8.96c-0.04-5.87,3.64-9.36,7.85-9.36c2.41,0,4.14,1.01,4.93,2.3h0.07v-9.93H52.1z M47.67,30.55
			c0-0.36-0.04-0.79-0.11-1.15c-0.4-1.73-1.8-3.13-3.82-3.13c-2.84,0-4.43,2.52-4.43,5.79c0,3.2,1.58,5.54,4.39,5.54
			c1.8,0,3.38-1.22,3.82-3.13c0.11-0.4,0.14-0.83,0.14-1.3V30.55z"/>
	</g>
</g>
</svg>
