<?xml version="1.0" encoding="utf-8"?>
<!-- Generator: Adobe Illustrator 27.5.0, SVG Export Plug-In . SVG Version: 6.00 Build 0)  -->
<svg version="1.1" id="Layer_1" xmlns="http://www.w3.org/2000/svg" xmlns:xlink="http://www.w3.org/1999/xlink" x="0px" y="0px"
	 viewBox="0 0 57.8 56.4" style="enable-background:new 0 0 57.8 56.4;" xml:space="preserve">
<style type="text/css">
	.st0{fill:#F5B9A5;}
</style>
<g>
	<g>
		<path class="st0" d="M46.9,56.4h-36C4.9,56.4,0,51.5,0,45.5V10.9C0,4.9,4.9,0,10.9,0h36c6,0,10.9,4.9,10.9,10.9v34.6
			C57.8,51.5,52.9,56.4,46.9,56.4 M10.9,1.1c-5.4,0-9.8,4.4-9.8,9.8v34.6c0,5.4,4.4,9.8,9.8,9.8h36c5.4,0,9.8-4.4,9.8-9.8V10.9
			c0-5.4-4.4-9.8-9.8-9.8C46.9,1.1,10.9,1.1,10.9,1.1z"/>
	</g>
	<g>
		<path class="st0" d="M26.9,26.7c-0.1-3.1-0.3-6.9-0.3-10.2h-0.1c-0.8,3-1.8,6.2-2.9,9.3l-3.5,10.5h-3.4l-3.2-10.4
			c-0.9-3.1-1.8-6.4-2.4-9.4h-0.1c-0.1,3.2-0.2,7-0.4,10.3l-0.5,9.7H5.8l1.6-24.3h5.8l3.2,9.7c0.9,2.8,1.6,5.7,2.2,8.4h0.1
			c0.6-2.6,1.5-5.6,2.4-8.5l3.4-9.7h5.8l1.4,24.3h-4.3L26.9,26.7z"/>
		<path class="st0" d="M52,19c-0.1,1.2-0.1,2.6-0.1,5V34c0,3.7-0.8,6.3-2.6,8c-1.8,1.6-4.4,2.1-6.8,2.1c-2.2,0-4.6-0.5-6.1-1.4
			l1-3.3c1.1,0.7,3,1.3,5.1,1.3c2.9,0,5-1.5,5-5.3v-1.5h-0.1c-1,1.5-2.8,2.6-5.1,2.6c-4.4,0-7.5-3.6-7.5-8.6c0-5.8,3.7-9.2,8-9.2
			c2.7,0,4.2,1.3,5.1,2.7H48l0.2-2.3H52z M47.4,26c0-0.4,0-0.8-0.1-1.2c-0.5-1.6-1.7-2.8-3.6-2.8c-2.5,0-4.3,2.2-4.3,5.7
			c0,3,1.5,5.4,4.3,5.4c1.7,0,3.1-1.1,3.6-2.7c0.1-0.5,0.2-1.1,0.2-1.6V26z"/>
	</g>
</g>
</svg>
