<?xml version="1.0" encoding="utf-8"?>
<!-- Generator: Adobe Illustrator 27.5.0, SVG Export Plug-In . SVG Version: 6.00 Build 0)  -->
<svg version="1.1" id="Layer_1" xmlns="http://www.w3.org/2000/svg" xmlns:xlink="http://www.w3.org/1999/xlink" x="0px" y="0px"
	 viewBox="0 0 57.8 56.38" style="enable-background:new 0 0 57.8 56.38;" xml:space="preserve">
<style type="text/css">
	.st0{fill:#F5B9A5;}
</style>
<g>
	<g>
		<path class="st0" d="M46.91,56.38H10.89C4.88,56.38,0,51.5,0,45.49v-34.6C0,4.88,4.88,0,10.89,0h36.02
			C52.91,0,57.8,4.88,57.8,10.89v34.6C57.8,51.5,52.91,56.38,46.91,56.38 M10.89,1.12c-5.39,0-9.77,4.38-9.77,9.77v34.6
			c0,5.38,4.38,9.77,9.77,9.77h36.02c5.38,0,9.77-4.38,9.77-9.77v-34.6c0-5.38-4.38-9.77-9.77-9.77H10.89z"/>
	</g>
	<g>
		<path class="st0" d="M26.88,26.66c-0.14-3.13-0.32-6.91-0.29-10.19h-0.11c-0.79,2.95-1.8,6.23-2.88,9.29l-3.53,10.51h-3.42
			l-3.24-10.37c-0.94-3.1-1.8-6.41-2.45-9.43H10.9c-0.11,3.17-0.25,7.02-0.43,10.33l-0.54,9.75H5.79L7.41,12.3h5.83l3.17,9.75
			c0.86,2.84,1.62,5.72,2.23,8.42h0.11c0.65-2.63,1.48-5.62,2.41-8.46l3.35-9.72h5.76l1.4,24.26h-4.32L26.88,26.66z"/>
		<path class="st0" d="M52.01,19.03c-0.07,1.19-0.14,2.63-0.14,5.04V34c0,3.67-0.76,6.3-2.59,7.96c-1.84,1.62-4.36,2.12-6.77,2.12
			c-2.23,0-4.61-0.47-6.12-1.4l0.97-3.35c1.12,0.65,2.99,1.33,5.11,1.33c2.88,0,5.04-1.51,5.04-5.29v-1.51h-0.07
			c-1.01,1.55-2.81,2.59-5.11,2.59c-4.36,0-7.45-3.6-7.45-8.57c0-5.76,3.74-9.25,7.96-9.25c2.66,0,4.25,1.3,5.08,2.74h0.07
			l0.18-2.34H52.01z M47.44,26.05c0-0.4-0.04-0.83-0.14-1.19c-0.47-1.62-1.73-2.84-3.6-2.84c-2.48,0-4.32,2.16-4.32,5.72
			c0,2.99,1.51,5.4,4.28,5.4c1.66,0,3.1-1.08,3.6-2.66c0.11-0.47,0.18-1.08,0.18-1.58V26.05z"/>
	</g>
</g>
</svg>
