<?xml version="1.0" encoding="utf-8"?>
<!-- Generator: Adobe Illustrator 27.5.0, SVG Export Plug-In . SVG Version: 6.00 Build 0)  -->
<svg version="1.1" id="Layer_1" xmlns="http://www.w3.org/2000/svg" xmlns:xlink="http://www.w3.org/1999/xlink" x="0px" y="0px"
	 viewBox="0 0 57.8 56.38" style="enable-background:new 0 0 57.8 56.38;" xml:space="preserve">
<style type="text/css">
	.st0{fill:#F5B9A5;}
</style>
<g>
	<g>
		<path class="st0" d="M46.91,56.38H10.89C4.88,56.38,0,51.5,0,45.49v-34.6C0,4.88,4.88,0,10.89,0h36.02
			C52.91,0,57.8,4.88,57.8,10.89v34.6C57.8,51.5,52.91,56.38,46.91,56.38 M10.89,1.12c-5.39,0-9.77,4.38-9.77,9.77v34.6
			c0,5.38,4.38,9.77,9.77,9.77h36.02c5.38,0,9.77-4.38,9.77-9.77v-34.6c0-5.38-4.38-9.77-9.77-9.77H10.89z"/>
	</g>
	<g>
		<path class="st0" d="M10.77,17.03c1.58-0.29,3.78-0.5,6.77-0.5c3.24,0,5.62,0.68,7.16,1.98c1.44,1.19,2.38,3.1,2.38,5.36
			c0,2.3-0.72,4.21-2.09,5.51c-1.76,1.76-4.54,2.59-7.67,2.59c-0.83,0-1.58-0.04-2.16-0.14v9.14h-4.39V17.03z M15.17,28.33
			c0.54,0.14,1.26,0.18,2.16,0.18c3.31,0,5.33-1.62,5.33-4.46c0-2.7-1.87-4.14-4.93-4.14c-1.22,0-2.09,0.11-2.56,0.22V28.33z"/>
		<path class="st0" d="M35.04,31.14h0.07c0.43-0.68,0.94-1.44,1.4-2.05l4.25-5.65h5.33l-6.48,7.16l7.42,10.37h-5.44l-5.04-7.74
			l-1.51,1.76v5.98h-4.43V15.41h4.43V31.14z"/>
	</g>
</g>
</svg>
