<?xml version="1.0" encoding="utf-8"?>
<!-- Generator: Adobe Illustrator 27.5.0, SVG Export Plug-In . SVG Version: 6.00 Build 0)  -->
<svg version="1.1" id="Layer_1" xmlns="http://www.w3.org/2000/svg" xmlns:xlink="http://www.w3.org/1999/xlink" x="0px" y="0px"
	 viewBox="0 0 700 100" style="enable-background:new 0 0 700 100;" xml:space="preserve">
<style type="text/css">
	.st0{fill:#FFFFFF;}
</style>
<g>
	<g>
		<g>
			<path class="st0" d="M50.7,99.75c-9.07,0-18.13,0.02-27.2,0c-11.04-0.04-20.37-7.4-22.89-18.1c-0.38-1.6-0.56-3.3-0.58-4.94
				C-0.02,58.89-0.08,41.07,0,23.27C0.1,10.23,10.4-0.09,23.44-0.17c18.07-0.1,635-0.1,653.06-0.02c12.1,0.06,21.75,8.5,23.23,20.2
				c0.34,2.72,0.2,5.5,0.2,8.24c0,16-0.02,32-0.06,48.02c-0.04,13.08-10.2,23.3-23.29,23.38c-8.99,0.06-616.87,0.02-625.86,0.02
				C50.7,99.69,50.7,99.73,50.7,99.75z M3.91,49.63H3.89c0,4.42,0,8.84,0,13.24c0,4.5-0.04,8.98,0,13.48
				c0.1,11.06,8.73,19.68,19.83,19.7c17.91,0.02,634.72,0.02,652.62-0.06c11.16-0.04,19.75-8.58,19.79-19.7
				c0.08-17.6,0.1-35.2,0.08-52.8c-0.02-11.32-8.67-19.98-20.01-20.02C658.35,3.41,41.63,3.43,23.78,3.51
				c-2.14,0-4.37,0.4-6.39,1.06C9.3,7.15,3.99,14.39,3.93,22.89C3.85,31.81,3.91,40.71,3.91,49.63z"/>
		</g>
	</g>
</g>
<g>
	<path class="st0" d="M155.87,35.21c1.89-0.32,4.36-0.58,7.51-0.58c3.87,0,6.7,0.9,8.5,2.52c1.66,1.44,2.65,3.65,2.65,6.34
		c0,2.75-0.81,4.91-2.34,6.48c-2.07,2.2-5.44,3.33-9.27,3.33c-1.17,0-2.25-0.04-3.15-0.27v12.15h-3.91V35.21H155.87z M159.79,49.83
		c0.85,0.23,1.94,0.32,3.24,0.32c4.72,0,7.6-2.29,7.6-6.48c0-4-2.83-5.94-7.15-5.94c-1.71,0-3.01,0.14-3.69,0.32L159.79,49.83
		L159.79,49.83z"/>
	<path class="st0" d="M183.91,55.63l-3.15,9.54h-4.05l10.3-30.33h4.72l10.35,30.33h-4.18l-3.24-9.54
		C194.66,55.63,183.91,55.63,183.91,55.63z M193.85,52.58l-2.97-8.73c-0.67-1.98-1.12-3.78-1.57-5.54h-0.09
		c-0.45,1.8-0.94,3.65-1.53,5.49l-2.97,8.77L193.85,52.58L193.85,52.58z"/>
	<path class="st0" d="M230.03,64.18c-1.44,0.72-4.32,1.44-8.01,1.44c-8.55,0-14.98-5.4-14.98-15.35c0-9.49,6.43-15.93,15.84-15.93
		c3.78,0,6.16,0.81,7.2,1.35l-0.95,3.19c-1.48-0.72-3.6-1.26-6.12-1.26c-7.11,0-11.83,4.54-11.83,12.51
		c0,7.43,4.27,12.19,11.65,12.19c2.39,0,4.81-0.5,6.39-1.26L230.03,64.18z"/>
	<path class="st0" d="M237.91,34.85h3.91v14.62h0.14c0.81-1.17,1.62-2.25,2.38-3.24l9.27-11.38h4.86l-10.98,12.87l11.83,17.46h-4.63
		l-9.99-14.9l-2.88,3.33v11.56h-3.91L237.91,34.85L237.91,34.85z"/>
	<path class="st0" d="M270.62,55.63l-3.15,9.54h-4.05l10.3-30.33h4.72l10.35,30.33h-4.18l-3.24-9.54
		C281.37,55.63,270.62,55.63,270.62,55.63z M280.57,52.58l-2.97-8.73c-0.67-1.98-1.12-3.78-1.57-5.54h-0.09
		c-0.45,1.8-0.94,3.65-1.53,5.49l-2.97,8.77L280.57,52.58L280.57,52.58z"/>
	<path class="st0" d="M318.64,63.83c-1.75,0.63-5.22,1.67-9.31,1.67c-4.59,0-8.37-1.17-11.34-4c-2.61-2.52-4.23-6.57-4.23-11.3
		c0.04-9.04,6.25-15.66,16.42-15.66c3.51,0,6.25,0.76,7.56,1.39l-0.94,3.2c-1.62-0.72-3.65-1.3-6.71-1.3
		c-7.38,0-12.19,4.59-12.19,12.19c0,7.69,4.63,12.24,11.7,12.24c2.56,0,4.32-0.36,5.22-0.81v-9.04h-6.17v-3.15h9.99V63.83z"/>
	<path class="st0" d="M331.51,34.85v30.33h-3.91V34.85H331.51z"/>
	<path class="st0" d="M341.32,65.17V34.85h4.27l9.72,15.34c2.25,3.56,4,6.75,5.45,9.85l0.09-0.04c-0.36-4.05-0.45-7.74-0.45-12.47
		V34.85h3.69v30.33h-3.96l-9.63-15.39c-2.12-3.38-4.14-6.84-5.67-10.12l-0.13,0.04c0.22,3.82,0.31,7.47,0.31,12.51v12.96
		L341.32,65.17L341.32,65.17z"/>
	<path class="st0" d="M396.98,63.83c-1.75,0.63-5.22,1.67-9.31,1.67c-4.59,0-8.37-1.17-11.34-4c-2.61-2.52-4.23-6.57-4.23-11.3
		c0.04-9.04,6.25-15.66,16.42-15.66c3.51,0,6.25,0.76,7.56,1.39l-0.94,3.2c-1.62-0.72-3.65-1.3-6.71-1.3
		c-7.38,0-12.19,4.59-12.19,12.19c0,7.69,4.63,12.24,11.7,12.24c2.57,0,4.32-0.36,5.22-0.81v-9.04H387v-3.15h9.99v14.57H396.98z"/>
	<path class="st0" d="M437.43,65.17c-0.86-0.85-1.67-1.71-2.83-2.97c-2.61,2.43-5.54,3.46-8.86,3.46c-5.9,0-9.32-3.96-9.32-8.5
		c0-4.14,2.48-6.98,5.94-8.86v-0.14c-1.58-1.98-2.52-4.18-2.52-6.34c0-3.69,2.66-7.47,7.7-7.47c3.78,0,6.7,2.52,6.7,6.44
		c0,3.19-1.84,5.71-6.66,8.1v0.13c2.56,2.97,5.44,6.3,7.38,8.46c1.39-2.12,2.34-5.04,2.92-8.87h3.6c-0.81,4.77-2.12,8.55-4.37,11.21
		c1.62,1.71,3.2,3.42,5,5.35C442.11,65.17,437.43,65.17,437.43,65.17z M432.66,59.96c-1.8-1.98-5.17-5.67-8.55-9.54
		c-1.62,1.04-3.92,2.97-3.92,6.17c0,3.46,2.56,6.12,6.21,6.12C429.02,62.7,431.22,61.53,432.66,59.96z M423.44,41.46
		c0,2.16,0.99,3.82,2.29,5.44c3.06-1.75,5.04-3.38,5.04-5.94c0-1.84-1.03-3.92-3.51-3.92C424.74,37.05,423.44,39.12,423.44,41.46z"
		/>
	<path class="st0" d="M461.15,34.85h3.92v14.62h0.13c0.81-1.17,1.62-2.25,2.38-3.24l9.27-11.38h4.86l-10.98,12.87l11.83,17.46h-4.63
		l-9.99-14.9l-2.88,3.33v11.56h-3.92V34.85H461.15z"/>
	<path class="st0" d="M492.42,34.85v30.33h-3.92V34.85H492.42z"/>
	<path class="st0" d="M507.99,38.18h-9.22v-3.33h22.45v3.33h-9.27v27h-3.96V38.18z"/>
	<path class="st0" d="M526.76,60.41c1.75,1.08,4.32,1.98,7.02,1.98c4,0,6.34-2.12,6.34-5.17c0-2.83-1.62-4.46-5.71-6.03
		c-4.95-1.75-8.01-4.32-8.01-8.59c0-4.72,3.92-8.24,9.81-8.24c3.11,0,5.36,0.72,6.71,1.49l-1.08,3.2c-0.99-0.54-3.01-1.44-5.76-1.44
		c-4.14,0-5.71,2.47-5.71,4.54c0,2.83,1.84,4.23,6.03,5.85c5.13,1.98,7.74,4.46,7.74,8.91c0,4.68-3.46,8.73-10.62,8.73
		c-2.92,0-6.12-0.86-7.74-1.94L526.76,60.41z"/>
</g>
</svg>
